<svg width="67" height="33" xmlns="http://www.w3.org/2000/svg" viewBox="0 0 67 33">
    <path d="M1.784 1.465c-.23 1.32 3.312 27.046 1.683 30.87l58.747-.98c3.414-9.776 3.081-19.178 2.806-20.206-.691 2.107-3.125 6.391-5.797 7.593.16-3.871-1.91-8.778-3.184-10.73-.128 6.083-.977 8.706-1.496 12.91.25-6.36 1.124-15.597.748-19.083-2.336 5.148-5.397 9.57-9.354 13.096L45 11.194l-2.62 7.296c.947-3.846.512-12.394.375-12.91-2.422 4.69-4.68 11.09-4.677 17.026-.277-4.264-4.574-8.702-6.343-10.068.858 2.128 2.184 5.294 2.905 7.846-.437-.779-1.599-1.725-2.544-2.872 2.228 12.86 2.218 12.627-.584.02L21.241 6.517c-5.139 12.752-3.925 14.339-3.06.88-2.648 7.25-2.244 5.238-3.367 7.857 1.56-4.032 2.382-9.691 2.344-12.116C15.574 5.575 11 14.88 9.488 21.097c-.87-4.903-2.04-10.329-4.476-15.76-.277 1.827-.314 4.273-.035 6.468-.802-3.136-1.556-6.213-3.193-10.34z" style="fill:#6c7638"/>
    <path d="M52.123 11.42c-.328 5.426-2.053 10.527-3.043 15.743l-5.424-5.027-.926 4.63-.348-8.276c-2.013 3.905-5.456 7.81-8.25 11.716-1.461-2.824-3.138-6.08-4.372-8.45-.534 2.629-1.907 4.179-3.295 5.709L18.817 13.98c-.594 5.394-2.342 8.4-4.176 12.186.443-1.093-.178-5.264-.75-6.545l-1.985 7.673-1.853-8.215a34.63 34.63 0 00-.565 2.018c-.414-2.332-.898-4.781-1.55-7.293-.234.53-1.72 8.004 0 18.455l50.127-.836c.233-2.531.645-4.967-.254-8.097l-.926 3.704c.193-2.398-.776-5.972-1.897-9.104a70.787 70.787 0 00-.445 2.995c.045-1.15.114-2.407.188-3.694-1.101-2.955-2.274-5.386-2.608-5.808z" style="fill:#566233"/>
</svg>
