<svg width="17" height="25" xmlns="http://www.w3.org/2000/svg" viewBox="0 0 17 25">
    <g style="stroke:null;stroke-opacity:null;stroke-width:null">
        <path d="M2.32 7.422c-3.33 1.573 10.492 6.006 8.245 2.052L2.32 7.422zm8.049 6.048c-2.64 2.072 6.303 3.106 4.934 1.237l-4.934-1.237z" style="fill:#a02c2c"/>
        <path d="M10.482 13.904c-2.508 1.17 6.301 2.723 4.448.832l-4.448-.832z" style="fill:#5b1a1a"/>
        <path d="M6.306 5.25c.2.7.366 1.424.496 2.17-1.432-.094-3.003.166-4.394.037 1.834.864 3.35.857 4.722 3.426a24.122 24.122 0 01-.248 3.896c-.417-.01-.784.01-.995.079.352.1.66.18.947.242-.476 3.022-1.54 6.16-3.336 9.246l1.966.422c4.845-2.178 6.929-4.722 7.742-7.21.265-.013.553-.048.854-.104-.14-.124-.415-.214-.739-.276a9.6 9.6 0 00.316-1.848c.401-.614.765-.788 1.548-.886-.605-.134-1.089-.415-1.534-.687a16.7 16.7 0 00-.043-.644l-1.404-1.685c.075.54.16 1.12.225 1.717-.555-.138-1.151-.003-1.947.759.516.026 1.405.512 2.04 1.326a7.234 7.234 0 01-.31 1.862c-.366.01-.704.055-.92.146.291.1.548.174.788.227-.685 1.738-2.291 3.226-5.744 3.93 1.037-1.955 1.658-3.973 1.961-6.103.351.01.702-.005 1.098-.042-.23-.128-.616-.234-1.047-.315.169-1.351.213-2.748.156-4.205.808-.723 1.414-.675 2.145-.592-.549-1.411-1.396-2.114-2.392-2.451a55.238 55.238 0 00-.336-2.367l-1.615-.07z" style="fill:#f6ffd5"/>
        <path d="M12.352 12.521c.027.207.054.413.077.624-.555-.138-1.151-.003-1.947.759.516.026 1.405.512 2.04 1.326-.01.21-.03.42-.054.63a9.91 9.91 0 011.152-.357l.017-.173c.402-.614.765-.787 1.548-.886-.605-.134-1.088-.415-1.534-.687a16.7 16.7 0 00-.043-.644l-.043-.052-1.213-.54z" style="fill:#a48d48"/>
        <path d="M2.19 7.343c-2.064 1.896 10.294 5.832 8.245 2.052L2.19 7.343z" style="fill:#5b1a1a"/>
        <path d="M6.306 5.25c.2.7.366 1.424.496 2.17-1.432-.094-3.003.166-4.394.037 1.834.864 3.35.857 4.722 3.426.01.505-.002 1.018-.026 1.534.432-.371.912-.71 1.415-1.012-.004-.224-.005-.447-.015-.675.808-.723 1.414-.675 2.145-.592-.549-1.411-1.395-2.114-2.392-2.451a55.397 55.397 0 00-.336-2.367l-1.615-.07zm.257 9.679a1.825 1.825 0 00-.234.005l-.093.018c.095.041.41.106.598.148-.12.76-.277 1.526-.473 2.298a11.573 11.573 0 011.72-.88c.083-.405.158-.814.216-1.227.189.005.446 0 .59-.008l.03-.001c-.179-.113-1.678-.335-2.354-.353zm5.196 2.385a1.41 1.41 0 00-.192.015l-.077.019c.1.047.342.075.5.104-.184.714-.479.944-.755 1.405.165-.06.979.003 1.53-.191.178-.344.405-.716.438-1.075.196-.038.458-.06.51-.08-.151-.09-1.395-.21-1.954-.197z" style="fill:#a48d48"/>
        <path d="M1.871 7.773c6.494-15.286 9.6.083 8.943 2.563-.839-1.397-8.406-2.879-8.943-2.563zm13.538 7.093c-1.13-7.343-3.823-5.13-5.467-.893.997-.316 4.622.223 5.467.893z" style="fill:#a02c2c"/>
    </g>
</svg>
