<svg width="41" height="61" xmlns="http://www.w3.org/2000/svg" viewBox="0 0 41 61">
    <path d="M16.646 4.802l1.123-3.93 2.245 3.555 3.741-1.87V6.11c3.022.81 4.185 1.008 8.73-.123-1.509 4.09-1.27 5.735-1.059 7.42.657.407 1.515.413 2.874-.584-.587 2.362-1.373 3.726-2.313 4.325 1.818 2.292 3.19 2.35 4.677 2.994-2.348 2.649-3.12 2.934-4.115 3.555l3.335-.702c-.293 1.701-.855 3.133-2.2 3.782l.548 8.706-3.367-.374-.374 4.303-2.807-2.432-.374 3.742-3.18-2.62-6.549 2.807-3.741-5.8-2.994 3.555-.748-3.93-3.742-1.496 2.432-1.684-6.922-3.18 4.303-7.11-3.555-2.245 3.742-.935-1.31-5.426 4.865-.561-.036-6.786c1.072-.011 3.07.382 4.142.019l1.84-2.73.789 2.2z" style="fill:#4b593e"/>
    <path d="M10.753 13.45c-.007-.005-.014-.003-.02.007-.176.334.49 9.138 2.66 15.286 1.457 4.13 2.961 5.7 5.292 8.624-.154 5.812-.276 13.384-.355 23.187l5.612-.187c-.666-8.11-1.376-17.587-2.061-25.165l5.89-2.577c1.405-5.159 2.81-10.317 2.722-10.273-.055.028-.694 2.088-1.618 4.249l-.013-.003c-.384-.072-1.167-.182-1.811-.846-.645-.664-1.15-1.881-1.205-1.859-.055.022.34 1.283.735 2.545l1.59 1.24c.07.054.118.091.161.122-.423.884-.884 1.724-1.365 2.381-1.526 2.088-4.829 2.322-5.305 2.643-1.148-12.037-2.203-17.445-2.835-.04-1.588-1.53-3.58-3.086-5.05-6.829-1.788-4.548-2.802-12.327-3.024-12.505zM21.679 33a.77.77 0 00.116.065c.955.446-.07.034-.104.051L21.679 33z" style="fill:#32312c"/>
    <path d="M4.778 21.832l-1.684 4.864 2.62-1.122.935 4.49 7.858-5.052 2.806 2.433 4.116-6.549 1.31 3.742 5.986-4.677.562 2.806 2.058-2.993 2.058 1.442 4.303-8.551 2.515-.95-4.76-3.54-.562-4.304-4.864 1.497L24.048.13l-4.034 4.297-4.158-1.825-4.014 5.44-4.139-.474-.119 2.851L.85 8.55l2.058 4.677-1.122 8.045 2.993.56z" style="fill:#cdde87"/>
    <path d="M.85 8.548l2.057 4.678-1.122 8.045 2.993.56-1.684 4.865 2.62-1.122.935 4.49 7.858-5.052 2.806 2.432 4.116-6.548-3.93-3.741-5.05 3.367.187-3.18-3.742.935 2.432-6.36-4.49 2.619L1.184 8.64.85 8.548zm20.579 12.348l1.31 3.742 5.986-4.677c-.122.34-2.563 1.687-4.29 1.836l-1.322-4.642-1.684 3.741z" style="fill:#4b593e;opacity:.6"/>
    <path d="M21.14 47.735l-.595 4.1-1.059-.86-1.124 6.274c-.01 1.105-.023 2.138-.032 3.305l5.612-.187c-.312-3.803-.635-7.92-.96-11.986l-1.842-.646z" style="fill:#6c6753"/>
    <path d="M35.326 12.857l.796 2.003c-1.682-.215-4.093-1.183-4.696-1.452 1.07 1.447 2.525 2.75 3.927 3.932l2.24-4.45-2.267-.033z" style="fill:#a1b578"/>
</svg>
