<svg width="41" height="61" xmlns="http://www.w3.org/2000/svg" viewBox="0 0 41 61">
 <metadata id="metadata5">image/svg+xml</metadata>

 <g>
  <title>Дерево</title>
  <g display="inline" id="layer1">
   <g id="g7396">
    <path fill="#4b593e" id="path431" d="m16.645998,4.801551l1.12254,-3.92886l2.24506,3.55468l3.74177,-1.87088l0,3.55468c3.0214,0.81059 4.18427,1.00811 8.72897,-0.12288c-1.50814,4.09063 -1.26901,5.73506 -1.05833,7.41934c0.6569,0.40782 1.515,0.41326 2.87442,-0.58396c-0.58698,2.36225 -1.37354,3.72665 -2.31316,4.32573c1.81773,2.2911 3.18882,2.34896 4.67722,2.99342c-2.34804,2.64898 -3.11989,2.93368 -4.11595,3.55469l3.3355,-0.70135c-0.2927,1.70108 -0.85461,3.13295 -2.19967,3.78166l0.54797,8.70627l-3.3676,-0.37418l-0.37417,4.30304l-2.80633,-2.43215l-0.37418,3.74178l-3.18051,-2.61925l-6.5481,2.80633l-3.74178,-5.79975l-2.99341,3.55469l-0.74836,-3.92886l-3.74177,-1.49671l2.43215,-1.6838l-6.92228,-3.18051l4.30304,-7.10937l-3.55469,-2.24506l3.74178,-0.93544l-1.30962,-5.42558l4.8643,-0.56126l-0.036,-6.7861c1.07217,-0.011 3.07037,0.38186 4.14254,0.0188l1.83879,-2.72884l0.78986,2.19968z"/>
    <path fill="#32312c" transform="translate(-127.22518157958984,-41.65780258178711) scale(0.2645833194255829) " d="m521.49219,208.282491c-0.0265,-0.0215 -0.0515,-0.0139 -0.0723,0.0254c-0.66897,1.26155 1.85201,34.53686 10.05078,57.77539c5.50677,15.60836 11.19207,21.53931 20.00196,32.59375c-0.58428,21.96725 -1.04358,50.58379 -1.34375,87.63476l21.21289,-0.70703c-2.51883,-30.65376 -5.20015,-66.4703 -7.79102,-95.10937c5.10195,-2.23271 13.35696,-5.84536 22.26172,-9.74219c5.31167,-19.4967 10.62238,-38.99285 10.28906,-38.82617c-0.20836,0.10418 -2.62336,7.89093 -6.11718,16.05859c-0.02,-0.004 -0.0263,-0.006 -0.0469,-0.01c-1.45253,-0.2718 -4.41193,-0.69033 -6.84766,-3.19921c-2.43572,-2.50889 -4.34436,-7.10864 -4.55273,-7.0254c-0.20838,0.0832 1.28503,4.85045 2.77734,9.61719l6.01172,4.69141c0.25971,0.20264 0.44317,0.34199 0.60742,0.45898c-1.59782,3.33923 -3.3412,6.51469 -5.1582,9c-5.76767,7.88912 -18.25289,8.7748 -20.05078,9.98828c-4.33946,-45.49626 -8.32844,-65.93339 -10.71484,-0.14843c-6.00363,-5.78614 -13.53285,-11.66791 -19.08985,-25.8125c-6.75443,-17.19258 -10.58664,-46.58999 -11.42773,-47.26367l0.00005,0.00022zm41.29687,73.88476c0.11309,0.0781 0.24858,0.1589 0.43555,0.24609c3.61232,1.6846 -0.26154,0.12904 -0.39258,0.19336c-0.0144,-0.15187 -0.0286,-0.28812 -0.043,-0.43945l0.00003,0z" id="path435"/>
    <path fill="#cdde87" id="path465" d="m4.777988,21.831901l-1.68379,4.86431l2.61924,-1.12253l0.93544,4.49013l7.85772,-5.0514l2.80633,2.43215l4.11595,-6.5481l1.30962,3.74177l5.98684,-4.67721l0.56127,2.80633l2.05797,-2.99342l2.05798,1.44191l4.30304,-8.55128l2.51515,-0.95036l-4.76022,-3.53977l-0.56126,-4.30304l-4.86431,1.49671l-5.98683,-5.23848l-4.03453,4.29775l-4.15746,-1.8255l-4.01417,5.44027l-4.13865,-0.47437l-0.119,2.85172l-6.73519,-1.87088l0,0l2.05798,4.67722l-1.12254,8.04481l2.99342,0.56126z"/>
    <path opacity="0.6" fill="#4b593e" id="path465-9" d="m0.849268,8.548371l2.05775,4.67724l-1.12241,8.04498l2.99362,0.56121l-1.68414,4.8643l2.61948,-1.12241l0.93534,4.49016l7.85792,-5.05137l2.80603,2.43189l4.11602,-6.54791l-3.92896,-3.7419l-5.05136,3.36776l0.18707,-3.18069l-3.74138,0.93534l2.4319,-6.36085l-4.49017,2.61948l-5.65185,-5.89421l-0.33486,-0.09302zm20.57961,12.34809l1.31,3.74188l5.98646,-4.67732c-0.12194,0.339348 -2.56344,1.687189 -4.29095,1.83564l-1.32137,-4.6421l-1.68414,3.7419z"/>
    <path fill="#6c6753" id="path435-5" d="m21.139988,47.734583l-0.59531,4.101041l-1.05833,-0.859895l-1.12448,6.273519c-0.0106,1.104379 -0.0226,2.137889 -0.032,3.304709l5.61258,-0.18707c-0.31247,-3.8026 -0.63517,-7.919194 -0.95964,-11.985832l-1.84282,-0.646472z"/>
    <path fill="#a1b578" d="m35.325508,12.856757l0.79633,2.003497c-1.68221,-0.215268 -4.09324,-1.183469 -4.69583,-1.452623c1.0708,1.446875 2.52472,2.749995 3.9274,3.932057l2.23914,-4.450374l-2.26704,-0.032557z" id="path465-5"/>
   </g>
  </g>
 </g>
</svg>
