<svg width="72" height="20" xmlns="http://www.w3.org/2000/svg" viewBox="0 0 72 20">
    <g style="stroke:null">
        <path d="M62.71 4.837l-1.743 3.37-7.144.97-.308 1.204 4.925-.172-3.386 7.735c-14.544-1.347-34.552-.359-44.32 1.325 2.41-1.13.06-2.828-1.386-4.42l-.153-1.374 4 .344.308-.86-7.54-.688-.308-1.203 7.233.344c-.91-3.053.058-2.43-4.155-3.094-.337-2.354.069-1.693-3.54-2.235-1.23-3.278-.624-2.592-3.54-3.61-.697-.47-2.856-2.61.3-2.23C22.565 3.12 42.374 4.475 62.71 4.838z" style="fill:#261f17"/>
        <path d="M5.124 1.148c1.143.714 1.2.198 1.2.198 2.213.198 4.197.62 5.57 1.618.535.931 1.145 1.413 1.603 3.629 3.052.56 5.647-.354 6.867 2.997l6.486.91 1.984 2.403 1.5 3.55c-6.198 1.562-12.122 2.08-19.05 2.827 20.526-.537 31.216-3.116 47.545-3.365l2.74-.279 2.437.464 1.225-.381.61-1.657c-2.398-.298-3.69.434-2.06-1.988-7.448-.652-8.51.007-7.936-1.631l4.579-.908c.208-.705.445-1.419 2.421-2.59 2.242-.26 3.486-.519 5.133-.778.152-1.222 2.255-.965 3.51-1.347l.152-1.844C49.283 3.15 32.93 5.12 8.623 1.648l-3.499-.5zM47.3 5.02c3.053.016 5.876.706 5.57 1.821 1.298 2.648-11.14 3.297-13.429.404 1.221-1.583 4.731-2.241 7.86-2.225z" style="fill:#ebce74"/>
        <path d="M1.952.244l3.106 1.483c2.212.199 4.196.621 5.591 1.619.533.93 1.1 1.412 1.536 3.628 3.117.561 5.691-.353 6.925 2.997l6.48.911 1.98 2.402-12.119-.994.153 2.733c7.483.776 5.682.895-.61 2.485-.438 1.593-.416.982-6.022.663l1.067 1.49c20.518-.537 33.922-.578 50.309-.827v-2.817l3.658.083.61-1.656-2.82-.249.762-1.74-8.308-.579.299-1.052 5.875-1.289.054-1.405 6.252-1.581c.167-1.222-.023-.896 3.503-1.347l.162-1.289c-22.397.173-44.094-.436-68.443-3.67zm44.05 5.158c3.12.016 5.88.707 5.627 1.822 1.264 2.648-11.127 3.297-13.43.404 1.198-1.583 4.682-2.242 7.803-2.226z" style="fill:#996f46"/>
        <path d="M11.326 4.448c.309.545.606 1.241.86 2.526 3.116.561 5.69-.353 6.924 2.997l6.48.911 1.98 2.402-12.119-.994.153 2.733c7.483.776 5.682.895-.61 2.485-.438 1.593-.416.982-6.022.663l1.067 1.49c20.518-.537 33.922-.578 50.309-.827v-2.817l3.658.083.058-.158L37.8 13.51c-6.236-4.26 1.04-2.239-17.449-5.58-.399-2.141 1.076-1.663-9.024-3.483z" style="fill:#513e2d"/>
        <path d="M13.567 6.57c21.929 3.269 21.469 1.488 26.117 5.83l19.215 3.491-19.591-2.804c-5.34-5.356-3.098-2.402-25.74-6.518z" style="fill:#513e2d"/>
    </g>
</svg>
