<svg width="33" height="26" xmlns="http://www.w3.org/2000/svg" viewBox="0 0 33 26">
    <path d="M13.813 3.589a.192.192 0 00-.108.023c-1.038.529-6.866 2.105-5.766 2.495 0 0 2.407 2.037 2.765 3.232 0 0 .642-.085 1.35-.203 2.34 5.564 1.246 16.71.555 16.71h.796c.25-5.73.396-11.383-1.023-16.768.613-.11 1.213-.237 1.434-.353l.042.004c-.195-1.153-.579-1.125.083-2.887.097.36.362-2.198-.128-2.253z" style="fill:#71855c;stroke:null;stroke-width:.265"/>
    <path d="M3.442.963c-.64.434 0 2.307 0 3.46C2.822 6.427 1.19 6.942.45 8.166c-.24 2.306.502 4.514 1.447 6.608.628-.823 1.303-1.24 2.107-.527-1.072.055-1.45.155-1.854 1.072.687 1.462 1.44 2.867 1.99 4.207.9 2.298.504 3.705.707 5.01.621-1.387 1.69-2.325 1.915-3.734.065-.404.114-.813.157-1.223l-1.511-2.807 1.595 1.914c.396-5.04-.028-10.401 6.823-15.197-.224-.374-3.328-.246-5.979-.558C6.04 2.718 4.8 1.305 3.442.963z" style="fill:#2d3932;stroke:null;stroke-width:.265"/>
    <path d="M7.83 2.795l-.029.27c-.106 1.034-4.94 1.444-3.4 7.48 1.778 6.969.28 14.219.28 14.219" style="fill:none;stroke:#71855c;stroke-width:.265"/>
    <path d="M14.707 25.86c.41-1.038 1.458-4.53 3.74-4.832 3.18-2.422 5.178-1.625 10.483-.794-4.468-.954-7.44-4.593-11.122-3.16-.937.423.589 3.242.554 3.826-1.943.759-3.03 2.828-4.347 4.957l.692.004z" style="fill:#71855c;stroke:null"/>
    <path d="M22.306 16.458c-.11-.002-.22 0-.326.006-.792-.12-2.29 2.763-3.534 4.564 3.696-.853 8.338-.641 13.527.187-.27-.248-1.358-1.073-2.78-1.966l-1.382.984.94-1.26c-2.01-1.22-4.55-2.475-6.445-2.515z" style="fill:#2d3932;stroke:null;stroke-width:.265"/>
</svg>
