<svg width="33" height="26" xmlns="http://www.w3.org/2000/svg" viewBox="0 0 33 26">

 <metadata id="metadata5">image/svg+xml</metadata>
 <g>
  <title>Плоская трава</title>
  <g display="inline" id="layer1">
   <g id="g7541">
    <path fill="#71855c" stroke="null" transform="translate(-128.35105895996094,-157.62411499023438) scale(0.2645833194255829) " d="m537.313148,609.308376c-0.12353,-0.0138 -0.26024,0.0135 -0.41016,0.0898c-3.92083,1.99684 -25.94707,7.95598 -21.78906,9.42969c0,0 9.09498,7.69646 10.44922,12.21485c0,0 2.4255,-0.32171 5.10156,-0.76954c8.8466,21.02965 4.70873,63.1543 2.09961,63.1543l3.00586,0c0.94786,-21.65122 1.49581,-43.0203 -3.86719,-63.37305c2.31991,-0.41424 4.58508,-0.89553 5.42188,-1.33398c0.0534,0.005 0.10494,0.0127 0.1582,0.0176c-0.73808,-4.35802 -2.18787,-4.25282 0.31446,-10.91211c0.36666,1.3607 1.36852,-8.31004 -0.48438,-8.51758l0,0.00002z" id="path206"/>
    <path fill="#2d3932" stroke="null" transform="translate(-128.35105895996094,-157.62411499023438) scale(0.2645833194255829) " d="m498.115888,599.382596c-2.41667,1.64175 0,8.72155 0,13.08203c-2.34497,7.56661 -8.51354,9.51498 -11.3125,14.14063c-0.90639,8.71441 1.89859,17.06008 5.4707,24.97265c2.37234,-3.10956 4.92417,-4.68702 7.96289,-1.99023c-4.05279,0.20738 -5.47867,0.58771 -7.00977,4.05078c2.59772,5.52588 5.44496,10.83576 7.51954,15.90039c3.40613,8.68804 1.90669,14.00562 2.67382,18.93945c2.34864,-5.24443 6.38633,-8.79131 7.24024,-14.11523c0.24519,-1.52876 0.43165,-3.07149 0.59375,-4.6211l-5.71289,-10.60937l6.02734,7.23242c1.49985,-19.04885 -0.10298,-39.31106 25.79102,-57.43555c-0.84994,-1.41717 -12.57915,-0.93088 -22.59766,-2.10937c-6.83063,-0.80353 -11.51914,-6.14177 -16.64648,-7.4375z" id="path208"/>
    <path fill="none" stroke="#71855c" stroke-width="0.264583px" id="path225" d="m7.829168,2.794879l-0.0278,0.27059c-0.10604,1.03356 -4.93993,1.44344 -3.40035,7.47945c1.77752,6.96892 0.28087,14.21882 0.28087,14.21882"/>
    <path fill="#71855c" stroke="null" id="path227" d="m14.707438,25.860619c0.41015,-1.03889 1.45745,-4.52973 3.73891,-4.83266c3.18115,-2.42244 5.17905,-1.62452 10.48411,-0.79375c-4.46821,-0.95437 -7.44127,-4.59366 -11.12259,-3.16077c-0.93709,0.42328 0.58893,3.24234 0.55365,3.82625c-1.94252,0.75918 -3.03024,2.828 -4.34694,4.95692l0.69286,0.00401z"/>
    <path fill="#2d3932" stroke="null" transform="translate(-128.35105895996094,-157.62411499023438) scale(0.2645833194255829) " d="m569.412758,657.949006c-0.41945,-0.009 -0.83058,-0.002 -1.23242,0.0215c-2.9921,-0.45506 -8.65491,10.44413 -13.35547,17.25c13.96679,-3.22386 31.51073,-2.42253 51.125,0.70703c-1.01791,-0.93816 -5.13307,-4.0544 -10.50781,-7.43164l-5.22461,3.71875l3.55273,-4.76172c-7.59639,-4.61286 -17.19473,-9.3521 -24.35742,-9.5039l0,-0.00002z" id="path230"/>
   </g>
  </g>
 </g>
</svg>
