<svg width="100" height="43" xmlns="http://www.w3.org/2000/svg" viewBox="0 0 100 43">
    <path d="M-1-1h582v402H-1z" style="fill:none"/>
    <g style="stroke:null;stroke-width:1.5">
        <path d="M88.483 41.477c-20.514-.19-80.928 1.143-82.057.762-1.13-.38-.376-17.712 2.823-21.521 3.2-3.81 14.868-4.762 19.009-2.286 4.14 2.476 5.646 6.476 6.587 5.333.94-1.143 6.21-17.903 10.54-19.998 4.328-2.095 15.808-5.332 22.207 6.476 6.4 11.808 3.953 13.522 5.458 15.236 1.506 1.714 3.011-5.714 9.034-2.476 6.022 3.238 7.528 12.38 7.904 14.284.377 1.905 19.009 4.38-1.505 4.19z" style="fill:#1a210f"/>
        <path d="M63.703 22.876c-3.388.572-11.669-9.523-12.61-12.38-.941-2.856-3.2-8.57 1.506-8.76 4.705-.19 6.587-4.19 12.61 4 6.022 8.189 8.28 13.712 6.775 14.855l-3.953-1.143-4.328 3.428z" style="fill:#4e5923;stroke-opacity:null"/>
        <g style="fill:#1a210f">
            <path d="M-290.745-258.732c-2.366-5.407-4.681-24.267-2.314-35.14 2.368-10.871 9.148-29.296 9.123-29.968.025.672 2.02 33.722 1.55 39.434-.469 5.713-5.993 31.08-8.359 25.674z" style="transform:matrix(.15842 .10282 .1016 -.16032 81.773 16.365)"/>
            <path d="M-291.248-257.308c-3.21 0-10.032-10-11.236-22-1.204-12-1.204-37-1.404-37.453.2.453 10.634 21.453 11.838 26.453 1.204 5 4.013 33 .802 33z" style="transform:matrix(.15842 .10282 .1016 -.16032 81.773 16.365)"/>
        </g>
        <g style="fill:#4e5923">
            <path d="M-248.902 1010.337c-8 0-25-10-28-22s-3-37-3.5-37.453c.5.453 26.5 21.453 29.5 26.453s10 33 2 33z" style="transform:matrix(-.05775 -.18127 -.17912 .05844 244.248 -81.13)"/>
            <path d="M-273.902 1013.337c-8 0-25-10-28-22s-3-37-3.5-37.453c.5.453 26.5 21.453 29.5 26.453s10 33 2 33z" style="transform:matrix(.0785 -.1731 -.17105 -.07944 272.14 56.226)"/>
        </g>
        <path d="M64.453 9.255c1.114 2.006 6.177 1.569 6.74 1.52.562-.048-1.772-3.096-2.93-3.379-1.157-.282-4.923-.148-3.81 1.859zm1.851 10.949c-.455 2.254 3.657 5.276 4.114 5.612.457.335.662-3.516-.031-4.495-.693-.98-3.628-3.372-4.083-1.117z" style="fill:#4e5923"/>
        <path d="M67.908 18.748c.61 2.217 5.63 3.013 6.187 3.101.558.089-.992-3.434-2.05-3.987-1.057-.554-4.747-1.331-4.137.886z" style="fill:#4e5923"/>
        <path d="M8.288 22.93c-2.24.396-3.517 5.374-3.659 5.927-.141.553 3.475-.662 4.123-1.672.648-1.01 1.776-4.65-.464-4.254z" style="fill:#1a210f"/>
        <path d="M67.908 28.652c.61 2.217 5.63 3.012 6.187 3.1.558.09-.992-3.434-2.05-3.987-1.057-.553-4.747-1.33-4.137.887zM60.374 5.596c1.418 1.798 6.346.542 6.893.403.548-.14-2.241-2.768-3.428-2.858-1.187-.09-4.883.656-3.465 2.455z" style="fill:#4e5923"/>
        <g style="fill:#4e5923">
            <path d="M-520.556-373.85c-8 0-25-10-28-22s-3-37-3.5-37.454c.5.453 26.5 21.453 29.5 26.453s10 33 2 33z" style="transform:matrix(.1863 -.02703 -.0267 -.18853 144.325 -74.326)"/>
            <path d="M-545.556-370.85c-8 0-25-10-28-22s-3-37-3.5-37.454c.5.453 26.5 21.453 29.5 26.453s10 33 2 33z" style="transform:matrix(.15536 .1075 .10623 -.15721 181.438 10.211)"/>
        </g>
        <path d="M84.83 29.034c.206 2.292 5.004 3.985 5.537 4.173.533.189-.368-3.558-1.31-4.294-.942-.736-4.434-2.17-4.228.12z" style="fill:#4e5923"/>
        <g style="fill:#4e5923">
            <path d="M-686.801 290.952c-8 0-25-10-28-22s-3-37-3.5-37.453c.5.453 26.5 21.453 29.5 26.453s10 33 2 33z" style="transform:matrix(.12422 -.14308 -.14139 -.1257 186.06 -43.634)"/>
            <path d="M-711.801 293.952c-8 0-25-10-28-22s-3-37-3.5-37.453c.5.453 26.5 21.453 29.5 26.453s10 33 2 33z" style="transform:matrix(.18711 -.02049 -.02025 -.18935 198.483 58.89)"/>
        </g>
        <path d="M66.478 29.53c-.806 2.152 2.773 5.802 3.171 6.207.398.406 1.21-3.362.682-4.441-.528-1.08-3.046-3.917-3.853-1.766zm-37.641-5.713c-.806 2.151 2.774 5.801 3.171 6.207.398.405 1.21-3.363.682-4.442-.528-1.08-3.046-3.917-3.853-1.765z" style="fill:#4e5923"/>
        <g style="fill:#4e5923">
            <path d="M-316.515 715.59c-8 0-25-10-28-22s-3-37-3.5-37.453c.5.453 26.5 21.453 29.5 26.453s10 33 2 33z" style="transform:matrix(.03344 -.18742 -.1852 -.03384 167.613 -20.15)"/>
            <path d="M-341.515 718.59c-8 0-25-10-28-22s-3-37-3.5-37.453c.5.453 26.5 21.453 29.5 26.453s10 33 2 33z" style="transform:matrix(.14982 -.11526 -.1139 -.15162 157.16 84.472)"/>
        </g>
        <path d="M39.53 13.027c-2.24.396-3.517 5.373-3.659 5.926-.142.553 3.475-.661 4.123-1.672.648-1.01 1.776-4.65-.465-4.254z" style="fill:#1a210f"/>
        <path d="M89.746 37.267c1.853-1.206 6.164 1.516 6.643 1.819.48.302-2.908 1.837-4.057 1.543-1.15-.294-4.44-2.155-2.586-3.362z" style="fill:#4e5923"/>
        <ellipse cx="76.504" cy="28.848" rx=".613" ry=".568" style="fill:#320b33;stroke-opacity:null"/>
        <ellipse cx="63.223" cy="15.119" rx=".761" ry=".706" style="fill:#843ca6;stroke-opacity:null"/>
        <ellipse cx="44.603" cy="12.544" rx="1.131" ry="1.049" style="fill:#320b33;stroke-opacity:null"/>
        <ellipse cx="49.221" cy="22.463" rx="1.131" ry="1.049" style="fill:#320b33;stroke-opacity:null"/>
        <ellipse cx="37.252" cy="28.852" rx="1.131" ry="1.049" style="fill:#320b33;stroke-opacity:null"/>
        <ellipse cx="37.959" cy="25.725" rx="1.461" ry="1.355" style="fill:#320b33;stroke-opacity:null"/>
        <ellipse cx="60.718" cy="30.084" rx="1.225" ry="1.136" style="fill:#320b33;stroke-opacity:null"/>
        <ellipse cx="21.42" cy="26.27" rx="1.225" ry="1.136" style="fill:#320b33;stroke-opacity:null"/>
        <ellipse cx="51.011" cy="9.97" rx="1.131" ry="1.049" style="fill:#843ca6;stroke-opacity:null"/>
    </g>
</svg>
