<svg width="100" height="43" xmlns="http://www.w3.org/2000/svg" viewBox="0 0 100 43">
 <!-- Created with SVG Editor - http://github.com/mzalive/SVG Editor/ -->

 <g>
  <title>background</title>
  <rect fill="none" id="canvas_background" height="402" width="582" y="-1" x="-1"/>
 </g>
 <g>
  <title>Кустик с аппетитными ягодками</title>
  <g stroke="null" id="svg_1">
   <path stroke="null" fill="#1a210f" stroke-width="1.5" d="m88.482827,41.47727c-20.514162,-0.19046 -80.927446,1.14273 -82.056669,0.76182c-1.129213,-0.38091 -0.376408,-17.71227 2.823052,-21.52136c3.19946,-3.8091 14.868067,-4.76137 19.008542,-2.28546c4.140474,2.47591 5.646105,6.47546 6.587119,5.33273c0.941014,-1.14273 6.210711,-17.90273 10.539384,-19.99773c4.328683,-2.095 15.809082,-5.33272 22.208002,6.47546c6.39891,11.80818 3.952265,13.52227 5.457896,15.23636c1.505621,1.71409 3.011251,-5.71364 9.033764,-2.47591c6.022503,3.23773 7.528133,12.37954 7.904541,14.28409c0.376398,1.90454 19.008532,4.38045 -1.505631,4.19z" id="svg_3"/>
   <path stroke="null" fill="#4e5923" stroke-width="1.5" stroke-opacity="null" d="m63.702682,22.87618c-3.387659,0.57136 -11.668607,-9.52273 -12.609622,-12.37955c-0.941014,-2.85682 -3.19946,-8.57045 1.505621,-8.76091c4.705091,-0.19045 6.587119,-4.19 12.609631,3.99955c6.022503,8.18954 8.280948,13.71272 6.775318,14.85545l-3.952265,-1.14273l-4.328683,3.42819z" id="svg_6"/>
   <g stroke="null" id="svg_11" transform="matrix(0.15842217835632974,0.10281705804767423,0.1016017608137017,-0.1603171261762733,81.77282846246153,16.36473312309918) " fill="#1a210f" stroke-width="1.5">
    <path stroke="null" fill="#1a210f" stroke-width="1.5" d="m-290.744587,-258.73236c-2.36606,-5.40703 -4.68168,-24.2671 -2.31426,-35.13889c2.36742,-10.87179 9.14802,-29.29712 9.12304,-29.96902c0.02498,0.6719 2.01895,33.72202 1.5501,39.43472c-0.46885,5.7127 -5.99283,31.08021 -8.35888,25.67319z" id="svg_9"/>
    <path stroke="null" fill="#1a210f" stroke-width="1.5" d="m-291.247637,-257.30774c-3.21033,0 -10.03228,-10 -11.23616,-22c-1.20387,-12 -1.20387,-37 -1.40451,-37.45313c0.20064,0.45313 10.63422,21.45313 11.83809,26.45313c1.20387,5 4.01291,33 0.80258,33z" id="svg_10"/>
   </g>
   <g stroke="null" id="svg_14" transform="matrix(0.07850028444032223,-0.17309631120891025,-0.17105031347062158,-0.07943925614496926,272.13926869616967,56.226167148825404) ">
    <path stroke="null" fill="#4e5923" stroke-width="1.5" d="m-248.902316,1010.337385c-8,0 -25,-10 -28,-22c-3,-12 -3,-37 -3.5,-37.45313c0.5,0.45313 26.5,21.45313 29.5,26.45313c3,5 10,33 2,33z" id="svg_12" transform="rotate(42.52241516113281 -262.79992675781244,980.61083984375) "/>
    <path stroke="null" fill="#4e5923" stroke-width="1.5" d="m-273.902316,1013.337385c-8,0 -25,-10 -28,-22c-3,-12 -3,-37 -3.5,-37.45313c0.5,0.45313 26.5,21.45313 29.5,26.45313c3,5 10,33 2,33z" id="svg_13"/>
   </g>
   <path stroke="null" fill="#4e5923" stroke-width="1.5" d="m64.453412,9.25455c1.11356,2.00648 6.176669,1.56944 6.73923,1.52088c0.562571,-0.04856 -1.772103,-3.09652 -2.929222,-3.37893c-1.157129,-0.28241 -4.923567,-0.14843 -3.810007,1.85805z" id="svg_15"/>
   <path stroke="null" fill="#4e5923" stroke-width="1.5" d="m66.304254,20.20356c-0.454998,2.25474 3.65675,5.27626 4.113606,5.61198c0.456865,0.33573 0.661666,-3.51511 -0.030891,-4.49478c-0.692546,-0.97966 -3.627708,-3.37194 -4.082715,-1.1172z" id="svg_16"/>
   <path stroke="null" fill="#4e5923" stroke-width="1.5" d="m67.907793,18.74812c0.60942,2.2171 5.629731,3.01263 6.187539,3.10103c0.557818,0.08839 -0.992528,-3.43446 -2.04992,-3.98757c-1.057392,-0.55311 -4.747019,-1.33056 -4.137618,0.88654z" id="svg_17"/>
   <path stroke="null" fill="#1a210f" stroke-width="1.5" d="m8.287662,22.93083c-2.240224,0.3956 -3.516419,5.37306 -3.658213,5.92611c-0.141804,0.55305 3.475044,-0.66166 4.122983,-1.6721c0.64794,-1.01044 1.775443,-4.64961 -0.464771,-4.25401z" id="svg_18"/>
   <path stroke="null" fill="#4e5923" stroke-width="1.5" d="m67.907793,28.65176c0.60942,2.21709 5.629731,3.01263 6.187539,3.10102c0.557818,0.0884 -0.992528,-3.43446 -2.04992,-3.98757c-1.057392,-0.5531 -4.747019,-1.33055 -4.137618,0.88655z" id="svg_19"/>
   <path stroke="null" fill="#4e5923" stroke-width="1.5" d="m60.374027,5.59559c1.418256,1.79888 6.345786,0.54265 6.893287,0.40307c0.547501,-0.13958 -2.241627,-2.76741 -3.428579,-2.85761c-1.186962,-0.09021 -4.882963,0.65565 -3.464707,2.45454z" id="svg_20"/>
   <g stroke="null" id="svg_23" transform="matrix(0.15535509218140814,0.10750297613409283,0.10623229136621122,-0.1572133534192011,181.4381944755001,10.211176196909868) ">
    <path stroke="null" fill="#4e5923" stroke-width="1.5" d="m-520.555534,-373.850913c-8,0 -25,-10 -28,-22c-3,-12 -3,-37 -3.5,-37.45313c0.5,0.45313 26.5,21.45313 29.5,26.45313c3,5 10,33 2,33z" id="svg_21" transform="rotate(42.52241516113281 -534.4531860351562,-403.5774536132812) "/>
    <path stroke="null" fill="#4e5923" stroke-width="1.5" d="m-545.555534,-370.850913c-8,0 -25,-10 -28,-22c-3,-12 -3,-37 -3.5,-37.45313c0.5,0.45313 26.5,21.45313 29.5,26.45313c3,5 10,33 2,33z" id="svg_22"/>
   </g>
   <path stroke="null" fill="#4e5923" stroke-width="1.5" d="m84.829397,29.03394c0.206678,2.29175 5.004657,3.98536 5.537771,4.17354c0.533113,0.18818 -0.36788,-3.5589 -1.310129,-4.29491c-0.942249,-0.73602 -4.434319,-2.17038 -4.227642,0.12137z" id="svg_24"/>
   <g stroke="null" id="svg_27" transform="matrix(0.18711119597331544,-0.020488275582901526,-0.020246104243655253,-0.18934930402469674,198.48301649162713,58.88964879114297) ">
    <path stroke="null" fill="#4e5923" stroke-width="1.5" d="m-686.801438,290.952494c-8,0 -25,-10 -28,-22c-3,-12 -3,-37 -3.5,-37.45313c0.5,0.45313 26.5,21.45313 29.5,26.45313c3,5 10,33 2,33z" id="svg_25" transform="rotate(42.52241516113281 -700.699035644531,261.2259216308593) "/>
    <path stroke="null" fill="#4e5923" stroke-width="1.5" d="m-711.801438,293.952494c-8,0 -25,-10 -28,-22c-3,-12 -3,-37 -3.5,-37.45313c0.5,0.45313 26.5,21.45313 29.5,26.45313c3,5 10,33 2,33z" id="svg_26"/>
   </g>
   <path stroke="null" fill="#4e5923" stroke-width="1.5" d="m66.478094,29.53023c-0.806454,2.1517 2.773218,5.80144 3.170961,6.20696c0.397733,0.40553 1.210175,-3.36222 0.681844,-4.44161c-0.528321,-1.07938 -3.046351,-3.91706 -3.852805,-1.76535z" id="svg_28"/>
   <path stroke="null" fill="#4e5923" stroke-width="1.5" d="m28.837428,23.81659c-0.806454,2.1517 2.773209,5.80144 3.170951,6.20697c0.397742,0.40552 1.210175,-3.36223 0.681854,-4.44162c-0.52833,-1.07938 -3.046361,-3.91705 -3.852815,-1.76535l0.00001,0z" id="svg_29"/>
   <g stroke="null" id="svg_33" transform="matrix(0.14982332558589018,-0.11526358059946021,-0.11390116551639741,-0.1516154192633114,157.160903510335,84.47238079194406) ">
    <path stroke="null" fill="#4e5923" stroke-width="1.5" d="m-316.515005,715.589767c-8,0 -25,-10 -28,-22c-3,-12 -3,-37 -3.5,-37.45313c0.5,0.45313 26.5,21.45313 29.5,26.45313c3,5 10,33 2,33z" id="svg_31" transform="rotate(42.52241516113281 -330.4126281738279,685.8632202148436) "/>
    <path stroke="null" fill="#4e5923" stroke-width="1.5" d="m-341.515005,718.589767c-8,0 -25,-10 -28,-22c-3,-12 -3,-37 -3.5,-37.45313c0.5,0.45313 26.5,21.45313 29.5,26.45313c3,5 10,33 2,33z" id="svg_32"/>
   </g>
   <path stroke="null" fill="#1a210f" stroke-width="1.5" d="m39.529418,13.02719c-2.240214,0.3956 -3.516419,5.37306 -3.658213,5.92611c-0.141804,0.55305 3.475044,-0.66166 4.122983,-1.6721c0.64794,-1.01044 1.775443,-4.64961 -0.464771,-4.25401z" id="svg_34"/>
   <path stroke="null" fill="#4e5923" stroke-width="1.5" d="m89.746126,37.26728c1.853332,-1.20649 6.164148,1.51611 6.643129,1.81862c0.478981,0.30252 -2.907779,1.83708 -4.057566,1.54309c-1.149777,-0.29399 -4.438895,-2.15521 -2.585563,-3.3617l0,-0.00001z" id="svg_30"/>
   <ellipse stroke="null" fill="#320b33" stroke-width="1.5" stroke-opacity="null" cx="76.50353" cy="28.848438" id="svg_69" rx="0.612566" ry="0.568235"/>
   <ellipse stroke="null" fill="#843ca6" stroke-width="1.5" stroke-opacity="null" cx="63.223473" cy="15.118767" id="svg_70" rx="0.760826" ry="0.705767"/>
   <ellipse stroke="null" fill="#320b33" stroke-width="1.5" stroke-opacity="null" cx="44.603014" cy="12.544472" id="svg_71" rx="1.13089" ry="1.049049"/>
   <ellipse stroke="null" fill="#320b33" stroke-width="1.5" stroke-opacity="null" cx="49.220815" cy="22.462751" id="svg_72" rx="1.13089" ry="1.049049"/>
   <ellipse stroke="null" fill="#320b33" stroke-width="1.5" stroke-opacity="null" cx="37.252232" cy="28.852411" id="svg_73" rx="1.13089" ry="1.049049"/>
   <ellipse stroke="null" fill="#320b33" stroke-width="1.5" stroke-opacity="null" cx="37.959037" cy="25.725134" id="svg_74" rx="1.460733" ry="1.355022"/>
   <ellipse stroke="null" fill="#320b33" stroke-width="1.5" stroke-opacity="null" cx="60.718194" cy="30.084249" id="svg_75" rx="1.225131" ry="1.13647"/>
   <ellipse stroke="null" fill="#320b33" stroke-width="1.5" stroke-opacity="null" cx="21.419776" cy="26.269526" id="svg_76" rx="1.225131" ry="1.13647"/>
   <ellipse stroke="null" fill="#843ca6" stroke-width="1.5" stroke-opacity="null" cx="51.011389" cy="9.969535" id="svg_78" rx="1.13089" ry="1.049049"/>
  </g>
 </g>
</svg>
