<?xml version="1.0" encoding="UTF-8" standalone="no"?>
<svg
   xmlns:dc="http://purl.org/dc/elements/1.1/"
   xmlns:cc="http://creativecommons.org/ns#"
   xmlns:rdf="http://www.w3.org/1999/02/22-rdf-syntax-ns#"
   xmlns:svg="http://www.w3.org/2000/svg"
   xmlns="http://www.w3.org/2000/svg"
   xmlns:sodipodi="http://sodipodi.sourceforge.net/DTD/sodipodi-0.dtd"
   xmlns:inkscape="http://www.inkscape.org/namespaces/inkscape"
   sodipodi:docname="2.svg"
   inkscape:version="0.92.4 (5da689c313, 2019-01-14)"
   id="svg8"
   version="1.1"
   viewBox="0 0 40 40"
   height="40"
   width="40">
  <defs
     id="defs2" />
  <sodipodi:namedview
     inkscape:window-maximized="1"
     inkscape:window-y="-8"
     inkscape:window-x="1272"
     inkscape:window-height="705"
     inkscape:window-width="1366"
     inkscape:snap-nodes="false"
     showgrid="false"
     inkscape:document-rotation="0"
     inkscape:current-layer="svg8"
     inkscape:document-units="mm"
     inkscape:cy="19.503274"
     inkscape:cx="32.755194"
     inkscape:zoom="11.307246"
     inkscape:pageshadow="2"
     inkscape:pageopacity="0.0"
     borderopacity="1.0"
     bordercolor="#666666"
     pagecolor="#ffffff"
     id="base" />
  <metadata
     id="metadata5">
    <rdf:RDF>
      <cc:Work
         rdf:about="">
        <dc:format>image/svg+xml</dc:format>
        <dc:type
           rdf:resource="http://purl.org/dc/dcmitype/StillImage" />
        <dc:title></dc:title>
      </cc:Work>
    </rdf:RDF>
  </metadata>
  <g
     id="layer1"
     inkscape:groupmode="layer"
     inkscape:label="Слой 1" />
  <path
     style="fill:#000000;fill-opacity:0.78640777;stroke:none;stroke-width:1px;stroke-linecap:butt;stroke-linejoin:miter;stroke-opacity:1"
     d="m 4.5988211,41.680338 c 0,0 1.4150219,-11.67393 2.5647272,-14.327096 1.1497053,-2.653166 5.5716487,-7.694182 6.9866707,-8.755448 1.415022,-1.061266 2.387849,-2.210972 2.476288,-3.006922 0.08844,-0.795949 0.530633,-3.360677 1.149705,-4.598821 0.619073,-1.2381439 1.768778,-2.476288 1.768778,-2.476288 l 1.238144,-4.7756989 1.415022,4.1566268 0.707511,-3.3606769 0.619072,3.6259935 c 0,0 1.061266,0.5306332 1.680338,1.1497053 0.619072,0.6190721 0.530634,1.8572162 0.530634,1.8572162 l 1.061266,1.326583 c 0,0 -0.442194,0.972828 -0.79595,1.680339 -0.353755,0.70751 -1.149705,1.591899 -1.591899,1.591899 -0.442195,0 -1.503461,-0.08844 -1.503461,-0.08844 0,0 -0.442195,3.095361 -0.265317,3.979749 0.176878,0.884389 0.619072,2.830044 0.619072,2.830044 l -0.79595,-0.176878 0.530634,0.972828 c 0,0 -0.08844,2.299411 -0.530634,2.918483 -0.442194,0.619072 0.79595,15.388363 0.79595,15.388363 L 4.4219434,42.210972 Z"
     id="path1856"
     inkscape:connector-curvature="0"
     sodipodi:nodetypes="csscscccccsccsscsccccccc" />
</svg>
