<?xml version="1.0" encoding="UTF-8" standalone="no"?>
<svg
   xmlns:dc="http://purl.org/dc/elements/1.1/"
   xmlns:cc="http://creativecommons.org/ns#"
   xmlns:rdf="http://www.w3.org/1999/02/22-rdf-syntax-ns#"
   xmlns:svg="http://www.w3.org/2000/svg"
   xmlns="http://www.w3.org/2000/svg"
   xmlns:sodipodi="http://sodipodi.sourceforge.net/DTD/sodipodi-0.dtd"
   xmlns:inkscape="http://www.inkscape.org/namespaces/inkscape"
   sodipodi:docname="5.svg"
   inkscape:version="0.92.4 (5da689c313, 2019-01-14)"
   id="svg8"
   version="1.1"
   viewBox="0 0 40 40"
   height="40"
   width="40">
  <defs
     id="defs2" />
  <sodipodi:namedview
     inkscape:window-maximized="1"
     inkscape:window-y="-8"
     inkscape:window-x="1272"
     inkscape:window-height="705"
     inkscape:window-width="1366"
     inkscape:snap-nodes="false"
     showgrid="false"
     inkscape:document-rotation="0"
     inkscape:current-layer="svg8"
     inkscape:document-units="mm"
     inkscape:cy="19.503274"
     inkscape:cx="17.234173"
     inkscape:zoom="11.307246"
     inkscape:pageshadow="2"
     inkscape:pageopacity="0.0"
     borderopacity="1.0"
     bordercolor="#666666"
     pagecolor="#ffffff"
     id="base" />
  <metadata
     id="metadata5">
    <rdf:RDF>
      <cc:Work
         rdf:about="">
        <dc:format>image/svg+xml</dc:format>
        <dc:type
           rdf:resource="http://purl.org/dc/dcmitype/StillImage" />
        <dc:title />
      </cc:Work>
    </rdf:RDF>
  </metadata>
  <g
     id="layer1"
     inkscape:groupmode="layer"
     inkscape:label="Слой 1" />
  <path
     style="fill:#000000;fill-opacity:0.48640777;stroke:none;stroke-width:1px;stroke-linecap:butt;stroke-linejoin:miter;stroke-opacity:1"
     d="m -4.2450654,43.272238 c 0,0 1.4150219,-11.67393 2.5647272,-14.327096 1.14970532,-2.653166 5.5716487,-7.694182 6.9866707,-8.755448 1.415022,-1.061266 2.387849,-2.210972 2.476288,-3.006922 0.08844,-0.795949 0.530633,-3.360677 1.149705,-4.598821 0.619073,-1.238144 1.7687785,-2.476288 1.7687785,-2.476288 l 1.238144,-4.7756993 1.415022,4.1566268 0.707511,-3.3606769 0.619072,3.6259935 c 0,0 1.061266,0.5306329 1.680338,1.1497049 0.619072,0.619072 0.530634,1.857217 0.530634,1.857217 l 1.061266,1.326583 c 0,0 -0.442194,0.972828 -0.79595,1.680339 -0.353755,0.70751 -1.149705,1.591899 -1.591899,1.591899 -0.442195,0 -1.503461,-0.08844 -1.503461,-0.08844 0,0 -0.442195,3.095361 -0.265317,3.979749 0.176878,0.884389 0.619072,2.830044 0.619072,2.830044 l -0.79595,-0.176878 0.530634,0.972828 c 0,0 -0.08844,2.299411 -0.530634,2.918483 -0.442194,0.619072 0.79595,15.388363 0.79595,15.388363 l -18.8374791,0.619073 z"
     id="path1856"
     inkscape:connector-curvature="0"
     sodipodi:nodetypes="csscscccccsccsscsccccccc" />
  <path
     style="fill:#000000;fill-opacity:0.78640777;stroke:none;stroke-width:0.59770119px;stroke-linecap:butt;stroke-linejoin:miter;stroke-opacity:1"
     d="M 29.538583,6.5693532 28.12452,10.727556 27.415536,7.3662282 26.796395,10.991228 c 0,0 -1.060615,0.531319 -1.679687,1.150391 -0.619072,0.619072 -0.53125,1.857421 -0.53125,1.857421 l -1.060547,1.326172 c 0,0 0.441166,0.97413 0.794922,1.681641 0.353755,0.70751 1.149603,1.591797 1.591797,1.591797 0.442195,0 1.503906,-0.08984 1.503906,-0.08984 0,0 0.442503,3.096081 0.265625,3.980469 -0.176878,0.884389 -0.619141,2.830078 -0.619141,2.830078 l 0.796875,-0.177734 -0.53125,0.972656 c 0,0 0.08906,2.30085 0.53125,2.919922 0.06798,0.09518 0.08678,0.598798 0.08594,1.257812 0.84549,1.024638 1.666862,2.16241 2.007812,2.949219 0.68718,1.585801 1.533203,8.564453 1.533203,8.564453 l 0.105469,0.316406 -4.34375,-0.142578 c -0.05356,0.664734 -0.185547,2.44336 -0.185547,2.44336 l 18.837891,0.617187 -0.177734,-0.529297 c 0,0 -1.414749,-11.674959 -2.564454,-14.328125 -1.149705,-2.653166 -5.571306,-7.69264 -6.986328,-8.753906 -1.415022,-1.061266 -2.388123,-2.211862 -2.476562,-3.007812 -0.08844,-0.79595 -0.529366,-3.361466 -1.148438,-4.59961 -0.619073,-1.238144 -1.769531,-2.474609 -1.769531,-2.474609 z M 27.247567,41.979509 c 0.223309,-2.77156 0.693511,-8.761745 0.697266,-11.6875 -0.858581,-1.040501 -1.741841,-1.963607 -2.167969,-2.283203 -0.845761,-0.63432 -1.427609,-1.321135 -1.480469,-1.796875 -0.05286,-0.475739 -0.315527,-2.008007 -0.685547,-2.748047 -0.37002,-0.740041 -1.058593,-1.480469 -1.058593,-1.480468 l -0.740235,-2.855469 -0.845703,2.484375 -0.421875,-2.007813 -0.371094,2.166016 c 0,0 -0.633885,0.31748 -1.003906,0.6875 -0.37002,0.37002 -0.316406,1.111328 -0.316406,1.111328 l -0.634766,0.792969 c 0,0 0.265123,0.581025 0.476563,1.003906 0.21144,0.422879 0.686872,0.951172 0.951172,0.951172 0.264301,0 0.898437,-0.05273 0.898437,-0.05273 0,0 0.263923,1.850307 0.158203,2.378906 -0.10572,0.528601 -0.36914,1.691406 -0.36914,1.691406 l 0.474609,-0.105469 -0.316406,0.580078 c 0,0 0.05211,1.376074 0.316406,1.746094 0.2643,0.37002 -0.474609,9.197266 -0.474609,9.197266 z"
     id="path1900"
     inkscape:connector-curvature="0" />
  <path
     sodipodi:nodetypes="csscscccccsccsscsccccccc"
     inkscape:connector-curvature="0"
     id="path1903"
     d="m -5.836965,51.850808 c 0,0 1.4150219,-11.67393 2.5647272,-14.327096 1.1497054,-2.653166 5.5716487,-7.694182 6.9866707,-8.755448 1.415022,-1.061266 2.387849,-2.210972 2.476288,-3.006922 0.08844,-0.795949 0.530633,-3.360677 1.149705,-4.598821 0.619073,-1.238144 1.768779,-2.476288 1.768779,-2.476288 l 1.2381441,-4.775699 1.415022,4.156627 0.707511,-3.360677 0.619072,3.625993 c 0,0 1.061266,0.530633 1.680338,1.149705 0.619072,0.619072 0.530634,1.857217 0.530634,1.857217 l 1.061266,1.326583 c 0,0 -0.442194,0.972828 -0.79595,1.680339 -0.353755,0.70751 -1.149705,1.591899 -1.591899,1.591899 -0.442195,0 -1.503461,-0.08844 -1.503461,-0.08844 0,0 -0.442195,3.095361 -0.265317,3.979749 0.176878,0.884389 0.619072,2.830044 0.619072,2.830044 l -0.79595,-0.176878 0.530634,0.972828 c 0,0 -0.08844,2.299411 -0.530634,2.918483 -0.442194,0.619072 0.79595,15.388363 0.79595,15.388363 l -18.8374797,0.619073 z"
     style="fill:#000000;fill-opacity:0.78640777;stroke:none;stroke-width:1px;stroke-linecap:butt;stroke-linejoin:miter;stroke-opacity:1" />
</svg>
