<?xml version="1.0" encoding="UTF-8" standalone="no"?>
<!-- Created with Inkscape (http://www.inkscape.org/) -->

<svg
   xmlns:dc="http://purl.org/dc/elements/1.1/"
   xmlns:cc="http://creativecommons.org/ns#"
   xmlns:rdf="http://www.w3.org/1999/02/22-rdf-syntax-ns#"
   xmlns:svg="http://www.w3.org/2000/svg"
   xmlns="http://www.w3.org/2000/svg"
   xmlns:xlink="http://www.w3.org/1999/xlink"
   xmlns:sodipodi="http://sodipodi.sourceforge.net/DTD/sodipodi-0.dtd"
   xmlns:inkscape="http://www.inkscape.org/namespaces/inkscape"
   width="100"
   height="80"
   viewBox="0 0 100 80"
   version="1.1"
   id="svg7526"
   sodipodi:docname="1.svg"
   inkscape:version="0.92.4 (5da689c313, 2019-01-14)">
  <defs
     id="defs7520">
    <linearGradient
       inkscape:collect="always"
       id="linearGradient8154">
      <stop
         style="stop-color:#000000;stop-opacity:1;"
         offset="0"
         id="stop8150" />
      <stop
         style="stop-color:#000000;stop-opacity:0;"
         offset="1"
         id="stop8152" />
    </linearGradient>
    <radialGradient
       inkscape:collect="always"
       xlink:href="#linearGradient8154"
       id="radialGradient8160"
       gradientUnits="userSpaceOnUse"
       gradientTransform="matrix(-1.8295193,1.186585,-1.0426958,-1.7294367,178.16081,34.983497)"
       cx="50.059196"
       cy="34.629269"
       fx="50.059196"
       fy="34.629269"
       r="16.153098" />
  </defs>
  <sodipodi:namedview
     id="base"
     pagecolor="#ffffff"
     bordercolor="#666666"
     borderopacity="1.0"
     inkscape:pageopacity="0.0"
     inkscape:pageshadow="2"
     inkscape:zoom="6.052834"
     inkscape:cx="58.40605"
     inkscape:cy="39.10164"
     inkscape:document-units="mm"
     inkscape:current-layer="layer1"
     showgrid="false"
     inkscape:window-width="1366"
     inkscape:window-height="705"
     inkscape:window-x="1272"
     inkscape:window-y="-8"
     inkscape:window-maximized="1"
     inkscape:snap-nodes="false" />
  <metadata
     id="metadata7523">
    <rdf:RDF>
      <cc:Work
         rdf:about="">
        <dc:format>image/svg+xml</dc:format>
        <dc:type
           rdf:resource="http://purl.org/dc/dcmitype/StillImage" />
        <dc:title></dc:title>
      </cc:Work>
    </rdf:RDF>
  </metadata>
  <g
     inkscape:label="Layer 1"
     inkscape:groupmode="layer"
     id="layer1">
    <text
       xml:space="preserve"
       style="font-style:normal;font-weight:normal;font-size:40px;line-height:1.25;font-family:sans-serif;letter-spacing:0px;word-spacing:0px;fill:#000000;fill-opacity:1;stroke:none"
       x="34.247395"
       y="77.973686"
       id="text8081"><tspan
         sodipodi:role="line"
         id="tspan8079"
         x="34.247395"
         y="77.973686"
         style="font-size:10.66666698px">тэбби</tspan></text>
    <path
       style="fill:#000000;stroke:none;stroke-width:1px;stroke-linecap:butt;stroke-linejoin:miter;stroke-opacity:1;fill-opacity:1"
       d="M 29.903348,56.870339 C 31.720678,50.922712 33.868432,41.505636 38.99,38.36661 44.111568,35.227585 53.528644,29.610381 56.832881,27.297415 60.137119,24.984449 67.736865,11.932712 69.058559,11.437076 c 1.321695,-0.495635 9.086653,-7.2693219 -3.139025,10.903983 -12.225678,18.173305 -8.756229,9.251865 -18.173305,16.355975 -9.417076,7.10411 -7.599746,22.13839 -8.425805,23.790508 -0.82606,1.652119 -9.417076,-5.617203 -9.417076,-5.617203 z"
       id="path8109"
       inkscape:connector-curvature="0" />
    <path
       style="fill:#000000;stroke:none;stroke-width:1px;stroke-linecap:butt;stroke-linejoin:miter;stroke-opacity:1;fill-opacity:1"
       d="m 27.42517,45.635932 c 6.443262,-11.399619 7.434533,-13.051737 13.547372,-15.860339 6.112839,-2.808602 13.547373,-5.782415 15.860339,-9.912712 2.312967,-4.130296 6.443263,-10.2431354 3.634662,-9.417076 -2.808602,0.826059 -5.451992,8.095381 -11.564831,10.738771 -6.112839,2.64339 -16.521187,7.434534 -19.825424,9.912712 -3.304237,2.478178 -6.112839,4.791144 -6.112839,6.938898 0,2.147755 4.460721,7.599746 4.460721,7.599746 z"
       id="path8111"
       inkscape:connector-curvature="0" />
    <path
       style="fill:#000000;fill-opacity:1;stroke:none;stroke-width:1px;stroke-linecap:butt;stroke-linejoin:miter;stroke-opacity:1"
       d="m 46.09411,62.983178 c 2.147754,-6.443263 4.791144,-15.860339 8.921441,-18.668941 4.130297,-2.808601 9.582288,-4.956356 11.895254,-7.434534 2.312966,-2.478178 3.799873,-8.260593 5.28678,-9.7475 1.486907,-1.486907 0.495635,2.808602 -0.826059,7.10411 -1.321695,4.295509 -5.782416,8.425806 -8.921441,10.57356 -3.139026,2.147754 -6.938898,2.312966 -7.269322,5.947627 -0.330424,3.634661 0.330424,7.930169 -0.330424,9.086652 -0.660847,1.156484 -8.756229,3.139026 -8.756229,3.139026 z"
       id="path8113"
       inkscape:connector-curvature="0"
       sodipodi:nodetypes="csssssscc" />
  </g>
</svg>
