<svg xmlns="http://www.w3.org/2000/svg" width="100" height="80" viewBox="0 0 100 80">
    <defs>
        <linearGradient id="a">
            <stop style="stop-color:#000000;stop-opacity:1" offset="0"/>
            <stop style="stop-color:#000000;stop-opacity:0" offset="1"/>
        </linearGradient>
    </defs>
    <text style="font-style:normal;font-weight:normal;font-size:40px;line-height:1.25;font-family:sans-serif;letter-spacing:0px;word-spacing:0px;fill:#000000;fill-opacity:1;stroke:none" x="34.247" y="77.974">
        <tspan x="34.247" y="77.974" style="font-size:10.66666698px">тэбби</tspan>
    </text>
    <path style="fill:#000000;stroke:none;stroke-width:1px;stroke-linecap:butt;stroke-linejoin:miter;stroke-opacity:1;fill-opacity:1" d="M29.903 56.87c1.818-5.947 3.965-15.364 9.087-18.503 5.122-3.14 14.539-8.757 17.843-11.07 3.304-2.313 10.904-15.364 12.226-15.86 1.321-.496 9.086-7.27-3.14 10.904-12.225 18.173-8.756 9.252-18.173 16.356-9.417 7.104-7.6 22.138-8.426 23.79-.826 1.653-9.417-5.617-9.417-5.617zM27.425 45.636c6.443-11.4 7.435-13.052 13.548-15.86 6.112-2.809 13.547-5.783 15.86-9.913 2.313-4.13 6.443-10.243 3.635-9.417-2.81.826-5.452 8.095-11.565 10.739-6.113 2.643-16.521 7.434-19.826 9.912-3.304 2.478-6.113 4.791-6.113 6.94 0 2.147 4.461 7.599 4.461 7.599z"/>
    <path style="fill:#000000;fill-opacity:1;stroke:none;stroke-width:1px;stroke-linecap:butt;stroke-linejoin:miter;stroke-opacity:1" d="M46.094 62.983c2.148-6.443 4.791-15.86 8.922-18.669 4.13-2.808 9.582-4.956 11.895-7.434 2.313-2.478 3.8-8.26 5.287-9.748 1.486-1.487.495 2.809-.826 7.104-1.322 4.296-5.783 8.426-8.922 10.574-3.139 2.148-6.939 2.313-7.27 5.948-.33 3.634.331 7.93-.33 9.086-.66 1.157-8.756 3.14-8.756 3.14z"/>
</svg>
