<svg xmlns="http://www.w3.org/2000/svg" xmlns:xlink="http://www.w3.org/1999/xlink" width="100" height="80" viewBox="0 0 100 80">
    <defs>
        <linearGradient id="e">
            <stop style="stop-color:#000000;stop-opacity:1" offset="0"/>
            <stop style="stop-color:#000000;stop-opacity:0" offset="1"/>
        </linearGradient>
        <linearGradient id="d">
            <stop style="stop-color:#000000;stop-opacity:1" offset="0"/>
            <stop style="stop-color:#000000;stop-opacity:0" offset="1"/>
        </linearGradient>
        <linearGradient id="c">
            <stop style="stop-color:#000000;stop-opacity:1" offset="0"/>
            <stop style="stop-color:#000000;stop-opacity:0" offset="1"/>
        </linearGradient>
        <linearGradient id="b">
            <stop style="stop-color:#000000;stop-opacity:1" offset="0"/>
            <stop style="stop-color:#000000;stop-opacity:0" offset="1"/>
        </linearGradient>
        <linearGradient id="a">
            <stop style="stop-color:#000000;stop-opacity:1" offset="0"/>
            <stop style="stop-color:#000000;stop-opacity:0" offset="1"/>
        </linearGradient>
        <linearGradient xlink:href="#b" id="f" x1="37.668" y1="55.218" x2="96.814" y2="-1.449" gradientUnits="userSpaceOnUse"/>
        <linearGradient xlink:href="#c" id="h" x1="52.042" y1="55.053" x2="90.371" y2="14.907" gradientUnits="userSpaceOnUse"/>
        <linearGradient xlink:href="#d" id="g" x1="28.251" y1="35.558" x2="75.171" y2="4.003" gradientUnits="userSpaceOnUse"/>
        <linearGradient xlink:href="#e" id="i" x1="32.547" y1="50.923" x2="61.789" y2="25.645" gradientUnits="userSpaceOnUse" spreadMethod="pad"/>
    </defs>
    <text style="font-style:normal;font-weight:normal;font-size:40px;line-height:1.25;font-family:sans-serif;letter-spacing:0px;word-spacing:0px;fill:#000000;fill-opacity:1;stroke:none" x="15.461" y="77.974">
        <tspan x="15.461" y="77.974" style="font-size:10.66666698px">тэбби-колор</tspan>
    </text>
    <path style="fill:url(#f);stroke:none;stroke-width:1px;stroke-linecap:butt;stroke-linejoin:miter;stroke-opacity:1;fill-opacity:1" d="M29.903 56.87c1.818-5.947 3.965-15.364 9.087-18.503 5.122-3.14 14.539-8.757 17.843-11.07 3.304-2.313 10.904-15.364 12.226-15.86 1.321-.496 9.086-7.27-3.14 10.904-12.225 18.173-8.756 9.252-18.173 16.356-9.417 7.104-7.6 22.138-8.426 23.79-.826 1.653-9.417-5.617-9.417-5.617z"/>
    <path style="fill:url(#g);stroke:none;stroke-width:1px;stroke-linecap:butt;stroke-linejoin:miter;stroke-opacity:1;fill-opacity:1" d="M27.425 45.636c6.443-11.4 7.435-13.052 13.548-15.86 6.112-2.809 13.547-5.783 15.86-9.913 2.313-4.13 6.443-10.243 3.635-9.417-2.81.826-5.452 8.095-11.565 10.739-6.113 2.643-16.521 7.434-19.826 9.912-3.304 2.478-6.113 4.791-6.113 6.94 0 2.147 4.461 7.599 4.461 7.599z"/>
    <path style="fill:url(#h);fill-opacity:1;stroke:none;stroke-width:1px;stroke-linecap:butt;stroke-linejoin:miter;stroke-opacity:1" d="M46.094 62.983c2.148-6.443 4.791-15.86 8.922-18.669 4.13-2.808 9.582-4.956 11.895-7.434 2.313-2.478 3.8-8.26 5.287-9.748 1.486-1.487.495 2.809-.826 7.104-1.322 4.296-5.783 8.426-8.922 10.574-3.139 2.148-6.939 2.313-7.27 5.948-.33 3.634.331 7.93-.33 9.086-.66 1.157-8.756 3.14-8.756 3.14z"/>
    <path style="fill:url(#i);fill-opacity:1;stroke:none;stroke-width:1px;stroke-linecap:butt;stroke-linejoin:miter;stroke-opacity:1" d="M29.408 35.723s-.992 8.096 1.982 13.548 14.208 9.417 17.678 8.921c3.47-.496-.022-7.711 6.774-12.06 8.26-5.287 16.52-8.757 15.034-17.348-1.339-7.734-20.043-23.58-15.86-11.73 1.982 5.617-18.339 9.087-20.156 12.556-1.818 3.47-5.452 6.113-5.452 6.113z"/>
</svg>
