<svg xmlns="http://www.w3.org/2000/svg" xmlns:xlink="http://www.w3.org/1999/xlink" width="220mm" height="140mm" viewBox="-40 0 140 220" version="1.1" id="svg8">
  <defs id="defs2">
    <linearGradient id="linearGradient2518">
      <stop style="stop-color:#ffffff;stop-opacity:1" offset="0" id="stop2514"/>
      <stop style="stop-color:#ffffff;stop-opacity:0" offset="1" id="stop2516"/>
    </linearGradient>
    <linearGradient id="linearGradient2484">
      <stop style="stop-color:#803d00;stop-opacity:1" offset="0" id="stop2480"/>
      <stop style="stop-color:#803d00;stop-opacity:0" offset="1" id="stop2482"/>
    </linearGradient>
    <linearGradient id="linearGradient7170">
      <stop style="stop-color:#803d00;stop-opacity:1" offset="0" id="stop7166"/>
      <stop style="stop-color:#803d00;stop-opacity:0" offset="1" id="stop7168"/>
    </linearGradient>
    <linearGradient id="linearGradient5658">
      <stop style="stop-color:#ffffff;stop-opacity:1" offset="0" id="stop5654"/>
      <stop style="stop-color:#ffffff;stop-opacity:0" offset="1" id="stop5656"/>
    </linearGradient>
    <linearGradient id="linearGradient5558">
      <stop style="stop-color:#803d00;stop-opacity:1" offset="0" id="stop5554"/>
      <stop style="stop-color:#a55816;stop-opacity:0" offset="1" id="stop5556"/>
    </linearGradient>
    <linearGradient id="linearGradient5528">
      <stop style="stop-color:#803d00;stop-opacity:1" offset="0" id="stop5524"/>
      <stop style="stop-color:#8f4200;stop-opacity:0" offset="1" id="stop5526"/>
    </linearGradient>
    <linearGradient xlink:href="#linearGradient2518" id="linearGradient5660" x1="190.728" y1="63.862" x2="129.965" y2="44.859" gradientUnits="userSpaceOnUse"/>
    <linearGradient xlink:href="#linearGradient5558" id="linearGradient5560" x1="140.161" y1="9.587" x2="150.358" y2="36.695" gradientUnits="userSpaceOnUse"/>
    <linearGradient xlink:href="#linearGradient5528" id="linearGradient5459" x1="69.196" y1="71.691" x2="119.708" y2="96.431" gradientUnits="userSpaceOnUse" gradientTransform="translate(-.228 -.114)"/>
    <linearGradient xlink:href="#linearGradient5528" id="linearGradient5493" x1="21.489" y1="143.318" x2="19.941" y2="162.408" gradientUnits="userSpaceOnUse"/>
    <linearGradient xlink:href="#linearGradient5528" id="linearGradient5530" x1="108.663" y1="-69.669" x2="121.946" y2="189.946" gradientUnits="userSpaceOnUse"/>
    <linearGradient xlink:href="#linearGradient2518" id="linearGradient5629-4" x1="-56.125" y1="157.849" x2="21.45" y2="153.905" gradientUnits="userSpaceOnUse"/>
    <linearGradient xlink:href="#linearGradient2484" id="linearGradient7518" x1="9.082" y1="139.774" x2="19.057" y2="165.523" gradientUnits="userSpaceOnUse"/>
    <linearGradient xlink:href="#linearGradient2484" id="linearGradient6491" x1="118.87" y1="161.076" x2="113.613" y2="93.524" gradientUnits="userSpaceOnUse" gradientTransform="translate(0 -.114)"/>
    <linearGradient xlink:href="#linearGradient2484" id="linearGradient6471" x1="38.653" y1="65.489" x2="106.174" y2="97.506" gradientUnits="userSpaceOnUse" gradientTransform="translate(-.114 -.115)"/>
    <linearGradient xlink:href="#linearGradient2484" id="linearGradient6439" x1="15.134" y1="158.999" x2="61.508" y2="133.661" gradientUnits="userSpaceOnUse"/>
    <linearGradient xlink:href="#linearGradient2484" id="linearGradient7460" x1="115.79" y1="133.742" x2="111.615" y2="92.683" gradientUnits="userSpaceOnUse"/>
    <linearGradient xlink:href="#linearGradient7452" id="linearGradient7446" x1="89.577" y1="138.846" x2="63.596" y2="109.849" gradientUnits="userSpaceOnUse"/>
    <linearGradient id="linearGradient7452">
      <stop style="stop-color:#803d00;stop-opacity:1" offset="0" id="stop7448"/>
      <stop style="stop-color:#b75c0d;stop-opacity:0" offset="1" id="stop7450"/>
    </linearGradient>
    <linearGradient xlink:href="#linearGradient2484" id="linearGradient6517" x1="83.015" y1="166.118" x2="67.049" y2="143.709" gradientUnits="userSpaceOnUse"/>
    <linearGradient xlink:href="#linearGradient2484" id="linearGradient7510" x1="78.906" y1="-41.165" x2="121.589" y2="103.818" gradientUnits="userSpaceOnUse"/>
    <linearGradient xlink:href="#linearGradient7502" id="linearGradient7496" x1="140.611" y1="10.565" x2="149.194" y2="33.762" gradientUnits="userSpaceOnUse"/>
    <linearGradient id="linearGradient7502">
      <stop style="stop-color:#803d00;stop-opacity:1" offset="0" id="stop7498"/>
      <stop style="stop-color:#df7921;stop-opacity:0" offset="1" id="stop7500"/>
    </linearGradient>
    <linearGradient xlink:href="#linearGradient2484" id="linearGradient7349" x1="131.282" y1="28.67" x2="129.762" y2="35.356" gradientUnits="userSpaceOnUse"/>
    <linearGradient gradientTransform="translate(-.067 -.085)" xlink:href="#linearGradient2518" id="linearGradient5660-4" x1="190.728" y1="63.862" x2="129.965" y2="44.859" gradientUnits="userSpaceOnUse"/>
    <linearGradient gradientTransform="translate(-18.025 -123.547)" xlink:href="#linearGradient2484" id="linearGradient5645-9" x1="126.616" y1="159.142" x2="157.932" y2="183.539" gradientUnits="userSpaceOnUse"/>
    <linearGradient xlink:href="#linearGradient2484" id="linearGradient7915" gradientUnits="userSpaceOnUse" x1="149.394" y1="229.805" x2="147.243" y2="155.243"/>
    <linearGradient xlink:href="#linearGradient2484" id="linearGradient7917" gradientUnits="userSpaceOnUse" x1="145.809" y1="190.911" x2="145.271" y2="167.431"/>
    <linearGradient xlink:href="#linearGradient2484" id="linearGradient7919" gradientUnits="userSpaceOnUse" x1="145.809" y1="190.911" x2="145.271" y2="167.431"/>
    <linearGradient xlink:href="#linearGradient2484" id="linearGradient7921" gradientUnits="userSpaceOnUse" x1="145.809" y1="190.911" x2="145.271" y2="167.431"/>
    <linearGradient xlink:href="#linearGradient2484" id="linearGradient7923" gradientUnits="userSpaceOnUse" x1="145.809" y1="190.911" x2="145.271" y2="167.431"/>
    <linearGradient xlink:href="#linearGradient2484" id="linearGradient7925" gradientUnits="userSpaceOnUse" x1="145.809" y1="190.911" x2="145.271" y2="167.431"/>
    <linearGradient xlink:href="#linearGradient2484" id="linearGradient7927" gradientUnits="userSpaceOnUse" x1="145.809" y1="190.911" x2="145.271" y2="167.431"/>
    <linearGradient xlink:href="#linearGradient2484" id="linearGradient7929" gradientUnits="userSpaceOnUse" x1="145.809" y1="190.911" x2="145.271" y2="167.431"/>
    <linearGradient xlink:href="#linearGradient7170" id="linearGradient7931" gradientUnits="userSpaceOnUse" gradientTransform="translate(-.286 .07)" x1="122.829" y1="221.046" x2="108.272" y2="208.832"/>
    <linearGradient xlink:href="#linearGradient5658" id="linearGradient7933" gradientUnits="userSpaceOnUse" x1="-63.686" y1="157.849" x2="14.727" y2="154.659"/>
    <linearGradient xlink:href="#linearGradient2484" id="linearGradient7935" gradientUnits="userSpaceOnUse" x1="115.79" y1="133.742" x2="111.615" y2="92.683"/>
    <linearGradient xlink:href="#linearGradient2484" id="linearGradient7937" gradientUnits="userSpaceOnUse" x1="115.79" y1="133.742" x2="111.615" y2="92.683"/>
    <linearGradient xlink:href="#linearGradient2484" id="linearGradient7939" gradientUnits="userSpaceOnUse" x1="115.79" y1="133.742" x2="111.615" y2="92.683"/>
    <linearGradient xlink:href="#linearGradient2484" id="linearGradient7941" gradientUnits="userSpaceOnUse" x1="115.79" y1="133.742" x2="111.615" y2="92.683"/>
    <linearGradient xlink:href="#linearGradient2484" id="linearGradient7943" gradientUnits="userSpaceOnUse" x1="115.79" y1="133.742" x2="111.615" y2="92.683"/>
    <linearGradient xlink:href="#linearGradient2484" id="linearGradient7945" gradientUnits="userSpaceOnUse" x1="115.79" y1="133.742" x2="111.615" y2="92.683"/>
    <linearGradient xlink:href="#linearGradient2484" id="linearGradient7947" gradientUnits="userSpaceOnUse" x1="115.79" y1="133.742" x2="111.615" y2="92.683"/>
    <linearGradient xlink:href="#linearGradient2484" id="linearGradient7949" gradientUnits="userSpaceOnUse" x1="115.79" y1="133.742" x2="111.615" y2="92.683"/>
    <linearGradient xlink:href="#linearGradient2484" id="linearGradient7951" gradientUnits="userSpaceOnUse" x1="115.79" y1="133.742" x2="111.615" y2="92.683"/>
    <linearGradient xlink:href="#linearGradient7452" id="linearGradient7953" gradientUnits="userSpaceOnUse" x1="89.577" y1="138.846" x2="63.596" y2="109.849"/>
    <linearGradient xlink:href="#linearGradient7452" id="linearGradient7955" gradientUnits="userSpaceOnUse" x1="89.577" y1="138.846" x2="63.596" y2="109.849"/>
    <linearGradient xlink:href="#linearGradient7452" id="linearGradient7957" gradientUnits="userSpaceOnUse" x1="89.577" y1="138.846" x2="63.596" y2="109.849"/>
    <linearGradient xlink:href="#linearGradient7452" id="linearGradient7959" gradientUnits="userSpaceOnUse" x1="89.577" y1="138.846" x2="63.596" y2="109.849"/>
    <linearGradient xlink:href="#linearGradient7452" id="linearGradient7961" gradientUnits="userSpaceOnUse" x1="89.577" y1="138.846" x2="63.596" y2="109.849"/>
    <linearGradient xlink:href="#linearGradient7452" id="linearGradient7963" gradientUnits="userSpaceOnUse" x1="89.577" y1="138.846" x2="63.596" y2="109.849"/>
    <linearGradient xlink:href="#linearGradient7452" id="linearGradient7965" gradientUnits="userSpaceOnUse" x1="89.577" y1="138.846" x2="63.596" y2="109.849"/>
    <linearGradient xlink:href="#linearGradient7452" id="linearGradient7967" gradientUnits="userSpaceOnUse" x1="89.577" y1="138.846" x2="63.596" y2="109.849"/>
    <linearGradient xlink:href="#linearGradient7452" id="linearGradient7969" gradientUnits="userSpaceOnUse" x1="89.577" y1="138.846" x2="63.596" y2="109.849"/>
    <linearGradient xlink:href="#linearGradient7452" id="linearGradient7971" gradientUnits="userSpaceOnUse" x1="89.577" y1="138.846" x2="63.596" y2="109.849"/>
    <linearGradient xlink:href="#linearGradient2484" id="linearGradient7973" gradientUnits="userSpaceOnUse" x1="131.282" y1="28.67" x2="129.762" y2="35.356"/>
    <linearGradient xlink:href="#linearGradient2484" id="linearGradient7975" gradientUnits="userSpaceOnUse" x1="131.282" y1="28.67" x2="129.762" y2="35.356"/>
  </defs>
  <g id="lowPaw" style="fill:#b75c0d;fill-opacity:1" transform="matrix(1.32216 0 0 1.32216 -90.115 -76.065)">
    <path style="fill:#b75c0d;fill-opacity:1;stroke:none;stroke-width:0.26458332px;stroke-linecap:butt;stroke-linejoin:miter;stroke-opacity:1" d="M145.224 106.422c10.063 6.404 17.38 16.77 17.686 18.905.305 2.135 1.22 12.807-6.709 24.394-7.927 11.586-10.977 16.16-10.977 18.6 0 2.439 3.354 43.298 3.354 43.298s2.757-.373 4.891 2.066c2.135 2.44 2.428 6.167 2.428 6.167l-12.807-.305-12.169-41.478-.919 2.495.586-5.535c-4.164 12.141 1.492-13.619 1.525-13.722.915-3.049 5.793-20.429 5.793-25.613 0-5.183-2.744-18.295-2.744-21.649 0-3.354 10.062-7.623 10.062-7.623z" id="leftLowPaw1"/>
    <path style="fill:#b75c0d;fill-opacity:1;stroke:none;stroke-width:0.26458332px;stroke-linecap:butt;stroke-linejoin:miter;stroke-opacity:1" d="M134.675 171.072s7.25 8.945 6.589 11.411c-.661 2.466-1.657 10.288-11.274 17.686-9.616 7.398-15.535 12.083-15.535 12.083s16.029-.74 17.508-.247c1.48.493 6.165 7.644 6.165 7.644l-48.084.493-.987-1.726-2.22 1.726s.247-2.959.987-3.945c.74-.986-2.712.74-2.712.74s9.123-11.836 10.603-13.809c1.48-1.973-1.726-15.288-.74-19.234.987-3.945 9.617-17.754 15.782-19.48 6.164-1.726 23.918 6.658 23.918 6.658z" id="leftLowPaw2"/>
    <g transform="translate(0 .18)" style="fill:#b75c0d;fill-opacity:1" id="elementsOnPaw">
      <g id="tabby-colorOnPaw" style="opacity:0">
        <path style="fill:url(#linearGradient7915);fill-opacity:1;stroke:none;stroke-width:0.26458332px;stroke-linecap:butt;stroke-linejoin:miter;stroke-opacity:1" d="M146.922 150.535c-1.728.01-4.09 1.41-7.376 5.042-4.805 5.31-6.424 17.15-6.72 28.851l10.292 35.083 12.806.305s-.292-3.727-2.427-6.166c-2.134-2.44-4.89-2.067-4.89-2.067s-3.355-40.858-3.355-43.298c0-1.854 1.778-4.963 6.105-11.427-.715-3.318-1.88-6.34-4.435-6.323z" id="leftLowPaw-2-7"/>
        <g id="g6866" style="fill:url(#linearGradient7929);fill-opacity:1">
          <path style="fill:url(#linearGradient7917);fill-opacity:1;stroke:none;stroke-width:0.31446466px;stroke-linecap:butt;stroke-linejoin:miter;stroke-opacity:1" d="M144.485 170.878l.322 3.435s-.107-.859-1.395-.859c-1.289 0-2.792 1.503-2.684.86.107-.645 3.757-3.436 3.757-3.436z" id="path6173-2"/>
          <path style="fill:url(#linearGradient7919);fill-opacity:1;stroke:none;stroke-width:0.31446466px;stroke-linecap:butt;stroke-linejoin:miter;stroke-opacity:1" d="M144.807 175.28l.215 3.757s-.43-1.503-1.503-1.181c-1.074.322-2.362.537-2.362.537v-.645s2.04-.536 2.147-1.073c.108-.537-2.147.215-2.147.215s.215-1.289.859-1.289 2.791-.322 2.791-.322z" id="path6175-2"/>
          <path style="fill:url(#linearGradient7921);fill-opacity:1;stroke:none;stroke-width:0.31446466px;stroke-linecap:butt;stroke-linejoin:miter;stroke-opacity:1" d="M145.13 180.325l.321 2.576-1.825-.536z" id="path6177-3"/>
          <path style="fill:url(#linearGradient7923);fill-opacity:1;stroke:none;stroke-width:0.31446466px;stroke-linecap:butt;stroke-linejoin:miter;stroke-opacity:1" d="M146.095 192.348s.108 1.396 0 1.825c-.107.43-.214-.43-.966-.43-.751 0 .966-1.395.966-1.395z" id="path6179-7"/>
          <path style="fill:url(#linearGradient7925);fill-opacity:1;stroke:none;stroke-width:0.79423755px;stroke-linecap:butt;stroke-linejoin:miter;stroke-opacity:1" d="M145.976 187.517c.315 1.635-3.778 3.97 0 0z" id="path6181-6"/>
          <path style="fill:url(#linearGradient7927);fill-opacity:1;stroke:none;stroke-width:0.31446466px;stroke-linecap:butt;stroke-linejoin:miter;stroke-opacity:1" d="M148.028 161.002s-1.396 1.61-1.718 2.361c-.322.752-4.187 4.616-3.543 3.328.645-1.288 5.26-5.69 5.26-5.69z" id="path6183-1"/>
        </g>
        <path style="fill:url(#linearGradient7931);fill-opacity:1;stroke:none;stroke-width:0.26458332px;stroke-linecap:butt;stroke-linejoin:miter;stroke-opacity:1" d="M128.457 211.61c-5.131 0-14.145.416-14.147.416-2.07.98-4.048 1.856-5.012 2.113-2.51.67-10.206.67-10.206.67s-5.522-.335-8.534.167c-.574.096-1.576.424-2.818.89-.016.033-.03.063-.062.105-.74.986-.986 3.945-.986 3.945l2.22-1.726.986 1.726 48.084-.493s-4.685-7.151-6.165-7.644c-.37-.124-1.649-.17-3.36-.17z" id="leftLowPaw2-5"/>
      </g>
      <g id="stripsOnPaw" style="opacity:0">
        <path id="path5245-9" d="M144.889 171.539s1.165 5.556.18 4.84c-.987-.718-1.793-1.166-2.779-.718-.986.448-1.524-1.613-1.075-1.971.448-.359 3.674-2.151 3.674-2.151z" style="opacity:1;fill:#803d00;fill-opacity:1;stroke:none;stroke-width:0.31446469px;stroke-linecap:butt;stroke-linejoin:miter;stroke-opacity:1"/>
        <path id="path5247-8" d="M145.158 177.991c0 .448.806 4.391.358 3.854-.448-.538-.448-1.793-1.882-1.703-1.434.09-1.703-.896-1.075-1.613.627-.717 2.599-.538 2.599-.538z" style="opacity:1;fill:#803d00;fill-opacity:1;stroke:none;stroke-width:0.31446469px;stroke-linecap:butt;stroke-linejoin:miter;stroke-opacity:1"/>
        <path id="path5249-6" d="M144.8 184.802s.985 0 1.164.807c.18.806.448 3.674.448 3.674s-1.165-2.24-1.433-3.137c-.27-.896-.18-1.344-.18-1.344z" style="opacity:1;fill:#803d00;fill-opacity:1;stroke:none;stroke-width:0.31446469px;stroke-linecap:butt;stroke-linejoin:miter;stroke-opacity:1"/>
        <path id="path5253-7" d="M144.246 169.584s0-2.058.618-3.293c.617-1.235 3.91-4.94 2.47-4.528-1.441.411-5.97 8.438-6.175 9.262-.206.823 3.087-1.441 3.087-1.441z" style="opacity:1;fill:#803d00;fill-opacity:1;stroke:none;stroke-width:0.31446469px;stroke-linecap:butt;stroke-linejoin:miter;stroke-opacity:1"/>
      </g>
    </g>
  </g>
  <g transform="translate(-66.146 .192) scale(1.375)" id="whiteOnPaw">
    <path id="leftWhiteOnPaw1-5" d="M125.042 143.404c-1.091 1.661-2.26 1.89-3.168.413-.875-1.421-2.419 2.966-3.506 6.59l1.658 5.738 12.989.314s-.297-3.839-2.462-6.352c-2.165-2.513-4.96-2.129-4.96-2.129s-.29-1.906-.462-4.041c-.075-.567-.044-.47-.09-.533z" style="opacity:0;fill:#d3dbd4;fill-opacity:1;stroke:none;stroke-width:0.27045086px;stroke-linecap:butt;stroke-linejoin:miter;stroke-opacity:1"/>
    <path id="WhiteLeftLowPaw2-5" d="M116.091 116.711l-4.131 8.153.283 3.388 7.693 28.03 12.807.326s-.293-3.984-2.428-6.592c-2.134-2.607-4.89-2.209-4.89-2.209s-1.326-17.26-2.31-30.73c-.702 3.926-1.49 7.277-2.676 4.526-1.522-3.533-.217-4.076-1.522-1.902-1.304 2.174-2.826-2.99-2.826-2.99z" style="opacity:0;fill:#d3d3db;fill-opacity:1;stroke:none;stroke-width:0.27354866px;stroke-linecap:butt;stroke-linejoin:miter;stroke-opacity:1"/>
  </g>
  <path style="fill:#df7921;fill-opacity:1;stroke:none;stroke-width:0.34982252px;stroke-linecap:butt;stroke-linejoin:miter;stroke-opacity:1" d="M1.653 175.503c-1.006 13.671.772 20.566-7.486 24.592-8.257 4.026-75.866 7.82-79.484 9.03-3.62 1.21-7.724 8.605-7.724 8.605l4.296-2.171-4.356 4.453 117.8-2.493s-3.815-16.406-8.183-24.02c-4.37-7.614-14.863-17.996-14.863-17.996z" id="tail"/>
  <path style="fill:#df7921;fill-opacity:1;stroke:none;stroke-width:0.34982249px;stroke-linecap:butt;stroke-linejoin:miter;stroke-opacity:1" d="M118.925 17.562c-8.997.176-17.49 7.679-19.624 11.945-2.133 4.266-5.12 15.358-8.532 27.303 0 0-.853 5.12-1.706 6.826-.854 1.707-5.546 4.266-7.68 5.546-2.132 1.28-3.413 4.693-5.972 5.972-2.56 1.28-10.665 2.987-16.211 3.413-20.31 2.388-30.354 15.785-39.676 31.997-4.266 5.12-11.545 14.993-17.064 36.688-5.775 22.706-3.898 39.38-.427 51.62 3.166 11.165 12.8 21.757 17.918 20.478 5.12-1.28 27.73-20.904 33.276-27.304 5.546-6.399 71.244-87.455 71.244-87.455l.854 2.986 1.28-7.252s.853 7.328.853-3.413c-.854-3.84-1.28-14.931-2.133-27.73-.854-12.798 2.875-15.308 5.435-17.015 3.845-1.271 5.386.085 10.088-2.578 2.162-1.72 3.3-2.927 4.948-6.08 1.128-2.48 2.513-6.071 2.513-7.176 0-2.133-2.718-3.172-6.131-4.878-2.005-1.022-.633-2.183-2.901-5.722-4.597-3.424-11.963-8.334-20.352-8.17z" id="body"/>
  <g id="hightPaw" style="fill:#df7921;fill-opacity:1" transform="matrix(1.32216 0 0 1.32216 -90.115 -76.065)">
    <path id="rightHightPaw1" d="M140.262 109.17c10.062 6.404 17.38 16.771 17.685 18.906.305 2.134 1.22 12.806-6.708 24.393-7.928 11.587-10.977 16.16-10.977 18.6 0 2.44 3.354 43.298 3.354 43.298s2.757.025 4.891 2.464c2.134 2.44 2.427 5.77 2.427 5.77l-12.806-.306-12.169-41.477-.92 2.494.587-5.535c-4.164 12.142 1.492-13.618 1.525-13.721.914-3.05 5.793-20.43 5.793-25.613 0-5.184-2.744-18.295-2.744-21.65 0-3.353 10.062-7.622 10.062-7.622z" style="fill:#df7921;fill-opacity:1;stroke:none;stroke-width:0.26458332px;stroke-linecap:butt;stroke-linejoin:miter;stroke-opacity:1"/>
    <path id="rightHightPaw2" d="M120.087 174.694s7.25 8.944 6.588 11.41c-.66 2.467-1.656 10.29-11.273 17.687-9.617 7.397-15.535 12.082-15.535 12.082s16.028-.74 17.508-.246c1.48.493 6.164 7.644 6.164 7.644l-48.084.493-.986-1.726-2.22 1.726s.247-2.959.987-3.945c.74-.987-2.713.74-2.713.74s9.124-11.837 10.604-13.81c1.48-1.972-1.726-15.288-.74-19.233.986-3.945 9.617-17.754 15.781-19.48 6.165-1.726 23.92 6.658 23.92 6.658z" style="fill:#df7921;fill-opacity:1;stroke:none;stroke-width:0.26458332px;stroke-linecap:butt;stroke-linejoin:miter;stroke-opacity:1"/>
  </g>
  <g transform="translate(-66.146 .192) scale(1.375)" id="elements" style="stroke:none">
    <g id="strips" style="opacity:0;fill:#8f4200;fill-opacity:1;stroke:none">
      <path style="fill:url(#linearGradient7933);fill-opacity:1;stroke:none;stroke-width:0.25441638px;stroke-linecap:butt;stroke-linejoin:miter;stroke-opacity:1" d="M18.582 149.072c-8.22.674-31.677 2.664-32.578 2.965-2.632.881-5.618 6.259-5.618 6.259l3.124-1.58-3.167 3.24 19.266-.408 14.131-.688 2.725-.594s-1.554-4.746-2.46-5.342c1.601-.985 3.635-2.409 4.577-3.852z" id="tail-3"/>
      <path style="fill:url(#linearGradient5660);fill-opacity:1;stroke:none;stroke-width:0.25441635px;stroke-linecap:butt;stroke-linejoin:miter;stroke-opacity:1" d="M151.815 26.42c-1.382 0-4.146.691-4.146 2.879s1.151 2.072 0 2.878c-1.152.807-4.491 1.383-7.37 3.34-2.88 1.958-5.067 3.11-6.794 5.988-1.728 2.88-2.764 8.637-2.764 8.637l1.957-3.455s-1.497 2.88-1.497 5.873c0 2.994 2.188 10.594 2.188 10.594v-5.757s1.267 5.527 2.304 7.37c1.036 1.842 3.57 5.642 3.57 5.642l-.461-3.454 1.036 3.339.584-3.337c-.359-3.908-.646-9.948-1.094-16.667-.62-9.308 2.092-11.133 3.954-12.374 2.796-.925 3.917.061 7.337-1.875 1.572-1.25 2.4-2.13 3.598-4.422.516-1.135 1.106-2.588 1.472-3.71-.915-.74-2.628-1.49-3.874-1.49z" id="body-7"/>
      <path style="fill:url(#linearGradient5560);fill-opacity:1;stroke:none;stroke-width:0.25441635px;stroke-linecap:butt;stroke-linejoin:miter;stroke-opacity:1" d="M139.015 13.067c-8.003-1.533-11.66 2.305-14.503 7.715-.666 1.665-.568 2.453-.037 3.932 1 2.782.51 3.046 1.104 4.228.86-1.683.358.43 3.275 2.28 1.275 1.02 9.348.34 11.728-.254 2.38-.595 7.138-5.014 7.138-5.014l-4.589-3.57 2.826-2.16s1.372.297.767 2.337c-.222.75 2.541 1.223 2.44 2.543.766 0 5.014 1.02 4.42.425-.595-.595-3.995-1.615-4.76-2.295-.764-.68-5.659-6.551-1.984-4.877.808.368.848 2.216 1.271 2.094.611-.175 1.284-.485.926-1.378-.092-.231.624.435.76.237a9.096 9.096 0 00-.488-.853c-2.49-1.854-6.096-4.307-10.294-5.39z" id="body-5"/>
      <path style="fill:url(#linearGradient5459);fill-opacity:1;stroke:none;stroke-width:0.25441635px;stroke-linecap:butt;stroke-linejoin:miter;stroke-opacity:1" d="M131.948 12.984c-5.446 1.279-10.177 5.666-11.507 8.326-1.551 3.102-3.723 11.17-6.205 19.857 0 0-.62 3.724-1.24 4.965-.621 1.24-4.034 3.102-5.585 4.033-1.552.93-2.483 3.413-4.345 4.343-1.861.931-7.756 2.172-11.789 2.483-14.772 1.736-22.075 11.48-28.855 23.27-3.103 3.723-8.396 10.904-12.41 26.682-3.65 14.351-2.995 26.428-1.13 34.915-.484 2.922-6.602 14.607-1.37 14.37 1.222-1.017 4.439-.274 4.585 1.308.041.683 1.252-.217 1.531-.854.59-1.345.861-3.837 1.69-3.634 1.112.273.288 5.615.856 4.609.83-1.47 3.055-4.63 4.232-4.588 4.089.147 5.849 3.531 9.16 2.98 2.201-.368 9.408-9.363 13.329-12.46 1.74-1.64 3.18-3.078 4.038-4.068 1.172-1.352 6.198-7.489 12.509-15.228 1.291-6.838-3.902-16.414-1.61-20.999 2.406-4.81 13.745-5.498 19.93-10.652 6.185-5.155 14.865-28.679 14.196-33.443-.485-3.448-2.667-4.764-2.485-5.873.548-3.334 1.195-6.983-.175-2.958-.792 2.327-.405-.671.2-2.323 5.268-14.403.4-3.307 2.204-7.135 1.646-3.495-1.48-7.219-2.6-9.088-.863-1.438-1.361-2.762-1.24-5.942.102-2.696 3.742-1.945 4.413-5.607.155-1.48-1.5-3.323-.825-4.401 1.487-2.382 5.224-3.139.498-2.888z" id="body-8"/>
      <path style="fill:url(#linearGradient5493);fill-opacity:1;stroke:none;stroke-width:0.25441638px;stroke-linecap:butt;stroke-linejoin:miter;stroke-opacity:1" d="M45.787 144.2c-.53.421-1.147.807-1.873 1.16-5.726 2.792-50.657 5.429-57.114 6.432-1.297 1.413-3.21 3.623-1.894 3.025 1.892-.86 3.095-.687 3.095-.687l-2.923 3.44s1.204-.173 3.096-.345c1.892-.172 38.695-.172 46.778-1.032 8.083-.86 10.835-2.236 10.835-2.236z" id="tail-6"/>
      <path id="path5176" d="M70.065 74.545c5.071.939 11.832 4.695 13.71 7.888 1.879 3.193 11.833 14.274 13.148 16.715 1.314 2.442 1.502 11.457 1.502 11.457s-2.254-8.264-3.756-9.766c-1.503-1.503-13.147-13.899-14.462-15.59-1.315-1.69-14.65-5.634-14.274-6.948.376-1.315 4.132-3.756 4.132-3.756z" style="fill:#803d00;fill-opacity:1;stroke:none;stroke-width:0.30238095px;stroke-linecap:butt;stroke-linejoin:miter;stroke-opacity:1"/>
      <path style="fill:#803d00;fill-opacity:1;stroke:none;stroke-width:0.31523019px;stroke-linecap:butt;stroke-linejoin:miter;stroke-opacity:1" d="M143.813 22.986c.53.121 1.653 1.338 2.38 1.642.728.304 3.109.426 3.109.426s-1.72 2.251-2.38 2.738c-.662.487-7.076 2.251-8.597 2.251-1.52 0-7.538-.73-7.538-.73l2.447-1.095s3.967.973 6.414.547c2.446-.425 5.62-2.372 5.62-2.372s-.595-.913-1.19-1.46c-.595-.548-.265-1.947-.265-1.947z" id="path5351"/>
      <path id="path5178" d="M71.943 71.54c4.132 0 14.462 1.69 15.964 3.005 1.503 1.314 4.508 6.197 6.574 7.7 2.066 1.502 5.07 7.7 5.259 6.198.188-1.503 0-3.569-.752-4.508-.75-.939-5.634-6.949-7.324-9.578-1.69-2.63-7.888-5.447-11.645-5.635-3.756-.188-4.883-.939-6.385-.188-1.503.752-1.69 3.005-1.69 3.005z" style="fill:#803d00;fill-opacity:1;stroke:none;stroke-width:0.30238095px;stroke-linecap:butt;stroke-linejoin:miter;stroke-opacity:1"/>
      <path id="path5182" d="M101.054 87.128c0 1.878-.563 2.63-.187 4.695.375 2.066 1.878 3.569 2.066 6.386.187 2.817 1.126-1.127 1.126-2.066 0-.939-3.005-9.015-3.005-9.015z" style="fill:#803d00;fill-opacity:1;stroke:none;stroke-width:0.30238095px;stroke-linecap:butt;stroke-linejoin:miter;stroke-opacity:1"/>
      <path id="path5184" d="M79.08 64.966c1.878-1.315 2.63-3.005 4.508-3.568 1.878-.564 1.69-.94 2.441-.564.752.376 1.315 3.193 3.193 3.944 1.878.751 5.466 5.592 8.64 4.883 2.82-.63 8.263 9.579 9.39 11.645 1.127 2.066.376 7.137.376 7.888 0 .751-1.983-3.842-2.442-5.634-2.066-8.076-18.969-18.594-20.284-18.594-1.314 0-4.32 1.69-4.883.94-.563-.752-.939-.94-.939-.94z" style="fill:#803d00;fill-opacity:1;stroke:none;stroke-width:0.30238095px;stroke-linecap:butt;stroke-linejoin:miter;stroke-opacity:1"/>
      <path id="path5186" d="M83.024 93.89c2.066 1.314 3.193 2.253 5.071 4.507 1.878 2.254 2.254 6.573 3.569 7.888 1.314 1.315-1.315 1.878-2.254.751-.94-1.127-2.254-6.385-3.944-7.888-1.69-1.502-5.071-4.507-6.01-6.573-.94-2.066-2.63-4.696-2.254-5.635.376-.939 5.822 6.95 5.822 6.95z" style="fill:#803d00;fill-opacity:1;stroke:none;stroke-width:0.30238095px;stroke-linecap:butt;stroke-linejoin:miter;stroke-opacity:1"/>
      <path id="path5188" d="M58.045 90.884c1.127-1.502 2.254-5.634 3.756-6.573 1.503-.94 6.386 1.502 7.888 2.066 1.503.563 4.884 5.822 6.01 7.137 1.127 1.314 5.635 3.944 5.26 5.07-.376 1.128-7.138-2.816-9.016-4.507-1.878-1.69-6.949-6.198-7.888-6.01-.94.188-3.193 3.38-3.944 3.38-.751 0-2.066-.563-2.066-.563z" style="fill:#803d00;fill-opacity:1;stroke:none;stroke-width:0.30238095px;stroke-linecap:butt;stroke-linejoin:miter;stroke-opacity:1"/>
      <path style="fill:#803d00;fill-opacity:1;stroke:none;stroke-width:0.30238095px;stroke-linecap:butt;stroke-linejoin:miter;stroke-opacity:1" d="M98.858 115.987c0 1.613-3.708 6.127-4.998 5.643s-14.348 3.708-15.638 4.675c-1.29.968-15.8 14.671-18.701 15.477-2.902.806-8.545-1.128-8.545-1.128s-.14.595.843 1.177c2.302 1.36 7.153 3.37 8.508 2.692 1.934-.967 19.83-15.316 23.538-17.25 3.708-1.935 10.64-1.935 12.897-3.225 2.257-1.29 4.514-4.514 4.353-5.32-.161-.806-1.612-2.58-1.612-2.58z" id="path5201"/>
      <path style="fill:#803d00;fill-opacity:1;stroke:none;stroke-width:0.30238095px;stroke-linecap:butt;stroke-linejoin:miter;stroke-opacity:1" d="M93.86 111.473c1.935.806 3.063 2.096 3.063 2.741s-1.128-.322-2.096.161c-.967.484-2.579 3.063-4.514 4.192-1.934 1.129-10.156 2.74-11.769 3.708-1.612.967-.483-1.773.162-1.935.645-.16 9.028-2.74 10.479-3.708 1.45-.967 4.675-5.159 4.675-5.159z" id="path5203"/>
      <path style="fill:#803d00;fill-opacity:1;stroke:none;stroke-width:0.30238095px;stroke-linecap:butt;stroke-linejoin:miter;stroke-opacity:1" d="M76.61 122.275c-.323 1.612-1.29 2.74-2.257 3.87-.968 1.128-11.93 8.383-14.349 8.383-2.418 0-8.705.644-9.35 0-.645-.645 8.706-.484 9.834-1.451 1.129-.968 10.48-5.482 11.608-7.416 1.128-1.935 5.32-5.965 5.32-5.32 0 .644-.806 1.934-.806 1.934z" id="path5205"/>
      <path style="fill:#803d00;fill-opacity:1;stroke:none;stroke-width:0.30238095px;stroke-linecap:butt;stroke-linejoin:miter;stroke-opacity:1" d="M90.475 110.345c-1.451-.967-2.58-2.257-2.902-1.29-.323.967-.968 3.386-2.257 3.87-1.29.483-10.802 3.063-11.77 4.03-.967.967-5.158 1.612-5.158 2.418s-.484 3.224.161 2.74c.645-.483 11.124-5.803 12.414-6.125 1.29-.323 5.965-1.613 6.77-2.419.807-.806 2.742-3.224 2.742-3.224z" id="path5207"/>
      <path style="fill:#803d00;fill-opacity:1;stroke:none;stroke-width:0.30238095px;stroke-linecap:butt;stroke-linejoin:miter;stroke-opacity:1" d="M70.161 124.37c-1.128 1.29-7.255 4.837-8.867 5.482-1.612.645-8.06 1.29-8.222.645-.161-.645 7.9-1.773 9.673-3.224 1.773-1.451 9.35-6.933 9.35-5.482 0 1.451-1.934 2.58-1.934 2.58z" id="path5209"/>
      <path style="fill:#803d00;fill-opacity:1;stroke:none;stroke-width:0.30238095px;stroke-linecap:butt;stroke-linejoin:miter;stroke-opacity:1" d="M48.72 124.854c1.934 1.129 5.803 1.451 8.544.807 2.74-.645 10.156-2.741 10.156-3.386v-2.418s-8.544 3.869-10.156 4.03c-1.612.161-6.933-.483-7.416-1.29-.484-.806-1.29-3.224-1.29-1.773 0 1.451.161 4.03.161 4.03z" id="path5211"/>
      <path style="fill:#803d00;fill-opacity:1;stroke:none;stroke-width:0.30238095px;stroke-linecap:butt;stroke-linejoin:miter;stroke-opacity:1" d="M81.285 102.284c1.451 1.128 4.03 4.353 4.03 5.643s-2.74-1.935-3.869-1.935c-1.128 0-11.607 3.87-14.026 4.998-2.418 1.128-16.444-.323-16.766-.968-.323-.644.483-2.74.483-2.74s11.77 2.418 13.06 2.096c1.289-.323 17.088-7.094 17.088-7.094z" id="path5213"/>
      <path style="fill:#803d00;fill-opacity:1;stroke:none;stroke-width:0.30238095px;stroke-linecap:butt;stroke-linejoin:miter;stroke-opacity:1" d="M61.778 94.707c1.45-1.935 1.128-2.902 2.58-2.257 1.45.645 10.156 6.287 11.446 6.77 1.29.484.967 1.774 1.612 2.42.645.644-3.224 2.417-3.224 2.417s.644-1.934-.162-3.063c-.806-1.128-12.252-6.287-12.252-6.287z" id="path5215"/>
      <path style="fill:#803d00;fill-opacity:1;stroke:none;stroke-width:0.30238095px;stroke-linecap:butt;stroke-linejoin:miter;stroke-opacity:1" d="M55.007 96.964c1.29-.645 16.766 3.547 16.121 5.32-.644 1.773-2.257-1.129-5.642-.645-3.386.484-11.77 3.224-11.77 1.612s1.29-6.287 1.29-6.287z" id="path5217"/>
      <path style="fill:#803d00;fill-opacity:1;stroke:none;stroke-width:0.30238095px;stroke-linecap:butt;stroke-linejoin:miter;stroke-opacity:1" d="M50.815 116.794c.806-.807 8.06-.484 12.091-1.774 4.03-1.29 8.867-4.675 10.318-5.159 1.451-.483 4.998 0 3.87.645-1.129.645-16.606 9.996-19.024 10.64-2.418.645-7.416.484-7.577-.806-.162-1.29.322-3.546.322-3.546z" id="path5219"/>
      <path style="fill:#803d00;fill-opacity:1;stroke:none;stroke-width:0.30238095px;stroke-linecap:butt;stroke-linejoin:miter;stroke-opacity:1" d="M100.631 126.144c-.322 2.096-10.318 2.902-13.864 5.965-3.547 3.063-18.218 11.286-20.475 11.77-2.257.483-2.58 1.45-.967 1.45 1.612 0 17.734-7.255 21.442-9.19 3.708-1.934 8.383-5.158 9.995-4.675 1.612.484.967 1.774 2.096 1.129 1.128-.645 4.192-6.126 3.87-6.771-.323-.645-1.613.161-1.613.161z" id="path5221"/>
      <path style="fill:#803d00;fill-opacity:1;stroke:none;stroke-width:0.30238095px;stroke-linecap:butt;stroke-linejoin:miter;stroke-opacity:1" d="M87.25 141.782c-1.773.484-9.512 5.32-12.736 5.804s-7.9.323-6.61 1.129 8.706.967 10.157.645c1.45-.323 15.154-9.351 13.058-8.867-2.095.483-3.869 1.29-3.869 1.29z" id="path5223"/>
      <path style="fill:#803d00;fill-opacity:1;stroke:none;stroke-width:0.30238095px;stroke-linecap:butt;stroke-linejoin:miter;stroke-opacity:1" d="M106.435 103.09c0-2.74 3.87-13.865 4.353-15.96.484-2.096-.645-13.382-2.257-15.155-1.612-1.773-9.996-4.353-11.446-5.965-1.451-1.612-1.613-4.837-2.902-6.126-1.29-1.29 1.612-3.386 1.934-2.096.323 1.29 1.612 4.998 2.58 6.126.967 1.129 11.124 5.482 12.252 6.932 1.129 1.451 4.192 16.606 4.03 18.38-.16 1.773-3.224 13.22-2.418 15.315.807 2.096 3.708 14.026 1.613 10.64-2.096-3.385-4.353-11.607-5.16-9.834-.805 1.774.807 3.547.968 5.16.161 1.611-.484 4.674-1.129 2.417-.644-2.257-2.418-9.834-2.418-9.834z" id="path5227"/>
      <path style="fill:#803d00;fill-opacity:1;stroke:none;stroke-width:0.30238095px;stroke-linecap:butt;stroke-linejoin:miter;stroke-opacity:1" d="M103.63 108.237c.322 1.935 2.312 4.293 3.763 6.711 1.45 2.418 5.159 3.708 4.353 1.935-.806-1.774-.968-3.225.161-1.29s3.386 2.74 4.03 3.224c.645.484 2.096 4.353 1.29 4.353s-5.32-4.675-4.836-3.224c.483 1.45 1.29 2.902-.484 2.418-1.773-.484-8.867-8.06-9.028-8.867-.161-.806.75-5.26.75-5.26z" id="path5229"/>
      <path style="fill:#803d00;fill-opacity:1;stroke:none;stroke-width:0.30238095px;stroke-linecap:butt;stroke-linejoin:miter;stroke-opacity:1" d="M104.361 106.237l.987-3.452s2.86 9.766 2.367 10.062c-.493.296-3.354-6.61-3.354-6.61z" id="path5231"/>
      <path style="fill:#803d00;fill-opacity:1;stroke:none;stroke-width:0.30238095px;stroke-linecap:butt;stroke-linejoin:miter;stroke-opacity:1" d="M103.989 119.027s5.776 6.594 6.944 6.155c1.168-.439 5.195-.985 5.831.175.636 1.161 1.287 2.716 1.287 2.716s-3.816-1.732-4.984-1.293c-1.169.439-4.24.16-4.75-.315-.512-.474-3.073-2.945-3.073-2.945z" id="path5233"/>
      <path style="fill:#803d00;fill-opacity:1;stroke:none;stroke-width:0.30238095px;stroke-linecap:butt;stroke-linejoin:miter;stroke-opacity:1" d="M109.984 129.025c.987.197 2.565-.79 3.749-.395 1.184.395 2.762 1.283 3.65 1.085.888-.197 1.085-.197 1.085-.197s.79 3.157.098 2.762c-.69-.394-2.86-2.269-4.241-2.269-1.381 0-5.82.987-5.327.592.493-.394.986-1.578.986-1.578z" id="path5235"/>
      <path style="fill:#803d00;fill-opacity:1;stroke:none;stroke-width:0.30238095px;stroke-linecap:butt;stroke-linejoin:miter;stroke-opacity:1" d="M110.542 129.31c1.286.02 1.935 1.567 3.56 2.213 1.624.645 3.725-.646 4.367-.091.642.555.787 4.333.43 3.903-.356-.429-.987-2.171-1.87-2.253-.885-.082-4.581-.82-5.33-1.287-.75-.465-1.157-2.484-1.157-2.484z" id="path5237"/>
      <path style="fill:#803d00;fill-opacity:1;stroke:none;stroke-width:0.30238095px;stroke-linecap:butt;stroke-linejoin:miter;stroke-opacity:1" d="M112.352 135.042c1.677.888 2.762 0 4.044.493a11.725 11.725 0 012.368 1.283l.493 2.466s-2.663-2.269-3.354-2.269c-.69 0-2.86-.296-3.354-.592-.493-.296-.197-1.38-.197-1.38z" id="path5239"/>
      <path style="fill:url(#linearGradient5530);fill-opacity:1;stroke:none;stroke-width:0.25441635px;stroke-linecap:butt;stroke-linejoin:miter;stroke-opacity:1" d="M113.59 46.863s-8.344 4.105-8.344 7.33c0 3.225 5.057 18.373 5.057 23.358 0 4.984-4.691 21.696-5.57 24.628-.032.1-5.47 24.87-1.466 13.195l-.564 5.322.884-2.399 3.291 11.219c3.08 5.187 6.807 13.206 11.206 14.626 2.408 2.408-1.075-18.479-1.591-23.122-.516-4.644.172-17.027 1.376-19.262 1.204-2.236 8.942-13.759 12.382-20.466 1.93-3.765 1.531-12.35.81-19.16-3.016-3.915-11.63-11.552-17.47-15.269z" id="rightHidhtRaw1-5"/>
      <path style="fill:#803d00;fill-opacity:1;stroke:none;stroke-width:0.30238095px;stroke-linecap:butt;stroke-linejoin:miter;stroke-opacity:1" d="M99.43 57.327c.42 2.235.978 4.33 2.934 5.168 1.956.839 10.617 4.89 11.455 7.125.838 2.235 3.632 11.873 4.05 10.616.42-1.257-2.793-12.712-3.77-13.83-.979-1.117-10.478-4.609-10.617-6.006-.14-1.397-.14-4.61-1.258-4.19-1.117.418-2.793 1.117-2.793 1.117z" id="path5241"/>
      <path style="fill:#803d00;fill-opacity:1;stroke:none;stroke-width:0.30238095px;stroke-linecap:butt;stroke-linejoin:miter;stroke-opacity:1" d="M106.275 53.517c1.67 2.041 14.284 9.647 15.769 12.43 1.484 2.782 3.153 17.437 1.298 20.035-1.855 2.597-7.791 9.646-8.533 13.913-.742 4.267 0 7.977 0 7.977s.927-7.792 2.04-9.461c1.113-1.67 8.905-12.058 9.461-14.099.557-2.04.186-18.922-1.298-20.406-1.484-1.484-15.398-13.357-16.14-12.986-.742.371-2.597 2.597-2.597 2.597z" id="path5243"/>
      <path style="fill:#803d00;fill-opacity:1;stroke:none;stroke-width:0.30238095px;stroke-linecap:butt;stroke-linejoin:miter;stroke-opacity:1" d="M115.58 41.052c-.395 2.375-1.78 4.552.397 5.344 2.177.791 14.25 9.5 16.03 12.468 1.782 2.97 7.324 4.355 7.324 4.355v-1.98s-2.771-.791-3.959-1.583c-1.187-.792-4.156-5.74-6.333-7.52-2.177-1.782-10.885-7.72-11.677-9.105-.792-1.385-1.781-1.98-1.781-1.98z" id="path5255"/>
      <path style="fill:#803d00;fill-opacity:1;stroke:none;stroke-width:0.30238095px;stroke-linecap:butt;stroke-linejoin:miter;stroke-opacity:1" d="M137.945 46.198s1.188 2.968 0 2.177c-1.187-.792-1.385-3.365-2.968-3.365-1.584 0-14.646-5.344-15.438-6.333-.792-.99-2.77-4.552-2.77-4.552l1.187-4.552s.396 5.145 1.78 6.927c1.386 1.781 17.022 6.729 17.22 7.916.198 1.188.99 1.782.99 1.782z" id="path5257"/>
      <path style="fill:#803d00;fill-opacity:1;stroke:none;stroke-width:0.30238095px;stroke-linecap:butt;stroke-linejoin:miter;stroke-opacity:1" d="M146.503 20.309c-.67-.122-.365-1.582-.791-1.887-.426-.304-2.677-2.129-2.677-2.129l-.974-.548s3.286 2.617 3.225 3.042c-.06.426-.426 1.156.06 1.4.488.243 1.157.122 1.157.122z" id="path5355"/>
      <path style="fill:#803d00;fill-opacity:1;stroke:none;stroke-width:0.30238095px;stroke-linecap:butt;stroke-linejoin:miter;stroke-opacity:1" d="M119.819 27.543c-.13 1.814-.778 4.925.778 6.35 1.555 1.426 3.11 3.888 3.629 3.5.518-.39-1.815-3.24-2.333-5.055-.519-1.815-.39-9.072-1.296-8.424-.908.648-.778 3.629-.778 3.629z" id="path5259"/>
      <path style="fill:#803d00;fill-opacity:1;stroke:none;stroke-width:0.30238095px;stroke-linecap:butt;stroke-linejoin:miter;stroke-opacity:1" d="M145.408 21.094s-5.921-.14-7.732.766c-1.812.906-3.135 4.528-4.877 5.225-1.741.696-3.831 2.09-4.25 3.204-.417 1.115 1.046 3.414 1.533 3.901.488.488 1.672 1.533 1.672.836 0-.696-2.299-3.344-2.02-4.25.279-.905 4.807-2.716 5.225-3.273.418-.558 2.717-3.623 3.413-3.692.306-.03 3.318-2.426 5.996-.982 1.14.615 3.13 1.229 3.797 1.158 1.922-.206.148-1.236.148-1.236l-4.368-.89z" id="path5261"/>
      <path style="fill:#803d00;fill-opacity:1;stroke:none;stroke-width:0.30238095px;stroke-linecap:butt;stroke-linejoin:miter;stroke-opacity:1" d="M147.355 19.822c0-.73.243-1.339-.67-1.643-.912-.304-4.259-2.738-5.232-2.92-.973-.183-3.136-1.194-3.136-1.194l.787-.154s3.688 1.226 4.053 1.409c.365.182 4.258 2.433 4.563 2.798.304.365.912.609.73 1.035-.183.425-1.095.669-1.095.669z" id="path5353"/>
      <path style="fill:#803d00;fill-opacity:1;stroke:none;stroke-width:0.25441638px;stroke-linecap:butt;stroke-linejoin:miter;stroke-opacity:1" d="M48.523 138.29c-.403 3.017-1.354 5.134-3.998 6.697.025 2.377-.782 5.96.43 9.565 1.064 1.96 2.255 2.591 3.358 3.928l3.352-.07c-.203-.533-1.53-4-2.148-5.028-.667-1.112.779-10.894 0-13.118-.323-.923-.681-1.547-.994-1.975zm-9.102 8.263c-1.685.309-3.746.612-6.055.909-.298 2.032-1.223 3.822-.413 6.254 1.776 3.487 2.31 3.67 3.956 4.986l6.78-.06c-3.218-2.744-3.692-3.834-4.844-6.483-.5-2.112.116-3.579.576-5.606zm-13.412 1.75c-2.313.242-4.701.479-7.158.706-.518 1.62-1.315 2.86-1.24 5.374.245 2.414 1.484 3.34 2.38 4.697l9.155-.194c-1.613-1.572-4.086-4.221-4.086-5.726 0-1.349.53-3.425.949-4.857zm-14.096 1.32c-1.761.152-3.466.295-5.17.436-1.046 1.663-2.11 2.272-2.245 5.213.569 2.348 1.17 3.003 1.945 4.095l7.092-.15c-1.284-1.341-3.15-3.557-3.15-5.168 0-1.385.817-3.145 1.528-4.426zm-10.206.857c-1.89.155-3.728.306-5.383.444l-.168.123c-2.001 1.445-2.112 5.003-1.779 6.004.18.537.268 1.61 1.33 2.557l5.04-.12a5.48 5.48 0 01-.256-.325c-.889-1.223-1.64-3.713-1.223-5.67.605-1.112 1.38-1.927 2.439-3.013zm-8.821.614c-2.646.246-6.555.761-6.997.91-2.632.88-5.618 6.258-5.618 6.258l3.124-1.58-3.167 3.24 11.08-.189c-1.548-3.617-2.229-5.555 1.578-8.64z" id="tail-5"/>
    </g>
    <g transform="translate(-.184 .045)" style="opacity:0;fill:#8f4200;fill-opacity:1;stroke:none" id="tabby-color">
      <path id="tail-3-4" d="M20.324 148.982c-15.18 1.923-33.419 2.754-34.32 3.055-2.632.881-5.618 6.259-5.618 6.259l3.124-1.58-3.167 3.24 41.15-1.479-3.56-.372-1.534-1.144s-.244-1 3.168-3.1c1.6-.986-.185-3.436.757-4.88z" style="fill:url(#linearGradient5629-4);fill-opacity:1;stroke:none;stroke-width:0.25441638px;stroke-linecap:butt;stroke-linejoin:miter;stroke-opacity:1"/>
      <path id="tail-6-0" d="M45.787 144.2c-.53.421-1.147.807-1.873 1.16-5.726 2.792-50.657 5.429-57.114 6.432-1.297 1.413-3.21 3.623-1.894 3.025 1.892-.86 3.095-.687 3.095-.687l-2.923 3.44s1.204-.173 3.096-.345c.365-.033.82-.06 3.326-.088.259-.003 3.812-.824 1.45-.009-.856.296-2.444.601-.327.548.345-.01 1.808-.063 2.555-.427 1.581-.772 2.958.262 5.148-.187 1.484-.304 2.901-1.763 2.57-1.265-1.009 1.514-3.52 2.111-1.022 1.634.635-.121.818-.214 1.332-.329 4.96-.588 10.098-.988 12.67-1.675 2.878-.766-1.708.906-1.413.905 7.573-.007 17.536.175 20.489-.14 8.083-.86 10.835-2.235 10.835-2.235z" style="fill:url(#linearGradient7518);fill-opacity:1;stroke:none;stroke-width:0.25441638px;stroke-linecap:butt;stroke-linejoin:miter;stroke-opacity:1"/>
      <path style="fill:url(#linearGradient6491);fill-opacity:1;stroke:none;stroke-width:0.25441635px;stroke-linecap:butt;stroke-linejoin:miter;stroke-opacity:1" d="M114.284 93.048c-1.982.01-4.088 1.262-6.592 3.573-.61.563-1.148 1.246-1.628 2.008-.451 1.63-.832 2.966-1.02 3.59-.031.1-5.47 24.87-1.466 13.195l-.564 5.322.884-2.399 11.701 39.884 12.315.293s-.282-3.202-2.334-5.548c-2.052-2.345-4.703-2.369-4.703-2.369s-3.225-39.289-3.225-41.634c0-1.38 1.026-3.483 3.413-7.238-2.006-4.514-3.525-7.543-4.129-7.905-.875-.526-1.75-.777-2.652-.772z" id="rightHidhtRaw1-12"/>
      <path style="fill:url(#linearGradient6471);fill-opacity:1;stroke:none;stroke-width:0.25441635px;stroke-linecap:butt;stroke-linejoin:miter;stroke-opacity:1" d="M133.831 12.643c-6.178.602-11.836 5.676-13.311 8.626-1.551 3.103-3.723 11.17-6.205 19.858 0 0-.62 3.723-1.241 4.964-.62 1.241-4.034 3.103-5.585 4.033-1.551.931-2.483 3.413-4.344 4.344-1.862.93-7.756 2.172-11.79 2.482C76.584 58.687 69.28 68.43 62.5 80.22c-3.102 3.723-8.396 10.904-12.41 26.683-4.2 16.513-2.834 28.64-.31 37.542.579 2.042-.295 6.445.752 8.303.22.036 3.07-1.574 2.771-.48-2.185 8.026.975.31 1.215.877.996 2.353 4.212 6.458 1.985.367-.335-.917 1.665-8.051 1.29-6.733-1.109 3.899 1.543 7.163 2.861 7.808 4.123 2.016 3.016 3.022.746-4.306.357-22.61 18.872-10.747 29.25-18.862.974.163 1.937.22 2.864.183 2.144-2.618 4.573-5.59 7.375-9.029-.594-4.679-1.69-8.995-8.97-12.075-8.242-3.487-18.386-5.39-15.85-9.828 2.536-4.438 11.412-9.193 19.337-10.46 7.925-1.269 25.043-14.582 28.847-21.24 3.804-6.656-.317-44.697 1.902-47.867 2.121-3.03 3.67-5.481 7.676-8.46z" id="body-58"/>
      <path id="tail-5-1" d="M48.523 138.29c-.403 3.017-1.354 5.134-3.998 6.697.025 2.377-.782 5.96.43 9.565 1.064 1.96 2.255 2.591 3.358 3.928l3.352-.07c-.203-.533-1.53-4-2.148-5.028-.667-1.112.779-10.894 0-13.118-.323-.923-.681-1.547-.994-1.975zm-9.102 8.263c-1.685.309-3.746.612-6.055.909-.298 2.032-1.223 3.822-.413 6.254 1.776 3.487 2.31 3.67 3.956 4.986l6.78-.06c-3.218-2.744-3.692-3.834-4.844-6.483-.5-2.112.116-3.579.576-5.606zm-13.412 1.75c-2.313.242-4.701.479-7.158.706-.518 1.62-1.315 2.86-1.24 5.374.245 2.414 1.484 3.34 2.38 4.697l9.155-.194c-1.613-1.572-4.086-4.221-4.086-5.726 0-1.349.53-3.425.949-4.857zm-14.096 1.32c-1.761.152-3.466.295-5.17.436-1.046 1.663-2.11 2.272-2.245 5.213.569 2.348 1.17 3.003 1.945 4.095l7.092-.15c-1.284-1.341-3.15-3.557-3.15-5.168 0-1.385.817-3.145 1.528-4.426zm-10.206.857c-1.89.155-3.728.306-5.383.444l-.168.123c-2.001 1.445-2.112 5.003-1.779 6.004.18.537.268 1.61 1.33 2.557l5.04-.12a5.48 5.48 0 01-.256-.325c-.889-1.223-1.64-3.713-1.223-5.67.605-1.112 1.38-1.927 2.439-3.013zm-8.821.614c-2.646.246-6.555.761-6.997.91-2.632.88-5.618 6.258-5.618 6.258l3.124-1.58-3.167 3.24 11.08-.189c-1.548-3.617-2.229-5.555 1.578-8.64z" style="fill:url(#linearGradient6439);fill-opacity:1;stroke:none;stroke-width:0.25441638px;stroke-linecap:butt;stroke-linejoin:miter;stroke-opacity:1"/>
      <g id="g6419" style="fill:url(#linearGradient7460);fill-opacity:1">
        <path id="rightHidhtRaw1-1" d="M102.954 111.211c.19.702.33 1.396.297 1.83-.09 1.174.541 3.61 1.534 3.972.993.361 3.791-.18 5.145 0 3.118 2.532 4.604 1.896 4.604 1.896s-1.625-2.437-2.98-3.16c-1.353-.721-4.603-.902-5.144-1.263-2.641-6.894-2.625-7.075-3.456-3.275zm.929 6.615l-.134.835.533 1.818c.138-.021.276-.036.413-.036.903 0 2.527 1.31 3.61 1.31 1.084 0 4.423-1.4 5.506-1.4 1.084 0 2.708.632 2.708.632s-.175-2.628-1.53-2.989c-4.55.733-6.428 2.15-11.106-.17zm-1.04 2.79l-.046.025-.015.138zm2.564 3.657l1.392 4.786c1.423.346 3.076.752 4.124.862 1.715.18 4.965-.271 5.867-.813.903-.541 1.896-2.798 1.535-2.617-.361.18-5.005.89-6.268.62-2.796-1.01-4.918-.913-6.65-2.838z" style="fill:url(#linearGradient7935);fill-opacity:1;stroke:none;stroke-width:0.25441635px;stroke-linecap:butt;stroke-linejoin:miter;stroke-opacity:1"/>
        <path id="path6157" d="M106.658 111.238c.955 1.91 2.204 2.058 3.82 2.498 1.617.441 5.952 1.03 6.32.588.367-.44.955-1.984.367-1.69-.588.294-5.437.294-6.833-.294-1.396-.587-4.409-3.673-4.409-3.012s.735 1.91.735 1.91z" style="fill:url(#linearGradient7937);fill-opacity:1;stroke:none;stroke-width:0.30238095px;stroke-linecap:butt;stroke-linejoin:miter;stroke-opacity:1"/>
        <path id="path6159" d="M113.05 115.353a7.314 7.314 0 003.527.367c.588-.073.882 1.837.882 2.278 0 .44-3.38-1.47-3.968-1.837-.587-.367-.44-.808-.44-.808z" style="fill:url(#linearGradient7939);fill-opacity:1;stroke:none;stroke-width:0.30238095px;stroke-linecap:butt;stroke-linejoin:miter;stroke-opacity:1"/>
        <path id="path6161" d="M117.092 123.509c-1.029-.294-1.47-.662-3.454-.515-1.984.147-2.571.882-3.82.882-1.25 0-2.278-.367-2.278-.367s.294.881.808 1.249c.514.367 3.82.294 5.143.367 1.323.074 3.968.441 4.042.294.073-.147-.441-1.91-.441-1.91z" style="fill:url(#linearGradient7941);fill-opacity:1;stroke:none;stroke-width:0.30238095px;stroke-linecap:butt;stroke-linejoin:miter;stroke-opacity:1"/>
        <path id="path6163" d="M109.524 133.134c1.396.368 3.16 1.102 4.408.882 1.25-.22 4.115-1.25 4.115-1.25s-1.029 1.397-2.645 2.279c-1.617.881-4.041.367-4.776-.22-.735-.589-1.102-1.69-1.102-1.69z" style="fill:url(#linearGradient7943);fill-opacity:1;stroke:none;stroke-width:0.30238095px;stroke-linecap:butt;stroke-linejoin:miter;stroke-opacity:1"/>
        <path id="path6165" d="M113.565 136.734c1.249.074 2.718 0 3.453-.808.735-.808 1.91-1.616 1.91-1.616s-1.322 2.645-1.69 3.16c-.367.514-2.718.22-3.232-.074-.515-.294-.441-.662-.441-.662z" style="fill:url(#linearGradient7945);fill-opacity:1;stroke:none;stroke-width:0.30238095px;stroke-linecap:butt;stroke-linejoin:miter;stroke-opacity:1"/>
        <path id="path6167" d="M111.287 137.837c2.425.881 4.996.808 5.731.44.735-.367-.367 1.69-1.396 1.837-1.028.147-3.38-.587-3.968-1.028-.587-.441-.367-1.25-.367-1.25z" style="fill:url(#linearGradient7947);fill-opacity:1;stroke:none;stroke-width:0.30238095px;stroke-linecap:butt;stroke-linejoin:miter;stroke-opacity:1"/>
        <path id="path6169" d="M118.267 137.763c-.367 1.47-1.175 2.498-1.69 2.792-.514.294-2.718-.147-2.718-.147s1.322 1.029 2.057 1.029c.735 0 2.057-1.029 2.498-1.396.441-.368.588-3.6.368-3.16-.22.441-.515.882-.515.882z" style="fill:url(#linearGradient7949);fill-opacity:1;stroke:none;stroke-width:0.30238095px;stroke-linecap:butt;stroke-linejoin:miter;stroke-opacity:1"/>
        <path id="path6171" d="M107.393 100.07c1.029 1.69 2.204 3.894 4.188 4.629 1.984.735 5.878.367 5.952 0 .073-.368-4.042-.441-5.217-1.029-1.176-.588-3.674-10.874-3.821-10.066-.147.808-1.102 6.466-1.102 6.466z" style="fill:url(#linearGradient7951);fill-opacity:1;stroke:none;stroke-width:0.30238095px;stroke-linecap:butt;stroke-linejoin:miter;stroke-opacity:1"/>
      </g>
      <g id="g6394" style="fill:url(#linearGradient7446);fill-opacity:1">
        <path id="path5201-0" d="M99.09 116.1c0 1.611-3.709 6.125-4.998 5.642-1.29-.484-14.349 3.708-15.638 4.675-1.29.967-15.8 14.67-18.702 15.477-2.902.806-8.544-1.128-8.544-1.128s-.141.595.843 1.177c2.301 1.36 7.152 3.37 8.507 2.692 1.935-.968 19.83-15.316 23.538-17.25 3.708-1.935 10.64-1.935 12.898-3.225 2.257-1.29 4.514-4.514 4.352-5.32-.16-.806-1.612-2.58-1.612-2.58z" style="fill:url(#linearGradient7953);fill-opacity:1;stroke:none;stroke-width:0.30238095px;stroke-linecap:butt;stroke-linejoin:miter;stroke-opacity:1"/>
        <path id="path5203-2" d="M94.092 111.585c1.934.806 3.063 2.096 3.063 2.74 0 .646-1.129-.322-2.096.162-.967.484-2.58 3.063-4.514 4.192-1.935 1.128-10.157 2.74-11.77 3.708-1.611.967-.483-1.774.162-1.935.645-.161 9.028-2.74 10.48-3.708 1.45-.967 4.675-5.159 4.675-5.159z" style="fill:url(#linearGradient7955);fill-opacity:1;stroke:none;stroke-width:0.30238095px;stroke-linecap:butt;stroke-linejoin:miter;stroke-opacity:1"/>
        <path id="path5205-5" d="M76.841 122.387c-.322 1.612-1.29 2.74-2.257 3.869-.967 1.128-11.93 8.383-14.348 8.383-2.418 0-8.706.645-9.35 0-.646-.645 8.705-.483 9.834-1.45 1.128-.968 10.479-5.482 11.607-7.417 1.129-1.934 5.32-5.965 5.32-5.32 0 .645-.806 1.935-.806 1.935z" style="fill:url(#linearGradient7957);fill-opacity:1;stroke:none;stroke-width:0.30238095px;stroke-linecap:butt;stroke-linejoin:miter;stroke-opacity:1"/>
        <path id="path5209-8" d="M70.393 124.482c-1.129 1.29-7.255 4.837-8.867 5.482-1.613.645-8.061 1.29-8.222.645-.162-.645 7.9-1.774 9.673-3.225 1.773-1.45 9.35-6.932 9.35-5.481 0 1.451-1.934 2.58-1.934 2.58z" style="fill:url(#linearGradient7959);fill-opacity:1;stroke:none;stroke-width:0.30238095px;stroke-linecap:butt;stroke-linejoin:miter;stroke-opacity:1"/>
        <path id="path5221-7" d="M100.863 126.256c-.323 2.096-10.318 2.902-13.865 5.965-3.547 3.063-18.218 11.285-20.475 11.769-2.257.484-2.58 1.45-.967 1.45 1.612 0 17.734-7.254 21.442-9.189 3.708-1.934 8.383-5.159 9.996-4.675 1.612.484.967 1.773 2.095 1.129 1.129-.645 4.192-6.127 3.87-6.772-.323-.644-1.613.162-1.613.162z" style="fill:url(#linearGradient7961);fill-opacity:1;stroke:none;stroke-width:0.30238095px;stroke-linecap:butt;stroke-linejoin:miter;stroke-opacity:1"/>
        <path id="path5223-3" d="M87.482 141.894c-1.774.484-9.512 5.32-12.737 5.804-3.224.484-7.9.322-6.61 1.128 1.29.807 8.706.968 10.157.645 1.451-.322 15.155-9.35 13.059-8.867-2.096.484-3.87 1.29-3.87 1.29z" style="fill:url(#linearGradient7963);fill-opacity:1;stroke:none;stroke-width:0.30238095px;stroke-linecap:butt;stroke-linejoin:miter;stroke-opacity:1"/>
        <path id="path6376" d="M90.226 110.915c-1.074 2.267-4.892 4.057-6.92 4.892-2.03.836-7.518 3.58-8.473 4.177-.954.596-2.267 1.074-1.79.238.478-.835 12.052-6.324 13.006-7.517.955-1.193 1.194-3.699 2.148-3.34.955.357 2.029 1.55 2.029 1.55z" style="fill:url(#linearGradient7965);fill-opacity:1;stroke:none;stroke-width:0.30238095px;stroke-linecap:butt;stroke-linejoin:miter;stroke-opacity:1"/>
        <path id="path6378" d="M82.59 107.932c1.192.12 2.386-.119 2.386.478 0 .596-6.92 7.04-8.114 7.755-1.193.716-6.92 3.222-9.307 4.654-3.34 3.937-17.54 5.846-17.42 5.13.119-.715 6.323.836 23.983-9.903 2.505-1.312 8.471-8.114 8.471-8.114z" style="fill:url(#linearGradient7967);fill-opacity:1;stroke:none;stroke-width:0.30238095px;stroke-linecap:butt;stroke-linejoin:miter;stroke-opacity:1"/>
        <path id="path6380" d="M75.669 106.978c2.744.12 3.937-.597 3.937 0 0 .596-10.5 8.59-11.335 9.187-.835.597-12.29 4.773-11.574 3.7.716-1.075 4.534-.478 16.943-9.308 1.074-.835 2.029-3.58 2.029-3.58z" style="fill:url(#linearGradient7969);fill-opacity:1;stroke:none;stroke-width:0.30238095px;stroke-linecap:butt;stroke-linejoin:miter;stroke-opacity:1"/>
        <path id="path6382" d="M70.191 106.5c1.706.333 3.568-.332 1.862.833-1.707 1.164-9.617 2.745-8.531 1.996 1.085-.749 6.67-2.828 6.67-2.828z" style="fill:url(#linearGradient7971);fill-opacity:1;stroke:none;stroke-width:0.28787333px;stroke-linecap:butt;stroke-linejoin:miter;stroke-opacity:1"/>
      </g>
      <path style="fill:url(#linearGradient6517);fill-opacity:1;stroke:none;stroke-width:0.25441635px;stroke-linecap:butt;stroke-linejoin:miter;stroke-opacity:1" d="M60.563 145.256v5.042l-1.681-2.52c-.28-.421-.47-.74-.627-1.02a7282.561 7282.561 0 01-7.452 9.687s3.32-1.659 2.608-.71c-.71.948-.948 3.793-.948 3.793l2.134-1.66.948 1.66 46.237-.474s-4.505-6.876-5.928-7.35c-1.423-.475-16.835.236-16.835.236s1.246-.976 1.793-1.407c-11.35 2.884-15.167.562-16.328.046-2.52-1.12-3.921-5.323-3.921-5.323z" id="rightHightRaw2-5"/>
      <path style="fill:url(#linearGradient7510);fill-opacity:1;stroke:none;stroke-width:0.30238095px;stroke-linecap:butt;stroke-linejoin:miter;stroke-opacity:1" d="M106.742 51.515c5.06-3.449 5.432-3.208 6.912-3.63 1.48-.424 12.053 15.012 14.168 19.664 2.114 4.653 3.172 10.996 3.172 12.476 0 1.48-10.362 19.666-13.745 21.146-3.383 1.48-5.92-11.419-5.92-14.38 0-2.96.845-6.766.422-10.36-.423-3.595-7.4-13.745-7.824-15.014-.423-1.268-.394-4.768 2.815-9.902z" id="path7162"/>
      <path id="path7263" d="M138.95 12.94c-8.003-1.534-11.66 2.305-14.503 7.715-.665 1.665-.568 2.452-.036 3.932 1 2.782.51 3.046 1.104 4.227.859-1.682.357.43 3.275 2.281 1.275 1.02 9.348.34 11.727-.255 2.38-.595 7.138-5.013 7.138-5.013l-4.588-3.57 2.825-2.161s1.372.297.768 2.337c-.223.751 2.54 1.223 2.44 2.544.765 0 5.014 1.02 4.419.424-.595-.594-3.994-1.614-4.76-2.294-.764-.68-5.658-6.551-1.984-4.878.808.369.849 2.216 1.272 2.095.61-.175 1.283-.485.926-1.379-.093-.23.624.436.758.238a9.096 9.096 0 00-.486-.853c-2.49-1.855-6.096-4.308-10.295-5.39z" style="fill:url(#linearGradient7496);fill-opacity:1;stroke:none;stroke-width:0.25441635px;stroke-linecap:butt;stroke-linejoin:miter;stroke-opacity:1"/>
      <g id="g7331" style="fill:url(#linearGradient7349);fill-opacity:1">
        <path id="path5351-5" d="M143.773 22.87c.529.122 1.653 1.338 2.38 1.643.727.304 3.108.425 3.108.425s-1.72 2.252-2.38 2.738c-.662.487-7.076 2.251-8.596 2.251-1.521 0-7.538-.73-7.538-.73l2.446-1.095s3.967.974 6.414.548c2.447-.426 5.62-2.373 5.62-2.373s-.595-.913-1.19-1.46c-.595-.548-.264-1.947-.264-1.947z" style="opacity:1;fill:url(#linearGradient7973);fill-opacity:1;stroke:none;stroke-width:0.31523022px;stroke-linecap:butt;stroke-linejoin:miter;stroke-opacity:1"/>
        <path style="fill:url(#linearGradient7975);fill-opacity:1;stroke:none;stroke-width:0.30238095px;stroke-linecap:butt;stroke-linejoin:miter;stroke-opacity:1" d="M145.642 21.23s-5.92-.14-7.732.766c-1.811.905-3.135 4.528-4.876 5.224-1.742.697-3.832 2.09-4.25 3.205-.418 1.114 1.045 3.413 1.533 3.9.487.489 1.672 1.533 1.672.837 0-.697-2.3-3.344-2.02-4.25.278-.905 4.806-2.716 5.224-3.274.418-.557 2.717-3.622 3.414-3.692.305-.03 3.318-2.426 5.995-.981 1.14.614 3.131 1.229 3.798 1.157 1.922-.205.148-1.235.148-1.235l-4.368-.891z" id="path7261"/>
      </g>
      <path style="fill:#803d00;fill-opacity:1;stroke:none;stroke-width:0.30238095px;stroke-linecap:butt;stroke-linejoin:miter;stroke-opacity:1" d="M146.289 19.725c-.608-.418-1.101-1.595-.987-1.898.114-.304 1.215-.228 1.367-.038.152.19.645 1.594.873 1.86.228.266.683.722.57-.19-.114-.911.113-1.632-1.102-2.202-1.215-.57-1.215-.722-2.506-1.595-1.29-.873-3.265-1.405-3.721-1.519-.456-.114-1.785-.114-1.177.114.607.228 4.898 2.127 5.05 2.582.152.456-.19.988.228 1.709.418.721.721 1.291 1.025 1.367.304.076.38-.19.38-.19z" id="path7319"/>
      <path style="fill:#803d00;fill-opacity:1;stroke:none;stroke-width:0.30238095px;stroke-linecap:butt;stroke-linejoin:miter;stroke-opacity:1" d="M155.95 27.353c-.294-.162-.348-.698-.939-1.02-.59-.323-1.261-.51-1.154-.618.108-.107.215-.241.725-.322.51-.08 1.503.456 1.503.456z" id="path7351"/>
      <path style="opacity:1;fill:url(#linearGradient5660-4);fill-opacity:1;stroke:none;stroke-width:0.25441635px;stroke-linecap:butt;stroke-linejoin:miter;stroke-opacity:1" d="M151.747 26.335c-1.381 0-4.145.691-4.145 2.879s1.151 2.072 0 2.878c-1.152.807-4.492 1.383-7.37 3.34-2.88 1.958-5.067 3.11-6.795 5.988-1.727 2.88-2.763 8.637-2.763 8.637l1.957-3.455s-1.497 2.88-1.497 5.873c0 2.994 2.188 10.594 2.188 10.594v-5.757s1.267 5.527 2.304 7.37c1.036 1.842 3.57 5.642 3.57 5.642l-.462-3.454 1.037 3.339.583-3.337c-.358-3.908-.645-9.948-1.093-16.667-.62-9.308 2.092-11.133 3.954-12.374 2.796-.925 3.917.061 7.337-1.875 1.572-1.25 2.4-2.13 3.598-4.422.516-1.135 1.106-2.588 1.472-3.71-.915-.74-2.628-1.49-3.875-1.49z" id="body-7-8"/>
      <path id="path5255-2-5-6" d="M115.752 37.02c-.396 2.376-2.354 6.075-.176 6.867 2.177.792 14.25 9.5 16.03 12.469 1.782 2.969 8.16 4.713 8.16 4.713v-1.98s-2.77-.064-3.958-.855c-1.187-.792-4.156-5.428-6.333-7.21-2.177-1.78-11.301-7.199-12.093-8.584-.792-1.386-1.63-5.42-1.63-5.42z" style="opacity:0.97000002;fill:url(#linearGradient5645-9);fill-opacity:1;stroke:none;stroke-width:0.30238095px;stroke-linecap:butt;stroke-linejoin:miter;stroke-opacity:1"/>
    </g>
  </g>
  <g id="whiteElements" style="stroke:none" transform="matrix(1.39491 0 0 1.38632 -67.178 -1.604)">
    <path style="opacity:0;fill:#f9f9f9;fill-opacity:1;stroke:none;stroke-width:0.26157621px;stroke-linecap:butt;stroke-linejoin:miter;stroke-opacity:1" d="M79.093 149.342c-8.327 2.228-8.564 2.07-13.62 3.727-4.784 1.112-8-2.732-7.734-5.788.266-3.057-2.126 6.113-2.126 6.113l-.697-3.06c-1.334 1.814-1.702 2.313-2.573 3.495-.173.644-.347 1.33-.521 2.044.771-.327 1.477-.542 1.108-.029-.715.997-.953 3.989-.953 3.989l2.145-1.746.954 1.746 46.494-.499s-4.53-7.229-5.961-7.727c-1.43-.499-16.928.249-16.928.249 7.984-6.403 8.668-4.8.412-2.514z" id="WhiteRightHightPaw2-4"/>
    <path id="whiteRightPaw" d="M119.31 144.46c-.063.175-.866 3.394-1.32 4.298-.467.93-1.555-2.323-2.332-2.168-.778.155-1.244 2.323-2.022 1.084-.728-1.16-2.884-2.282-3.163-2.424l3.982 13.099 13.257.293s.379-1.157-1.077-4.328c-.896-1.54-2.362-2.234-2.362-2.234-1.909-1.334-4.069-1.355-4.069-1.355s-.57-2.53-.893-6.265z" style="opacity:0;fill:#f9f9f9;fill-opacity:1;stroke:none;stroke-width:0.26278976px;stroke-linecap:butt;stroke-linejoin:miter;stroke-opacity:1"/>
  </g>
  <path style="fill:#b75c0d;fill-opacity:1;stroke:none;stroke-width:0.34982252px;stroke-linecap:butt;stroke-linejoin:miter;stroke-opacity:1" d="M145.921 43.378c-.988.483-2.835 1.328-4.198 1.576-1.926.35-5.078-2.276-5.078-1.225 0 1.05.876 1.575 1.926 1.575 1.05 0 2.976 0 4.727-.35.94-.188 1.821-.726 2.443-1.187.06-.13.122-.259.18-.389z" id="lineFall"/>
  <path style="fill:#8b483d;fill-opacity:1;stroke:none;stroke-width:0.34982252px;stroke-linecap:butt;stroke-linejoin:miter;stroke-opacity:1" d="M145.524 35.509s1.122-.612 1.836-.51c.714.102 1.02 0 1.02 0s.306.612.204 1.53c-.102.918-.51 1.53-.51 1.53l-.51-1.224s.904-.876.19-.774c-.714.102-.7.264-.7.264z" id="nose"/>
  <g transform="translate(-66.146 .192) scale(1.375)" id="eye">
    <path id="iris" d="M148.07 23.82c.055-.294.49-1.053.218-1.895-.272-.843-1.032-1.517-1.032-1.517-1.466.379-3.095 1.18-3.366 1.432-.272.253 1.411 1.138 1.954 1.39.978.549 2.227.59 2.227.59z" style="fill:#37845e;fill-opacity:0.99745549;stroke:none;stroke-width:0.35168985px;stroke-linecap:butt;stroke-linejoin:miter;stroke-opacity:1"/>
    <path id="pupil" d="M146.274 20.708c-.027.297-.063.568-.067.889-.006.526.02 1.008.084 1.188.064.18.237.553.41.839l.01.012c.174.042.31.114.455.137.067-.173.15-.371.211-.686a3.496 3.496 0 00-.007-1.432 2.438 2.438 0 00-.262-.703 2.208 2.208 0 00-.32-.428c-.178.051-.336.124-.513.184z" style="fill:#050f05;fill-opacity:1;stroke:none;stroke-width:0.35168985px;stroke-linecap:butt;stroke-linejoin:miter;stroke-opacity:1"/>
    <path id="flare" d="M146.214 21.452c.623.131.796.462.511.762-.284.3-.923.26-.913-.06.01-.318.402-.702.402-.702z" style="fill:#f1faf0;fill-opacity:1;stroke:none;stroke-width:0.71787226px;stroke-linecap:butt;stroke-linejoin:miter;stroke-opacity:1"/>
    <path style="fill:#803d00;fill-opacity:1;stroke:none;stroke-width:0.30238095px;stroke-linecap:butt;stroke-linejoin:miter;stroke-opacity:1" d="M143.826 21.896s-.052-.182.104-.312c.155-.13 1.325-.78 1.818-.961.494-.182 1.3-.416 1.481-.442.182-.026.416.104.65.104h.233s-.363.156-.441.156c-.078 0-.234-.078-.234-.078l.338.26-.546-.182s-2.208.702-3.403 1.455z" id="lash"/>
  </g>
  <g id="ears" transform="translate(-67.17 1.588) scale(1.36723)">
    <path id="leftEar" d="M139.87 11.46c1.925-2.685 4.36-4.813 6.716-7.1.41-.442 1.152-1.087.96-.32-.192.768-2.815 6.27-3.07 7.74-.1.568.123.915-.325 1.682-3.555-.79-4.422-.893-4.422-.893z" style="fill:#b75c0d;fill-opacity:1;stroke:none;stroke-width:0.25586179px;stroke-linecap:butt;stroke-linejoin:miter;stroke-opacity:1"/>
    <path id="insideRightEar" d="M133.242 16.91s.178-1.307 1.07-2.258c.891-.951 1.307-1.308 1.604-1.783.298-.476.535-1.01.535-1.01s-.119 1.129-.297 1.723a63.014 63.014 0 00-.416 1.486s1.13-1.427 1.367-1.961c.238-.535.297-.773.297-.773s.12.832 0 1.13c-.119.296.476-.536.476-.536l-.06.595s-.206.673.713-.298c.92-.97 1.546.238 1.546.238l1.13-6.181.594-4.993L141.246.4l-4.082 5.276s-5.17 8.143-5.17 8.38c0 .238 1.247 2.854 1.247 2.854z" style="fill:#8b483d;fill-opacity:1;stroke:none;stroke-width:0.25586179px;stroke-linecap:butt;stroke-linejoin:miter;stroke-opacity:1"/>
    <path id="rightEar" d="M125.87 20.129s1.914-5.013 3.828-7.383S141.155-.613 141.247.207c1.577.048-.52 12.083-.702 12.903-.182.82-.82.73-.82.183 0-.547 3.344-15.04 1.002-11.759-1.28 1.795-6.654 10.847-6.745 12.214-.091 1.368.274 2.553.274 3.19 0 .639-4.011 5.287-6.016 6.199-2.006.911-2.37-3.008-2.37-3.008z" style="fill:#b75c0d;fill-opacity:1;stroke:none;stroke-width:0.25586179px;stroke-linecap:butt;stroke-linejoin:miter;stroke-opacity:1"/>
    <g id="border" style="opacity:0">
      <path id="rightBorder" d="M141.192.113c-.158-.024-.83.596-1.765 1.558-1.263 2.112-2.804 5.259-3.118 5.747-.474.737-3.104 5.735-3.104 6.945 0 .817.15 2.023.534 3.413.307-.427.498-.753.498-.889 0-.638-.365-1.823-.274-3.19.091-1.368 5.465-10.42 6.746-12.214 2.342-3.282-1.003 11.211-1.003 11.758 0 .547.638.638.82-.182.183-.82 2.279-12.856.702-12.903-.003-.026-.015-.04-.036-.043z" style="fill:#df7921;fill-opacity:1;stroke:none;stroke-width:0.25586179px;stroke-linecap:butt;stroke-linejoin:miter;stroke-opacity:1"/>
      <path id="leftBorder" d="M147.527 3.703c-.891 1.783-3.177 6.315-3.52 7.346-.348 1.045-.294 1.693-.434 2.251.169.043.394.08.576.127.448-.767.226-1.079.324-1.646.256-1.47 2.879-6.972 3.07-7.74.05-.198.037-.3-.016-.338z" style="fill:#df7921;fill-opacity:1;stroke:none;stroke-width:0.25586179px;stroke-linecap:butt;stroke-linejoin:miter;stroke-opacity:1"/>
    </g>
  </g>
</svg>
