<svg width="100" height="37" xmlns="http://www.w3.org/2000/svg" viewBox="0 0 100 37">
    <path style="fill:#1F361B" d="M8.288 33.359c0-1.194-5.304-25.992-6.232-27.583C1.127 4.184.066 1.4 0 1.339c.066.06 10.808 18.891 11.073 21.013.265 2.122 1.99 7.028 1.923 6.968.066.06 1.525-16.649 1.525-18.638 0-1.989-1.591-9.945-1.658-10.006.067.06 3.647 5.895 4.708 8.945 1.06 3.05.796 9.814 1.06 8.09.266-1.724 1.194-7.56 1.062-9.018-.133-1.459-.663-5.039-.73-5.1.067.061 2.188 4.304 2.851 5.763.663 1.459-.132 13.129-.199 13.068.067.06 2.454-9.753 2.719-10.548.265-.796 4.774-9.283 4.509-8.355-.265.929-2.255 13.792-2.255 17.77 0 3.978 1.99 9.15 2.122 8.222.133-.928 5.04-16.709 4.907-11.67-.133 5.04 1.591 12.333 1.525 12.273.066.06.862-5.112.795-5.172.067.06 2.852 5.497 2.785 5.437.067.06 2.719-4.846 3.25-6.04.53-1.193 1.06-5.57.994-5.63.066.06.994 6.16.331 8.017-.663 1.857 1.194 4.244 1.857 4.774.663.53 17.372 1.459 18.963 1.326 1.591-.132 7.426-3.713 8.62-4.641 1.193-.928 5.039-11.537 4.972-11.597.067.06-2.055 10.403-2.121 10.343.066.06 4.044-6.57 4.84-8.427.796-1.856 2.652-14.985 2.652-13.393 0 1.591.133 12.863-.132 14.587-.266 1.724-.929 4.906-.995 4.846.066.06 4.708-8.161 4.84-10.946.133-2.785-3.845-14.19-3.182-13.394.663.796 5.967 12.996 6.1 13.924.132.928-.398 12.333-.265 13.261.132.928 3.05-.795 4.376-2.387 1.326-1.591 4.508-9.946 4.442-10.006.066.06-2.586 12.526-3.249 13.852-.663 1.326-3.713 7.824-3.78 7.764.067.06-5.503.192-5.569.132.066.06 2.453-4.183 2.387-4.243.066.06-4.84 4.038-4.907 3.978.067.06-2.585-.072-2.652-.132.067.06-1.48.192-.199-4.316 1.282-4.51-1.59 4.508-1.657 4.448.066.06-7.227.325-7.36-.205l-.133-3.707c-4.899.589-2.387 4.105-2.453 4.045.066.06-28.18-.338-28.246-.398.066.06-1.193-.803-1.326-2.254.331-2.325-.331 2.58-.398 2.52.067.06-14.123-.736-14.19-.797.067.06-2.187-5.774-2.254-5.834.067.06.067 3.773.2 4.569.132.795.53 1.723.464 1.663.066.06-8.952-.337-9.018-.398.066.06-.597-2.99-.597-2.592 0 .398-.53 2.52-.596 2.46.066.06-3.25-.603-3.78-.868-.265-.133-.43-.166-.53-.315-.1-.15-.133-.415-.133-1.011z"/>
</svg>
