<svg width="200" height="73" xmlns="http://www.w3.org/2000/svg">
 <!-- Created with SVG Editor - http://github.com/mzalive/SVG Editor/ -->
 <g>
  <title>Layer 1</title>
  <path id="svg_2" d="m16.862183,67.695266c0,-2.428125 -10.791703,-52.879324 -12.680243,-56.116827c-1.88855,-3.237514 -4.046893,-8.903153 -4.18194,-9.025467c0.135048,0.122313 21.988236,38.432845 22.527822,42.74952c0.539586,4.316686 4.046893,14.299 3.911835,14.176686c0.135058,0.122313 3.102769,-33.871532 3.102769,-37.918425c0,-4.046882 -3.237503,-20.234432 -3.372562,-20.356745c0.135058,0.122313 7.419455,11.993188 9.577797,18.198413c2.158332,6.205225 1.618746,19.964639 2.158332,16.457343c0.539586,-3.507307 2.428136,-15.378171 2.158343,-18.345893c-0.269793,-2.967721 -1.348964,-10.252118 -1.484012,-10.374431c0.135048,0.122313 4.451733,8.755674 5.800687,11.723395c1.348964,2.967711 -0.269793,26.709449 -0.40484,26.587136c0.135048,0.122313 4.991319,-19.842326 5.530905,-21.461083c0.539586,-1.618757 9.712521,-18.885467 9.172946,-16.996928c-0.539586,1.88855 -4.586479,28.058425 -4.586479,36.152199c0,8.093764 4.046893,18.615675 4.316686,16.727125c0.269793,-1.888539 10.252107,-33.993846 9.982314,-23.741739c-0.269793,10.252118 3.237514,25.090703 3.102456,24.96839c0.135058,0.122313 1.753815,-10.399586 1.618757,-10.521911c0.135058,0.122324 5.800697,11.18381 5.665639,11.061496c0.135058,0.122313 5.530905,-9.860012 6.610076,-12.288136c1.079171,-2.428136 2.158343,-11.331289 2.023285,-11.453602c0.135058,0.122313 2.023597,12.532774 0.674644,16.309863c-1.348964,3.7771 2.428125,8.633361 3.777089,9.712532c1.348964,1.079171 35.34281,2.967711 38.580324,2.697918c3.237514,-0.269793 15.108378,-7.554189 17.536514,-9.442728c2.428125,-1.88855 10.252107,-23.471946 10.117059,-23.594259c0.135048,0.122313 -4.181627,21.166124 -4.316686,21.04381c0.135058,0.122313 8.228833,-13.367308 9.84759,-17.144408c1.618746,-3.777089 5.395846,-30.486549 5.395846,-27.249035c0,3.237503 0.269793,26.169864 -0.269793,29.677171c-0.539586,3.507307 -1.88855,9.982325 -2.023608,9.860001c0.135058,0.122324 9.577797,-16.604811 9.84759,-22.27045c0.269793,-5.66565 -7.823982,-28.867803 -6.475018,-27.249046c1.348964,1.618757 12.140657,26.439667 12.41045,28.328207c0.269793,1.88855 -0.809379,25.090703 -0.539586,26.979253c0.269793,1.88855 6.205225,-1.618757 8.903153,-4.856261c2.697929,-3.237514 9.172946,-20.234443 9.037888,-20.356756c0.135058,0.122313 -5.260799,25.482809 -6.609752,28.180738c-1.348964,2.697918 -7.554189,15.917746 -7.689247,15.795433c0.135058,0.122313 -11.196231,0.392106 -11.331289,0.269793c0.135058,0.122313 4.99133,-8.511036 4.856271,-8.633361c0.135058,0.122324 -9.847267,8.216088 -9.982325,8.093775c0.135058,0.122313 -5.260788,-0.14748 -5.395846,-0.269793c0.135058,0.122313 -3.012529,0.392128 -0.404527,-8.780829c2.608001,-9.172957 -3.237514,9.172935 -3.372573,9.050622c0.135058,0.122313 -14.703527,0.661899 -14.97332,-0.417262l-0.269566,-7.541487c-9.966903,1.197902 -4.856487,8.350855 -4.991546,8.228542c0.135058,0.122313 -57.330744,-0.687054 -57.465792,-0.809379c0.135048,0.122324 -2.428103,-1.634027 -2.697929,-4.586468c0.674126,-4.729328 -0.67432,5.248367 -0.809379,5.126053c0.135058,0.122313 -28.732734,-1.496433 -28.867792,-1.618757c0.135058,0.122324 -4.45142,-11.748551 -4.586468,-11.870864c0.135048,0.122313 0.135048,7.676502 0.40484,9.29526c0.269793,1.618757 1.079171,3.507307 0.944124,3.384983c0.135048,0.122324 -18.210834,-0.687054 -18.345893,-0.809379c0.135058,0.122324 -1.213906,-6.082912 -1.213906,-5.273533c0,0.809379 -1.079171,5.126064 -1.21423,5.00374c0.135058,0.122324 -6.609752,-1.22664 -7.688924,-1.766226c-0.539586,-0.269793 -0.876827,-0.337241 -1.079171,-0.640758c-0.202345,-0.303517 -0.269793,-0.843103 -0.269793,-2.057171z" stroke-opacity="null" stroke-width="1.5" fill="#1F361B"/>
 </g>
</svg>