<svg width="100" height="37" xmlns="http://www.w3.org/2000/svg" viewBox="0 0 100 37">
 <!-- Created with SVG Editor - http://github.com/mzalive/SVG Editor/ -->
 <g>
  <title>Сочная травка</title>
  <path fill="#1F361B" d="m8.288202,33.358621c0,-1.193489 -5.304402,-25.991571 -6.232669,-27.582886c-0.928272,-1.591321 -1.989152,-4.376131 -2.055533,-4.436254c0.066381,0.060123 10.807794,18.890749 11.073011,21.012505c0.265223,2.121766 1.989157,7.028332 1.922771,6.968213c0.066386,0.060119 1.525092,-16.648741 1.525092,-18.637898c0,-1.989147 -1.591321,-9.94575 -1.657706,-10.005869c0.066386,0.060119 3.646858,5.894966 4.707739,8.944993c1.060876,3.050032 0.795658,9.813142 1.060876,8.089212c0.265223,-1.723929 1.193494,-7.558772 1.060885,-9.017484c-0.132614,-1.458712 -0.663054,-5.039185 -0.729435,-5.099303c0.066381,0.060119 2.188146,4.30364 2.851191,5.762357c0.663054,1.458707 -0.132609,13.128387 -0.198989,13.068268c0.066381,0.060119 2.453364,-9.753018 2.718587,-10.548681c0.265218,-0.795663 4.773957,-9.282701 4.508739,-8.354435c-0.265218,0.928272 -2.254375,13.791451 -2.254375,17.76975c0,3.978294 1.989157,9.150088 2.121766,8.221816c0.132609,-0.928262 5.03918,-16.708859 4.906566,-11.66968c-0.132609,5.03918 1.591326,12.332734 1.52494,12.272615c0.066386,0.060119 0.862043,-5.11167 0.795663,-5.171798c0.066381,0.060128 2.851191,5.497134 2.784805,5.437016c0.066386,0.060119 2.718587,-4.846452 3.249027,-6.039941c0.53044,-1.193489 1.06088,-5.56962 0.9945,-5.629743c0.066381,0.060119 0.994647,6.160188 0.331603,8.016722c-0.663049,1.856543 1.193484,4.243527 1.856538,4.773967c0.663049,0.53044 17.371913,1.458707 18.963234,1.326098c1.591326,-0.132614 7.426163,-3.713082 8.619657,-4.641348c1.193484,-0.928272 5.039175,-11.537076 4.972799,-11.597195c0.066376,0.060119 -2.05538,10.4037 -2.121766,10.343582c0.066386,0.060119 4.044685,-6.570382 4.840347,-8.426925c0.795658,-1.856538 2.652201,-14.984935 2.652201,-13.393609c0,1.591316 0.132609,12.863169 -0.132614,14.587104c-0.265218,1.723929 -0.928272,4.906571 -0.994652,4.846447c0.066381,0.060123 4.707734,-8.161697 4.840347,-10.946507c0.132609,-2.784815 -3.845695,-14.189282 -3.182641,-13.393619c0.663049,0.795663 5.967446,12.995788 6.10006,13.924054c0.132609,0.928272 -0.397831,12.332734 -0.265223,13.261005c0.132609,0.928272 3.050032,-0.795663 4.376131,-2.386979c1.326103,-1.591321 4.508744,-9.945755 4.442359,-10.005879c0.066386,0.060123 -2.58582,12.525466 -3.248865,13.851569c-0.663049,1.326098 -3.713082,7.82399 -3.779467,7.763871c0.066386,0.060119 -5.503239,0.192727 -5.569625,0.132609c0.066386,0.060119 2.453369,-4.183398 2.386988,-4.243522c0.066381,0.060123 -4.84019,4.038418 -4.906576,3.978299c0.066386,0.060119 -2.585816,-0.07249 -2.652201,-0.132609c0.066386,0.060119 -1.480732,0.192742 -0.198832,-4.316007c1.2819,-4.508749 -1.591326,4.508734 -1.657711,4.448616c0.066386,0.060123 -7.227164,0.325341 -7.359778,-0.205094l-0.132496,-3.706839c-4.898991,0.588804 -2.387092,4.104666 -2.453477,4.044547c0.066386,0.060119 -28.179555,-0.337708 -28.245935,-0.397831c0.066381,0.060123 -1.193475,-0.803168 -1.326103,-2.25437c0.331352,-2.324589 -0.331446,2.579711 -0.397831,2.519587c0.066386,0.060119 -14.122887,-0.735534 -14.189272,-0.795663c0.066386,0.060128 -2.187989,-5.774719 -2.25437,-5.834837c0.066381,0.060119 0.066381,3.7732 0.198989,4.568863c0.132614,0.795663 0.53044,1.723934 0.464065,1.663806c0.066376,0.060128 -8.951103,-0.337703 -9.017489,-0.397831c0.066386,0.060128 -0.596664,-2.989909 -0.596664,-2.592078c0,0.397831 -0.53044,2.519597 -0.596826,2.459469c0.066386,0.060128 -3.248865,-0.602926 -3.77931,-0.868148c-0.265218,-0.132609 -0.43098,-0.165762 -0.53044,-0.314945c-0.099455,-0.149188 -0.132609,-0.414411 -0.132609,-1.011153z" id="svg_2"/>
 </g>
</svg>
