<svg width="79" height="49" xmlns="http://www.w3.org/2000/svg" viewBox="0 0 79 49">
    <path d="M2.204 43.99C9.096 32.058 19.13 11.388 19.13 7.555c0-3.833 14.783-6.57 18.342-6.844C41.03.436 56.635 3.995 58.004 5.09c1.368 1.095-.822 9.034 0 10.13.82 1.094 12.319 6.296 13.961 7.664 1.643 1.37 6.555 22.531 6.555 22.531s-44.607 2.381-45.976 2.929c-1.368.547-30.34-4.353-30.34-4.353z" style="fill:#ac9d93"/>
    <path d="M57.72 4.962c-.365.134-.641.225-1.072.39-1.871.722-4.285 1.707-6.704 2.692-2.419.985-4.843 1.97-6.731 2.692-.945.36-1.756.655-2.366.851-.61.196-1.019.292-1.16.257-.562-.14-4.925-.492-9.358-1.038a115.953 115.953 0 01-3.28-.445 58.16 58.16 0 01-2.957-.516c-.893-.184-1.673-.379-2.283-.585a5.876 5.876 0 01-.78-.318 1.732 1.732 0 01-.481-.335c-.422-.457-.722-.8-.93-1.101a2.264 2.264 0 01-.308-.675c-.115.237-.18.477-.18.723 0 3.833-10.034 24.503-16.926 36.437 0 0 28.972 4.9 30.34 4.353.824-.33 16.322-.098 29.318-.837 8.602-.489 16.658-2.092 16.658-2.092s-4.831-20.805-6.511-22.47c-1.553.716-2.08.985-4.297 1.952-2.138.933-4.341 1.856-6.142 2.53-.9.336-1.7.61-2.341.79-.641.181-1.122.27-1.386.234-.528-.07-1.786-.29-3.365-.596a168.944 168.944 0 01-5.29-1.11c-1.813-.414-3.537-.85-4.764-1.243-.613-.197-1.103-.383-1.417-.55a1.185 1.185 0 01-.332-.238c-.063-.074-.076-.142-.032-.204a1.59 1.59 0 01.4-.364c.176-.12.392-.24.638-.36.493-.239 1.108-.48 1.777-.736.668-.255 1.39-.523 2.093-.816.704-.292 1.39-.609 1.988-.96.598-.353 1.487-.968 2.505-1.71a184.509 184.509 0 003.283-2.46c1.17-.893 1.725-1.312 2.643-2.017-.667-1.375 1.37-8.927.034-9.997-.043-.034-.213-.09-.283-.128z" style="fill:#6c5d53"/>
    <path d="M20.444 11.267c-.655.06-2.376 2.607-4.65 5.886-3.534 8.083-9.196 19.229-13.59 26.838 0 0 23.2 3.924 29.05 4.354.61-3.141 1.557-7.739 2.1-8.917.835-1.808 8.15-12.917 9.278-14.801 1.222-1.67.974-8.829.855-11.516 0 0-13.014 1.577-14.562 1.155-1.548-.422-7.392-2.563-8.377-2.985a.21.21 0 00-.104-.014zM43.065 26.34s-5.629 9.147-6.755 10.696c-.967 1.33-2.386 8.943-2.785 11.162 3.662-.406 17.477-.108 28.733-.75-.02-2.753-.569-7.974-.756-8.723-.282-1.126-3.237-7.319-3.237-7.319s-5.77.563-7.177.141c-1.408-.422-8.023-5.207-8.023-5.207z" style="fill:#483e37"/>
</svg>
