<svg width="80" height="50" xmlns="http://www.w3.org/2000/svg">
 <metadata id="metadata5">image/svg+xml</metadata>

 <g>
  <title>background</title>
  <rect fill="none" id="canvas_background" height="402" width="582" y="-1" x="-1"/>
 </g>
 <g>
  <title>Layer 1</title>
  <g id="layer1">
   <g transform="matrix(0.64149461,0,0,0.64149461,-27.341199,-16.435928) " id="g99">
    <path d="m43.42364,77.08444c15.78965,-9.38844 29.01882,-33.71304 29.01882,-39.6875c0,-5.97446 23.04436,-10.24193 28.59207,-10.66868c5.54772,-0.42675 29.87231,5.12097 32.00605,6.82796c2.13374,1.70699 -1.28024,14.08266 0,15.78965c1.28024,1.70699 19.20363,9.81518 21.76411,11.94892c2.56049,2.13374 11.09544,22.61761 11.09544,22.61761c0,0 -70.41331,16.2164 -72.54705,17.06989c-2.13374,0.8535 -49.92944,-23.89785 -49.92944,-23.89785z" id="path39" stroke-width="0.26458px" fill="#ac9d93"/>
    <path id="path41" d="m133.15381,33.66379c-13.05753,3.76846 -26.13849,7.46644 -39.34902,10.66188c-12.00664,2.74846 -13.98642,-1.18294 -19.94606,-9.48986c-9.45489,15.93019 -16.21769,33.25658 -30.43484,42.24858c0,0 46.83339,23.90941 49.92925,23.89777c0,0 25.08563,-3.8602 43.97892,-8.25357c16.63963,-3.86931 28.56807,-8.81619 28.56807,-8.81619c0,0 -8.53495,-20.484 -11.09544,-22.61774c-0.11768,-0.0981 -0.27787,-0.21276 -0.45734,-0.33486c-4.07284,2.49347 -8.2651,4.78456 -12.76201,6.40064c-7.29505,1.43983 -14.83741,0.32095 -22.20071,-0.0909c-4.83024,-0.75333 -10.35595,-0.38264 -14.61358,-2.78639c6.41753,-6.80685 14.13309,-13.56703 23.76444,-14.91796c0.97942,-0.52538 2.73823,-0.47316 4.39353,-0.42529c-0.92909,-2.26783 2.05533,-13.48765 0.22479,-15.47606l0,-0.00005z" stroke-width="0.26458px" fill="#6c5d53"/>
    <path d="m75.2591,43.00239c0,0 -5.48802,13.52329 -6.27197,15.67914c-0.57885,1.59186 -10.87758,14.39725 -18.28002,22.09633c11.02278,5.5665 31.56659,15.84008 39.53227,19.14812c1.61971,0.67265 25.93878,-74.87972 3.11319,1.05582l0.002,0c0.23651,-0.0943 1.30559,-0.30874 3.02021,-0.62544c7.62985,-1.40929 28.0423,-4.84314 44.75739,-8.72111c-1.64842,-6.14393 -4.64913,-14.92277 -5.31249,-14.92277c-1.17592,0 -12.34726,-0.19586 -14.30714,-0.19586c-1.95987,0 -18.61902,-8.23154 -18.61902,-8.23154l1.87741,-3.80235c0,0 -7.16879,-15.40485 -8.34471,-15.99282c-1.17593,-0.58796 -15.4835,6.66358 -17.44338,5.29167c-1.95989,-1.37191 -3.7233,-10.77919 -3.7233,-10.77919l-0.00044,0z" id="path39-1" stroke-width="0.26458px" fill="#483e37"/>
   </g>
  </g>
 </g>
</svg>