<svg width="79" height="49" xmlns="http://www.w3.org/2000/svg" viewBox="0 0 79 49">

 <metadata id="metadata5">image/svg+xml</metadata>
 <g>
  <title>Очень твёрдый камень</title>
  <g id="layer1">
   <path fill="#ac9d93" stroke-width="0.169729px" id="path39" d="m2.20366,43.99072c6.89206,-11.93353 16.92659,-32.60412 16.92659,-36.43671c0,-3.83258 14.78283,-6.57014 18.34166,-6.8439c3.55883,-0.27376 19.16292,3.28508 20.53171,4.3801c1.36878,1.09503 -0.82127,9.03395 0,10.12898c0.82126,1.09502 12.31902,6.29638 13.96156,7.66517c1.64254,1.36878 6.55472,22.53101 6.55472,22.53101c0,0 -44.60682,2.38079 -45.9756,2.9283c-1.36878,0.54752 -30.34064,-4.35295 -30.34064,-4.35295z"/>
   <path fill="#6c5d53" stroke-width="0.169729px" id="path6772" d="m57.72069,4.96158c-0.36618,0.1347 -0.64218,0.22542 -1.07229,0.3912c-1.87135,0.72127 -4.2856,1.70615 -6.7045,2.6913c-2.4189,0.98515 -4.84243,1.97056 -6.73137,2.69183c-0.94447,0.36063 -1.75529,0.6554 -2.36523,0.85111c-0.60995,0.19571 -1.01889,0.29202 -1.15962,0.25683c-0.56295,-0.14073 -4.92594,-0.49231 -9.35912,-1.03766c-1.1083,-0.13634 -2.22057,-0.28468 -3.27939,-0.44494c-1.05881,-0.16025 -2.06413,-0.33263 -2.95692,-0.51624c-0.89279,-0.18362 -1.67336,-0.37855 -2.28358,-0.58498c-0.30511,-0.10322 -0.5677,-0.20951 -0.78032,-0.31833c-0.21261,-0.10881 -0.37504,-0.22 -0.48059,-0.33434c-0.42221,-0.45739 -0.72127,-0.80048 -0.93017,-1.10174c-0.1655,-0.23867 -0.23927,-0.45208 -0.30799,-0.67438c-0.11472,0.23639 -0.17932,0.47719 -0.17932,0.72295c0,3.83259 -10.03456,24.503 -16.92662,36.43653c0,0 28.972,4.90074 30.34078,4.35323c0.82362,-0.32944 16.32178,-0.0978 29.31726,-0.83674c8.60211,-0.48914 16.65823,-2.09177 16.65823,-2.09177c0,0 -4.83095,-20.80506 -6.51123,-22.47046c-1.55236,0.71608 -2.08001,0.9853 -4.29689,1.95233c-2.13743,0.93238 -4.34077,1.85616 -6.14175,2.52905c-0.90049,0.33644 -1.70072,0.6103 -2.34145,0.79117c-0.64074,0.18086 -1.12209,0.26876 -1.38597,0.23357c-0.52776,-0.0704 -1.78577,-0.29068 -3.36465,-0.59634c-1.57888,-0.30566 -3.47866,-0.6966 -5.29063,-1.11001c-1.81198,-0.41341 -3.53598,-0.8492 -4.76302,-1.24282c-0.61352,-0.19681 -1.10306,-0.38292 -1.41697,-0.55087c-0.15695,-0.084 -0.26992,-0.16343 -0.33279,-0.2372c-0.06288,-0.0738 -0.0755,-0.14203 -0.03152,-0.2036c0.08796,-0.12315 0.22457,-0.2442 0.40049,-0.36432c0.17592,-0.12012 0.3914,-0.23931 0.63769,-0.35915c0.49257,-0.23969 1.10814,-0.48131 1.77663,-0.73639c0.6685,-0.25508 1.38974,-0.52351 2.09341,-0.81597c0.70368,-0.29247 1.38987,-0.60934 1.988,-0.96118c0.59812,-0.35184 1.48662,-0.96736 2.50475,-1.70843c1.01814,-0.74106 2.16592,-1.60761 3.28301,-2.46082c1.16968,-0.89339 1.72535,-1.31153 2.64325,-2.01694c-0.6676,-1.37549 1.37027,-8.92746 0.03359,-9.9968c-0.04291,-0.03432 -0.21313,-0.0897 -0.28319,-0.12868z"/>
   <path fill="#483e37" stroke-width="0.169729px" id="path6772-0" d="m20.44441,11.26662c-0.65504,0.061 -2.37635,2.60778 -4.65088,5.88646c-3.53388,8.08336 -9.19554,19.2289 -13.58987,26.83764c0,0 23.20121,3.92407 29.05094,4.35477c0.60918,-3.14152 1.55631,-7.73899 2.10013,-8.91728c0.83455,-1.8082 8.14919,-12.91738 9.27696,-14.80167c1.22276,-1.66921 0.97417,-8.82832 0.85576,-11.51554c0,0 -13.01416,1.57744 -14.56226,1.15524c-1.54809,-0.42221 -7.39228,-2.56289 -8.37743,-2.9851c-0.03079,-0.0132 -0.06551,-0.018 -0.10335,-0.0145l0,-0.00002zm22.62084,15.0735c0,0 -5.62925,9.14738 -6.75514,10.69547c-0.96756,1.33039 -2.38569,8.94335 -2.78484,11.16211c3.66183,-0.40589 17.47657,-0.10754 28.7332,-0.75017c-0.02096,-2.75258 -0.56929,-7.97333 -0.75662,-8.72264c-0.28147,-1.12589 -3.23701,-7.31842 -3.23701,-7.31842c0,0 -5.76998,0.56277 -7.17734,0.14056c-1.40736,-0.4222 -8.02225,-5.20691 -8.02225,-5.20691z"/>
  </g>
 </g>
</svg>
