<svg width="36" height="25" xmlns="http://www.w3.org/2000/svg" viewBox="0 0 36 25">

 <metadata id="metadata5">image/svg+xml</metadata>
 <g>
  <title>Широколистная трава</title>
  <g display="inline" id="layer1">
   <g id="g7426">
    <path fill="#536c5d" stroke="null" stroke-width="null" stroke-opacity="null" transform="translate(-77.12322998046875,-119.3439712524414) scale(0.2645833194255829) " d="m299.33399,465.678708c7.62565,30.37546 13.78586,63.03344 50.20312,78.49024c23.39771,-75.87617 -26.49906,-63.36869 -50.20312,-78.49024zm106.70898,37.29493c-12.86759,0.16696 -30.24278,5.21623 -45.63086,25.54101c-2.90193,2.99414 -5.63854,7.05195 -8.05078,12.46289c15.70973,-9.92776 39.59758,-13.63176 44.28125,-13.75195c-0.0982,-0.0638 -9.15247,-6.59463 -19.80664,-6.24024c10.88111,-7.81648 24.14287,-13.64725 48.13476,-14.36523c-1.09708,-0.74186 -8.5446,-3.78121 -18.92773,-3.64648z" id="path107"/>
    <path fill="#4a564d" stroke="null" stroke-width="null" stroke-opacity="null" id="path164" d="m323.90235,477.415038c-10.92749,-0.18937 5.27673,12.00773 13.14257,24.27735c3.58866,-10.89491 5.31806,-17.39225 -0.80664,-22.01563c-5.84753,-1.51408 -9.81421,-2.21802 -12.33593,-2.26172zm-14.5,2.52344c-7.73234,3.58919 -0.51414,17.08067 1.85546,21.67578c5.88863,5.84886 13.7242,3.81659 26.07618,7.40234c-3.27341,-7.81088 -15.16591,-26.2959 -27.93164,-29.07812zm37.96484,7.75781c-3.83734,0.15565 -7.55731,4.59 -9.35938,14.61524c-0.34621,5.28752 11.35068,15.00434 15.36133,28.90234c2.83613,-2.98828 4.71488,-8.28553 5.82422,-14.70898c1.2899,-17.44106 -5.4306,-29.06802 -11.82617,-28.8086zm-18.84961,20.88086c-9.19329,-0.1334 -16.48528,4.55556 2.27539,23.33203c6.99205,6.01467 13.11858,9.4621 18.91602,9.98828c-0.16211,-18.15647 -5.86877,-27.9985 -10.97266,-31.5039c-2.73217,-0.9746 -6.62138,-1.76421 -10.21875,-1.81641z" transform="translate(-77.12322998046875,-119.3439712524414) scale(0.2645833194255829) "/>
    <path fill="#4a564d" stroke="null" stroke-width="null" stroke-opacity="null" id="path107-1" d="m32.848345,14.855292c-0.65755,-0.1932 -11.50453,0.70194 -16.06465,7.63416c3.1288,-3.26869 4.41113,-4.13654 6.16345,-4.24467c2.48132,-1.78246 5.0697,-2.91726 9.9012,-3.38945l0,-0.00004z"/>
    <path fill="#4a564d" stroke="null" stroke-width="null" stroke-opacity="null" id="path107-7" d="m23.525925,19.095382c-3.8596,-0.0737 -5.97884,2.48554 -6.9603,4.41627c4.14792,-2.41776 10.06177,-3.32987 11.25616,-3.36052c-0.004,-0.003 -0.0901,-0.061 -0.21032,-0.13849c-1.53852,-0.61982 -2.89506,-0.89454 -4.08554,-0.91726z"/>
    <path fill="#849a6e" stroke="null" stroke-width="null" stroke-opacity="null" id="path109" d="m15.609585,24.517162c14.40915,-11.81858 2.0363,-23.22318 -2.76361,-22.8905c-4.12619,0.28598 3.88168,13.19683 2.76361,22.8905z"/>
    <path fill="#a1b578" stroke="null" stroke-width="null" stroke-opacity="null" transform="translate(-77.12322998046875,-119.3439712524414) scale(0.2645833194255829) " d="m342.32031,457.776368c-2.18776,0.10601 -2.54398,1.6706 -0.25781,4.16016c7.9605,5.94584 12.32624,12.67231 15.2793,19.70703c1.14672,-4.67354 1.89653,-10.3745 0.7832,-15.91211c-7.15093,-5.81735 -12.99184,-8.09138 -15.80469,-7.95508zm-2.49023,6.91797c-4.2377,0.004 -3.05506,8.03965 2.26758,20.57812c5.49295,1.31615 16.87724,10.32193 18.39062,12.10352c-3.14661,-15.73089 -10.13384,-27.60318 -16.84375,-31.35742c-1.57105,-0.89746 -2.83652,-1.32526 -3.81445,-1.32422zm21.78906,5.27344c-1.77689,0.38885 -1.37142,6.5621 -3.16211,13.63672c5.02521,9.24627 5.80972,13.46273 7.90039,21.9746c9.28478,-5.78146 6.64238,-27.93089 -3.83007,-35.4082c-0.35562,-0.1948 -0.65437,-0.25867 -0.90821,-0.20312zm-18.18945,17.88086c-1.33521,0.52951 8.45378,36.4735 15.67187,40.75c4.49643,-15.3995 4.86261,-22.70384 0.6543,-29.13868c-4.28157,-5.64071 -11.56676,-10.00147 -16.32617,-11.61132z" id="path116"/>
   </g>
  </g>
 </g>
</svg>
