<svg width="36" height="25" xmlns="http://www.w3.org/2000/svg" viewBox="0 0 36 25">
    <g style="stroke:null;stroke-opacity:null;stroke-width:null">
        <path d="M2.076 3.867c2.017 8.037 3.647 16.677 13.282 20.767C21.55 4.558 8.348 7.868 2.076 3.867zm28.233 9.867c-3.405.045-8.002 1.38-12.073 6.758-.768.792-1.492 1.866-2.13 3.298 4.156-2.627 10.477-3.607 11.716-3.639-.026-.017-2.422-1.745-5.24-1.65 2.878-2.069 6.387-3.612 12.735-3.802-.29-.196-2.26-1-5.008-.965z" style="fill:#536c5d"/>
        <path d="M8.576 6.972c-2.891-.05 1.396 3.177 3.477 6.423.95-2.882 1.407-4.601-.213-5.825-1.547-.4-2.597-.586-3.264-.598zm-3.837.668c-2.045.95-.136 4.519.491 5.735 1.558 1.547 3.632 1.01 6.9 1.958-.866-2.066-4.013-6.957-7.39-7.693zm10.045 2.052c-1.015.042-2 1.215-2.476 3.867-.092 1.4 3.003 3.97 4.064 7.647.75-.79 1.248-2.192 1.541-3.891.342-4.615-1.437-7.691-3.129-7.623zm-4.987 5.525c-2.432-.035-4.362 1.205.602 6.173 1.85 1.592 3.471 2.504 5.005 2.643-.043-4.804-1.553-7.408-2.903-8.335a8.997 8.997 0 00-2.704-.48zm23.051-.362c-.657-.193-11.504.702-16.064 7.634 3.128-3.268 4.41-4.136 6.163-4.244 2.481-1.783 5.07-2.917 9.901-3.39z" style="fill:#4a564d"/>
        <path d="M23.526 19.095c-3.86-.073-5.979 2.486-6.96 4.417 4.148-2.418 10.061-3.33 11.256-3.36a6.377 6.377 0 00-.21-.14c-1.54-.62-2.896-.894-4.086-.917z" style="fill:#4a564d"/>
        <path d="M15.61 24.517C30.019 12.7 17.646 1.294 12.846 1.627c-4.126.286 3.882 13.196 2.764 22.89z" style="fill:#849a6e"/>
        <path d="M13.449 1.776c-.579.028-.673.442-.068 1.1 2.106 1.574 3.261 3.354 4.042 5.215.304-1.237.502-2.745.208-4.21-1.892-1.54-3.438-2.141-4.182-2.105zm-.659 1.83c-1.121.001-.808 2.128.6 5.445 1.453.348 4.466 2.731 4.866 3.202-.833-4.162-2.681-7.303-4.457-8.296-.415-.238-.75-.35-1.009-.35zm5.765 1.396c-.47.103-.363 1.736-.836 3.608 1.33 2.446 1.537 3.562 2.09 5.814 2.456-1.53 1.757-7.39-1.014-9.369-.094-.051-.173-.068-.24-.053zm-4.812 4.73c-.354.14 2.236 9.65 4.146 10.782 1.19-4.074 1.287-6.007.173-7.71-1.133-1.492-3.06-2.645-4.32-3.071z" style="fill:#a1b578"/>
    </g>
</svg>
