<svg width="17" height="25" xmlns="http://www.w3.org/2000/svg" viewBox="0 0 17 25">

 <metadata id="metadata5">image/svg+xml</metadata>
 <g>
  <title>Несъедобный гриб</title>
  <g display="inline" id="layer1">
   <g id="g7437">
    <path fill="#a02c2c" stroke="null" stroke-width="null" stroke-opacity="null" d="m2.319817,7.421947c-3.33002,1.57353 10.4919,6.00568 8.24483,2.05235l-8.24483,-2.05235z" id="path358"/>
    <path fill="#a02c2c" stroke="null" stroke-width="null" stroke-opacity="null" d="m10.369017,13.470407c-2.63932,2.0717 6.30339,3.10558 4.93368,1.2367l-4.93368,-1.2367z" id="path375"/>
    <path fill="#782121" stroke="null" stroke-width="null" stroke-opacity="null" id="path375-2" d="m10.481907,13.903927c-2.50774,1.16943 6.3011,2.72291 4.44809,0.83243l-4.44809,-0.83243z"/>
    <path fill="#f6ffd5" stroke="null" stroke-width="null" stroke-opacity="null" id="path224" d="m6.306277,5.249767c0.19964,0.69957 0.3653,1.42423 0.49529,2.16965c-1.43126,-0.0934 -3.00237,0.16617 -4.39398,0.0376c1.83454,0.86377 3.35049,0.85681 4.72288,3.4259c0.0238,1.26465 -0.0567,2.56852 -0.24823,3.89598c-0.4169,-0.0103 -0.78436,0.0107 -0.99562,0.0791c0.35204,0.10052 0.66082,0.1791 0.94753,0.24241c-0.4765,3.02137 -1.54103,6.16034 -3.33631,9.24602l1.96602,0.42121c4.84528,-2.17764 6.92918,-4.72193 7.74193,-7.20902c0.26542,-0.014 0.55272,-0.0485 0.85406,-0.10472c-0.13898,-0.12347 -0.415,-0.21407 -0.73847,-0.27615c0.17246,-0.62307 0.27035,-1.24135 0.31532,-1.84773c0.40179,-0.61402 0.76504,-0.78754 1.5487,-0.88625c-0.60504,-0.13357 -1.08894,-0.41473 -1.53435,-0.68688c-0.0107,-0.21705 -0.0249,-0.43208 -0.0431,-0.64384l-1.40403,-1.68522c0.0751,0.53998 0.15964,1.12044 0.22534,1.71741c-0.55491,-0.13867 -1.15155,-0.003 -1.9474,0.75864c0.51626,0.0263 1.40494,0.51196 2.03971,1.32646c-0.0278,0.63136 -0.11924,1.25894 -0.30951,1.86208c-0.36609,0.01 -0.70413,0.0549 -0.91921,0.14545c0.29011,0.10024 0.54675,0.17422 0.78696,0.22728c-0.68467,1.73809 -2.29102,3.22622 -5.74333,3.9305c1.03699,-1.95601 1.65742,-3.97375 1.96099,-6.10403c0.35068,0.01 0.70172,-0.005 1.09762,-0.0415c-0.23009,-0.12835 -0.61596,-0.23408 -1.0472,-0.31532c0.16905,-1.35082 0.21336,-2.74772 0.15631,-4.20433c0.8074,-0.72326 1.41345,-0.67556 2.14443,-0.59264c-0.54851,-1.41127 -1.39513,-2.11341 -2.3915,-2.45084c-0.0918,-0.77159 -0.20414,-1.5595 -0.33588,-2.36706l-1.61497,-0.07016z"/>
    <path fill="#e6efc8" stroke="null" stroke-width="null" stroke-opacity="null" d="m12.352127,12.521237c0.0268,0.20644 0.0539,0.41239 0.0772,0.62405c-0.55491,-0.13867 -1.15155,-0.003 -1.9474,0.75864c0.51626,0.0263 1.40494,0.51195 2.03971,1.32646c-0.009,0.21054 -0.0288,0.42016 -0.0535,0.6291c0.37342,-0.14252 0.76132,-0.25881 1.15192,-0.35605c0.005,-0.0577 0.0124,-0.11585 0.0167,-0.17337c0.40179,-0.61402 0.76504,-0.78753 1.5487,-0.88624c-0.60504,-0.13358 -1.08894,-0.41474 -1.53435,-0.68689c-0.0106,-0.21705 -0.0249,-0.43207 -0.0431,-0.64384l-0.0435,-0.0524l-1.21238,-0.53946z" id="path224-2"/>
    <path fill="#782121" stroke="null" stroke-width="null" stroke-opacity="null" id="path358-3" d="m2.190377,7.342887c-2.06407,1.89623 10.29332,5.83193 8.24484,2.05235l-8.24484,-2.05235z"/>
    <path fill="#e6efc8" stroke="null" stroke-width="null" stroke-opacity="null" id="path224-1" d="m6.306277,5.249767c0.19964,0.69957 0.3653,1.42423 0.49529,2.16965c-1.43126,-0.0934 -3.00237,0.1662 -4.39398,0.0376c1.83454,0.86376 3.35049,0.85681 4.72288,3.4259c0.01,0.505 -0.002,1.01783 -0.0268,1.53435c0.43243,-0.37174 0.91246,-0.70981 1.41489,-1.0123c-0.004,-0.22429 -0.005,-0.44734 -0.0143,-0.67448c0.8074,-0.72326 1.41346,-0.67556 2.14444,-0.59264c-0.54851,-1.41127 -1.39514,-2.11341 -2.3915,-2.45084c-0.0919,-0.77159 -0.20414,-1.5595 -0.33588,-2.36706l-1.61504,-0.07018zm0.25637,9.67888c-0.0967,-0.003 -0.17661,-0.00075 -0.23349,0.005l-0.0931,0.0186c0.0953,0.0411 0.40917,0.10586 0.59807,0.14739c-0.11979,0.75954 -0.2768,1.52633 -0.47318,2.29803c0.55839,-0.35156 1.13391,-0.63514 1.71935,-0.87966c0.0836,-0.40549 0.15826,-0.81357 0.2172,-1.22717c0.18829,0.005 0.44578,-0.00047 0.58876,-0.008c0.0106,-0.00053 0.0206,-0.00075 0.0299,-0.001c-0.17815,-0.11262 -1.67678,-0.33461 -2.35349,-0.35333l-0.00002,0.00014zm5.19645,2.38529c-0.0799,0.002 -0.14565,0.007 -0.19237,0.0147l-0.0764,0.0194c0.1,0.047 0.34198,0.0752 0.49956,0.10356c-0.18419,0.71471 -0.47859,0.9447 -0.75477,1.4052c0.16481,-0.0598 0.97867,0.003 1.53048,-0.19083c0.17769,-0.34372 0.40412,-0.71568 0.4371,-1.07474c0.19591,-0.0382 0.45873,-0.0609 0.51042,-0.0803c-0.1514,-0.0901 -1.39504,-0.2106 -1.95401,-0.19702l-0.00001,0.00003z"/>
    <path fill="#a02c2c" stroke="null" stroke-width="null" stroke-opacity="null" d="m1.871037,7.773117c6.49407,-15.28572 9.59985,0.0829 8.94286,2.56257c-0.83869,-1.39654 -8.40632,-2.87864 -8.94286,-2.56257z" id="path229"/>
    <path fill="#a02c2c" stroke="null" stroke-width="null" stroke-opacity="null" id="path229-0" d="m15.408817,14.865827c-1.13008,-7.34309 -3.82238,-5.12893 -5.46699,-0.89258c0.99683,-0.31631 4.62193,0.22249 5.46699,0.89258z"/>
   </g>
  </g>
 </g>
</svg>
