<svg width="14" height="18" xmlns="http://www.w3.org/2000/svg" viewBox="0 0 14 18">
    <g style="stroke:null">
        <path d="M5.128 7.484c-2.525 8.7-.316 10.134 2.807 10.102 3.162-.032.467-10.383.467-10.383l-3.274.28z" style="fill:#f6ffd5"/>
        <path d="M8.403 7.203l-3.275.28c-.77 2.653-1.098 4.627-1.096 6.093 1.452-1.158 3.244-2.106 5.09-2.877-.312-1.92-.72-3.496-.72-3.496z" style="fill:#e6efc8"/>
        <path d="M.42 7.955C1.096 4.073 2.955.457 6.336.347c4.828-.156 5.282 4.225 6.648 7.399C13.47 10.43.33 9.83.42 7.956z" style="fill:#ffa85e"/>
        <path d="M5.457.461C2.629 1.113 1.035 4.423.42 7.955.36 9.183 5.978 9.864 9.724 9.433c-.497-1.686-1.323-3.63-2.557-4C4.6 4.66 3.345 4.732 5.457.46z" style="fill:#c97245"/>
    </g>
</svg>
