<svg width="14" height="18" xmlns="http://www.w3.org/2000/svg" viewBox="0 0 14 18">

 <metadata id="metadata5">image/svg+xml</metadata>
 <g>
  <title>Съедобный гриб</title>
  <g display="inline" id="layer1">
   <g id="g7443">
    <path fill="#f6ffd5" stroke="null" id="path317" d="m5.12836,7.483653c-2.52569,8.69962 -0.31636,10.13461 2.80634,10.10279c3.16209,-0.0322 0.46772,-10.38342 0.46772,-10.38342l-3.27406,0.28063z"/>
    <path fill="#e6efc8" stroke="null" id="path317-4" d="m8.40258,7.203053l-3.27422,0.2806c-0.76993,2.65197 -1.09789,4.62608 -1.09606,6.09214c1.45184,-1.15773 3.24323,-2.10572 5.09013,-2.87631c-0.3123,-1.92042 -0.71985,-3.49643 -0.71985,-3.49643z"/>
    <path fill="#ffa85e" stroke="null" id="path315" d="m0.41969,7.955423c0.6761,-3.88281 2.53554,-7.49883 5.91589,-7.6082c4.82809,-0.15622 5.28264,4.22497 6.64833,7.39833c0.48682,2.68434 -12.65326,2.08468 -12.56422,0.20987z"/>
    <path fill="#c97245" stroke="null" id="path315-4" d="m5.457,0.461163c-2.82752,0.65179 -4.4223,3.96222 -5.03731,7.49426c-0.0584,1.22803 5.55866,1.90851 9.30475,1.47778c-0.4971,-1.6862 -1.32299,-3.62947 -2.55782,-4.00087c-2.56643,-0.77188 -3.82168,-0.69874 -1.70962,-4.97117z"/>
   </g>
  </g>
 </g>
</svg>
