<svg width="40" height="81" xmlns="http://www.w3.org/2000/svg" viewBox="0 0 40 81">

 <metadata id="metadata5">image/svg+xml</metadata>
 <g>
  <title>Не знаю, что за дерево, но пусть будет липа</title>
  <g id="g7449">
   <path fill="#bcd35f" stroke="null" id="path63" d="m28.194314,20.624772c-9.1223,-41.92353 -21.14463,-2.19874 -20.21659,1.35055c-1.05613,-1.43821 -0.90785,-1.52576 -0.78286,-3.39991c-4.17563,2.92939 -6.02245,10.25164 -1.16285,14.70386c-1.4733,-0.37229 -2.22156,-1.39371 -3.74209,-3.12521c-2.76898,9.07308 2.5425,23.47842 17.3454,22.06434c8.76803,-0.70794 21.20733,-3.07301 18.03112,-20.39636c-0.81705,0.12576 -1.28356,-0.20815 -2.84258,0.89049c0.24909,-5.93796 -0.49918,-11.91147 -4.34359,-17.34889c-0.98486,2.73167 -1.05029,3.78281 -2.28596,5.26113z"/>
   <path fill="#929a53" stroke="null" id="path63-2" d="m9.968064,12.872122c-1.46786,4.15346 -2.25465,8.09287 -1.99058,9.10281c-1.05613,-1.43821 -0.90789,-1.52565 -0.7829,-3.3998c-4.17563,2.92939 -6.02232,10.2518 -1.16272,14.70401c-1.4733,-0.37229 -2.22187,-1.39388 -3.74241,-3.12539c-2.76897,9.07308 2.54282,23.47837 17.34572,22.06429c0.99497,-0.0803 2.0382,-0.18414 3.09955,-0.32659c-0.72141,-2.33563 -0.74036,-4.64401 1.18234,-9.53561c-4.15749,-0.2121 -4.09886,-4.67459 -4.77127,-9.93917c-2.15904,-1.13505 -2.15132,-2.0549 -3.08666,-3.27436c1.97367,0.64918 2.87634,-0.006 2.87634,-0.006c-2.30752,-0.0169 -4.03012,-0.24136 -5.40219,-3.7362c2.43751,0.83003 3.01299,1.04155 4.44669,0.092c-0.44241,-0.0191 -7.01223,-0.53081 -8.01191,-12.62042l0,0.00043zm8.01191,12.62042c0.0261,0.003 0.0434,0.002 0.0434,0.002l-0.0434,-0.002z"/>
   <path fill="#6c6753" stroke="null" id="path67" d="m13.907744,77.130992l-7.67064,1.12254l7.10937,0.56126l-4.8643,4.49013c7.38183,-4.16797 9.12706,-3.94393 17.21215,-4.11595c-3.79238,-5.40321 -4.09979,-15.86791 -3.55468,-24.32153c2.05798,-3.66963 4.11595,-4.08713 6.17393,-5.98684c-1.96753,0.75163 -3.79507,2.76322 -5.98684,1.49671c4.81846,-16.61529 2.78492,-8.52381 -2.61924,-0.74835c-1.73112,-6.53288 -3.95668,-6.3909 -6.17393,-6.36102c2.43655,0.12399 5.36238,4.47421 3.55468,7.67064c-1.29418,1.49007 -3.77927,0.67241 -7.10937,-0.37418c2.27925,1.19269 4.41877,0.56898 6.92229,4.67722c0.0969,8.21218 0.52965,13.75511 -2.99342,21.88937z"/>
   <path fill="#5f554b" stroke="null" id="path67-7" d="m24.091084,42.303452c-0.13541,0.0935 -1.85165,3.68241 -4.38358,7.32534c-1.73112,-6.53289 -3.95705,-6.39073 -6.1743,-6.36086c2.27945,0.11159 5.36252,4.47442 3.55482,7.67085c-1.29418,1.49007 -3.77902,0.67246 -7.10913,-0.37413c2.27925,1.19269 4.41854,0.56899 6.92206,4.67723c0.0969,8.21218 0.52946,13.75484 -2.99361,21.8891l-7.67034,1.12241l7.10913,0.56121l-4.8643,4.49017c2.67341,-1.50948 4.60489,-2.43724 6.3686,-3.02204l5.04414,-12.88035l0.56844,-9.15965c0.55215,-3.83831 0.10521,-3.52382 2.49752,-7.58403c-0.75012,-1.14582 0.4069,-5.05773 0.82113,-6.48902l0.30942,-1.86623z"/>
  </g>
 </g>
</svg>
