<svg width="56" height="20" xmlns="http://www.w3.org/2000/svg" viewBox="0 0 56 20">
    <path d="M55.622 13.78C49.366 22.09.447 21.435.514 13.686c1.642-23.322 58.142-8.495 55.108.096z" style="fill:#4a564d;stroke:null"/>
    <path d="M30.177 10.749C22.41 10.76 16.993 15.91.685 14.466c2.683 6.024 36.952 7.109 50.311 2.185.108-.04.198-.06.32-.12-7.09-.742-14.117-4.576-19.366-5.621-.363-.084-.489-.12-.878-.14a17.56 17.56 0 00-.895-.021z" style="fill:#1a1a1a;opacity:.6;stroke:null"/>
    <path d="M20.732 1.172c-4.41.048-8.869.245-12.297 1.445-.182.064-.309.234-.12.566 2.155 1.657 5.472 1.95 9.378 1.577 2.87 2.773 8.175 2.407 9.525 1.455 1.588-1.078 5.973 1.418 9.428 2.614.331-2.073 8.475-1.451 9.804-2.074.329-.155.73-.541.672-.662-.017-.007-.128-.566-.198-.594-7.07-2.784-17.205-4.424-26.192-4.327z" style="fill:#788a56;stroke:null"/>
    <path d="M20.738.467c-4.446.047-8.617.658-12.004 2.027.049.024-.317.095-.268.119 2.313 1.105 5.403 1.812 9.227 1.447 2.87 2.774 8.175 2.407 9.525 1.456 1.588-1.079 5.973 1.417 9.428 2.613.331-2.073 8.475-1.451 9.804-2.074.275-.13.446-.31.479-.512.006-.039-.122-.097-.122-.097C39.768 2.566 29.74.376 20.732.473l.006-.006z" style="fill:#bcd35f;stroke:null"/>
    <g style="fill:#f6ffd5">
        <path d="M14.121 1.883c-.935.105-1.745-.212-.529.562-1.031 1.067-.373.707.662.397 1.138.337 1.965.775.843-.347 1.386-.666 1.127-.508-.182-.563-.303-.666-.324-.52-.794-.05z"/>
        <path d="M14.565 1.351c-.11.013-.177.078-.256.152-.068.066-.15.153-.246.25-.208.02-.413.024-.588.022-.187-.003-.332-.014-.449.008a.271.271 0 00-.092.031.182.182 0 00-.086.113c-.011.054.006.1.024.131.018.032.04.055.064.08.08.08.26.199.461.33-.175.188-.332.358-.396.465-.04.067-.079.126-.055.22a.192.192 0 00.092.114c.039.02.075.025.107.026.13.004.27-.044.463-.106.183-.058.406-.134.645-.207.266.08.519.166.73.234.222.072.394.126.533.133.035.002.07.001.108-.01a.191.191 0 00.113-.084.199.199 0 00.02-.14.361.361 0 00-.043-.108c-.061-.109-.227-.281-.405-.467.241-.115.467-.221.59-.287.078-.041.133-.074.178-.111.023-.019.047-.036.066-.082.02-.046.001-.137-.037-.172-.038-.034-.068-.04-.095-.047a.47.47 0 00-.086-.011 3.316 3.316 0 00-.233-.01c-.17-.003-.415-.006-.697-.016a2.11 2.11 0 00-.158-.3.412.412 0 00-.11-.114.256.256 0 00-.162-.037zm.024.268c.006.005.016.011.033.035.04.056.097.17.172.334l.035.074.08.002c.31.013.552.013.734.016-.148.074-.318.157-.603.294l-.168.082.13.131c.237.236.341.37.409.465a2.687 2.687 0 01-.348-.09c-.218-.07-.483-.163-.771-.248l-.04-.01-.036.01c-.262.079-.5.161-.688.22-.117.038-.164.044-.234.06.07-.099.175-.231.394-.458l.112-.115-.137-.088a4.02 4.02 0 01-.414-.293c.072 0 .116-.004.222-.002.149.002.334-.005.518-.017v.181l.227-.226c.12-.12.21-.217.277-.281.062-.06.096-.075.096-.077z"/>
    </g>
    <path d="M36.186 5.873c-.653.079-.93.236-.163.619-.171.919.159.865.888.104 1.24-.201 1.495-.225.427-.737.46-.522.419-.554-.457-.374-.545-.244-.554-.215-.73.283l.035.105z" style="fill:#f6ffd5;stroke:null"/>
    <path d="M14.774 2.312c-.199.423-.768.129-.787.011-.02-.318.73-.397.787-.011zm22.324 3.616c-.03.54-.63.47-.707.346-.212-.352.464-.704.707-.346z" style="fill:#ffe680;stroke:null"/>
    <g style="fill:#f6ffd5">
        <path d="M38.762 5.228c.345.093.731.015.089.248.178.472-.004.295-.345.117-.519.067-.936.191-.257-.182-.403-.336-.335-.26.19-.208.261-.242.238-.184.323.025z"/>
        <path d="M38.7 4.997c.041.01.054.04.069.073l.044.11c.077.02.157.033.226.042.074.01.133.013.175.028.01.004.02.009.03.018a.05.05 0 01.009.048.111.111 0 01-.037.05.264.264 0 01-.042.027 2.42 2.42 0 01-.252.103c.03.082.055.157.057.203.002.028.005.053-.025.088a.135.135 0 01-.06.04.115.115 0 01-.048.003c-.052-.006-.096-.032-.16-.067-.059-.033-.13-.075-.209-.116-.121.016-.239.035-.336.05a1.168 1.168 0 01-.238.022.107.107 0 01-.04-.01.045.045 0 01-.027-.04c0-.02.01-.04.022-.055a.247.247 0 01.04-.04c.047-.038.149-.096.258-.158-.07-.058-.136-.112-.17-.144a.244.244 0 01-.047-.054c-.005-.008-.01-.016-.009-.035.003-.019.03-.053.052-.065.022-.011.035-.012.047-.013h.036l.094.01.277.033c.047-.044.091-.084.126-.108a.291.291 0 01.067-.038.124.124 0 01.072-.006zm-.065.102c-.004.002-.01.004-.02.012-.029.02-.075.06-.14.12l-.029.027-.032-.004c-.125-.012-.22-.026-.292-.035.043.038.092.08.175.149l.048.04-.079.044a2.482 2.482 0 00-.259.158c.04-.002.08-.004.156-.016.1-.015.224-.036.356-.053l.017-.001.013.006c.086.045.161.09.223.124.038.02.055.026.08.036a.983.983 0 00-.058-.2l-.02-.051.073-.026c.122-.045.175-.069.225-.091-.029-.004-.045-.008-.087-.013a2.44 2.44 0 01-.2-.036l-.039.07-.04-.1c-.022-.053-.037-.096-.05-.125-.012-.026-.022-.034-.021-.035z"/>
    </g>
    <path d="M38.415 5.358c-.012.176.274.093.307.048.075-.122-.203-.195-.307-.048z" style="fill:#ffe680;stroke:null"/>
    <path d="M16.28 1.339c.206-.012.311.018.14.167.185.252.08.254-.249.077-.397.009-.477.015-.235-.187-.213-.124-.205-.135.081-.13.126-.099.133-.09.258.041l.005.032z" style="fill:#f6ffd5;stroke:null"/>
    <path d="M16.018 1.403c.088.152.255.1.26.06.012-.11-.24-.174-.26-.06z" style="fill:#ffe680;stroke:null"/>
    <g style="fill:#f6ffd5">
        <path d="M27.629 4.565c-.427-.155-.469-.435-.647.092-1.237.168-.706.175-.077.278.145.354.095.68.588.05 1.044.047.822.05.387-.239.425-.3.3-.252-.251-.181z"/>
        <path d="M28.22 4.467a.54.54 0 00-.217.001l-.291.039a1.516 1.516 0 01-.233-.114c-.066-.04-.11-.073-.17-.09a.204.204 0 00-.06-.007.395.395 0 00-.219.074.228.228 0 00-.04.042.873.873 0 00-.098.213c-.215.03-.41.06-.52.084-.069.016-.13.029-.198.068-.034.019-.055.044-.057.059-.002.015.007.024.019.031.044.028.134.04.254.058.114.017.257.035.403.059.033.083.056.166.078.234.024.071.044.126.089.157a.109.109 0 00.047.019c.023.004.06.004.11-.007a.486.486 0 00.19-.093c.066-.052.144-.148.229-.25.18.008.349.017.447.019.062 0 .108 0 .155-.003.023-.002.046-.004.09-.016a.318.318 0 00.125-.07c.014-.02.007-.027.003-.036-.005-.008-.013-.014-.022-.021a.703.703 0 00-.077-.052c-.06-.036-.148-.088-.243-.149.075-.054.146-.104.184-.14a.188.188 0 00.051-.063c.007-.02-.004-.038-.029-.047zm-.207.1c-.002.003-.004.007-.016.02a2.55 2.55 0 01-.207.154l-.046.034.027.017c.104.069.192.118.257.157-.115-.004-.244-.01-.459-.02l-.128-.005-.057.074a1.92 1.92 0 01-.225.25c-.018-.025-.038-.052-.055-.104-.023-.07-.046-.157-.083-.247l-.006-.012-.022-.004c-.159-.026-.312-.045-.43-.063-.072-.01-.094-.018-.132-.027.105-.02.25-.046.513-.082l.133-.018.02-.06a.95.95 0 01.085-.19c.028.015.046.023.084.046.052.03.126.066.203.1l-.146.065.265-.034c.14-.018.252-.035.329-.044.07-.008.095-.006.096-.007z"/>
    </g>
    <path d="M27.522 4.852c-.414.11-.509-.054-.421-.1.249-.117.71-.049.421.1z" style="fill:#ffe680;stroke:null"/>
    <path d="M24.47 3.97c-.206-.012-.311.018-.14.167-.185.252-.08.254.249.077.397.009.477.015.235-.187.213-.123.205-.135-.081-.13-.126-.098-.133-.09-.258.041l-.005.032z" style="fill:#f6ffd5;stroke:null"/>
    <path d="M24.732 4.034c-.088.152-.256.1-.26.061-.012-.111.24-.175.26-.06z" style="fill:#ffe680;stroke:null"/>
</svg>
