<svg width="20" height="12" xmlns="http://www.w3.org/2000/svg" viewBox="0 0 20 12">
    <path d="M.799 8.408c2.107 4.716 18.58 4.344 18.558-.054C18.804-4.884-.223 3.53.799 8.408z" style="fill:#4a564d;stroke:null"/>
    <path d="M9.368 6.687s4.44 2.93 9.931 2.11c-.903 3.419-12.444 4.035-16.942 1.24-.037-.023-.067-.034-.108-.069-.462-.808-.672-1.289-.737-1.898-.246-2.275 2.572-2.139 6.803-1.687.487.096.494.102 1.053.304z" style="fill:#1a1a1a;opacity:.6;stroke:#1a1a1a;stroke-width:.116"/>
    <path d="M12.548 1.251c1.485.027 2.987.14 4.141.82.062.036.104.133.04.322-.725.94-1.842 1.106-3.157.895-.967 1.574-2.753 1.366-3.208.826-2.121.52-4.132 1.766-6.476.306-.111-.088-.246-.307-.227-.376.006-.004.043-.321.067-.337 2.381-1.58 5.794-2.51 8.82-2.456z" style="fill:#788a56;stroke:null"/>
    <path d="M12.546.85c1.497.028 2.902.374 4.043 1.152-.017.013.107.053.09.067a3.837 3.837 0 01-3.107.821c-.967 1.574-2.753 1.366-3.208.826-2.121.52-4.132 1.767-6.476.306a.42.42 0 01-.162-.29c-.002-.022.042-.055.042-.055C6.138 2.042 9.515.799 12.548.854L12.546.85z" style="fill:#bcd35f;stroke:null"/>
    <g style="fill:#f6ffd5">
        <path d="M14.774 1.654c.315.06.588-.12.179.32.347.605.125.401-.223.225-.384.191-.662.44-.284-.197-.467-.378-.38-.288.061-.32.102-.378.11-.294.267-.028z"/>
        <path d="M14.625 1.353c.037.007.06.044.086.086.023.037.05.087.083.142a.99.99 0 00.198.012c.063-.002.112-.008.151.005a.07.07 0 01.031.017.123.123 0 01.03.065.166.166 0 01-.009.074.226.226 0 01-.021.045 1.51 1.51 0 01-.156.188c.06.106.112.203.134.264.013.038.026.07.018.125a.115.115 0 01-.03.064.055.055 0 01-.037.015c-.044.002-.09-.025-.156-.06-.061-.033-.136-.077-.217-.118-.09.046-.175.095-.246.133a.548.548 0 01-.18.076.065.065 0 01-.035-.006.08.08 0 01-.039-.048.183.183 0 01-.006-.08.299.299 0 01.014-.06c.02-.062.077-.16.136-.265-.08-.066-.157-.126-.198-.163a.398.398 0 01-.06-.064c-.008-.01-.016-.02-.022-.046a.166.166 0 01.012-.098c.013-.02.023-.023.032-.026.01-.004.019-.005.03-.007a.666.666 0 01.077-.006c.058-.001.14-.003.235-.008.02-.068.037-.131.054-.171a.223.223 0 01.036-.065c.016-.016.036-.024.055-.02zm-.008.151c-.002.003-.005.007-.011.02a1.818 1.818 0 00-.058.19l-.012.042-.027.001c-.104.008-.186.008-.247.01.05.042.107.089.203.166l.057.047-.044.074a2.07 2.07 0 00-.138.264.652.652 0 00.117-.05c.074-.04.163-.093.26-.142l.013-.005.013.005c.088.045.168.092.231.126.04.02.056.024.08.033a2.337 2.337 0 00-.134-.26l-.037-.065.046-.05a1.66 1.66 0 00.14-.166c-.025 0-.04-.002-.076-.001a1.34 1.34 0 01-.174-.01v.103l-.076-.129c-.04-.068-.071-.123-.094-.16-.02-.033-.032-.042-.032-.043z"/>
    </g>
    <path d="M5.857 3.301c.215-.064.34-.03.215.284.297.432.185.458-.236.193-.422.097-.504.126-.324-.3-.277-.188-.274-.21.035-.26.096-.21.106-.196.292.025l.018.058z" style="fill:#f6ffd5;stroke:null"/>
    <path d="M14.555 1.898c.067.24.258.073.265.006.006-.18-.246-.225-.265-.006zM5.601 3.474c.154.266.313.134.303.06-.031-.21-.327-.278-.303-.06z" style="fill:#ffe680;stroke:null"/>
    <g style="fill:#f6ffd5">
        <path d="M6.477 3.553c-.117.053-.247.009-.03.14-.06.269 0 .169.116.067.174.038.315.109.086-.103.136-.19.113-.148-.064-.118-.088-.137-.08-.104-.108.014z"/>
        <path d="M6.497 3.422c-.013.006-.018.023-.023.042l-.014.062a.421.421 0 01-.077.024c-.025.005-.045.007-.059.016a.026.026 0 00-.01.01.042.042 0 00-.003.027.07.07 0 00.013.028c.004.007.009.011.014.016a.69.69 0 00.085.058.835.835 0 00-.02.115c0 .016-.001.03.009.05.005.01.014.02.02.023a.024.024 0 00.016.002c.018-.003.033-.018.054-.038.02-.019.044-.043.07-.066.041.009.081.02.114.028a.24.24 0 00.08.013c.005-.001.01-.002.013-.006a.026.026 0 00.01-.022.074.074 0 00-.008-.032.13.13 0 00-.013-.022.862.862 0 00-.087-.09l.057-.082a.144.144 0 00.016-.03c.001-.005.003-.01.003-.02a.07.07 0 00-.018-.037c-.007-.007-.011-.007-.016-.007h-.012a.272.272 0 00-.031.005l-.094.019c-.016-.025-.03-.048-.042-.062a.101.101 0 00-.023-.021.026.026 0 00-.024-.003zm.022.058l.007.007a.8.8 0 01.047.068l.01.015.01-.002c.043-.007.075-.015.099-.02-.014.021-.03.045-.059.084l-.016.024.027.024c.048.045.071.07.087.09-.013-.001-.027-.002-.053-.009-.034-.008-.075-.02-.12-.03l-.005-.001-.005.003c-.029.026-.054.052-.075.07a.099.099 0 01-.027.021.872.872 0 01.02-.113l.006-.029-.024-.015a.758.758 0 01-.076-.051l.03-.008a.53.53 0 00.067-.02l.013.04.014-.057.016-.071c.004-.015.008-.02.007-.02z"/>
    </g>
    <path d="M6.594 3.627c.003.1-.093.053-.104.027-.025-.07.068-.11.104-.027z" style="fill:#ffe680;stroke:null"/>
    <path d="M14.048 1.346c-.07-.007-.105.01-.047.095-.063.143-.027.144.083.043.134.005.16.01.08-.106.071-.07.069-.076-.028-.074-.042-.056-.045-.051-.087.024l-.001.018z" style="fill:#f6ffd5;stroke:null"/>
    <path d="M14.136 1.382c-.03.086-.086.057-.088.035-.004-.063.081-.1.088-.035z" style="fill:#ffe680;stroke:null"/>
    <g style="fill:#f6ffd5">
        <path d="M10.226 3.177c.144-.088.157-.247.218.052.416.095.237.1.026.158-.05.201-.032.386-.199.028-.351.027-.276.029-.13-.135-.143-.17-.1-.143.085-.103z"/>
        <path d="M10.027 3.121c.017-.01.043-.005.073 0l.098.023a.479.479 0 00.078-.065c.022-.022.037-.041.058-.05a.043.043 0 01.02-.005c.009 0 .025.003.04.013a.112.112 0 01.047.053c.012.026.022.07.033.12.072.018.138.034.175.049a.164.164 0 01.067.038.062.062 0 01.019.034.021.021 0 01-.006.017c-.015.016-.046.023-.086.033-.038.01-.087.02-.136.033l-.026.133a.218.218 0 01-.03.09.031.031 0 01-.016.01.058.058 0 01-.037-.004.135.135 0 01-.04-.026.189.189 0 01-.024-.027 1.027 1.027 0 01-.077-.141c-.06.004-.117.01-.15.01-.021.001-.037 0-.053-.001-.007-.002-.015-.002-.03-.01a.11.11 0 01-.042-.038c-.005-.012-.003-.017-.001-.021.001-.005.004-.008.007-.013a.277.277 0 01.026-.029l.082-.084c-.025-.031-.05-.06-.062-.08a.115.115 0 01-.017-.036.022.022 0 01.01-.026zm.07.057a1.1 1.1 0 00.075.099l.015.019-.01.01c-.034.039-.064.067-.086.089l.155-.011.043-.003.02.042a.957.957 0 00.075.141c.006-.014.013-.029.018-.058.008-.04.016-.09.028-.14l.002-.007.008-.003c.053-.014.105-.025.144-.035a.24.24 0 00.045-.016 1.82 1.82 0 00-.172-.046l-.045-.01-.007-.034a.76.76 0 00-.029-.108l-.028.025a.6.6 0 01-.068.057l.049.037-.09-.02-.11-.024c-.024-.005-.032-.004-.033-.004z"/>
    </g>
    <path d="M10.262 3.34c.14.063.171-.03.141-.057-.083-.066-.239-.027-.141.057z" style="fill:#ffe680;stroke:null"/>
    <path d="M11.29 2.84c.069-.008.104.01.047.094.062.143.026.144-.084.044-.134.005-.16.009-.08-.106-.071-.07-.068-.077.028-.074.042-.056.045-.052.087.023l.002.018z" style="fill:#f6ffd5;stroke:null"/>
    <path d="M11.201 2.876c.03.086.086.056.088.034.004-.063-.081-.1-.088-.034z" style="fill:#ffe680;stroke:null"/>
</svg>
