<svg width="60" height="28" xmlns="http://www.w3.org/2000/svg" viewBox="0 0 60 28">
    <path d="M1.222 25.317c2.914-2.443 11.3-6.369 13.778-7.736 1.22-1.933 1.272-10.002 2.89-15.283C20.12-.08 34.827.18 40.646 3.092c.884 3.977-.124 11.842 1.226 15.14 3.904 2.46 14.228 5.37 16.236 5.762-.933.344-15.507-.99-23.26-1.485-4.323-.606 7.193 4.786 7.65 5.189-8.846-.934-34.065-3.412-41.275-2.381z" style="fill:#996f46"/>
    <path d="M24.745.729c-3.319.135-6.01.657-6.865 1.568C16.262 7.58 16.22 15.648 15 17.581c-2.48 1.367-10.875 5.292-13.79 7.735 6.43-.919 27.108.945 37.798 2.024-2.536-1.77-4.538-3.2-2.879-3.068-.376-.284-3.217-2.033-1.294-1.764l4.836.339c-1.67-2.288-6.283-5.64-6.096-8.692-.581-3.22-1.527-6.66-4.385-11.246a18.881 18.881 0 00-4.446-2.18zm5.478 2.933c1.796 3.23 2.804 6.292 3.434 8.93.12-2.988-.094-5.901-2.452-8.09a16.22 16.22 0 00-.982-.84z" style="fill:#74583f"/>
    <path d="M27.811.965a38.083 38.083 0 00-8.995.97c-2.412.91 10.52 2.57 17.342 2.447.627 5.161.63 6.715.647 9.428.083-.15 1.416-5.566 1.037-9.507 1.596-.135 2.532-.434 2.274-.964-.243-.383-5.279-2.304-12.305-2.374z" style="fill:#e9ddaf"/>
    <path d="M19.972 1.819c10.05-1.888 18.566.623 18.865 1.004.992 2.575-21.886.448-18.865-1.004z" style="fill:#996f46"/>
    <path d="M20.892 1.886c9.037-1.483 16.696.49 16.965.79 1.03 2.185-19.574.565-16.965-.79z" style="fill:#e9ddaf"/>
    <path d="M21.79 1.983c8.087-1.07 14.94.354 15.181.57.799 1.46-17.612.254-15.18-.57z" style="fill:#996f46"/>
    <path d="M22.631 2.022c7.272-.841 13.435.277 13.652.447.83 1.239-15.751.32-13.652-.447z" style="fill:#e9ddaf"/>
    <path d="M20.185 4.382c-1.243.05-2.249 1.206-3.369 2.92-.672 4.39-.944 8.898-1.816 10.279-2.479 1.367-10.875 5.292-13.789 7.735 5.633-.805 22.197.526 33.405 1.593-4.524-4.37-3.098-9.905-9.13-18.15-2.34-3.2-3.959-4.43-5.3-4.377z" style="fill:#5f4d3a"/>
</svg>
