<svg width="60" height="28" xmlns="http://www.w3.org/2000/svg" viewBox="0 0 60 28">

 <metadata id="metadata5">image/svg+xml</metadata>
 <g>
  <title>Пень</title>
  <g display="inline" id="layer1">
   <g id="g7507">
    <path fill="#996f46" d="m1.221859,25.316639c2.9139,-2.44278 11.29952,-6.36833 13.77769,-7.7358c1.22098,-1.93281 1.27256,-10.00154 2.89106,-15.28295c2.22854,-2.3768 16.93565,-2.11677 22.75416,0.79375c0.88432,3.97731 -0.12362,11.84259 1.22579,15.14067c3.90456,2.45901 14.22819,5.37016 16.23671,5.76141c-0.93336,0.34468 -15.50711,-0.98981 -23.26066,-1.48472c-4.32263,-0.60554 7.19342,4.7861 7.65025,5.18889c-8.8461,-0.93436 -34.06477,-3.41161 -41.275,-2.38125z" id="path1215"/>
    <path fill="#74583f" transform="translate(-68.11613464355469,-157.06117248535156) scale(0.2645833194255829) " d="m350.970297,596.37198c-12.5435,0.51133 -22.71601,2.4836 -25.94532,5.92774c-6.11716,19.96123 -6.27221,50.45949 -10.88696,57.7646c-9.36632,5.16839 -41.09985,20.00284 -52.11304,29.2354c24.30274,-3.4729 102.45564,3.57301 142.85743,7.64843c-9.5836,-6.69116 -17.15028,-12.09668 -10.88036,-11.5962c-1.42123,-1.0716 -12.15905,-7.68169 -4.89113,-6.66356c0.0113,0.00075 18.27728,1.27942 18.27728,1.27942c-6.31238,-8.64889 -23.74853,-21.31611 -23.04091,-32.85164c-2.19651,-12.17157 -5.77217,-25.17213 -16.57227,-42.50586c-5.33742,-3.59049 -11.03774,-6.26693 -16.80468,-8.23828l-0.00004,-0.00005zm20.70508,11.08594c6.78949,12.20584 10.59971,23.78001 12.97851,33.74805c0.45536,-11.29177 -0.35457,-22.30163 -9.26562,-30.57618c-1.20696,-1.12076 -2.44826,-2.17243 -3.71289,-3.17187z" id="path1215-2"/>
    <path fill="#e9ddaf" transform="translate(-68.11613464355469,-157.06117248535156) scale(0.2645833194255829) " d="m362.560137,597.26456c-10.39141,-0.10415 -21.93544,0.86223 -33.99609,3.66602c-9.11966,3.43608 39.76008,9.71159 65.54297,9.25c2.37085,19.50576 2.38021,25.3789 2.44531,35.63085c0.31412,-0.56881 5.35202,-21.03761 3.91797,-35.93164c6.03365,-0.50805 9.57115,-1.63912 8.5957,-3.64257c-0.91724,-1.4487 -19.95003,-8.70651 -46.50586,-8.97266z" id="path108"/>
    <path fill="#996f46" d="m19.972079,1.818729c10.04925,-1.88752 18.56597,0.62306 18.86503,1.00468c0.99189,2.57501 -21.88596,0.44774 -18.86503,-1.00468z" id="path108-1"/>
    <path fill="#e9ddaf" id="path108-1-3" d="m20.892319,1.886489c9.03678,-1.48315 16.69543,0.48959 16.96435,0.78946c1.03064,2.18496 -19.57371,0.56547 -16.96435,-0.78946z"/>
    <path fill="#996f46" id="path108-1-8" d="m21.790389,1.983319c8.0868,-1.07008 14.94034,0.35323 15.181,0.56957c0.79818,1.45984 -17.612,0.25384 -15.181,-0.56957z"/>
    <path fill="#e9ddaf" d="m22.631409,2.021729c7.27204,-0.84082 13.43508,0.27756 13.65149,0.44757c0.82937,1.2387 -15.75129,0.32057 -13.65149,-0.44757z" id="path108-1-3-0"/>
    <path fill="#5f4d3a" id="path1215-2-3" d="m20.185279,4.382159c-1.24285,0.05 -2.24903,1.20626 -3.36879,2.91972c-0.67276,4.38935 -0.94494,8.89859 -1.81694,10.27896c-2.47817,1.36747 -10.8744,5.29266 -13.78831,7.73544c5.633,-0.80496 22.19704,0.52591 33.40468,1.59318c-4.5235,-4.37065 -3.09813,-9.90518 -9.12967,-18.15083c-2.33998,-3.19894 -3.95906,-4.43045 -5.30097,-4.37647z"/>
   </g>
  </g>
 </g>
</svg>
