<svg width="72" height="20" xmlns="http://www.w3.org/2000/svg" viewBox="0 0 72 20">

 <metadata id="metadata5">image/svg+xml</metadata>
 <g>
  <title>Отломившийся от пня кусочек</title>
  <g display="inline" id="layer1">
   <g id="g7548">
    <path fill="#5f4d3a" stroke="null" id="path355" d="m62.710302,4.836833l-1.74368,3.36982l-7.14355,0.97062l-0.30779,1.20329l4.92453,-0.17189l-3.38562,7.73544c-14.54399,-1.34676 -34.55171,-0.35911 -44.32102,1.32484c2.41171,-1.12913 0.06132,-2.82819 -1.38475,-4.41902l-0.15389,-1.37519l4.00117,0.3438l0.30779,-0.8595l-7.54069,-0.68759l-0.30778,-1.2033l7.2329,0.3438c-0.90902,-3.05281 0.05849,-2.43008 -4.15507,-3.09417c-0.33712,-2.35427 0.06891,-1.69281 -3.5395,-2.23468c-1.23003,-3.27818 -0.62424,-2.59226 -3.53951,-3.60988c-0.69758,-0.47025 -2.85688,-2.60997 0.29831,-2.22928c20.61394,2.87526 40.42269,4.23008 60.75815,4.59289z"/>
    <path fill="#ebce74" stroke="null" d="m5.124192,1.147703c1.14246,0.71404 1.20051,0.19788 1.20051,0.19788c2.21278,0.19891 4.19666,0.62104 5.57012,1.61846c0.53412,0.93124 1.14454,1.41248 1.60236,3.62861c3.05212,0.56109 5.64643,-0.35344 6.86728,2.99709l6.48576,0.91119l1.98388,2.40185l1.50023,3.55011c-6.19871,1.56247 -12.12205,2.08066 -19.04994,2.82748c20.52553,-0.53778 31.21576,-3.11613 47.54461,-3.3655l2.73911,-0.27889l2.43798,0.46434l1.22457,-0.38151l0.61042,-1.65632c-2.39852,-0.29867 -3.69103,0.43368 -2.06018,-1.98806c-7.44815,-0.65237 -8.50917,0.007 -7.93552,-1.63188l4.57826,-0.90718c0.20825,-0.70579 0.44513,-1.41911 2.42172,-2.59025c2.2421,-0.25937 3.48563,-0.51873 5.13223,-0.77809c0.15261,-1.22181 2.25579,-0.96516 3.50995,-1.34668l0.1526,-1.84408c-22.35679,0.17291 -38.70939,2.14375 -63.01711,-1.32874l-3.49884,-0.49983zm42.17525,3.87304c3.05212,0.016 5.87533,0.70648 5.57012,1.82161c1.29715,2.64769 -11.14024,3.29673 -13.42933,0.40392c1.22084,-1.583 4.73078,-2.24152 7.85921,-2.22553z" id="path296-57"/>
    <path fill="#996f46" stroke="null" id="path296" d="m1.952142,0.243943l3.10556,1.48316c2.2122,0.19892 4.19621,0.62103 5.59142,1.61845c0.53278,0.93125 1.0991,1.41248 1.53602,3.62862c3.11704,0.56108 5.69127,-0.35344 6.92468,2.99707l6.47935,0.9112l1.98175,2.40185l-12.11968,-0.99403l0.15226,2.73319c7.48327,0.7758 5.68234,0.89479 -0.60944,2.48468c-0.438,1.59255 -0.41567,0.98181 -6.02177,0.66268l1.067,1.49105c20.51801,-0.53778 33.92142,-0.57899 50.30822,-0.82835l0,-2.81603l3.65858,0.0828l0.60983,-1.65633l-2.82036,-0.24851l0.76248,-1.73955l-8.30844,-0.57985l0.29939,-1.05202l5.87465,-1.28869l0.05404,-1.40545l6.25213,-1.58137c0.16705,-1.22181 -0.02278,-0.89542 3.50357,-1.34668l0.16173,-1.28869c-22.39703,0.17291 -44.09365,-0.43578 -68.44297,-3.66924l0,0.00004zm44.04977,5.15831c3.12095,0.016 5.87919,0.70649 5.62732,1.8216c1.26364,2.6477 -11.12749,3.29675 -13.43046,0.40393c1.19851,-1.583 4.68218,-2.24151 7.80314,-2.22553z"/>
    <path fill="#74583f" stroke="null" d="m11.326012,4.448463c0.3086,0.54436 0.60578,1.24066 0.85913,2.52571c3.11704,0.56108 5.69127,-0.35344 6.92468,2.99707l6.47935,0.9112l1.98175,2.40185l-12.11968,-0.99403l0.15226,2.73319c7.48327,0.7758 5.68234,0.89479 -0.60943,2.48468c-0.43801,1.59255 -0.41568,0.98181 -6.02178,0.66268l1.067,1.49105c20.51801,-0.53778 33.92142,-0.57899 50.30822,-0.82835l0,-2.81603l3.65858,0.0828l0.05838,-0.15858l-26.26529,-2.43103c-6.23628,-4.25941 1.04076,-2.23867 -17.44879,-5.57999c-0.39935,-2.14066 1.07582,-1.66295 -9.02438,-3.48226l0,0.00004z" id="path296-5"/>
    <path fill="#74583f" stroke="null" d="m13.567342,6.569263c21.9286,3.26957 21.46819,1.48867 26.11626,5.83037l19.21556,3.49185l-19.59125,-2.80474c-5.33995,-5.35611 -3.09756,-2.40195 -25.74057,-6.51748z" id="path350"/>
   </g>
  </g>
 </g>
</svg>
