<svg xmlns="http://www.w3.org/2000/svg" width="160" height="267" viewBox="0 0 160 267">
    <g style="transform:matrix(0.77026088,0,0,0.77026088,0.70819139,19.075831)">
        <path d="M108.461-18.222l-.468.362c-.14 5.345-.248 11.11-.368 16.711h-.013l.013.063a5322.61 5322.61 0 00-.776 44.96c-2.976 3.572-10.108-11.293-16.363-31.645-2.7-8.784-5.049-20.72-6.566-29.053l-.584.579C84.735-4.9 86.518 4.807 88.496 13.07c-1.119 2.6-8.544-2.534-16.607-10.651-1.12-1.127-2.304-2.475-3.488-3.873l-.813.805c9.937 13.144 18.153 17.607 22.255 19.032 6.013 22.351 13.267 32.779 16.87 36.766a22480.52 22480.52 0 00-.528 51.662c-2.815-1.554-5.404-5.623-6.66-14.269l-1.67-.404c1.574 12.163 4.98 18.582 8.244 23.79-.007.676-.015 1.35-.02 2.026-9.78-12.178-19.395-22.752-28.76-30.773l-4.505-1.088c.595.483 1.18.944 1.794 1.469 13.076 11.15 25.23 24.43 31.309 46.994-.071 7.066-.153 14.003-.232 20.968-12.04-22.3-33.88-38.65-43.679-44.702-3.74-9.354-7.274-18.945-11.252-27.912.691-2.168 5.145-17.161-1.18-25.782-2.432-3.315-4.222-5.772-6.535-8.298-1.84-2.872-4.536-6.472-4.629-11.503l-.719-.27c-.067 4.031.256 4.742 1.292 7.8-2.196-1.958-4.886-4.142-8.608-6.92.088.76-1.586-.138-1.586-.138 5.458 4.438 29.037 22.338 18.477 37.69-3.213-6.408-6.78-12.329-10.986-17.387-11.19.368-16.894-6.252-17.303-7.868 0 0 .112.99.247 3.555 5.176 4.286 10.591 6.537 16.207 7.937C46.543 72.917 54 95.739 57.716 113.13c4.775 4.384 14.185 9.715 23.711 19.566-18.643-8.434-34.527-16.535-41.907-27.284a574.308 574.308 0 01-9.53-14.316c-.166-4.455.172-7.737.557-11.072l-.43-1.334c-.976 2.992-1.878 5.764-1.685 9.947-7.247-11.426-10.55-17.758-9.974-17.297l-3.412-3.004c10.921 17.672 23.479 41.607 20.627 41.637 15.854 10.32 31.977 21.362 54.623 33.465 6.033 8.603 11.502 19.65 15.108 34.197-.248 18.035-.543 35.489-.943 51.618-5.262-11.159-12.037-20.115-18.645-26.777-3.997-3-7.8-5.949-11.44-8.869 3.857-12.981.357-23.411-9.585-42.88-.013-3.464.265-6.266.589-9.076l-.43-1.333c-.769 2.357-1.493 4.577-1.675 7.454a1453.057 1453.057 0 00-5.71-10.856l-1.01.336c6.53 18.011 22.067 42.568 12.007 51.584-21.53-18.032-36.677-35.351-48.713-57.088-1.667.715-1.667 1.19-1.667 1.19 7.61 15.152 17.25 27.975 26.745 38.438-5.58-1.056-11.39-2.454-16.547-5.397-8.436-4.813-14.903-16.32-19.814-28.636.063-2.628 1.253-7.68 1.205-12.172l-.656.177c-.145 1.984.031 4.906-1.828 8.684-1.248-3.34-2.389-6.699-3.423-9.965-.953 0-.581.098-.781-.07 5.634 22.542 17.082 42.824 26.292 45.616 9.997 3.03 19.16 7.639 23.33 9.874 9.944 9.829 19.034 16.911 24.539 21.083a68.216 68.216 0 012.685 2.727c-8.36-.315-15.69.187-21.637 1.266-4.58-5.98-19.483-11.698-32.384-17.467l1.61 1.406c9.959 5.653 25.117 10.265 26.393 17.02-4.138 1.084-7.344 2.492-9.413 4.1-5.847 1.002-24.786-2.274-37.745-3.811l2.44 1.25c10.358 1.458 19.456 5.09 35.187 5.418 4.953-1.48 10.869-7.972 40.087-3.754 10.652 14.177 14.407 31.181 18.988 52.535-1.156 29.118-2.856 51.497-5.493 62.252l23.575-.057c-2.274-10.512-3.961-32.446-5.31-60.976 4.208-9.013 10.833-17.359 19.66-27.902 10.96-6.05 20.382-11.832 29.05-17.392l.01.073.178-.193c6.972-4.475 13.483-8.809 19.957-13.023-2.852-.03 9.708-23.964 20.63-41.636l-3.413 3.003c.815-.653-5.977 12.101-21.062 34.072-2.585 3.765-6.232 7.202-10.656 10.445-11.16-21.09 18.913-38.085 25.816-42.316 0 0-2.003.719-1.784-.167-4.57 2.53-7.9 4.566-10.646 6.439 1.635-3.424 2.107-4.202 2.673-9.015l-.842.17c-.902 5.968-4.463 9.69-6.96 12.723-2.967 2.524-5.34 5.078-8.564 8.515-6.873 7.328-6.376 21.36-5.74 27.699-5.901 3.616-12.764 7.038-20.156 10.47 3.431-4.103 7.051-8.47 10.976-13.395 3.366-24.506 7.658-47.037 12.417-66.83 4.138-9.482 8.935-13.302 13.61-18.17l-.459-1.865c-3.715 2.788-7.377 5.562-10.143 8.124 2.408-9.084 4.902-17.495 7.437-25.091l-2.857 2.86c-1.984 3.562-4.555 10.701-8.812 27.412-.036.081-.082.165-.112.245l.018.13c-1.82 7.164-3.943 16.047-6.491 27.326-1.34-3.352-3.79-5.632-6.413-8.067l-.336 1.389c2.165 3.541 4.204 7.025 5.52 12.208a3074.671 3074.671 0 00-7.783 35.924c-14.954 22.425-25.128 26.602-35.677 33.171-.598-15.852-1.11-33.314-1.594-51.393 6.336-12.476 16.766-41.171 24.297-68.825 3.263-1.819 9.447-4.88 18.321-7.57 9.21-2.79 20.994-23.745 26.628-46.287-.2.168.171.07-.781.07a208.355 208.355 0 01-3.423 9.965c-1.86-3.778-1.684-6.7-1.828-8.684l-.657-.177c-.047 4.492 1.143 9.544 1.206 12.172-4.911 12.315-11.378 23.823-19.814 28.636-5.61 3.2-11.988 4.573-18.004 5.663 2.358-9.161 4.345-18.07 5.67-26.06 31.898-21.93 33.833-31.725 39.897-42.309-.505-.673.17-3.526.17-3.526-8.453 13.674-9.94 18.918-27.423 31.678-.811-11.38 3.355-23.825 6.955-35.38l-1.07.784c-4.506 12.766-8.053 25.27-9.563 37.22-3.622 2.541-7.765 5.34-12.719 8.563-7.174 38.994-18.168 65.89-28.414 83.27-.788-32.208-1.503-65.852-2.259-98.68 4.589-6.77 9.178-9.736 13.766-13.523l-.237-1.906c-5.312 3.098-10.592 6.191-13.675 9.028-.17-7.285-.329-14.827-.507-21.945 9.681-7.734 16.28-12.663 24.825-50.586l-.755.841c-2.045 6.52-3.65 12.589-5.2 17.194a87.444 87.444 0 01-1.185 3.282c-1.344 1.273-2.955-2.99-3.917-9.06l-.685.758c.584 5.853 1.942 9.505 2.524 11.565.111.395.038 1.116-.104 1.933-4.823 10.49-11.146 18.343-15.699 16.472-.269-10.363-.56-20.328-.862-30.053 1.105-1.912 2.072-4.288 3.07-7.369-1.415 1.911-1.978 2.84-3.208 3.152-.183-5.717-.362-11.485-.558-16.951z" style="opacity:1;fill:#1c241c;fill-opacity:0.99193552;stroke:none;stroke-width:1.33361185px;stroke-linecap:butt;stroke-linejoin:miter;stroke-opacity:1"/>
        <path style="opacity:1;fill:#434235;fill-opacity:0.98431373;stroke:none;stroke-width:1.33361149px;stroke-linecap:butt;stroke-linejoin:miter;stroke-opacity:1" d="M108.461-18.222l-.468.362c-.14 5.345-.248 11.11-.368 16.711h-.013l.013.063c-.155 7.286-.3 14.71-.432 22.291a72.788 72.788 0 002.542 1.915c-.19-6.793-.375-13.646-.578-20.174 1.105-1.912 2.072-4.288 3.07-7.369-1.415 1.911-1.978 2.84-3.208 3.152-.183-5.717-.362-11.485-.558-16.951zM83.92-16.824l-.584.579c.691 5.604 1.476 10.8 2.332 15.628.696.828 1.394 1.632 2.091 2.443-1.529-6.521-2.867-13.31-3.84-18.65zm51.12 6.838l-.755.841c-2.045 6.52-3.65 12.589-5.2 17.194a87.412 87.412 0 01-1.185 3.282c-1.344 1.273-2.955-2.99-3.917-9.06l-.685.758c.584 5.853 1.942 9.505 2.524 11.565.111.395.038 1.116-.104 1.933-2.15 4.678-4.6 8.825-7.056 11.825a36 36 0 002.67 1.053c4.56-6.8 8.815-17.678 13.708-39.391zm29.853 47.775l-1.07.784c-4.506 12.766-8.053 25.27-9.563 37.22-3.622 2.541-7.765 5.34-12.719 8.563a383.263 383.263 0 01-1.539 7.88 121.923 121.923 0 013.5 4.511c.673-3.237 1.293-6.41 1.793-9.421 31.897-21.93 33.831-31.725 39.896-42.309-.505-.673.17-3.526.17-3.526-8.453 13.674-9.94 18.918-27.423 31.678-.811-11.38 3.355-23.825 6.955-35.38zm-54.42 13.972a189.37 189.37 0 01-4.335 2.701c.187.22.404.498.576.688-.047 3.965-.082 8.088-.125 12.093a64.57 64.57 0 014.284 1.699c4.587-6.768 9.174-9.734 13.761-13.519l-.237-1.906c-5.312 3.098-10.592 6.191-13.675 9.027-.083-3.58-.168-7.16-.25-10.783zm72.452 13.98c-.2.168.171.07-.781.07a208.356 208.356 0 01-3.423 9.965c-1.86-3.778-1.684-6.7-1.828-8.684l-.657-.177c-.047 4.492 1.143 9.544 1.206 12.172-4.911 12.315-11.378 23.823-19.814 28.636-1.704.972-3.484 1.76-5.298 2.438.517.874 1.027 1.757 1.534 2.647.795-.261 1.59-.524 2.433-.78 9.21-2.79 20.994-23.745 26.628-46.288zm-4.71 41.477l-2.857 2.86c-1.983 3.562-4.555 10.701-8.811 27.412-.036.081-.082.165-.112.245l.018.13v.003a528.24 528.24 0 012.091 4.662c3.956-8.266 8.45-11.912 12.836-16.48l-.458-1.865c-3.715 2.788-7.378 5.562-10.143 8.125 2.408-9.085 4.901-17.495 7.437-25.092zm27.496 55.189l-3.412 3.003c.674-.54-3.939 8.19-14.045 23.601.377.86.746 1.728 1.126 2.584 4.168-8.438 10.449-19.67 16.331-29.188zm-19.072 2.461l-.841.17c-.568 3.756-2.19 6.62-3.936 8.986.376.897.747 1.8 1.123 2.695 5.47-4.406 10.934-7.59 13.412-9.108 0 0-2.003.719-1.785-.167-4.569 2.53-7.898 4.566-10.645 6.439 1.635-3.424 2.107-4.202 2.672-9.015zm-70.348 98.88c-7.513 11.767-4.947 25.718 2.688 40.772-1.034-10.889-1.917-24.728-2.688-40.772z"/>
    </g>
</svg>
