<svg xmlns="http://www.w3.org/2000/svg" width="170" height="297" viewBox="0 0 170 297">
    <path style="opacity:1;fill:#1c241c;fill-opacity:1;stroke:none;stroke-width:1.14571702px;stroke-linecap:butt;stroke-linejoin:miter;stroke-opacity:1" d="M91.76.723c-1.949 28.572-5.7 63.01-9.572 97.185-1.258 1.583-1.503 1.044-1.503 1.044-3.618 2.682-9.915-14.501-16.008-34.251 1.211-6.528.754-14.38-1.14-22.376l-.709 1.03c.468 5.133 1.235 12.87-.156 14.735-4.066-13.596-7.893-27.494-10.591-36.352-2.256 1.487-13.768-8.246-21.5-15.211h-1.237c5.853 6.266 12.835 13.172 20.886 16.838l4.506 16.073c-.032 1.268-.07 1.897-.514 2.503-5.432 7.401-20.94.945-31.024-4.55-2.513-1.37-3.182-1.973-6.024-3.693l-.674.778c3.488 2.753 18.341 14.364 37.787 13.615 1.376-.053 2.449.786 3.426 1.972l16.45 58.675 5.617 10.383c-3.773 33.118-7.337 64.846-9.094 89.232-2.84-.627-7.984-3.54-13.875-5.4l.695 1.908c2.74 1.077 5.765 2.287 12.637 11.773-.604 10.399-.797 19.155-.408 25.638 1.149 19.162.132 37.581 1.93 54.784l19.323.867-7.04-57.49c-1.833-14.018-1.959-32.703-1.137-54.128 1.494-2.407 3.081-4.611 4.994-6.541 14.555-14.684 45.658-32.68 55.401-31.772l-3.005-1.503c-9.319.458-17.15 6.618-55.147 25.229-.76.371-1.13-.035-1.495-.981.082-1.512.148-2.976.237-4.508l18.244-17.633.856-1.843L84.06 161.92c.48-7.86 1.032-15.948 1.638-24.207 16.46-29.854 21.807-35.446 35.053-45.9 4.27-1.098 9.463-1.657 11.569-2.692 6.393-3.142 12.149-7.858 16.952-12.738 2.415.327 4.63.751 6.48.894l.074-.516c-2.339-.27-4.28-.535-6.178-.769a99.728 99.728 0 008.738-10.339c-.234-.104-.435-.19-.666-.292l-.112.136c-2.783 3.309-5.964 6.958-9.323 10.326-6.284-.708-10.8-.558-17.497 3.373 5.053-9.967 10.137-23.617 9.109-38.734l-.844.135c1.047 13.212-7.273 35.18-14.77 44.952-15.05 10.602-29.25 26.59-37.408 36.591 1.996-25.704 4.244-52.422 5.967-78.18l5.97-6.467.508-2.07-6.085 2.609c.761-11.927 1.402-23.619 1.811-34.816zm52.292 75.25c1.315.003 2.602.098 3.848.236-7.11 7.054-14.987 12.73-21.642 11.16.828-1.39 1.721-2.93 2.644-4.61 4.671-5.456 10.092-6.8 15.15-6.787z"/>
</svg>
