<svg xmlns="http://www.w3.org/2000/svg" width="310" height="247" viewBox="0 0 310 247">
    <g style="transform:matrix(0.83326564,0,0,0.83326564,68.956244,-0.4723207)">
        <path d="M96.732 22.031C84.969 22.27 70.664 32.987 57.33 51.46 24.17 44.37 30.784 64.33 30.784 64.33-3.963 58.54-14.72 75.48 3.025 101.085c-19.594 6.213 1.335 19.353 9.658 23.18-16.642-.673-67.665 5.626-19.71 28.559-54.436 3.293-71.37 33.532-38.368 46.476 14.342 5.624 45.113 4.824 56.252 1.324 6.087 5.899 15.872 7.923 21.535 6.097 41.868 23.146 58.775-3.089 70.794-24.133 7.57 51.158 51.784 45.871 63.552 35.396 3.547 15.696 65.498 15.127 61.141-21.72 30.907-4.492 15.6-39.918 5.632-41.832 7.564-13.335-3.44-27.594-22.525-22.526l18.73 25.891c-42.186-.642-58.264.322-34.13-44.94l15.4 19.05c26.289-45.41-41.39-20.019-66.773-2.414 11.157-11.715 7.683-14.894.805-16.088 17.437-20.866 31.644-37.52 6.436-40.225-1.591-17.045-8.605-27.062-30.57-17.699-3.167-23.444-12.39-33.686-24.152-33.449zM4.574 175.04c1.476.138 2.988.212 4.488.308a35.979 35.979 0 00-2.006 4.443z" style="fill:#7c916f;stroke:none;stroke-width:1.12625742px;stroke-linecap:butt;stroke-linejoin:miter;stroke-opacity:1"/>
        <path style="fill:#483737;stroke:none;stroke-width:1.2186327px;stroke-linecap:butt;stroke-linejoin:miter;stroke-opacity:1" d="M87.593 37.648l-.516.275c-.154 4.056-.273 8.432-.404 12.682h-.013l.013.048c-.338 10.919-.631 22.22-.854 34.12-3.275 2.71-11.122-8.57-18.004-24.015-2.97-6.667-5.555-15.724-7.225-22.049l-.642.44c1.539 8.61 3.501 15.975 5.678 22.247-1.231 1.973-9.401-1.922-18.273-8.083-1.232-.855-2.536-1.878-3.838-2.94l-.894.612c10.933 9.975 19.973 13.362 24.486 14.444 6.616 16.962 14.597 24.875 18.563 27.9-.22 12.856-.402 26.022-.582 39.207-3.097-1.179-5.946-4.267-7.328-10.828l-1.837-.307c1.731 9.23 5.479 14.102 9.07 18.054-.008.513-.017 1.024-.02 1.537-10.76-9.241-21.34-17.266-31.643-23.353l-4.958-.826c.654.367 1.298.717 1.974 1.115 14.387 8.462 27.76 18.54 34.449 35.664-.078 5.363-.169 10.627-.255 15.913-13.248-16.924-37.277-29.332-48.06-33.925-4.115-7.099-8.003-14.377-12.38-21.182.76-1.645 5.66-13.024-1.298-19.566-2.678-2.516-4.647-4.38-7.193-6.298-2.024-2.179-4.99-4.91-5.092-8.729l-.791-.205c-.075 3.06.28 3.6 1.421 5.92-2.416-1.487-5.377-3.144-9.472-5.252.098.576-1.745-.105-1.745-.105 6.006 3.368 31.95 16.952 20.33 28.603-3.535-4.863-7.46-9.356-12.088-13.195-12.311.28-18.588-4.745-19.038-5.971 0 0 .123.75.272 2.698 5.695 3.253 11.653 4.96 17.832 6.023 12.226 8.493 20.433 25.812 24.52 39.01 5.254 3.328 15.608 7.374 26.09 14.85-20.514-6.401-37.99-12.549-46.11-20.706A465.32 465.32 0 011.25 120.61c-.182-3.38.19-5.871.613-8.403l-.473-1.012c-1.073 2.271-2.066 4.374-1.854 7.55-7.973-8.672-11.607-13.477-10.973-13.128l-3.755-2.28c12.017 13.412 25.833 31.577 22.695 31.599 17.445 7.832 35.184 16.211 60.102 25.397 6.638 6.528 12.655 14.911 16.622 25.952-.272 13.686-.597 26.932-1.038 39.172-5.788-8.468-13.243-15.265-20.514-20.32a515.794 515.794 0 01-12.587-6.73c4.244-9.853.392-17.768-10.546-32.544-.015-2.628.291-4.754.647-6.886l-.473-1.013c-.845 1.79-1.642 3.474-1.842 5.658-1.91-2.54-4-5.266-6.282-8.24l-1.112.256c7.185 13.669 24.28 32.305 13.211 39.147C20.002 181.1 3.337 167.957-9.906 151.46c-1.834.542-1.834.903-1.834.903 8.372 11.499 18.98 21.23 29.427 29.17-6.14-.8-12.533-1.862-18.207-4.095-9.282-3.653-16.397-12.386-21.801-21.732.07-1.994 1.379-5.828 1.327-9.237l-.722.134c-.16 1.506.034 3.723-2.012 6.59a128.637 128.637 0 01-3.766-7.562c-1.048 0-.64.074-.86-.054 6.2 17.108 18.796 32.5 28.929 34.619 11 2.3 21.081 5.797 25.67 7.493 10.94 7.46 20.942 12.834 27 16a68.42 68.42 0 012.954 2.07c-9.198-.24-17.264.142-23.807.96-5.038-4.538-21.437-8.878-35.632-13.256l1.771 1.068c10.958 4.29 27.637 7.79 29.04 12.916-4.552.823-8.08 1.891-10.357 3.111-6.433.761-27.271-1.725-41.53-2.892l2.686.949c11.396 1.107 21.407 3.863 38.715 4.111 5.45-1.123 11.959-6.05 44.107-2.848 11.72 10.759 15.852 23.663 20.892 39.868-1.272 22.098-3.143 39.082-6.044 47.244l25.94-.044c-2.502-7.977-4.359-24.623-5.844-46.275 4.631-6.84 11.92-13.173 21.632-21.174 12.06-4.591 22.427-8.98 31.963-13.199l.013.056.195-.147c7.672-3.396 14.835-6.685 21.959-9.883-3.138-.022 10.682-18.187 22.698-31.598l-3.754 2.28c.897-.496-6.576 9.183-23.174 25.857-2.845 2.857-6.857 5.465-11.725 7.926-12.28-16.004 20.81-28.903 28.404-32.113 0 0-2.203.545-1.963-.127-5.027 1.92-8.69 3.465-11.713 4.886 1.8-2.598 2.318-3.189 2.94-6.841l-.925.128c-.993 4.53-4.91 7.355-7.658 9.657-3.264 1.915-5.875 3.853-9.423 6.462-7.562 5.56-7.015 16.21-6.316 21.02-6.492 2.744-14.043 5.342-22.177 7.946 3.776-3.114 7.759-6.428 12.077-10.166 3.704-18.597 8.426-35.696 13.662-50.716 4.553-7.197 9.832-10.096 14.975-13.79l-.505-1.415c-4.087 2.115-8.117 4.22-11.16 6.165 2.65-6.894 5.393-13.277 8.182-19.042l-3.143 2.17c-2.183 2.704-5.012 8.122-9.696 20.804-.038.061-.09.125-.123.186l.02.098c-2.002 5.437-4.338 12.179-7.141 20.738-1.475-2.543-4.17-4.274-7.056-6.122l-.37 1.054c2.382 2.688 4.626 5.331 6.074 9.265a1730.636 1730.636 0 00-8.564 27.263c-16.453 17.018-27.647 20.188-39.254 25.173-.658-12.03-1.222-25.282-1.754-39.002 6.971-9.468 18.447-31.245 26.733-52.231 3.59-1.38 10.395-3.703 20.159-5.745 10.133-2.118 23.099-18.02 29.298-35.128-.22.128.188.053-.86.053a128.613 128.613 0 01-3.765 7.563c-2.046-2.867-1.853-5.085-2.012-6.59l-.722-.134c-.053 3.408 1.257 7.242 1.327 9.237-5.404 9.346-12.52 18.08-21.801 21.732-6.172 2.429-13.19 3.47-19.81 4.297 2.595-6.952 4.781-13.712 6.24-19.777 35.095-16.642 37.224-24.076 43.896-32.108-.555-.51.187-2.676.187-2.676-9.3 10.378-10.937 14.357-30.172 24.04-.893-8.636 3.69-18.08 7.652-26.85l-1.178.596c-4.957 9.688-8.86 19.177-10.521 28.245a530.922 530.922 0 01-13.994 6.5c-7.894 29.592-19.99 50.003-31.265 63.193-.866-24.443-1.653-49.975-2.484-74.888 5.048-5.139 10.097-7.39 15.146-10.263l-.261-1.447c-5.845 2.352-11.654 4.7-15.046 6.852-.187-5.528-.362-11.252-.559-16.654 10.653-5.87 17.912-9.61 27.315-38.39l-.831.639c-2.249 4.948-4.015 9.553-5.72 13.048-.41.84-.85 1.668-1.304 2.49-1.48.967-3.252-2.268-4.31-6.874l-.754.575c.642 4.441 2.137 7.213 2.777 8.776.122.3.042.847-.115 1.467-5.306 7.961-12.264 13.92-17.273 12.5-.295-7.864-.616-15.426-.948-22.807 1.216-1.45 2.28-3.253 3.379-5.592-1.558 1.45-2.177 2.156-3.531 2.392-.201-4.339-.398-8.715-.613-12.864z"/>
        <path d="M24.027 3.804C.924 3.403 1.237 29.08 12.75 40.148c-77.266 36.555-37.916 66.807-1.782 70.87-.86 8.445 10.661 21.677 20.79 26.314-12.477-1.669-26.52-3.632-20.616 11.42-20.31-10.106-63.812-33.331-61.944-.805-24.727-2.029-4.394 23.34 4.475 19.66-25.567 25.796 46.781 38.769 74.363 23.78 18.48-10.978 19.612-15.514 30.57 2.416 33.468 28.25 47.642 21.78 69.183-16.091 9.883 11.88 21.683 6.5 32.983 5.631 5.353 17.246 12.52 18.196 19.309 22.525-19.076 48.583 20.822 24.012 54.703 16.091 43.252 8.73 66.458-5.08 24.192-23.988 4.24-3.722 4.003-6.612-3.275-8.191 31.656 2.823 17.05-16.875 0-28.157 21.648-4.786 8.584-39.872-29.767-37.81 2.654-12.424-16.5-52.577-51.856-19.004 8.74-12.493 4.352-35.966-16.426-31.703 15.137-13.492-1.752-28.42-20.208-43.416-13.99-6.095-23.25-7.555-29.3-6.412 3.228-25.729-34.867-21.092-52.757-8.874-13.357-7.436-23.66-10.466-31.361-10.6zm98.308 42.976c8.935.282 13.1 11.059-7.292 22.13 42.2 26.418 5.524 38.661-7.964 7.395-33.486-8.92-42.885-21.158-1.706-16.496 4.521-9.589 11.6-13.199 16.962-13.03zm56.807 92.52c11.434-.097 21.199 7.178 19.442 17.497-.633 15.562-23.735 20.44-29.452 7.87 0 0-29.04 13.368-30.08-4.652-1.6-19.872 19.394-22.783 22.167-13.874 5.489-4.718 11.935-6.79 17.923-6.84z" style="fill:#bae57f;fill-opacity:1;stroke:none;stroke-width:1.12625742px;stroke-linecap:butt;stroke-linejoin:miter;stroke-opacity:1"/>
        <path style="fill:#ccef7f;fill-opacity:1;stroke:none;stroke-width:1.12625742px;stroke-linecap:butt;stroke-linejoin:miter;stroke-opacity:1" d="M24.36 2.243c-5.422-.094-9.54 1.261-12.54 3.515-3.619 10.368 1.718 28.102 20.572 57.364-37.047 66.042 18.125 65.686 57.118 48.269 1.483 14.62 1.703 53.678 49.135 21.977-2.413 4.132-3.614 10.35 1.694 16.412 4.067-11.835 18.913-12.595 21.214-5.2 5.489-4.718 11.935-6.79 17.924-6.84 11.433-.098 21.198 7.176 19.44 17.496-.632 15.562-23.733 20.439-29.451 7.87-5.328 38.83 21.903 41.19 58.413 33.157 25.629 20.493 42.28 24.07 53.744 17.868-.277-4.683-6.99-10.866-22.312-17.72 4.24-3.723 4.003-6.613-3.275-8.193 31.656 2.824 17.05-16.874 0-28.156 21.648-4.786 8.584-39.872-29.767-37.811 2.654-12.423-16.5-52.577-51.856-19.004 8.74-12.492 4.353-35.965-16.425-31.702 15.136-13.492-1.753-28.42-20.21-43.416-13.989-6.095-23.25-7.556-29.3-6.412 3.229-25.73-34.866-21.092-52.756-8.874-13.357-7.436-23.66-10.467-31.361-10.6zm98.309 42.976c8.936.282 13.1 11.059-7.292 22.129 42.2 26.419 5.524 38.662-7.963 7.395-33.487-8.92-42.886-21.157-1.707-16.495 4.522-9.589 11.6-13.199 16.962-13.03z"/>
    </g>
</svg>
