<svg xmlns="http://www.w3.org/2000/svg" width="310" height="247" viewBox="0 0 310 247">
    <g style="transform:matrix(0.85670353,0,0,0.85670353,69.667891,-5.5427172)">
        <path style="fill:#7c916f;stroke:none;stroke-width:1.09937763px;stroke-linecap:butt;stroke-linejoin:miter;stroke-opacity:1" d="M96.33 28.603c-11.482.232-25.445 10.694-38.46 28.725-32.37-6.92-25.913 12.564-25.913 12.564-33.918-5.653-44.419 10.884-27.097 35.877-19.126 6.065 1.304 18.89 9.427 22.626-16.245-.657-66.05 5.492-19.239 27.878-53.136 3.214-69.667 32.732-37.452 45.367 14 5.49 44.036 4.708 54.91 1.292 5.941 5.758 15.492 7.734 21.02 5.952 40.87 22.593 57.372-3.016 69.105-23.557 7.39 49.937 50.548 44.776 62.035 34.55 3.462 15.322 63.934 14.767 59.682-21.201 30.169-4.385 15.228-38.965 5.497-40.834 7.384-13.016-3.358-26.935-21.987-21.987l18.283 25.272c-41.18-.627-56.874.315-33.316-43.867l15.033 18.595c25.662-44.326-40.402-19.54-65.18-2.356 10.892-11.435 7.5-14.539.786-15.705 17.021-20.367 30.889-36.623 6.283-39.264-1.554-16.638-8.4-26.417-29.84-17.276-3.092-22.886-12.094-32.883-23.576-32.651zM6.374 177.96c1.44.134 2.916.207 4.38.3a35.124 35.124 0 00-1.958 4.338z"/>
        <path d="M87.41 43.846l-.504.269c-.15 3.96-.266 8.23-.394 12.38H86.5l.012.046c-.33 10.658-.616 21.69-.834 33.306-3.196 2.646-10.856-8.366-17.574-23.442-2.9-6.508-5.423-15.35-7.052-21.523l-.627.429c1.502 8.405 3.417 15.595 5.542 21.717-1.202 1.926-9.176-1.877-17.837-7.89-1.202-.835-2.475-1.833-3.746-2.87l-.873.597c10.673 9.737 19.497 13.043 23.902 14.1 6.458 16.557 14.25 24.281 18.12 27.235-.213 12.547-.392 25.4-.568 38.27-3.024-1.15-5.805-4.165-7.153-10.57l-1.794-.3c1.69 9.011 5.349 13.766 8.854 17.623-.006.502-.018 1-.018 1.502-10.503-9.021-20.83-16.855-30.887-22.796l-4.84-.807c.639.358 1.267.7 1.927 1.089 14.044 8.26 27.098 18.097 33.627 34.812-.077 5.235-.165 10.374-.25 15.533-12.93-16.52-36.386-28.631-46.911-33.115-4.018-6.929-7.813-14.033-12.085-20.676.742-1.606 5.525-12.713-1.268-19.099-2.612-2.456-4.534-4.276-7.019-6.148-1.976-2.127-4.872-4.793-4.971-8.52l-.772-.201c-.073 2.987.275 3.513 1.388 5.779-2.36-1.451-5.249-3.069-9.246-5.127.095.563-1.704-.102-1.704-.102 5.862 3.288 31.187 16.548 19.846 27.92-3.451-4.747-7.283-9.133-11.8-12.88-12.018.273-18.145-4.631-18.584-5.829 0 0 .12.734.266 2.634 5.559 3.175 11.375 4.842 17.406 5.88 11.935 8.29 19.946 25.196 23.936 38.08 5.127 3.247 15.235 7.196 25.465 14.494-20.023-6.248-37.082-12.25-45.009-20.212a454.087 454.087 0 01-10.236-10.605c-.178-3.3.186-5.732.599-8.202l-.462-.988c-1.048 2.216-2.017 4.27-1.81 7.369-7.783-8.465-11.33-13.156-10.711-12.814l-3.668-2.225c11.73 13.091 25.217 30.822 22.154 30.844 17.028 7.645 34.344 15.824 58.667 24.79 6.48 6.373 12.353 14.556 16.225 25.333-.265 13.36-.582 26.29-1.013 38.238-5.65-8.266-12.927-14.9-20.024-19.836a503.47 503.47 0 01-12.287-6.57c4.143-9.616.383-17.343-10.295-31.766-.012-2.565.285-4.641.633-6.722l-.462-.988c-.826 1.746-1.603 3.39-1.799 5.522a1024.92 1024.92 0 00-6.132-8.042l-1.086.249c7.014 13.342 23.702 31.534 12.897 38.212-23.124-13.357-39.393-26.187-52.32-42.29-1.79.53-1.79.882-1.79.882 8.173 11.224 18.527 20.723 28.725 28.475-5.994-.783-12.233-1.819-17.772-3.998-9.06-3.566-16.006-12.09-21.281-21.214.068-1.947 1.346-5.689 1.295-9.017l-.705.132c-.155 1.47.031 3.633-1.964 6.433a125.57 125.57 0 01-3.676-7.383c-1.023 0-.624.073-.839-.052 6.052 16.7 18.347 31.724 28.238 33.792 10.738 2.245 20.579 5.659 25.058 7.315 10.68 7.28 20.442 12.528 26.355 15.618a66.784 66.784 0 012.884 2.02c-8.979-.233-16.852.139-23.239.938-4.918-4.43-20.925-8.666-34.781-12.94l1.729 1.042c10.696 4.188 26.976 7.605 28.347 12.608-4.444.804-7.888 1.846-10.11 3.037-6.28.743-26.62-1.684-40.54-2.823l2.622.926c11.125 1.08 20.896 3.771 37.792 4.014 5.32-1.097 11.673-5.906 43.054-2.78 11.44 10.501 15.473 23.097 20.394 38.916-1.242 21.57-3.068 38.149-5.9 46.116l25.32-.042c-2.442-7.787-4.254-24.036-5.704-45.17 4.52-6.678 11.636-12.86 21.116-20.67 11.772-4.482 21.891-8.765 31.2-12.884l.013.054.19-.142c7.488-3.316 14.48-6.526 21.434-9.648-3.063-.022 10.427-17.752 22.156-30.844l-3.664 2.225c.875-.483-6.42 8.965-22.621 25.24-2.777 2.79-6.693 5.335-11.445 7.738-11.987-15.623 20.313-28.213 27.727-31.348 0 0-2.152.533-1.917-.123-4.907 1.874-8.483 3.383-11.433 4.77 1.756-2.536 2.262-3.113 2.87-6.678l-.903.125c-.97 4.422-4.794 7.179-7.475 9.426-3.187 1.87-5.736 3.761-9.199 6.308-7.382 5.428-6.848 15.822-6.165 20.518-6.338 2.679-13.708 5.214-21.648 7.757 3.686-3.04 7.574-6.275 11.79-9.924 3.614-18.153 8.223-34.844 13.335-49.506 4.444-7.024 9.597-9.854 14.617-13.46l-.493-1.382c-3.99 2.065-7.923 4.12-10.893 6.018 2.586-6.73 5.264-12.96 7.987-18.587l-3.069 2.119c-2.13 2.638-4.892 7.927-9.464 20.306-.037.06-.088.122-.12.182l.018.096c-1.955 5.307-4.235 11.888-6.972 20.243-1.439-2.483-4.07-4.172-6.887-5.976l-.361 1.029c2.325 2.623 4.515 5.204 5.928 9.043a1689.356 1689.356 0 00-8.36 26.613c-16.06 16.611-26.987 19.706-38.317 24.572-.641-11.742-1.193-24.678-1.712-38.072 6.805-9.242 18.007-30.498 26.096-50.984 3.505-1.347 10.147-3.614 19.677-5.607 9.891-2.068 22.548-17.59 28.6-34.29-.215.125.183.052-.84.052a125.524 125.524 0 01-3.676 7.383c-1.997-2.8-1.808-4.964-1.964-6.433l-.704-.131c-.05 3.327 1.227 7.07 1.295 9.016-5.275 9.123-12.22 17.648-21.281 21.214-6.024 2.37-12.875 3.387-19.336 4.194 2.532-6.786 4.666-13.385 6.09-19.305 34.258-16.244 36.336-23.501 42.85-31.341-.544-.5.181-2.613.181-2.613-9.078 10.13-10.676 14.015-29.452 23.467-.871-8.43 3.603-17.649 7.47-26.209l-1.15.581c-4.839 9.457-8.649 18.72-10.27 27.571a518.278 518.278 0 01-13.66 6.345c-7.706 28.886-19.513 48.81-30.519 61.685-.845-23.86-1.613-48.783-2.425-73.1 4.928-5.017 9.857-7.214 14.785-10.019l-.255-1.412c-5.705 2.295-11.375 4.587-14.687 6.688-.182-5.397-.353-10.983-.545-16.257 10.399-5.729 17.485-9.38 26.663-37.473l-.811.623c-2.195 4.83-3.92 9.326-5.584 12.737-.4.819-.829 1.628-1.273 2.431-1.444.944-3.174-2.214-4.207-6.71l-.736.56c.627 4.336 2.086 7.042 2.711 8.568.12.292.043.826-.112 1.432-5.18 7.77-11.971 13.588-16.86 12.202a2989.75 2989.75 0 00-.927-22.263c1.187-1.417 2.226-3.176 3.299-5.459-1.52 1.416-2.125 2.105-3.447 2.335-.196-4.235-.39-8.508-.599-12.557z" style="fill:#483737;stroke:none;stroke-width:1.18954766px;stroke-linecap:butt;stroke-linejoin:miter;stroke-opacity:1"/>
        <path style="fill:#bae57f;fill-opacity:1;stroke:none;stroke-width:1.09937763px;stroke-linecap:butt;stroke-linejoin:miter;stroke-opacity:1" d="M25.687 9.286C3.135 8.895 3.442 33.961 14.68 44.763c-75.421 35.682-37.01 65.213-1.739 69.18-.84 8.243 10.407 21.158 20.293 25.684-12.179-1.628-25.886-3.544-20.123 11.149-19.825-9.865-62.29-32.537-60.466-.786-24.137-1.981-4.29 22.783 4.368 19.19-24.956 25.181 45.665 37.844 72.588 23.213 18.04-10.716 19.145-15.144 29.84 2.358 32.67 27.575 46.506 21.26 67.533-15.707 9.647 11.597 21.165 6.345 32.195 5.497 5.226 16.834 12.222 17.762 18.849 21.987-18.621 47.424 20.324 23.439 53.397 15.707 42.22 8.522 64.872-4.959 23.615-23.415 4.138-3.634 3.907-6.455-3.197-7.996 30.9 2.756 16.642-16.472 0-27.485 21.131-4.671 8.379-38.92-29.057-36.909 2.59-12.126-16.105-51.321-50.618-18.55 8.531-12.194 4.249-35.106-16.034-30.945 14.775-13.17-1.71-27.742-19.726-42.38-13.656-5.95-22.696-7.375-28.601-6.26C110.948 3.182 73.763 7.708 56.3 19.635 43.26 12.374 33.204 9.417 25.687 9.286zm95.962 41.95c8.722.277 12.788 10.796-7.118 21.602 41.193 25.788 5.392 37.74-7.773 7.219-32.688-8.707-41.863-20.653-1.667-16.102 4.414-9.36 11.324-12.884 16.558-12.718zM177.1 141.55c11.16-.095 20.692 7.006 18.977 17.079-.618 15.19-23.168 19.952-28.75 7.683 0 0-28.347 13.048-29.36-4.542-1.562-19.398 18.93-22.239 21.637-13.542 5.358-4.606 11.65-6.628 17.496-6.678z"/>
        <path d="M25.687 9.286c-5.294-.092-9.313 1.232-12.241 3.432-3.533 10.12 1.676 27.43 20.08 55.995-36.162 64.465 17.693 64.118 55.755 47.117 1.448 14.27 1.663 52.397 47.963 21.452-2.356 4.033-3.528 10.104 1.653 16.02 3.97-11.552 18.461-12.294 20.708-5.075 5.358-4.606 11.65-6.628 17.496-6.678 11.16-.095 20.692 7.006 18.977 17.08-.618 15.19-23.168 19.95-28.75 7.682-5.2 37.903 21.381 40.206 57.02 32.365 25.017 20.004 41.271 23.496 52.461 17.442-.27-4.572-6.822-10.607-21.779-17.298 4.138-3.634 3.907-6.455-3.197-7.996 30.9 2.756 16.642-16.472 0-27.485 21.131-4.671 8.379-38.92-29.057-36.909 2.59-12.126-16.105-51.321-50.618-18.55 8.531-12.194 4.249-35.106-16.034-30.945 14.775-13.17-1.71-27.742-19.726-42.38-13.656-5.95-22.696-7.375-28.601-6.26C110.948 3.182 73.763 7.708 56.3 19.635 43.26 12.374 33.204 9.417 25.687 9.286zm95.962 41.95c8.722.277 12.788 10.796-7.119 21.602 41.194 25.788 5.393 37.74-7.772 7.219-32.688-8.707-41.863-20.653-1.667-16.102 4.414-9.36 11.324-12.884 16.558-12.718z" style="fill:#ccef7f;fill-opacity:1;stroke:none;stroke-width:1.09937763px;stroke-linecap:butt;stroke-linejoin:miter;stroke-opacity:1"/>
        <g style="transform:matrix(4.1551361,0,0,4.1551361,-595.1214,-13.44021)">
            <g style="transform:matrix(0.87144293,-0.21640102,0.21028126,1.0780753,8.5323063,35.098614)">
                <path d="M166.006 23.76c-.608.04-.793.288-.997.97-.086-.403-.238-.46-.228-.444l-.065-.012c.145.16.225.28.256.58-.091.323-.19.724-.336 1.245h.267c.189-.704.403-1.89 1.274-2.07z" style="fill:#483737;fill-opacity:1;stroke:none;stroke-width:0.26458299px;stroke-linecap:butt;stroke-linejoin:miter;stroke-opacity:1"/>
                <path d="M165.14 24.936c-3.208-1.241-2.504 3.882-.842 3.397 2.99-.872.3-.98.3-.98s1.056 1.594 1.808.855c1.813-1.212.827-4.428-1.267-3.272z" style="fill:#aa0000;stroke:none;stroke-width:0.204622px;stroke-linecap:butt;stroke-linejoin:miter;stroke-opacity:1"/>
                <path d="M163.925 22.9c-.173 1.338.634 1.548.931 1.503.283-.776-.347-1.274-.931-1.503z" style="fill:#bae57f;fill-opacity:1;stroke:none;stroke-width:0.26458299px;stroke-linecap:butt;stroke-linejoin:miter;stroke-opacity:1"/>
            </g>
            <g style="transform:matrix(-0.80270327,0.21341832,0.34151457,1.2844955,280.92147,-70.868799)">
                <path d="M515.967 262.387c-2.296.151-2.997 1.088-3.768 3.664-.325-1.52-.897-1.733-.86-1.676l-.245-.045c.547.609.848 1.056.967 2.195-.345 1.22-.72 2.734-1.272 4.702h1.012c.711-2.66 1.523-7.142 4.812-7.823z" style="transform:scale(0.26458333);fill:#483737;fill-opacity:1;stroke:none;stroke-width:0.99999899px;stroke-linecap:butt;stroke-linejoin:miter;stroke-opacity:1"/>
                <path d="M135.65 70.548c-3.207-.985-2.503 3.081-.841 2.697 2.99-.692.299-.778.299-.778s1.057 1.265 1.808.678c1.813-.962.828-3.514-1.266-2.597z" style="fill:#aa0000;stroke:none;stroke-width:0.182293px;stroke-linecap:butt;stroke-linejoin:miter;stroke-opacity:1"/>
                <path d="M134.435 68.563c-.173 1.339.634 1.548.932 1.503.282-.775-.348-1.274-.932-1.503z" style="fill:#bae57f;fill-opacity:1;stroke:none;stroke-width:0.26458299px;stroke-linecap:butt;stroke-linejoin:miter;stroke-opacity:1"/>
            </g>
            <g style="transform:matrix(0.65973646,0,0,1,85.511294,13.557856)">
                <path style="fill:#483737;fill-opacity:1;stroke:none;stroke-width:0.26458299px;stroke-linecap:butt;stroke-linejoin:miter;stroke-opacity:1" d="M175.92 37.37c-.607.04-.792.288-.996.97-.087-.402-.238-.458-.228-.443l-.065-.012c.145.16.225.28.256.58-.091.323-.19.724-.337 1.244h.268c.188-.703.403-1.889 1.273-2.07z"/>
                <path style="fill:#aa0000;stroke:none;stroke-width:0.182293px;stroke-linecap:butt;stroke-linejoin:miter;stroke-opacity:1" d="M175.054 38.496c-3.207-.985-2.582 2.87-.841 2.696 3.51-.35-.704-.459-.704-.459s1.612.521 2.812.36c1.813-.962.827-3.515-1.267-2.597z"/>
                <path style="fill:#bae57f;fill-opacity:1;stroke:none;stroke-width:0.26458299px;stroke-linecap:butt;stroke-linejoin:miter;stroke-opacity:1" d="M173.84 36.51c-.173 1.34.633 1.548.931 1.504.282-.776-.348-1.274-.931-1.503z"/>
            </g>
            <g style="transform:matrix(-0.71865023,0,0,0.76263166,294.60734,-30.132649)">
                <g style="transform:translate(-23.61596,16.471474)">
                    <path d="M172.861 61.613c-.607.04-.793.288-.997.97-.086-.402-.237-.459-.227-.444l-.065-.012c.145.161.224.28.256.581-.092.323-.19.724-.337 1.244h.268c.188-.704.403-1.89 1.273-2.07z" style="fill:#483737;fill-opacity:1;stroke:none;stroke-width:0.26458299px;stroke-linecap:butt;stroke-linejoin:miter;stroke-opacity:1"/>
                    <path d="M171.995 62.738c-3.208-.984-2.2 2.742-.841 2.697.685-.18.911-.253 1.724-.056 1.813-.962 1.21-3.558-.883-2.64z" style="fill:#aa0000;stroke:none;stroke-width:0.182293px;stroke-linecap:butt;stroke-linejoin:miter;stroke-opacity:1"/>
                    <path d="M170.78 60.753c-.173 1.339.634 1.548.932 1.503.282-.775-.348-1.274-.932-1.503z" style="fill:#bae57f;fill-opacity:1;stroke:none;stroke-width:0.26458299px;stroke-linecap:butt;stroke-linejoin:miter;stroke-opacity:1"/>
                </g>
            </g>
            <g style="transform:matrix(0.69687274,-0.10475554,0.11318778,0.53606237,77.327115,21.846595)">
                <path d="M142.773 57.058c-.501-.078-.735.2-1.131 1.032.068-.535-.034-.64-.031-.618l-.048-.029c.06.238.084.407.007.8-.184.396-.4.89-.695 1.527l.215.057c.391-.864.968-2.341 1.728-2.387z" style="fill:#483737;fill-opacity:1;stroke:none;stroke-width:0.27799499px;stroke-linecap:butt;stroke-linejoin:miter;stroke-opacity:1"/>
                <path d="M141.693 58.318c-2.238-1.95-2.836 2.722-1.596 3.284.716.05.914.192 1.726.322 1.784-.849 1.865-4.338-.13-3.606z" style="fill:#aa0000;stroke:none;stroke-width:0.191534px;stroke-linecap:butt;stroke-linejoin:miter;stroke-opacity:1"/>
                <path d="M141.396 55.51c-.595 1.681-.02 2.122.235 2.128.491-.935.156-1.71-.235-2.129z" style="fill:#bae57f;fill-opacity:1;stroke:none;stroke-width:0.27799499px;stroke-linecap:butt;stroke-linejoin:miter;stroke-opacity:1"/>
            </g>
            <g style="transform:matrix(-0.62507543,-0.14678919,-0.15083219,0.7312803,268.56605,35.034584)">
                <path style="fill:#483737;fill-opacity:1;stroke:none;stroke-width:0.26458299px;stroke-linecap:butt;stroke-linejoin:miter;stroke-opacity:1" d="M166.006 23.76c-.608.04-.793.288-.997.97-.086-.403-.238-.46-.228-.444l-.065-.012c.145.16.225.28.256.58-.091.323-.19.724-.336 1.245h.267c.189-.704.403-1.89 1.274-2.07z"/>
                <path style="fill:#aa0000;stroke:none;stroke-width:0.204622px;stroke-linecap:butt;stroke-linejoin:miter;stroke-opacity:1" d="M165.14 24.936c-3.208-1.241-2.504 3.882-.842 3.397 2.99-.872.3-.98.3-.98s1.056 1.594 1.808.855c1.813-1.212.827-4.428-1.267-3.272z"/>
                <path style="fill:#bae57f;fill-opacity:1;stroke:none;stroke-width:0.26458299px;stroke-linecap:butt;stroke-linejoin:miter;stroke-opacity:1" d="M163.925 22.9c-.173 1.338.634 1.548.931 1.503.283-.776-.347-1.274-.931-1.503z"/>
            </g>
            <g style="transform:matrix(-0.69687273,-0.10475554,-0.11318778,0.53606237,253.90775,-0.299063)">
                <path style="fill:#483737;fill-opacity:1;stroke:none;stroke-width:0.27799499px;stroke-linecap:butt;stroke-linejoin:miter;stroke-opacity:1" d="M142.773 57.058c-.501-.078-.735.2-1.131 1.032.068-.535-.034-.64-.031-.618l-.048-.029c.06.238.084.407.007.8-.184.396-.4.89-.695 1.527l.215.057c.391-.864.968-2.341 1.728-2.387z"/>
                <path style="fill:#aa0000;stroke:none;stroke-width:0.191534px;stroke-linecap:butt;stroke-linejoin:miter;stroke-opacity:1" d="M141.693 58.318c-2.238-1.95-2.836 2.722-1.596 3.284.716.05.914.192 1.726.322 1.784-.849 1.865-4.338-.13-3.606z"/>
                <path style="fill:#bae57f;fill-opacity:1;stroke:none;stroke-width:0.27799499px;stroke-linecap:butt;stroke-linejoin:miter;stroke-opacity:1" d="M141.396 55.51c-.595 1.681-.02 2.122.235 2.128.491-.935.156-1.71-.235-2.129z"/>
            </g>
            <g style="transform:matrix(0.94431733,0.19478361,-0.40682631,1.1472815,48.337356,-70.39381)">
                <path style="transform:scale(0.26458333);fill:#483737;fill-opacity:1;stroke:none;stroke-width:0.99999899px;stroke-linecap:butt;stroke-linejoin:miter;stroke-opacity:1" d="M515.967 262.387c-2.296.151-2.997 1.088-3.768 3.664-.325-1.52-.897-1.733-.86-1.676l-.245-.045c.547.609.848 1.056.967 2.195-.345 1.22-.72 2.734-1.272 4.702h1.012c.711-2.66 1.523-7.142 4.812-7.823z"/>
                <path style="fill:#aa0000;stroke:none;stroke-width:0.182293px;stroke-linecap:butt;stroke-linejoin:miter;stroke-opacity:1" d="M135.65 70.548c-3.207-.985-2.503 3.081-.841 2.697.667-.22.835-.208 2.107-.1 1.567-.307.828-3.514-1.266-2.597z"/>
                <path style="fill:#bae57f;fill-opacity:1;stroke:none;stroke-width:0.26458299px;stroke-linecap:butt;stroke-linejoin:miter;stroke-opacity:1" d="M134.435 68.563c-.173 1.339.634 1.548.932 1.503.282-.775-.348-1.274-.932-1.503z"/>
            </g>
            <g style="transform:matrix(-0.77677363,-0.0031959,-0.00368012,0.89446471,280.84291,6.5419267)">
                <path d="M175.92 37.37c-.607.04-.792.288-.996.97-.087-.402-.238-.458-.228-.443l-.065-.012c.145.16.225.28.256.58-.091.323-.19.724-.337 1.244h.268c.188-.703.403-1.889 1.273-2.07z" style="fill:#483737;fill-opacity:1;stroke:none;stroke-width:0.26458299px;stroke-linecap:butt;stroke-linejoin:miter;stroke-opacity:1"/>
                <path d="M175.054 38.496c-3.207-.985-2.582 2.87-.841 2.696 3.51-.35-.704-.459-.704-.459s1.612.521 2.812.36c1.813-.962.827-3.515-1.267-2.597z" style="fill:#aa0000;stroke:none;stroke-width:0.182293px;stroke-linecap:butt;stroke-linejoin:miter;stroke-opacity:1"/>
                <path d="M173.84 36.51c-.173 1.34.633 1.548.931 1.504.282-.776-.348-1.274-.931-1.503z" style="fill:#bae57f;fill-opacity:1;stroke:none;stroke-width:0.26458299px;stroke-linecap:butt;stroke-linejoin:miter;stroke-opacity:1"/>
            </g>
        </g>
    </g>
</svg>
