<svg xmlns="http://www.w3.org/2000/svg" width="160" height="297" viewBox="0 0 160 297">
    <g style="transform:matrix(0.75586192,0,0,0.75586192,-0.83202537,39.29625)">
        <path style="fill:#293629;fill-opacity:1;stroke:none;stroke-width:1.57533181px;stroke-linecap:butt;stroke-linejoin:miter;stroke-opacity:1" d="M150.465 241.465L65.9 247.277c-19.991 2.584-1.749 11.673-37.894-1.194 1.895 8.77 5.394 17.016 9.865 24.255-3.342-1.536-6.841-3.769-10.563-6.99C39.77 284.57 63.11 298.27 76.22 299.274c-.089 4.412-2.534 6.352-5.252 8.95 18.972-.695 26.508-12.008 30.377-28.654.486 11.38 2.062 29.883 33.083 22.941-3.354-1.551-7.968-3.642-11.052-7.304 32.403 9.982 34.778-11.196 62.013-28.504-26.14 6.93-28.673-18.968-34.925-25.24z"/>
        <path style="opacity:1;fill:#1c241c;fill-opacity:1;stroke:none;stroke-width:1.31660557px;stroke-linecap:butt;stroke-linejoin:miter;stroke-opacity:1" d="M90.805 256.52a404.38 404.38 0 00-1.427 9.846c-3.447-.422-9.11-2.06-15.788-3.514l-.276 1.65c3.464 1.148 7.927 3.356 15.23 8.959-.931 8.91-1.23 16.408-.63 21.962 1.77 16.416-.636 33.245 2.134 47.983l19.517-.098-.268-49.565c-1.188-7.514-.538-15.189.394-24.331-6.716-2.78-13.298-6.886-18.886-12.892z"/>
        <path style="opacity:1;fill:#374837;fill-opacity:1;stroke:none;stroke-width:1.18596876px;stroke-linecap:butt;stroke-linejoin:miter;stroke-opacity:1" d="M106.559-45.258L103.5-.838C96.862.892 87.831-8.55 78.885-17.585c2.282 10.242 2.872 24.341 7.677 30.615l-9.354-2.941c1.764 9.15 6 12.113 10.901 13.418-10.338 5.096-20.969 6.365-31.866 4.193 7.268 5.615 11.74 13.419 21.804 12.58-3.354 2.422-6.71.963-10.065.838 8.915 6.1 13.488 4.962 19.289 5.87-11.345 5.05-23.345-1.06-35.22-5.031 3.403 7.863 4.595 12.104 11.688 18.491 0 0-6.213.854-10.9-4.192 4.896 15.487 11.348 25.638 20.177 31.824-7.108 15.8-23.24 4.39-39.415.839l17.611 23.48-11.742 3.354c16.575 7.368 19.8 9.42 30.19 22.643-12.047.906-25.9-1.076-43.608-9.224 4.135 11.16 8.224 17.207 15.096 23.48-1.855 2.312-4.86 6.924-8.386 12.579 5.256-.447 9.95-2.57 16.77 1.679-.46 2.433-2.206 6.459-1.676 11.74 4.586-3.83 6.173-6.161 15.306-3.985-15.267 6.138-16.194 9.451-37.949 7.338 15.805 21.285 21.049 23.53 28.304 23.481-8.986 4.258-10.416 3.763-21.596 4.614 6.6 5.74 9.699 6.541 15.163 13.09-7.747 8.547-12.751 13.492-29.978 10.725 5.075 8.269 16.62 23.057 28.857 34.7-12.66.276-18.653-5.264-18.653-5.264 24.61 22.595 39.096 24.312 49.33 22.563-2.537 3.384-4.56 4.884-10.754 7.626 12.28 3.715 13.916 3.362 26.416-4.193 20.318 7.738 26.114 5.837 34.353.52-4.412-.485-5.522-.636-8.146-2.824 20.265-.948 45.65-9.459 66.88-20.338-11.497 1.452-33.87-19.483-43.786-28.308 7.476-14.432 23.802-20.087 25.558-35.111.854-7.299 8.225-15.687 17.334-20.687-11.756.523-34.095 3.805-41.614 9.022 19.983-26.39 9.319-25.402 24.896-44.835-2.42-.644.404-2.863 5.87-5.872-8.147-3.867-15.302-1.306-23.48 1.677 1.689-2.084 3.877-12.194 23.48-26.835-25.811 3.022-28.942 4.211-42.088-10.797 9.97-5.99 19.65-7.556 27.046-22.598-3.214 2.035-5.501 3.155-7.308 3.796 4.223-7.055 7.572-16.569 8.985-29.899-9.245 17.841-22.406-5.404-32.758-.882-1.677-8.387-8.9-39.738-13.419-40.252z"/>
        <path style="opacity:1;fill:#50624a;fill-opacity:1;stroke:none;stroke-width:1.18596935px;stroke-linecap:butt;stroke-linejoin:miter;stroke-opacity:1" d="M106.559-45.258l-5.523 44.18c-5.293-.585-9.128-4.34-15.99-10.341C88.25.785 94.627 11.5 99.06 14.725l-.046.396c-.719 12.59-2.751 19.505 13.104 26.397-14.607 2.548-17.794 5.926-25.58 13 5.177 6.997 12.357 10.826 20.86 9.451.16 1.524-9.748 7.513-16.144 8.13 2.85 3.436 7.49 5.377 15.726 4.451-12.508 14.424-21.005 23.292-46.26 24.221 10.467 19.423 26.596 21.76 45.521 23.436-8.475 5.023-13.169 7.682-22.888 8.403 4.556.976 6.357.91 9.72 1.661-9.113 10.029-11.14 11.8-22.08 17.545 22.87 14.256 28.518 13.242 43.87 10.747-4.85 6.05-7.912 8.614-12.698 9.092 11.453 18.303 18.37 31.065 39.89 36.359-13.271 13.636-31.964 13.443-46.462 13.956 11.328 9.249 15.83 7.908 27.863 8.23-6.772 4.294-8.35 5.605-16.5 5.844.92 1.672 1.838 3.09 3.848 4.683-12.948 3.226-23.39 3.454-34.226-3.102 21.04 39.02 57.044 45.525 75.748 37.316-5.685-1.877-7.141-3.42-14.778-9.941 17.292 6.945 23.965 7.715 47.842 1.704-7.343-2.2-13.903-5.43-20.643-9.23 3.025-2.252 6.01-4.692 8.901-7.545-8.25.792-12.734-.473-16.931-2.193 5.79-3.132 12.472-8.98 18.735-17.35-4.319-.372-7.193-1.149-9.206-2.145 10.307-7.188 22.436-14.337 30.983-24.449-10.192 1.969-15.96 2.093-34.694-4.772 8.085-10.86 14.564-14.57 25.371-17.018-10.223-1.975-9.618-4.163-32.432 1.65.838-3.644 1.116-5.478 9.79-5.004.53-5.28-1.22-9.305-1.68-11.738 6.821-4.25 11.52-2.126 16.775-1.68-3.526-5.654-6.533-10.266-8.387-12.578 6.87-6.274 10.96-12.32 15.095-23.479-17.709 8.148-31.562 10.128-43.608 9.221 10.39-13.223 13.615-15.275 30.19-22.642l-11.742-3.354 17.609-23.479c-16.175 3.55-32.303 14.96-39.411-.84 8.829-6.186 15.281-16.337 20.178-31.823-4.688 5.046-10.905 4.193-10.905 4.193 7.093-6.387 8.29-10.628 11.692-18.491-11.875 3.971-23.878 10.08-35.223 5.03 8.35-1.22 27.132-4.71 9.224-6.707 10.064.838 14.538-6.966 21.806-12.581-10.897 2.171-21.529.902-31.867-4.194 4.9-1.306 9.138-4.269 10.901-13.418l-9.353 2.941c4.805-6.274 5.395-20.373 7.676-30.614-6.87 11.554-15.16 19.811-21.799 18.082z"/>
    </g>
</svg>
