<svg xmlns="http://www.w3.org/2000/svg" width="210" height="297" viewBox="0 0 210 297">
    <g style="transform:matrix(4.4041915,0,0,4.4041915,-664.53756,-290.43547)">
        <path style="fill:#293629;fill-opacity:1;stroke:none;stroke-width:0.26458299px;stroke-linecap:butt;stroke-linejoin:miter;stroke-opacity:1" d="M175.948 67.601l-2.036 5.07-1.933.883 1.852 2.315.097.04-.6 1.903-5.45 1.298-1.72-1.72.265 3.043.8 2.62 1.73.91.095.494 3.816 1.562-.256.434 3.085.724-3.714.665-5.953-1.323-2.91-2.25v2.779l-2.02 3.303 5.062 4.767 4.325 1.274-.687 1.442-6.813-.467-5.291 4.498-2.25-.926-.132 1.587-3.968.265c2.729 2.538 4.622 5.577 6.574 8.7l7.67-.187 3.556 2.433 4.195-2.398-1.202 2.164 1.964-.655 2.48 3.134.56-1.825 2.563-.346.01.206 8.045 2.152 5.051-3.93 3.461 1.498-.748-1.31 2.432-3.742-5.8-1.684.936-2.058-5.987 3.181-1.568-1.327 1.24-.31-.608-1.029 1.159-.418.265-3.572-6.218 1.587-1.762-.243.703-1.675-1.274.162-2.198-2.345-.187.052 1.25-1.196 1.88 2.864.166-1.62 1.475.251.211.84 1.72-.51.662.113.28-.393 5.144-1.525-1.257-.463 2.05-2.018 1.62-5.49-4.332 2.613.728-1.521-4.432 1.256-1.74-.29 1.145-1.43-1.447-1.069.157-.073.102-1.303 4.27-.264 2.948-3.742-3.462.561-1.642-2.18 1.058-2.513-2.778-1.058.926-1.588-3.572.53-1.323 1.455-1.561-.452-.136-2 1.764-2.31 1.19-.398-1.587-1.058zm-4.867 28.967l.368.109 1.393 2.879-.427-.319z"/>
        <path style="opacity:1;fill:#1c241c;fill-opacity:1;stroke:none;stroke-width:0.221129px;stroke-linecap:butt;stroke-linejoin:miter;stroke-opacity:1" d="M175.299 74.447c-.575 9.514-.113 19.949-.11 30.133-1.92-.773-3.786-1.044-6.89-1.694 2.265 1.05 4.803 1.485 6.807 3.123-.014 5.02-.133 9.9-.522 14.433-.579-.071-1.53-.346-2.651-.59l-.047.277c.582.193 1.332.563 2.558 1.504-.156 1.497-.207 2.756-.106 3.69.298 2.756-.106 5.583.359 8.058l3.278-.017-.045-8.324a663.565 663.565 0 00-.215-9.943c2.02-.8 4.743-1.931 7.096-3.575-1.913.888-4.584 2.348-7.146 1.749-.388-12.823-1.068-25.986-1.601-38.823z"/>
        <path style="fill:#50624a;fill-opacity:1;stroke:none;stroke-width:0.26458299px;stroke-linecap:butt;stroke-linejoin:miter;stroke-opacity:1" d="M175.948 67.601l.677 4.275-1.59 1.356.233 2.061c-.391-.596-.775-1.177-.775-1.177l-2.646.364-.992-1.653-.53 2.249 1.357 1.124-1.588.1.703.899-1.235-.085-1.169-1.17.655 3.696 4.717 3.274-.014.586-2.367.538-2.196-1.732.234 1.24-3.357.275-2.023-1.734.926 7.276 2.116 2.91-.992.794 4.212 1.244-3.484 2.196-2.683-1.9 1.16 2.158-2.71-.721-2.779.463-1.455-1.852-.203 2.235-4.444-1.769 2.059 3.368-2.152-1.123 4.864 6.549 4.016 1.084-1.362 1.099 9.492 2.405-1.107 1.866 6.63-2.485.695-4.465-2.974-1.746 2.655-2.069 1.997 5.597 2.565 1.414-2.689 1.93-1.455 3.308 7.21 1.653h5.49l-2.381-1.124 4.653-1.616 2.788.359 3.627-8.24-9.307 2.011-1.497 1.498.561-2.386 2.76-.468-1.31-1.356 4.256-.561 2.807-6.268-4.584.982-.655-.982-.251 1.364-3.517 1.243-5.299.368 1.303-1.993-4.443 1.497-1.108-.23 1.646-1.5.725-.515 1.583-1.022 3.542-.375-1.467-.965 2.282-1.473 3.46-4.958-5.425-.842.06-1.058 2.48-2.081 3.935-.265s-2.944-2.712-3.076-2.712c-.132 0-1.885-.53-1.885-.53l2.745-2.215-3.342.096.564-.89-3.477.575.401-1.236 1.62-1.918-1.78-.232.726-2.782-2.572.609-.328-1.263-1.45 1.683-1.17-.42zm-.502 9.26l.15 1.329 1.296.974.436 1.181-1.522-.144-1.435-2.689zm.502 5.325l2.315 1.323 3.147-1.08 2.47 2.62-.988 1.28-.703.316.189-1.72-2.533 2.777-1.724.778-2.199-.877-.371-2.936-1.06-1.089zm-.071 11.065l1.267.653-2.834 2.06 1.87.07.66 1.32-.892-.186-.085 1.318-1.464-.556-2.228-3.068.867.256z"/>
        <path d="M182.794 75.638l-1.687.496.563.992-2.216-.96-1.919-.33 3.043 2.415 1.814-1.377zm-14.4.307l.654 3.695 4.717 3.274-.014.586.74.078 1.457-1.392 2.315 1.323 3.147-1.08 2.47 2.62.634-.978-.066.825 2.48-2.081 2.347-.158-4.371-.726-.754.487.52-.72-4.77-.912.7-.585-3.708-1.037.436 1.181-1.522-.144-.416-.78-1.02-1.909-2.688-1.312-1.588.1.703.899-1.235-.085zm-4.327 6.34l.9 7.078 2.117 2.91-.992.794 4.212 1.244-1.762 1.11-1.722 1.086 3.133.272 2.89 2.777-7.163 3.89.655-1.683-5.706.093-6.918-6.727 2.054 3.36-2.152-1.123 4.864 6.549 4.016 1.084-1.362 1.099 9.492 2.405-1.107 1.866 6.63-2.485.695-4.465-2.974-1.746 2.655-2.069 1.997 5.597 2.565 1.414-2.689 1.93-1.455 3.308 7.21 1.653h5.49l-2.381-1.124 4.653-1.616 2.788.359.904-2.053-5.5.995-3.002-1.943 1.074-2.384-.653.653.561-2.385 2.76-.468-1.31-1.356 4.256-.561-2.993-1.216.561-1.31-8.559 3.508-4.911-3.695 1.803-1.258-.54.182-1.108-.23 1.646-1.5.725-.515.343-.222-1.899.015-.43-2.976-1.19.066.364-.794-2.91-2.249-4.366-.198 1.653-1.39-5.292 1.257zm25.748 4.51c-1.045.65-1.881 1.876-3.151 1.907l-.034 1.025-1.587-.463-3.506 1.356 2.282 1.587-1.025.232 1.278.788 2.281-1.473z" style="fill:#374837;fill-opacity:1;stroke:none;stroke-width:0.26458299px;stroke-linecap:butt;stroke-linejoin:miter;stroke-opacity:1"/>
    </g>
</svg>
