<svg xmlns="http://www.w3.org/2000/svg" width="210" height="197" viewBox="0 0 210 197">
    <g style="transform:matrix(3.1783077,0,0,3.1783077,-243.98413,-631.25869)">
        <path style="fill:#7c916f;fill-opacity:1;stroke:none;stroke-width:0.26458299px;stroke-linecap:butt;stroke-linejoin:miter;stroke-opacity:1" d="M97.155 199.231c-.78.033-2.278.507-2.913 1.416.041-.294.05-.657-.006-1.002-1.035.1-2.634 1.46-3.563 2.232-1.389-.779-3.492-1.173-5.49-.86.916.703 1.215 1.08 1.389 1.39 0 0-2.71 1.085-5.027 3.703-4.736 5.878-4.306 14.726-2.535 18.944 1.344 3.91 5.923 7.994 5.923 7.994l.28-2.579s1.036 2.505 2.77 4.864c2.853 3.883 7.79 9.188 7.79 9.188 1.256-2.088 2.386-3.928 3.405-5.694l.292 1.878c2.486-2.337 3.427-5.575 4.961-8.467l-2.395 1.023c.284-.657.555-1.325.808-2.015l8.07-1.059 3.677 10.566c.72-1.758 1.942-3.516 1.879-5.274-.047.861.349 1.501.794 2.117 1.373-2.479 1.1-3.229 1.323-4.498.277 5.483 2.71 10.508 5.556 14.155 2.285-1.787 4.425-3.823 5.013-6.163.037.907.648 1.782 1.337 2.327 1.1-1.064 1.212-1.806 1.307-2.49.1.255.155.464.359.801.706-.826 1.075-1.504 1.244-2.412.813 1.848 1.621 3.364 2.117 6.085 2.94-4.686 4.967-9.2 5.39-13.95.657-5.995-.34-11.469-3.572-15.716-1.038-1.365-2.598-2.671-4.729-2.349.717-.403.997-1.075 1.323-1.72-1.284-.181-2.435.11-3.44.927-.515-.758-1.821-2.738-3.813-3.026-.167 1.155.346 1.951.639 2.232 0 0-1.786-1.687-5.887-1.29-2.451.237-4.483.979-5.735 1.54.023-.238.136-.554.313-.924 0 0-.795-.047-1.263.468-.468.514-.418 1.072-.418 1.072l.034.055-.009.005-.025-.06c-.13-.317-1.696-4.031-5.253-6.97-5.12-4.227-11.375-5.038-13.058-4.69.713-.926.908-1.217 1.138-1.774z"/>
        <path style="fill:#9cb079;fill-opacity:1;stroke:none;stroke-width:0.26458299px;stroke-linecap:butt;stroke-linejoin:miter;stroke-opacity:1" d="M97.155 199.231c-1.791.3-2.101 1.304-3.034 1.822-.084.047-.605.27-.69.318.407-.51.719-1.079.805-1.726-1.035.1-2.634 1.46-3.563 2.232 0 .031.929.113 1.803.067-2.27.529-5.708 2.434-6.975 3.92-2.664 3.518-3.112 6.711-3.129 8.15-.13 4.182 2.318 8.34 3.539 10.816.349-.943.674-1.6.987-2.117 3.33 6.752 8.204 10.348 8.204 10.348 1.373-2.266 2.212-4.906 2.339-8.045 1.752 1.811 1.518 2.258 2.152 3.419a18.404 18.404 0 012.457-1.64l.268-3.923 7.852.513c-.015-2.862-.143-5.139 1.184-7.297 1.233-2.006 2.974-3.423 2.974-3.423-.13-.317-1.696-4.031-5.253-6.969-5.12-4.228-11.375-5.039-13.058-4.69.714-.926.908-1.218 1.138-1.775zm-7.594 2.66c-.67-.575-1.373-.966-2.873-.981a9.14 9.14 0 00-1.505.107c.079.06.13.106.2.162.306.228.957.803 2.235 1.036 1.182.215 1.943-.323 1.943-.323z"/>
        <path style="fill:#483737;fill-opacity:1;stroke:none;stroke-width:0.26458299px;stroke-linecap:butt;stroke-linejoin:miter;stroke-opacity:1" d="M94.102 206.216c.222 5.04 1.87 11.384 3.602 16.95-1.206 1.673-3.363-.01-12.403-7.891l.31 1.242c9.789 9.42 10.857 10.809 14.058 12.618l.111.328c1.385 4.017.112 5.028 2.968 8.38 2.172 5.146 8.197 11.9 3.042 14.817-6.451-1.235-7.608 4.914-11.112 7.937h30.691c-11.162-4.077.62-7.632-6.482-16.14l-5.953-10.98c.676-2.21 1.504-3.603 3.556-3.673 1.99.023 4.98 1.85 6.493 2.926 8.219 5.843 10.32 4.792 12.673 3.473l.008-.476c-3.23 1.075-6.79.138-7.753-3.447 4.212-1.211 9.885-5.72 12.043-8.427l1.026-2.414c-4.7 4.299-9.774 6.834-13.275 7.686-4.458 1.086-7.383-1.003-11.867-5.323-2.608.991-5.418 3.95-8.43 4.503-7.175-5.016-9.417-13.997-11.468-21.302z"/>
        <path style="fill:#352b2b;fill-opacity:1;stroke:none;stroke-width:0.26458299px;stroke-linecap:butt;stroke-linejoin:miter;stroke-opacity:1" d="M94.102 206.216c.222 5.04 1.87 11.384 3.602 16.95-1.206 1.673-3.363-.01-12.403-7.891l.31 1.242c9.789 9.42 10.857 10.809 14.058 12.618l.111.328c1.385 4.017.112 5.028 2.968 8.38l.045.103c.13-2.686 1.52-6.661 4.122-8.89-3.74 5.926-1.952 9.735.372 13.34a49.44 49.44 0 00-3.169-1.816c.108.195.215.391.326.589 14.746 7.838 9.726 13.742-.317 11.378-.06-.016-.114-.027-.172-.041a6.338 6.338 0 00-.976.106c.31.045.64.112 1.003.208 9.73 2.29 15.04-2.697 4.135-9.896-2.029-3.045-4.746-5.996-1.88-12.23.502-1.089 1.355-2.017 2.328-2.716l-1.156.327c-7.176-5.016-9.418-13.997-11.468-21.302zm21.736 17.586c1.982 4.146 5.904 5.935 9.459 8.17 3.07 4.053 6.672 5.404 10.361 3.757-3.23 1.075-6.79.138-7.753-3.447l.006-.002-.052-.012a23.863 23.863 0 01-10.022-5.78c-.735-.714-1.328-1.723-1.999-2.686zm-1.161 5.049c-7.222 1.496-4.698 4.255-2.02 9.266.504.509 1.078 1.405 1.885 2.279 4.235 8.484 5.307 10.335 4.197 15.481-.432 2.002 1.14 2.377 3.114 2.976-.2-.15-.377-.298-.533-.449-1.33-.497-2.403-1.183-2.245-2.419 1.069-8.385-2.135-9.636-4.188-15.222.147.155.304.312.456.469 2.435 5.11 5.098 8.23 4.416 11.25-.647 2.863-.147 4.516.955 5.183a3.036 3.036 0 01-.108-.192c-.76-.873-.84-2.698-.536-4.438.738-4.227-1.284-6.09-4.42-11.489 1.124 1.138 2.348 2.265 3.382 3.09l-.145-.178-5.953-10.98c.676-2.21 1.504-3.604 3.556-3.674 1.99.023 4.98 1.85 6.493 2.926a51.86 51.86 0 003.312 2.188c-5.336-4.593-9.22-6.133-11.619-6.067zm-10.085 12.582l.305.543c11.793 6.466 8.837 11.401 1.221 10.481-.104.07-.212.137-.328.203a9.102 9.102 0 00-.995-.133c9.123 1.753 13.31-3.773-.203-11.094zm9.996 9.441c-2.608 3.804-7.54 3.985-11.777 6.306-1.472.805-2.462 2.513-3.985 3.417h1.73c.847-1.098 1.488-2.195 2.408-2.802 3.625-2.395 9.36-3.059 11.624-6.921z"/>
        <path style="transform:scale(0.26458333);fill:#9cb079;fill-opacity:1;stroke:none;stroke-width:0.99999899px;stroke-linecap:butt;stroke-linejoin:miter;stroke-opacity:1" d="M478.785 792.063c-.63 4.367 1.306 7.375 2.414 8.437 0 0-4-.933-8.482-.379-17.981.963-27.74 6.004-32.051 14.715 3.126-1.49 5.196-1.662 7-1.5-4.173 5.28-6.204 9.388-6.977 12.807l6.069-3.864c-10.375 13.224-7.747 27.11-3.643 37.973 1.404-2.624 4.736-6.629 6.694-7.748-7.368 25.809 19.076 55.13 30.91 63.244 12.435-8.56 16.327-9.76 17.95-23.203.25 2.693.933 4.503 2.397 7.285 10.175-6.196 13.729-9.07 16.942-16.14l4.215 14.048c2.778-2.046 5.577-4.87 8.103-9.845a84.803 84.803 0 002.194-12.622l4.173 4.9c.39-25.866-5.256-48.052-17.62-64.794-3.925-5.159-9.821-10.097-17.874-8.877 2.71-1.525 3.767-4.066 5-6.5-4.854-.686-9.206.415-13 3.5-1.95-2.865-6.886-10.348-14.414-11.437zm4.393 59.74c12.687.044 16.403 14.013 15.468 21.724-2 8.25-6.695 13.473-6.695 13.473l-2-3.5c-2.32 4.705-2.56 8.89-8.5 14.5 0 0-4.5-3.75-8.115-13.12-3.616-9.369 1.115-14.88 1.115-14.88l-4.887 3.746c-.481-.588.614-20.1 13.614-21.943z"/>
        <g style="transform:translate(-63.44707,78.391017)">
            <path style="fill:#483737;fill-opacity:1;stroke:none;stroke-width:0.26458299px;stroke-linecap:butt;stroke-linejoin:miter;stroke-opacity:1" d="M204.427 143.048c-4.7 4.299-9.774 6.834-13.275 7.687-.467.113-.917.19-1.355.235a14.363 14.363 0 00-1.053 2.611l1.293-.99s-1.252 1.457-.295 3.936c5.542 3.33 7.362 2.405 9.361 1.285l.008-.476c-3.23 1.075-6.79.138-7.753-3.447 4.213-1.211 9.885-5.72 12.043-8.427z"/>
            <path style="fill:#352b2b;fill-opacity:1;stroke:none;stroke-width:0.26458299px;stroke-linecap:butt;stroke-linejoin:miter;stroke-opacity:1" d="M188.912 153.049c-.108.318-.168.532-.168.532l.513-.393c-.116-.045-.23-.093-.345-.14zm.722.279a3.78 3.78 0 00-.237 1.062c2.922 3.416 6.278 4.48 9.708 2.948-3.23 1.075-6.79.138-7.753-3.447l.006-.002-.051-.012a23.905 23.905 0 01-1.673-.55z"/>
        </g>
        <path style="fill:#9cb079;fill-opacity:1;stroke:none;stroke-width:0.26458299px;stroke-linecap:butt;stroke-linejoin:miter;stroke-opacity:1" d="M101.322 221.456c.48 1.42.69 2.922 1.742 4.17.062-.368.17-.61.408-.978-.053 2.23 1.103 3.573 2.134 4.858.563-2.103 1.918-3.475 4.564-6.12z"/>
    </g>
</svg>
