<svg xmlns="http://www.w3.org/2000/svg" width="210" height="180" viewBox="0 0 210 180">
    <g style="transform:matrix(2.9196779,0,0,2.9196779,-9.4902597,-578.72161)">
        <path style="transform:scale(0.26458333);fill:#7c916f;fill-opacity:1;stroke:none;stroke-width:0.99999899px;stroke-linecap:butt;stroke-linejoin:miter;stroke-opacity:1" d="M110.59 751.135c-2.95.126-8.61 1.915-11.008 5.35.154-1.11.185-2.48-.027-3.786-3.911.376-9.955 5.516-13.465 8.436-5.248-2.945-13.2-4.436-20.75-3.25 3.462 2.656 4.591 4.078 5.25 5.25 0 0-10.244 4.102-19 14-7.926 12.683-12.608 24.597-13.594 38.172C35.461 850.2 51.398 888.138 55.32 919.53c2.204 18.582 2.711 36.69-7.26 47.07-3.651 3.455-10.533 4.067-17.757 2.866-2.66-.523-5.433-2.031-10.303-10.967.756 6.345-.993 14.196 2.068 16.947 6.483 5.827 32.387 6.235 54.758 6.676 10.81-7.972 12.977-12.502 12.977-12.502l-1.785 11.162c19.584-11.376 27.24-36.441 27.24-36.441l-.354 11.666s6.719-5.304 10.608-15.203C129.4 930.905 129 909.5 129 909.5s4.25 8.5 4.25 12v5.75l3.75-5s3.75 7 2.5 15.25-7 23.75-7 23.75l-6.504 20.46c26.55-1.698 65.857-5.052 73.227-10.45C210.5 963 214.5 951 214.5 951c1.76 9.117 5.028 13.919 8.063 18.188.235-3.09.4-6.18 1.76-9.27-1.658 4.56 2.337 16.716 8.677 18.082 6.354 1.37 52.5 1.5 52.5 1.5s-11.5-1-14.5-9-1.5-45-1.5-45l4.217-39.473v-.002c1.089-4.333 1.853-8.697 2.248-13.115 2.48-22.659-1.29-43.346-13.502-59.398-3.925-5.16-9.82-10.098-17.873-8.877 2.709-1.525 3.767-4.067 5-6.5-4.855-.687-9.206.415-13 3.5-1.951-2.866-6.886-10.349-14.414-11.438-.63 4.367 1.305 7.376 2.414 8.438 0 0-6.75-6.375-22.25-4.875-9.263.896-16.943 3.699-21.676 5.82.086-.9.515-2.093 1.184-3.492 0 0-3.006-.177-4.774 1.767-1.767 1.945-1.58 4.051-1.58 4.051l.129.21-.033.019-.096-.229c-.488-1.195-6.409-15.234-19.853-26.338-19.348-15.979-42.993-19.044-49.352-17.728 2.696-3.499 3.432-4.6 4.3-6.705z"/>
        <path d="M29.26 198.738c-1.79.3-2.1 1.303-3.033 1.822-.085.047-.605.27-.69.318.406-.51.718-1.08.804-1.726-1.035.1-2.634 1.46-3.563 2.232 0 .03.929.112 1.804.067-2.27.528-5.708 2.434-6.976 3.92-2.663 3.517-3.112 6.71-3.129 8.149-.13 4.182 2.318 8.34 3.54 10.816.348-.943.673-1.6.986-2.117 3.985 5.911 6.754 16.43 6.754 16.43 3.058-3.202 5.801-11.784 3.789-14.126 2 1.533 1.518 2.258 2.153 3.418a18.402 18.402 0 012.456-1.64l.268-3.922 7.852.513c-.015-2.863-.142-5.14 1.184-7.297 1.234-2.007 2.974-3.424 2.974-3.424-.129-.316-1.696-4.03-5.253-6.968-5.119-4.228-11.375-5.04-13.057-4.691.713-.926.908-1.217 1.137-1.774zm-7.594 2.66c-.67-.576-1.373-.967-2.873-.982a9.14 9.14 0 00-1.505.108c.08.06.13.106.2.162.306.228.958.802 2.236 1.035 1.182.216 1.942-.323 1.942-.323z" style="fill:#9cb079;fill-opacity:1;stroke:none;stroke-width:0.26458299px;stroke-linecap:butt;stroke-linejoin:miter;stroke-opacity:1"/>
        <path style="transform:scale(0.26458333);fill:#5a6c56;fill-opacity:1;stroke:none;stroke-width:0.99999899px;stroke-linecap:butt;stroke-linejoin:miter;stroke-opacity:1" d="M119.502 838.982s-4.95 36.417-9.193 48.084C106.066 898.734 93 916.5 93 916.5l-4-12s-3.087 28.528-8.39 43.377c-5.304 14.85-22.231 24.574-32.526 26.87C43.537 975.76 26.106 982.011 20 958.5c-.7 5.214-2.875 8.296.93 15.201-.51 1.357-7.925 4.542-8.645 4.58 17.975 1.672 46.545 8.653 64.498 4.59 4.48-1.014 8.891-6.802 13.02-13.25l-1.787 11.166c19.587-11.375 26.358-31.319 26.358-31.319l.53 6.54s6.464-5.12 10.381-14.668c-3.326 29.98-8.38 41.73-8.38 41.73l9.003-1.207-.256.8c28.238.128 71.835.15 79.405-5.393C216.334 969.01 214.5 951 214.5 951s-2.82-26.117-7.07-34.367c-4.25-8.25-13.68-18.383-13.68-18.383l1.791 7.379s-7.535-3.459-10.62-10.19c-.439-.96-3.743-6.215-5.171-14.689l-10.572 17.354z"/>
        <path d="M26.207 205.723c.223 5.04 1.87 11.384 3.603 16.95-1.207 1.673-3.364-.01-12.404-7.892l.31 1.242c9.79 9.42 10.857 10.81 14.058 12.618l.111.328c1.385 4.017.112 5.029 2.968 8.38 2.173 5.147 8.197 11.9 3.042 14.817-6.45-1.235-7.608 4.914-11.112 7.938h30.692c-11.163-4.077.619-7.632-6.483-16.14l-5.953-10.98c.677-2.21 1.504-3.604 3.557-3.674 1.99.023 4.978 1.85 6.492 2.927 8.219 5.843 10.32 4.791 12.673 3.473l.008-.476c-3.23 1.075-6.79.137-7.753-3.448 4.213-1.21 9.885-5.72 12.043-8.426l1.026-2.414c-4.7 4.298-9.773 6.833-13.274 7.686-4.459 1.086-7.384-1.003-11.868-5.323-2.608.99-5.418 3.95-8.43 4.502-7.175-5.015-9.417-13.996-11.467-21.301z" style="fill:#483737;fill-opacity:1;stroke:none;stroke-width:0.26458299px;stroke-linecap:butt;stroke-linejoin:miter;stroke-opacity:1"/>
        <path d="M26.207 205.723c.223 5.04 1.87 11.384 3.603 16.95-1.207 1.673-3.364-.01-12.404-7.892l.31 1.242c9.79 9.42 10.857 10.81 14.058 12.618l.111.328c1.385 4.017.112 5.029 2.968 8.38.014.035.03.07.045.104.13-2.686 1.52-6.662 4.122-8.89-3.74 5.925-1.952 9.735.373 13.34a49.444 49.444 0 00-3.17-1.817c.108.196.215.392.326.59 14.746 7.838 9.727 13.741-.316 11.377-.06-.016-.114-.026-.173-.04a6.338 6.338 0 00-.976.105c.31.045.641.112 1.003.208 9.73 2.29 15.04-2.696 4.135-9.896-2.029-3.045-4.746-5.995-1.879-12.23.5-1.088 1.355-2.017 2.327-2.715l-1.156.326c-7.176-5.015-9.418-13.996-11.468-21.301zm21.736 17.586c1.982 4.145 5.904 5.934 9.46 8.17 3.068 4.053 6.671 5.403 10.36 3.757-3.23 1.075-6.79.137-7.753-3.448l.006-.002-.051-.012a23.864 23.864 0 01-10.023-5.78c-.735-.713-1.328-1.723-1.999-2.685zm-1.161 5.049c-7.222 1.495-4.697 4.254-2.02 9.265.504.51 1.078 1.405 1.885 2.28 4.235 8.484 5.307 10.334 4.197 15.48-.432 2.002 1.14 2.378 3.115 2.977-.201-.15-.378-.299-.534-.45-1.33-.496-2.403-1.182-2.245-2.418 1.069-8.386-2.134-9.636-4.187-15.222.146.154.303.312.455.468 2.435 5.11 5.098 8.23 4.416 11.25-.646 2.863-.147 4.516.955 5.183a3.036 3.036 0 01-.108-.192c-.76-.872-.84-2.698-.536-4.438.739-4.226-1.283-6.09-4.42-11.488 1.124 1.138 2.348 2.265 3.382 3.09-.048-.06-.094-.118-.145-.179l-5.953-10.98c.677-2.21 1.504-3.604 3.557-3.674 1.99.023 4.978 1.85 6.492 2.927a51.856 51.856 0 003.312 2.188c-5.336-4.593-9.219-6.134-11.618-6.067zM36.698 240.94l.304.542c11.793 6.466 8.837 11.402 1.222 10.482-.105.07-.213.137-.329.202a9.1 9.1 0 00-.994-.133c9.123 1.754 13.31-3.773-.203-11.093zm9.995 9.44c-2.607 3.804-7.54 3.985-11.777 6.306-1.471.806-2.462 2.514-3.985 3.418h1.73c.847-1.098 1.489-2.195 2.408-2.802 3.625-2.395 9.36-3.06 11.624-6.921z" style="fill:#352b2b;fill-opacity:1;stroke:none;stroke-width:0.26458299px;stroke-linecap:butt;stroke-linejoin:miter;stroke-opacity:1"/>
        <path style="transform:scale(0.26458333);opacity:1;fill:#9cb079;fill-opacity:1;stroke:none;stroke-width:0.99999899px;stroke-linecap:butt;stroke-linejoin:miter;stroke-opacity:1" d="M222.176 790.197c-.63 4.367 1.306 7.376 2.414 8.438 0 0-4.002-.934-8.485-.38-17.98.964-27.738 6.004-32.048 14.716 3.125-1.491 5.196-1.662 7-1.5-4.173 5.28-6.204 9.388-6.977 12.806l6.068-3.863c-10.374 13.224-7.746 27.11-3.642 37.973 1.404-2.624 4.735-6.63 6.693-7.748-7.367 25.809 19.076 55.13 30.91 63.244 13.082 10.277 24.077 22.733 24.369 23.207 2.058 3.343 1.917 9.346 1.485 16.797 3.342-3.535 5.965-7.07 7.424-10.606 0 0-1.06 7.425-.707 18.032.306 9.198 12.056 17.033 23.584 18.158 2.466.015 5.236.029 5.236.029s-11.5-1-14.5-9-1.5-45-1.5-45l4.217-39.473v-.002c.01-.038.018-.077.027-.115.232-.928.446-1.86.647-2.79.08-.376.154-.752.23-1.128a86.031 86.031 0 00.592-3.236c.066-.407.125-.815.185-1.223.087-.588.176-1.177.25-1.767l.002-.008c.12-.948.23-1.896.315-2.848 2.48-22.659-1.29-43.346-13.502-59.399-3.925-5.158-9.82-10.097-17.873-8.876 2.709-1.526 3.767-4.067 5-6.5-4.855-.687-9.206.415-13 3.5-1.951-2.866-6.886-10.349-14.414-11.438zm4.392 59.74c12.688.044 16.403 14.014 15.47 21.725-2 8.25-6.696 13.473-6.696 13.473l-2-3.5c-2.321 4.705-2.56 8.89-8.5 14.5 0 0-4.5-3.75-8.115-13.12-3.616-9.369 1.115-14.88 1.115-14.88l-4.887 3.746c-.481-.589.613-20.1 13.613-21.943z"/>
        <g style="transform:translate(-131.34184,77.897596)">
            <path d="M204.427 143.048c-4.7 4.299-9.774 6.834-13.275 7.687-.467.113-.917.19-1.355.235a14.363 14.363 0 00-1.053 2.611l1.293-.99s-1.252 1.457-.295 3.936c5.542 3.33 7.362 2.405 9.361 1.285l.008-.476c-3.23 1.075-6.79.138-7.753-3.447 4.213-1.211 9.885-5.72 12.043-8.427z" style="fill:#483737;fill-opacity:1;stroke:none;stroke-width:0.26458299px;stroke-linecap:butt;stroke-linejoin:miter;stroke-opacity:1"/>
            <path d="M188.912 153.049c-.108.318-.168.532-.168.532l.513-.393c-.116-.045-.23-.093-.345-.14zm.722.279a3.78 3.78 0 00-.237 1.062c2.922 3.416 6.278 4.48 9.708 2.948-3.23 1.075-6.79.138-7.753-3.447l.006-.002-.051-.012a23.905 23.905 0 01-1.673-.55z" style="fill:#352b2b;fill-opacity:1;stroke:none;stroke-width:0.26458299px;stroke-linecap:butt;stroke-linejoin:miter;stroke-opacity:1"/>
        </g>
        <path d="M33.428 220.963c.48 1.42.688 2.922 1.74 4.17.063-.369.17-.61.41-.979-.054 2.23 1.102 3.574 2.133 4.859.563-2.104 1.919-3.475 4.564-6.121z" style="fill:#9cb079;fill-opacity:1;stroke:none;stroke-width:0.26458299px;stroke-linecap:butt;stroke-linejoin:miter;stroke-opacity:1"/>
    </g>
</svg>
