<svg xmlns="http://www.w3.org/2000/svg" width="370" height="147" viewBox="0 0 370 147">
    <path style="fill:#304121;fill-opacity:1;stroke:none;stroke-width:1.04721415px;stroke-linecap:butt;stroke-linejoin:miter;stroke-opacity:1" d="M77.378 15.323L71.383 6.93v10.79l-5.395-5.995 2.998 8.392s-14.387 4.796-25.776 11.99C31.82 39.3 25.227 44.095 21.63 50.69c-3.597 6.594 2.997 15.585 5.395 19.781 2.398 4.196 0 13.188 0 13.188l-2.997-8.392-1.2 8.392s-1.798-2.398-3.596-5.395c-1.798-2.997-5.994-4.196-5.994-4.196s1.798 4.196 2.398 6.594c.599 2.397.599 6.593.599 6.593s-2.997-1.198-4.196-3.596c-1.199-2.398-4.196-3.597-4.196-3.597s.6 7.193.6 12.588 5.994 14.986 10.79 17.984c4.795 2.997 71.932 25.775 113.893 30.571 41.96 4.795 187.624-6.594 197.215-7.193 9.59-.6 21.58-13.787 23.378-16.785 1.798-2.997-.6-7.193 1.798-10.79 2.398-3.596 3.597-10.79 3.597-10.79l-4.796 6.594-4.196 4.197s3.597-7.793 5.395-10.79c1.799-2.998 5.395-6.594 5.395-6.594s-5.994 2.997-8.392 5.395l-5.994 5.994s-.6-2.997.6-6.594l2.397-7.193-6.594 8.392s-17.983-4.795-23.378-10.79c-5.395-5.994 13.787-17.983 13.787-24.577 0-6.594-11.989-30.571-11.989-30.571l-.6 4.795-2.397-5.994-2.997 4.196-4.796-3.597v2.998s-66.537-7.793-79.126-7.793c-12.588 0-154.055-8.392-154.055-8.392z"/>
    <path style="fill:#46582b;fill-opacity:1;stroke:none;stroke-width:1.04721415px;stroke-linecap:butt;stroke-linejoin:miter;stroke-opacity:1" d="M118.739 14.723S149.31 9.328 160.1 6.931c10.79-2.398 37.765-1.799 41.362-2.998 3.596-1.198 5.994-6.593 5.994-6.593l2.997 5.395 2.398-5.995s-1.199 3.597 2.398 5.395c3.596 1.798 56.347 4.796 64.739 7.193 8.392 2.398 11.39 8.393 16.784 15.586 5.395 7.193-32.37 16.784-36.565 21.58-4.197 4.795 6.593 13.787 6.593 13.787l4.196-5.395v7.193l4.796-4.795s-3.597 1.798 0 7.792c3.597 5.995-.6 11.39-4.196 13.188-3.597 1.798-145.664 27.574-154.056 27.574-8.392 0-10.79-11.989-10.79-11.989l4.796 2.398v-5.395s3.596 2.997 7.792 2.398c4.196-.6 19.182-15.586 18.583-22.779-.6-7.193-18.583-27.574-22.18-34.767-3.596-7.194-4.795-26.975-4.795-26.975l3.597 5.395 2.997-4.796z"/>
</svg>
