<svg xmlns="http://www.w3.org/2000/svg" viewBox="0 0 300 200" height="200" width="300">
    <g style="transform:translate(-0.683688,-61.30409)">
        <path style="fill:#4e5a21;fill-opacity:1;stroke:none;stroke-width:1px;stroke-linecap:butt;stroke-linejoin:miter;stroke-opacity:1" d="M117.433 261.709s-14.26-5.872-16.776-10.905l-2.516-5.032 8.388 5.032-17.615-15.098h6.71l-18.453-15.099h6.71l-27.68-16.776h10.065s-9.227-5.033-14.26-13.421c-5.033-8.388-22.648-53.684-20.97-60.394 1.678-6.71 17.615 30.197 20.131 36.907 2.517 6.71 12.583 16.777 12.583 16.777l.838-7.55s4.194 10.066 10.905 16.776c6.71 6.71 20.131 18.454 20.131 18.454l.84-7.549s8.387 12.582 9.226 16.776c.839 4.194-2.516 6.71.839 4.194s3.355-7.549 3.355-7.549 3.355 5.872 4.194 10.066c.84 4.194 11.744 18.454 10.905 22.648-.839 4.194-7.55 11.743-7.55 11.743z"/>
        <path style="fill:#282e14;fill-opacity:1;stroke:none;stroke-width:1px;stroke-linecap:butt;stroke-linejoin:miter;stroke-opacity:1" d="M161.052 254.16s-8.388-5.033-10.905-11.744c-2.516-6.71-8.388-36.907-8.388-36.907l4.194 6.71s-2.516-10.066 3.355-18.454c5.872-8.388 14.26-18.454 13.421-29.358-.839-10.905-1.677-29.358-1.677-29.358s3.355 11.743 14.26 14.26c10.904 2.516 45.295-13.422 45.295-7.55 0 5.872 7.55-.839 7.55-.839v12.582l23.486-6.71s-13.42 19.293-15.098 22.648c-1.678 3.355 4.194.839 4.194.839s-28.52 52.006-39.424 62.072c-10.905 10.065-28.52 21.809-28.52 21.809z"/>
        <path d="M185.77 126.88l2.143 2.138c2.14 2.136.664 5.426.664 5.426s-2.385.908-3.62-.982c-1.237-1.89.814-6.581.814-6.581zm4.857 2.874s3.05 4.52 2.89 7.975c-.16 3.455-2.707 5.68-2.707 5.68s-.346-.87-.658-1.671c.692 2.096 1.319 5.164 1.319 5.164s-3.357-.408-5.433-3.174c-2.075-2.767-2.096-8.219-2.096-8.219s4.947 3.272 5.83 5.212c-.416-1.143-.843-2.406-1.025-3.314-.414-2.056 1.88-7.653 1.88-7.653zm6.199 9.852s.842 1.695.486 3.79c1.945-.703 4.91-.56 4.91-.56s-.128 3.797-3.75 5.39c-2.419 1.063-3.79 2.826-4.447 3.891-.002.362.02.578.02.578s-.1-.292-.135-.387c-.246.422-.373.71-.373.71s.071-.479.198-1.213c-.64-1.853-2.18-6.587-1.695-8.204.601-2.009 4.786-3.996 4.786-3.996zm-11.208 8.376s4.627.213 5.96 1.833c1.07 1.302 1.485 6.255 1.611 8.216.403.63.653 1.046.653 1.046s-.23-.216-.62-.51c.005.1.026.409.026.409s-.065-.207-.209-.542c-1.018-.729-2.962-1.822-5.601-1.867-3.956-.067-5.544-3.518-5.544-3.518s2.679-1.28 4.744-1.383c-1.139-1.795-1.02-3.684-1.02-3.684zm14.108 1.465s.57 1.804-.102 3.82c2.03-.396 4.938.202 4.938.202s-.71 3.731-4.533 4.75c-2.551.679-4.176 2.209-4.988 3.161-.058.36-.07.576-.07.576l-.075-.405a6.606 6.606 0 00-.439.59c.615 1.807 1.076 3.716 1.32 4.81.307.348.372.427.505.585-.237-2.01-.355-4.166.076-5.07.902-1.893 5.341-3.215 5.341-3.215s.571 1.803-.101 3.82c2.03-.397 4.937.201 4.937.201s-.709 3.731-4.532 4.75c-2.551.679-4.176 2.209-4.988 3.161-.059.36-.07.576-.07.576l-.075-.405a6.603 6.603 0 00-.439.59c.615 1.808 1.076 3.716 1.319 4.81.493.559.805.931.805.931s-.26-.178-.69-.409c.02.099.087.401.087.401s-.094-.195-.287-.504c-1.117-.564-3.21-1.346-5.825-.985-3.92.54-6.015-2.626-6.015-2.626s2.45-1.678 4.475-2.097c-1.4-1.599-1.574-3.482-1.574-3.482s4.607-.5 6.172.897c.537.48 1.06 1.68 1.523 3.033.02-.063.133-.43.353-1.084a54.255 54.255 0 01-.473-3.122 5.265 5.265 0 00-.41-.234l.087.4s-.094-.195-.286-.503c-1.118-.564-3.21-1.346-5.825-.986-3.92.541-6.016-2.626-6.016-2.626s2.45-1.677 4.476-2.096c-1.4-1.6-1.574-3.483-1.574-3.483s4.607-.499 6.171.898c.537.48 1.061 1.68 1.523 3.032.02-.063.134-.43.354-1.083-.35-1.934-1.142-6.842-.417-8.364.903-1.892 5.342-3.215 5.342-3.215zm4.467 19.57s.57 1.804-.103 3.82c2.03-.397 4.937.202 4.937.202s-.707 3.73-4.53 4.749c-2.552.68-4.178 2.21-4.99 3.162-.058.357-.07.576-.07.576l-.075-.405c-.308.38-.478.646-.478.646s.144-.464.382-1.17c-.35-1.934-1.142-6.844-.417-8.366.903-1.893 5.344-3.214 5.344-3.214zm-13.494 8.77s4.607-.5 6.172.897c1.258 1.122 2.426 5.954 2.852 7.873.493.56.805.931.805.931s-.26-.178-.69-.409c.02.1.087.401.087.401s-.094-.195-.287-.504c-1.117-.564-3.209-1.346-5.824-.985-3.92.54-6.016-2.626-6.016-2.626s2.45-1.677 4.475-2.096c-1.4-1.6-1.574-3.483-1.574-3.483z" style="fill:#801997;fill-opacity:1;stroke:none;stroke-width:1px;stroke-linecap:butt;stroke-linejoin:miter;stroke-opacity:1"/>
        <path style="fill:#4e5a21;fill-opacity:1;stroke:none;stroke-width:1px;stroke-linecap:butt;stroke-linejoin:miter;stroke-opacity:1" d="M116.595 262.87c11.743-.839 77.17-1.678 77.17-1.678s13.421-7.549 15.938-12.582l2.516-5.033-5.033 3.356 10.905-20.97-9.227 3.355s16.776-20.97 23.487-24.326l13.42-6.71-4.194-2.517s37.747-8.388 41.941-10.904c4.194-2.517-20.97-.84-20.97-.84l5.033-3.354s-34.392 5.871-42.78 11.743c-8.388 5.872-19.292 28.52-20.131 23.487-.839-5.033-6.71 6.71-8.388 12.582-1.678 5.872-4.194 8.388-4.194 8.388s-3.356-13.421-4.194-5.033c-.84 8.388-9.227 16.776-22.648 18.454-13.421 1.678-40.263-.839-44.457 2.516-4.194 3.356-4.194 10.066-4.194 10.066z"/>
        <path style="fill:#4e5a21;fill-opacity:1;stroke:none;stroke-width:1px;stroke-linecap:butt;stroke-linejoin:miter;stroke-opacity:1" d="M122.469 252.045s-4.855-24.071-10.273-31.952c-5.42-7.88-11.429-19.998-11.429-19.998l7.241 5.467s-12.448-35.634-13.907-44.898c-1.46-9.264 4.073 6.573 2.614-2.69-1.46-9.265-3.45-55.66-1.943-61.518 1.508-5.858 11.847 49.172 12.514 58.713.667 9.54 3.987 19.043 3.987 19.043l1.985-9.578s6.276 30.683 9.595 40.185c3.32 9.503 3.482 2.338 3.482 2.338s5.772 13.977 6.954 22.45c1.183 8.471 3.786 23.555 3.786 23.555l-8.157 4.627z"/>
        <path style="fill:#282e14;fill-opacity:1;stroke:none;stroke-width:1px;stroke-linecap:butt;stroke-linejoin:miter;stroke-opacity:1" d="M132.532 178.667s10.905-3.356 15.099-10.066c4.194-6.71 8.388-30.197 8.388-30.197l-6.71 5.033-.84-18.454-4.194 6.71-.838-11.743s-5.033 16.776-13.421 22.648c-8.388 5.871-18.454-32.714-18.454-32.714s-2.517 5.872-3.355 15.938c-.84 10.065-3.356.838-3.356.838s-2.516 10.066 1.678 19.293c4.194 9.227 5.872 37.747 5.872 37.747z"/>
        <path style="fill:#801997;fill-opacity:1;stroke:none;stroke-width:1px;stroke-linecap:butt;stroke-linejoin:miter;stroke-opacity:1" d="M163.941 117.104l2.553 1.624c2.552 1.624 1.82 5.156 1.82 5.156s-2.133 1.4-3.748-.178c-1.615-1.58-.625-6.602-.625-6.602zm5.362 1.758s3.954 3.755 4.544 7.163c.589 3.408-1.419 6.13-1.419 6.13s-.525-.775-1.002-1.49c1.128 1.898 2.402 4.758 2.402 4.758s-3.366.326-5.99-1.927c-2.623-2.253-3.82-7.572-3.82-7.572s5.536 2.126 6.817 3.83c-.653-1.026-1.342-2.167-1.716-3.014-.848-1.918.184-7.878.184-7.878zm8.179 8.281s1.188 1.474 1.293 3.597c1.747-1.107 4.673-1.607 4.673-1.607s.694 3.735-2.499 6.072c-2.132 1.56-3.091 3.577-3.502 4.76.076.353.145.559.145.559s-.162-.264-.216-.349c-.149.466-.21.774-.21.774s-.035-.483-.07-1.227c-1.025-1.671-3.549-5.962-3.425-7.645.154-2.091 3.811-4.934 3.811-4.934zm-9.136 10.598s4.564-.79 6.214.503c1.327 1.04 2.8 5.787 3.348 7.675.528.528.863.88.863.88s-.271-.16-.716-.364c.026.097.114.394.114.394s-.109-.188-.32-.484c-1.152-.492-3.287-1.14-5.873-.614-3.878.788-6.173-2.239-6.173-2.239s2.34-1.827 4.334-2.374c-1.5-1.507-1.791-3.377-1.791-3.377zm14.091-1.614s.947 1.638.725 3.752c1.897-.825 4.865-.869 4.865-.869s.113 3.797-3.4 5.616c-2.345 1.214-3.6 3.058-4.189 4.164.021.363.057.577.057.577s-.12-.286-.161-.38a6.604 6.604 0 00-.301.672c.99 1.631 1.852 3.396 2.325 4.41.376.275.456.338.62.463-.664-1.911-1.245-3.991-1.02-4.966.473-2.043 4.522-4.292 4.522-4.292s.947 1.637.725 3.751c1.897-.825 4.865-.869 4.865-.869s.113 3.797-3.4 5.616c-2.345 1.214-3.601 3.059-4.189 4.164.02.363.057.577.057.577l-.161-.38a6.6 6.6 0 00-.302.672c.991 1.632 1.853 3.396 2.326 4.411.602.44.987.736.987.736s-.292-.118-.762-.25l.171.372s-.133-.17-.388-.43c-1.213-.31-3.424-.622-5.9.295-3.71 1.374-6.44-1.266-6.44-1.266s2.03-2.166 3.916-3.013c-1.712-1.259-2.288-3.06-2.288-3.06s4.391-1.482 6.22-.456c.628.352 1.398 1.412 2.142 2.632.005-.065.037-.448.111-1.134-.295-.706-.697-1.7-1.136-2.946a5.26 5.26 0 00-.45-.14l.17.372s-.133-.17-.388-.43c-1.213-.31-3.424-.622-5.9.295-3.71 1.373-6.44-1.266-6.44-1.266s2.03-2.167 3.917-3.013c-1.713-1.26-2.288-3.06-2.288-3.06s4.39-1.482 6.22-.457c.627.353 1.398 1.412 2.141 2.633.005-.066.037-.449.112-1.134-.76-1.814-2.592-6.434-2.212-8.077.473-2.043 4.522-4.292 4.522-4.292zm8.586 18.145s.945 1.638.723 3.752c1.896-.826 4.865-.869 4.865-.869s.114 3.796-3.4 5.615c-2.344 1.215-3.601 3.06-4.189 4.165.02.361.057.577.057.577l-.161-.38a7.757 7.757 0 00-.327.734s.04-.484.12-1.225c-.758-1.812-2.593-6.435-2.212-8.078.472-2.043 4.524-4.291 4.524-4.291zm-11.284 11.474s4.391-1.481 6.22-.456c1.47.825 3.654 5.29 4.484 7.073.603.44.987.736.987.736s-.291-.118-.762-.25l.172.372s-.134-.17-.389-.43c-1.213-.31-3.424-.622-5.9.295-3.71 1.373-6.44-1.266-6.44-1.266s2.03-2.167 3.917-3.013c-1.713-1.26-2.288-3.06-2.288-3.06z"/>
        <path style="fill:#4e5a21;fill-opacity:1;stroke:none;stroke-width:1px;stroke-linecap:butt;stroke-linejoin:miter;stroke-opacity:1" d="M151.825 260.031s-1.258-10.065-4.194-15.937-6.71-11.324-7.969-15.518c-1.258-4.194-1.258-18.035-1.258-18.035s.42 13.84 2.097 7.55c1.677-6.291 5.033-19.293 5.033-19.293s2.097 17.196 7.13 25.164c5.032 7.97 7.549 18.035 8.807 23.907 1.258 5.871.839 8.807.839 8.807zM114.917 193.765c.839-4.194 2.516-13.42 13.421-20.131 10.905-6.71 13.421-9.227 13.421-9.227l-3.355 9.227s22.648-13.421 26.003-19.293c3.355-5.872 9.227-25.164 9.227-25.164s6.71 9.227 4.194 16.776c-2.517 7.55-14.26 22.648-14.26 22.648l7.55-5.033s0 5.033-7.55 8.388c-7.55 3.355-23.487 10.066-23.487 10.066h5.872s-12.582 3.355-18.454 8.388c-5.871 5.033-9.227 10.905-9.227 10.905z"/>
        <path style="fill:#4e5a21;fill-opacity:1;stroke:none;stroke-width:1px;stroke-linecap:butt;stroke-linejoin:miter;stroke-opacity:1" d="M109.045 183.7c0-10.066-4.194-18.454 0-27.681s3.356-34.391 5.033-29.359c1.678 5.033 2.517 9.227 2.517 9.227s.838-15.098 6.71-22.648c5.872-7.549 6.71-7.549 6.71-7.549s-4.193 30.197-5.871 37.747c-1.678 7.549-1.678 41.101-1.678 41.101l-6.71 8.388z"/>
        <path d="M197.621 110.35l1.997 2.273c1.997 2.271.308 5.459.308 5.459s-2.439.75-3.549-1.218c-1.11-1.967 1.244-6.514 1.244-6.514zm4.658 3.186s2.748 4.71 2.362 8.147c-.386 3.437-3.074 5.49-3.074 5.49s-.288-.891-.546-1.71c.553 2.137.978 5.238.978 5.238s-3.323-.626-5.213-3.522c-1.89-2.897-1.555-8.338-1.555-8.338s4.723 3.588 5.477 5.581c-.34-1.167-.683-2.455-.806-3.373-.279-2.079 2.377-7.513 2.377-7.513zm5.54 10.235s.73 1.747.238 3.815c1.986-.574 4.936-.237 4.936-.237s-.377 3.78-4.095 5.132c-2.483.902-3.967 2.572-4.692 3.592-.026.36-.017.578-.017.578s-.082-.299-.11-.395c-.273.405-.419.684-.419.684s.102-.473.277-1.198c-.518-1.89-1.743-6.715-1.155-8.297.732-1.965 5.038-3.674 5.038-3.674zm-11.731 7.626s4.603.515 5.826 2.218c.983 1.37 1.073 6.339 1.071 8.305.36.654.583 1.086.583 1.086s-.215-.23-.586-.55c-.002.1 0 .41 0 .41s-.052-.21-.173-.554c-.968-.794-2.837-2.012-5.467-2.23-3.943-.325-5.302-3.873-5.302-3.873s2.757-1.101 4.825-1.07c-1.02-1.866-.777-3.742-.777-3.742zm13.981 2.385s.452 1.837-.351 3.805c2.051-.263 4.914.524 4.914.524s-.952 3.677-4.834 4.443c-2.59.51-4.311 1.931-5.184 2.828-.082.355-.107.57-.107.57l-.049-.409c-.3.324-.447.519-.476.56.495 1.844.83 3.779 1 4.886.285.368.345.451.468.617-.105-2.021-.082-4.18.406-5.054 1.025-1.83 5.541-2.859 5.541-2.859s.452 1.837-.351 3.805c2.051-.263 4.914.524 4.914.524s-.952 3.678-4.834 4.443c-2.59.511-4.311 1.932-5.184 2.829-.082.355-.107.57-.107.57l-.049-.41a6.6 6.6 0 00-.476.561c.495 1.844.83 3.778 1 4.885.456.59.743.982.743.982s-.247-.194-.662-.453l.06.406s-.08-.201-.252-.522c-1.078-.636-3.114-1.553-5.748-1.364-3.946.283-5.83-3.014-5.83-3.014s2.553-1.514 4.602-1.8c-1.293-1.686-1.342-3.577-1.342-3.577s4.63-.197 6.1 1.299c.504.513.948 1.746 1.32 3.126.023-.062.161-.42.424-1.058a54.28 54.28 0 01-.268-3.147 5.247 5.247 0 00-.393-.26l.06.405s-.08-.2-.253-.521c-1.078-.636-3.114-1.553-5.748-1.365-3.946.283-5.83-3.014-5.83-3.014s2.554-1.513 4.602-1.799c-1.292-1.687-1.342-3.578-1.342-3.578s4.63-.196 6.1 1.3c.504.513.948 1.746 1.32 3.125.024-.061.162-.42.425-1.058-.223-1.953-.692-6.901.131-8.372 1.025-1.83 5.54-2.86 5.54-2.86zm3.177 19.82s.45 1.837-.353 3.805c2.052-.263 4.914.524 4.914.524s-.95 3.677-4.832 4.443c-2.59.511-4.313 1.932-5.186 2.829-.08.353-.107.57-.107.57l-.048-.41c-.333.36-.52.614-.52.614s.174-.454.459-1.143c-.223-1.952-.693-6.903.13-8.375 1.025-1.83 5.544-2.857 5.544-2.857zm-14.038 7.867s4.63-.196 6.1 1.3c1.18 1.202 2.03 6.1 2.33 8.043.456.59.743.982.743.982s-.248-.195-.662-.453l.06.405s-.08-.2-.253-.521c-1.078-.636-3.114-1.553-5.748-1.365-3.946.283-5.83-3.014-5.83-3.014s2.554-1.513 4.602-1.799c-1.292-1.687-1.342-3.578-1.342-3.578z" style="fill:#801997;fill-opacity:1;stroke:none;stroke-width:1px;stroke-linecap:butt;stroke-linejoin:miter;stroke-opacity:1"/>
        <path style="fill:#cd64e5;fill-opacity:1;stroke:none;stroke-width:1px;stroke-linecap:butt;stroke-linejoin:miter;stroke-opacity:1" d="M235.52 115.557l-2.141 2.137c-2.141 2.136-.664 5.427-.664 5.427s2.384.907 3.62-.983c1.237-1.89-.814-6.581-.814-6.581zm-4.855 2.873s-3.051 4.52-2.89 7.975c.16 3.455 2.707 5.68 2.707 5.68s.346-.87.657-1.671c-.691 2.097-1.318 5.164-1.318 5.164s3.357-.408 5.432-3.174c2.076-2.767 2.097-8.219 2.097-8.219s-4.948 3.272-5.83 5.212c.416-1.143.842-2.406 1.025-3.314.414-2.056-1.88-7.653-1.88-7.653zm-6.2 9.852s-.841 1.695-.486 3.79c-1.944-.703-4.91-.56-4.91-.56s.129 3.797 3.751 5.39c2.418 1.063 3.79 2.826 4.446 3.891.002.362-.02.578-.02.578l.135-.387c.247.422.373.71.373.71s-.07-.479-.198-1.213c.641-1.853 2.18-6.587 1.696-8.204-.602-2.009-4.786-3.995-4.786-3.995zm11.209 8.376s-4.628.213-5.96 1.833c-1.07 1.302-1.485 6.255-1.612 8.216-.402.63-.653 1.046-.653 1.046s.23-.216.62-.51c-.004.1-.026.409-.026.409s.066-.207.21-.542c1.017-.729 2.962-1.822 5.6-1.867 3.957-.067 5.544-3.518 5.544-3.518s-2.678-1.28-4.744-1.383c1.14-1.795 1.02-3.684 1.02-3.684zm-14.108 1.466s-.571 1.803.102 3.82c-2.03-.397-4.938.2-4.938.2s.71 3.732 4.533 4.75c2.55.68 4.175 2.21 4.987 3.162.059.36.07.576.07.576l.075-.405c.278.342.412.546.44.59-.616 1.807-1.077 3.716-1.32 4.81-.307.348-.372.427-.506.585.237-2.01.356-4.166-.075-5.07-.902-1.893-5.342-3.215-5.342-3.215s-.57 1.803.102 3.82c-2.03-.397-4.938.201-4.938.201s.71 3.732 4.533 4.75c2.55.679 4.175 2.21 4.988 3.161.058.36.07.576.07.576s.055-.305.075-.405c.277.343.411.547.439.59-.616 1.808-1.077 3.716-1.32 4.81-.493.559-.804.931-.804.931s.259-.178.69-.409l-.087.401s.094-.195.287-.504c1.117-.564 3.209-1.346 5.824-.985 3.92.54 6.016-2.626 6.016-2.626s-2.45-1.678-4.475-2.097c1.4-1.599 1.573-3.482 1.573-3.482s-4.607-.5-6.171.897c-.537.48-1.061 1.68-1.523 3.033-.02-.063-.133-.43-.354-1.084.136-.753.313-1.81.473-3.122.113-.072.188-.115.41-.234-.02.099-.087.4-.087.4s.094-.195.287-.503c1.117-.564 3.21-1.346 5.825-.986 3.92.541 6.015-2.626 6.015-2.626s-2.45-1.677-4.475-2.096c1.4-1.599 1.574-3.482 1.574-3.482s-4.607-.5-6.172.897c-.537.48-1.06 1.68-1.523 3.032a46.15 46.15 0 00-.354-1.083c.35-1.934 1.142-6.842.417-8.363-.902-1.893-5.342-3.216-5.342-3.216zm-4.468 19.57s-.569 1.803.104 3.82c-2.03-.398-4.938.2-4.938.2s.708 3.732 4.531 4.75c2.552.68 4.178 2.21 4.99 3.162.058.357.07.576.07.576l.075-.405c.308.38.477.646.477.646s-.143-.464-.382-1.17c.35-1.934 1.143-6.844.417-8.366-.902-1.893-5.344-3.214-5.344-3.214zm13.494 8.768s-4.607-.499-6.171.898c-1.258 1.122-2.426 5.954-2.852 7.873-.494.56-.806.932-.806.932s.26-.179.69-.41c-.02.1-.086.401-.086.401s.094-.195.286-.504c1.118-.564 3.21-1.345 5.825-.985 3.92.54 6.015-2.626 6.015-2.626s-2.45-1.677-4.475-2.096c1.4-1.6 1.574-3.483 1.574-3.483z"/>
        <path d="M257.35 105.78l-2.552 1.624c-2.552 1.624-1.82 5.156-1.82 5.156s2.132 1.4 3.747-.178c1.615-1.58.625-6.602.625-6.602zm-5.362 1.758s-3.954 3.755-4.543 7.163c-.59 3.408 1.418 6.13 1.418 6.13s.526-.775 1.002-1.49c-1.127 1.898-2.401 4.758-2.401 4.758s3.365.326 5.99-1.927c2.623-2.253 3.82-7.572 3.82-7.572s-5.537 2.126-6.818 3.83c.654-1.026 1.342-2.167 1.717-3.014.848-1.918-.185-7.878-.185-7.878zm-8.178 8.281s-1.188 1.474-1.293 3.597c-1.748-1.106-4.674-1.607-4.674-1.607s-.694 3.735 2.5 6.072c2.131 1.56 3.09 3.577 3.501 4.76-.076.353-.145.559-.145.559l.216-.349c.15.466.211.775.211.775s.034-.484.069-1.228c1.025-1.671 3.55-5.961 3.425-7.644-.153-2.092-3.81-4.935-3.81-4.935zm9.136 10.598s-4.565-.79-6.215.503c-1.326 1.04-2.8 5.787-3.347 7.675-.529.528-.863.88-.863.88s.27-.16.716-.364c-.027.097-.114.394-.114.394s.108-.188.32-.484c1.152-.492 3.287-1.14 5.873-.614 3.877.789 6.172-2.239 6.172-2.239s-2.34-1.827-4.334-2.374c1.5-1.507 1.792-3.377 1.792-3.377zm-14.092-1.614s-.946 1.638-.725 3.752c-1.896-.825-4.865-.869-4.865-.869s-.112 3.797 3.401 5.616c2.344 1.214 3.6 3.058 4.188 4.164-.02.363-.056.577-.056.577l.16-.38c.198.395.285.623.302.672-.99 1.632-1.853 3.396-2.326 4.41-.376.275-.456.338-.62.463.665-1.91 1.246-3.99 1.02-4.966-.472-2.043-4.522-4.292-4.522-4.292s-.946 1.637-.725 3.751c-1.896-.825-4.864-.868-4.864-.868s-.113 3.796 3.4 5.615c2.345 1.214 3.6 3.059 4.188 4.164-.02.364-.056.577-.056.577l.16-.38a6.6 6.6 0 01.302.672c-.99 1.632-1.853 3.396-2.325 4.411-.603.44-.988.736-.988.736s.292-.118.762-.25l-.17.372s.133-.17.388-.43c1.213-.31 3.424-.621 5.9.295 3.71 1.374 6.44-1.266 6.44-1.266s-2.03-2.166-3.917-3.013c1.713-1.259 2.288-3.06 2.288-3.06s-4.39-1.482-6.22-.456c-.627.352-1.398 1.412-2.141 2.632a43.58 43.58 0 00-.112-1.134c.296-.706.697-1.7 1.136-2.946a5.26 5.26 0 01.45-.14c-.04.091-.17.372-.17.372s.134-.17.388-.43c1.213-.31 3.424-.622 5.9.295 3.71 1.373 6.44-1.266 6.44-1.266s-2.03-2.167-3.916-3.013c1.712-1.26 2.288-3.06 2.288-3.06s-4.39-1.482-6.22-.457c-.628.353-1.398 1.412-2.141 2.633a43.561 43.561 0 00-.112-1.134c.759-1.814 2.592-6.434 2.212-8.077-.473-2.043-4.522-4.292-4.522-4.292zm-8.585 18.145s-.945 1.638-.724 3.752c-1.896-.826-4.864-.869-4.864-.869s-.115 3.796 3.399 5.615c2.345 1.215 3.602 3.06 4.19 4.165-.021.361-.057.577-.057.577l.16-.38c.22.438.328.735.328.735s-.04-.485-.12-1.226c.758-1.812 2.592-6.435 2.212-8.078-.473-2.043-4.525-4.291-4.525-4.291zm11.283 11.474s-4.39-1.481-6.22-.455c-1.47.824-3.654 5.29-4.484 7.072-.602.44-.987.736-.987.736s.292-.118.762-.25l-.171.372s.134-.17.389-.43c1.212-.31 3.424-.622 5.9.295 3.71 1.373 6.44-1.266 6.44-1.266s-2.03-2.167-3.917-3.013c1.712-1.26 2.288-3.06 2.288-3.06z" style="fill:#cd64e5;fill-opacity:1;stroke:none;stroke-width:1px;stroke-linecap:butt;stroke-linejoin:miter;stroke-opacity:1"/>
        <path style="fill:#cd64e5;fill-opacity:1;stroke:none;stroke-width:1px;stroke-linecap:butt;stroke-linejoin:miter;stroke-opacity:1" d="M223.67 99.026l-1.997 2.273c-1.997 2.271-.307 5.459-.307 5.459s2.438.75 3.548-1.218c1.11-1.967-1.244-6.514-1.244-6.514zm-4.657 3.186s-2.748 4.71-2.363 8.147c.386 3.437 3.074 5.49 3.074 5.49s.288-.891.546-1.71c-.552 2.137-.977 5.238-.977 5.238s3.323-.626 5.213-3.522c1.89-2.897 1.554-8.338 1.554-8.338s-4.722 3.588-5.477 5.582c.341-1.168.684-2.456.807-3.374.278-2.079-2.377-7.513-2.377-7.513zm-5.541 10.235s-.73 1.747-.237 3.815c-1.987-.574-4.936-.237-4.936-.237s.376 3.78 4.095 5.132c2.483.903 3.967 2.572 4.691 3.592.026.361.017.578.017.578l.11-.395c.274.405.42.684.42.684s-.103-.473-.278-1.198c.518-1.89 1.744-6.715 1.155-8.297-.732-1.965-5.037-3.674-5.037-3.674zm11.732 7.626s-4.604.515-5.827 2.218c-.983 1.37-1.073 6.34-1.07 8.305-.36.654-.584 1.086-.584 1.086s.216-.23.586-.55c.002.1 0 .41 0 .41s.052-.21.173-.554c.968-.794 2.837-2.012 5.468-2.23 3.943-.325 5.301-3.873 5.301-3.873s-2.756-1.101-4.824-1.07c1.019-1.866.777-3.742.777-3.742zm-13.982 2.385s-.451 1.837.352 3.805c-2.051-.263-4.914.524-4.914.524s.952 3.677 4.834 4.443c2.59.51 4.31 1.931 5.184 2.829.081.354.107.57.107.57l.048-.41c.3.324.447.519.477.56-.496 1.844-.83 3.78-1.001 4.886-.285.368-.344.451-.467.617.105-2.02.082-4.18-.407-5.054-1.024-1.83-5.54-2.859-5.54-2.859s-.452 1.837.35 3.805c-2.05-.262-4.913.525-4.913.525s.952 3.677 4.834 4.442c2.59.511 4.31 1.932 5.184 2.829.081.355.107.57.107.57l.048-.41c.3.324.447.52.477.561-.496 1.844-.83 3.779-1.001 4.885-.456.59-.743.982-.743.982s.248-.194.662-.453l-.06.406s.08-.201.253-.522c1.078-.636 3.114-1.553 5.747-1.364 3.947.283 5.831-3.014 5.831-3.014s-2.554-1.514-4.602-1.8c1.292-1.686 1.342-3.577 1.342-3.577s-4.63-.197-6.1 1.3c-.504.513-.948 1.745-1.32 3.125-.024-.062-.162-.42-.425-1.058.087-.76.194-1.828.268-3.147.108-.08.18-.127.394-.26l-.06.406s.08-.202.252-.522c1.079-.636 3.115-1.553 5.748-1.364 3.947.283 5.83-3.015 5.83-3.015s-2.553-1.513-4.602-1.799c1.293-1.687 1.343-3.578 1.343-3.578s-4.63-.196-6.1 1.3c-.505.513-.948 1.746-1.321 3.125-.023-.061-.161-.42-.424-1.058.222-1.953.692-6.901-.132-8.372-1.024-1.83-5.54-2.859-5.54-2.859zm-3.177 19.82s-.45 1.837.353 3.805c-2.051-.263-4.914.524-4.914.524s.95 3.677 4.832 4.443c2.591.511 4.314 1.932 5.186 2.829.081.353.107.57.107.57l.049-.41c.332.36.519.614.519.614s-.174-.454-.458-1.143c.222-1.952.692-6.903-.131-8.375-1.025-1.83-5.543-2.857-5.543-2.857zm14.039 7.867s-4.63-.196-6.1 1.3c-1.181 1.202-2.031 6.1-2.33 8.043-.456.59-.743.982-.743.982s.247-.195.662-.453l-.06.405s.08-.2.252-.521c1.079-.636 3.115-1.553 5.748-1.364 3.947.282 5.83-3.015 5.83-3.015s-2.553-1.513-4.602-1.799c1.293-1.687 1.343-3.578 1.343-3.578z"/>
        <path style="fill:#801997;fill-opacity:1;stroke:none;stroke-width:1px;stroke-linecap:butt;stroke-linejoin:miter;stroke-opacity:1" d="M113.543 102.203l1.632 2.547c1.631 2.547-.519 5.443-.519 5.443s-2.524.374-3.324-1.738c-.801-2.112 2.21-6.252 2.21-6.252zm4.124 3.85s2.007 5.07 1.108 8.41c-.9 3.34-3.866 4.965-3.866 4.965s-.15-.924-.282-1.773c.224 2.196.177 5.326.177 5.326s-3.19-1.12-4.623-4.268c-1.432-3.148-.28-8.477-.28-8.477s4.128 4.259 4.573 6.343c-.16-1.205-.306-2.53-.289-3.456.038-2.097 3.482-7.07 3.482-7.07zm3.936 10.954s.457 1.837-.34 3.807c2.05-.268 4.915.509 4.915.509s-.942 3.68-4.822 4.457c-2.59.518-4.31 1.944-5.179 2.844-.08.353-.104.568-.104.568s-.036-.307-.05-.407c-.33.36-.516.614-.516.614s.172-.453.454-1.142c-.227-1.948-.712-6.902.108-8.377 1.02-1.832 5.534-2.873 5.534-2.873zm-12.747 5.77s4.473 1.204 5.426 3.072c.765 1.502.105 6.428-.193 8.37.258.702.413 1.163.413 1.163s-.178-.26-.497-.632l-.062.405s-.02-.216-.087-.574c-.838-.93-2.502-2.417-5.07-3.028-3.848-.916-4.657-4.627-4.657-4.627s2.892-.674 4.931-.331c-.726-1.998-.204-3.817-.204-3.817zm13.462 4.465s.17 1.884-.92 3.71c2.067.048 4.778 1.257 4.778 1.257s-1.495 3.492-5.448 3.664c-2.637.115-4.552 1.26-5.55 2.016-.135.338-.192.547-.192.547l.013-.412c-.345.275-.52.445-.555.482.212 1.897.252 3.86.253 4.98.226.408.272.499.37.681.2-2.014.548-4.145 1.163-4.935 1.288-1.655 5.908-1.991 5.908-1.991s.17 1.884-.921 3.708c2.068.05 4.779 1.259 4.779 1.259s-1.495 3.492-5.448 3.664c-2.637.115-4.553 1.26-5.551 2.015-.134.338-.192.547-.192.547l.014-.412c-.345.275-.52.446-.556.483.212 1.897.252 3.86.254 4.98.361.652.586 1.083.586 1.083s-.215-.23-.586-.548v.41s-.05-.21-.173-.554c-.97-.79-2.844-2.004-5.476-2.214-3.944-.315-5.31-3.859-5.31-3.859s2.753-1.11 4.821-1.085c-1.024-1.862-.788-3.739-.788-3.739s4.606.503 5.834 2.203c.422.584.675 1.87.835 3.29.033-.058.223-.392.579-.982.029-.765.083-1.836.21-3.151a5.256 5.256 0 00-.35-.317c-.002.1-.002.41-.002.41s-.05-.211-.171-.554c-.97-.791-2.845-2.005-5.477-2.215-3.944-.315-5.31-3.858-5.31-3.858s2.753-1.111 4.821-1.085c-1.024-1.863-.788-3.74-.788-3.74s4.607.504 5.834 2.204c.422.584.675 1.87.836 3.29.032-.058.222-.392.578-.983.074-1.964.356-6.927 1.392-8.257 1.288-1.655 5.908-1.992 5.908-1.992zm.155 20.073s.168 1.884-.922 3.709c2.067.048 4.778 1.258 4.778 1.258s-1.493 3.492-5.446 3.664c-2.638.115-4.555 1.26-5.553 2.015-.133.337-.191.547-.191.547l.013-.411c-.382.304-.605.528-.605.528s.24-.423.625-1.061c.074-1.963.355-6.93 1.391-8.26 1.289-1.654 5.91-1.989 5.91-1.989zm-15.064 5.662s4.607.504 5.835 2.204c.987 1.366 1.089 6.336 1.092 8.302.361.652.586 1.083.586 1.083s-.215-.23-.586-.548v.41s-.05-.21-.173-.553c-.97-.791-2.844-2.005-5.476-2.215-3.944-.315-5.31-3.858-5.31-3.858s2.753-1.112 4.821-1.085c-1.024-1.863-.788-3.74-.788-3.74z"/>
        <path d="M94.326 87.96l2.143 2.136c2.143 2.134.669 5.426.669 5.426s-2.384.91-3.621-.98c-1.238-1.889.81-6.581.81-6.581zm4.858 2.87s3.055 4.518 2.897 7.973c-.157 3.455-2.703 5.682-2.703 5.682s-.347-.87-.659-1.67c.694 2.095 1.323 5.162 1.323 5.162s-3.357-.405-5.435-3.17c-2.078-2.765-2.103-8.217-2.103-8.217s4.95 3.268 5.835 5.207c-.418-1.142-.845-2.405-1.029-3.313-.415-2.055 1.874-7.654 1.874-7.654zm6.207 9.847s.843 1.694.49 3.79c1.944-.704 4.909-.564 4.909-.564s-.126 3.797-3.746 5.392c-2.418 1.066-3.788 2.83-4.444 3.896-.002.361.022.577.022.577l-.136-.387c-.246.423-.373.711-.373.711s.07-.48.197-1.213c-.642-1.853-2.184-6.586-1.702-8.203.6-2.01 4.783-4 4.783-4zm-11.201 8.385s4.627.21 5.96 1.828c1.072 1.301 1.491 6.254 1.62 8.215.402.629.653 1.046.653 1.046s-.23-.216-.621-.51c.005.1.027.409.027.409s-.066-.207-.21-.542c-1.018-.728-2.964-1.82-5.602-1.862-3.957-.064-5.547-3.514-5.547-3.514s2.678-1.281 4.743-1.387c-1.14-1.794-1.023-3.683-1.023-3.683zm14.109 1.454s.572 1.803-.099 3.82c2.03-.398 4.938.198 4.938.198s-.706 3.732-4.529 4.753c-2.55.681-4.174 2.213-4.985 3.166-.058.36-.07.576-.07.576l-.075-.406a6.601 6.601 0 00-.438.591c.616 1.807 1.079 3.715 1.322 4.808.308.349.373.428.507.585-.239-2.01-.359-4.166.071-5.07.901-1.893 5.34-3.219 5.34-3.219s.572 1.803-.1 3.82c2.03-.398 4.938.197 4.938.197s-.706 3.732-4.528 4.754c-2.55.681-4.174 2.212-4.986 3.165-.058.36-.069.576-.069.576l-.075-.405a6.603 6.603 0 00-.439.59c.617 1.807 1.08 3.716 1.323 4.809.493.559.806.93.806.93s-.26-.177-.69-.408c.02.1.086.401.086.401s-.094-.195-.287-.504c-1.118-.563-3.21-1.343-5.825-.98-3.92.544-6.018-2.622-6.018-2.622s2.449-1.679 4.474-2.1c-1.402-1.597-1.577-3.48-1.577-3.48s4.607-.503 6.173.892c.537.479 1.062 1.68 1.525 3.031.019-.063.133-.43.353-1.083a54.252 54.252 0 01-.476-3.122 5.276 5.276 0 00-.41-.234l.087.4s-.094-.195-.287-.503c-1.118-.563-3.21-1.344-5.825-.98-3.92.543-6.018-2.622-6.018-2.622s2.448-1.68 4.474-2.1c-1.402-1.598-1.577-3.481-1.577-3.481s4.607-.503 6.172.892c.538.479 1.062 1.68 1.526 3.031.019-.063.133-.43.353-1.083-.352-1.934-1.148-6.841-.424-8.363.901-1.894 5.34-3.22 5.34-3.22zm4.483 19.566s.57 1.804-.1 3.82c2.029-.398 4.937.198 4.937.198s-.704 3.732-4.527 4.753c-2.551.682-4.176 2.213-4.987 3.166a5.987 5.987 0 00-.07.576l-.075-.405c-.308.38-.477.646-.477.646s.143-.464.381-1.17c-.35-1.933-1.148-6.843-.423-8.366.9-1.894 5.341-3.218 5.341-3.218zm-13.487 8.78s4.607-.502 6.172.893c1.259 1.121 2.431 5.952 2.859 7.87.493.56.805.932.805.932s-.26-.178-.69-.409c.02.1.087.401.087.401s-.094-.195-.287-.504c-1.118-.563-3.21-1.343-5.825-.98-3.92.543-6.018-2.622-6.018-2.622s2.448-1.679 4.474-2.1c-1.402-1.597-1.577-3.48-1.577-3.48z" style="fill:#801997;fill-opacity:1;stroke:none;stroke-width:1px;stroke-linecap:butt;stroke-linejoin:miter;stroke-opacity:1"/>
        <path style="fill:#801997;fill-opacity:1;stroke:none;stroke-width:1px;stroke-linecap:butt;stroke-linejoin:miter;stroke-opacity:1" d="M128.67 88.607l1.462 2.65c1.462 2.647-.874 5.396-.874 5.396s-2.542.208-3.203-1.952 2.615-6.094 2.615-6.094zm3.864 4.113s1.67 5.19.555 8.464c-1.116 3.274-4.182 4.7-4.182 4.7s-.09-.931-.166-1.787c.08 2.206-.172 5.327-.172 5.327s-3.11-1.327-4.333-4.562c-1.224-3.235.274-8.477.274-8.477s3.841 4.52 4.15 6.63c-.083-1.214-.14-2.546-.063-3.47.175-2.089 3.937-6.825 3.937-6.825zm3.21 11.187s.337 1.863-.589 3.777c2.064-.134 4.872.83 4.872.83s-1.18 3.61-5.103 4.13c-2.619.349-4.427 1.66-5.354 2.5-.103.347-.141.56-.141.56l-.022-.409a7.847 7.847 0 00-.557.579s.202-.44.528-1.11c-.099-1.959-.258-6.934.657-8.352 1.137-1.762 5.71-2.505 5.71-2.505zm-13.097 4.925s4.385 1.493 5.213 3.42c.666 1.548-.315 6.42-.74 8.34.212.716.336 1.186.336 1.186s-.16-.272-.454-.663c-.023.098-.088.4-.088.4s-.005-.217-.05-.578c-.775-.984-2.338-2.575-4.86-3.353-3.781-1.166-4.345-4.923-4.345-4.923s2.93-.483 4.942-.008c-.594-2.041.046-3.822.046-3.822zm13.141 5.336s.046 1.89-1.161 3.64c2.06.184 4.686 1.568 4.686 1.568s-1.72 3.387-5.676 3.3c-2.639-.058-4.625.96-5.67 1.648-.157.329-.228.533-.228.533l.04-.41c-.362.252-.547.41-.585.445.087 1.907-.001 3.869-.073 4.986.198.421.239.515.323.703.332-1.996.819-4.1 1.484-4.848 1.394-1.567 6.026-1.6 6.026-1.6s.046 1.89-1.161 3.64c2.06.184 4.686 1.569 4.686 1.569s-1.72 3.386-5.676 3.3c-2.64-.059-4.626.958-5.671 1.647-.156.329-.227.534-.227.534l.04-.41a6.6 6.6 0 00-.586.444c.088 1.907 0 3.869-.072 4.986.318.675.513 1.12.513 1.12s-.2-.244-.548-.586l-.029.41s-.035-.214-.135-.565c-.916-.852-2.707-2.186-5.32-2.568-3.914-.572-5.046-4.197-5.046-4.197s2.82-.929 4.882-.767c-.9-1.926-.541-3.783-.541-3.783s4.563.803 5.677 2.58c.382.61.55 1.91.618 3.337.036-.056.248-.376.642-.942.079-.761.203-1.827.415-3.13a5.26 5.26 0 00-.329-.34c-.008.1-.028.41-.028.41s-.036-.214-.135-.565c-.916-.852-2.707-2.186-5.32-2.568-3.915-.572-5.046-4.197-5.046-4.197s2.82-.93 4.882-.767c-.9-1.926-.542-3.783-.542-3.783s4.564.803 5.678 2.58c.382.61.55 1.91.618 3.337.036-.056.248-.376.641-.942.203-1.956.809-6.89 1.93-8.149 1.393-1.567 6.025-1.6 6.025-1.6zm-1.159 20.04s.045 1.89-1.163 3.64c2.06.183 4.686 1.568 4.686 1.568s-1.718 3.386-5.674 3.3c-2.64-.058-4.628.959-5.673 1.647-.155.327-.227.534-.227.534l.04-.41c-.4.279-.638.487-.638.487s.267-.406.693-1.018c.203-1.953.808-6.89 1.93-8.15 1.393-1.567 6.027-1.599 6.027-1.599zm-15.402 4.664s4.564.803 5.678 2.58c.895 1.429.672 6.394.547 8.356.318.675.514 1.12.514 1.12s-.2-.244-.55-.586l-.028.41s-.035-.214-.135-.564c-.916-.853-2.707-2.187-5.32-2.569-3.914-.572-5.046-4.197-5.046-4.197s2.82-.929 4.882-.767c-.9-1.926-.541-3.783-.541-3.783z"/>
        <path style="fill:#4e5a21;fill-opacity:1;stroke:none;stroke-width:1px;stroke-linecap:butt;stroke-linejoin:miter;stroke-opacity:1" d="M129.596 175.73s3.775-9.226 4.194-13c.42-3.775-.42-6.711-.42-6.711l5.034 5.033s-2.097 2.935-.839-5.033c1.258-7.969 3.775-11.324 3.775-11.324s2.097 11.324 0 15.937c-2.097 4.614-6.71 13.002-6.71 13.002z"/>
        <path d="M164.563 101.842l-2.55 1.626c-2.551 1.625-1.816 5.157-1.816 5.157s2.133 1.4 3.747-.18c1.614-1.581.62-6.603.62-6.603zm-5.36 1.762s-3.951 3.758-4.538 7.167c-.586 3.408 1.424 6.128 1.424 6.128s.524-.775 1-1.49c-1.125 1.899-2.397 4.76-2.397 4.76s3.366.323 5.988-1.932c2.621-2.256 3.815-7.576 3.815-7.576s-5.536 2.132-6.815 3.836c.652-1.026 1.34-2.168 1.714-3.016.846-1.918-.19-7.877-.19-7.877zm-8.172 8.288s-1.187 1.474-1.29 3.597c-1.748-1.105-4.675-1.602-4.675-1.602s-.69 3.735 2.504 6.07c2.133 1.558 3.094 3.574 3.506 4.756-.076.354-.145.56-.145.56l.216-.35c.15.466.211.775.211.775s.034-.484.068-1.228c1.024-1.672 3.545-5.964 3.42-7.647-.156-2.091-3.815-4.931-3.815-4.931zm9.144 10.59s-4.565-.787-6.214.509c-1.325 1.041-2.795 5.789-3.34 7.677-.529.528-.863.881-.863.881s.27-.161.716-.365c-.027.097-.114.394-.114.394s.108-.188.32-.484c1.151-.493 3.285-1.143 5.872-.619 3.878.786 6.17-2.244 6.17-2.244s-2.34-1.825-4.335-2.37c1.498-1.509 1.788-3.379 1.788-3.379zm-14.092-1.602s-.946 1.638-.722 3.752c-1.897-.824-4.866-.865-4.866-.865s-.11 3.797 3.405 5.613c2.346 1.212 3.603 3.056 4.192 4.16-.02.364-.056.578-.056.578l.16-.38c.198.395.285.623.302.671-.99 1.633-1.85 3.398-2.322 4.413-.376.275-.456.338-.62.463.664-1.912 1.243-3.992 1.017-4.967-.475-2.043-4.526-4.289-4.526-4.289s-.945 1.639-.722 3.753c-1.897-.824-4.865-.865-4.865-.865s-.11 3.796 3.405 5.613c2.345 1.212 3.603 3.055 4.191 4.16-.02.364-.056.577-.056.577l.16-.38c.199.395.286.623.303.672-.99 1.632-1.85 3.397-2.322 4.413-.602.44-.987.737-.987.737s.292-.119.762-.252l-.171.373s.134-.17.388-.43c1.213-.31 3.424-.625 5.9.29 3.712 1.37 6.44-1.271 6.44-1.271s-2.032-2.165-3.92-3.01c1.712-1.26 2.286-3.062 2.286-3.062s-4.392-1.478-6.22-.451c-.628.353-1.397 1.413-2.14 2.634-.005-.066-.037-.449-.112-1.134a54.25 54.25 0 001.134-2.948c.125-.046.208-.072.45-.14l-.17.373s.133-.17.388-.431c1.212-.31 3.423-.624 5.9.29 3.711 1.371 6.44-1.27 6.44-1.27s-2.032-2.166-3.92-3.01c1.711-1.26 2.285-3.063 2.285-3.063s-4.392-1.478-6.22-.45c-.627.352-1.397 1.412-2.14 2.633-.005-.065-.037-.448-.112-1.134.758-1.814 2.587-6.436 2.206-8.078-.475-2.043-4.526-4.288-4.526-4.288zm-8.571 18.15s-.944 1.64-.72 3.754c-1.898-.825-4.866-.865-4.866-.865s-.112 3.796 3.403 5.612c2.346 1.213 3.605 3.057 4.193 4.162-.02.36-.056.577-.056.577l.161-.38c.22.437.328.734.328.734s-.04-.484-.122-1.226c.757-1.812 2.588-6.437 2.206-8.08-.474-2.042-4.528-4.287-4.528-4.287zm11.292 11.466s-4.392-1.477-6.22-.45c-1.47.826-3.65 5.293-4.478 7.076-.602.44-.987.736-.987.736s.292-.118.762-.25l-.171.372s.134-.17.388-.43c1.213-.311 3.424-.625 5.9.29 3.712 1.37 6.44-1.271 6.44-1.271s-2.032-2.165-3.92-3.01c1.712-1.26 2.286-3.063 2.286-3.063z" style="fill:#cd64e5;fill-opacity:1;stroke:none;stroke-width:1px;stroke-linecap:butt;stroke-linejoin:miter;stroke-opacity:1"/>
        <path style="fill:#cd64e5;fill-opacity:1;stroke:none;stroke-width:1px;stroke-linecap:butt;stroke-linejoin:miter;stroke-opacity:1" d="M187.985 96.987l-2.842 1.038c-2.841 1.037-2.886 4.644-2.886 4.644s1.781 1.826 3.698.632c1.917-1.195 2.03-6.314 2.03-6.314zm-5.615.564s-4.669 2.817-5.977 6.019c-1.308 3.202.067 6.291.067 6.291s.68-.644 1.299-1.239c-1.51 1.611-3.369 4.13-3.369 4.13s3.217 1.043 6.264-.594c3.047-1.636 5.36-6.574 5.36-6.574s-5.865.887-7.482 2.275c.858-.861 1.776-1.827 2.325-2.575 1.24-1.69 1.513-7.733 1.513-7.733zm-9.768 6.33s-1.477 1.183-2.036 3.234c-1.469-1.456-4.219-2.574-4.219-2.574s-1.48 3.498 1.135 6.467c1.747 1.982 2.25 4.158 2.397 5.4-.15.33-.262.516-.262.516l.286-.294c.046.487.04.802.04.802s.137-.465.33-1.184c1.361-1.412 4.749-5.06 4.99-6.73.3-2.075-2.66-5.638-2.66-5.638zm6.644 12.314s-4.288-1.754-6.178-.845c-1.519.73-3.979 5.05-4.92 6.776-.629.401-1.032.674-1.032.674s.3-.1.778-.202c-.046.089-.196.36-.196.36s.146-.16.417-.404c1.23-.233 3.455-.406 5.868.663 3.617 1.604 6.509-.859 6.509-.859s-1.892-2.287-3.722-3.25c1.788-1.15 2.476-2.913 2.476-2.913zm-13.415-4.606s-1.277 1.396-1.515 3.508c-1.675-1.214-4.564-1.895-4.564-1.895s-.927 3.684 2.113 6.216c2.029 1.69 2.859 3.76 3.195 4.967-.098.35-.18.551-.18.551l.24-.336a6.6 6.6 0 01.15.72c-1.319 1.381-2.54 2.919-3.22 3.808-.426.188-.518.232-.706.319 1.061-1.724 2.076-3.63 2.065-4.631-.022-2.097-3.493-5.164-3.493-5.164s-1.277 1.396-1.515 3.508c-1.675-1.214-4.564-1.895-4.564-1.895s-.927 3.684 2.113 6.216c2.029 1.69 2.859 3.76 3.195 4.967-.098.35-.18.551-.18.551l.24-.336a6.6 6.6 0 01.15.72c-1.319 1.381-2.54 2.919-3.22 3.809-.683.3-1.122.506-1.122.506s.31-.053.798-.08l-.248.326s.168-.137.472-.336c1.251-.042 3.478.13 5.699 1.557 3.328 2.14 6.562.148 6.562.148s-1.517-2.552-3.178-3.784c1.943-.862 2.893-2.498 2.893-2.498s-3.97-2.39-5.976-1.782c-.69.209-1.67 1.078-2.658 2.11.01-.065.06-.446.135-1.131a54.263 54.263 0 001.743-2.634c.133-.018.219-.025.47-.04l-.247.327s.167-.137.472-.336c1.251-.042 3.478.129 5.699 1.556 3.328 2.14 6.562.149 6.562.149s-1.517-2.552-3.178-3.785c1.943-.861 2.893-2.497 2.893-2.497s-3.97-2.39-5.977-1.782c-.688.209-1.669 1.078-2.657 2.11.009-.065.06-.446.135-1.132 1.131-1.607 3.914-5.726 3.897-7.412-.023-2.097-3.494-5.164-3.494-5.164zm-12.287 15.873s-1.275 1.397-1.513 3.51c-1.674-1.215-4.564-1.895-4.564-1.895s-.928 3.682 2.112 6.215c2.03 1.69 2.86 3.762 3.196 4.968-.098.348-.179.551-.179.551l.239-.336c.12.474.161.787.161.787s.065-.481.146-1.222c1.13-1.607 3.916-5.728 3.898-7.414-.022-2.097-3.496-5.164-3.496-5.164zm8.552 13.633s-3.969-2.391-5.976-1.783c-1.613.49-4.706 4.381-5.9 5.943-.682.3-1.122.506-1.122.506s.31-.052.798-.08l-.247.327s.167-.138.472-.337c1.25-.041 3.477.13 5.698 1.557 3.329 2.14 6.562.148 6.562.148s-1.516-2.552-3.177-3.784c1.943-.862 2.892-2.497 2.892-2.497z"/>
        <path d="M156.545 83.15l-2.44 1.79c-2.438 1.789-1.473 5.265-1.473 5.265s2.22 1.256 3.727-.426c1.507-1.683.186-6.63.186-6.63zm-5.233 2.109s-3.697 4.009-4.06 7.449c-.362 3.439 1.822 6.022 1.822 6.022s.473-.808.901-1.553c-1 1.969-2.081 4.906-2.081 4.906s3.38.103 5.848-2.319c2.469-2.422 3.311-7.809 3.311-7.809s-5.383 2.49-6.549 4.274c.584-1.067 1.196-2.251 1.513-3.122.72-1.97-.705-7.848-.705-7.848zm-7.613 8.805s-1.088 1.549-1.052 3.674c-1.816-.988-4.77-1.293-4.77-1.293s-.444 3.773 2.897 5.893c2.23 1.415 3.32 3.365 3.809 4.517-.053.358-.108.568-.108.568l.193-.363c.18.455.261.759.261.759s.002-.485-.013-1.23c.913-1.735 3.147-6.183 2.912-7.854-.291-2.077-4.129-4.671-4.129-4.671zm9.818 9.97s-4.607-.487-6.167.913c-1.255 1.126-2.411 5.96-2.832 7.88-.492.561-.803.936-.803.936s.26-.18.69-.411c-.02.098-.087.4-.087.4s.095-.194.288-.504c1.116-.567 3.203-1.355 5.818-1.002 3.921.53 6.01-2.642 6.01-2.642s-2.454-1.669-4.48-2.083c1.396-1.603 1.563-3.488 1.563-3.488zm-14.167-.677s-.836 1.696-.475 3.791c-1.947-.698-4.912-.545-4.912-.545s.139 3.796 3.765 5.379c2.42 1.055 3.795 2.813 4.455 3.877a5.69 5.69 0 01-.018.58l.135-.39c.224.38.325.603.345.65-.88 1.694-1.623 3.511-2.028 4.555-.357.3-.433.367-.589.503.538-1.951.98-4.065.69-5.023-.607-2.008-4.796-3.983-4.796-3.983s-.837 1.696-.475 3.791c-1.947-.698-4.912-.545-4.912-.545s.139 3.796 3.765 5.379c2.42 1.056 3.795 2.813 4.455 3.877.004.364-.018.58-.018.58l.135-.39c.223.38.325.603.345.65-.88 1.694-1.623 3.511-2.028 4.555-.572.48-.936.8-.936.8s.283-.137.743-.3c-.035.095-.146.383-.146.383s.122-.179.36-.455c1.19-.39 3.375-.847 5.906-.096 3.793 1.125 6.343-1.69 6.343-1.69s-2.17-2.028-4.109-2.747c1.626-1.37 2.08-3.206 2.08-3.206s-4.478-1.187-6.235-.042c-.604.393-1.302 1.501-1.963 2.768a41.767 41.767 0 00-.186-1.124 54.28 54.28 0 00.938-3.015c.122-.055.203-.086.44-.17l-.146.383s.122-.179.36-.455c1.19-.39 3.375-.847 5.906-.096 3.793 1.124 6.342-1.69 6.342-1.69s-2.169-2.028-4.108-2.747c1.626-1.37 2.08-3.206 2.08-3.206s-4.478-1.187-6.236-.042c-.603.393-1.301 1.501-1.962 2.768a41.739 41.739 0 00-.186-1.124c.637-1.86 2.16-6.592 1.671-8.205-.606-2.008-4.796-3.984-4.796-3.984zm-7.365 18.673s-.835 1.697-.473 3.792c-1.947-.699-4.912-.545-4.912-.545s.137 3.795 3.763 5.378c2.42 1.056 3.797 2.814 4.457 3.878.003.361-.018.58-.018.58l.135-.39c.248.422.375.71.375.71s-.072-.48-.201-1.214c.636-1.858 2.16-6.593 1.672-8.207-.607-2.008-4.798-3.982-4.798-3.982zm12.018 10.702s-4.479-1.188-6.236-.043c-1.412.92-3.295 5.52-4.006 7.354-.572.478-.936.8-.936.8s.283-.138.744-.301l-.147.383s.123-.179.36-.455c1.19-.389 3.375-.847 5.906-.096 3.794 1.125 6.343-1.69 6.343-1.69s-2.17-2.027-4.108-2.747c1.625-1.37 2.08-3.205 2.08-3.205z" style="fill:#cd64e5;fill-opacity:1;stroke:none;stroke-width:1px;stroke-linecap:butt;stroke-linejoin:miter;stroke-opacity:1"/>
        <path d="M124.35 65.304l-1.72 2.49c-1.718 2.488.33 5.457.33 5.457s2.51.46 3.383-1.622c.873-2.083-1.994-6.325-1.994-6.325zm-4.256 3.706s-2.18 4.998-1.397 8.367c.783 3.368 3.692 5.094 3.692 5.094s.182-.918.343-1.762c-.3 2.187-.36 5.317-.36 5.317s3.227-1.009 4.767-4.105c1.54-3.097.573-8.463.573-8.463s-4.273 4.114-4.79 6.182c.202-1.2.393-2.519.408-3.445.035-2.097-3.236-7.185-3.236-7.185zm-4.31 10.811s-.522 1.82.208 3.817c-2.04-.34-4.93.339-4.93.339s.814 3.71 4.665 4.62c2.57.608 4.24 2.093 5.078 3.021.067.356.084.572.084.572l.063-.405c.319.37.496.631.496.631s-.157-.458-.415-1.157c.295-1.939.95-6.873.18-8.375-.955-1.867-5.43-3.063-5.43-3.063zm12.54 6.208s-4.513 1.047-5.53 2.882c-.816 1.474-.327 6.42-.096 8.372-.281.692-.453 1.147-.453 1.147s.188-.254.518-.614c.013.1.048.407.048.407s.027-.215.108-.57c.869-.902 2.583-2.33 5.17-2.852 3.879-.782 4.815-4.464 4.815-4.464s-2.867-.773-4.917-.501c.795-1.972.336-3.807.336-3.807zm-13.61 3.997s-.234 1.877.793 3.738c-2.068-.022-4.82 1.093-4.82 1.093s1.374 3.541 5.319 3.85c2.631.205 4.506 1.416 5.478 2.205.122.343.172.554.172.554l.001-.412a6.6 6.6 0 01.539.5c-.278 1.89-.385 3.85-.426 4.97-.24.398-.289.488-.392.667-.13-2.02-.405-4.162-.992-4.973-1.23-1.698-5.836-2.193-5.836-2.193s-.235 1.877.792 3.738c-2.068-.023-4.82 1.092-4.82 1.092s1.374 3.542 5.32 3.85c2.63.206 4.506 1.416 5.477 2.206.123.343.173.553.173.553v-.412a6.6 6.6 0 01.54.501c-.278 1.89-.386 3.85-.426 4.969-.384.64-.623 1.062-.623 1.062s.223-.222.604-.527c-.002.1-.013.41-.013.41s.058-.21.191-.548c.997-.757 2.912-1.905 5.55-2.024 3.952-.179 5.44-3.673 5.44-3.673s-2.713-1.206-4.78-1.25c1.087-1.827.916-3.71.916-3.71s-4.621.343-5.907 2c-.441.569-.739 1.845-.948 3.258-.03-.058-.21-.398-.544-1a54.72 54.72 0 00-.1-3.157c.097-.092.163-.148.36-.305-.002.101-.013.41-.013.41s.057-.21.19-.548c.997-.757 2.913-1.905 5.55-2.024 3.953-.179 5.44-3.673 5.44-3.673s-2.713-1.205-4.78-1.25c1.087-1.827.916-3.71.916-3.71s-4.621.344-5.907 2c-.441.57-.738 1.845-.948 3.259a45.34 45.34 0 00-.544-1.002c-.007-1.965-.117-6.935-1.106-8.3-1.23-1.698-5.836-2.194-5.836-2.194zm-.847 20.055s-.233 1.877.794 3.738c-2.068-.023-4.82 1.093-4.82 1.093s1.372 3.541 5.317 3.85c2.633.206 4.509 1.416 5.48 2.205.122.341.173.554.173.554v-.412c.372.317.587.549.587.549s-.225-.43-.587-1.082c-.007-1.964-.117-6.937-1.106-8.303-1.23-1.698-5.838-2.192-5.838-2.192zm14.86 6.179s-4.622.344-5.907 2c-1.034 1.332-1.307 6.296-1.379 8.26-.383.64-.623 1.063-.623 1.063s.223-.223.605-.528c-.002.101-.013.41-.013.41s.057-.209.19-.547c.998-.757 2.913-1.905 5.55-2.025 3.953-.178 5.44-3.672 5.44-3.672s-2.712-1.206-4.78-1.251c1.087-1.826.916-3.71.916-3.71zM122.672 127.376l-1.72 2.49c-1.718 2.488.331 5.457.331 5.457s2.51.46 3.383-1.622c.873-2.083-1.994-6.325-1.994-6.325zm-4.255 3.706s-2.181 4.998-1.398 8.367c.784 3.368 3.692 5.094 3.692 5.094s.183-.918.344-1.762c-.3 2.187-.361 5.317-.361 5.317s3.227-1.009 4.767-4.105c1.54-3.097.573-8.463.573-8.463s-4.273 4.114-4.79 6.182c.203-1.2.393-2.519.409-3.445.034-2.097-3.236-7.185-3.236-7.185zm-4.311 10.811s-.521 1.82.208 3.817c-2.04-.34-4.93.339-4.93.339s.814 3.71 4.665 4.62c2.571.608 4.24 2.093 5.078 3.021.068.356.084.572.084.572l.063-.405c.32.37.496.631.496.631s-.157-.458-.415-1.157c.295-1.939.95-6.873.181-8.375-.955-1.867-5.43-3.063-5.43-3.063zm12.54 6.208s-4.513 1.047-5.529 2.882c-.817 1.474-.328 6.42-.097 8.372-.281.692-.452 1.147-.452 1.147s.187-.254.518-.614c.013.1.048.407.048.407s.027-.215.107-.57c.87-.902 2.584-2.33 5.17-2.852 3.88-.782 4.815-4.464 4.815-4.464s-2.866-.773-4.916-.501c.795-1.972.336-3.807.336-3.807zm-13.609 3.997s-.235 1.877.792 3.738c-2.068-.022-4.82 1.093-4.82 1.093s1.374 3.541 5.32 3.85c2.63.205 4.506 1.416 5.477 2.205.123.343.173.554.173.554v-.412a6.6 6.6 0 01.54.5c-.278 1.89-.386 3.85-.426 4.97-.24.398-.29.488-.392.667-.131-2.02-.405-4.162-.993-4.973-1.23-1.698-5.835-2.193-5.835-2.193s-.235 1.877.792 3.738c-2.068-.023-4.82 1.092-4.82 1.092s1.374 3.542 5.318 3.85c2.632.206 4.507 1.416 5.479 2.206.122.343.172.553.172.553v-.412a6.6 6.6 0 01.54.501c-.278 1.89-.385 3.85-.426 4.969-.384.64-.623 1.062-.623 1.062s.223-.222.605-.527c-.002.1-.013.41-.013.41s.057-.21.19-.548c.997-.757 2.913-1.905 5.55-2.024 3.953-.179 5.44-3.673 5.44-3.673s-2.713-1.206-4.78-1.25c1.087-1.827.916-3.71.916-3.71s-4.621.343-5.907 2c-.441.569-.738 1.845-.948 3.258-.03-.058-.209-.398-.544-1a54.72 54.72 0 00-.1-3.157c.097-.092.163-.148.36-.305-.002.101-.013.41-.013.41s.057-.21.191-.548c.997-.757 2.912-1.905 5.55-2.024 3.952-.179 5.44-3.673 5.44-3.673s-2.713-1.205-4.781-1.25c1.087-1.827.916-3.71.916-3.71s-4.62.344-5.906 2c-.442.569-.739 1.845-.949 3.259a45.34 45.34 0 00-.544-1.002c-.007-1.965-.116-6.935-1.105-8.3-1.23-1.698-5.836-2.194-5.836-2.194zm-.847 20.055s-.233 1.877.794 3.738c-2.069-.023-4.82 1.093-4.82 1.093s1.372 3.541 5.316 3.85c2.633.206 4.51 1.416 5.48 2.205.122.341.173.554.173.554v-.412c.373.317.588.549.588.549s-.226-.43-.588-1.082c-.007-1.964-.116-6.937-1.106-8.303-1.23-1.698-5.838-2.192-5.838-2.192zm14.859 6.179s-4.621.344-5.907 2c-1.033 1.332-1.307 6.296-1.378 8.26-.384.64-.623 1.063-.623 1.063s.223-.223.604-.528l-.012.41s.057-.209.19-.547c.997-.757 2.912-1.905 5.55-2.025 3.953-.178 5.44-3.672 5.44-3.672s-2.713-1.206-4.78-1.251c1.087-1.826.916-3.71.916-3.71z" style="fill:#cd64e5;fill-opacity:1;stroke:none;stroke-width:1px;stroke-linecap:butt;stroke-linejoin:miter;stroke-opacity:1"/>
        <path style="fill:#801997;fill-opacity:1;stroke:none;stroke-width:1px;stroke-linecap:butt;stroke-linejoin:miter;stroke-opacity:1" d="M137.12 167.563l2.141 2.137c2.142 2.136.665 5.427.665 5.427s-2.385.908-3.62-.983c-1.237-1.89.814-6.581.814-6.581zm4.856 2.874s3.05 4.52 2.89 7.975c-.16 3.454-2.707 5.679-2.707 5.679s-.346-.87-.658-1.67c.692 2.096 1.319 5.163 1.319 5.163s-3.357-.408-5.433-3.174c-2.075-2.767-2.096-8.219-2.096-8.219s4.947 3.272 5.83 5.212c-.416-1.143-.843-2.406-1.025-3.314-.414-2.056 1.88-7.652 1.88-7.652zm6.199 9.85s.842 1.696.486 3.792c1.945-.703 4.91-.56 4.91-.56s-.129 3.797-3.75 5.389c-2.419 1.063-3.79 2.826-4.447 3.892-.002.361.02.577.02.577s-.1-.292-.135-.387c-.246.423-.373.71-.373.71s.071-.479.198-1.213c-.64-1.853-2.18-6.587-1.695-8.203.601-2.01 4.786-3.996 4.786-3.996zm-11.208 8.377s4.627.213 5.96 1.833c1.07 1.302 1.485 6.255 1.611 8.217.403.629.653 1.046.653 1.046s-.23-.217-.62-.511c.005.1.026.41.026.41s-.065-.208-.209-.543c-1.018-.728-2.962-1.822-5.601-1.866-3.956-.067-5.544-3.519-5.544-3.519s2.679-1.279 4.744-1.383c-1.139-1.795-1.02-3.684-1.02-3.684zm14.108 1.466s.57 1.803-.102 3.82c2.03-.397 4.938.201 4.938.201s-.71 3.732-4.533 4.75c-2.551.679-4.176 2.209-4.988 3.161-.058.36-.07.576-.07.576l-.075-.405a6.606 6.606 0 00-.439.59c.615 1.808 1.076 3.716 1.319 4.81.308.349.373.427.506.585-.237-2.01-.355-4.166.076-5.07.902-1.893 5.341-3.215 5.341-3.215s.571 1.804-.101 3.82c2.03-.397 4.937.201 4.937.201s-.709 3.732-4.532 4.75c-2.551.68-4.176 2.21-4.988 3.162-.059.36-.07.576-.07.576l-.075-.406a6.603 6.603 0 00-.439.59c.615 1.808 1.076 3.717 1.319 4.81.493.559.805.931.805.931s-.26-.178-.69-.409c.02.1.087.401.087.401s-.094-.195-.287-.504c-1.118-.564-3.21-1.346-5.825-.985-3.92.54-6.015-2.626-6.015-2.626s2.45-1.677 4.475-2.096c-1.4-1.6-1.574-3.483-1.574-3.483s4.607-.499 6.172.897c.537.48 1.06 1.68 1.523 3.033.02-.063.133-.43.353-1.083a54.255 54.255 0 01-.473-3.123 5.265 5.265 0 00-.41-.234l.087.401s-.094-.195-.286-.504c-1.118-.564-3.21-1.346-5.825-.985-3.92.54-6.016-2.626-6.016-2.626s2.45-1.678 4.476-2.097c-1.4-1.599-1.574-3.482-1.574-3.482s4.607-.5 6.171.897c.537.48 1.061 1.68 1.523 3.033.02-.063.134-.43.354-1.084-.35-1.934-1.142-6.841-.417-8.363.903-1.893 5.342-3.215 5.342-3.215zm4.467 19.57s.57 1.803-.103 3.82c2.03-.398 4.937.201 4.937.201s-.707 3.731-4.53 4.75c-2.552.679-4.178 2.21-4.99 3.161-.058.358-.07.576-.07.576l-.075-.405c-.308.38-.478.646-.478.646s.144-.464.382-1.17c-.35-1.933-1.142-6.844-.417-8.366.903-1.893 5.344-3.214 5.344-3.214zm-13.494 8.769s4.607-.5 6.172.897c1.258 1.122 2.426 5.954 2.852 7.873.493.56.805.932.805.932s-.26-.178-.69-.41c.02.1.087.402.087.402s-.094-.196-.287-.504c-1.117-.564-3.209-1.346-5.824-.986-3.92.541-6.016-2.626-6.016-2.626s2.45-1.677 4.475-2.096c-1.4-1.599-1.574-3.483-1.574-3.483z"/>
        <path d="M115.29 157.786l2.553 1.624c2.551 1.624 1.82 5.156 1.82 5.156s-2.133 1.401-3.748-.178c-1.615-1.579-.625-6.602-.625-6.602zm5.362 1.758s3.954 3.755 4.544 7.163c.589 3.408-1.419 6.13-1.419 6.13s-.525-.775-1.002-1.49c1.128 1.899 2.402 4.758 2.402 4.758s-3.366.327-5.99-1.927c-2.623-2.253-3.82-7.572-3.82-7.572s5.536 2.127 6.817 3.83c-.653-1.026-1.342-2.167-1.716-3.014-.848-1.918.184-7.878.184-7.878zm8.179 8.281s1.188 1.474 1.293 3.597c1.747-1.106 4.673-1.606 4.673-1.606s.694 3.735-2.499 6.071c-2.132 1.56-3.091 3.578-3.502 4.76.076.353.145.56.145.56l-.216-.35c-.15.466-.21.775-.21.775s-.035-.484-.07-1.228c-1.025-1.671-3.549-5.961-3.425-7.644.154-2.092 3.811-4.935 3.811-4.935zm-9.136 10.598s4.564-.79 6.214.504c1.327 1.04 2.8 5.787 3.348 7.675.528.527.863.88.863.88s-.271-.161-.716-.365c.026.098.114.394.114.394s-.109-.187-.32-.484c-1.152-.492-3.287-1.14-5.873-.614-3.878.789-6.173-2.239-6.173-2.239s2.34-1.827 4.334-2.374c-1.5-1.507-1.791-3.377-1.791-3.377zm14.091-1.613s.947 1.637.725 3.751c1.897-.825 4.865-.869 4.865-.869s.113 3.797-3.4 5.616c-2.345 1.214-3.601 3.059-4.189 4.164.021.363.057.577.057.577s-.12-.286-.161-.38a6.604 6.604 0 00-.301.672c.99 1.632 1.852 3.396 2.325 4.411.376.275.456.338.62.462-.665-1.91-1.245-3.99-1.02-4.966.473-2.043 4.522-4.292 4.522-4.292s.947 1.638.725 3.752c1.896-.826 4.865-.87 4.865-.87s.113 3.797-3.4 5.617c-2.345 1.213-3.601 3.058-4.189 4.163.02.364.057.578.057.578l-.161-.38a6.6 6.6 0 00-.302.671c.991 1.632 1.853 3.397 2.326 4.411.602.44.987.736.987.736s-.292-.118-.762-.25l.171.373s-.134-.17-.388-.43c-1.213-.31-3.424-.622-5.9.294-3.71 1.374-6.44-1.266-6.44-1.266s2.03-2.166 3.916-3.012c-1.712-1.26-2.288-3.061-2.288-3.061s4.391-1.482 6.22-.456c.628.352 1.398 1.412 2.142 2.633.005-.066.037-.449.111-1.135-.295-.705-.697-1.7-1.136-2.946a5.26 5.26 0 00-.45-.14l.17.372s-.133-.17-.388-.43c-1.213-.31-3.424-.622-5.9.295-3.71 1.374-6.44-1.266-6.44-1.266s2.03-2.167 3.917-3.013c-1.713-1.259-2.288-3.06-2.288-3.06s4.39-1.482 6.22-.456c.627.352 1.398 1.412 2.141 2.632.005-.066.037-.448.112-1.134-.76-1.813-2.592-6.434-2.212-8.077.473-2.043 4.522-4.292 4.522-4.292zm8.586 18.144s.945 1.638.723 3.752c1.896-.826 4.865-.868 4.865-.868s.114 3.795-3.4 5.615c-2.344 1.214-3.602 3.059-4.189 4.164.02.361.057.577.057.577l-.161-.38a7.757 7.757 0 00-.327.735s.04-.484.12-1.226c-.758-1.811-2.593-6.435-2.213-8.078.473-2.043 4.525-4.291 4.525-4.291zm-11.284 11.474s4.391-1.481 6.22-.455c1.47.824 3.654 5.29 4.484 7.072.603.44.987.736.987.736s-.291-.118-.762-.25l.172.372s-.134-.17-.39-.43c-1.212-.31-3.423-.622-5.899.295-3.71 1.374-6.44-1.266-6.44-1.266s2.03-2.167 3.917-3.013c-1.713-1.259-2.288-3.06-2.288-3.06z" style="fill:#801997;fill-opacity:1;stroke:none;stroke-width:1px;stroke-linecap:butt;stroke-linejoin:miter;stroke-opacity:1"/>
        <path style="fill:#801997;fill-opacity:1;stroke:none;stroke-width:1px;stroke-linecap:butt;stroke-linejoin:miter;stroke-opacity:1" d="M148.97 151.033l1.997 2.272c1.997 2.272.308 5.459.308 5.459s-2.439.75-3.549-1.217c-1.11-1.968 1.244-6.514 1.244-6.514zm4.658 3.185s2.748 4.71 2.362 8.147c-.386 3.437-3.074 5.49-3.074 5.49s-.288-.891-.546-1.71c.553 2.137.978 5.239.978 5.239s-3.323-.627-5.213-3.523c-1.89-2.896-1.555-8.338-1.555-8.338s4.723 3.588 5.477 5.582c-.34-1.168-.683-2.456-.806-3.374-.279-2.079 2.377-7.513 2.377-7.513zm5.54 10.236s.73 1.746.238 3.814c1.986-.574 4.936-.237 4.936-.237s-.377 3.78-4.095 5.132c-2.483.903-3.968 2.572-4.692 3.592-.026.361-.017.578-.017.578l-.11-.395c-.273.405-.419.685-.419.685s.102-.474.277-1.198c-.518-1.892-1.743-6.716-1.155-8.297.732-1.966 5.038-3.674 5.038-3.674zm-11.731 7.625s4.603.515 5.826 2.219c.983 1.369 1.073 6.338 1.071 8.304.36.654.583 1.086.583 1.086s-.215-.23-.586-.55c-.002.101 0 .41 0 .41s-.052-.21-.173-.554c-.968-.794-2.837-2.012-5.467-2.23-3.943-.325-5.302-3.873-5.302-3.873s2.757-1.1 4.825-1.07c-1.02-1.865-.777-3.742-.777-3.742zm13.981 2.385s.452 1.837-.351 3.805c2.051-.263 4.914.524 4.914.524s-.952 3.677-4.834 4.443c-2.59.511-4.311 1.932-5.184 2.829-.082.355-.107.57-.107.57l-.049-.41c-.3.324-.447.52-.476.561.495 1.843.83 3.778 1 4.885.285.368.345.451.468.617-.106-2.02-.083-4.18.406-5.054 1.025-1.83 5.541-2.858 5.541-2.858s.452 1.837-.351 3.805c2.051-.263 4.914.524 4.914.524s-.952 3.677-4.834 4.443c-2.59.51-4.311 1.931-5.184 2.828-.082.355-.107.57-.107.57l-.049-.409a6.6 6.6 0 00-.477.56c.496 1.844.831 3.779 1.002 4.885.455.59.742.983.742.983s-.247-.195-.662-.454l.06.406s-.08-.2-.252-.522c-1.078-.635-3.115-1.552-5.748-1.364-3.946.283-5.83-3.014-5.83-3.014s2.553-1.513 4.602-1.799c-1.293-1.687-1.342-3.578-1.342-3.578s4.63-.196 6.1 1.3c.504.513.948 1.746 1.32 3.125.023-.062.161-.42.424-1.058a54.28 54.28 0 01-.268-3.146 5.247 5.247 0 00-.393-.261l.06.406s-.08-.201-.253-.522c-1.078-.636-3.114-1.553-5.748-1.364-3.946.283-5.83-3.014-5.83-3.014s2.554-1.514 4.602-1.8c-1.292-1.687-1.342-3.577-1.342-3.577s4.63-.197 6.1 1.299c.504.513.948 1.746 1.32 3.126.024-.062.162-.42.425-1.058-.223-1.953-.692-6.902.131-8.373 1.024-1.83 5.54-2.859 5.54-2.859zm3.177 19.82s.45 1.837-.353 3.806c2.052-.264 4.914.524 4.914.524s-.95 3.676-4.832 4.442c-2.59.511-4.313 1.932-5.186 2.83-.08.352-.107.57-.107.57l-.048-.41c-.333.359-.52.613-.52.613s.174-.453.459-1.143c-.223-1.951-.693-6.903.13-8.375 1.025-1.83 5.544-2.857 5.544-2.857zm-14.038 7.868s4.63-.197 6.1 1.299c1.18 1.202 2.03 6.1 2.33 8.043.456.59.743.982.743.982s-.248-.195-.662-.453l.06.406s-.08-.201-.253-.522c-1.078-.636-3.114-1.553-5.748-1.364-3.946.283-5.83-3.014-5.83-3.014s2.554-1.514 4.602-1.8c-1.292-1.687-1.342-3.577-1.342-3.577z"/>
        <path style="fill:#4e5a21;fill-opacity:1;stroke:none;stroke-width:1px;stroke-linecap:butt;stroke-linejoin:miter;stroke-opacity:1" d="M163.987 219.446s.42-4.613-1.258-7.55c-1.677-2.935-2.097-4.613-2.097-4.613l3.355 2.097s-1.677-5.452-.838-10.065c.838-4.614 2.516-6.292 2.516-6.292s2.097 10.905 2.097 15.938c0 5.033-3.775 10.485-3.775 10.485z"/>
        <path d="M186.87 156.24l-2.142 2.136c-2.141 2.136-.664 5.427-.664 5.427s2.384.908 3.62-.983c1.237-1.89-.814-6.58-.814-6.58zm-4.856 2.873s-3.051 4.52-2.89 7.975c.16 3.455 2.707 5.679 2.707 5.679s.346-.87.657-1.67c-.691 2.096-1.318 5.163-1.318 5.163s3.356-.408 5.432-3.174c2.076-2.766 2.097-8.219 2.097-8.219s-4.948 3.272-5.83 5.212c.416-1.143.842-2.406 1.025-3.314.414-2.056-1.88-7.652-1.88-7.652zm-6.2 9.85s-.841 1.696-.486 3.792c-1.944-.703-4.91-.56-4.91-.56s.129 3.797 3.751 5.389c2.418 1.063 3.79 2.826 4.446 3.892.002.361-.02.577-.02.577l.135-.387c.247.423.373.71.373.71s-.07-.479-.198-1.213c.641-1.853 2.18-6.587 1.696-8.203-.602-2.01-4.786-3.996-4.786-3.996zm11.209 8.378s-4.628.212-5.96 1.832c-1.07 1.302-1.485 6.255-1.612 8.217-.402.629-.653 1.046-.653 1.046s.23-.216.62-.51c-.004.1-.026.408-.026.408s.066-.206.209-.542c1.018-.728 2.963-1.822 5.602-1.866 3.956-.067 5.543-3.519 5.543-3.519s-2.678-1.279-4.744-1.383c1.14-1.795 1.02-3.683 1.02-3.683zm-14.108 1.465s-.571 1.803.102 3.82c-2.03-.397-4.938.201-4.938.201s.71 3.732 4.533 4.75c2.55.679 4.175 2.21 4.987 3.161.059.36.07.576.07.576l.075-.405c.278.343.412.547.44.59-.616 1.808-1.077 3.716-1.32 4.81-.307.349-.372.428-.506.585.237-2.01.356-4.166-.075-5.07-.903-1.893-5.342-3.215-5.342-3.215s-.57 1.804.102 3.82c-2.03-.397-4.938.201-4.938.201s.71 3.732 4.533 4.75c2.55.68 4.175 2.21 4.988 3.162.058.36.07.576.07.576l.074-.406c.278.343.412.547.44.59-.616 1.808-1.077 3.717-1.32 4.81-.493.56-.804.931-.804.931s.259-.178.69-.409l-.087.401s.094-.195.287-.504c1.117-.564 3.209-1.346 5.824-.985 3.92.54 6.016-2.626 6.016-2.626s-2.45-1.677-4.475-2.096c1.4-1.6 1.573-3.483 1.573-3.483s-4.607-.499-6.171.898c-.537.479-1.061 1.68-1.523 3.032-.02-.063-.133-.43-.354-1.083.136-.753.313-1.811.473-3.123.113-.072.188-.115.41-.234-.02.099-.087.401-.087.401s.094-.195.287-.504c1.117-.564 3.21-1.346 5.825-.985 3.92.54 6.015-2.626 6.015-2.626s-2.45-1.678-4.475-2.097c1.4-1.599 1.574-3.482 1.574-3.482s-4.607-.5-6.172.897c-.537.48-1.06 1.68-1.523 3.033a46.15 46.15 0 00-.354-1.084c.35-1.934 1.142-6.841.417-8.363-.902-1.893-5.342-3.215-5.342-3.215zm-4.468 19.57s-.569 1.803.104 3.82c-2.03-.398-4.938.201-4.938.201s.708 3.731 4.531 4.75c2.552.679 4.178 2.21 4.99 3.161.058.358.07.576.07.576l.075-.405c.308.38.477.646.477.646s-.143-.464-.382-1.17c.35-1.933 1.143-6.844.417-8.366-.902-1.893-5.344-3.214-5.344-3.214zm13.494 8.769s-4.607-.5-6.171.897c-1.258 1.122-2.426 5.954-2.852 7.873-.494.56-.806.932-.806.932s.26-.178.69-.41c-.02.1-.086.402-.086.402s.094-.196.286-.504c1.118-.564 3.21-1.346 5.825-.985 3.92.54 6.015-2.627 6.015-2.627s-2.45-1.677-4.475-2.096c1.4-1.599 1.574-3.482 1.574-3.482z" style="fill:#cd64e5;fill-opacity:1;stroke:none;stroke-width:1px;stroke-linecap:butt;stroke-linejoin:miter;stroke-opacity:1"/>
        <path style="fill:#cd64e5;fill-opacity:1;stroke:none;stroke-width:1px;stroke-linecap:butt;stroke-linejoin:miter;stroke-opacity:1" d="M208.699 146.462l-2.552 1.625c-2.552 1.623-1.82 5.155-1.82 5.155s2.132 1.401 3.747-.178c1.615-1.579.625-6.602.625-6.602zm-5.362 1.758s-3.954 3.755-4.543 7.163c-.59 3.408 1.418 6.13 1.418 6.13s.526-.775 1.002-1.49c-1.127 1.899-2.401 4.758-2.401 4.758s3.365.327 5.99-1.927c2.623-2.253 3.82-7.572 3.82-7.572s-5.537 2.127-6.818 3.83c.653-1.026 1.342-2.167 1.717-3.014.848-1.918-.185-7.878-.185-7.878zm-8.178 8.281s-1.188 1.474-1.293 3.597c-1.748-1.106-4.674-1.606-4.674-1.606s-.694 3.735 2.5 6.071c2.131 1.56 3.09 3.578 3.501 4.76-.076.353-.145.56-.145.56l.216-.35c.15.466.211.775.211.775s.034-.484.069-1.228c1.025-1.671 3.55-5.961 3.425-7.644-.153-2.092-3.81-4.935-3.81-4.935zm9.136 10.598s-4.565-.79-6.215.504c-1.326 1.04-2.8 5.787-3.347 7.675-.529.527-.863.88-.863.88s.27-.161.716-.364c-.027.097-.114.393-.114.393s.108-.187.32-.484c1.152-.491 3.287-1.14 5.873-.614 3.877.789 6.172-2.238 6.172-2.238s-2.34-1.828-4.334-2.375c1.5-1.507 1.792-3.377 1.792-3.377zm-14.092-1.613s-.947 1.637-.725 3.751c-1.896-.825-4.865-.869-4.865-.869s-.112 3.797 3.401 5.616c2.344 1.214 3.6 3.059 4.188 4.164-.02.364-.056.577-.056.577l.16-.38c.198.395.285.624.302.672-.99 1.632-1.853 3.396-2.326 4.411-.376.275-.456.338-.62.463.665-1.912 1.246-3.992 1.02-4.967-.472-2.043-4.522-4.292-4.522-4.292s-.946 1.638-.725 3.752c-1.896-.825-4.864-.87-4.864-.87s-.113 3.797 3.4 5.617c2.345 1.214 3.6 3.058 4.188 4.163-.02.364-.056.578-.056.578l.16-.38a6.6 6.6 0 01.302.671c-.99 1.632-1.853 3.397-2.325 4.412-.603.44-.988.735-.988.735s.292-.118.762-.25l-.17.373s.133-.17.388-.43c1.213-.31 3.424-.622 5.9.295 3.71 1.373 6.44-1.267 6.44-1.267s-2.03-2.166-3.917-3.012c1.713-1.26 2.288-3.061 2.288-3.061s-4.39-1.482-6.22-.456c-.627.352-1.398 1.412-2.141 2.633a43.58 43.58 0 00-.112-1.134c.296-.706.697-1.701 1.136-2.947a5.26 5.26 0 01.45-.14c-.04.092-.17.372-.17.372s.134-.17.388-.43c1.213-.31 3.424-.622 5.9.295 3.71 1.374 6.44-1.266 6.44-1.266s-2.03-2.167-3.916-3.013c1.712-1.259 2.288-3.06 2.288-3.06s-4.391-1.482-6.22-.456c-.628.352-1.398 1.412-2.141 2.632a43.561 43.561 0 00-.112-1.134c.759-1.813 2.591-6.434 2.212-8.076-.473-2.044-4.522-4.293-4.522-4.293zm-8.585 18.144s-.945 1.638-.724 3.753c-1.896-.827-4.864-.87-4.864-.87s-.115 3.796 3.399 5.616c2.345 1.214 3.602 3.059 4.19 4.164-.021.362-.057.577-.057.577l.16-.379c.22.437.328.734.328.734s-.04-.484-.12-1.226c.758-1.811 2.592-6.435 2.212-8.078-.473-2.043-4.525-4.291-4.525-4.291zm11.283 11.475s-4.39-1.482-6.22-.456c-1.47.824-3.654 5.29-4.484 7.072-.602.44-.987.736-.987.736s.292-.118.762-.25l-.171.372s.134-.17.389-.43c1.212-.31 3.424-.622 5.9.295 3.71 1.374 6.44-1.266 6.44-1.266s-2.03-2.166-3.917-3.013c1.712-1.259 2.288-3.06 2.288-3.06z"/>
        <path d="M175.02 139.709l-1.998 2.272c-1.997 2.272-.307 5.459-.307 5.459s2.438.75 3.548-1.217c1.11-1.967-1.244-6.514-1.244-6.514zm-4.658 3.185s-2.748 4.71-2.363 8.147c.386 3.437 3.074 5.49 3.074 5.49s.288-.89.546-1.71c-.552 2.137-.977 5.239-.977 5.239s3.323-.627 5.213-3.523c1.89-2.896 1.554-8.338 1.554-8.338s-4.722 3.588-5.477 5.582c.341-1.168.684-2.456.807-3.374.278-2.079-2.377-7.513-2.377-7.513zm-5.541 10.236s-.73 1.746-.237 3.815c-1.987-.575-4.936-.238-4.936-.238s.376 3.78 4.095 5.132c2.483.903 3.967 2.572 4.691 3.592.026.361.017.578.017.578l.11-.395c.274.405.42.685.42.685s-.103-.474-.278-1.198c.518-1.891 1.744-6.716 1.155-8.297-.732-1.966-5.037-3.674-5.037-3.674zm11.732 7.625s-4.604.515-5.827 2.219c-.983 1.37-1.073 6.338-1.07 8.304-.36.654-.584 1.087-.584 1.087s.216-.231.586-.55c.002.1 0 .41 0 .41s.052-.211.173-.555c.968-.794 2.837-2.012 5.468-2.23 3.943-.325 5.301-3.873 5.301-3.873s-2.756-1.1-4.824-1.07c1.019-1.865.777-3.742.777-3.742zm-13.982 2.385s-.451 1.837.352 3.805c-2.052-.263-4.914.524-4.914.524s.952 3.677 4.834 4.443c2.59.511 4.31 1.932 5.184 2.829.081.355.107.57.107.57l.048-.41c.3.324.447.52.477.561-.496 1.844-.83 3.778-1.001 4.885-.285.369-.344.452-.467.617.105-2.02.082-4.18-.407-5.054-1.024-1.83-5.54-2.858-5.54-2.858s-.452 1.837.35 3.805c-2.05-.263-4.913.524-4.913.524s.952 3.677 4.834 4.443c2.59.51 4.31 1.931 5.184 2.828.081.355.107.57.107.57l.048-.409c.3.324.447.519.477.56-.496 1.844-.83 3.779-1.001 4.885-.456.59-.743.983-.743.983s.248-.195.662-.453l-.06.405s.08-.2.253-.521c1.078-.636 3.114-1.553 5.747-1.365 3.947.283 5.831-3.014 5.831-3.014s-2.554-1.513-4.603-1.799c1.293-1.687 1.343-3.578 1.343-3.578s-4.63-.196-6.1 1.3c-.504.513-.948 1.746-1.32 3.125-.024-.062-.162-.42-.425-1.058.087-.76.194-1.827.268-3.146.108-.08.18-.128.394-.26l-.06.405s.08-.201.252-.522c1.079-.636 3.115-1.553 5.748-1.364 3.947.283 5.83-3.014 5.83-3.014s-2.553-1.514-4.602-1.8c1.293-1.687 1.343-3.577 1.343-3.577s-4.63-.197-6.1 1.299c-.505.513-.948 1.746-1.321 3.126-.023-.062-.161-.42-.424-1.058.222-1.953.692-6.902-.132-8.373-1.024-1.83-5.54-2.859-5.54-2.859zm-3.177 19.82s-.45 1.837.353 3.806c-2.051-.264-4.914.524-4.914.524s.95 3.677 4.832 4.442c2.591.511 4.314 1.932 5.186 2.83.081.352.107.57.107.57s.036-.31.049-.41c.332.359.519.613.519.613s-.174-.453-.458-1.143c.222-1.951.692-6.903-.131-8.375-1.025-1.83-5.543-2.857-5.543-2.857zm14.039 7.868s-4.63-.197-6.1 1.299c-1.181 1.202-2.031 6.1-2.33 8.043-.456.59-.743.982-.743.982s.247-.195.662-.453l-.06.406s.08-.201.252-.522c1.079-.636 3.115-1.553 5.748-1.364 3.947.283 5.83-3.014 5.83-3.014s-2.553-1.514-4.602-1.8c1.293-1.687 1.343-3.577 1.343-3.577z" style="fill:#cd64e5;fill-opacity:1;stroke:none;stroke-width:1px;stroke-linecap:butt;stroke-linejoin:miter;stroke-opacity:1"/>
        <path style="fill:#801997;fill-opacity:1;stroke:none;stroke-width:1px;stroke-linecap:butt;stroke-linejoin:miter;stroke-opacity:1" d="M171.93 186.856l2.142 2.137c2.141 2.135.664 5.426.664 5.426s-2.384.908-3.62-.982c-1.236-1.89.815-6.581.815-6.581zm4.857 2.873s3.05 4.52 2.89 7.975c-.16 3.455-2.708 5.68-2.708 5.68s-.346-.87-.657-1.671c.691 2.096 1.319 5.163 1.319 5.163s-3.357-.407-5.433-3.173c-2.075-2.767-2.097-8.219-2.097-8.219s4.948 3.272 5.831 5.212c-.417-1.143-.843-2.406-1.026-3.314-.414-2.056 1.88-7.653 1.88-7.653zm6.198 9.851s.842 1.696.487 3.792c1.945-.704 4.91-.56 4.91-.56s-.129 3.796-3.75 5.389c-2.42 1.063-3.791 2.826-4.447 3.891-.002.362.02.578.02.578l-.135-.387c-.246.422-.373.71-.373.71s.07-.48.198-1.213c-.641-1.853-2.18-6.587-1.696-8.204.602-2.009 4.786-3.996 4.786-3.996zm-11.207 8.377s4.627.213 5.959 1.833c1.07 1.302 1.485 6.255 1.612 8.216.402.63.653 1.046.653 1.046s-.23-.216-.62-.51c.004.1.026.409.026.409s-.066-.207-.209-.542c-1.018-.729-2.963-1.822-5.602-1.867-3.956-.067-5.543-3.518-5.543-3.518s2.679-1.28 4.744-1.383c-1.139-1.795-1.02-3.684-1.02-3.684zm14.107 1.465s.571 1.804-.101 3.82c2.03-.396 4.937.202 4.937.202s-.71 3.731-4.533 4.75c-2.55.679-4.175 2.209-4.987 3.161-.059.36-.07.576-.07.576l-.075-.405a6.606 6.606 0 00-.44.59c.616 1.807 1.077 3.716 1.32 4.81.308.348.372.427.506.584-.237-2.01-.356-4.166.075-5.07.903-1.892 5.342-3.214 5.342-3.214s.57 1.803-.102 3.82c2.03-.397 4.938.2 4.938.2s-.71 3.732-4.533 4.75c-2.55.68-4.175 2.21-4.988 3.162-.058.36-.069.576-.069.576l-.075-.405a6.603 6.603 0 00-.44.59c.616 1.807 1.077 3.716 1.32 4.81.493.559.805.931.805.931s-.26-.178-.69-.409c.02.099.086.401.086.401s-.094-.195-.286-.504c-1.118-.564-3.21-1.346-5.825-.985-3.92.54-6.016-2.626-6.016-2.626s2.45-1.678 4.476-2.097c-1.4-1.599-1.574-3.482-1.574-3.482s4.607-.5 6.171.897c.537.48 1.061 1.68 1.523 3.033.02-.063.134-.43.354-1.084a54.255 54.255 0 01-.473-3.122 5.265 5.265 0 00-.41-.234c.02.099.087.4.087.4s-.094-.195-.287-.503c-1.117-.564-3.209-1.346-5.824-.986-3.92.541-6.016-2.626-6.016-2.626s2.45-1.677 4.475-2.096c-1.4-1.6-1.574-3.483-1.574-3.483s4.607-.499 6.172.898c.537.48 1.06 1.68 1.523 3.032.02-.063.133-.43.354-1.083-.35-1.934-1.142-6.842-.417-8.364.902-1.892 5.342-3.215 5.342-3.215zm4.468 19.57s.569 1.804-.104 3.82c2.03-.397 4.938.202 4.938.202s-.708 3.73-4.53 4.749c-2.553.68-4.179 2.21-4.99 3.162-.058.357-.07.576-.07.576l-.075-.405c-.308.38-.478.646-.478.646s.143-.464.382-1.171c-.35-1.933-1.143-6.843-.417-8.365.902-1.893 5.344-3.214 5.344-3.214zm-13.494 8.77s4.607-.5 6.171.896c1.258 1.123 2.427 5.955 2.853 7.874.493.56.805.931.805.931s-.26-.178-.69-.409c.02.1.087.401.087.401s-.094-.195-.287-.504c-1.118-.564-3.21-1.346-5.825-.985-3.92.54-6.015-2.626-6.015-2.626s2.45-1.677 4.475-2.096c-1.4-1.6-1.574-3.483-1.574-3.483z"/>
        <path style="fill:#801997;fill-opacity:1;stroke:none;stroke-width:1px;stroke-linecap:butt;stroke-linejoin:miter;stroke-opacity:1" d="M183.78 170.325l1.998 2.273c1.997 2.271.307 5.459.307 5.459s-2.438.75-3.548-1.218c-1.11-1.967 1.244-6.514 1.244-6.514zm4.658 3.186s2.749 4.71 2.363 8.147c-.386 3.437-3.074 5.49-3.074 5.49s-.288-.891-.546-1.71c.552 2.137.977 5.238.977 5.238s-3.323-.626-5.213-3.522c-1.89-2.897-1.554-8.338-1.554-8.338s4.722 3.588 5.477 5.581c-.34-1.167-.684-2.455-.807-3.373-.278-2.079 2.377-7.513 2.377-7.513zm5.541 10.235s.73 1.747.237 3.815c1.987-.574 4.936-.237 4.936-.237s-.376 3.78-4.095 5.132c-2.483.902-3.967 2.572-4.691 3.592-.026.36-.017.578-.017.578l-.11-.396c-.274.406-.419.685-.419.685s.102-.473.277-1.198c-.518-1.89-1.744-6.715-1.155-8.297.732-1.965 5.037-3.674 5.037-3.674zm-11.732 7.626s4.604.515 5.827 2.218c.983 1.37 1.073 6.339 1.071 8.305.36.654.583 1.086.583 1.086s-.215-.23-.586-.55c-.002.1 0 .41 0 .41s-.052-.21-.173-.554c-.968-.794-2.837-2.012-5.468-2.23-3.943-.325-5.301-3.873-5.301-3.873s2.757-1.101 4.824-1.07c-1.019-1.866-.777-3.742-.777-3.742zm13.982 2.385s.451 1.837-.352 3.805c2.052-.263 4.914.524 4.914.524s-.952 3.677-4.834 4.443c-2.59.51-4.31 1.931-5.184 2.828-.081.355-.106.57-.106.57l-.05-.409c-.299.324-.446.519-.476.56.496 1.844.83 3.779 1.001 4.886.285.368.344.451.467.617-.105-2.021-.082-4.18.407-5.054 1.024-1.83 5.54-2.859 5.54-2.859s.452 1.837-.35 3.805c2.05-.263 4.913.524 4.913.524s-.952 3.678-4.834 4.443c-2.59.511-4.31 1.932-5.184 2.829-.081.355-.106.57-.106.57l-.05-.41a6.6 6.6 0 00-.476.561c.496 1.844.83 3.778 1.001 4.885.456.59.743.982.743.982s-.247-.194-.662-.453l.06.406s-.08-.201-.253-.522c-1.078-.636-3.114-1.553-5.747-1.364-3.947.283-5.831-3.014-5.831-3.014s2.554-1.514 4.603-1.8c-1.293-1.686-1.343-3.577-1.343-3.577s4.63-.197 6.1 1.299c.504.513.948 1.746 1.321 3.126.023-.062.161-.42.424-1.058a54.28 54.28 0 01-.268-3.147 5.247 5.247 0 00-.394-.26l.06.405s-.08-.2-.252-.521c-1.078-.636-3.115-1.553-5.748-1.365-3.946.283-5.83-3.014-5.83-3.014s2.553-1.513 4.602-1.799c-1.293-1.687-1.342-3.578-1.342-3.578s4.63-.196 6.1 1.3c.504.513.948 1.746 1.32 3.125.024-.061.161-.42.424-1.058-.222-1.953-.692-6.901.132-8.372 1.024-1.83 5.54-2.86 5.54-2.86zm3.177 19.82s.45 1.837-.353 3.805c2.051-.264 4.914.524 4.914.524s-.95 3.677-4.832 4.443c-2.591.511-4.314 1.932-5.186 2.829-.081.352-.107.57-.107.57l-.049-.41c-.332.36-.519.614-.519.614s.174-.454.458-1.143c-.222-1.952-.692-6.904.132-8.375 1.024-1.83 5.542-2.857 5.542-2.857zm-14.039 7.867s4.63-.196 6.1 1.3c1.182 1.202 2.031 6.1 2.33 8.043.456.59.743.982.743.982s-.247-.195-.662-.453l.06.405s-.08-.2-.252-.521c-1.078-.636-3.114-1.553-5.748-1.365-3.946.283-5.83-3.014-5.83-3.014s2.553-1.513 4.602-1.799c-1.293-1.687-1.342-3.578-1.342-3.578z"/>
        <path d="M221.68 175.532l-2.141 2.137c-2.142 2.136-.665 5.427-.665 5.427s2.385.907 3.621-.983c1.236-1.89-.815-6.581-.815-6.581zm-4.856 2.873s-3.05 4.52-2.89 7.975c.16 3.455 2.708 5.68 2.708 5.68s.345-.87.657-1.671c-.692 2.096-1.319 5.164-1.319 5.164s3.357-.408 5.433-3.174c2.075-2.767 2.096-8.219 2.096-8.219s-4.947 3.272-5.83 5.212c.416-1.143.843-2.406 1.025-3.314.414-2.056-1.88-7.653-1.88-7.653zm-6.199 9.852s-.842 1.695-.486 3.79c-1.945-.703-4.91-.56-4.91-.56s.129 3.797 3.75 5.39c2.42 1.063 3.791 2.826 4.447 3.891.002.362-.02.578-.02.578s.1-.292.135-.387c.246.422.373.71.373.71s-.07-.479-.198-1.213c.64-1.853 2.18-6.587 1.695-8.204-.601-2.009-4.786-3.995-4.786-3.995zm11.208 8.376s-4.627.213-5.96 1.833c-1.07 1.302-1.485 6.255-1.611 8.216-.402.63-.653 1.046-.653 1.046s.23-.216.62-.51c-.004.1-.026.409-.026.409s.065-.207.209-.542c1.018-.729 2.963-1.822 5.601-1.867 3.956-.067 5.544-3.518 5.544-3.518s-2.679-1.28-4.744-1.383c1.139-1.795 1.02-3.684 1.02-3.684zm-14.107 1.466s-.571 1.803.101 3.82c-2.03-.397-4.937.2-4.937.2s.709 3.732 4.532 4.75c2.551.68 4.176 2.21 4.988 3.162.058.36.07.576.07.576l.075-.405c.278.342.412.546.439.59-.615 1.807-1.076 3.716-1.319 4.81-.308.348-.373.427-.506.585.237-2.01.355-4.166-.075-5.07-.903-1.893-5.342-3.215-5.342-3.215s-.571 1.803.102 3.82c-2.03-.397-4.938.201-4.938.201s.71 3.732 4.533 4.75c2.55.679 4.175 2.209 4.987 3.161.059.36.07.576.07.576l.075-.405c.278.343.412.547.44.59-.616 1.808-1.077 3.716-1.32 4.81-.493.559-.805.931-.805.931s.26-.178.69-.409c-.02.099-.087.401-.087.401s.094-.195.287-.504c1.118-.564 3.21-1.346 5.825-.985 3.92.54 6.015-2.626 6.015-2.626s-2.45-1.678-4.475-2.097c1.4-1.599 1.574-3.482 1.574-3.482s-4.607-.5-6.172.897c-.537.48-1.06 1.68-1.523 3.033-.02-.063-.133-.43-.353-1.084.136-.753.313-1.81.473-3.122.113-.072.187-.115.41-.234l-.087.4s.094-.195.287-.503c1.117-.564 3.209-1.346 5.824-.986 3.92.541 6.016-2.626 6.016-2.626s-2.45-1.677-4.475-2.096c1.4-1.599 1.573-3.483 1.573-3.483s-4.607-.499-6.171.898c-.537.48-1.061 1.68-1.523 3.032a46.15 46.15 0 00-.354-1.083c.35-1.934 1.142-6.842.417-8.364-.903-1.892-5.342-3.215-5.342-3.215zm-4.468 19.57s-.57 1.803.104 3.82c-2.03-.398-4.938.2-4.938.2s.707 3.732 4.53 4.75c2.553.68 4.178 2.21 4.99 3.162.058.357.07.576.07.576l.075-.405c.308.38.478.646.478.646s-.144-.464-.382-1.17c.35-1.934 1.142-6.844.417-8.366-.903-1.893-5.344-3.214-5.344-3.214zm13.494 8.768s-4.607-.499-6.172.898c-1.257 1.122-2.426 5.954-2.852 7.873-.493.56-.805.931-.805.931s.26-.178.69-.409c-.02.1-.087.401-.087.401s.094-.195.287-.504c1.117-.564 3.21-1.346 5.825-.985 3.92.54 6.015-2.626 6.015-2.626s-2.45-1.677-4.475-2.096c1.4-1.6 1.574-3.483 1.574-3.483z" style="fill:#cd64e5;fill-opacity:1;stroke:none;stroke-width:1px;stroke-linecap:butt;stroke-linejoin:miter;stroke-opacity:1"/>
        <path style="fill:#cd64e5;fill-opacity:1;stroke:none;stroke-width:1px;stroke-linecap:butt;stroke-linejoin:miter;stroke-opacity:1" d="M243.51 165.755l-2.553 1.624c-2.551 1.624-1.82 5.156-1.82 5.156s2.133 1.4 3.748-.178c1.615-1.58.625-6.602.625-6.602zm-5.362 1.758s-3.954 3.755-4.544 7.163c-.589 3.408 1.419 6.13 1.419 6.13s.525-.775 1.002-1.49c-1.127 1.898-2.402 4.758-2.402 4.758s3.366.326 5.99-1.927c2.623-2.253 3.82-7.572 3.82-7.572s-5.536 2.126-6.817 3.83c.653-1.026 1.342-2.167 1.716-3.014.848-1.918-.184-7.878-.184-7.878zm-8.179 8.281s-1.188 1.474-1.293 3.597c-1.747-1.107-4.673-1.607-4.673-1.607s-.694 3.735 2.499 6.072c2.132 1.56 3.091 3.577 3.502 4.76-.076.353-.145.559-.145.559s.162-.264.216-.349c.15.466.21.774.21.774s.035-.483.07-1.227c1.025-1.671 3.549-5.961 3.425-7.645-.154-2.09-3.81-4.934-3.81-4.934zm9.136 10.598s-4.564-.79-6.214.503c-1.327 1.04-2.8 5.787-3.348 7.675-.528.528-.863.88-.863.88s.271-.16.717-.364c-.027.097-.115.394-.115.394s.109-.188.321-.484c1.151-.492 3.286-1.14 5.872-.614 3.878.788 6.173-2.239 6.173-2.239s-2.34-1.827-4.334-2.374c1.5-1.507 1.791-3.377 1.791-3.377zm-14.091-1.614s-.947 1.638-.725 3.752c-1.897-.825-4.865-.869-4.865-.869s-.113 3.797 3.4 5.616c2.345 1.214 3.601 3.058 4.189 4.164-.02.363-.057.577-.057.577l.161-.38c.198.395.284.623.302.672-.991 1.632-1.853 3.396-2.326 4.41-.376.275-.456.338-.62.463.665-1.911 1.246-3.991 1.02-4.966-.473-2.043-4.522-4.292-4.522-4.292s-.947 1.637-.725 3.751c-1.896-.825-4.865-.869-4.865-.869s-.113 3.797 3.401 5.616c2.344 1.214 3.6 3.059 4.188 4.164-.02.364-.057.577-.057.577l.161-.38a6.6 6.6 0 01.302.672c-.99 1.632-1.853 3.396-2.326 4.411-.602.44-.987.736-.987.736s.292-.118.762-.25l-.171.372s.134-.17.388-.43c1.213-.31 3.424-.621 5.9.295 3.711 1.374 6.44-1.266 6.44-1.266s-2.029-2.166-3.916-3.013c1.712-1.259 2.288-3.06 2.288-3.06s-4.39-1.482-6.22-.456c-.628.352-1.398 1.412-2.141 2.632a43.58 43.58 0 00-.112-1.134c.296-.706.697-1.7 1.136-2.946a5.26 5.26 0 01.45-.14l-.17.372s.133-.17.388-.43c1.213-.31 3.424-.622 5.9.295 3.71 1.373 6.44-1.266 6.44-1.266s-2.03-2.167-3.917-3.013c1.713-1.26 2.288-3.06 2.288-3.06s-4.39-1.482-6.22-.457c-.627.353-1.398 1.412-2.14 2.633a43.561 43.561 0 00-.112-1.134c.759-1.814 2.591-6.434 2.211-8.077-.472-2.043-4.522-4.292-4.522-4.292zm-8.586 18.145s-.945 1.638-.723 3.752c-1.896-.826-4.865-.869-4.865-.869s-.114 3.796 3.4 5.615c2.344 1.215 3.602 3.06 4.189 4.165-.02.361-.057.577-.057.577l.162-.38c.218.438.326.735.326.735s-.04-.485-.12-1.226c.759-1.812 2.593-6.435 2.213-8.078-.473-2.043-4.525-4.291-4.525-4.291zm11.284 11.474s-4.391-1.481-6.22-.456c-1.47.825-3.654 5.29-4.484 7.073-.602.44-.987.736-.987.736s.291-.118.762-.25l-.172.372s.134-.17.39-.43c1.212-.31 3.423-.622 5.9.295 3.71 1.373 6.44-1.266 6.44-1.266s-2.03-2.167-3.918-3.013c1.713-1.26 2.289-3.06 2.289-3.06z"/>
        <path d="M209.83 159.001l-1.997 2.273c-1.997 2.271-.308 5.459-.308 5.459s2.439.75 3.549-1.218c1.11-1.967-1.244-6.514-1.244-6.514zm-4.658 3.186s-2.748 4.71-2.362 8.147c.386 3.437 3.074 5.49 3.074 5.49s.288-.891.546-1.71c-.553 2.137-.978 5.238-.978 5.238s3.323-.626 5.213-3.522c1.89-2.897 1.555-8.338 1.555-8.338s-4.723 3.588-5.477 5.582c.34-1.168.683-2.456.806-3.374.279-2.079-2.377-7.513-2.377-7.513zm-5.54 10.235s-.73 1.747-.238 3.815c-1.986-.574-4.936-.237-4.936-.237s.377 3.78 4.095 5.132c2.483.902 3.968 2.572 4.692 3.592.026.36.017.578.017.578s.082-.299.11-.395c.273.405.419.684.419.684s-.102-.473-.277-1.198c.518-1.89 1.743-6.715 1.155-8.297-.732-1.965-5.038-3.674-5.038-3.674zm11.732 7.626s-4.604.515-5.827 2.218c-.983 1.37-1.073 6.339-1.071 8.305-.36.654-.583 1.086-.583 1.086s.215-.23.586-.55c.002.1 0 .41 0 .41s.052-.21.173-.554c.968-.794 2.837-2.012 5.467-2.23 3.944-.325 5.302-3.873 5.302-3.873s-2.757-1.101-4.825-1.07c1.02-1.866.778-3.742.778-3.742zm-13.982 2.385s-.452 1.837.351 3.805c-2.05-.263-4.913.524-4.913.524s.951 3.677 4.833 4.443c2.59.51 4.311 1.931 5.184 2.829.082.354.107.57.107.57l.049-.41c.3.324.447.519.477.56-.496 1.844-.831 3.78-1.002 4.886-.284.368-.343.451-.467.617.106-2.02.083-4.18-.406-5.054-1.025-1.83-5.541-2.859-5.541-2.859s-.452 1.837.351 3.805c-2.05-.262-4.913.524-4.913.524s.951 3.678 4.833 4.443c2.59.511 4.311 1.932 5.184 2.829.082.355.107.57.107.57l.049-.41c.3.324.447.52.477.561-.496 1.844-.831 3.778-1.002 4.885-.455.59-.742.982-.742.982s.247-.194.662-.453l-.06.406s.08-.201.252-.522c1.079-.636 3.115-1.553 5.748-1.364 3.947.283 5.83-3.014 5.83-3.014s-2.553-1.514-4.602-1.8c1.293-1.686 1.343-3.577 1.343-3.577s-4.63-.197-6.1 1.3c-.505.513-.948 1.745-1.321 3.125-.023-.062-.161-.42-.424-1.058.087-.76.194-1.828.268-3.147.108-.08.18-.127.393-.26l-.06.405s.08-.2.253-.521c1.078-.636 3.114-1.553 5.748-1.364 3.946.282 5.83-3.015 5.83-3.015s-2.554-1.513-4.602-1.799c1.293-1.687 1.342-3.578 1.342-3.578s-4.63-.196-6.1 1.3c-.504.513-.948 1.746-1.32 3.125-.024-.061-.162-.42-.424-1.058.222-1.953.691-6.901-.132-8.372-1.024-1.83-5.54-2.859-5.54-2.859zm-3.177 19.82s-.45 1.837.353 3.805c-2.051-.263-4.914.524-4.914.524s.95 3.677 4.832 4.443c2.59.511 4.313 1.932 5.186 2.829.08.353.107.57.107.57l.048-.41c.333.36.52.614.52.614s-.174-.454-.458-1.143c.222-1.952.692-6.903-.132-8.375-1.024-1.83-5.543-2.857-5.543-2.857zm14.038 7.867s-4.63-.196-6.1 1.3c-1.18 1.202-2.03 6.1-2.33 8.043-.456.59-.742.982-.742.982s.247-.195.661-.453l-.06.405s.08-.2.253-.521c1.078-.636 3.114-1.553 5.748-1.365 3.946.283 5.83-3.014 5.83-3.014s-2.554-1.513-4.602-1.799c1.293-1.687 1.342-3.578 1.342-3.578z" style="fill:#cd64e5;fill-opacity:1;stroke:none;stroke-width:1px;stroke-linecap:butt;stroke-linejoin:miter;stroke-opacity:1"/>
        <path style="fill:#801997;fill-opacity:1;stroke:none;stroke-width:1px;stroke-linecap:butt;stroke-linejoin:miter;stroke-opacity:1" d="M18.873 110.696l2.613 1.526c2.612 1.524 2.016 5.082 2.016 5.082s-2.077 1.481-3.752-.035c-1.674-1.516-.877-6.573-.877-6.573zm5.425 1.551s4.096 3.602 4.815 6.984c.72 3.383-1.183 6.18-1.183 6.18s-.554-.754-1.058-1.45c1.2 1.853 2.582 4.662 2.582 4.662s-3.35.455-6.059-1.696c-2.708-2.151-4.108-7.42-4.108-7.42s5.614 1.913 6.96 3.566c-.693-1-1.424-2.114-1.831-2.946-.92-1.885-.118-7.88-.118-7.88zm8.49 7.962s1.244 1.427 1.43 3.545c1.704-1.172 4.608-1.784 4.608-1.784s.837 3.705-2.264 6.163c-2.07 1.64-2.952 3.693-3.317 4.89.09.35.166.553.166.553s-.172-.257-.23-.34c-.13.471-.18.782-.18.782s-.053-.482-.116-1.224c-1.089-1.63-3.775-5.821-3.716-7.508.074-2.096 3.62-5.077 3.62-5.077zm-8.723 10.94s4.53-.965 6.229.265c1.365.99 3.02 5.676 3.639 7.542.548.506.896.846.896.846s-.277-.15-.73-.337c.03.097.13.39.13.39s-.116-.184-.34-.472c-1.169-.447-3.327-1.013-5.891-.388-3.844.936-6.253-2.001-6.253-2.001s2.267-1.916 4.24-2.54c-1.557-1.447-1.92-3.305-1.92-3.305zm14.02-2.152s1.008 1.6.867 3.722c1.864-.898 4.828-1.055 4.828-1.055s.258 3.79-3.183 5.742c-2.296 1.303-3.48 3.194-4.025 4.32.034.363.078.576.078.576l-.175-.373c-.182.401-.26.633-.276.682 1.053 1.593 1.982 3.323 2.493 4.319.386.26.469.32.638.438-.738-1.884-1.398-3.94-1.21-4.924.394-2.06 4.354-4.462 4.354-4.462s1.009 1.6.869 3.721c1.863-.897 4.827-1.054 4.827-1.054s.259 3.79-3.183 5.742c-2.296 1.302-3.48 3.194-4.025 4.32.034.363.078.575.078.575l-.175-.373c-.182.402-.26.634-.275.683 1.052 1.592 1.98 3.322 2.492 4.319.62.416 1.015.697 1.015.697s-.296-.107-.771-.221l.185.366s-.14-.165-.405-.415c-1.223-.263-3.445-.49-5.884.52-3.655 1.515-6.484-1.018-6.484-1.018s1.945-2.243 3.799-3.16c-1.76-1.193-2.404-2.971-2.404-2.971s4.33-1.649 6.198-.694c.64.328 1.451 1.357 2.24 2.549.003-.066.02-.45.069-1.138a54.278 54.278 0 01-1.248-2.9 5.234 5.234 0 00-.456-.124l.186.366s-.14-.165-.405-.415c-1.224-.263-3.446-.49-5.885.52-3.655 1.515-6.484-1.018-6.484-1.018s1.946-2.242 3.8-3.16c-1.76-1.193-2.405-2.971-2.405-2.971s4.331-1.649 6.198-.694c.64.328 1.451 1.357 2.24 2.549.003-.066.02-.45.069-1.138-.828-1.783-2.836-6.33-2.52-7.986.395-2.06 4.355-4.462 4.355-4.462zm9.273 17.803s1.007 1.6.867 3.722c1.863-.898 4.828-1.055 4.828-1.055s.26 3.789-3.182 5.741c-2.297 1.303-3.482 3.195-4.027 4.322.035.36.079.575.079.575l-.176-.373c-.202.445-.299.746-.299.746s.022-.486.074-1.23c-.827-1.781-2.837-6.33-2.52-7.987.394-2.06 4.356-4.462 4.356-4.462zm-10.835 11.898s4.33-1.649 6.197-.694c1.501.768 3.854 5.147 4.752 6.896.619.416 1.015.697 1.015.697s-.297-.107-.771-.22l.185.365s-.14-.165-.405-.415c-1.224-.263-3.445-.49-5.884.52-3.655 1.515-6.485-1.018-6.485-1.018s1.946-2.242 3.8-3.16c-1.76-1.193-2.404-2.971-2.404-2.971z"/>
        <path d="M61.76 121.734l-1.826 2.412c-1.827 2.41.09 5.467.09 5.467s2.487.57 3.45-1.473c.964-2.042-1.714-6.406-1.714-6.406zm-4.413 3.516s-2.399 4.897-1.764 8.297c.635 3.4 3.465 5.252 3.465 5.252s.222-.91.42-1.745c-.395 2.171-.594 5.296-.594 5.296s3.269-.867 4.943-3.893c1.675-3.026.944-8.429.944-8.429s-4.449 3.922-5.056 5.966c.255-1.19.503-2.5.559-3.424.126-2.093-2.917-7.32-2.917-7.32zm-4.782 10.611s-.6 1.795.04 3.822c-2.023-.428-4.94.122-4.94.122s.651 3.743 4.458 4.821c2.542.72 4.144 2.277 4.94 3.242.052.358.06.575.06.575l.08-.403c.303.385.468.653.468.653s-.136-.465-.364-1.175c.38-1.924 1.251-6.824.549-8.359-.873-1.907-5.291-3.298-5.291-3.298zm12.255 6.752s-4.554.849-5.65 2.637c-.88 1.437-.609 6.4-.464 8.36-.311.678-.502 1.126-.502 1.126s.198-.246.544-.591c.01.1.03.409.03.409s.036-.214.132-.566c.908-.862 2.684-2.213 5.291-2.62 3.91-.612 5.006-4.25 5.006-4.25s-2.83-.897-4.89-.716c.881-1.935.503-3.789.503-3.789zm-13.77 3.396s-.318 1.865.627 3.77c-2.065-.114-4.863.88-4.863.88s1.217 3.598 5.144 4.079c2.62.321 4.44 1.613 5.376 2.444.107.348.148.56.148.56l.019-.41c.322.3.483.484.516.523-.36 1.875-.554 3.83-.643 4.945-.257.388-.31.476-.421.65-.042-2.023-.222-4.175-.773-5.011-1.155-1.75-5.734-2.448-5.734-2.448s-.317 1.865.627 3.77c-2.065-.114-4.863.88-4.863.88s1.217 3.597 5.144 4.079c2.62.321 4.44 1.613 5.376 2.444.107.348.148.56.148.56s.014-.31.02-.411c.322.3.482.485.515.524-.36 1.875-.553 3.829-.643 4.945-.411.622-.67 1.034-.67 1.034s.233-.213.628-.5l-.03.409s.065-.207.214-.54c1.029-.712 2.993-1.774 5.633-1.778 3.957-.005 5.596-3.43 5.596-3.43s-2.657-1.324-4.721-1.46c1.166-1.776 1.078-3.666 1.078-3.666s-4.631.141-5.988 1.74c-.466.549-.82 1.81-1.09 3.213-.029-.06-.192-.407-.5-1.024.03-.765.06-1.837.038-3.158.101-.087.17-.14.373-.288l-.03.409s.066-.207.214-.539c1.03-.713 2.993-1.775 5.633-1.779 3.957-.005 5.596-3.43 5.596-3.43s-2.657-1.323-4.72-1.46c1.166-1.776 1.078-3.665 1.078-3.665s-4.632.14-5.99 1.739c-.465.549-.818 1.81-1.09 3.214a46.2 46.2 0 00-.5-1.025c.08-1.964.189-6.934-.74-8.34-1.154-1.751-5.733-2.449-5.733-2.449zm-1.728 19.999s-.315 1.865.629 3.77c-2.065-.115-4.863.88-4.863.88s1.215 3.597 5.142 4.079c2.621.321 4.443 1.613 5.378 2.444.107.346.148.56.148.56s.014-.31.02-.411c.357.334.561.574.561.574s-.206-.44-.54-1.107c.08-1.962.19-6.935-.74-8.343-1.154-1.75-5.735-2.446-5.735-2.446zm14.573 6.825s-4.631.141-5.988 1.74c-1.091 1.285-1.583 6.231-1.74 8.19-.412.623-.67 1.035-.67 1.035s.233-.213.628-.5l-.03.408s.065-.206.214-.538c1.029-.713 2.993-1.776 5.633-1.779 3.957-.005 5.596-3.43 5.596-3.43s-2.657-1.324-4.721-1.46c1.166-1.776 1.078-3.666 1.078-3.666z" style="fill:#cd64e5;fill-opacity:1;stroke:none;stroke-width:1px;stroke-linecap:butt;stroke-linejoin:miter;stroke-opacity:1"/>
        <path style="fill:#801997;fill-opacity:1;stroke:none;stroke-width:1px;stroke-linecap:butt;stroke-linejoin:miter;stroke-opacity:1" d="M77.238 119.823l2.64 1.477c2.64 1.476 2.11 5.044 2.11 5.044s-2.05 1.52-3.752.035-.998-6.556-.998-6.556zm5.453 1.451s4.16 3.525 4.943 6.894c.781 3.37-1.069 6.2-1.069 6.2s-.568-.743-1.085-1.43c1.234 1.831 2.668 4.614 2.668 4.614s-3.342.517-6.09-1.584c-2.746-2.101-4.244-7.344-4.244-7.344s5.649 1.81 7.025 3.438c-.71-.987-1.463-2.087-1.885-2.912-.956-1.867-.263-7.876-.263-7.876zm8.635 7.804s1.27 1.404 1.495 3.518c1.682-1.204 4.575-1.87 4.575-1.87s.905 3.69-2.15 6.204c-2.04 1.679-2.884 3.747-3.227 4.95.096.35.177.551.177.551s-.177-.254-.236-.336a7.848 7.848 0 00-.166.785s-.062-.48-.138-1.221c-1.12-1.61-3.882-5.75-3.854-7.438.034-2.097 3.524-5.143 3.524-5.143zm-8.52 11.1s4.512-1.05 6.233.15c1.384.963 3.125 5.618 3.778 7.472.557.496.912.83.912.83s-.28-.146-.736-.323c.032.095.136.386.136.386s-.119-.18-.348-.465c-1.177-.425-3.345-.951-5.897-.28-3.827 1.008-6.29-1.885-6.29-1.885s2.232-1.957 4.192-2.616c-1.582-1.42-1.98-3.27-1.98-3.27zm13.978-2.411s1.038 1.581.936 3.704c1.847-.931 4.808-1.143 4.808-1.143s.328 3.784-3.077 5.8c-2.271 1.344-3.42 3.257-3.945 4.394.042.362.09.573.09.573l-.183-.37a6.601 6.601 0 00-.262.688c1.081 1.573 2.042 3.285 2.572 4.272.39.252.474.31.645.426-.772-1.87-1.47-3.914-1.3-4.9.356-2.067 4.27-4.542 4.27-4.542s1.039 1.581.938 3.704c1.846-.931 4.807-1.143 4.807-1.143s.328 3.784-3.076 5.8c-2.272 1.345-3.421 3.257-3.945 4.394.04.362.089.573.089.573l-.182-.37a6.6 6.6 0 00-.263.688c1.081 1.573 2.042 3.286 2.572 4.272a53.39 53.39 0 011.027.679s-.298-.102-.775-.207l.192.362s-.143-.162-.412-.407c-1.229-.24-3.454-.427-5.874.63-3.626 1.581-6.502-.9-6.502-.9s1.904-2.278 3.74-3.23c-1.78-1.16-2.458-2.926-2.458-2.926s4.3-1.728 6.184-.808c.647.316 1.476 1.33 2.287 2.507.002-.066.012-.45.047-1.138a54.257 54.257 0 01-1.3-2.878 5.292 5.292 0 00-.459-.114l.192.362s-.143-.163-.412-.408c-1.229-.24-3.454-.426-5.874.63-3.626 1.582-6.502-.899-6.502-.899s1.904-2.278 3.74-3.23c-1.78-1.16-2.458-2.926-2.458-2.926s4.3-1.728 6.184-.808c.647.316 1.476 1.33 2.287 2.507.002-.066.012-.45.047-1.139-.86-1.767-2.952-6.277-2.666-7.938.356-2.066 4.271-4.542 4.271-4.542zm9.6 17.628s1.037 1.582.936 3.705c1.846-.932 4.807-1.143 4.807-1.143s.33 3.783-3.075 5.799c-2.272 1.345-3.423 3.258-3.946 4.395.04.36.089.573.089.573l-.182-.37c-.194.45-.285.752-.285.752s.012-.486.05-1.23c-.86-1.766-2.953-6.279-2.667-7.94.356-2.067 4.274-4.541 4.274-4.541zM95.772 167.49s4.3-1.728 6.183-.808c1.515.74 3.948 5.075 4.878 6.806.627.405 1.028.68 1.028.68s-.298-.102-.775-.208l.192.363s-.143-.163-.413-.408c-1.228-.24-3.453-.426-5.873.63-3.627 1.582-6.502-.899-6.502-.899s1.904-2.278 3.74-3.23c-1.781-1.16-2.458-2.926-2.458-2.926z"/>
        <path style="fill:#cd64e5;fill-opacity:1;stroke:none;stroke-width:1px;stroke-linecap:butt;stroke-linejoin:miter;stroke-opacity:1" d="M84.168 143.277l-1.909 2.348c-1.908 2.346-.098 5.466-.098 5.466s2.465.656 3.5-1.352c1.033-2.008-1.493-6.462-1.493-6.462zm-4.532 3.362s-2.566 4.812-2.049 8.231c.517 3.42 3.282 5.368 3.282 5.368s.253-.9.48-1.73c-.47 2.158-.776 5.273-.776 5.273s3.296-.753 5.074-3.72c1.778-2.966 1.234-8.391 1.234-8.391s-4.582 3.766-5.26 5.787c.297-1.18.59-2.48.678-3.402.198-2.088-2.663-7.416-2.663-7.416zm-5.145 10.44s-.662 1.773-.091 3.821c-2.007-.498-4.942-.048-4.942-.048s.522 3.763 4.29 4.971c2.515.807 4.062 2.419 4.825 3.41.04.36.039.577.039.577s.07-.301.095-.4c.288.396.444.669.444.669s-.12-.47-.322-1.186c.445-1.91 1.485-6.778.836-8.336-.806-1.935-5.174-3.478-5.174-3.478zm12.015 7.17s-4.58.692-5.737 2.44c-.93 1.407-.83 6.376-.752 8.34a49.831 49.831 0 00-.541 1.108s.206-.239.564-.572c.005.1.016.41.016.41s.044-.213.151-.561c.938-.83 2.759-2.12 5.379-2.437 3.927-.477 5.149-4.074 5.149-4.074s-2.797-.995-4.862-.884c.947-1.903.633-3.77.633-3.77zm-13.88 2.92s-.38 1.852.497 3.788c-2.06-.184-4.89.712-4.89.712s1.092 3.638 5 4.255c2.608.411 4.382 1.764 5.289 2.628.095.351.129.565.129.565l.033-.41c.312.311.466.5.497.541-.424 1.861-.685 3.807-.813 4.92-.27.379-.326.464-.443.634.028-2.023-.078-4.18-.6-5.034-1.094-1.79-5.646-2.644-5.646-2.644s-.381 1.852.497 3.788c-2.06-.184-4.89.712-4.89.712s1.092 3.638 5 4.255c2.607.411 4.382 1.764 5.288 2.628.096.351.13.565.13.565l.032-.41a6.6 6.6 0 01.498.541c-.425 1.861-.685 3.807-.813 4.92-.433.607-.705 1.01-.705 1.01s.24-.204.644-.478c-.01.1-.045.407-.045.407s.074-.204.233-.53c1.053-.677 3.053-1.672 5.691-1.584 3.955.132 5.712-3.235 5.712-3.235s-2.61-1.415-4.669-1.622c1.228-1.735 1.205-3.627 1.205-3.627s-4.634-.019-6.046 1.532c-.484.533-.88 1.782-1.2 3.174-.026-.06-.177-.413-.464-1.04.057-.764.124-1.834.147-3.155.105-.083.175-.134.383-.275-.01.1-.045.407-.045.407s.074-.204.233-.53c1.053-.677 3.053-1.672 5.692-1.584 3.954.132 5.71-3.235 5.71-3.235s-2.61-1.415-4.668-1.622c1.228-1.735 1.205-3.627 1.205-3.627s-4.634-.019-6.045 1.532c-.485.533-.881 1.782-1.201 3.174-.025-.06-.177-.414-.464-1.04.147-1.96.427-6.924-.452-8.362-1.094-1.79-5.646-2.645-5.646-2.645zm-2.416 19.927s-.379 1.853.5 3.789c-2.06-.185-4.891.711-4.891.711s1.09 3.638 4.998 4.255c2.609.411 4.384 1.765 5.29 2.628.095.35.13.565.13.565l.032-.41c.346.345.542.593.542.593s-.19-.447-.5-1.125c.147-1.959.427-6.925-.453-8.364-1.093-1.789-5.648-2.642-5.648-2.642zm14.33 7.324s-4.634-.02-6.045 1.531c-1.135 1.247-1.797 6.174-2.021 8.127-.433.607-.705 1.01-.705 1.01s.24-.204.644-.478c-.01.1-.045.407-.045.407s.074-.204.233-.53c1.053-.677 3.053-1.672 5.692-1.584 3.954.132 5.71-3.235 5.71-3.235s-2.61-1.415-4.668-1.622c1.228-1.735 1.205-3.626 1.205-3.626zM40.013 91.725l-1.177 2.787c-1.177 2.786 1.432 5.276 1.432 5.276s2.55-.058 2.983-2.275c.431-2.217-3.238-5.788-3.238-5.788zM36.6 96.218s-1.12 5.337.331 8.476c1.452 3.14 4.65 4.239 4.65 4.239s-.007-.937-.021-1.796c.15 2.203.727 5.28.727 5.28s2.955-1.644 3.834-4.989c.878-3.345-1.159-8.402-1.159-8.402s-3.347 4.896-3.434 7.026c-.045-1.216-.127-2.546-.3-3.456-.392-2.06-4.628-6.378-4.628-6.378zm-2.025 11.462s-.14 1.887.98 3.694c-2.066.083-4.758 1.334-4.758 1.334s1.55 3.468 5.506 3.576c2.64.073 4.576 1.188 5.586 1.927.138.334.198.543.198.543l-.02-.41c.387.298.613.517.613.517s-.246-.417-.64-1.049c-.106-1.958-.467-6.922-1.525-8.237-1.315-1.634-5.94-1.895-5.94-1.895zm13.54 3.53s-4.205 1.943-4.828 3.945c-.5 1.61.984 6.353 1.606 8.218-.135.734-.21 1.215-.21 1.215s.132-.287.383-.707c.033.095.13.389.13.389s-.018-.216-.012-.58c.668-1.06 2.057-2.806 4.484-3.843 3.639-1.554 3.807-5.35 3.807-5.35s-2.963-.173-4.916.51c.378-2.093-.444-3.797-.444-3.797zm-12.513 6.679s.152 1.885 1.535 3.499c-2.029.398-4.497 2.049-4.497 2.049s2.065 3.188 5.99 2.689c2.619-.333 4.7.471 5.812 1.047.19.31.281.507.281.507l-.083-.404c.387.212.588.351.63.381.112 1.906.405 3.848.592 4.951-.153.44-.183.537-.248.734-.538-1.951-1.242-3.993-1.982-4.667-1.55-1.413-6.16-.963-6.16-.963s.152 1.886 1.535 3.5c-2.029.398-4.496 2.049-4.496 2.049s2.064 3.188 5.989 2.689c2.619-.334 4.7.47 5.812 1.046.19.311.281.507.281.507l-.083-.403c.387.212.588.35.63.38.112 1.907.405 3.848.592 4.952-.245.704-.394 1.167-.394 1.167s.173-.263.485-.64l.07.405s.014-.217.076-.575c.822-.944 2.465-2.457 5.023-3.11 3.834-.978 4.58-4.701 4.58-4.701s-2.901-.63-4.935-.254c.694-2.009.144-3.818.144-3.818s-4.455 1.275-5.377 3.159c-.317.646-.349 1.956-.267 3.383a43.14 43.14 0 00-.736-.87 54.282 54.282 0 00-.74-3.07c.078-.11.13-.178.291-.372.019.1.071.404.071.404s.014-.216.076-.575c.822-.944 2.464-2.457 5.022-3.11 3.834-.977 4.58-4.7 4.58-4.7s-2.9-.63-4.934-.254c.693-2.01.143-3.819.143-3.819s-4.454 1.276-5.377 3.16c-.316.646-.348 1.955-.266 3.382a43.852 43.852 0 00-.736-.87c-.406-1.923-1.524-6.767-2.77-7.903-1.55-1.412-6.16-.962-6.16-.962zm3.245 19.809s.153 1.885 1.537 3.499c-2.03.397-4.497 2.049-4.497 2.049s2.062 3.188 5.987 2.69c2.62-.334 4.703.47 5.814 1.045.189.31.282.508.282.508l-.083-.404c.428.235.686.418.686.418s-.308-.376-.796-.94c-.405-1.922-1.523-6.769-2.769-7.905-1.55-1.413-6.161-.96-6.161-.96zm15.805 3.03s-4.455 1.277-5.378 3.16c-.74 1.514 0 6.43.33 8.367-.247.705-.395 1.167-.395 1.167s.173-.263.485-.639l.07.404s.014-.216.076-.575c.822-.944 2.464-2.457 5.023-3.11 3.833-.977 4.58-4.7 4.58-4.7s-2.901-.63-4.935-.254c.693-2.01.143-3.819.143-3.819z"/>
        <path style="fill:#4e5a21;fill-opacity:1;stroke:none;stroke-width:1px;stroke-linecap:butt;stroke-linejoin:miter;stroke-opacity:1" d="M157.696 239.9c0-1.678 1.259-9.227 1.259-9.227s2.935 2.936 1.677 8.807c-1.258 5.872-1.677 6.292-1.677 6.292l5.032-2.098s0 2.517-2.097 5.872-2.516 3.355-2.516 3.355zM132.951 247.869c1.259-3.775 3.356-11.744 3.356-11.744s2.516 2.936 0 7.55c-2.517 4.613-1.258 10.485-1.258 10.485l4.194-8.388-.42 8.807-2.936 2.936s-5.871-4.614-4.613-6.71c1.258-2.098 1.677-2.936 1.677-2.936zM148.889 256.676s-1.258-5.033-2.517-7.55c-1.258-2.516-2.097-3.354-2.097-3.354s7.13 5.871 6.292 1.677c-.84-4.194 3.774-4.194-2.098-6.71-5.871-2.517-9.226-5.872-9.226-5.872s9.646.42 12.162 2.516c2.517 2.097 4.194 7.97 3.775 10.486-.42 2.516-6.291 8.807-6.291 8.807z"/>
    </g>
</svg>
