<svg xmlns="http://www.w3.org/2000/svg" viewBox="0 0 300 200" height="200" width="300">
    <g style="transform:matrix(1.8525119,0,0,1.8525119,-48.443164,-157.05677)">
        <path d="M109.8 159.422c-4.476-.895-9.548-2.387-12.83-5.073-3.282-2.685-5.967-6.862-5.967-6.862s.895-.895 2.387-.895h1.491s-.895-1.79-2.685-3.879-2.984-8.951-2.984-8.951.597-.298 2.387.597l1.79.895s-.596-2.685.299-4.774 5.37-7.758 5.37-7.758 9.847 11.338 12.532 16.41c2.685 5.073 5.37 7.758 3.58 11.935-1.79 4.178-5.37 8.355-5.37 8.355z" style="fill:#69417b;fill-opacity:1;stroke:none;stroke-width:1px;stroke-linecap:butt;stroke-linejoin:miter;stroke-opacity:1"/>
        <path d="M102.937 130.182s-.596-2.686-.298-5.67c.298-2.983 2.387-6.564 2.387-6.564s2.685 2.089 3.282 4.476l.597 2.387s2.088-2.685 3.879-4.476c1.79-1.79 7.459-3.58 7.459-3.58s4.177 9.846 4.177 13.725c0 3.879.597 8.951.597 8.951l2.685-4.476s1.79 3.283.895 6.565c-.895 3.282-1.492 6.564-5.072 9.846s-13.427 6.862-13.427 6.862 2.686-7.757 1.79-11.338c-.895-3.58-3.878-8.056-3.878-8.056l-.299 5.073s-3.58-5.371-3.282-8.952c.299-3.58-.596-6.265-.596-6.265z" style="fill:#c98ce5;fill-opacity:1;stroke:none;stroke-width:1px;stroke-linecap:butt;stroke-linejoin:miter;stroke-opacity:1"/>
        <path d="M108.308 165.39s1.492-3.581-.298-7.162c-1.79-3.58-2.686-9.548-2.686-9.548s1.79 3.58 3.88 6.266c2.088 2.686 2.386 5.073 2.685 7.161.298 2.089.298 5.37.298 5.37z" style="fill:#36320d;fill-opacity:1;stroke:none;stroke-width:1px;stroke-linecap:butt;stroke-linejoin:miter;stroke-opacity:1"/>
        <path d="M71.31 145.1s-3.879 3.879-8.056 4.177c-4.177.299-9.548-1.193-9.548-1.193l4.774-2.686s-.298 0-5.072-1.491c-4.774-1.492-5.669-7.46-7.46-9.25l-1.79-1.79 7.162 2.088s-2.984-2.088-4.178-3.878c-1.193-1.79-4.177-11.338-4.177-11.338l5.072 4.177s-1.491-2.089 0-5.37c1.492-3.283 4.178-7.46 4.774-9.25.597-1.79 1.194-6.266 1.194-6.266s1.492 7.16 1.492 10.741c0 3.58 2.685 11.04 2.685 11.04s1.79-1.79.597-5.072c-1.194-3.282-4.476-4.178-2.686-9.25s1.79-9.548 1.79-9.548l2.09 6.266s-.597-3.879 1.193-7.16c1.79-3.283 4.475-6.863 4.475-6.863s0 4.475 1.194 13.128c1.193 8.653 6.564 18.2 6.564 18.2s.597-1.79-.298-4.475c-.896-2.685-2.09-11.04-2.09-11.04l2.388 3.58s-.895-.596 0-4.773 3.282-7.46 3.879-9.846c.596-2.387.895-4.178.895-4.178s1.193 4.178 1.193 6.863c0 2.685 2.387 33.716 2.387 33.716s1.194-1.79.895-4.774c-.298-2.984-.895-6.266-.895-6.266s2.387 1.79 2.984 3.879l.597 2.088.298-7.459s2.984 5.072 2.984 8.951c0 3.88 0 7.46-1.492 9.548-1.492 2.089-7.46 4.774-7.46 4.774s2.388-.597 2.388-2.984v-3.878s-1.194 1.193-4.178 2.386l-2.983 1.194s1.193-2.089 1.193-5.67c0-3.58-2.088-7.458-2.088-7.458l-.597 6.265-1.194-3.878s-1.193 3.878-1.193 5.967v3.879l-5.072-1.194z" style="fill:#69417b;fill-opacity:1;stroke:none;stroke-width:1px;stroke-linecap:butt;stroke-linejoin:miter;stroke-opacity:1"/>
        <path d="M125.743 192.405s-1.687-11.815-5.907-16.879c-4.22-5.063-14.512-3.871-14.512-3.871l4.178-2.089s-6.565-1.193-8.952-1.193h-2.983l5.072-1.79s-10.144-2.984-13.725-4.774c-3.58-1.79-5.37-2.984-5.37-2.984l4.773.597s-8.056-4.476-10.144-5.968c-2.089-1.491-4.476-3.282-7.161-7.757-2.685-4.476-6.564-19.394-6.564-19.394l2.685 3.879s-2.088-9.847-2.088-13.427 2.088-17.305 2.088-17.305-1.79 12.83 0 21.78c1.79 8.952 6.564 20.588 6.564 20.588s2.089-2.685 2.984-4.177c.895-1.492 2.387-19.693 2.387-22.975s.895-14.918.895-14.918-.298 24.765-.895 30.434c-.597 5.669 0 8.354-1.194 10.74l-1.193 2.388s2.089.895 5.37-.299c3.283-1.193 5.968-4.177 6.863-8.652.895-4.476 2.089-22.08 2.089-22.08s.596 14.322 0 19.693c-.597 5.37-2.387 8.652-4.476 10.443-2.088 1.79-5.37 3.879-7.46 3.879H76.98s1.79 2.088 5.968 4.177c4.177 2.088 4.475 2.387 4.475 2.387l-.895-3.58s1.492 1.491 2.685 3.281c1.194 1.79 1.492 2.984 3.58 4.476 2.09 1.492 6.565 3.58 6.565 3.58l-2.984-4.475s3.282 2.088 5.67 4.475c2.386 2.387 15.216 5.073 19.095 8.653 3.879 3.58 5.967 9.25 5.967 9.25l.597-4.476s1.194 1.492 1.194 4.177c0 2.685-.597 5.67-.597 5.67l3.282-2.388s0 2.387-1.492 3.58c-1.492 1.194-.895 8.057-.895 8.057z" style="fill:#746d2b;fill-opacity:1;stroke:none;stroke-width:1px;stroke-linecap:butt;stroke-linejoin:miter;stroke-opacity:1"/>
        <path d="M73.1 146.294s-6.265.895-9.547 0c-3.282-.896-7.161-7.758-8.056-11.04-.895-3.282-1.79-21.781-1.79-21.781s1.79 17.305 2.983 19.394c1.194 2.088 1.492-1.79 1.492-1.79s.597 1.79.298 3.58c-.298 1.79-.895 2.089.896 4.476 1.79 2.387 3.282 5.37 5.967 5.37h8.056z" style="fill:#746d2b;fill-opacity:1;stroke:none;stroke-width:1px;stroke-linecap:butt;stroke-linejoin:miter;stroke-opacity:1"/>
        <path d="M130.984 192.54s1.194-8.95 2.984-13.724c1.79-4.774 10.144-14.322 10.443-16.41.298-2.09 2.387-5.073 2.387-5.073v3.879c0 1.193 2.088-1.79 4.177-3.282 2.088-1.492 2.685-7.758 2.685-7.758s-2.685-1.79-3.879-3.878c-1.193-2.09-1.193-6.863-1.193-6.863s1.492 4.774 2.685 5.967c1.194 1.194 4.177 2.089 4.177 3.88 0 1.79 2.984-.598 2.686-1.493-.299-.895 1.79-4.774 1.79-4.774s.895 4.476-.298 6.565c-1.194 2.088-2.387.895-3.282 3.58-.896 2.685-1.194 3.282-4.178 7.46-2.983 4.176-9.25 11.636-10.74 14.918-1.493 3.282-5.073 6.862-5.372 11.04-.298 4.177.299 5.967.299 5.967z" style="fill:#36320d;fill-opacity:1;stroke:none;stroke-width:1px;stroke-linecap:butt;stroke-linejoin:miter;stroke-opacity:1"/>
        <path d="M133.67 133.762s-3.283 0-6.266 1.193c-2.984 1.194-10.742-2.685-10.742-2.685l4.476-1.492s-4.177-5.967-7.758-9.25c-3.58-3.281-11.04-11.337-11.04-11.337l5.67 1.79s-2.984-.597-3.58-3.282c-.597-2.685-.597-8.653-.597-8.653l3.58 4.476s-.895-.299 0-3.879 7.16-13.427 7.16-13.427 4.178 5.371 4.476 9.25c.299 3.879 1.79 7.459 1.79 7.459s.896-2.089 1.79-4.475c.896-2.387 4.178-6.565 4.178-6.565s-1.492 3.282.298 7.46c1.79 4.177 2.984 12.83 3.88 14.321.894 1.492 5.967 2.984 5.967 2.984s-2.387-3.282-2.387-6.862v-10.742l3.282 4.774s-2.387-.597 0-4.774 3.282-10.443 3.282-10.443.895 2.686 1.193 4.177c.299 1.492 3.879 11.637 3.879 11.637l1.193 8.354s1.492.299 2.984-1.492c1.492-1.79-.298-7.757-.298-7.757s1.79.298 3.58 2.387c1.79 2.088 3.282 6.862 3.282 6.862l-2.983 12.532s-1.79-7.46-1.79-4.774c0 2.685 0 5.967-.896 7.757-.895 1.79-4.475 5.67-4.475 5.67l-.895-5.371-5.073 2.387-3.282-5.37z" style="fill:#69417b;fill-opacity:1;stroke:none;stroke-width:1px;stroke-linecap:butt;stroke-linejoin:miter;stroke-opacity:1"/>
        <path d="M113.977 95.87s-.895 9.547-.895 13.724c0 1.329.481 3.317 1.176 5.492-.151-1.106-.281-2.236-.281-3.106 0-1.433.279-3.97.537-6.09-.525-5.02-.537-10.02-.537-10.02zm11.935 2.386s-.298 18.796 0 22.377c.298 3.58 5.668 10.144 5.668 10.144s-6.861-3.58-9.248-4.773a3.163 3.163 0 01-.594-.41l-.6 1.902s-1.491-3.58-2.685-5.967c-.299-.598-.448-1.479-.504-2.46a78.392 78.392 0 01-1.617-4.456c-.591.973-.957 2.152-1.184 3.043 1.493 3.997 3.463 8.138 4.797 10.139 2.387 3.58 14.322 6.264 14.918 8.055.597 1.79 0 3.582 0 3.582s-2.983-2.09-2.386-.897c.596 1.194 2.982 9.55 2.982 13.727s.896 7.756.896 7.756l-3.878-2.387s2.385 4.178 4.175 8.057c1.79 3.878 1.493 27.449 1.493 27.449h4.773s-1.194-17.603 0-21.184c1.193-3.58 0-4.773 0-4.773l-1.49 5.37v-3.581c0-3.58-1.492-10.442-1.492-10.442s.596-1.79 1.193-3.879c.597-2.088.299-4.177.299-4.177l-2.09 4.177s0-5.073-.895-8.355-.298-7.459 1.194-8.652c1.492-1.194 3.878-.298 5.967-.895 2.088-.597 5.371-3.58 6.863-4.773 1.492-1.194 2.686-5.372 2.984-8.356.299-2.983-.597-10.144-.597-10.144s-.597 8.652-1.194 11.338c-.597 2.685-4.475 6.862-5.967 7.757-1.491.895-6.863 2.088-6.863 2.088l1.791-1.789c1.79-1.79 1.193-3.58.895-6.265-.299-2.686 1.492-6.565 1.79-10.444.299-3.879-1.193-16.111-1.193-16.111s.299 8.652 0 12.232c-.298 3.58-1.194 11.936-2.09 9.25l-.894-2.685s.299 8.056.299 10.144c0 2.089-3.581 3.282-5.371 3.282-1.79 0-5.072-6.266-6.266-7.758-1.193-1.492-1.193-3.281-1.193-4.176v-3.879l-1.194 2.387v-2.387c0-2.089-1.492-18.201-1.492-18.201z" style="fill:#766f2b;fill-opacity:1;stroke:none;stroke-width:1px;stroke-linecap:butt;stroke-linejoin:miter;stroke-opacity:1"/>
        <path d="M114.872 141.818s.299-1.194-1.193-4.177c-1.492-2.984-3.282-5.37-3.282-5.37v-4.775l2.387 4.177s-.597.896.298-2.088 2.984-5.67 2.984-5.67-.895 6.267 0 9.25c.895 2.984 2.088 6.564 1.492 9.548-.597 2.984-2.686 5.37-2.686 5.37z" style="fill:#69417b;fill-opacity:1;stroke:none;stroke-width:1px;stroke-linecap:butt;stroke-linejoin:miter;stroke-opacity:1"/>
        <path d="M113.679 151.366s.596-2.387 1.492-5.67c.895-3.281.895-11.039.895-11.039l.895 2.387s.298 7.16-.299 9.548c-.596 2.387-2.983 4.774-2.983 4.774z" style="fill:#36320d;fill-opacity:1;stroke:none;stroke-width:1px;stroke-linecap:butt;stroke-linejoin:miter;stroke-opacity:1"/>
        <path d="M147.693 135.552s2.685 1.194 5.967 0c3.282-1.193 8.056-4.177 8.056-4.177s-.895-.298-3.879 0l-2.983.298s5.37-2.387 6.265-5.072c.896-2.685 1.194-9.548 1.194-9.548s-2.685.895-3.58 2.387c-.896 1.492-.896 1.79-.896 1.79s2.089-6.265 2.089-9.249c0-2.984-3.879-11.338-3.879-11.338s-2.387 11.338-1.79 15.814c.597 4.475.597 7.459.597 7.459l1.79-2.089s0 2.089-1.194 3.58c-1.193 1.493-1.193 5.073-3.282 6.266-2.088 1.194-4.475 3.88-4.475 3.88zM144.71 111.086s-1.194-9.548-.598-13.128c.597-3.58 4.178-7.46 4.178-7.46s-.896 6.863 0 11.04c.895 4.177-.597 9.548-.597 9.548l4.475-2.685s.299 3.58-1.79 5.967c-2.088 2.387-6.266 6.862-6.266 6.862s.597-4.475 1.79-6.265c1.194-1.79 0-2.984 0-2.984l-1.79 2.984zM124.42 106.909s0-4.476 1.79-8.355c1.79-3.878 4.177-10.443 4.177-10.443s2.686 3.58 1.79 8.355c-.894 4.774-1.193 12.233-1.193 12.233s-1.492-1.194 1.194-4.774c2.685-3.58 5.37-7.758 5.37-7.758s1.194 9.847 0 13.725c-1.193 3.88-4.475 9.847-4.475 9.847l5.669-2.089s-2.686 2.685-2.686 5.37c0 2.686.299 9.549.299 9.549s-6.863-4.476-6.863-7.46c0-2.983 1.194-7.16 1.194-7.16L128 122.423l-1.491-8.951s-4.774-1.492-5.67-4.177c-.894-2.686-.894-6.266-.894-6.266zM79.068 117.352s-.895-3.58-2.089-5.073l-1.193-1.491 2.685.895s.597-2.686.597-6.266.298-4.774 2.685-7.46l2.387-2.685s.597 2.984 0 7.161-2.984 11.04-2.984 11.04l5.371-4.177s-.597 3.58-2.387 7.16c-1.79 3.581-2.685 5.968-2.685 5.968l4.774-4.476s-.895 11.338-2.089 14.024c-1.193 2.685-5.967 6.266-5.967 6.266s.298-6.863 1.193-8.653.895-4.476.895-4.476l-2.088 2.089s2.387-4.177 2.088-6.266c-.298-2.088-1.193-3.58-1.193-3.58zM65.641 111.981s-1.492-2.387-1.492-5.37c0-2.984 1.194-4.775 3.58-8.355 2.388-3.58 3.283-8.056 3.283-8.056s1.193 3.879 0 8.056c-1.194 4.177-2.387 10.741-2.387 10.741s-.298 0 1.492-2.088c1.79-2.089 2.984-3.282 2.984-3.282s-3.58 7.16-3.88 10.741c-.298 3.58-2.088 11.04-2.088 11.04s2.089-2.387 4.177-4.476c2.089-2.088 4.177-5.37 4.177-5.37s.597 7.459-1.193 9.846c-1.79 2.387-4.774 4.177-5.37 6.564l-.597 2.387s-3.282-9.25-2.686-12.532c.597-3.282 2.089-11.636 2.089-11.636z" style="fill:#c98ce5;fill-opacity:1;stroke:none;stroke-width:1px;stroke-linecap:butt;stroke-linejoin:miter;stroke-opacity:1"/>
        <path d="M88.019 138.834s.895-7.757 0-11.338c-.895-3.58-2.685-13.426-2.685-13.426l2.983 2.685s-1.193-1.194-.596-5.967c.596-4.774 2.983-8.653 2.983-8.653s1.194 6.862 1.194 9.548v3.282s1.193-1.79 2.685-3.88c1.492-2.088 4.177-3.281 4.177-3.281s-.298 3.879-2.088 8.95c-1.79 5.073-3.88 8.355-3.88 8.355l5.67-3.879s-.298 5.073-2.089 6.863c-1.79 1.79-1.193 7.758-2.685 9.846-1.492 2.089-9.25 5.67-9.25 5.67z" style="fill:#c98ce5;fill-opacity:1;stroke:none;stroke-width:1px;stroke-linecap:butt;stroke-linejoin:miter;stroke-opacity:1"/>
    </g>
</svg>
