<svg xmlns="http://www.w3.org/2000/svg" xmlns:xlink="http://www.w3.org/1999/xlink" viewBox="0 0 300 200" height="200" width="300">
    <defs>
        <linearGradient id="a">
            <stop offset="0" style="stop-color:#0c1d0f;stop-opacity:1"/>
            <stop offset="1" style="stop-color:#010302;stop-opacity:0.98000002"/>
        </linearGradient>
        <linearGradient gradientTransform="translate(-1.193)" gradientUnits="userSpaceOnUse" y2="124.122" x2="216.616" y1="176.038" x1="205.278" id="b" xlink:href="#a"/>
    </defs>
    <g style="transform:translate(0,6)">
        <path style="fill:url(#b);fill-opacity:1;stroke:none;stroke-width:1px;stroke-linecap:butt;stroke-linejoin:miter;stroke-opacity:1" d="M16.107 157.39s.422-3.375-5.064-7.173l-5.485-3.798s-1.266 8.44 0 15.19l1.266 6.752-5.486-5.063s.422 7.595 1.688 11.815 4.22 8.017 4.22 8.017l-6.33-2.11s.422 2.532 2.532 5.063c2.11 2.532 5.486 5.064 5.486 5.064l2.11 3.798 265.41-.844s11.816-45.15 3.377-58.652c-8.44-13.503-46.416-44.306-46.416-44.306L180.67 79.75l-56.964 16.456-28.271 41.774-73.843 13.925z"/>
        <path style="fill:#5c712d;fill-opacity:1;stroke:none;stroke-width:1px;stroke-linecap:butt;stroke-linejoin:miter;stroke-opacity:1" d="M278.07 180.598s2.11 3.376 5.064 5.485l2.954 2.11s.843-3.375.843-8.439v-5.063l2.532 6.751s1.266-2.532 1.688-8.017c.422-5.486.422-11.815.422-11.815s.844-2.11 2.532.422c1.688 2.532 3.375 3.798 3.375 3.798s-.422-8.44-2.11-11.393c-1.687-2.954-2.11-4.22-2.11-4.22s2.955-34.179.845-39.242c-2.11-5.064-13.08-16.878-13.08-16.878s-6.33 55.276-6.33 56.964c0 1.688 3.375 29.537 3.375 29.537z"/>
        <path style="fill:#243515;fill-opacity:1;stroke:none;stroke-width:1px;stroke-linecap:butt;stroke-linejoin:miter;stroke-opacity:1" d="M43.04 79.328S30.38 87.345 26.583 93.253c-3.797 5.907-4.22 6.751-8.86 11.393-4.642 4.641-8.44 6.75-8.44 6.75s.844 1.267 6.33.423l5.485-.844s-5.486 2.532-9.283 8.017c-3.798 5.486-5.064 8.861-5.064 8.861s6.33-1.266 9.283-2.953l2.954-1.688s-2.954 5.907-3.798 8.86l-.843 2.955s4.641-1.688 7.595-4.642l2.954-2.954s-2.954 20.676-5.908 25.318c-2.954 4.641-5.485 8.86-5.485 8.86s5.063-.421 8.017-2.953l2.954-2.532s-1.266 2.954-1.266 6.752c0 3.797.422 9.283.422 9.283s3.375-6.751 5.485-9.283c2.11-2.532 6.33-3.798 6.33-3.798s.421 8.44 2.11 11.815c1.687 3.376 6.75 8.44 6.75 8.44l-.843-9.284s.844 5.064 3.797 9.283c2.954 4.22 2.954 5.908 2.954 4.22 0-1.688-2.11-8.861 3.376-14.769 5.485-5.907 7.173-14.768 12.658-8.017 5.486 6.751 4.22 21.098 4.22 21.098l6.751-10.971s-.844 4.22 1.266 8.44c2.11 4.219 3.798 6.329 3.798 6.329s4.22-2.532 6.33-5.486l2.109-2.954s2.954 5.064 8.017 7.174l5.064 2.11s6.329-3.798 8.017-6.33l1.688-2.532s.844 3.376 5.907 5.908c5.064 2.532 8.44 3.375 8.44 3.375l12.236.844s-2.532-9.283-4.641-12.236l-2.11-2.954 5.907.844s1.688-2.954-5.485-6.33c-7.174-3.375-13.081-7.595-13.081-7.595l-.422-16.878s10.971-.422 15.19 3.797c4.22 4.22 5.908 7.596 5.908 7.596s1.688-4.642.422-9.283c-1.266-4.642-3.376-9.283-3.376-9.283l11.393 2.531s15.613-13.924 20.676-19.832c5.064-5.907 18.144-7.173 24.896-3.797 6.75 3.375 2.953 2.11 2.953 2.11l-4.641 3.375 13.924.422s-1.266 1.688-2.11 6.33l-.843 4.641s4.22-3.798 7.595-5.907c3.376-2.11 7.595-3.376 7.595-3.376s-4.22 1.688-6.33 7.595c-2.109 5.908-1.687 13.925-1.687 13.925s4.22-5.486 8.861-6.752c4.642-1.265 8.44-2.531 8.44-2.531s-.845 3.797-2.11 9.705c-1.266 5.907-1.266 6.751-1.266 6.751s8.017-3.376 10.127-4.642l2.11-1.265-1.267 7.173s3.798 0 6.752-2.532l2.953-2.532 1.266 6.752s3.798-3.798 8.44-5.486c4.641-1.688 18.988.422 18.988.422s8.86-18.144 9.283-22.785c.422-4.642 2.11-35.867 2.11-35.867s-45.572-26.583-66.248-24.474c-20.676 2.11-54.432-.843-63.294-.843-8.86 0-33.756-5.486-44.727-3.376-10.971 2.11-69.201 18.144-69.201 18.144z"/>
        <path style="fill:#2b2215;fill-opacity:1;stroke:none;stroke-width:1px;stroke-linecap:butt;stroke-linejoin:miter;stroke-opacity:1" d="M57.07 194.786s1.582-24.737-.106-29.8c-1.687-5.064-10.549-21.942-12.236-27.006-1.688-5.063-8.862-10.97-8.862-10.97l4.22.421s5.064 4.22 5.907 6.33c.844 2.11 11.393 19.41 11.393 19.41s2.532-13.503 5.486-19.41c2.953-5.908 10.97-16.457 10.97-16.457l5.064-.422s-5.063 2.954-8.439 8.018c-3.376 5.063-6.751 15.19-6.751 15.19l12.658-11.815h5.064s-9.705 6.33-13.503 10.971c-3.797 4.642-4.641 8.017-4.641 8.017l.58 47.682-4.009.158zM274.22 194.153s.897-28.323-1.213-36.763c-2.11-8.439-7.173-13.502-8.861-13.502-1.688 0-9.283 1.688-14.347.422-5.063-1.266-15.19-4.642-15.19-4.642l4.22-.844s7.595 3.376 10.97 2.954l3.376-.422-8.44-5.064 3.376-.843s5.064 5.063 8.861 5.485c3.798.422 6.33-.422 6.33-.422s-16.035-19.41-24.474-21.942-14.768 2.532-23.207.844c-8.44-1.688-19.41-8.861-25.318-8.861h-6.33l10.128-2.532s18.144 8.861 20.676 8.861c2.531 0 19.41-3.375 19.41-3.375l-11.815-6.33h3.798l12.658 5.908s14.347 11.393 18.988 14.768c4.642 3.376 14.769 18.566 14.769 18.566s5.063-7.595 5.063-11.392c0-3.798-2.531-12.66-2.531-12.66l1.266-6.329 4.22 17.723s2.953-10.55 3.375-15.19c.422-4.642-.422-14.77-.422-14.77l2.532-4.64-.422 25.317-7.596 24.473.422 10.55 2.11 34.494-3.112.264z"/>
        <path style="fill:#243515;fill-opacity:1;stroke:none;stroke-width:1px;stroke-linecap:butt;stroke-linejoin:miter;stroke-opacity:1" d="M148.951 136.714s-1.266 3.798 1.688 8.018c2.954 4.22 9.705 6.329 9.705 6.329l-5.063-7.595s3.375 3.797 7.173 4.22c3.797.421 16.034-2.954 16.034-2.954s-6.33-8.862-9.705-10.55l-3.375-1.687 12.236-1.688s-5.063-2.11-10.549-2.11c-5.485 0-14.768 5.064-14.768 5.064z"/>
        <path style="fill:#2b2215;fill-opacity:1;stroke:none;stroke-width:1px;stroke-linecap:butt;stroke-linejoin:miter;stroke-opacity:1" d="M125.743 194.72l3.113.143 4.395-.183s-2.524-19.105-2.796-25.443c-.27-6.337 3.425-19.756 7.734-23.452 4.308-3.696 11.53-5.635 17.556-10.557 6.026-4.921 14.262-14.011 14.262-14.011l-16.311 11.43 3.535-6.669-4.238.743s-.12 5.062-3.144 7.945c-3.023 2.883-15.397 8.498-15.397 8.498s4.298-21.002 9.029-24.688c4.73-3.687 14.965-8.086 14.965-8.086s-10.174 1.868-13.6 3.897c-3.424 2.03-6.849 4.058-8.195 7.403-1.346 3.344-9.681 34.38-11.459 38.136-1.777 3.757.551 34.894.551 34.894z"/>
        <path style="fill:#455522;fill-opacity:1;stroke:none;stroke-width:1px;stroke-linecap:butt;stroke-linejoin:miter;stroke-opacity:1" d="M40.508 111.397s-.422 2.954-4.22 5.907c-3.797 2.954-5.063 3.798-5.063 3.798l8.44-.844s-1.689-1.266-5.064 4.22c-3.376 5.485-4.642 7.173-4.642 7.173s10.97-4.22 15.612-6.751c4.642-2.532 24.052-5.908 29.116-5.064l5.063.844-2.954 4.642 4.22-1.688-5.907 5.907s.843-1.688 9.705.422c8.86 2.11 19.41 12.659 24.473 13.08l5.064.423-5.486-5.486s6.752.422 13.503 0 7.595-.844 7.595-.844l-6.33-4.22s9.284.423 14.347 0c5.064-.421 12.237 3.376 12.237 3.376l-.844-5.063 5.908 4.641s2.531-6.75-.844-12.236c-3.376-5.486-13.081-17.723-21.52-19.832-8.44-2.11-53.167-14.769-53.167-14.769H51.48s-5.908 11.393-11.815 14.769c-5.907 3.375-9.705 7.595-9.705 7.595z"/>
        <path style="fill:#5c712d;fill-opacity:1;stroke:none;stroke-width:1px;stroke-linecap:butt;stroke-linejoin:miter;stroke-opacity:1" d="M147.263 123.634l-2.11 6.33s3.798-.845 5.908-3.377l2.11-2.531-.422 5.063s7.173-2.11 8.86-5.063c1.689-2.954 1.689-3.376 1.689-3.376l9.705 2.954s-5.064-11.815-7.173-13.503c-2.11-1.688-18.145 0-21.52 1.688-3.376 1.688-7.174 3.376-7.174 6.751v7.595z"/>
        <path style="fill:#455522;fill-opacity:1;stroke:none;stroke-width:1px;stroke-linecap:butt;stroke-linejoin:miter;stroke-opacity:1" d="M239.25 77.218s2.954 3.376 5.486 8.018c2.531 4.641 3.797 9.283 3.797 9.283s0-2.11-5.907-4.22l-5.908-2.11s5.064 5.064 5.908 9.705c.844 4.642 3.376 15.613 7.173 21.52 3.798 5.908 22.364 13.503 22.364 13.503l-5.907-6.752s3.375 4.22 10.127 5.486c6.75 1.266 9.705 2.11 9.705 2.11l-2.954-6.33 8.017 5.064s1.266-12.237-1.266-16.878c-2.532-4.642-7.595-11.815-7.595-11.815l9.283 4.641s-6.751-15.612-8.861-17.3c-2.11-1.688-6.751-10.127-18.988-12.237-12.237-2.11-24.474-1.688-24.474-1.688zM174.269 84.392s-4.22 0-8.861 2.953c-4.642 2.954-10.971 8.44-10.971 8.44l-.422-5.908s-3.798 10.549-5.486 8.44c-1.688-2.11-10.127-13.503-10.127-13.503l-.844 6.75s-7.173-12.236-7.595-15.612c-.422-3.375 1.266-11.814 7.595-11.814 6.33 0 25.318.422 32.07 2.11 6.75 1.687 10.97 2.953 10.97 2.953s-5.485 5.486-5.907 8.861c-.422 3.376-.422 6.33-.422 6.33z"/>
        <path style="fill:#5c712d;fill-opacity:1;stroke:none;stroke-width:1px;stroke-linecap:butt;stroke-linejoin:miter;stroke-opacity:1" d="M200.008 52.745s-1.688-2.11-.844-4.642c.844-2.532 2.532-4.22 2.532-4.22s1.688.845 2.11 4.642c.422 3.798.422 5.064.422 5.064s2.531-4.642 4.641-7.174c2.11-2.531 4.22-3.375 4.22-3.375s.422 4.641-1.266 7.595c-1.688 2.954-5.907 4.642-1.688 2.954 4.22-1.688 8.861-5.908 21.942-4.642 13.08 1.266 37.554 7.595 39.242 7.173 1.688-.422 7.595-3.375 7.595-3.375s.844 1.688-1.266 3.797l-2.11 2.11s2.532-1.266 6.752.844 6.751 4.22 6.751 4.22l-5.063 2.11s6.33 15.612 8.017 23.207c1.688 7.595 2.11 14.769 2.11 14.769s-5.064.844-8.861-3.376c-3.798-4.22-6.752-7.595-6.752-7.595l.422 13.08s-6.33-7.173-7.173-10.548c-.844-3.376-1.266-4.22-1.266-4.22l-2.954 8.861s-7.173-4.641-9.283-8.017c-2.11-3.376-2.531-5.064-2.531-5.064s-31.225-13.502-51.057-14.768c-17.295-.73-12.069-2.257-17.3 8.86 0 0-3.376-3.375-3.376-6.328v-2.954s-3.376 3.376-5.908 5.063c-2.531 1.688-2.953 1.688-2.953 1.688s-1.688-5.907 1.265-10.127c2.954-4.22 8.862-8.86 12.66-10.97 3.797-2.11 10.97-4.642 10.97-4.642zM61.606 60.34s1.688-4.642 3.376-7.173c1.687-2.532 7.595-6.752 7.595-6.752s.844 2.11-.422 6.33l-1.266 4.22s4.22-5.064 9.283-6.752c5.064-1.688 8.861-2.11 8.861-2.11s.844 4.642-1.266 7.174l-2.11 2.531s8.44-5.063 16.457-5.063c8.017 0 18.144 6.33 18.144 6.33s-5.063 7.172-8.861 9.282c-3.798 2.11-4.22 2.11-4.22 2.11s2.11-.844 10.55 7.173c8.438 8.017 9.704 20.676 9.704 20.676l-5.485-.844 2.11 5.908s-20.254 0-27.428-2.954l-7.173-2.954 1.266 4.642s-12.659-2.954-18.988-5.908c-6.33-2.953-19.41-5.485-25.318-5.485-5.907 0-6.75.844-6.75.844s0-2.11 1.687-4.642c1.688-2.531 3.798-4.22 3.798-4.22l-7.596 2.954s.844-3.797 3.376-6.329l2.532-2.532-5.908-.422s2.954-5.485 8.017-8.439c5.064-2.953 16.035-7.595 16.035-7.595z"/>
        <path style="fill:#5c712d;fill-opacity:1;stroke:none;stroke-width:1px;stroke-linecap:butt;stroke-linejoin:miter;stroke-opacity:1" d="M143.888 53.167s.844-3.798 4.22-7.596c3.375-3.797 6.75-5.485 6.75-5.485s0 8.017-1.687 10.97l-1.688 2.955s3.798-2.11 10.549-3.376c6.751-1.266 14.346.844 14.346.844s-1.265 2.11-6.75 5.485l-5.486 3.376s1.688-2.11 9.283 0 14.346 8.017 14.346 8.017-18.144 3.798-24.051 2.954l-5.908-.844 7.174 6.33s-9.283-.423-11.393-2.11c-2.11-1.688-4.22-3.798-4.22-3.798s-15.612-2.532-19.41-1.688c-3.798.844-6.751 2.11-6.751 2.11s.844-7.595 4.641-10.971l3.798-3.376-10.549.844s2.954-5.063 10.127-6.33c7.173-1.265 12.659 1.689 12.659 1.689zM259.926 101.692c6.33-.844 8.861 0 14.347 2.11 5.485 2.11 13.08 8.439 13.08 8.439l-8.439-.844 5.486 13.08s-1.266-4.64-6.752-5.485c-5.485-.844-13.08-4.22-13.08-4.22l4.22 7.596s-9.284-4.642-13.925-8.017c-4.642-3.376 5.063-12.66 5.063-12.66zM195.367 81.016s8.86-2.11 11.814-4.642l2.954-2.531s.844 2.11-1.266 5.485c-2.11 3.376-2.11 3.798-2.11 3.798s2.532-1.688 10.55-.422c8.017 1.266 14.768 3.375 14.768 3.375l-10.127 3.376s4.641 1.266 10.97 4.22c6.33 2.953 12.66 11.815 12.66 11.815s-5.486 2.953-18.989 2.531c-13.502-.422-29.959-2.11-29.959-2.11l4.642 7.596s-5.485-.844-10.127-4.22-5.064-3.376-5.064-3.376l-4.641 6.752 1.266-7.173s-1.688 1.265-6.33 3.797c-4.641 2.532-4.641 2.11-4.641 2.11l3.798-9.705s-1.688 1.688-5.064 2.954c-3.376 1.265-5.485 1.687-5.485 1.687s2.531-2.11 3.797-7.173c1.266-5.063 2.954-9.705 8.861-13.08 5.908-3.376 17.723-5.064 17.723-5.064z"/>
        <path d="M260.635 134.922l4.642 5.484s-1.007.037-2.023.064l.125.147s-2.533.844-6.33.422c-1.29-.144-2.72-.836-4.055-1.67 1.13 1.282 2.642 2.812 3.633 2.935 1.688.211 7.384-.422 9.072 0 1.688.422 8.861 10.55 8.861 10.55s2.743 21.942 2.532 26.583c-.211 4.642-1.055 13.291-1.055 13.291l2.637.53 1.873-.005-1.979-33.648-.422-10.549 3.332-10.736-1.855-.446s-2.953 8.44-4.008 8.862c-.287.115-1.094-.57-2.09-1.58-.51.833-.865 1.369-.865 1.369s-3.206-4.788-6.826-9.584a32.478 32.478 0 01-3.09-1.176c-1.899-.844-2.11-.844-2.11-.844zM131.26 148.171l-4.43 14.346.58 30.33 2.162.79s1.375.176 3.033-.125l.095-1.195s-1.943-17.101-2.214-23.439c-.205-4.78 1.85-13.584 4.72-19.21a7.013 7.013 0 01-.78-.231c-2.322-.844-3.167-1.266-3.167-1.266z" style="fill:#764c25;fill-opacity:1;stroke:none;stroke-width:1px;stroke-linecap:butt;stroke-linejoin:miter;stroke-opacity:1"/>
    </g>
</svg>
