<svg width="295" height="98" xmlns="http://www.w3.org/2000/svg" viewBox="0 0 295 98">
    <g>
        <path style="fill:#a1b565;stroke:null" d="M188.751.695l-15.776 27.458 7.213-21.558-20.817 26.719 15.518-23.182-18.725 10.574s-24.944 28.942-27.213 33.481c-2.27 4.54-12.257 28.146-12.257 28.146 1.816-10.895 4.54-22.698 8.625-29.053 4.086-6.356 30.845-32.574 30.845-32.574 9.018-16.16 5.913-12.04-.996-5.772-5.791 5.253-15.065 11.88-14.263 10.637 13.968-21.638 22.211-27.255-23.762 10.505l-.431-14.847-15.777 22.854 13.447-34.34c-9.402 8.913-20.584 12.234-24.13 17.053-23.492 31.93-6.572 2.476 3.354-15.278 1.831-3.274-14.38 9.56-25.272 23.042a79.174 79.174 0 00-4.207 5.673s3.54 12.139 2.633 18.494c-.908 6.355-7.717 14.527-7.717 14.527l4.993-17.704c2.27-6.355.091-15.317.091-15.317l8.067-28.075L47.348 46.42l6.158-23.677s-10.793 14.99-13.192 22.786c-2.399 7.795-13.192 38.978-13.192 38.978s5.996-29.983 5.996-37.178c0-7.196-2.998-27.585-2.998-27.585s0 22.187-1.8 29.383c-1.798 7.196-13.79 32.381-13.79 32.381s4.796-17.389 5.996-22.786c1.199-5.397-1.2-25.186-1.2-25.186s-1.2 15.592-3.598 26.385C13.33 70.715 4.935 89.904.738 97.1h272.24s1.8-7.196 4.198-11.994c2.399-4.797 16.79-8.394 16.79-8.394s-7.195-1.2-16.19 4.197c-6.107 3.663-9.443 8.427-10.96 11.112 2.024-4.184 6.443-13.95 7.363-21.306.517-4.141-.307-10.963-1.41-17.38 5.948-6.946 14.002-15.002 14.002-15.002s-7.568 5.298-14.734 11.005a257.854 257.854 0 00-2.656-12.204s.533 6.339.654 13.823c-4.816 3.939-9.093 7.852-10.249 10.163-2.998 5.997-10.794 23.387-10.794 23.387s6.597-31.782 10.195-41.376c3.598-9.595 14.992-24.894 14.992-24.894-12.293 1.44-20.351 14.603-25.842 24.148-5.901 10.44-10.44 30.414-10.44 30.414s2.723-21.789 4.085-28.144c1.206-5.627 9.523-18.714 14.566-24.477-4.292.897-9.76 2.97-18.11 7.925l11.22-20.829-29.465 26.048 8.55-31.425-21.736 47.94c-2.05-5.73 3.135-33.82 8.441-41.761 2.27-3.396-10.79 7.892-20.216 17.113 1.688-9.994 17.177-40.008-14.094 16.462L188.75.695zm16.008 21.717s-8.625 25.874-10.441 31.775c-1.816 5.902 0 37.224 0 37.224l-4.54-5.901c-.454-2.724-5.9-7.717-3.177-19.066 2.724-11.348 18.158-44.032 18.158-44.032zm-5.763 30.585c.927-.113-.638 6.476-2.204 13.054l1.157-11.864c.497-.794.836-1.164 1.047-1.19zm71.032 3.66c-.126 6.68-.73 13.271-2.446 16.456-4.197 7.796-10.194 16.79-10.194 16.79s6.596-22.786 9.594-28.783c.576-1.152 1.668-2.708 3.046-4.462z"/>
        <path style="fill:#a1b565;stroke:null" d="M64.127 40.233s2.18-8.288 6.265-13.282l4.085-4.993s1.271 1.699-4.54 9.987c-5.81 8.288 2.27 15.888 2.27 15.888l-8.08-7.6z"/>
    </g>
</svg>
