<svg width="295" height="98" xmlns="http://www.w3.org/2000/svg" viewBox="0 0 295 98">
 <metadata id="metadata5">image/svg+xml</metadata>

 <g>
  <title>Высокая трава</title>
  <g id="layer1" stroke="null">
   <g id="g7077" stroke="null">
    <path id="path7047" d="m188.751008,0.69496l-15.776346,27.45824l7.213669,-21.558473l-20.817564,26.719226l15.518303,-23.181645l-18.724804,10.573851c0,0 -24.943776,28.941914 -27.213482,33.481332c-2.269711,4.539437 -12.25679,28.14508 -12.25679,28.14508c1.815759,-10.894609 4.539806,-22.697744 8.625291,-29.052954c4.085461,-6.355172 30.844981,-32.573457 30.844981,-32.573457c9.017795,-16.161103 5.912542,-12.039475 -0.996101,-5.772641c-5.791642,5.253607 -15.065624,11.880422 -14.263218,10.637412c13.967838,-21.638004 22.211035,-27.254832 -23.762233,10.505544l-0.430696,-14.8476l-15.777293,22.854358l13.447367,-34.340824c-9.40243,8.913322 -20.584259,12.23488 -24.129611,17.053677c-23.492563,31.930784 -6.572098,2.475656 3.353785,-15.277771c1.830778,-3.27453 -14.381126,9.560444 -25.272019,23.041962c-1.528661,1.892284 -2.952495,3.797309 -4.206885,5.672311c0,0 3.540437,12.139091 2.632557,18.494282c-0.907884,6.355172 -7.716464,14.526948 -7.716464,14.526948l4.992835,-17.704039c2.269706,-6.355191 0.091077,-15.317192 0.091072,-15.317192l8.066526,-28.074874l-24.845612,34.262089l6.157805,-23.676854c0,0 -10.79357,14.990581 -13.192176,22.786052c-2.398611,7.795476 -13.192176,38.977915 -13.192176,38.977915c0,0 5.996532,-29.982478 5.996532,-37.178291c0,-7.195833 -2.99874,-27.584415 -2.99874,-27.584415c0,0 0.000262,22.187288 -1.798672,29.383087c-1.798963,7.195838 -13.791737,32.38088 -13.791737,32.38088c0,0 4.797227,-17.389177 5.996532,-22.786052c1.199301,-5.396855 -1.199116,-25.186178 -1.199116,-25.186178c0,0 -1.199694,15.591564 -3.5983,26.385294c-2.398606,10.79375 -10.793283,29.982478 -14.990848,37.178291l272.241094,0c0,0 1.79924,-7.195843 4.197856,-11.99306c2.398596,-4.797212 16.790471,-8.39476 16.790471,-8.39476c0,0 -7.196139,-1.199971 -16.190916,4.196909c-6.106426,3.663848 -9.442832,8.427483 -10.959957,11.112691c2.024132,-4.184295 6.443228,-13.951164 7.362609,-21.306128c0.517664,-4.141304 -0.306979,-10.962891 -1.409719,-17.380546c5.948301,-6.945212 14.002334,-15.001281 14.002334,-15.001281c0,0 -7.568388,5.297992 -14.733757,11.004546c-1.295832,-6.740672 -2.65627,-12.203662 -2.65627,-12.203662c0,0 0.533221,6.338318 0.653631,13.823036c-4.81547,3.938264 -9.092989,7.852145 -10.248458,10.163079c-2.998254,5.996518 -10.793939,23.38656 -10.793939,23.38656c0,0 6.596467,-31.781713 10.194383,-41.376147c3.597897,-9.594415 14.991795,-24.89399 14.991795,-24.89399c-12.292335,1.439823 -20.350847,14.602963 -25.841708,24.14834c-5.901259,10.440652 -10.440089,30.414286 -10.440089,30.414286c0,0 2.723139,-21.788936 4.08496,-28.144128c1.205906,-5.627567 9.523456,-18.714298 14.565849,-24.477526c-4.291862,0.896888 -9.760045,2.970126 -18.11007,7.925173l11.219894,-20.828949l-29.464673,26.04757l8.549393,-31.424623l-21.734929,47.940931c-2.050346,-5.730568 3.134692,-33.82082 8.441248,-41.762254c2.269104,-3.3958 -10.789485,7.892756 -20.216109,17.113017c1.687836,-9.993607 17.176408,-40.007851 -14.094358,16.462233l7.61306,-40.955889l0.000003,0.000001zm16.00782,21.716904c0,0 -8.625262,25.874392 -10.441041,31.775627c-1.815754,5.901259 0,37.223827 0,37.223827l-4.539374,-5.901662c-0.453933,-2.723644 -5.900729,-7.716834 -3.177086,-19.065375c2.723658,-11.348561 18.1575,-44.032417 18.1575,-44.032417l0.000001,0zm-5.76316,30.585049c0.927401,-0.112857 -0.637879,6.47563 -2.203756,13.053669l1.157378,-11.863092c0.496496,-0.794396 0.835741,-1.164941 1.046377,-1.190577l0.000001,0zm71.03245,3.660909c-0.126204,6.679612 -0.730529,13.270338 -2.445667,16.455593c-4.19754,7.795471 -10.194383,16.790471 -10.194383,16.790471c0,0 6.595622,-22.787014 9.593881,-28.783531c0.57627,-1.152545 1.668033,-2.708358 3.04617,-4.462533l-0.000001,0z" stroke-width="1px" fill="#a1b565"/>
    <path id="path7071" d="m64.127362,40.232591c0,0 2.178993,-8.28785 6.264474,-13.281201c4.085475,-4.99337 4.085475,-4.99337 4.085475,-4.99337c0,0 1.271114,1.698871 -4.539417,9.986721c-5.810532,8.28785 2.26971,15.887978 2.26971,15.887978l-8.080243,-7.600128l0.000001,0z" stroke-width="0.264583px" fill="#a1b565"/>
   </g>
  </g>
 </g>
</svg>
