<svg xmlns="http://www.w3.org/2000/svg" viewBox="0 0 240 280" height="280" width="240">
    <g style="transform:matrix(1.0389753,0,0,1.0389753,-83.482587,-2.1570911)">
        <path style="fill:#29401a;fill-opacity:1;stroke:none;stroke-width:1px;stroke-linecap:butt;stroke-linejoin:miter;stroke-opacity:1" d="M201.429 267.143C214.286 220 207.857 150 207.857 150l-20-85s13.572 95 11.429 117.857c-2.143 22.857-2.143 50.714-2.143 50.714s1.428-25.714-3.572-51.428-34.285-75-35.714-84.286C156.43 88.571 150 54.286 150 54.286s5.714 52.857 5.714 56.428c0 3.572 23.572 54.286 26.429 66.429 2.857 12.143 5 92.857 5 92.857z"/>
        <path style="fill:#42662a;fill-opacity:1;stroke:none;stroke-width:1px;stroke-linecap:butt;stroke-linejoin:miter;stroke-opacity:1" d="M173.571 268.714s1.429-37.143-11.428-67.143c-12.857-30-71.429-126.428-71.429-126.428s71.429 90 80 113.571c6.394 17.583 8.354 61.747 7.195 78.84-.113 1.67-4.338 1.16-4.338 1.16zM195 270s-4.286-97.857 0-119.286c4.286-21.428 30-67.143 35.714-82.857 5.715-15.714 10-49.286 10-49.286S244.286 50 229.286 87.143s-27.143 87.857-27.857 110C200.714 219.286 195 270 195 270z"/>
        <path style="fill:#29401a;fill-opacity:1;stroke:none;stroke-width:1px;stroke-linecap:butt;stroke-linejoin:miter;stroke-opacity:1" d="M195 270s6.429-55.714 12.143-75 29.286-55 29.286-55h14.285s10.715 27.143 22.143 37.857c11.429 10.714 32.857 20.714 32.857 20.714s-24.285-5.714-32.857-12.857c-8.571-7.143-33.571-42.143-33.571-42.143s-19.286 30-22.143 45.715c-2.857 15.714-7.857 80-7.857 80z"/>
        <path style="fill:#42662a;fill-opacity:1;stroke:none;stroke-width:1px;stroke-linecap:butt;stroke-linejoin:miter;stroke-opacity:1" d="M187.16 269.992s-17.72-93.003-17.72-114.812c0-21.81-.84-53.684-3.355-70.46-2.517-16.776-10.066-34.391-10.066-34.391s13.42 24.325 15.098 31.874c1.678 7.55 3.356 73.816 5.872 85.56 2.516 11.742 13.002 75.387 14.26 88.389-1.468 11.429-4.09 13.84-4.09 13.84z"/>
        <path style="fill:#42662a;fill-opacity:1;stroke:none;stroke-width:1px;stroke-linecap:butt;stroke-linejoin:miter;stroke-opacity:1" d="M208.188 2.076s-8.896 24.615-10.083 29.953c-1.186 5.338-8.897 72.362-9.49 82.446-.4 6.793 1.124 73.165 2.182 116.91-1.465-16.11-2.934-32.633-2.74-39.926.401-15.117-4.946-81.004-6.862-92.11-1.916-11.105-15.484-47.886-15.484-47.886s11.15 40.209 12.36 47.223c1.21 7.013 5.226 61.695 5.226 61.695s.429 58.308 2.445 69.998c2.017 11.69 3.987 39.412 3.987 39.412 2.156.255 3.808.364 6.527.184 0 0-5.268-151.35-5.268-156.688 0-5.338 5.93-59.312 7.71-70.582 1.779-11.27 9.49-40.629 9.49-40.629z"/>
        <path style="fill:#66482a;fill-opacity:1;stroke:none;stroke-width:1px;stroke-linecap:butt;stroke-linejoin:miter;stroke-opacity:1" d="M192.767 43.595s1.483 2.076 3.855 2.669c2.373.593 5.042-.89 5.042-.89s7.414-31.139 7.117-32.918c-.296-1.78-3.558-2.966-3.558-2.966s-2.373 0-3.56.89c-1.186.89-8.896 33.215-8.896 33.215zM182.827 94.673s-1.425 2.116-3.78 2.775c-2.355.658-5.065-.75-5.065-.75s-8.272-30.923-8.025-32.71c.247-1.786 3.476-3.063 3.476-3.063s2.371-.065 3.582.791c1.21.857 9.812 32.957 9.812 32.957z"/>
    </g>
</svg>
