<svg xmlns="http://www.w3.org/2000/svg" width="215" height="138" viewBox="0 0 215 138">
    <g style="transform:matrix(0.99143368,0,0,0.99143368,-60.707027,-45.209637)">
        <path style="fill:#34511f;fill-opacity:1;stroke:none;stroke-width:1px;stroke-linecap:butt;stroke-linejoin:miter;stroke-opacity:1" d="M186.636 184.677s0-35.368 2.765-45.506c2.765-10.139 3.687-16.13 10.599-22.12 6.912-5.991 4.97-3.482 4.97-3.482s-2.205 1.638-5.892 7.63c-3.686 5.99-8.295 21.197-8.755 32.718-.461 11.52-.346 30.645-.346 30.645z"/>
        <path style="fill:#34511f;fill-opacity:1;stroke:none;stroke-width:1px;stroke-linecap:butt;stroke-linejoin:miter;stroke-opacity:1" d="M188.48 158.986s4.147-.921 8.294-.921c4.148 0 11.52 5.53 19.816 6.451 8.295.922 25.806 0 22.12 0-3.687 0-16.59-1.843-23.503-4.608-6.912-2.765-11.06-7.373-15.668-7.373-4.608 0-11.06 6.451-11.06 6.451z"/>
        <path style="fill:#34511f;fill-opacity:1;stroke:none;stroke-width:1px;stroke-linecap:butt;stroke-linejoin:miter;stroke-opacity:1" d="M187.558 152.995s4.147-2.765 7.834-4.147c3.686-1.383 10.599 1.843 16.129 4.608 5.53 2.765 18.894 3.687 18.894 3.687s-7.834-.922-14.747-5.07c-6.912-4.147-11.06-8.755-15.668-8.755-4.608 0-12.442 9.677-12.442 9.677z"/>
        <path style="fill:#34511f;fill-opacity:1;stroke:none;stroke-width:1px;stroke-linecap:butt;stroke-linejoin:miter;stroke-opacity:1" d="M189.4 147.005s5.07-5.991 8.757-7.374c3.686-1.382 7.834 1.844 12.442 3.226 4.608 1.383 13.364 2.304 13.364 2.304s-10.138-3.686-16.129-6.912c-5.99-3.226-5.53-4.148-9.677-2.765-4.148 1.382-8.295 9.677-8.295 9.677z"/>
        <path style="fill:#34511f;fill-opacity:1;stroke:none;stroke-width:1px;stroke-linecap:butt;stroke-linejoin:miter;stroke-opacity:1" d="M191.603 136.295s4.4-3.584 6.843-4.562c2.444-.977 11.08 3.748 13.849 4.4 2.77.651 6.68 1.466 6.68 1.466s-7.983-3.259-11.568-6.029c-3.584-2.77-3.91-4.073-6.517-3.91-2.607.163-8.146 4.888-8.146 4.888z"/>
        <path style="fill:#34511f;fill-opacity:1;stroke:none;stroke-width:1px;stroke-linecap:butt;stroke-linejoin:miter;stroke-opacity:1" d="M194.21 129.778s5.05-3.584 6.68-3.91c1.63-.326 4.4 1.63 6.843 3.095 2.444 1.467 10.264 3.422 10.264 3.422s-5.865-2.607-8.798-5.05c-2.932-2.445-4.562-4.237-7.006-4.237-2.443 0-7.983 5.377-7.983 5.377z"/>
        <path style="fill:#34511f;fill-opacity:1;stroke:none;stroke-width:1px;stroke-linecap:butt;stroke-linejoin:miter;stroke-opacity:1" d="M196.491 124.727c.978-.163 2.933-2.444 5.54-2.444 2.606 0 6.028 2.77 8.146 3.748 2.118.977 5.702 1.466 5.702 1.466s-7.006-3.584-9.45-5.377c-2.443-1.792-2.932-2.443-4.724-2.443-1.793 0-5.214 3.91-5.214 3.91z"/>
        <path style="fill:#34511f;fill-opacity:1;stroke:none;stroke-width:1px;stroke-linecap:butt;stroke-linejoin:miter;stroke-opacity:1" d="M198.935 120.002s.977-1.14 3.258-.977c2.281.163 5.703 3.258 7.658 3.747l1.955.489s-3.91-2.77-5.54-4.073c-1.629-1.304-1.629-1.63-2.932-1.63s-4.4 2.444-4.4 2.444z"/>
        <path style="fill:#34511f;fill-opacity:1;stroke:none;stroke-width:1px;stroke-linecap:butt;stroke-linejoin:miter;stroke-opacity:1" d="M201.868 117.07s.651-.326 2.118-.326c1.466 0 4.562 2.77 4.562 2.77s-1.14-3.096-2.444-3.422c-1.304-.326-3.748-.326-3.748-.326z"/>
        <path style="fill:#34511f;fill-opacity:1;stroke:none;stroke-width:1px;stroke-linecap:butt;stroke-linejoin:miter;stroke-opacity:1" d="M202.356 115.115s2.281-.163 3.259.163c.977.325 1.792 1.303 1.792 1.303s-.652-1.63-1.303-1.955c-.652-.326-3.748.489-3.748.489zM188.019 158.942s-4.562-2.444-6.843-2.933c-2.281-.488-17.596 1.63-17.596 1.63l-25.091 5.05s13.686-6.19 21.017-8.798c7.332-2.606 15.478-3.747 18.411-2.606 2.933 1.14 9.939 6.19 9.939 6.19z"/>
        <path style="fill:#34511f;fill-opacity:1;stroke:none;stroke-width:1px;stroke-linecap:butt;stroke-linejoin:miter;stroke-opacity:1" d="M188.67 154.869s.106 1.877-.532.9c-1.269-1.943-3.382-4.702-5.985-6.114-3.01-1.633-8.798-2.444-17.27.163-4.888 1.14-23.788 6.843-23.788 6.843s21.507-9.938 28.187-11.73c6.68-1.793 11.568-.49 13.849.814 2.28 1.303 5.54 9.124 5.54 9.124z"/>
        <path style="fill:#34511f;fill-opacity:1;stroke:none;stroke-width:1px;stroke-linecap:butt;stroke-linejoin:miter;stroke-opacity:1" d="M188.67 147.211s-2.932-5.54-6.028-6.028c-3.096-.489-8.472 0-14.99 1.466-6.516 1.467-18.736 6.355-18.736 6.355s18.085-9.613 22.973-10.754c4.888-1.14 8.146-2.444 10.753-.814 2.607 1.629 5.866 7.331 5.866 7.331z"/>
        <path style="fill:#34511f;fill-opacity:1;stroke:none;stroke-width:1px;stroke-linecap:butt;stroke-linejoin:miter;stroke-opacity:1" d="M190.3 139.717s.326-3.422-2.444-5.214c-2.77-1.792-10.59-.978-14.827.326-4.236 1.303-17.596 7.332-17.596 7.332s16.945-9.776 22.158-11.08c5.214-1.303 8.798-.977 10.428-.162 1.629.814 2.932 4.725 2.932 4.725z"/>
        <path style="fill:#34511f;fill-opacity:1;stroke:none;stroke-width:1px;stroke-linecap:butt;stroke-linejoin:miter;stroke-opacity:1" d="M191.44 132.222c-.326-1.466.489-3.259-3.747-3.421-4.236-.163-9.45.977-13.36 1.955-3.91.977-11.405 2.932-11.405 2.932s9.124-5.54 25.254-7.657c2.28.163 3.421 2.28 3.91 3.584.489 1.304.489 1.955.489 1.955l-1.304 1.955z"/>
        <path style="fill:#34511f;fill-opacity:1;stroke:none;stroke-width:1px;stroke-linecap:butt;stroke-linejoin:miter;stroke-opacity:1" d="M193.395 127.986s-.163-2.281-2.28-2.77c-2.119-.489-19.063 2.607-19.063 2.607s14.5-4.4 16.944-4.562c2.444-.163 2.933.489 3.422 1.14.489.652.977 3.585.977 3.585z"/>
        <path style="fill:#34511f;fill-opacity:1;stroke:none;stroke-width:1px;stroke-linecap:butt;stroke-linejoin:miter;stroke-opacity:1" d="M194.21 124.727s.652-1.792-1.792-2.28c-2.444-.49-12.546.162-12.546.162s10.59-2.118 12.383-2.118c1.792 0 2.444.326 2.444 1.467 0 1.14-.489 2.77-.489 2.77z"/>
        <path style="fill:#34511f;fill-opacity:1;stroke:none;stroke-width:1px;stroke-linecap:butt;stroke-linejoin:miter;stroke-opacity:1" d="M196.491 122.12s.163-1.629-1.63-2.443c-1.792-.815-5.376-.978-5.376-.978s4.4-.489 6.028-.163c1.63.326 1.63 3.096 1.63 3.096s.488-1.304 1.14-1.955c.652-.652.326-.815.326-.815s-.489-1.466-1.792-1.63c-1.304-.162-3.259-.325-3.259-.325s4.073-.652 5.051-.326c.978.326.978 1.792.978 1.792l1.792-1.955-2.281-2.118s2.933.489 3.258 1.303l.326.815.163-1.63-.977-1.629 2.118 1.304s-3.748 4.236-4.888 5.865c-1.14 1.63-3.422 2.607-3.422 2.607z"/>
        <path d="M180.184 168.203s-5.53-5.991-13.364-10.6c-7.834-4.608-15.207-4.608-23.502-7.833-8.295-3.226-36.406-19.816-36.406-19.816s35.484 11.52 43.318 13.364c7.835 1.843 16.59 3.226 20.738 7.834 4.147 4.608 9.216 17.05 9.216 17.05z" style="fill:#507c2e;fill-opacity:1;stroke:none;stroke-width:1px;stroke-linecap:butt;stroke-linejoin:miter;stroke-opacity:1"/>
        <path d="M178.802 158.986s-4.148-11.981-9.678-15.207c-5.53-3.226-26.267-6.913-31.797-8.756-5.53-1.843-31.797-17.05-31.797-17.05s20.737 10.138 34.101 11.52c13.364 1.383 21.66.922 26.268 4.148 4.608 3.225 11.06 17.05 11.06 17.05z" style="fill:#507c2e;fill-opacity:1;stroke:none;stroke-width:1px;stroke-linecap:butt;stroke-linejoin:miter;stroke-opacity:1"/>
        <path d="M173.272 138.71s-2.304-9.217-10.6-11.982c-8.294-2.765-17.51-1.382-27.188-4.147-9.678-2.765-30.876-14.286-30.876-14.286s14.747 5.07 23.503 6.452c8.755 1.382 18.894-.922 25.806 1.843 6.912 2.765 13.825 9.216 16.13 11.981 2.303 2.765 3.225 10.139 3.225 10.139z" style="fill:#507c2e;fill-opacity:1;stroke:none;stroke-width:1px;stroke-linecap:butt;stroke-linejoin:miter;stroke-opacity:1"/>
        <path d="M172.696 184.677s-7.258-14.17-14.631-22.926c-7.374-8.756-26.268-23.502-39.632-30.875-13.364-7.374-56.682-19.816-56.682-19.816s28.11 5.53 41.014 9.677c12.903 4.148 31.797 15.208 42.396 23.503 10.6 8.295 23.042 22.58 27.19 29.954 4.147 7.373 5.53 10.599 5.53 10.599zM199.885 184.677s9.792-17.857 15.783-24.308c6.04-6.526 30.766-19.997 39.862-23.042 10.56-3.535 18.433-4.954 18.433-4.954s-17.742 4.954-34.332 14.632c-16.59 9.677-21.659 13.364-27.65 21.659-5.99 8.295-9.792 15.783-9.792 15.783z" style="fill:#6faf3f;fill-opacity:1;stroke:none;stroke-width:1px;stroke-linecap:butt;stroke-linejoin:miter;stroke-opacity:1"/>
        <path d="M167.281 171.429s-6.912-2.305-12.442 0c-5.53 2.304-13.825 6.451-21.66 7.834-7.833 1.382-18.893 1.843-18.893 1.843s17.511-4.147 23.963-7.373c6.451-3.226 11.52-7.834 16.59-7.374 5.069.461 12.442 5.07 12.442 5.07z" style="fill:#6faf3f;fill-opacity:1;stroke:none;stroke-width:1px;stroke-linecap:butt;stroke-linejoin:miter;stroke-opacity:1"/>
        <path d="M163.134 165.899s-5.53-4.609-10.139-4.609c-4.608 0-15.668 5.991-23.041 7.834-7.373 1.844-28.572 2.765-28.572 2.765s12.904-3.225 20.738-5.99 16.59-8.756 21.659-9.678c5.069-.921 16.59 5.07 16.59 5.07z" style="fill:#6faf3f;fill-opacity:1;stroke:none;stroke-width:1px;stroke-linecap:butt;stroke-linejoin:miter;stroke-opacity:1"/>
        <path d="M154.378 156.221s-5.99-3.686-10.6-3.686c-4.607 0-12.902 6.912-21.197 9.216-8.295 2.304-27.65 5.53-27.65 5.53s11.52-4.608 19.816-8.756c8.294-4.147 12.442-9.216 18.894-10.138 6.451-.922 12.442 1.843 15.207 3.226 2.765 1.382 5.53 4.608 5.53 4.608z" style="fill:#6faf3f;fill-opacity:1;stroke:none;stroke-width:1px;stroke-linecap:butt;stroke-linejoin:miter;stroke-opacity:1"/>
        <path d="M146.544 148.848s-7.834-3.226-11.982-3.226c-4.147 0-8.756 3.226-14.746 6.452-5.991 3.226-25.807 11.06-25.807 11.06s23.503-17.051 28.572-19.355c5.069-2.304 13.364-1.383 16.59 0 3.225 1.382 7.373 5.069 7.373 5.069z" style="fill:#6faf3f;fill-opacity:1;stroke:none;stroke-width:1px;stroke-linecap:butt;stroke-linejoin:miter;stroke-opacity:1"/>
        <path d="M135.484 140.553s-4.608-1.843-10.138-1.382c-5.53.46-21.66 11.06-26.728 13.824-5.07 2.765-10.6 5.53-10.6 5.53s19.355-18.894 25.346-21.198c5.99-2.304 14.286-2.304 17.05-.46a81.415 81.415 0 015.07 3.686z" style="fill:#6faf3f;fill-opacity:1;stroke:none;stroke-width:1px;stroke-linecap:butt;stroke-linejoin:miter;stroke-opacity:1"/>
        <path d="M128.11 134.562s-5.53-2.765-11.981-1.843c-6.452.922-17.05 8.756-21.659 10.599-4.608 1.843-10.138 3.226-10.138 3.226s9.216-6.452 14.286-10.6c5.069-4.147 5.99-5.53 11.06-5.53 5.069 0 12.442.462 12.442.462z" style="fill:#6faf3f;fill-opacity:1;stroke:none;stroke-width:1px;stroke-linecap:butt;stroke-linejoin:miter;stroke-opacity:1"/>
        <path d="M114.286 128.571s-6.913-1.382-11.982 0c-5.069 1.383-21.659 10.6-21.659 10.6s3.226-6.452 9.217-9.678c5.99-3.226 9.216-4.608 12.903-4.608 3.687 0 8.756.921 8.756.921zM103.226 123.502s-6.913-.46-11.982 1.383c-5.069 1.843-12.442 6.912-12.442 6.912s1.382-6.912 5.99-8.756c4.609-1.843 11.06-1.843 11.06-1.843zM95.392 120.276s-5.07-.921-16.59.461c-3.91.47-8.295 3.226-8.295 3.226s.922-4.608 4.608-5.069c3.687-.46 9.678-1.382 12.443-1.382 2.765 0 7.834 2.765 7.834 2.765zM78.341 114.747H64.516s3.226 2.304 7.373 2.304c4.148 0 6.452-2.304 6.452-2.304z" style="fill:#6faf3f;fill-opacity:1;stroke:none;stroke-width:1px;stroke-linecap:butt;stroke-linejoin:miter;stroke-opacity:1"/>
        <path d="M168.664 121.659s-9.678-9.217-14.286-11.06c-4.608-1.843-15.207-2.304-23.042-2.304-7.834 0-26.267-7.834-26.267-7.834s9.678 3.226 17.972 3.226c8.295 0 22.12-.461 27.19-.461 5.069 0 9.216 5.53 11.981 7.834 2.765 2.304 6.452 10.599 6.452 10.599z" style="fill:#507c2e;fill-opacity:1;stroke:none;stroke-width:1px;stroke-linecap:butt;stroke-linejoin:miter;stroke-opacity:1"/>
        <path d="M164.516 111.06s-5.99-9.217-11.981-11.52c-5.991-2.305-24.885 0-31.798-2.766-6.912-2.765-8.755-5.069-8.755-5.069s5.53 4.148 15.207 3.687c9.677-.461 17.511-4.148 22.12-2.765 4.608 1.382 12.442 11.52 13.825 13.364 1.382 1.843 1.382 5.069 1.382 5.069z" style="fill:#507c2e;fill-opacity:1;stroke:none;stroke-width:1px;stroke-linecap:butt;stroke-linejoin:miter;stroke-opacity:1"/>
        <path d="M159.908 96.313s-4.148-9.216-9.678-9.216c-5.53 0-12.903.921-20.737-1.383-7.834-2.304-11.06-5.99-11.06-5.99s10.6 4.608 17.05 4.147c6.452-.46 11.522-2.304 16.13-.922 4.608 1.383 8.295 13.364 8.295 13.364z" style="fill:#507c2e;fill-opacity:1;stroke:none;stroke-width:1px;stroke-linecap:butt;stroke-linejoin:miter;stroke-opacity:1"/>
        <path d="M153.456 81.106s-5.077-3.134-11.282-3.134-7.334 1.045-12.41-.522c-5.078-1.567-9.027-4.178-9.027-4.178s1.693 1.567 11.283 1.567 12.974-2.09 16.36 0c3.384 2.089 5.076 6.267 5.076 6.267z" style="fill:#507c2e;fill-opacity:1;stroke:none;stroke-width:1.17786086px;stroke-linecap:butt;stroke-linejoin:miter;stroke-opacity:1"/>
        <path d="M150.691 73.502s-4.147-3.456-8.295-3.456c-4.147 0-10.138-.922-13.364-1.843-3.226-.922-5.069-1.844-5.069-1.844s10.6-.46 14.747-.46c1.788 0 9.561 4.409 11.797 6.017 2.949 2.121.184 1.586.184 1.586zM148.387 64.977s-4.608-3.687-8.756-3.687c-4.147 0-11.06-2.304-11.06-2.304s5.991.461 10.139 0c2.35-.261 6.528 2.39 8.508 4.136 1.514 1.335 1.17 1.855 1.17 1.855zM144.7 56.221s-5.53-1.843-8.294-2.304c-2.765-.46-4.148-2.765-4.148-2.765s2.995.46 6.682 1.383c3.687.921 5.76 3.686 5.76 3.686zM181.401 163.65s-3.402-20.462-.472-33.47c2.93-13.009 7.108-18.345 14.552-24.447 7.443-6.102 26.571-15.335 26.571-15.335s-26.374 16.036-30.18 23.236c-3.805 7.2-3.069 32.162-4.374 35.33-1.305 3.166-3.157 6.292-4.726 10.139-1.568 3.846-1.371 4.548-1.371 4.548z" style="fill:#507c2e;fill-opacity:1;stroke:none;stroke-width:1px;stroke-linecap:butt;stroke-linejoin:miter;stroke-opacity:1"/>
        <path d="M176.498 145.392s-1.383-12.212.921-19.125c2.304-6.912 5.07-12.442 10.6-19.124 5.53-6.682 23.963-20.046 23.963-20.046S194.009 97.465 189.4 100.23c-4.608 2.765-12.212 10.83-13.825 14.286-3.917 12.443-.922 26.498-.922 26.498z" style="fill:#507c2e;fill-opacity:1;stroke:none;stroke-width:1px;stroke-linecap:butt;stroke-linejoin:miter;stroke-opacity:1"/>
        <path d="M170.968 128.571c0-4.377 1.613-17.742 3.917-21.659 2.304-3.917 9.447-9.677 14.055-13.133 4.608-3.456 12.673-9.908 12.673-9.908s-17.972 8.756-22.58 12.212c-4.609 3.456-7.091 4.468-8.065 8.525-1.383 5.76-2.074 20.968-2.074 20.968z" style="fill:#507c2e;fill-opacity:1;stroke:none;stroke-width:1px;stroke-linecap:butt;stroke-linejoin:miter;stroke-opacity:1"/>
        <path d="M167.281 117.742s0-13.364 1.613-16.36c1.613-2.995 6.912-8.294 8.986-9.447 2.074-1.152 14.747-8.755 14.747-8.755s-19.816 8.064-22.58 10.368c-2.766 2.305-2.996 2.305-4.379 5.991.23 2.765.691 13.825.691 13.825z" style="fill:#507c2e;fill-opacity:1;stroke:none;stroke-width:1px;stroke-linecap:butt;stroke-linejoin:miter;stroke-opacity:1"/>
        <path d="M162.212 102.765s-.922-3.917 1.152-7.834 4.608-6.221 9.217-8.525c4.608-2.305 13.364-7.143 13.364-7.143s-8.295 2.765-12.904 3.917c-4.608 1.152-8.525 3.917-9.677 5.53-1.152 1.613-2.765 9.908-2.765 9.908z" style="fill:#507c2e;fill-opacity:1;stroke:none;stroke-width:1px;stroke-linecap:butt;stroke-linejoin:miter;stroke-opacity:1"/>
        <path d="M158.525 93.779s-.921-4.839.692-7.834c1.612-2.996 6.682-5.76 9.447-6.913 2.765-1.152 7.834-2.995 7.834-2.995s-8.295-.23-12.212 1.613-5.991 3.686-6.452 6.221c-.46 2.535-.46 5.76-.46 5.76zM153.917 80.184s1.613-4.838 3.917-6.451c2.304-1.613 8.986-5.07 8.986-5.07s-6.912.692-8.986 2.074c-2.074 1.383-4.378 7.604-4.378 7.604zM150.691 73.041s1.152-2.765 2.765-4.377c1.613-1.613 7.604-4.148 7.604-4.148s-5.99.922-7.604 1.843c-1.613.922-3.226 5.3-3.226 5.3zM147.696 66.129s.691-2.304 2.304-3.917 5.53-4.378 5.53-4.378-5.76 1.383-6.682 2.765c-.922 1.383-1.383 3.456-1.383 3.456zM144.24 55.76s-.922-2.534.921-4.147c1.844-1.613 3.457-2.995 3.457-2.995s-1.153 3.225-2.074 4.147c-.922.922-2.304 2.995-2.304 2.995z" style="fill:#507c2e;fill-opacity:1;stroke:none;stroke-width:1px;stroke-linecap:butt;stroke-linejoin:miter;stroke-opacity:1"/>
        <path d="M180.07 184.677s-.807-14.17-2.65-25.23c-1.844-11.06-13.826-48.387-18.434-60.83-4.608-12.442-17.28-49.539-17.28-49.539s17.741 42.627 19.584 46.775c1.844 4.147 14.286 42.857 16.13 47.465 1.843 4.608 6.451 29.032 6.451 33.18l.115 8.064z" style="fill:#507c2e;fill-opacity:1;stroke:none;stroke-width:1px;stroke-linecap:butt;stroke-linejoin:miter;stroke-opacity:1"/>
        <path d="M205.76 176.267s1.152-2.304 8.526-3.686c7.373-1.383 26.497-1.844 32.258-.922 5.76.922 17.05 5.3 17.05 5.3s-6.682-4.378-13.364-6.222c-6.682-1.843-22.58-4.378-28.34-3.686-5.761.69-15.208 6.682-15.208 6.682z" style="fill:#6faf3f;fill-opacity:1;stroke:none;stroke-width:1px;stroke-linecap:butt;stroke-linejoin:miter;stroke-opacity:1"/>
        <path d="M210.6 169.355c1.151-.922 7.833-3.917 13.594-4.839 5.76-.922 20.506 1.613 25.345 2.304 4.839.692 15.668 4.378 15.668 4.378s-17.05-7.604-23.272-8.525c-6.22-.922-12.211-3.456-16.82-2.304-4.608 1.152-14.055 6.682-14.055 6.682z" style="fill:#6faf3f;fill-opacity:1;stroke:none;stroke-width:1px;stroke-linecap:butt;stroke-linejoin:miter;stroke-opacity:1"/>
        <path d="M217.281 161.06s8.295-4.608 14.286-3.917c5.99.691 34.562 8.986 34.562 8.986s-20.276-8.756-26.267-10.599-7.834-2.304-10.138-1.383c-2.305.922-10.37 4.609-10.37 4.609z" style="fill:#6faf3f;fill-opacity:1;stroke:none;stroke-width:1px;stroke-linecap:butt;stroke-linejoin:miter;stroke-opacity:1"/>
        <path d="M227.65 152.995s3.456-1.382 8.756-1.152c5.3.23 30.414 9.447 30.414 9.447s-19.355-11.06-24.424-11.52c-5.069-.461-11.06.921-11.06.921z" style="fill:#6faf3f;fill-opacity:1;stroke:none;stroke-width:1px;stroke-linecap:butt;stroke-linejoin:miter;stroke-opacity:1"/>
        <path d="M236.175 147.926s7.143-.691 9.908-.46c2.765.23 22.12 9.907 22.12 9.907s-16.13-11.29-19.816-11.75c-3.687-.462-11.29 1.382-11.29 1.382z" style="fill:#6faf3f;fill-opacity:1;stroke:none;stroke-width:1px;stroke-linecap:butt;stroke-linejoin:miter;stroke-opacity:1"/>
        <path d="M243.779 144.01c1.152-.462 3.456-.922 7.834-.462 4.378.461 17.972 9.908 17.972 9.908s-11.981-11.06-14.285-11.52c-2.305-.461-8.526.46-8.526.46zM253.226 139.631c1.152 0 3.456-.23 5.99.461 2.535.691 11.521 6.913 11.521 6.913s-6.22-7.834-8.986-8.295c-2.765-.461-6.912-.23-6.912-.23zM259.908 136.406s5.53.69 7.604 1.843c2.073 1.152 3.456 2.534 3.456 2.534s-1.383-3.917-3.917-4.377c-2.535-.461-4.839-.461-4.839-.461zM266.59 134.562s3.11-.115 4.954.346c1.843.46 3.456 2.189 3.456 2.189s-.922-2.362-2.189-2.996c-1.267-.633-4.147-.115-4.147-.115z" style="fill:#6faf3f;fill-opacity:1;stroke:none;stroke-width:1px;stroke-linecap:butt;stroke-linejoin:miter;stroke-opacity:1"/>
    </g>
</svg>
