<svg xmlns="http://www.w3.org/2000/svg" width="215" height="58" viewBox="0 0 215 58">
    <g style="transform:matrix(1.04153,0,0,1.04153,-3.9318317,3.4639743)">
        <path d="M6.912 5.281s204.609-1.843 199.54 2.765c-5.07 4.608-44.24 21.66-39.632 21.66 4.609 0 39.632 1.382 41.475 3.686 1.843 2.304-116.13 20.276-134.101 18.894-17.973-1.383-75.576-1.844-70.047-5.53 5.53-3.687 10.139-6.913 8.295-12.443-1.843-5.53-6.451-15.207-5.99-18.894.46-3.686 2.765-6.451 2.765-6.451z" style="fill:#b78941;fill-opacity:1;stroke:none;stroke-width:1px;stroke-linecap:butt;stroke-linejoin:miter;stroke-opacity:1"/>
        <path d="M20.276 15.88s1.844-5.99 7.374-5.99c5.53 0 13.825.921 13.825.921l-27.65-5.99 127.189-2.305S84.793 13.576 83.87 15.42c-.922 1.844 1.382 8.756-2.765 10.6-4.147 1.843-58.525 1.843-58.525 1.843s9.677-5.53 8.755-6.913c-.921-1.382-11.06-5.069-11.06-5.069zM97.696 33.853s3.226-2.765 7.373-3.226c4.148-.461 20.737 1.382 20.737 1.382s-22.58 1.383-19.815 2.765l2.765 1.383-16.59.46z" style="fill:#cc9d55;fill-opacity:1;stroke:none;stroke-width:1px;stroke-linecap:butt;stroke-linejoin:miter;stroke-opacity:1"/>
    </g>
</svg>
