<svg xmlns="http://www.w3.org/2000/svg" width="210" height="55" viewBox="0 0 210 55" version="1.1" id="svg8">
    <g id="layer1">
        <g id="g856" style="transform:matrix(1.00833 0 0 1.03137 .729 .384)">
            <path id="path826" d="M14.792 47.109s7.37-3.591 11.34-6.048c3.968-2.457 9.07-7.182 12.094-10.016C41.25 28.21 45.597 24.24 49 21.406c3.402-2.835.945-4.535.945-4.535s5.291-2.646 13.418-3.97c8.126-1.322 87.501-2.456 92.415-3.59 4.914-1.134 19.844-5.48 29.482-6.615 9.639-1.134 19.68 4.407 19.68 4.407 3.542 10.042 3.755 39.06 3.755 39.06z" style="fill:#ad7a2b;fill-opacity:1;stroke:none;stroke-width:0.26458332px;stroke-linecap:butt;stroke-linejoin:miter;stroke-opacity:1"/>
            <path id="path828" d="M66.575 26.887s1.7-.567 2.834-1.701c1.134-1.134.756-2.835-2.456-3.969-3.213-1.134-7.56-1.7-6.426-2.835 1.134-1.133 62.366-.567 67.28-.567 4.913 0 25.135-5.291 27.025-3.023 1.89 2.268-.189 12.85 1.512 16.253 1.7 3.401 4.914 8.882 6.615 10.772 1.7 1.89 3.023 4.725 3.023 4.725l-102.053.567s4.536-8.316 4.725-11.907c.189-3.59-4.347.567-5.67 2.457-1.323 1.89-6.993 7.182-10.205 8.127-3.213.945-5.67 1.512-5.67 1.512l-8.694-.378s16.82-10.017 21.734-13.796c4.914-3.78 6.426-6.237 6.426-6.237z" style="fill:#956925;fill-opacity:1;stroke:none;stroke-width:0.26458332px;stroke-linecap:butt;stroke-linejoin:miter;stroke-opacity:1"/>
            <path id="path840" d="M155.966 30.1l5.48 8.504 2.647 4.725 2.267-3.402 1.701.756s-2.079-2.079-2.079-3.78v-1.7l6.993 6.425-3.78 7.37s-16.442 3.024-17.387 3.213c-.945.19-13.418-3.968-13.418-3.968s-7.748.567-6.425-.756c1.322-1.323 10.96-3.402 15.308-5.859 4.346-2.457 8.693-11.528 8.693-11.528z" style="fill:#bb842e;fill-opacity:1;stroke:none;stroke-width:0.26458332px;stroke-linecap:butt;stroke-linejoin:miter;stroke-opacity:1"/>
            <path id="path830" d="M126.862 21.028c.945 0 5.48 0 8.882-1.323 3.402-1.323 9.26-3.212 9.828-2.456.567.755-3.402 6.803-4.158 7.937-.756 1.134-1.323 8.126-2.835 7.938-1.512-.19.756-7.182-.567-6.426-1.323.756-4.347 6.048-4.347 4.914 0-1.134-5.67-7.56-7.37-7.749-1.701-.189-5.48 3.969-5.859 2.835-.378-1.134 6.426-5.67 6.426-5.67z" style="fill:#7f5920;fill-opacity:1;stroke:none;stroke-width:0.26458332px;stroke-linecap:butt;stroke-linejoin:miter;stroke-opacity:1"/>
            <path id="path844" d="M31.99 37.66s-3.969 3.212-9.072 3.212c-5.102 0-10.772.189-12.095 1.512-1.323 1.323-3.59 2.268-3.59 2.268l17.953-.567 5.67-2.08z" style="fill:#bb842e;fill-opacity:1;stroke:none;stroke-width:0.26458332px;stroke-linecap:butt;stroke-linejoin:miter;stroke-opacity:1"/>
            <path id="path832" d="M50.7 18.193s3.78-.189 5.67-.944c1.89-.756 9.26-2.08 13.228-2.646 3.97-.567 19.655-.756 21.923-1.323 2.268-.567 5.292-1.89 1.89-1.89s-26.647.378-29.293.945c-2.646.567-13.607 3.59-14.363 3.969-.756.378 2.457.567.756 3.023-1.701 2.457-19.088 17.387-22.868 19.277-3.78 1.89-10.961 5.48-13.985 6.615-3.024 1.134-13.04 2.268-13.04 2.268s20.41.945 24.38-1.323c3.968-2.268 4.157-1.134 5.291 0 1.134 1.134 1.7 1.89 3.213 1.134 1.512-.756.378-4.725 2.835-8.883 2.456-4.158 15.686-18.52 15.686-18.52z" style="fill:#be9049;fill-opacity:1;stroke:none;stroke-width:0.26458332px;stroke-linecap:butt;stroke-linejoin:miter;stroke-opacity:1"/>
            <path id="path836" d="M74.512 47.298s2.457-2.835 4.347-4.158c1.89-1.323 3.59-3.78 5.292-4.158 1.7-.378.756 1.89 2.267 3.59 1.512 1.702 14.93 4.726 14.93 4.726l-24.19.189z" style="fill:#ad7a2b;fill-opacity:1;stroke:none;stroke-width:0.26458332px;stroke-linecap:butt;stroke-linejoin:miter;stroke-opacity:1"/>
            <path id="path834" d="M56.18 47.298s.378-1.134 2.268-1.701c1.89-.567 13.04 1.512 16.253 1.134 3.213-.378 4.536-1.701 7.56-.945 3.023.756 18.71 2.079 18.71 2.079z" style="fill:#be9049;fill-opacity:1;stroke:none;stroke-width:0.26458332px;stroke-linecap:butt;stroke-linejoin:miter;stroke-opacity:1"/>
            <path id="path842" d="M178.834 19.138s1.89 11.907 3.401 14.363c1.512 2.457 4.536 5.86 4.536 5.86l-.945-6.237s2.835 5.858 4.914 7.937c2.079 2.079 5.103 6.237 5.103 6.237l-7.938.567s-10.394-4.725-12.851-6.426c-2.457-1.7.756-20.978 2.079-22.868 1.323-1.89 1.7.567 1.7.567z" style="fill:#bb842e;fill-opacity:1;stroke:none;stroke-width:0.26458332px;stroke-linecap:butt;stroke-linejoin:miter;stroke-opacity:1"/>
            <path id="path838" d="M193.953 46.164s-1.89 1.323-9.072-1.701c-7.181-3.024-20.788-11.34-20.788-11.34s-.19 1.323 1.322 2.835 3.78 4.158 3.78 4.158l-3.402-.945s.945 3.59 0 5.103c-.945 1.512-1.322-2.268-2.834-1.89-1.512.378-11.15 4.725-11.15 4.725l33.828.189 9.072-1.134z" style="fill:#be9049;fill-opacity:1;stroke:none;stroke-width:0.26458332px;stroke-linecap:butt;stroke-linejoin:miter;stroke-opacity:1"/>
        </g>
    </g>
</svg>
