<svg width="52" height="52" xmlns="http://www.w3.org/2000/svg" viewBox="0 0 52 52">
    <path d="M25.461.795c-.915 4.016-1.08 4.79-2.136 8.208-1.172 1.842-3.385 5.015-6.846 5.472 1.41.511 3.081.999 4.474.745l-3.802 1.054a5.408 5.408 0 001.083.285c.752.209 1.294.52 1.947.62-3.47 2.574-6.968 4.8-9.406 3.907 1.093.472 2.327.706 3.62.8-1.772 1.168-3.631 2.04-5.47 2.38.067.06.135.113.203.172 1.892-.212 3.611-.605 4.734-1.167l.923-.626c-.226.229-.543.436-.923.626l-3.351 2.27a18.894 18.894 0 004.594 2.466c-3.087 3.308-6.514 5.612-10.077 7.511 2.648-.375 5.523-1.095 7.825-1.57-.983.726-3.359 1.893-5.913 3.033.027.014.055.025.083.039l4.625-1.257-2.743 1.895c.774.154 1.576.203 2.4.18-2.36 3.248-7.62 4.711-10.771 6.946 1.881 1.434 7.731 3.007 11.451 2.715l-6.15 1.317c6.536.122 11.289-.384 14.71-1.25-.603 1.084-1.48 2.146-1.608 3.18 3.517-1.531 5.522-3.07 7.163-4.61 3.355 3.869 12.34 3.797 15.95 2.36-3.145-.846-2.585-1.116-5.065-1.656 7.664.714 14.176.012 14.399-1.298-3.748-2.272-6.913-4.781-9.626-7.65 1.393-.27 2.895-.75 4.547-1.529l-3.528-2.547c1.708.926 3.544 1.45 5.487 1.521.3-.173.603-.35.914-.543-4.22-1.606-7.77-3.535-11-6.199a31.92 31.92 0 001.695-.877l-2.738-1.95 5.15.514c.103-.065.213-.139.317-.206l-5.148-1.203 5.971.668c.478-.317.968-.648 1.477-1.004-4.141-.95-7.051-2.11-9.207-3.404 1.335-.721 2.669-1.456 4.03-2.007-4.109-.14-6.544-.882-8.424-1.84l-.01-.014c.965-.281 1.97-.725 2.977-1.327l-1.592-.842c.96.256 2.091-.046 3.243-.6-6.173-2.856-8.524-8.69-10.458-13.708z" style="fill:teal"/>
    <path d="M23.866 7.134c-1.14 3.12-3.814 6.003-7.698 7.368 3.273.773 5.82.241 7.242-.922-.35 0-.728-.017-1.15-.06 1.075-.37 1.75-.76 2.253-1.297l.042-.09a4.966 4.966 0 01-1.558.435c1.036-.5 1.647-2.993.87-5.434zm6.872 8.218c.192.702.388 1.51.931 1.796.788-.26 1.599-.63 2.412-1.098-1.244.015-1.625-.143-3.343-.698zm-7.309.429c-1.884.392-4.44.555-6.26.54a5.518 5.518 0 001.048.273c.751.208 1.293.52 1.947.62a64.37 64.37 0 01-1.626 1.169c.711-.058 1.46-.186 1.882-.254.02 1.066.048 1.194-.43 1.918 2.341-1.135 2.318-2.435 3.44-4.266zm5.039 5.013c.837 1.41.573 1.863 4.216 4.998a11.18 11.18 0 01-.135-1.11c.54.7 1.313 1.46 2.445 2.263-.61-1.272-.752-1.344-.491-3.073.81.798 2.64 1.115 4.329 1.206l.598.066c1.82-.006 2.781.374 5.472-.607-4.8-1.141-6.887-2.022-8.97-3.265-1.774.045-3.23.044-4.687-.35.056.504.052 1.24.388 2.145-.804-.328-1.938-1.132-3.165-2.273zm-17.622.327c1.072.447 2.274.674 3.533.766-1.772 1.167-3.63 2.04-5.47 2.378.068.06.136.114.203.173 1.893-.212 3.612-.605 4.734-1.167l.511-.347-.156-.015c.398-.253 1.272-.732 2.146-1.202-1.665-.098-3.205-.204-4.618-.427a3.404 3.404 0 01-.83-.149l-.053-.01zm3 2.15l-3.35 2.27a18.876 18.876 0 004.35 2.371 15.32 15.32 0 001.632-.815c-.193 1.198-.554 2.476-1.136 3.218 2.75-1.067 6.14-3.312 7.796-7.294-1.163.623-2.567 1.356-3.44 1.425a12.59 12.59 0 001.176-1.606c-2.415.407-4.638.28-6.452.091a4.49 4.49 0 01-.576.34zm1.65 5.186c-2.156 1.144-4.485 2.394-6.688 2.269.81.685 1.208 1.164 1.54 1.484-1.725 1.251-3.599 2.139-5.32 3.308 2.478-.153 5.523-1.095 7.825-1.57-.983.726-3.359 1.893-5.913 3.033.027.014.055.025.083.039l4.625-1.257-2.743 1.895c.774.154 1.576.203 2.4.18-2.36 3.248-7.62 4.711-10.771 6.946 1.881 1.434 7.731 3.007 11.451 2.715l-6.15 1.317c6.022.113 10.527-.309 13.874-1.052l.012-.003c.281-.063.558-.127.823-.194-.602 1.083-1.478 2.145-1.607 3.179.255-.112.5-.223.741-.334l.12-.057a30.778 30.778 0 001.243-.618l.12-.062c.194-.104.384-.209.568-.313l.023-.012a21.916 21.916 0 004.348-3.213c3.345 3.856 12.284 3.796 15.915 2.372-8.083-1.196-14.827-5.523-14.092-12.118-1.774.929-1.16.823-4.08 1.481.376-.744 1.143-2.065 1.25-3.44-1.385 1.222-3.081 2.887-5.13 3.192l2.713-6.735c-5.624 1.218-8.89 1.614-10.742 1.513 1.474-1.16 2.255-1.408 3.562-3.945zm14.976.296c1.393 1.389 8.118 3.527 11.797 3.527-.166-.424-.424-.813-.658-1.198a33.808 33.808 0 01-3.231-2.323c-.547.068-1.191.123-2.692.081l1.196.735c-3.097.088-3.364-.296-6.412-.822z" style="fill:#2e6161"/>
</svg>
