<svg width="52" height="52" xmlns="http://www.w3.org/2000/svg" viewBox="0 0 52 52">

 <metadata id="metadata5">image/svg+xml</metadata>
 <g>
  <title>Невысокая елка</title>
  <g display="inline" id="layer1">
   <g id="g7377">
    <path fill="#008080" d="m25.461057,0.794696c-0.91487,4.01647 -1.08036,4.79042 -2.13574,8.20864c-1.17247,1.84168 -3.38535,5.01494 -6.84597,5.47152c1.40939,0.51137 3.08107,0.99888 4.47363,0.74518l-3.80236,1.05368c0.52657,0.2078 1.08366,0.28577 1.08366,0.28577c0.75147,0.20809 1.2936,0.51929 1.94716,0.61908c-3.47133,2.57466 -6.96849,4.80047 -9.40665,3.90778c1.09331,0.47121 2.32753,0.70582 3.61993,0.80046c-1.77175,1.16671 -3.63068,2.03925 -5.47047,2.37867c0.06786,0.06017 0.13576,0.11338 0.20361,0.17208c1.89248,-0.21131 3.61135,-0.60476 4.73408,-1.16685l0.92294,-0.62529c-0.22563,0.22809 -0.54321,0.43518 -0.92294,0.62529l-3.35122,2.27118c1.54557,1.12398 3.08304,1.90517 4.59455,2.46496c-3.08757,3.30855 -6.51413,5.6118 -10.0769,7.51117c2.64732,-0.37481 5.52236,-1.09467 7.82484,-1.56993c-0.98324,0.72551 -3.35898,1.8931 -5.91282,3.03289c0.02707,0.01413 0.05499,0.02506 0.08217,0.03876l4.62556,-1.25625l-2.74298,1.89497c0.77355,0.15373 1.57572,0.20288 2.39933,0.17932c-2.36005,3.24843 -7.61967,4.71134 -10.77092,6.94635c1.88173,1.4341 7.73142,3.0069 11.4515,2.71508l-6.14949,1.31723c6.53584,0.12189 11.28812,-0.38425 14.70866,-1.24954c-0.60218,1.08288 -1.47861,2.14479 -1.60766,3.17862c3.51719,-1.53047 5.52209,-3.06889 7.16339,-4.60902c3.35516,3.86821 12.33922,3.79653 15.94942,2.35979c-3.14472,-0.84615 -2.58426,-1.1162 -5.06429,-1.65648c7.6643,0.71406 14.17584,0.01209 14.3986,-1.29759c-3.74792,-2.27197 -6.91312,-4.78155 -9.62525,-7.6507c1.39295,-0.26902 2.89453,-0.75018 4.54649,-1.52807l-3.52743,-2.54765c1.70707,0.92625 3.5435,1.45021 5.48649,1.52136c0.30031,-0.17287 0.60333,-0.35099 0.91363,-0.54364c-4.22033,-1.60595 -7.77012,-3.53423 -10.99984,-6.19807c0.536,-0.25535 1.10271,-0.55018 1.69498,-0.87746l-2.7373,-1.94976l5.14956,0.51418c0.10275,-0.06511 0.21262,-0.13932 0.31678,-0.20619l-5.14749,-1.20303l5.97069,0.66818c0.47819,-0.31709 0.9678,-0.64866 1.47691,-1.00407c-4.14101,-0.94957 -7.05091,-2.11038 -9.20667,-3.40393c1.33526,-0.72154 2.66842,-1.45603 4.02921,-2.00711c-4.1082,-0.13984 -6.54353,-0.88213 -8.42377,-1.84071c-0.0035,-0.0045 -0.0068,-0.009 -0.01035,-0.01344c0.96582,-0.28157 1.97076,-0.72543 2.97759,-1.32706l-1.59215,-0.84232c0.95953,0.25667 2.0915,-0.04563 3.24322,-0.59996c-6.17289,-2.85593 -8.5244,-8.6906 -10.45792,-13.70806l0,-0.00001z" id="path12"/>
    <path fill="#2e6161" d="m23.866487,7.133706c-1.14126,3.12043 -3.81493,6.0034 -7.69875,7.36803c3.2729,0.77325 5.81953,0.24136 7.24193,-0.9214c-0.34901,0.00037 -0.72777,-0.01695 -1.15031,-0.06046c1.0756,-0.36925 1.75002,-0.75905 2.25361,-1.29708c0.01508,-0.02895 0.02738,-0.05957 0.04186,-0.08888c-0.51466,0.22841 -1.03394,0.38504 -1.55805,0.43408c1.0362,-0.49941 1.64747,-2.99349 0.86972,-5.43429l-0.00001,0zm6.87193,8.2181c0.1916,0.70236 0.38806,1.51107 0.9307,1.79628c0.78771,-0.25917 1.59845,-0.62956 2.41174,-1.09761c-1.24401,0.01453 -1.62484,-0.14387 -3.34244,-0.69867zm-7.30911,0.42892c-1.88445,0.39243 -4.4394,0.55491 -6.2606,0.5395c0.51566,0.19733 1.048,0.27388 1.048,0.27388c0.75147,0.2081 1.29361,0.51929 1.94717,0.61909c-0.54297,0.40271 -1.08618,0.79439 -1.62626,1.16943c0.7115,-0.0578 1.46112,-0.18559 1.88205,-0.25373c0.02072,1.06571 0.04792,1.19436 -0.42994,1.91823c2.34143,-1.13463 2.31809,-2.43466 3.43958,-4.2664zm5.03845,5.01313c0.83771,1.40927 0.5736,1.86305 4.21577,4.99814c-0.07605,-0.47135 -0.11619,-0.82057 -0.13488,-1.11053c0.53972,0.70078 1.31321,1.45963 2.44584,2.26343c-0.61119,-1.27236 -0.75238,-1.34403 -0.49144,-3.07319c0.81066,0.79825 2.64047,1.11536 4.32894,1.20612l0.59789,0.06666c1.82079,-0.0063 2.78122,0.37399 5.47202,-0.60719c-4.80058,-1.14137 -6.88732,-2.02269 -8.97051,-3.26544c-1.77295,0.04508 -3.23023,0.04419 -4.68602,-0.35036c0.05602,0.50415 0.05211,1.24016 0.38757,2.1456c-0.80361,-0.32777 -1.93818,-1.1318 -3.16518,-2.27325l0,0.00001zm-17.62166,0.32711c1.07192,0.44699 2.27439,0.67367 3.53312,0.76584c-1.77176,1.16671 -3.63068,2.03925 -5.47047,2.37867c0.06786,0.06017 0.13576,0.11338 0.20361,0.17208c1.89248,-0.21131 3.61134,-0.60476 4.73407,-1.16685l0.51056,-0.34623c-0.05099,-0.0054 -0.10522,-0.01003 -0.15554,-0.0155c0.39804,-0.2533 1.27189,-0.73173 2.14509,-1.202c-1.66503,-0.09828 -3.20443,-0.20394 -4.61781,-0.42684c-0.28771,-0.01617 -0.56416,-0.06578 -0.82941,-0.14883c-0.01767,-0.0036 -0.0356,-0.0067 -0.05323,-0.01034l0.00001,0zm3.00033,2.14974l-3.35121,2.27118c1.46292,1.06387 2.9184,1.81779 4.35167,2.3704c0.55875,-0.23984 1.10341,-0.51029 1.63091,-0.81546c-0.19259,1.19795 -0.55419,2.47634 -1.13534,3.21789c2.74985,-1.06638 6.1386,-3.31141 7.79591,-7.29361c-1.16323,0.62304 -2.56755,1.35634 -3.4401,1.42472c0.41863,-0.48626 0.81265,-1.01805 1.17564,-1.6061c-2.41492,0.40736 -4.6384,0.2808 -6.4518,0.09147c-0.16944,0.11891 -0.36123,0.23215 -0.57568,0.33951zm1.64951,5.18625c-2.15548,1.14448 -4.48486,2.39437 -6.68796,2.26859c0.80977,0.68511 1.20823,1.16453 1.53996,1.48415c-1.72446,1.25127 -3.59852,2.13883 -5.31957,3.30832c2.47777,-0.15265 5.52236,-1.09467 7.82484,-1.56993c-0.98324,0.72551 -3.35898,1.8931 -5.91282,3.03289c0.02707,0.01413 0.05498,0.02506 0.08217,0.03876l4.62556,-1.25625l-2.74299,1.89497c0.77356,0.15373 1.57573,0.20288 2.39934,0.17932c-2.36005,3.24843 -7.61967,4.71134 -10.77092,6.94635c1.88173,1.4341 7.73141,3.0069 11.4515,2.71508l-6.14949,1.31723c6.0216,0.1123 10.52599,-0.30905 13.87305,-1.05265c0.0043,-0.00095 0.0081,-0.0022 0.0124,-0.0031c0.28148,-0.06266 0.55795,-0.12669 0.82321,-0.19379c-0.60219,1.08288 -1.47862,2.1448 -1.60766,3.17862c0.25586,-0.11134 0.50126,-0.22242 0.74156,-0.33383c0.04056,-0.0188 0.07925,-0.038 0.11937,-0.0568c0.19531,-0.0915 0.3861,-0.18281 0.57154,-0.2744c0.04989,-0.0247 0.09912,-0.0492 0.14831,-0.0739c0.17903,-0.0897 0.35383,-0.17951 0.524,-0.26923c0.03957,-0.0209 0.07975,-0.0417 0.11886,-0.0625c0.19507,-0.10407 0.38499,-0.20851 0.56896,-0.31264c0.0074,-0.004 0.01534,-0.008 0.02274,-0.0124c0.00016,-0.00016 0.00034,-0.00036 0.00051,-0.00052c1.88351,-1.06874 3.20459,-2.14022 4.34754,-3.21272c3.34507,3.85659 12.28385,3.79617 15.91531,2.37194c-8.08302,-1.19601 -14.82696,-5.52242 -14.09268,-12.1176c-1.77398,0.92887 -1.15982,0.82303 -4.07882,1.48105c0.37546,-0.74423 1.14194,-2.06477 1.2485,-3.44062c-1.3838,1.22314 -3.08032,2.88803 -5.1294,3.19309l2.71301,-6.73499c-5.62381,1.21781 -8.89024,1.61307 -10.74146,1.51257c1.47374,-1.15922 2.25478,-1.40764 3.56154,-3.94498l-0.00001,-0.00008zm14.97635,0.29602c1.39291,1.38882 8.11798,3.52743 11.79669,3.52743c-0.16633,-0.42414 -0.42399,-0.81344 -0.65784,-1.19837c-1.11828,-0.70864 -2.19182,-1.47837 -3.23133,-2.32286c-0.54686,0.06827 -1.19105,0.12259 -2.69182,0.08113l1.19579,0.73484c-3.09657,0.08747 -3.36403,-0.29609 -6.41149,-0.82209l0,-0.00008z" id="path12-3"/>
   </g>
  </g>
 </g>
</svg>
