<svg width="55" height="76" xmlns="http://www.w3.org/2000/svg" viewBox="0 0 55 76">
    <path d="M16.553 3.32c-4.918-.082-7.937 5.38-7.644 7.827-9.196.102-9.961 9.76-6.174 13.283-3.298 5.144-2.827 8.62 3.93 9.729-4.462 8.784 2.93 11.518 9.433 10.28l-1.022 1.626c6.939.349 7.076-2.93 8.213-5.69.243-.369.443-.757.587-1.165 3.462.65 6.567.55 7.173-1.59 1.472.165 3.72-.085 5.596-.258-1.1-.611-1.813-.856-2.29-1.274 7.217 1.217 14.46-4.136 14.408-8.217 1.316-.308 2.618-1.19 3.535-1.673-4.132-.424-5.635-1.75-7.658-3.305 2.611-2.856 4.084-5.895-2.99-7.07-1.69-3.963-4.692-2.683-7.858-.747.49-7.568-3.11-9.955-10.103-8.045-2.646-2.655-5.06-3.678-7.136-3.712zm27.672 20.018c.048.232.1.455.153.666a13.822 13.822 0 00-.67-.136c.174-.175.347-.352.517-.53zM30.8 34.907l.002.001-.001.002-.001-.003z" style="fill:#536c5d"/>
    <path d="M26.934 27.197l-3.969.265c-2.02 19.334-5.551 37.028-15.61 47.625l10.318.264c4.606-6.486 7.043-14.053 8.253-26.272 1.572-1.378 3.897-3.733 7.313-7.469-.652.273.651-3.702 1.81-7.476l-.363.136c-2.692 6.107-6.065 9.653-8.474 11.542.409-5.306.63-11.426.722-18.615z" style="fill:#f6ffd5"/>
    <path d="M20.293 62.992c-.665 1.115-4.928 7.497-3.568 3.171-.85.795-2.098 1.48-3.639.97-1.632 2.954-3.522 5.627-5.731 7.954l10.318.264c2.288-3.222 4.039-6.713 5.372-10.904-.16-.398-.326-.83-.503-1.323 0 0-1.314 7.164-2.25-.132zm.697-6.22c1.948-.457 3.28-.506 3.571-.488-1.733-1.764-2.617-.657-3.571.488zm1.252-2.236c-.478.145-2.033 1.006-4.322.851a78.752 78.752 0 01-.546 1.728c1.346.132 2.91-.544 4.868-2.58zm4.2-12.101c-.92.579-1.87 1.16-3.516 1.45 1.398.486 2.376.013 3.432-.136.029-.434.057-.869.084-1.314z" style="fill:#483737"/>
    <path d="M26.934 27.197l-3.969.265c-2.02 19.334-5.551 37.028-15.61 47.625l10.318.264a37.463 37.463 0 003.107-5.22c-3.474-12.108-.46-28.347 6.091-39.393.024-1.161.047-2.32.063-3.54z" style="fill:#333;opacity:.6"/>
    <path d="M35.078.543c-1.985.024-4.323.362-6.982.985-7.948-1.643-17.258-.123-16.277 9.354-9.325 7.504-4.525 12.78-3.486 13.416-1.022.982-1.792 2.08-2.295 3.188.361 1.163.285 2.046-.172 3.25-.074-.153-.274-.376-.51-.655-.2 2.947 1.775 5.29 6.254 4.652-.368 8.928 8.476 8.147 12.183.658 7.823.137 8.804-2.01 9.358-7.4 3.186 1.55 5.346 2.317 8.977-3.638 7.225 3.74 11.538-.197 9.729-3.555 4.793-.588 1.812-5.403 1.812-5.403 1.75-7.812-5.333-9.582-10.793-8.442.049-4.49-2.724-6.473-7.798-6.41z" style="fill:#cdde87"/>
    <path d="M7.795 15.091a10.638 10.638 0 00-1.185 2.272c-.04.111-.08.222-.113.331l-.016.05c-1.126 3.725 1.17 6.137 1.852 6.554-1.022.981-1.792 2.08-2.295 3.188.361 1.163.285 2.046-.172 3.25-.074-.153-.273-.376-.51-.655-.2 2.947 1.775 5.29 6.254 4.652-.278 6.729 4.677 7.938 8.723 4.92a42.609 42.609 0 00-.339 2.223c2.033-1.595 3.475-3.322 4.21-5.075.184.385.832.966 1.496 1.427-.01-1.524.53-2.383 1.146-2.932 5.05-.48 5.833-2.716 6.305-7.305 3.186 1.55 5.346 2.317 8.977-3.638 3.762 1.948 6.731 1.81 8.461.76.11-.08.21-.165.29-.257-2.93-1.278-4.022-4.117-3.241-6.383-10.84 7.135-20.75 8.666-21.677 5.888-2.044 2.41-4.148 2.858-6 2.23.348.403.67.7.954.838-.298.033-8.662.38-6.654-7.448-5.408 1.355-6.524-.726-6.466-4.89zm39.36 6.54c.844 1.198 1.031 1.391 1.243 2.332 0 0-1.904-.446-1.243-2.331zm-.666 1.99c1.27.054 1.567.257 3.327 1.095-2.269 1.346-3.327-1.095-3.327-1.095z" style="fill:#849a6e"/>
</svg>
