<svg width="55" height="76" xmlns="http://www.w3.org/2000/svg" viewBox="0 0 55 76">

 <metadata id="metadata5">image/svg+xml</metadata>
 <g>
  <title>Берёза</title>
  <g display="inline" id="layer1">
   <g id="g7388">
    <path fill="#536c5d" id="path373" d="m16.552501,3.319195c-4.917043,-0.08119 -7.936505,5.380622 -7.64346,7.827431c-9.196168,0.102092 -9.961422,9.760915 -6.173782,13.283427c-3.297844,5.144384 -2.827065,8.62086 3.928956,9.728605c-4.461063,8.784714 2.931147,11.518381 9.434052,10.280509l-1.022678,1.62574c6.939172,0.34888 7.076779,-2.930829 8.213453,-5.690092c0.243284,-0.368577 0.443174,-0.756417 0.587044,-1.164788c3.462308,0.649057 6.566709,0.550048 7.173206,-1.589566c1.471329,0.164237 3.719629,-0.08511 5.595797,-0.258242c-1.099619,-0.611182 -1.812777,-0.85598 -2.28954,-1.273963c7.216022,1.2163 14.460322,-4.136038 14.407392,-8.217069c1.31565,-0.308676 2.61793,-1.190273 3.53466,-1.672768c-4.13205,-0.424719 -5.63488,-1.751308 -7.65793,-3.305741c2.61178,-2.855931 4.08471,-5.894601 -2.98999,-7.06882c-1.690532,-3.964283 -4.691831,-2.6842 -7.857404,-0.748273c0.489583,-7.567369 -3.11079,-9.954895 -10.10326,-8.044987c-2.646259,-2.65476 -5.060431,-3.677124 -7.136516,-3.711403zm27.67273,20.018933c0.048,0.231939 0.099,0.454456 0.15245,0.665594c-0.21552,-0.04855 -0.43646,-0.09474 -0.66973,-0.135393c0.17448,-0.175109 0.34693,-0.352292 0.51728,-0.530201zm-13.426571,11.568803c0.000794,0.000529 0.0019,0.000529 0.0026,0.0011c-0.000529,0.000265 -0.0011,0.0011 -0.0016,0.0016c-0.000264,-0.000794 -0.000793,-0.0016 -0.0011,-0.0026l0.0001,-0.0001z"/>
    <path fill="#f6ffd5" d="m26.93378,27.197325l-3.96875,0.264583c-2.020879,19.334342 -5.550998,37.028202 -15.610416,47.624997l10.31875,0.26459c4.605554,-6.48668 7.042147,-14.053673 8.252208,-26.272819c1.572128,-1.378112 3.89777,-3.732866 7.31325,-7.468278c-0.652211,0.272381 0.651137,-3.702592 1.809708,-7.476029l-0.362252,0.135392c-2.692244,6.107211 -6.065308,9.653694 -8.4739,11.541932c0.408638,-5.305356 0.629063,-11.42533 0.721402,-18.614368z" id="path218"/>
    <path fill="#483737" id="path218-3" d="m20.292842,62.992039c-0.665046,1.115263 -4.928045,7.497283 -3.568258,3.171383c-0.850128,0.794152 -2.097551,1.47959 -3.638537,0.968933c-1.631606,2.954687 -3.522379,5.62749 -5.731433,7.95455l10.31875,0.26459c2.287709,-3.222116 4.038385,-6.713142 5.371763,-10.904248c-0.160318,-0.398584 -0.326596,-0.830691 -0.503327,-1.322917c0,0 -1.313519,7.164168 -2.248958,-0.132291z"/>
    <path fill="#483737" id="path253-5" d="m20.989615,56.77244c1.94868,-0.457621 3.28116,-0.506668 3.57176,-0.488199c-1.73309,-1.764515 -2.61738,-0.656957 -3.57176,0.488199z"/>
    <path fill="#483737" d="m22.242025,54.535631c-0.47847,0.145108 -2.03282,1.006546 -4.321702,0.851628c-0.177056,0.581596 -0.358833,1.157737 -0.546735,1.727544c1.346113,0.131873 2.910437,-0.543608 4.868437,-2.579172z" id="path218-9"/>
    <path fill="#483737" d="m26.441595,42.435197c-0.91925,0.578826 -1.86885,1.159064 -3.51555,1.450557c1.39772,0.485115 2.37629,0.0127 3.43235,-0.136427c0.0285,-0.434555 0.057,-0.86889 0.0832,-1.31413z" id="path218-6"/>
    <path opacity="0.6" fill="#333333" d="m26.933785,27.197325l-3.96875,0.264583c-2.02088,19.334343 -5.551002,37.028202 -15.610421,47.624997l10.31875,0.26458c1.171697,-1.65027 2.200148,-3.37318 3.106791,-5.221382c-3.473768,-12.106936 -0.46076,-28.346283 6.0911,-39.392425c0.0233,-1.160661 0.0469,-2.319605 0.0625,-3.540353l0.00003,0z" id="path218-1"/>
    <path fill="#cdde87" id="path349" d="m35.077986,0.542621c-1.985333,0.02442 -4.322797,0.361989 -6.981486,0.984953c-7.948369,-1.642118 -17.258319,-0.122298 -16.277043,9.354468c-9.325152,7.503671 -4.525658,12.78009 -3.486607,13.415719c-1.022168,0.981837 -1.791692,2.080313 -2.294951,3.187917c0.361275,1.162971 0.285353,2.046121 -0.171567,3.250449c-0.07456,-0.152895 -0.273835,-0.375989 -0.511079,-0.654741c-0.19898,2.946686 1.776206,5.289333 6.254398,4.651396c-0.367739,8.927759 8.476072,8.147362 12.183753,0.657842c7.82248,0.137768 8.803314,-2.009863 9.358084,-7.399549c3.185999,1.549413 5.345314,2.316829 8.976713,-3.638537c7.22446,3.741134 11.53776,-0.196906 9.72861,-3.554823c4.79361,-0.588131 1.81177,-5.40277 1.81177,-5.40277c1.74962,-7.811984 -5.33263,-9.58215 -10.7921,-8.441862c0.0482,-4.490357 -2.724869,-6.472888 -7.798495,-6.410462z"/>
    <path fill="#849a6e" id="path349-3" d="m7.794896,15.091087c-0.537871,0.796718 -0.921025,1.555686 -1.184939,2.272212c-0.03957,0.110887 -0.07956,0.222044 -0.113173,0.33073c-0.0053,0.01635 -0.01087,0.03279 -0.01601,0.04909c-1.125974,3.725913 1.170882,6.13792 1.852083,6.554639c-1.02204,0.981716 -1.791687,2.080482 -2.294951,3.187917c0.361276,1.162971 0.285354,2.046121 -0.171566,3.250449c-0.07456,-0.152895 -0.273836,-0.375989 -0.51108,-0.654741c-0.198982,2.946559 1.776206,5.289333 6.254398,4.651396c-0.277177,6.729159 4.677826,7.938492 8.722982,4.920628c-0.11748,0.653336 -0.231235,1.374842 -0.338481,2.222606c2.032521,-1.594945 3.475222,-3.321727 4.209563,-5.075142c0.184229,0.384982 0.832429,0.96619 1.496549,1.426784c-0.0094,-1.524145 0.529437,-2.382914 1.146183,-2.931602c5.048763,-0.479139 5.832726,-2.716445 6.305031,-7.304981c3.185999,1.549413 5.345314,2.316829 8.976716,-3.638537c3.76193,1.94809 6.73119,1.81134 8.46098,0.761193c0.11076,-0.08018 0.2093,-0.165341 0.28939,-0.25735c-2.93007,-1.278575 -4.02172,-4.117369 -3.24063,-6.383073c-10.839032,7.135122 -20.750664,8.665623 -21.676714,5.887498c-2.044057,2.410997 -4.148225,2.858233 -6.000152,2.230353c0.348033,0.40314 0.670412,0.698939 0.953431,0.837676c-0.297624,0.03294 -8.661291,0.379608 -6.653858,-7.448124c-5.407858,1.354823 -6.523616,-0.725331 -6.465755,-4.889624l0.000003,0.000003zm39.360385,6.540685c0.84362,1.196798 1.03105,1.390721 1.24282,2.331641c0,0 -1.90428,-0.446482 -1.24282,-2.331641zm-0.6661,1.989026c1.26916,0.05417 1.56697,0.257636 3.32641,1.095542c-2.26844,1.34539 -3.32641,-1.095542 -3.32641,-1.095542z"/>
   </g>
  </g>
 </g>
</svg>
