<svg width="67" height="33" xmlns="http://www.w3.org/2000/svg" viewBox="0 0 67 33">
 <metadata id="metadata5">image/svg+xml</metadata>

 <g>
  <title>Островок сухой травы</title>
  <g id="layer1" display="inline">
   <g id="g151">
    <path d="m1.78382,1.46492c-0.22991,1.32066 3.31234,27.04594 1.68362,30.86943l58.74628,-0.97978c3.41427,-9.77536 3.08155,-19.17725 2.80603,-20.20549c-0.69085,2.10709 -3.12453,6.39108 -5.79655,7.59282c0.15934,-3.87126 -1.90942,-8.77786 -3.18378,-10.72906c-0.1283,6.08176 -0.97707,8.70522 -1.49655,12.90929c0.24942,-6.36103 1.12395,-15.59751 0.74827,-19.08307c-2.33583,5.1476 -5.3976,9.56926 -9.35446,13.09584l-0.93535,-3.74138l-2.61948,7.2962c0.94664,-3.84595 0.51085,-12.39337 0.37414,-12.90929c-2.42238,4.68929 -4.68071,11.08972 -4.67671,17.02532c-0.27744,-4.26388 -4.57392,-8.7014 -6.34281,-10.06776c0.85795,2.12771 2.18375,5.29426 2.90496,7.8458c-0.43737,-0.77862 -1.59909,-1.7251 -2.54458,-2.87209c2.22829,12.85935 2.21793,12.62721 -0.58358,0.02098l-10.27224,-11.01638c-5.13871,12.75161 -3.92495,14.33834 -3.05976,0.87953c-2.64832,7.25062 -2.24471,5.23816 -3.36724,7.8574c1.56033,-4.03187 2.38205,-9.69154 2.34404,-12.11605c-1.58436,2.43779 -6.15784,11.74173 -7.67033,17.96065c-0.8703,-4.90426 -2.04066,-10.3294 -4.4757,-15.76027c-0.27682,1.82681 -0.31354,4.27246 -0.03462,6.4673c-0.80252,-3.13569 -1.55604,-6.21263 -3.1936,-10.33993l0,-0.00001z" id="path451" fill="#ffe680"/>
    <path id="path451-0" d="m52.12285,11.42038c-0.32796,5.42598 -2.05267,10.52686 -3.0427,15.74271l-5.42396,-5.02708l-0.92604,4.63021l-0.3483,-8.2765c-2.01274,3.90536 -5.45597,7.81072 -8.25066,11.71608c-1.46066,-2.82392 -3.13768,-6.08027 -4.37079,-8.4491c-0.53446,2.62786 -1.90734,4.17783 -3.29541,5.70818l-7.6481,-13.48393c-0.59437,5.39416 -2.34187,8.3997 -4.17598,12.18582c0.44261,-1.09266 -0.17756,-5.26423 -0.75034,-6.54431l-1.98437,7.67293l-1.85312,-8.21501c-0.21448,0.69612 -0.40935,1.37604 -0.56534,2.01745c-0.41372,-2.33135 -0.89734,-4.78115 -1.55029,-7.29258c-0.23386,0.52898 -1.7198,8.00364 0,18.45468l50.12716,-0.83612c0.23347,-2.53084 0.64493,-4.96724 -0.25321,-8.09718l-0.92605,3.70417c0.19258,-2.39754 -0.77646,-5.97191 -1.89756,-9.10384c-0.15812,0.95138 -0.31227,1.92155 -0.44493,2.99517c0.0451,-1.14948 0.11379,-2.40747 0.18862,-3.69383c-1.10144,-2.95567 -2.27422,-5.3865 -2.60863,-5.80792z" fill="#ffa85e"/>
   </g>
  </g>
 </g>
</svg>
