<svg width="30" height="62" xmlns="http://www.w3.org/2000/svg" viewBox="0 0 30 62">
    <path d="M9.094 61.567l11.07.032c-3.293-2.473-2.911-18.443-3.146-28.48l-4.303.935c-.975 11.717-.156 22.263-3.62 27.513z" style="fill:#6c6753;stroke:null"/>
    <path d="M17.018 33.118l-2.979.648c.22 20.149 3.5 21.747 3.98 22.126-.97-6.197-.84-15.883-1-22.774z" style="fill:#996f46;stroke:null"/>
    <path d="M14.04 33.766c-.417 7.195-1.655 22.75 6.125 27.833" style="fill:none;stroke:#996f46;stroke-width:.265"/>
    <path d="M17.662 1.206c-1.384.006-2.926.648-3.602.884l-1.898-.518-2.794.901c.688.405 1.494.264 2.27.26a10.759 10.759 0 00-3.173 1.938l-.7-.152-1.777 1.497 1.373.043c.027-.068.054-.136.002 0-.052.129-.028.067-.003.003l-1.279 1.17.917.232C5.506 11.38 4.279 15.58 3.569 19.752l.495 1.751-.696.424 1.027.238-1.539 1.145-1.636 3.353 1.93-.952c-.01.183-.238.094-.246.274l-1.42 2.2 1.385-.437c.018 4.1.715 7.61 2.293 9.806 1.083 1.388 1.987 2.812 3.59 3.62-.237.895-.375 1.152-.653 2.091 1.101-.28 1.981-.856 3.44-.661-.3.732-.619 1.455-.662 2.315 1.893-.586 3.233-1.559 4.294-2.727.254-.01.51-.027.767-.051l.667 1.62.718-1.782 1.294.94.55-1.495c1.87-.662 3.76-1.768 5.589-3.398 1.256-2.9 2.222-5.373 1.83-11.23l1.24-.686c-.572-.583-.892-.853-1.548-1.56l2.207-.48-2.407-1.397c-.447-3.739-1.28-8.351-2.614-14.193l2.028-.312L23.1 6.916c-.08-.343-.156-.67-.24-1.021-1.08-1.748-3.585-3.205-5.792-3.755l1.176-.894a3.812 3.812 0 00-.581-.04zM7.36 6.062l.003-.003H7.36l-.001.003z" style="fill:#5d6c53;stroke:null"/>
    <path d="M17.661 1.206c-1.384.006-2.925.648-3.602.884l-1.897-.518-2.795.901c.689.405 1.494.264 2.27.26a10.759 10.759 0 00-3.173 1.938l-.699-.152-1.778 1.497 1.373.043c.081.044-.352.187-.43.473.544-.123 1.406-.498 1.93-.573-.58.49-1.457 1.192-1.927 1.672a67.934 67.934 0 00-1.763 5.27l.548 6.42-1.702.505 3.355.817-3.316.829.01.031-.697.423 1.027.238-1.538 1.146-.027.054 2.55.612.936 3.555 1.964-2.338 4.435 8.86-.88 2.645 1.964-.935.375 3.18 2.151-3.086a37.519 37.519 0 013.667-4.672l-.714.174-2.26 1.76-1.08-3.116 1.455 1.852 1.686-1.19 1.695-.3 2.34 1.06-.2-2.029 2.714.243-.483-2.789c1.002-.578 1.866-.895 2.502-.918-.457-.456-.792-.761-1.369-1.382-.332-.23-.96-.709-1.262-.897l3.443.422.026-.006-2.407-1.397c-.385-3.22-1.058-7.092-2.089-11.833l-.642 1.57-2.462-2.02-.117-1.052.632.912 1.497.725.327-1.988-.327-.351.59-.05-.023-.106 2.028-.312L23.1 6.915c-.08-.343-.155-.67-.239-1.021-1.081-1.747-3.585-3.205-5.793-3.755l1.176-.894a3.812 3.812 0 00-.581-.04zm5.122 14.344l.596 2.91-1.274 3.622-2.083-.912-.624.693c-1.02-1.102-1.667-1.917-2.568-2.741l2.514.992.595-1.654 1.918 2.05 1.125-2.05-.199-2.91z" style="fill:#aaa672;stroke:null"/>
</svg>
