<svg width="30" height="62" xmlns="http://www.w3.org/2000/svg" viewBox="0 0 30 62">
 <metadata id="metadata5">image/svg+xml</metadata>

 <g>
  <title>Тополь</title>
  <g id="layer1" display="inline">
   <g id="g7403">
    <path d="m9.09443,61.56713l11.07033,0.0321c-3.29412,-2.47335 -2.91216,-18.44281 -3.14646,-28.48093l-4.30304,0.93544c-0.97556,11.71681 -0.15655,22.26344 -3.62083,27.5134l0,-0.00001z" id="path66" stroke="null" fill="#6c6753"/>
    <path d="m17.0183,33.1183l-2.97914,0.6475c0.21978,20.14919 3.50064,21.74759 3.97908,22.12578c-0.96867,-6.19638 -0.83909,-15.88219 -0.99994,-22.77328z" id="path66-5" stroke="null" fill="#996f46"/>
    <path d="m14.03916,33.7658c-0.41607,7.19519 -1.65444,22.74928 6.1256,27.83343" id="path95" stroke-width="0.26458px" stroke="#996f46" fill="none"/>
    <path id="path106" d="m17.66163,1.20552c-1.38371,0.006 -2.92538,0.64821 -3.60184,0.8847l-1.89756,-0.51779l-2.79467,0.90071c0.68874,0.40491 1.49435,0.26374 2.27067,0.25994c-1.08751,0.43233 -2.18493,1.06071 -3.17345,1.93786l-0.69919,-0.15193l-1.77766,1.49707l1.37304,0.0429c0.0268,-0.0675 0.0545,-0.13616 0.002,0c-0.0524,0.12886 -0.0283,0.0674 -0.003,0.003l-1.27848,1.17047l0.91622,0.23202c-1.49211,3.91491 -2.71855,8.11502 -3.42873,12.28711l0.49506,1.75183l-0.69608,0.42323l1.02681,0.23823l-1.5384,1.14515l-1.6366,3.35277l1.93064,-0.95137c-0.01,0.18212 -0.23879,0.0935 -0.24599,0.27389l-1.42006,2.19883l1.38493,-0.43615c0.0175,4.09964 0.71488,7.60906 2.29288,9.80612c1.08244,1.3876 1.98719,2.81237 3.58944,3.61993c-0.23682,0.89531 -0.37468,1.15156 -0.65267,2.09135c1.10152,-0.2805 1.98118,-0.8568 3.43958,-0.66146c-0.29921,0.73234 -0.61836,1.45469 -0.66146,2.31511c1.89338,-0.58584 3.23319,-1.55908 4.29432,-2.72749c0.25404,-0.009 0.50982,-0.0264 0.76687,-0.0506l0.66715,1.62057l0.71727,-1.78283l1.29397,0.94102l0.55087,-1.49551c1.86861,-0.662 3.75889,-1.768 5.58829,-3.39773c1.25605,-2.90024 2.22179,-5.37381 1.82986,-11.23084l1.24024,-0.68523c-0.57193,-0.58388 -0.89151,-0.85362 -1.54771,-1.56011l2.2071,-0.48007l-2.40709,-1.39733c-0.44721,-3.73871 -1.28034,-8.35127 -2.61431,-14.19293l2.0283,-0.31213l-2.39365,-1.25212c-0.0804,-0.34249 -0.15508,-0.67051 -0.23875,-1.02113c-1.08132,-1.7471 -3.58541,-3.20455 -5.79292,-3.75481l1.17564,-0.894c-0.18823,-0.0283 -0.38317,-0.0406 -0.58085,-0.0398l-0.00003,-0.00045zm-10.30169,4.85604l0.003,-0.003l-0.002,0c-0.00053,0.001 -0.00051,0.001 -0.001,0.003z" stroke="null" fill="#5d6c53"/>
    <path id="path106-1" d="m17.66111,1.20552c-1.38369,0.006 -2.92538,0.64821 -3.60184,0.8847l-1.89756,-0.51779l-2.79466,0.90071c0.68874,0.40491 1.49435,0.26374 2.27066,0.25994c-1.08751,0.43233 -2.18493,1.06071 -3.17345,1.93786l-0.69918,-0.15193l-1.77767,1.49707l1.37304,0.0429c0.0806,0.0445 -0.3526,0.18688 -0.43046,0.47336c0.54422,-0.1229 1.40553,-0.49806 1.9296,-0.57361c-0.57984,0.49074 -1.45706,1.19249 -1.92702,1.67225c-0.67215,1.76356 -1.22125,3.4198 -1.76268,5.27048l0.54777,6.41873l-1.70119,0.50591l3.35483,0.817l-3.31607,0.82889l0.009,0.031l-0.69608,0.42323l1.02681,0.23823l-1.5384,1.14515l-0.0269,0.0548l2.55075,0.61185l0.93535,3.55482l1.96422,-2.33836l4.43539,8.86096l-0.88057,2.64479l1.96422,-0.93534l0.37465,3.18017l2.15129,-3.08663c1.19389,-1.79069 2.44091,-3.34721 3.66696,-4.67155l-0.71417,0.17363l-2.25929,1.75958l-1.08107,-3.11557l1.45521,1.85208l1.68672,-1.19062l1.69498,-0.29921l2.33991,1.05989l-0.19999,-2.02882l2.71353,0.24288l-0.48265,-2.78846c1.00163,-0.57857 1.86561,-0.89593 2.50165,-0.91829c-0.45668,-0.45614 -0.79155,-0.76129 -1.36839,-1.38235c-0.33259,-0.22903 -0.96127,-0.70846 -1.26245,-0.8971l3.44268,0.42271l0.0269,-0.006l-2.40709,-1.39734c-0.38504,-3.21919 -1.0586,-7.09165 -2.08928,-11.83338l-0.64182,1.57045l-2.46186,-2.02055l-0.11731,-1.05213l0.63149,0.91208l1.49706,0.72503l0.32712,-1.988l-0.32712,-0.35088l0.59067,-0.0506c-0.008,-0.0358 -0.0151,-0.069 -0.0233,-0.10491l2.0283,-0.31212l-2.39365,-1.25212c-0.0804,-0.3425 -0.15508,-0.67051 -0.23875,-1.02113c-1.08133,-1.7471 -3.58541,-3.20455 -5.79293,-3.75481l1.17564,-0.894c-0.18823,-0.0283 -0.38317,-0.0406 -0.58084,-0.0398l-0.00071,0.00027zm5.12217,14.34435l0.59532,2.91041l-1.27331,3.62149l-2.08374,-0.91131l-0.62399,0.69297c-1.01966,-1.10273 -1.66623,-1.91769 -2.5674,-2.74169l2.51354,0.99219l0.59531,-1.65365l1.91823,2.05052l1.12448,-2.05052l-0.19844,-2.91041z" stroke="null" fill="#aaa672"/>
   </g>
  </g>
 </g>
</svg>
