<svg width="66" height="29" xmlns="http://www.w3.org/2000/svg" xmlns:xlink="http://www.w3.org/1999/xlink" viewBox="0 0 66 29">
    <defs>
        <linearGradient id="b">
            <stop offset="0" style="stop-color:#79927d"/>
            <stop offset="1" style="stop-color:#79927d;stop-opacity:0"/>
        </linearGradient>
        <linearGradient id="a">
            <stop offset="0" style="stop-color:#79927d"/>
            <stop offset="1" style="stop-color:#79927d;stop-opacity:0"/>
        </linearGradient>
        <linearGradient y2="2.214" x2=".244" y1=".214" x1=".629" id="c" xlink:href="#a"/>
        <linearGradient y2="1.679" x2=".267" y1=".421" x1=".466" id="d" xlink:href="#b"/>
    </defs>
    <path d="M11.312 27.411C8.724 20.406 4.925 17.694.596 16.431c3.247-1.284 7.485-2.757 12.317 1.717C11.684 7.18 10.722 5.58 5.36.358c9.913 1.515 14.187 9.697 10.98 12.634.754-6.277 1.533-9.373 4.762-12.304-1.928 9.894 5.724 13.554 2.712 20.241l-12.501 6.482z" style="fill:#bcd35f"/>
    <path d="M5.45.448c3.003 5.829 4.029 6.92 7.185 15.366.824 2.618 1.566 5.615 2.315 9.216-2.886-4.47-8.185-8.466-13.426-8.3.294.2 6.56 4.314 9.788 10.681l12.501-6.482c.029-.063.066-.446.092-.508-3.062-4.34-6.2-8.062-6.557-13.648-.275.52-.23 1.22-.23 1.22.733 5.938 1.823 7.636 3.917 11.745-3.343-6.007-9.354-17.8-15.585-19.29z" style="fill:#839558"/>
    <path d="M27.12 8.626c-3.276.322-6.67 1.868-9.175 3.65l-1.87 6.8-2.763 1.787-2.066 6.68 52.916 1.059-1.058-6.218c-4.259-2.769-10.005-6.306-16.272-6.614-2.73.682-4.288 1.666-5.556 3.307l-1.588-4.101c-1.555-1.584-6.704-5.162-12.567-6.35z" style="fill:#536c5d"/>
    <path d="M15.961 19.142c-1.03.653-1.665 1.004-2.55 1.646 1.249 1.116 7.924 2.866 9.17 2.917l-6.62-4.563z" style="fill:#79927d"/>
    <path d="M18.7 12.34c2.926-2.011 8.509-3.576 8.572-3.505 3.94 1.003 7.912 2.725 12.096 6.209.976 2.872 1.524 3.908.051 5.76-1.885 1.318-5.35 2.387-10.29 2.48-2.372-1.13-8.251-6.307-10.43-10.945z" style="fill:url(#c)"/>
    <path d="M43.535 20.898c3.867 1.143 6.659 2.79 8.7 3.555 3.69-2.27 7.638-.521 10.15-1.917-1.747-1.471-8.185-6.154-15.225-6.486-5.422 1.387-4.949 3.214-3.625 4.848z" style="fill:url(#d)"/>
    <path d="M2.288 16.802c-.075 0-.148.006-.221.01.27.177.532.32 1.705 1.285l1.741-.543c-.644-.34-2.04-.761-3.225-.752zm3.782 1.084l-1.935.496c.67.509 1.134.89 1.935 1.72l3.158-.546c-1.674-1.228-2.14-1.312-3.158-1.67zm3.646 2.178l-3.29.426c2.336 2.1 2.681 1.294 5.636 2.191-.578-.966-1.459-2.002-2.346-2.617z" style="fill:#bcd35f"/>
    <path d="M6.1 15.292c-1.158-.025-2.633.148-3.957.955.501.055 2.565.264 3.976.809l.456-1.743a9.882 9.882 0 00-.476-.021zm.87.09l-.281 1.886c.856.368 2.537 1.053 3.338 1.883l.64-2.422c-1.924-1.016-2.308-1.191-3.697-1.347z" style="fill:#d4ed73"/>
    <path d="M6.366 1.032C6.28 1 6.196.976 6.113.95c.242.369.488.688 1.475 2.57l2.154-.007c-.608-.764-2.036-1.974-3.376-2.48zm3.887 3.197l-2.356-.146c.578 1.014.968 1.758 1.582 3.286l3.754.613c-1.46-2.475-1.955-2.8-2.98-3.753zm3.352 4.686l-3.86-.841c1.9 4.002 2.572 3.012 5.592 5.58-.314-1.623-.945-3.478-1.732-4.739z" style="fill:#bcd35f"/>
    <path d="M11.17 2.542C10.374 1.854 7.87.885 7.554.917c.604.308 1.73 1.01 3.31 2.287l.55-.666c-2.347-1.196-.35.232-.246.004zm.627.21l-.456.929c.684.734 3.477 3.755 3.76 4.965l.45-2.524c-1.598-1.786-2.319-2.656-3.754-3.37zm7.737 1.999c.204-1.089.598-2.408 1.375-3.373-.06.487-.342 1.596-.257 3.099l-1.195.726a11.6 11.6 0 01.077-.452zm-.131 1.195l1.278-1.1c.075.925.2 2.036.586 3.064l-1.602 1.71c-.292-2.14-.353-2.317-.262-3.674zm-1.187-.767s.228.86.579 1.211c-.162-1.211.698-3.488 1.573-4.884-.327.09-2.133 2.66-2.152 3.673z" style="fill:#d4ed73"/>
    <path d="M43.465 21.53c-.156 3.241-1.566 5.083-2.51 6.608l13.976.295c-3.136-2.078-3.14-2.09-3.546-3.652-4.918-2.491-6.875-3.025-7.92-3.251zM12.57 23.267l-1.323 4.277 12.61.252c-4.198-1.162-7.98-2.798-11.287-4.53z" style="fill:#4a564d"/>
</svg>
