<svg width="66" height="29" xmlns="http://www.w3.org/2000/svg" xmlns:xlink="http://www.w3.org/1999/xlink" viewBox="0 0 66 29">
 <defs>
  <linearGradient id="linearGradient276">
   <stop id="stop272" offset="0" stop-color="#79927d"/>
   <stop id="stop274" offset="1" stop-opacity="0" stop-color="#79927d"/>
  </linearGradient>
  <linearGradient id="linearGradient268">
   <stop id="stop264" offset="0" stop-color="#79927d"/>
   <stop id="stop266" offset="1" stop-opacity="0" stop-color="#79927d"/>
  </linearGradient>
  <linearGradient id="linearGradient258">
   <stop id="stop254" offset="0" stop-color="#79927d"/>
   <stop id="stop256" offset="1" stop-opacity="0" stop-color="#79927d"/>
  </linearGradient>
  <linearGradient id="linearGradient250">
   <stop id="stop246" offset="0" stop-color="#79927d"/>
   <stop id="stop248" offset="1" stop-opacity="0" stop-color="#79927d"/>
  </linearGradient>
  <linearGradient y2="2.21369" x2="0.24439" y1="0.21353" x1="0.62937" id="linearGradient252" xlink:href="#linearGradient250"/>
  <linearGradient y2="0.61277" x2="0.57599" y1="-0.41708" x1="0.70445" id="linearGradient260" xlink:href="#linearGradient258"/>
  <linearGradient y2="1.67907" x2="0.26688" y1="0.42112" x1="0.46618" id="linearGradient270" xlink:href="#linearGradient268"/>
  <linearGradient y2="0.97638" x2="0.56065" y1="-0.4806" x1="0.69394" id="linearGradient278" xlink:href="#linearGradient276"/>
 </defs>
 <metadata id="metadata5">image/svg+xml</metadata>
 <g>
  <title>Камень с травой</title>
  <g id="layer1" display="inline">
   <g id="g7418">
    <path d="m11.31183,27.4113c-2.58816,-7.00556 -6.38722,-9.71748 -10.71562,-10.98021c3.24706,-1.28379 7.48505,-2.75702 12.31722,1.71704c-1.22924,-10.96862 -2.19155,-12.56844 -7.55472,-17.79048c9.91364,1.51487 14.1872,9.69717 10.9802,12.63386c0.75437,-6.27647 1.53297,-9.37271 4.7625,-12.30313c-1.9282,9.89377 5.72316,13.55329 2.71198,20.24063l-12.50156,6.48229z" id="path280" fill="#bcd35f"/>
    <path d="m5.45017,0.44757c3.00316,5.8291 4.02853,6.92126 7.18458,15.36599c0.82424,2.61837 1.56659,5.61551 2.3151,9.21649c-2.88563,-4.47096 -8.18521,-8.46604 -13.42554,-8.29923c0.29341,0.19848 6.55943,4.31307 9.78752,10.68048l12.50156,-6.48229c0.02829,-0.0628 0.06556,-0.4462 0.09199,-0.50849c-3.06226,-4.33875 -6.20028,-8.06194 -6.55774,-13.64775c-0.27478,0.51995 -0.22944,1.22008 -0.22944,1.22008c0.73302,5.93773 1.82278,7.63658 3.91707,11.74553c-3.34337,-6.00698 -9.35444,-17.80056 -15.58509,-19.29081l-0.00001,0z" id="path280-9" fill="#839558"/>
    <path id="path204" d="m27.12068,8.62587c-3.27654,0.32166 -6.6701,1.86833 -9.17566,3.65094l-1.87069,6.8001l-2.76262,1.78646l-2.06603,6.68021l52.91667,1.05833l-1.05833,-6.2177c-4.25856,-2.76904 -10.00484,-6.30665 -16.27188,-6.61459c-2.72973,0.68231 -4.28782,1.66625 -5.55625,3.30729l-1.5875,-4.10104c-1.55533,-1.58418 -6.70453,-5.16159 -12.56771,-6.35z" fill="#536c5d"/>
    <path d="m15.96127,19.14234c-1.03014,0.6528 -1.66526,1.00394 -2.55085,1.64607c1.24918,1.11555 7.92472,2.86567 9.17101,2.91665l-6.62016,-4.56272z" id="path204-7" fill="#79927d"/>
    <path d="m18.69926,12.33918c2.92654,-2.01015 8.50936,-3.57512 8.573,-3.5044c3.93961,1.00318 7.91145,2.72493 12.09616,6.20915c0.97536,2.87241 1.5236,3.90814 0.0509,5.76101c-1.88504,1.31744 -5.35054,2.38562 -10.28987,2.47892c-2.37207,-1.13019 -8.25141,-6.30684 -10.43019,-10.94468z" id="path228" fill="url(#linearGradient252)"/>
    <path d="m43.53528,20.89848c3.86644,1.14253 6.65838,2.7888 8.69962,3.55469c3.68955,-2.27024 7.63857,-0.52151 10.14956,-1.91766c-1.74628,-1.471 -8.18398,-6.15372 -15.22491,-6.48526c-5.4213,1.38666 -4.94822,3.21376 -3.62427,4.84823z" id="path262" fill="url(#linearGradient270)"/>
    <path id="path280-9-6" d="m2.28809,16.80212c-0.07512,0.00069 -0.14799,0.006 -0.22117,0.01c0.26974,0.17639 0.53209,0.3207 1.70532,1.28468l1.74098,-0.54312c-0.644,-0.33997 -2.04042,-0.76113 -3.22513,-0.75137l0,-0.00019zm3.78168,1.08417l-1.93476,0.49609c0.66939,0.50849 1.13392,0.88983 1.93476,1.71979l3.15847,-0.5457c-1.67448,-1.22799 -2.13957,-1.31275 -3.15847,-1.67018zm3.64578,2.17764l-3.29024,0.42582c2.33629,2.10068 2.68171,1.29471 5.63634,2.1916c-0.57774,-0.96668 -1.4585,-2.00256 -2.3461,-2.61742z" fill="#bcd35f"/>
    <path id="path280-9-6-1" d="m6.09923,15.29162c-1.15704,-0.025 -2.63223,0.14838 -3.95635,0.95549c0.50123,0.0551 2.5648,0.26386 3.9765,0.80874l0.45527,-1.74253c-0.15093,-0.0104 -0.31013,-0.0181 -0.47542,-0.0217zm0.87074,0.0904l-0.28111,1.88567c0.85647,0.36817 2.53745,1.05364 3.33829,1.88361l0.63976,-2.42259c-1.92433,-1.01526 -2.30809,-1.19102 -3.69694,-1.34669z" fill="#d4ed73"/>
    <path d="m6.36579,1.03238c-0.08502,-0.0319 -0.16907,-0.0565 -0.25303,-0.083c0.24267,0.36838 0.4882,0.68803 1.47487,2.56907l2.15401,-0.006c-0.60772,-0.76445 -2.03593,-1.97433 -3.37592,-2.48062l0.00007,0.00055zm3.88748,3.19655l-2.3562,-0.14642c0.57745,1.0144 0.96824,1.75868 1.58162,3.28632l3.75412,0.61343c-1.45988,-2.47518 -1.95497,-2.79947 -2.97954,-3.75328l0,-0.00005zm3.35193,4.68628l-3.86087,-0.84117c1.90147,4.00235 2.57291,3.01193 5.5928,5.57999c-0.31389,-1.6234 -0.94547,-3.47789 -1.73193,-4.73882z" id="path280-9-6-8" fill="#bcd35f"/>
    <path d="m11.1693,2.54189c-0.7945,-0.68786 -3.29946,-1.65656 -3.61409,-1.62518c0.60356,0.3086 1.73039,1.01052 3.30991,2.287l0.54934,-0.66548c-2.34617,-1.19582 -0.34965,0.23181 -0.24516,0.004l0,-0.00034zm0.6275,0.20959l-0.45583,0.92925c0.6845,0.7342 3.47746,3.75574 3.75932,4.9657l0.45007,-2.52418c-1.59769,-1.7861 -2.31813,-2.65585 -3.75355,-3.37077l-0.00001,0z" id="path280-9-6-1-0" fill="#d4ed73"/>
    <path d="m19.53355,4.75137c0.20444,-1.08926 0.59843,-2.40873 1.37502,-3.37329c-0.0598,0.48682 -0.3413,1.59616 -0.25682,3.09868l-1.1948,0.72599c0.02181,-0.14461 0.04743,-0.29579 0.07659,-0.45141l0.00001,0.00003zm-0.1308,1.19466l1.27793,-1.0997c0.07566,0.92426 0.20006,2.03585 0.58616,3.06395l-1.60137,1.7096c-0.2921,-2.14008 -0.35323,-2.3171 -0.26272,-3.67385z" id="path280-9-6-1-9" fill="#d4ed73"/>
    <path d="m18.21576,5.17868c0,0 0.22816,0.86089 0.57895,1.21169c-0.16157,-1.21174 0.69802,-3.48822 1.57342,-4.88417c-0.32753,0.0894 -2.13359,2.65978 -2.15237,3.67248z" id="path429" fill="#d4ed73"/>
    <path id="path204-3" d="m43.46518,21.52991c-0.15628,3.24113 -1.56628,5.0829 -2.51071,6.60794l13.97625,0.29467c-3.13527,-2.07774 -3.14036,-2.09013 -3.54593,-3.65187c-4.9181,-2.49092 -6.87466,-3.02442 -7.91961,-3.25074zm-30.89658,1.73692l-1.32292,4.27675l12.60957,0.25218c-4.19676,-1.1613 -7.97908,-2.79753 -11.28665,-4.52893z" fill="#4a564d"/>
   </g>
  </g>
 </g>
</svg>
