<svg xmlns="http://www.w3.org/2000/svg" width="100" height="80" viewBox="0 0 100 80">
    <defs>
        <linearGradient id="a">
            <stop style="stop-color:#000000;stop-opacity:1" offset="0"/>
            <stop style="stop-color:#000000;stop-opacity:0" offset="1"/>
        </linearGradient>
    </defs>
    <text style="font-style:normal;font-weight:normal;font-size:40px;line-height:1.25;font-family:sans-serif;letter-spacing:-1px;word-spacing:0px;fill:#000000;fill-opacity:1;stroke:none" x="12.313" y="77.974">
        <tspan x="12.313" y="77.974" style="font-size:10.66666698px;letter-spacing:-1px">левая лапка 1/5</tspan>
    </text>
    <path style="fill:#e5e7e5;fill-opacity:1;stroke:none;stroke-width:1px;stroke-linecap:butt;stroke-linejoin:miter;stroke-opacity:1" d="M60.129 53.234l13.383.377s-.377-8.482-3.959-10.555c-3.581-2.074-12.44-2.64-12.44-2.64l2.262-16.21s-2.828.754-4.524 1.32c-1.696.565-4.524-1.696-5.278-1.696-.754 0-7.162.188-7.162.188l.62 17.175 7.652.652 6.43 2.342"/>
    <path style="fill:none;stroke:#000000;stroke-width:1px;stroke-linecap:butt;stroke-linejoin:miter;stroke-opacity:1;fill-opacity:1" d="M21.3 28.919s5.089 25.258 6.22 26.954c1.13 1.697 29.97.189 31.478.189 1.508 0-.189-11.121-3.77-12.44-3.581-1.32-14.325-2.263-15.08-1.697-.753.565-.188-19.038-1.507-18.095-1.32.942-4.713 5.843-6.409 5.843-1.696 0-.942-1.697-3.204-1.32-2.262.377-5.09 2.828-6.032 2.074-.942-.754-1.696-1.508-1.696-1.508z"/>
    <text y="69.869" x="26.437" style="font-style:normal;font-weight:normal;font-size:40px;line-height:1.25;font-family:sans-serif;letter-spacing:-1px;word-spacing:0px;fill:#000000;fill-opacity:1;stroke:none">
        <tspan style="font-size:10.66666698px;letter-spacing:-1px" y="69.869" x="26.437">передняя</tspan>
    </text>
</svg>
