<svg width="40" height="81" xmlns="http://www.w3.org/2000/svg" viewBox="0 0 40 77">
    <g style="stroke:null">
        <path d="M28.194 20.625C19.072-21.3 7.05 18.426 7.978 21.975c-1.056-1.438-.908-1.525-.783-3.4-4.176 2.93-6.023 10.252-1.163 14.704-1.473-.372-2.222-1.393-3.742-3.125-2.77 9.073 2.542 23.478 17.345 22.064 8.768-.708 21.208-3.073 18.031-20.396-.817.126-1.283-.208-2.842.89.249-5.937-.5-11.91-4.344-17.348-.985 2.731-1.05 3.782-2.286 5.26z" style="fill:#bcd35f"/>
        <path d="M9.968 12.872c-1.468 4.154-2.255 8.093-1.99 9.103-1.057-1.438-.908-1.526-.783-3.4-4.176 2.93-6.023 10.252-1.163 14.704-1.473-.372-2.222-1.394-3.743-3.125-2.769 9.073 2.543 23.478 17.346 22.064.995-.08 2.038-.184 3.1-.327-.722-2.335-.74-4.644 1.182-9.535-4.157-.212-4.099-4.675-4.771-9.94-2.16-1.134-2.152-2.054-3.087-3.274 1.974.65 2.876-.006 2.876-.006-2.307-.017-4.03-.241-5.402-3.736 2.438.83 3.013 1.042 4.447.092-.442-.019-7.012-.53-8.012-12.62zm8.012 12.62c.026.004.043.003.043.003l-.043-.002z" style="fill:#798145"/>
        <path d="M13.908 77.131l-7.67 1.123 7.108.56-4.864 4.49c7.382-4.167 9.127-3.943 17.212-4.115-3.792-5.403-4.1-15.868-3.554-24.322 2.058-3.67 4.116-4.087 6.174-5.986-1.968.751-3.795 2.763-5.987 1.496 4.818-16.615 2.785-8.523-2.62-.748-1.73-6.533-3.956-6.39-6.173-6.361 2.436.124 5.362 4.474 3.554 7.67-1.294 1.49-3.779.673-7.11-.374 2.28 1.193 4.42.57 6.923 4.678.097 8.212.53 13.755-2.993 21.889z" style="fill:#4e4132"/>
        <path d="M24.091 42.303c-.135.094-1.852 3.683-4.383 7.326-1.732-6.533-3.958-6.39-6.175-6.361 2.28.112 5.363 4.474 3.555 7.67-1.294 1.49-3.779.673-7.11-.373 2.28 1.192 4.42.569 6.923 4.677.097 8.212.53 13.755-2.994 21.889l-7.67 1.122 7.11.562-4.865 4.49c2.673-1.51 4.605-2.437 6.368-3.022l5.045-12.88.568-9.16c.552-3.839.105-3.524 2.498-7.584-.75-1.146.406-5.058.82-6.49l.31-1.866z" style="fill:#2e2521"/>
    </g>
</svg>
