<svg width="265" height="120" xmlns="http://www.w3.org/2000/svg">
 <!-- Created with SVG Editor - http://github.com/mzalive/SVG Editor/ -->

 <g>
  <title>background</title>
  <rect fill="none" id="canvas_background" height="122" width="267" y="-1" x="-1"/>
 </g>
 <g>
  <title>Layer 1</title>
  <g id="svg_1">
   <path fill="#482816" stroke="#482816" stroke-width="1.5" stroke-opacity="null" d="m140.33292,37.33452c-1.66658,5.66637 -7.33295,23.99874 -10.33279,27.66522c-2.99985,3.66647 -19.33232,17.33242 -20.33227,19.33232c-0.99995,1.99989 -1.66658,9.99947 -0.66663,11.66605c0.99995,1.66658 6.333,-0.66663 8.33289,1.9999c1.9999,2.66652 3.9859,4.99343 2.32627,6.66316c-1.65963,1.66973 -11.65911,0.33647 -14.32564,0.66978c-2.66652,0.33332 -4.99973,-5.99968 -5.66637,-7.33294c-0.66663,-1.33327 -5.66636,-16.6658 -4.66642,-18.33238c0.99995,-1.66658 4.33311,-4.3331 2.66653,-7.33294c-1.66658,-2.99985 -13.33263,-21.99885 -10.66611,-26.99859c2.66653,-4.99974 3.33316,-10.6661 24.99869,-15.66584c21.66553,-4.99974 29.99843,1.99989 28.33185,7.66626z" id="svg_5"/>
   <path fill="#482816" stroke="#482816" stroke-width="1.5" stroke-opacity="null" fill-opacity="null" d="m214.99518,29.33513c-0.66663,7.3329 -5.33302,24.66522 -7.66622,27.99836c-2.3332,3.33314 -9.33279,11.9993 -10.66604,13.99918c-1.33326,1.99989 -0.99994,28.66499 0,28.99831c0.99994,0.33331 5.99965,-1.66657 7.66622,0.33331c1.66657,1.99988 1.66657,6.66628 1.6588,6.66276c-4.15886,1.17017 -16.99124,0.00352 -16.99124,-0.99642c0,-0.99995 -5.66633,-35.9979 -6.66628,-38.3311c-0.99994,-2.33319 15.99907,-35.33126 18.99889,-36.66452c2.99983,-1.33325 7.66622,-4.66639 8.99948,-4.33308c1.33325,0.33332 5.33302,-4.9997 4.66639,2.3332z" id="svg_2"/>
   <path stroke="#482816" id="svg_3" d="m4.12594,80.74806c2.28718,-1.90597 11.05468,3.43076 14.10423,3.43076c3.04957,0 11.81741,-0.38157 19.05979,-6.48032c7.24238,-6.09875 22.4907,-24.77832 26.68369,-29.35206c4.193,-4.57375 13.34185,-12.19827 27.44608,-16.77262c14.10425,-4.57434 33.16402,-6.86152 40.02554,-6.86152c6.86152,0 48.03065,6.86152 49.93663,6.86152c1.90599,0 4.95554,-0.38119 7.62392,-1.14358c2.66837,-0.76239 6.09913,-3.04956 8.3863,-3.43076c2.28717,-0.3812 7.24271,-0.3812 9.52989,-0.76239c2.28717,-0.3812 10.67348,-7.24272 10.67348,-7.24272c0,0 10.29228,-14.48543 10.29228,-14.48543c0,0 3.04956,9.91108 4.19315,9.91108c1.14358,0 9.14869,3.43076 10.29228,3.43076c1.14359,0 3.81196,10.29228 3.81196,10.29228c0,0 3.81196,2.28718 3.81196,2.28718c0,0 -2.66837,8.00511 -4.19316,9.14869c-1.52478,1.14359 -15.62901,1.90598 -19.44098,2.28718c-3.81195,0.3812 -21.34694,12.96066 -22.49053,15.62902c-1.14359,2.66837 -26.3025,18.67858 -28.58967,18.67858c-2.28718,0 -38.11957,-9.14869 -42.69392,-9.14869c-4.57435,0 -42.31271,4.19315 -44.98108,4.19315c-2.66836,0 -11.43587,-7.24271 -12.57945,-14.10423c-1.14359,-6.86152 -0.7624,-7.62392 -0.7624,-7.62392c0,0 -9.53038,6.86187 -12.96065,11.05468c-3.43026,4.19281 -7.62269,11.43653 -20.96575,23.63412c-13.34306,12.19759 -34.68881,3.04957 -35.45119,1.90598c-0.7624,-1.14359 -3.04957,-3.43076 -0.7624,-5.33674z" stroke-width="1.5" fill="#845335"/>
   <path stroke="#482816" id="svg_10" d="m237.84635,26.47531c0,-1.28653 2.716,-3.57369 3.5737,-3.57369c0.8577,-0.00002 0.71473,4.43138 0,4.57433c-0.71473,0.14295 -3.5737,0.2859 -3.5737,-1.00064z" stroke-opacity="null" stroke-width="1.5" fill="#33666C"/>
   <path fill="#845335" stroke="#482816" stroke-width="1.5" stroke-opacity="null" d="m204.66247,33.66822c-3.33315,7.3329 -7.99954,23.99859 -10.33274,27.33173c-2.3332,3.33314 -9.33279,11.9993 -10.66604,13.99918c-1.33326,1.99988 -0.99995,28.66499 0,28.9983c0.99994,0.33332 5.99964,-1.66656 7.66621,0.33332c1.66657,1.99988 1.66657,6.66627 1.65881,6.66276c-3.65897,1.8368 -16.99124,0.00351 -16.99124,-0.99643c0,-0.99994 -5.66634,-35.99789 -6.66628,-38.33109c-0.99994,-2.33319 9.99942,-28.66497 18.99889,-36.66452c8.99947,-7.99956 19.66555,-8.66616 16.33239,-1.33325z" id="svg_4"/>
   <path fill="#845335" stroke="#482816" stroke-width="1.5" stroke-opacity="null" d="m127.3336,41.66763c-1.66658,5.66637 -7.33295,23.99874 -10.33279,27.66521c-2.99984,3.66648 -19.33232,17.33243 -20.33227,19.33232c-0.99995,1.9999 -1.66658,9.99948 -0.66663,11.66606c0.99995,1.66658 6.333,-0.66664 8.3329,1.99989c1.99989,2.66653 3.98589,4.99344 2.32626,6.66317c-1.65963,1.66973 -11.65911,0.33646 -14.32563,0.66978c-2.66653,0.33332 -4.99974,-5.99969 -5.66637,-7.33295c-0.66663,-1.33326 -5.66637,-16.66579 -4.66642,-18.33237c0.99994,-1.66658 4.3331,-4.33311 2.66652,-7.33295c-1.66658,-2.99984 -13.33263,-21.99884 -10.66611,-26.99858c2.66653,-4.99974 3.33316,-10.66611 24.99869,-15.66585c21.66553,-4.99973 29.99843,1.9999 28.33185,7.66627z" id="svg_6"/>
  </g>
 </g>
</svg>