<svg width="265" height="120" xmlns="http://www.w3.org/2000/svg">
 <!-- Created with SVG Editor - http://github.com/mzalive/SVG Editor/ -->

 <g>
  <title>background</title>
  <rect fill="none" id="canvas_background" height="122" width="267" y="-1" x="-1"/>
 </g>
 <g>
  <title>Layer 1</title>
  <g id="svg_12">
   <path transform="rotate(8.446815490722656 106.45870971679682,70.18073272705084) " fill="#482816" stroke="#482816" stroke-width="1.5" stroke-opacity="null" d="m133.217975,39.992696c-1.66658,5.66637 -7.33295,23.99874 -10.33279,27.66522c-2.99985,3.66647 -19.33232,17.33242 -20.33227,19.33232c-0.99995,1.99989 -1.66658,9.99947 -0.66663,11.66605c0.99995,1.66658 6.333,-0.66663 8.33289,1.9999c1.9999,2.66652 3.9859,4.99343 2.32627,6.66316c-1.65963,1.66973 -12.073726,2.082985 -14.740256,2.416295c-2.66652,0.33332 -4.585114,-7.746195 -5.251754,-9.079455c-0.66663,-1.33327 -5.66636,-16.6658 -4.66642,-18.33238c0.99995,-1.66658 4.33311,-4.3331 2.66653,-7.33294c-1.66658,-2.99985 -13.33263,-21.99885 -10.66611,-26.99859c2.66653,-4.99974 3.33316,-10.6661 24.99869,-15.66584c21.66553,-4.99974 29.99843,1.99989 28.33185,7.66626z" id="svg_5"/>
   <path transform="rotate(11.88711166381836 195.50076293945312,68.14062499999996) " fill="#482816" stroke="#482816" stroke-width="1.5" stroke-opacity="null" fill-opacity="null" d="m211.817148,29.983261c-0.66663,7.3329 -5.33302,24.66522 -7.66622,27.99836c-2.3332,3.33314 -9.33279,11.9993 -10.66604,13.99918c-1.33326,1.99989 -0.99994,28.66499 0,28.99831c0.99994,0.33331 5.99965,-1.66657 7.66622,0.33331c1.66657,1.99988 1.66657,6.66628 1.6588,6.66276c-4.15886,1.17017 -17.334721,4.844754 -16.99124,-0.99642c0.343481,-5.841174 -5.66633,-35.9979 -6.66628,-38.3311c-0.99994,-2.33319 15.99907,-35.33126 18.99889,-36.66452c2.99983,-1.33325 7.66622,-4.66639 8.99948,-4.33308c1.33325,0.33332 5.33302,-4.9997 4.66639,2.3332z" id="svg_2"/>
   <path stroke="#482816" id="svg_3" d="m4.12594,80.74806c2.28718,-1.90597 11.05468,3.43076 14.10423,3.43076c3.04957,0 11.81741,-0.38157 19.05979,-6.48032c7.24238,-6.09875 22.4907,-24.77832 26.68369,-29.35206c4.193,-4.57375 13.34185,-12.19827 27.44608,-16.77262c14.10425,-4.57434 33.16402,-6.86152 40.02554,-6.86152c6.86152,0 48.03065,6.86152 49.93663,6.86152c1.90599,0 4.95554,-0.38119 7.62392,-1.14358c2.66837,-0.76239 6.09913,-3.04956 8.3863,-3.43076c2.28717,-0.3812 7.24271,-0.3812 9.52989,-0.76239c2.28717,-0.3812 10.67348,-7.24272 10.67348,-7.24272c0,0 10.29228,-14.48543 10.29228,-14.48543c0,0 3.04956,9.91108 4.19315,9.91108c1.14358,0 9.14869,3.43076 10.29228,3.43076c1.14359,0 3.81196,10.29228 3.81196,10.29228c0,0 3.81196,2.28718 3.81196,2.28718c0,0 -2.66837,8.00511 -4.19316,9.14869c-1.52478,1.14359 -15.62901,1.90598 -19.44098,2.28718c-3.81195,0.3812 -21.34694,12.96066 -22.49053,15.62902c-1.14359,2.66837 -26.3025,18.67858 -28.58967,18.67858c-2.28718,0 -38.11957,-9.14869 -42.69392,-9.14869c-4.57435,0 -42.31271,4.19315 -44.98108,4.19315c-2.66836,0 -11.43587,-7.24271 -12.57945,-14.10423c-1.14359,-6.86152 -0.7624,-7.62392 -0.7624,-7.62392c0,0 -9.53038,6.86187 -12.96065,11.05468c-3.43026,4.19281 -7.62269,11.43653 -20.96575,23.63412c-13.34306,12.19759 -34.68881,3.04957 -35.45119,1.90598c-0.7624,-1.14359 -3.04957,-3.43076 -0.7624,-5.33674z" stroke-width="1.5" fill="#845335"/>
   <path stroke="#482816" id="svg_10" d="m237.84635,26.47531c0,-1.28653 2.716,-3.57369 3.5737,-3.57369c0.8577,-0.00002 0.71473,4.43138 0,4.57433c-0.71473,0.14295 -3.5737,0.2859 -3.5737,-1.00064z" stroke-opacity="null" stroke-width="1.5" fill="#33666C"/>
   <path id="svg_8" d="m204.999946,31.333353c0.333333,2.999998 -6.333329,26.999981 -9.66666,32.333311c-3.333331,5.33333 -7.999995,11.333326 -8.000078,11.333286c0.000083,0.00004 8.333411,19.666693 8.333411,21.333359c0,1.666665 1.999998,8.66666 0.333333,9.66666c-1.666666,0.999999 -6.999995,1.333332 -8.666661,-0.333333c-1.666665,-1.666666 -1.333332,-6.666662 -1.999999,-8.999994c-0.666666,-2.333332 -11.666658,-17.999988 -12.666658,-21.333319c-0.999999,-3.333331 8.666661,-29.333314 11.666659,-33.333311c2.999998,-3.999997 7.666662,-8.999994 9.999993,-10.999992c2.333332,-1.999999 8.999994,-2.666665 8.999912,-2.666706c0.000082,0.000041 1.333415,0.000041 1.666748,3.000039z" stroke-width="1.5" stroke="#482816" fill="#845335"/>
   <path transform="rotate(-9.888376235961914 103.78157043457024,72.85899353027345) " id="svg_11" d="m127.999998,45.333344c-1.999998,6.666662 -5.666663,22.666651 -9.999993,27.999981c-4.33333,5.333329 -12.333325,12.333325 -12.333325,14.333323c0,1.999999 5.999996,7.999995 8.333328,12.333325c2.333331,4.333331 5.333329,5.999996 2.333331,8.999994c-2.999998,2.999998 -6.333329,1.999999 -7.999994,0.666666c-1.666666,-1.333332 -9.333327,-15.333322 -11.333326,-17.333321c-1.999998,-1.999999 -8.999994,-9.999993 -8.666661,-12.333325c0.333334,-2.333332 1,-4.33333 1,-5.999996c0,-1.666666 -9.999993,-16.666655 -10.333327,-20.999986c-0.333333,-4.33333 3.333332,-11.333325 9.666661,-13.666657c6.333329,-2.333332 26.666648,-5.999996 32.333311,-3.999997c5.666663,1.999998 8.999994,3.333331 6.999995,9.999993z" fill-opacity="null" stroke-opacity="null" stroke-width="1.5" stroke="#482816" fill="#845335"/>
  </g>
 </g>
</svg>