<svg width="265" height="120" xmlns="http://www.w3.org/2000/svg">
 <!-- Created with SVG Editor - http://github.com/mzalive/SVG Editor/ -->

 <g>
  <title>background</title>
  <rect x="-1" y="-1" width="267" height="122" id="canvas_background" fill="none"/>
 </g>
 <g>
  <title>Layer 1</title>
  <g id="svg_4">
   <path id="svg_2" d="m205.13255,30.91315c-0.66663,7.3329 -5.33302,24.66522 -7.66622,27.99836c-2.3332,3.33314 -9.33279,11.9993 -10.66604,13.99918c-1.33326,1.99989 -1.15216,26.56232 0,28.99831c1.15216,2.43599 5.99965,-1.66657 7.66622,0.33331c1.66657,1.99988 1.66657,6.66628 1.6588,6.66276c-4.15886,1.17017 -16.61878,7.43505 -16.2753,1.59388c0.34348,-5.84118 -6.38227,-38.5882 -7.38222,-40.9214c-0.99994,-2.33319 15.99907,-35.33126 18.99889,-36.66452c2.99983,-1.33325 7.66622,-4.66639 8.99948,-4.33308c1.33325,0.33332 5.33302,-4.9997 4.66639,2.3332z" fill-opacity="null" stroke-opacity="null" stroke-width="1.5" stroke="#482816" fill="#482816" transform="rotate(22.575454711914062 188.81616210937503,69.98550415039057) "/>
   <path fill="#845335" stroke-width="1.5" d="m4.12594,80.74806c2.28718,-1.90597 11.05468,3.43076 14.10423,3.43076c3.04957,0 11.81741,-0.38157 19.05979,-6.48032c7.24238,-6.09875 22.4907,-24.77832 26.68369,-29.35206c4.193,-4.57375 13.34185,-12.19827 27.44608,-16.77262c14.10425,-4.57434 33.16402,-6.86152 40.02554,-6.86152c6.86152,0 48.03065,6.86152 49.93663,6.86152c1.90599,0 4.95554,-0.38119 7.62392,-1.14358c2.66837,-0.76239 6.09913,-3.04956 8.3863,-3.43076c2.28717,-0.3812 7.24271,-0.3812 9.52989,-0.76239c2.28717,-0.3812 10.67348,-7.24272 10.67348,-7.24272c0,0 10.29228,-14.48543 10.29228,-14.48543c0,0 3.04956,9.91108 4.19315,9.91108c1.14358,0 9.14869,3.43076 10.29228,3.43076c1.14359,0 3.81196,10.29228 3.81196,10.29228c0,0 3.81196,2.28718 3.81196,2.28718c0,0 -2.66837,8.00511 -4.19316,9.14869c-1.52478,1.14359 -15.62901,1.90598 -19.44098,2.28718c-3.81195,0.3812 -21.34694,12.96066 -22.49053,15.62902c-1.14359,2.66837 -26.3025,18.67858 -28.58967,18.67858c-2.28718,0 -38.11957,-9.14869 -42.69392,-9.14869c-4.57435,0 -42.31271,4.19315 -44.98108,4.19315c-2.66836,0 -11.43587,-7.24271 -12.57945,-14.10423c-1.14359,-6.86152 -0.7624,-7.62392 -0.7624,-7.62392c0,0 -9.53038,6.86187 -12.96065,11.05468c-3.43026,4.19281 -7.62269,11.43653 -20.96575,23.63412c-13.34306,12.19759 -34.68881,3.04957 -35.45119,1.90598c-0.7624,-1.14359 -3.04957,-3.43076 -0.7624,-5.33674z" id="svg_3" stroke="#482816"/>
   <path fill="#33666C" stroke-width="1.5" stroke-opacity="null" d="m237.84635,26.47531c0,-1.28653 2.716,-3.57369 3.5737,-3.57369c0.8577,-0.00002 0.71473,4.43138 0,4.57433c-0.71473,0.14295 -3.5737,0.2859 -3.5737,-1.00064z" id="svg_10" stroke="#482816"/>
   <path fill="#845335" stroke="#482816" stroke-width="1.5" stroke-opacity="null" fill-opacity="null" d="m203.99995,27.66669c2.66666,0 3.33333,9.99999 2.99999,13.33332c-0.33333,3.33333 -3.99999,26.66665 -3.99999,30.66665c0,4 12.66666,28.66665 13.99999,31.99998c1.33333,3.33333 -3.33333,6.66666 -7.66666,4.66666c-4.33333,-2 -2,-8.66666 -8.33333,-13.33332c-6.33333,-4.66667 -12.33333,-21.66666 -13.33333,-24.33332c-1,-2.66667 2.66667,-26.66665 2.66667,-28.66665c0,-2 10.99999,-14.33332 13.66666,-14.33332z" id="svg_17" transform="rotate(-7.9226908683776855 202.36276245117193,68.30189514160149) "/>
   <path fill="#482816" stroke="#482816" stroke-width="1.5" stroke-opacity="null" fill-opacity="null" d="m80.6667,104.99997c1,-7 2.66666,-21.99999 3.99999,-23.66665c1.33334,-1.66667 4.33333,-3.66667 3,-5.66666c-1.33333,-2 -9.33332,-9.33333 -10.33332,-13.66666c-1,-4.33333 -4.666524,-10.333485 -2.333194,-12.666815c2.33333,-2.33333 17.667052,-12.000054 23.667042,-10.000054c6,2 25.666413,8.666933 24.999753,15.333603c-0.66667,6.66666 -5.000301,19.666586 -7.666961,21.333256c-2.66667,1.66666 -21.999844,8.999981 -23.333174,10.999981c-1.33334,2 -4.666706,14.666678 -0.333476,15.666669c4.33323,0.999991 3.66666,-1.66667 5.99999,1.66666c2.33333,3.33333 2.6665,5.33325 -0.33341,5.66663c-2.99992,0.33337 -18.33324,2.00003 -17.33324,-4.99996z" id="svg_14"/>
   <path fill="#845335" stroke="#482816" stroke-width="1.5" stroke-opacity="null" d="m126.90349,41.90575c2.99999,7.33332 4.66666,21.66665 4.33333,25.33331c-0.33334,3.66667 -9.33333,21.99999 -8,23.33332c1.33333,1.33333 11.33333,12.33333 12.33333,15.66666c1,3.33333 0,6.66666 -2.33334,6.33333c-2.33333,-0.33334 -13.66665,-8.33333 -19.99998,-14.66666c-6.33333,-6.33333 -8.33333,-7.33333 -8.66666,-11.33333c-0.33334,-3.99999 -18.99031,-17.13877 -20.33332,-21.66665c-1.34301,-4.52788 -0.61558,-18.40742 1.71775,-21.07409c2.33333,-2.66666 7.19413,-5.4428 11.52746,-6.4428c4.33333,-1 26.42143,-2.81642 29.42143,4.51691z" id="svg_15" transform="rotate(-7.977300643920898 109.76148223876962,74.5147247314453) "/>
  </g>
 </g>
</svg>