<svg width="265" height="120" xmlns="http://www.w3.org/2000/svg">
 <!-- Created with SVG Editor - http://github.com/mzalive/SVG Editor/ -->

 <g>
  <title>background</title>
  <rect fill="none" id="canvas_background" height="122" width="267" y="-1" x="-1"/>
 </g>
 <g>
  <title>Layer 1</title>
  <g id="svg_21">
   <path transform="rotate(22.575454711914062 190.72933959960938,70.78092956542964) " fill="#482816" stroke="#482816" stroke-width="1.5" stroke-opacity="null" fill-opacity="null" d="m204.973787,31.708567c-0.66663,7.3329 -5.33302,24.66522 -7.66622,27.99836c-2.3332,3.33314 -3.764937,7.157464 -5.098187,9.157344c-1.33326,1.99989 -6.720009,31.404155 -5.567853,33.840146c1.152157,2.435991 5.99965,-1.66657 7.66622,0.33331c1.66657,1.99988 1.66657,6.66628 1.6588,6.66276c-4.15886,1.17017 -16.61878,7.435052 -16.275299,1.593878c0.343481,-5.841174 -2.225408,-42.48241 -3.225358,-44.81561c-0.99994,-2.33319 11.842207,-31.437048 14.842027,-32.770308c2.99983,-1.33325 7.66622,-4.66639 8.99948,-4.33308c1.33325,0.33332 5.33302,-4.9997 4.66639,2.3332z" id="svg_2"/>
   <path stroke="#482816" id="svg_3" d="m4.12594,80.74806c2.28718,-1.90597 11.05468,3.43076 14.10423,3.43076c3.04957,0 11.81741,-0.38157 19.05979,-6.48032c7.24238,-6.09875 22.4907,-24.77832 26.68369,-29.35206c4.193,-4.57375 13.34185,-12.19827 27.44608,-16.77262c14.10425,-4.57434 33.16402,-6.86152 40.02554,-6.86152c6.86152,0 48.03065,6.86152 49.93663,6.86152c1.90599,0 4.95554,-0.38119 7.62392,-1.14358c2.66837,-0.76239 6.09913,-3.04956 8.3863,-3.43076c2.28717,-0.3812 7.24271,-0.3812 9.52989,-0.76239c2.28717,-0.3812 10.67348,-7.24272 10.67348,-7.24272c0,0 10.29228,-14.48543 10.29228,-14.48543c0,0 3.04956,9.91108 4.19315,9.91108c1.14358,0 9.14869,3.43076 10.29228,3.43076c1.14359,0 3.81196,10.29228 3.81196,10.29228c0,0 3.81196,2.28718 3.81196,2.28718c0,0 -2.66837,8.00511 -4.19316,9.14869c-1.52478,1.14359 -15.62901,1.90598 -19.44098,2.28718c-3.81195,0.3812 -21.34694,12.96066 -22.49053,15.62902c-1.14359,2.66837 -26.3025,18.67858 -28.58967,18.67858c-2.28718,0 -38.11957,-9.14869 -42.69392,-9.14869c-4.57435,0 -42.31271,4.19315 -44.98108,4.19315c-2.66836,0 -11.43587,-7.24271 -12.57945,-14.10423c-1.14359,-6.86152 -0.7624,-7.62392 -0.7624,-7.62392c0,0 -9.53038,6.86187 -12.96065,11.05468c-3.43026,4.19281 -7.62269,11.43653 -20.96575,23.63412c-13.34306,12.19759 -34.68881,3.04957 -35.45119,1.90598c-0.7624,-1.14359 -3.04957,-3.43076 -0.7624,-5.33674z" stroke-width="1.5" fill="#845335"/>
   <path stroke="#482816" id="svg_10" d="m237.84635,26.47531c0,-1.28653 2.716,-3.57369 3.5737,-3.57369c0.8577,-0.00002 0.71473,4.43138 0,4.57433c-0.71473,0.14295 -3.5737,0.2859 -3.5737,-1.00064z" stroke-opacity="null" stroke-width="1.5" fill="#33666C"/>
   <path id="svg_18" d="m199.999949,28.666688c2.999998,5.666664 3.333332,46.333301 7.333329,54.333296c3.999997,7.999995 5.666663,18.333321 12.333324,18.999987c6.666662,0.666667 11.999992,7.999995 11.99991,7.999956c0.000082,0.000039 -13.666575,0.666705 -16.999906,1.000038c-3.333331,0.333334 -29.666647,-41.333305 -30.666646,-44.333303c-0.999999,-2.999998 0.333333,-19.666653 2.333332,-22.999984c1.999998,-3.333331 10.666659,-20.666654 13.666657,-14.99999z" stroke-opacity="null" stroke-width="1.5" stroke="#482816" fill="#845335"/>
   <path id="svg_14" d="m71.666703,104.333303c0.999999,-6.999995 2.666665,-21.999985 3.999997,-23.66665c1,-6.999996 -0.333333,-17.666655 -1.333332,-21.999985c-1,-4.333331 0.333332,-10.999993 2.666664,-13.333325c2.333332,-2.333332 21.999985,-7.999995 27.666648,-7.333328c5.666663,0.666666 18.999987,10.999993 18.333321,17.666655c-0.666666,6.666662 -13.333324,17.999988 -15.999989,19.666653c-2.666665,1.666666 -19.999987,8.666661 -21.333319,10.66666c-1.333333,1.999998 -6.333329,14.99999 -4.999997,15.666656c1.333333,0.666666 6.33333,-1.333332 8.666661,1.999998c2.333331,3.33333 2.666498,5.333251 -0.333416,5.666624c-2.999915,0.333372 -18.333238,2.000038 -17.333238,-4.999958z" fill-opacity="null" stroke-opacity="null" stroke-width="1.5" stroke="#482816" fill="#482816"/>
   <path id="svg_19" d="m79.666698,41.000013c-5.666663,8.999994 10.999992,26.333315 13.99999,30.333313c2.999998,3.999997 20.999985,12.333324 20.999985,14.999989c0,2.666665 4.666664,8.999993 7.333329,12.333325c2.666665,3.333332 9.999994,13.333325 13.666658,13.333325c3.666664,0 14.333324,1.666665 13.333324,-0.333333c-0.999999,-1.999999 -3.333331,-6.666663 -6.999995,-8.333328c-3.666664,-1.666666 -5.66683,-1.000078 -7.333412,-1.666705c-1.666582,-0.666627 -4.66658,-13.999952 -4.66658,-25.999943c0,-11.999991 -4.666663,-28.99998 -7.333328,-32.666645c-2.666665,-3.666664 -8.666662,-11.666659 -12.333326,-10.999993c-3.666664,0.666667 -24.999982,0.000001 -30.666645,8.999995z" stroke-opacity="null" stroke-width="1.5" stroke="#482816" fill="#845335"/>
  </g>
 </g>
</svg>