<svg width="265" height="120" xmlns="http://www.w3.org/2000/svg">
 <!-- Created with SVG Editor - http://github.com/mzalive/SVG Editor/ -->

 <g>
  <title>background</title>
  <rect x="-1" y="-1" width="267" height="122" id="canvas_background" fill="none"/>
 </g>
 <g>
  <title>Layer 1</title>
  <g id="svg_1">
   <path fill="#482816" stroke="#482816" stroke-width="1.5" stroke-opacity="null" fill-opacity="null" d="m206.62363,29.50057c0.99998,2.74994 -1.74997,26.24951 -2.99995,30.74943c-1.24998,4.49991 -12.24977,13.24975 -13.24975,15.24971c-0.99998,1.99997 -3.99993,19.24965 -3.99993,20.74962c0,1.49997 1.24998,5.99989 0,8.24985c-1.24998,2.24996 -3.49993,4.99991 -4.74991,4.24992c-1.24998,-0.74999 -5.4999,-9.24983 -5.4999,-11.49979c0,-2.24996 2.74995,-26.49951 2.74995,-28.49947c0,-1.99996 12.74976,-28.49947 14.74973,-30.99943c1.99996,-2.49995 11.99977,-10.99979 12.99976,-8.24984z" id="svg_23"/>
   <path fill="#845335" stroke-width="1.5" d="m4.12594,80.74806c2.28718,-1.90597 11.05468,3.43076 14.10423,3.43076c3.04957,0 11.81741,-0.38157 19.05979,-6.48032c7.24238,-6.09875 22.4907,-24.77832 26.68369,-29.35206c4.193,-4.57375 13.34185,-12.19827 27.44608,-16.77262c14.10425,-4.57434 33.16402,-6.86152 40.02554,-6.86152c6.86152,0 48.03065,6.86152 49.93663,6.86152c1.90599,0 4.95554,-0.38119 7.62392,-1.14358c2.66837,-0.76239 6.09913,-3.04956 8.3863,-3.43076c2.28717,-0.3812 7.24271,-0.3812 9.52989,-0.76239c2.28717,-0.3812 10.67348,-7.24272 10.67348,-7.24272c0,0 10.29228,-14.48543 10.29228,-14.48543c0,0 3.04956,9.91108 4.19315,9.91108c1.14358,0 9.14869,3.43076 10.29228,3.43076c1.14359,0 3.81196,10.29228 3.81196,10.29228c0,0 3.81196,2.28718 3.81196,2.28718c0,0 -2.66837,8.00511 -4.19316,9.14869c-1.52478,1.14359 -15.62901,1.90598 -19.44098,2.28718c-3.81195,0.3812 -21.34694,12.96066 -22.49053,15.62902c-1.14359,2.66837 -26.3025,18.67858 -28.58967,18.67858c-2.28718,0 -38.11957,-9.14869 -42.69392,-9.14869c-4.57435,0 -42.31271,4.19315 -44.98108,4.19315c-2.66836,0 -11.43587,-7.24271 -12.57945,-14.10423c-1.14359,-6.86152 -0.7624,-7.62392 -0.7624,-7.62392c0,0 -9.53038,6.86187 -12.96065,11.05468c-3.43026,4.19281 -7.62269,11.43653 -20.96575,23.63412c-13.34306,12.19759 -34.68881,3.04957 -35.45119,1.90598c-0.7624,-1.14359 -3.04957,-3.43076 -0.7624,-5.33674z" id="svg_3" stroke="#482816"/>
   <path fill="#33666C" stroke-width="1.5" stroke-opacity="null" d="m237.84635,26.47531c0,-1.28653 2.716,-3.57369 3.5737,-3.57369c0.8577,-0.00002 0.71473,4.43138 0,4.57433c-0.71473,0.14295 -3.5737,0.2859 -3.5737,-1.00064z" id="svg_10" stroke="#482816"/>
   <path fill="#845335" stroke-width="1.5" stroke-opacity="null" d="m199.99995,28.66669c4.66666,59.33329 2.66666,72.66661 7.66666,72.99995c5,0.33333 10.99983,7.33325 7.33325,7.99995c-3.66659,0.66671 -9.99991,0.66671 -13.33325,1.00004c-3.33333,0.33334 -16.66665,-40.99997 -17.66665,-43.99997c-1,-3 0.33333,-19.66665 2.33333,-22.99998c2,-3.33333 10.66666,-20.66666 13.66666,-14.99999z" id="svg_18" stroke="#482816"/>
   <path fill="#482816" stroke="#482816" stroke-width="1.5" stroke-opacity="null" fill-opacity="null" d="m121.6252,57.25005c-5.24991,6.24989 -9.24983,15.24972 -13.74975,16.99969c-4.49992,1.74996 -20.49962,7.99985 -21.74959,8.99983c-1.24998,0.99998 -2.99995,8.49984 -2.49996,10.49981c0.49999,1.99996 2.99994,4.49991 3.74993,8.24984c0.74999,3.74994 -0.49999,6.74988 -2.49995,5.99989c-1.99996,-0.74998 -5.99989,-2.49995 -7.74986,-5.2499c-1.74997,-2.74995 -6.74987,-19.49964 -5.4999,-22.49958c1.24998,-2.99995 4.74991,-4.74992 4.24992,-7.99986c-0.49999,-3.24994 -0.99998,-20.24962 -0.74998,-23.74956c0.24999,-3.49993 5.4999,-10.7498 9.49982,-11.99977c3.99993,-1.24998 19.49964,-5.7499 24.49955,-4.49992c4.99991,1.24998 17.74967,18.99965 12.49977,25.24953z" id="svg_22"/>
   <path fill="#845335" stroke="#482816" stroke-width="1.5" stroke-opacity="null" d="m79.6667,41.00001c-5.66667,9 10.99999,26.33332 13.99999,30.33332c3,3.99999 11.66666,11.33332 11.66666,13.99999c0,2.66666 2.83335,8.5833 5.50002,11.91663c2.66666,3.33333 7.49997,14.08335 11.16663,14.08335c3.66667,0 15.99999,1.66667 14.33333,-1c-1.66667,-2.66667 -4.91641,-6.08332 -9.58306,-6.50001c-4.66664,-0.41668 -4.16686,-9.74991 -5.58344,-13.16649c-1.41659,-3.41657 10.83313,-13.99995 10.83313,-25.99994c0,-11.99999 -6.66663,-18.00018 -9.33329,-21.66685c-2.66667,-3.66666 -8.66666,-11.66666 -12.33333,-10.99999c-3.66666,0.66666 -24.99998,0 -30.66664,8.99999z" id="svg_19"/>
  </g>
 </g>
</svg>