<svg width="265" height="120" xmlns="http://www.w3.org/2000/svg">
 <!-- Created with SVG Editor - http://github.com/mzalive/SVG Editor/ -->

 <g>
  <title>background</title>
  <rect x="-1" y="-1" width="90.330102" height="41.998537" id="canvas_background" fill="none"/>
 </g>
 <g>
  <title>Layer 1</title>
  <g id="svg_1">
   <path fill="#482816" stroke="#482816" stroke-width="1.5" stroke-opacity="null" fill-opacity="null" d="m95.62568,39.250385c-11.249792,2.999945 -11.999778,19.249643 -1.999963,27.249496c9.999816,7.999852 8.749838,6.749875 8.749838,9.249828c0,2.499954 -0.999982,7.749857 -0.499991,8.749839c0.499991,0.999981 21.499603,14.749727 28.249477,17.749671c6.749875,2.999944 5.99989,1.499973 6.249885,-3.499935c0.249995,-4.999908 -24.499547,-13.749745 -18.749653,-17.999667c5.749894,-4.249922 15.249717,-24.999538 10.749801,-32.249403c-4.499917,-7.249866 -21.499602,-12.249773 -32.749394,-9.249829z" id="svg_24"/>
   <path fill="#482816" stroke="#482816" stroke-width="1.5" stroke-opacity="null" fill-opacity="null" d="m207.123617,26.750616c0.999981,2.749949 0.49999,22.499584 -2.249959,27.249496c-2.749949,4.749912 -8.749838,11.249792 -7.749856,13.999741c0.999981,2.749949 16.74969,21.499602 17.999667,24.249551c1.249977,2.749949 9.749818,10.499806 0.49999,10.749801c-9.249828,0.249996 -8.749837,-5.999888 -9.749819,-7.999851c-0.999981,-1.999963 -25.249533,-25.749524 -25.249533,-28.499473c0,-2.74995 8.999833,-28.499473 10.999796,-30.999427c1.999963,-2.499954 14.499732,-11.499787 15.499714,-8.749838z" id="svg_25"/>
   <path fill="#845335" stroke-width="1.5" d="m4.12594,80.74806c2.28718,-1.90597 11.05468,3.43076 14.10423,3.43076c3.04957,0 11.81741,-0.38157 19.05979,-6.48032c7.24238,-6.09875 22.4907,-24.77832 26.68369,-29.35206c4.193,-4.57375 13.34185,-12.19827 27.44608,-16.77262c14.10425,-4.57434 33.16402,-6.86152 40.02554,-6.86152c6.86152,0 48.03065,6.86152 49.93663,6.86152c1.90599,0 4.95554,-0.38119 7.62392,-1.14358c2.66837,-0.76239 6.09913,-3.04956 8.3863,-3.43076c2.28717,-0.3812 7.24271,-0.3812 9.52989,-0.76239c2.28717,-0.3812 10.67348,-7.24272 10.67348,-7.24272c0,0 10.29228,-14.48543 10.29228,-14.48543c0,0 3.04956,9.91108 4.19315,9.91108c1.14358,0 9.14869,3.43076 10.29228,3.43076c1.14359,0 3.81196,10.29228 3.81196,10.29228c0,0 3.81196,2.28718 3.81196,2.28718c0,0 -2.66837,8.00511 -4.19316,9.14869c-1.52478,1.14359 -15.62901,1.90598 -19.44098,2.28718c-3.81195,0.3812 -21.34694,12.96066 -22.49053,15.62902c-1.14359,2.66837 -26.3025,18.67858 -28.58967,18.67858c-2.28718,0 -38.11957,-9.14869 -42.69392,-9.14869c-4.57435,0 -42.31271,4.19315 -44.98108,4.19315c-2.66836,0 -11.43587,-7.24271 -12.57945,-14.10423c-1.14359,-6.86152 -0.7624,-7.62392 -0.7624,-7.62392c0,0 -9.53038,6.86187 -12.96065,11.05468c-3.43026,4.19281 -7.62269,11.43653 -20.96575,23.63412c-13.34306,12.19759 -34.68881,3.04957 -35.45119,1.90598c-0.7624,-1.14359 -3.04957,-3.43076 -0.7624,-5.33674z" id="svg_3" stroke="#482816"/>
   <path fill="#33666C" stroke-width="1.5" stroke-opacity="null" d="m237.84635,26.47531c0,-1.28653 2.716,-3.57369 3.5737,-3.57369c0.8577,-0.00002 0.71473,4.43138 0,4.57433c-0.71473,0.14295 -3.5737,0.2859 -3.5737,-1.00064z" id="svg_10" stroke="#482816"/>
   <path fill="#845335" stroke="#482816" stroke-width="1.5" stroke-opacity="null" d="m76.666754,42.749981c-5.666663,8.999994 4.750108,26.333315 7.750106,30.333313c2.999998,3.999997 -0.083125,12.083311 -0.083125,14.749976c0,2.666665 2.083373,7.083331 4.750038,10.416663c2.666665,3.333332 6.499987,12.083385 10.166651,12.083385c3.666664,0 14.500017,1.166675 12.833352,-1.49999c-1.666665,-2.666666 -1.916465,-5.583326 -6.583111,-6.000014c-4.666645,-0.416688 -6.916806,-8.99993 -8.333393,-12.416506c-1.416587,-3.416576 31.832744,-11.999989 31.832744,-23.99998c0,-11.999991 -6.666626,-18.000184 -9.333291,-21.666849c-2.666665,-3.666664 -8.666662,-11.666659 -12.333326,-10.999993c-3.666664,0.666667 -24.999982,0.000001 -30.666645,8.999995z" id="svg_19"/>
   <path fill="#845335" stroke="#482816" stroke-width="1.5" stroke-opacity="null" fill-opacity="null" d="m202.373704,30.250551c0.749987,1.749968 -1.249977,23.999556 -6.99987,29.749449c-5.749893,5.749894 -12.249773,39.749266 -11.749783,41.249238c0.499991,1.499972 4.999908,-1.249977 6.749875,1.249977c1.749968,2.499953 5.744989,6.247657 4.122472,7.248752c-1.622518,1.001095 -17.622222,0.7511 -19.122194,-0.248882c-1.499972,-0.999981 0,-34.249366 0.499991,-39.249274c0.49999,-4.999907 4.999907,-6.249884 5.249903,-8.999833c0.249995,-2.749949 4.249921,-24.749542 7.749856,-28.499473c3.499935,-3.749931 12.749764,-4.249921 13.49975,-2.499954z" id="svg_26"/>
  </g>
 </g>
</svg>