<?xml version="1.0" encoding="UTF-8" standalone="yes"?>
<svg xmlns="http://www.w3.org/2000/svg" width="2640" height="140" version="1.1" id="main" viewBox="0 0 220 140">
  <g transform="matrix(.87241 0 0 .87241 -1251.125 .262)" id="standingCat">
    <g id="lowPaw-stand">
      <path style="fill:#e3dcdb;fill-opacity:1;stroke:none;stroke-width:0.30238095px;stroke-linecap:butt;stroke-linejoin:miter;stroke-opacity:1" d="M137.096 71.731c12.673-2.445 21.789-2.89 25.569.667 3.78 3.558 8.004 8.45 5.558 19.122-2.446 10.672-22.9 48.692-22.9 48.692l4.001 10.672s.667-.222 4.892-.222c2.402 1.527 2.701 2.766 2.89 6.225l-12.896.223s-11.339-18.232-11.561-20.01c-.223-1.78 2.668-11.34 2.668-17.566 0-6.225-7.782-25.791-8.004-29.793-.223-4.002.667-10.45 3.335-13.118 2.668-2.668 6.448-4.892 6.448-4.892z" id="leftLowPaw2-stand"/>
      <path id="leftLowPaw1-stand" d="M217.94 57.696s7.127-1.007 13.744 5.537c6.618 6.543 5.213 23.112 4.365 27.978-.848 4.866-8.098 21.351-8.437 22.358-.34 1.007.623 35.661.623 35.661s1.362-1.025 5.31.925a7.994 7.994 0 011.339 5.73c-.078.547-11.374.552-12.155.332-.78-.22-3.232-8.928-7.021-23.146-3.79-14.218-6.465-26.232-6.465-27.334 0-1.103 7.356-15.982 7.133-19.289-.223-3.306-4.792-18.626-4.347-21.713.446-3.086 3.567-5.841 4.236-6.172.669-.33 1.675-.867 1.675-.867z" style="fill:#e3dcdb;fill-opacity:1;stroke:none;stroke-width:0.3006925px;stroke-linecap:butt;stroke-linejoin:miter;stroke-opacity:1"/>
    </g>
    <g id="forXMLParser-stand">
      <path style="fill:#ffffff;fill-opacity:1;stroke:none;stroke-width:0.30238095px;stroke-linecap:butt;stroke-linejoin:miter;stroke-opacity:1" d="M121.724 84.612s-2.071 9.941-.207 15.533c1.864 5.592 5.385 9.113 11.39 11.184 6.007 2.071 22.783 2.071 26.097 1.864 3.313-.207 34.794-3.107 45.978-.621 11.184 2.485 32.723-8.699 36.451-27.96 3.728-19.261.829-31.067 2.9-33.552 2.071-2.485 1.654-2.504 3.026-2.802 1.372-.298 6.503-.537 7.457-1.492.955-.954 5.787-8.054 5.787-9.724s-4.832-3.34-5.19-3.878c-1.192-2.204.127-2.796-2.321-4.688-2.449-1.892-5.318-3.698-6.83-4.2-3.034-1.004-8.75-1.168-12.813-.167-4.062 1.002-7.568 3.84-9.126 6.177-1.558 2.338-4.118 11.575-4.785 14.858-.668 3.283-1.67 7.012-2.338 8.625-.667 1.614-1.947 4.007-2.726 4.23-.78.222-2.368.358-3.37.86-2.412.97-5.923 3.258-7.648 3.981-1.726.723-6.344 2.56-8.793 2.671-2.448.111-48.351-2.554-55.998 1.634-7.647 4.187-9.832 6.19-11.47 8.01-1.64 1.821-5.471 9.457-5.471 9.457z" id="body-stand"/>
      <path style="fill:#ffffff;fill-opacity:1;stroke:none;stroke-width:0.30238095px;stroke-linecap:butt;stroke-linejoin:miter;stroke-opacity:1" d="M120.198 103.526s1.556-11.562 3.78-15.564c2.223-4.002 11.117-11.117 14.007-13.785 2.89-2.668 5.114-5.78 2.668-6.892-2.446-1.112-10.672 3.335-14.674 5.78-4.002 2.446-10.673 9.339-12.896 14.453-2.223 5.113-7.624 42.967-12.27 48.296-4.236 6.696-10.248 9.975-12.298 10.795-2.05.82-6.969 1.913-6.969 1.913s-.273 1.503 1.23 2.46c1.503.956 3.826 1.503 3.826 1.503l-2.186.136s.136 1.093 3.006 1.093c2.87 0 6.559-1.23 9.701-2.732 3.143-1.503 8.745-6.696 10.385-9.565 1.64-2.87 7.242-14.211 8.062-17.354.82-3.143 4.628-20.537 4.628-20.537z" id="tail-stand"/>
    </g>
    <g id="hightPaw-stand">
      <path style="fill:#ffffff;fill-opacity:1;stroke:none;stroke-width:0.30238095px;stroke-linecap:butt;stroke-linejoin:miter;stroke-opacity:1" d="M214.16 58.363s7.127-1.018 13.744 5.6c6.618 6.617 8.993 25.62 8.145 30.542-.848 4.92-11.877 19.343-12.217 20.36-.34 1.019.623 36.064.623 36.064s1.362-1.037 5.31.935c1.596 2.348 1.5 4.654 1.34 5.795-.079.552-11.375.558-12.155.335-.78-.223-3.233-9.028-7.022-23.407-3.79-14.378-6.465-26.527-6.465-27.642 0-1.114 7.356-16.161 7.134-19.505-.223-3.344-4.793-18.837-4.347-21.958.445-3.12 3.566-5.907 4.235-6.241.669-.335 1.676-.878 1.676-.878z" id="rightHightPaw1-stand"/>
      <path style="fill:#ffffff;fill-opacity:1;stroke:none;stroke-width:0.30238095px;stroke-linecap:butt;stroke-linejoin:miter;stroke-opacity:1" d="M168.445 72.398c4.002 8.005 2.446 14.897 0 20.011-2.445 5.114-13.34 22.234-18.01 27.125-4.668 4.892-29.348 21.567-29.348 21.567l-1.334 11.117s1.779-.445 4.225.445c2.445.89 2.89 5.558 2.89 5.558s-12.229 1.557-13.34 0c-1.112-1.556-3.335-24.457-3.335-25.791 0-1.334 4.669-4.224 6.67-7.115 2-2.89 5.114-8.226 4.224-18.676-.89-10.45-2-16.009 1.334-21.567 3.335-5.559 10.673-11.117 16.009-13.785 5.336-2.668 17.787-4.002 22.011-3.113 4.225.89 8.004 4.224 8.004 4.224z" id="rightHightPaw2-stand"/>
    </g>
    <g transform="translate(104.624 10.281)" id="eye-stand">
      <path id="iris-stand" d="M148.07 23.82c.055-.294.49-1.053.218-1.895-.272-.843-1.032-1.517-1.032-1.517-1.466.379-3.095 1.18-3.366 1.432-.272.253 1.411 1.138 1.954 1.39.978.549 2.227.59 2.227.59z" style="fill:#fa9e0c;fill-opacity:1;stroke:none;stroke-width:0.35168985px;stroke-linecap:butt;stroke-linejoin:miter;stroke-opacity:1"/>
      <path id="pupil-stand" d="M146.274 20.708c-.027.297-.063.568-.067.889-.006.526.02 1.008.084 1.188.064.18.237.553.41.839l.01.012c.174.042.31.114.455.137.067-.173.15-.371.211-.686a3.496 3.496 0 00-.007-1.432 2.438 2.438 0 00-.262-.703 2.208 2.208 0 00-.32-.428c-.178.051-.336.124-.513.184z" style="fill:#050f05;fill-opacity:1;stroke:none;stroke-width:0.35168985px;stroke-linecap:butt;stroke-linejoin:miter;stroke-opacity:1"/>
      <path id="flare-stand" d="M146.214 21.452c.623.131.796.462.511.762-.284.3-.923.26-.913-.06.01-.318.402-.702.402-.702z" style="fill:#f1faf0;fill-opacity:1;stroke:none;stroke-width:0.71787226px;stroke-linecap:butt;stroke-linejoin:miter;stroke-opacity:1"/>
      <path style="fill:#cabebc;fill-opacity:1;stroke:none;stroke-width:0.30238095px;stroke-linecap:butt;stroke-linejoin:miter;stroke-opacity:1" d="M143.826 21.896s-.052-.182.104-.312c.155-.13 1.325-.78 1.818-.961.494-.182 1.3-.416 1.481-.442.182-.026.416.104.65.104h.233s-.363.156-.441.156c-.078 0-.234-.078-.234-.078l.338.26-.546-.182s-2.208.702-3.403 1.455z" id="lash-stand"/>
    </g>
    <g id="ears-stand" transform="matrix(1.01458 0 0 1.01458 100.733 11.624)">
      <path id="leftEar-stand" d="M139.934 10.82c1.926-2.686 4.36-4.814 6.716-7.1.41-.443 1.152-1.088.96-.32-.192.767-2.815 6.268-3.07 7.74-.1.567.123.913-.325 1.681-3.555-.79-4.422-.893-4.422-.893z" style="fill:#e3dcdb;fill-opacity:1;stroke:none;stroke-width:0.25586179px;stroke-linecap:butt;stroke-linejoin:miter;stroke-opacity:1"/>
      <path id="insideRightEar-stand" d="M133.242 16.91s.178-1.307 1.07-2.258c.891-.951 1.307-1.308 1.604-1.783.298-.476.535-1.01.535-1.01s-.119 1.129-.297 1.723a63.014 63.014 0 00-.416 1.486s1.13-1.427 1.367-1.961c.238-.535.297-.773.297-.773s.12.832 0 1.13c-.119.296.476-.536.476-.536l-.06.595s-.206.673.713-.298c.92-.97 1.546.238 1.546.238l1.13-6.181.594-4.993L141.246.4l-4.082 5.276s-5.17 8.143-5.17 8.38c0 .238 1.247 2.854 1.247 2.854z" style="fill:#e3abb6;fill-opacity:1;stroke:none;stroke-width:0.25586179px;stroke-linecap:butt;stroke-linejoin:miter;stroke-opacity:1"/>
      <path id="rightEar-stand" d="M125.87 20.129s1.914-5.013 3.828-7.383S141.155-.613 141.247.207c1.577.048-.52 12.083-.702 12.903-.182.82-.82.73-.82.183 0-.547 3.344-15.04 1.002-11.759-1.28 1.795-6.654 10.847-6.745 12.214-.091 1.368.274 2.553.274 3.19 0 .639-4.011 5.287-6.016 6.199-2.006.911-2.37-3.008-2.37-3.008z" style="fill:#e3dcdb;fill-opacity:1;stroke:none;stroke-width:0.25586179px;stroke-linecap:butt;stroke-linejoin:miter;stroke-opacity:1"/>
      <g id="border-stand" style="opacity:0">
        <path id="rightBorder-stand-6" d="M141.192.113c-.158-.024-.83.596-1.765 1.558-1.263 2.112-2.804 5.259-3.118 5.747-.474.737-3.104 5.735-3.104 6.945 0 .817.15 2.023.534 3.413.307-.427.498-.753.498-.889 0-.638-.365-1.823-.274-3.19.091-1.368 5.465-10.42 6.746-12.214 2.342-3.282-1.003 11.211-1.003 11.758 0 .547.638.638.82-.182.183-.82 2.279-12.856.702-12.903-.003-.026-.015-.04-.036-.043z" style="fill:#ffffff;fill-opacity:1;stroke:none;stroke-width:0.25586179px;stroke-linecap:butt;stroke-linejoin:miter;stroke-opacity:1"/>
        <path id="leftBorder-stand-4" d="M147.527 3.703c-.891 1.783-3.177 6.315-3.52 7.346-.348 1.045-.294 1.693-.434 2.251.169.043.394.08.576.127.448-.767.226-1.079.324-1.646.256-1.47 2.879-6.972 3.07-7.74.05-.198.037-.3-.016-.338z" style="fill:#ffffff;fill-opacity:1;stroke:none;stroke-width:0.25586179px;stroke-linecap:butt;stroke-linejoin:miter;stroke-opacity:1"/>
      </g>
    </g>
    <path style="fill:#e3abb6;fill-opacity:1;stroke:none;stroke-width:0.25441638px;stroke-linecap:butt;stroke-linejoin:miter;stroke-opacity:1" d="M258.337 36.57s.816-.444 1.335-.37c.52.074.742 0 .742 0s.223.445.149 1.112a2.723 2.723 0 01-.371 1.113l-.371-.89s.657-.637.138-.563c-.52.074-.51.192-.51.192z" id="nose-stand"/>
    <path id="lineFall-stand" d="M257.86 42.285c-.718.35-2.061.966-3.053 1.146-1.4.255-3.692-1.656-3.692-.892 0 .764.637 1.146 1.4 1.146.765 0 2.165 0 3.438-.254.684-.137 1.325-.528 1.777-.864.044-.094.089-.188.13-.282z" style="fill:#e3dcdb;fill-opacity:1;stroke:none;stroke-width:0.25441638px;stroke-linecap:butt;stroke-linejoin:miter;stroke-opacity:1"/>
  </g>
  <g id="sittingCat" transform="translate(-1018.976 -.686) scale(.63448)">
    <g transform="matrix(1.32216 0 0 1.32216 77.034 -77.61)" style="fill:#b75c0d;fill-opacity:1" id="lowPaw-sit">
      <path id="leftLowPaw1-sit" d="M145.224 106.422c10.063 6.404 17.38 16.77 17.686 18.905.305 2.135 1.22 12.807-6.709 24.394-7.927 11.586-10.977 16.16-10.977 18.6 0 2.439 3.354 43.298 3.354 43.298s2.757-.373 4.891 2.066c2.135 2.44 2.428 6.167 2.428 6.167l-12.807-.305-12.169-41.478-.919 2.495.586-5.535c-4.164 12.141 1.492-13.619 1.525-13.722.915-3.049 5.793-20.429 5.793-25.613 0-5.183-2.744-18.295-2.744-21.649 0-3.354 10.062-7.623 10.062-7.623z" style="fill:#e3dcdb;fill-opacity:1;stroke:none;stroke-width:0.26458332px;stroke-linecap:butt;stroke-linejoin:miter;stroke-opacity:1"/>
      <path id="leftLowPaw2-sit" d="M134.675 171.072s7.25 8.945 6.589 11.411c-.661 2.466-1.657 10.288-11.274 17.686-9.616 7.398-15.535 12.083-15.535 12.083s16.029-.74 17.508-.247c1.48.493 6.165 7.644 6.165 7.644l-48.084.493-.987-1.726-2.22 1.726s.247-2.959.987-3.945c.74-.986-2.712.74-2.712.74s9.123-11.836 10.603-13.809c1.48-1.973-1.726-15.288-.74-19.234.987-3.945 9.617-17.754 15.782-19.48 6.164-1.726 23.918 6.658 23.918 6.658z" style="fill:#e3dcdb;fill-opacity:1;stroke:none;stroke-width:0.26458332px;stroke-linecap:butt;stroke-linejoin:miter;stroke-opacity:1"/>
    </g>
    <g id="forXMLParser-sit">
      <path style="fill:#ffffff;fill-opacity:1;stroke:none;stroke-width:0.34982252px;stroke-linecap:butt;stroke-linejoin:miter;stroke-opacity:1" d="M168.802 173.957c-1.007 13.672.772 20.567-7.486 24.593s-75.866 7.819-79.485 9.03c-3.619 1.21-7.724 8.605-7.724 8.605l4.296-2.171-4.355 4.453 117.8-2.493s-3.815-16.406-8.184-24.02c-4.369-7.615-14.862-17.997-14.862-17.997z" id="tail-sit"/>
      <path style="fill:#ffffff;fill-opacity:1;stroke:none;stroke-width:0.34982249px;stroke-linecap:butt;stroke-linejoin:miter;stroke-opacity:1" d="M286.074 16.017c-8.998.176-17.491 7.679-19.625 11.945-2.133 4.266-5.119 15.358-8.532 27.303 0 0-.853 5.12-1.706 6.826-.853 1.707-5.546 4.266-7.679 5.546-2.133 1.28-3.413 4.693-5.973 5.972-2.56 1.28-10.665 2.987-16.21 3.413-20.311 2.388-30.354 15.785-39.676 31.997-4.266 5.119-11.546 14.993-17.064 36.688-5.776 22.706-3.898 39.38-.427 51.62 3.166 11.165 12.799 21.757 17.918 20.478 5.12-1.28 27.73-20.904 33.275-27.304 5.546-6.399 71.245-87.455 71.245-87.455l.853 2.986 1.28-7.252s.853 7.328.853-3.413c-.853-3.84-1.28-14.931-2.133-27.73-.853-12.798 2.876-15.308 5.435-17.015 3.845-1.271 5.386.085 10.089-2.578 2.162-1.72 3.3-2.927 4.948-6.08 1.128-2.48 2.513-6.071 2.513-7.176 0-2.133-2.72-3.172-6.132-4.878-2.005-1.022-.632-2.183-2.901-5.722-4.597-3.424-11.963-8.334-20.351-8.17z" id="body-sit"/>
    </g>
    <g transform="matrix(1.32216 0 0 1.32216 77.034 -77.61)" style="fill:#df7921;fill-opacity:1" id="hightPaw-sit">
      <path style="fill:#ffffff;fill-opacity:1;stroke:none;stroke-width:0.26458332px;stroke-linecap:butt;stroke-linejoin:miter;stroke-opacity:1" d="M140.262 109.17c10.062 6.404 17.38 16.771 17.685 18.906.305 2.134 1.22 12.806-6.708 24.393-7.928 11.587-10.977 16.16-10.977 18.6 0 2.44 3.354 43.298 3.354 43.298s2.757.025 4.891 2.464c2.134 2.44 2.427 5.77 2.427 5.77l-12.806-.306-12.169-41.477-.92 2.494.587-5.535c-4.164 12.142 1.492-13.618 1.525-13.721.914-3.05 5.793-20.43 5.793-25.613 0-5.184-2.744-18.295-2.744-21.65 0-3.353 10.062-7.622 10.062-7.622z" id="rightHightPaw1-sit"/>
      <path style="fill:#ffffff;fill-opacity:1;stroke:none;stroke-width:0.26458332px;stroke-linecap:butt;stroke-linejoin:miter;stroke-opacity:1" d="M120.087 174.694s7.25 8.944 6.588 11.41c-.66 2.467-1.656 10.29-11.273 17.687-9.617 7.397-15.535 12.082-15.535 12.082s16.028-.74 17.508-.246c1.48.493 6.164 7.644 6.164 7.644l-48.084.493-.986-1.726-2.22 1.726s.247-2.959.987-3.945c.74-.987-2.713.74-2.713.74s9.124-11.837 10.604-13.81c1.48-1.972-1.726-15.288-.74-19.233.986-3.945 9.617-17.754 15.781-19.48 6.165-1.726 23.92 6.658 23.92 6.658z" id="rightHightPaw2-sit"/>
    </g>
    <g id="eye-sit" transform="translate(101.002 -1.353) scale(1.375)">
      <path style="fill:#fa9e0c;fill-opacity:0.99745549;stroke:none;stroke-width:0.35168985px;stroke-linecap:butt;stroke-linejoin:miter;stroke-opacity:1" d="M148.07 23.82c.055-.294.49-1.053.218-1.895-.272-.843-1.032-1.517-1.032-1.517-1.466.379-3.095 1.18-3.366 1.432-.272.253 1.411 1.138 1.954 1.39.978.549 2.227.59 2.227.59z" id="iris"/>
      <path style="fill:#050f05;fill-opacity:1;stroke:none;stroke-width:0.35168985px;stroke-linecap:butt;stroke-linejoin:miter;stroke-opacity:1" d="M146.274 20.708c-.027.297-.063.568-.067.889-.006.526.02 1.008.084 1.188.064.18.237.553.41.839l.01.012c.174.042.31.114.455.137.067-.173.15-.371.211-.686a3.496 3.496 0 00-.007-1.432 2.438 2.438 0 00-.262-.703 2.208 2.208 0 00-.32-.428c-.178.051-.336.124-.513.184z" id="pupil"/>
      <path style="fill:#f1faf0;fill-opacity:1;stroke:none;stroke-width:0.71787226px;stroke-linecap:butt;stroke-linejoin:miter;stroke-opacity:1" d="M146.214 21.452c.623.131.796.462.511.762-.284.3-.923.26-.913-.06.01-.318.402-.702.402-.702z" id="flare"/>
      <path id="lash" d="M143.826 21.896s-.052-.182.104-.312c.155-.13 1.325-.78 1.818-.961.494-.182 1.3-.416 1.481-.442.182-.026.416.104.65.104h.233s-.363.156-.441.156c-.078 0-.234-.078-.234-.078l.338.26-.546-.182s-2.208.702-3.403 1.455z" style="fill:#cabebc;fill-opacity:1;stroke:none;stroke-width:0.30238095px;stroke-linecap:butt;stroke-linejoin:miter;stroke-opacity:1"/>
    </g>
    <g transform="translate(99.978 .042) scale(1.36723)" id="ears-sit">
      <path style="fill:#e3dcdb;fill-opacity:1;stroke:none;stroke-width:0.25586179px;stroke-linecap:butt;stroke-linejoin:miter;stroke-opacity:1" d="M139.87 11.46c1.925-2.685 4.36-4.813 6.716-7.1.41-.442 1.152-1.087.96-.32-.192.768-2.815 6.27-3.07 7.74-.1.568.123.915-.325 1.682-3.555-.79-4.422-.893-4.422-.893z" id="leftEar-sit"/>
      <path style="fill:#e3abb6;fill-opacity:1;stroke:none;stroke-width:0.25586179px;stroke-linecap:butt;stroke-linejoin:miter;stroke-opacity:1" d="M133.242 16.91s.178-1.307 1.07-2.258c.891-.951 1.307-1.308 1.604-1.783.298-.476.535-1.01.535-1.01s-.119 1.129-.297 1.723a63.014 63.014 0 00-.416 1.486s1.13-1.427 1.367-1.961c.238-.535.297-.773.297-.773s.12.832 0 1.13c-.119.296.476-.536.476-.536l-.06.595s-.206.673.713-.298c.92-.97 1.546.238 1.546.238l1.13-6.181.594-4.993L141.246.4l-4.082 5.276s-5.17 8.143-5.17 8.38c0 .238 1.247 2.854 1.247 2.854z" id="insideRightEar-sit"/>
      <path style="fill:#e3dcdb;fill-opacity:1;stroke:none;stroke-width:0.25586179px;stroke-linecap:butt;stroke-linejoin:miter;stroke-opacity:1" d="M125.87 20.129s1.914-5.013 3.828-7.383S141.155-.613 141.247.207c1.577.048-.52 12.083-.702 12.903-.182.82-.82.73-.82.183 0-.547 3.344-15.04 1.002-11.759-1.28 1.795-6.654 10.847-6.745 12.214-.091 1.368.274 2.553.274 3.19 0 .639-4.011 5.287-6.016 6.199-2.006.911-2.37-3.008-2.37-3.008z" id="rightEar-sit"/>
      <g style="opacity:0" id="border-sit">
        <path style="fill:#ffffff;fill-opacity:1;stroke:none;stroke-width:0.25586179px;stroke-linecap:butt;stroke-linejoin:miter;stroke-opacity:1" d="M141.192.113c-.158-.024-.83.596-1.765 1.558-1.263 2.112-2.804 5.259-3.118 5.747-.474.737-3.104 5.735-3.104 6.945 0 .817.15 2.023.534 3.413.307-.427.498-.753.498-.889 0-.638-.365-1.823-.274-3.19.091-1.368 5.465-10.42 6.746-12.214 2.342-3.282-1.003 11.211-1.003 11.758 0 .547.638.638.82-.182.183-.82 2.279-12.856.702-12.903-.003-.026-.015-.04-.036-.043z" id="rightBorder"/>
        <path style="fill:#ffffff;fill-opacity:1;stroke:none;stroke-width:0.25586179px;stroke-linecap:butt;stroke-linejoin:miter;stroke-opacity:1" d="M147.527 3.703c-.891 1.783-3.177 6.315-3.52 7.346-.348 1.045-.294 1.693-.434 2.251.169.043.394.08.576.127.448-.767.226-1.079.324-1.646.256-1.47 2.879-6.972 3.07-7.74.05-.198.037-.3-.016-.338z" id="leftBorder"/>
      </g>
    </g>
    <path id="lineFall-sit" d="M313.07 41.833c-.988.482-2.836 1.328-4.199 1.576-1.926.35-5.077-2.276-5.077-1.226 0 1.05.875 1.576 1.926 1.576 1.05 0 2.976 0 4.727-.35.94-.188 1.82-.726 2.443-1.187.06-.13.121-.259.18-.389z" style="fill:#e3dcdb;fill-opacity:1;stroke:none;stroke-width:0.34982252px;stroke-linecap:butt;stroke-linejoin:miter;stroke-opacity:1"/>
    <path id="nose-sit" d="M312.672 33.964s1.122-.612 1.836-.51c.714.102 1.02 0 1.02 0s.306.612.204 1.53c-.102.918-.51 1.53-.51 1.53l-.51-1.224s.904-.876.19-.774c-.714.102-.7.264-.7.264z" style="fill:#e3abb6;fill-opacity:1;stroke:none;stroke-width:0.34982252px;stroke-linecap:butt;stroke-linejoin:miter;stroke-opacity:1"/>
  </g>
  <g transform="translate(-702.27 .248) scale(.63448)" id="lyingCat">
    <g id="forXMLParser-lie">
      <path style="opacity:1;fill:#ffffff;fill-opacity:1;stroke:none;stroke-width:0.41577381px;stroke-linecap:butt;stroke-linejoin:miter;stroke-opacity:1" d="M-2.9 190.013c-3.57 11.661-1.903 14.755.714 17.373 2.618 2.618 11.662 7.378 23.086 8.568 11.424 1.19 115.862-.68 123.24-1.394.703-.068 1.779 1.149 3.293 1.417 3.81.673 12.366.489 16.449-.359 8.04-1.668 10.968-2.56 15.143-4.786.814-.434.227.186-.93-.978-.606-.608 1.795-.065 2.794.227.793 1.157 2.215-9.841 2.278-11.184 0-7.853-1.383-21.022-5.905-28.4s-6.664-9.282-13.804-12.614c-7.14-3.331-14.755-4.76-14.755-4.76s-16.422-10.947-44.981-14.755C67.246 137.596 11.21 150.267-2.9 190.013z" id="body-lie"/>
    </g>
    <g id="ears-lie">
      <path style="fill:#e3abb6;fill-opacity:1;stroke:none;stroke-width:0.41577381px;stroke-linecap:butt;stroke-linejoin:miter;stroke-opacity:1" d="M152.893 178.643s-.882-.992-2.646-1.103c-1.765-.11-3.53-.33-4.412-.882l-.882-.551s.772 1.433 1.764 1.985c.993.551 1.214.661 1.214.661l-3.86-.992s.44.551 1.544 1.103l1.102.551-4.632.331 1.875.662s-1.323.661-2.095.992c-.772.331-1.544 1.103-1.544 1.103l-1.434-1.764-1.433-7.61-.883-7.39v-2.867l.662-.772 2.095 1.103z" id="insideRightEar-lie"/>
      <path style="fill:#e3dcdb;fill-opacity:1;stroke:none;stroke-width:0.41577381px;stroke-linecap:butt;stroke-linejoin:miter;stroke-opacity:1" d="M152.26 179.572s-2.772-2.919-4.816-5.692c-2.043-2.773-7.297-9.778-8.902-10.8-1.606-1.022-2.482-1.022-1.752 4.087.73 5.108 1.606 10.946 2.335 12.697a20.02 20.02 0 001.606 3.065h-1.606s-1.892-8.366-2.113-10.241c-.22-1.875-1.102-9.485-.661-10.036.44-.552 1.323-.772 2.426-.11 1.103.661 7.058 5.293 9.043 6.065 1.985.772 7.61 5.845 7.83 6.397.221.551-.853 4.017-3.39 4.568z" id="rightEar-lie"/>
      <path style="fill:#e3abb6;fill-opacity:1;stroke:none;stroke-width:0.4684138px;stroke-linecap:butt;stroke-linejoin:miter;stroke-opacity:1" d="M174.424 185.691s1.491 1.491 3.355 1.491c1.863 0 3.479-.496 3.479-.496l-2.237 1.615s.994-.497 2.112-.622c1.119-.124.87.249.87.249l-1.74.621 1.492.746-.994-.125s1.366 1.367 1.49 2.361c.125.994.25 4.473.498 5.094.248.622.497.249.497.249l4.348-5.467 4.1-5.467 1.74-3.23.373-2.361h-2.237l-10.934 2.112z" id="insideLeftEar-lie"/>
      <path style="fill:#e3dcdb;fill-opacity:1;stroke:none;stroke-width:0.4684138px;stroke-linecap:butt;stroke-linejoin:miter;stroke-opacity:1" d="M173.554 186.064s.746.497 1.491.497c.746 0 5.094-2.733 7.082-3.603 1.988-.87 10.064-2.733 11.058-2.236.994.497-1.987 5.84-2.857 6.957-.87 1.119-7.455 9.319-7.455 9.319l.248.994s8.698-11.928 9.692-13.543c.994-1.615 1.366-3.23.994-4.224-.373-.994-7.58.248-9.319.248-1.74 0-7.579 1.615-9.07 1.74-1.49.124-2.733 1.49-2.485 2.236.249.746.621 1.615.621 1.615z" id="leftEar-lie"/>
    </g>
    <path id="lash-lie" transform="matrix(.41577 0 0 .41577 -102.857 0)" d="M592.01 459.197s-.327.817.49 1.797 13.074 11.765 13.4 13.072c.327 1.308 1.143 3.596 1.143 3.596s.817-1.47 1.47-3.267c.654-1.798-8.005-9.315-8.005-9.315zm43.888 25.053c-2.132.005-3.943.206-4.279.84a25.29 25.29 0 00-1.435 3.283s2.243-.928 3.431-1.562c1.189-.635 17.409 1.22 18.684 1.168 1.275-.052 1.662-.842 1.662-.842l-10.063-2.356s-4.446-.54-8-.531z" style="fill:#cabebc;fill-opacity:1;stroke:none;stroke-width:1px;stroke-linecap:butt;stroke-linejoin:miter;stroke-opacity:1"/>
    <path id="nose-lie" d="M149.504 211.53s.901-.631 1.262-.722l.54-.135s.046-.585.631-.585c.586 0 .721.27.721.27l2.163-.18s-1.217-1.217-2.974-1.938c-1.757-.72-4.01-1.126-4.01-1.126l.856 1.261s.721.18.811.676c.09.27-.315.541-.315.541s.09.811.225 1.216c.135.406.09.721.09.721z" style="fill:#e3abb6;fill-opacity:1;stroke:none;stroke-width:0.41577381px;stroke-linecap:butt;stroke-linejoin:miter;stroke-opacity:1"/>
    <path id="shadow-lie" transform="matrix(.41577 0 0 .41577 -102.857 0)" d="M558.424 367.22c-1.721-.075-8.88 1.235-13.266 3.184-5.013 2.228-10.304 7.241-13.09 8.912-2.785 1.672-9.748-3.062-11.976-3.898-2.228-.836 5.849 10.305 7.799 15.318 1.95 5.014 5.848 22.839 6.127 27.852.278 5.013-1.95 25.066-1.95 25.066s0-.279-1.392-6.406c-1.393-6.127-7.52-21.445-18.104-36.764-10.583-15.318-30.916-27.851-30.916-27.851s-8.077-3.899-9.748-3.342c-1.67.557 21.446 13.37 28.688 21.725 7.241 8.355 17.267 24.23 21.445 35.927 4.178 11.698 6.407 25.345 5.85 29.801-.527 4.214-3.619 18.794-3.973 20.461.239-.627.604-1.381 1.018-2.184 2.804-6.765 6.853-20.226 6.853-20.226s3.341-19.774 3.899-24.787c.557-5.013-1.113-18.94-1.67-25.903-.557-6.962 4.177-21.445 8.076-26.459 3.899-5.013 16.71-9.75 16.71-10.306 0-.07-.134-.108-.38-.12zm9.15 90.708c-.87 1.783-2.976 6.346-2.976 8.886 0 3.174 2.039 7.483 2.039 7.483s-1.814-2.268-3.174-4.988c-.666-1.331-.785-2.44-.736-3.23-.28 1.257-.69 3.26-.85 5.497-.227 3.174 1.133 3.854 1.133 3.854s-2.494-1.36-2.947-3.4c-.454-2.041.226-2.721.226-2.721s-2.04 2.946-4.08 4.08c-2.04 1.133-8.389 3.175-8.389 3.175s7.709.453 11.336 1.36c3.628.907 14.51 3.4 14.51 3.4l-3.855-6.347s-1.812-3.855-2.946-9.069c-.811-3.732.114-6.622.71-7.98zm-4.847 8.15c.116-.526.283-1.303.283-1.303s-.233.478-.283 1.303zm-38.924 11.455c-.127.238-.256.481-.37.658-1.882 2.93-3.45 5.543-4.822 8.079-3.784 1.46-30.316-3.071-76.931.558-28.658.973-72.673 6.385-104.264 9.932.86 4.089 1.5 7 1.72 7.66.562 1.683 6.607 7.138 14.983 14.107 34.34-1.117 78.6-2.555 119.797-2.17 65.84.616 112.328.486 120.248-.28.404-.04.862.103 1.37.343-3.176-2.944-6.664-6.652-8.042-9.82-2.785-6.406-10.361-19.532-10.361-19.532s-6.627 5.328-11.64 5.05c-.321-.018-.777-.094-1.339-.214-1.853-.2-16.677-1.836-21.998-3.326-5.667-1.587-10.43-4.76-10.43-4.76l5.669 6.121s-6.575-2.04-8.616-3.4c-2.04-1.36-2.947-4.988-2.947-4.988l-.226 4.08s-2.042-4.534-2.042-7.027c0-.268.096-.643.24-1.07z" style="opacity:1;fill:#e3dcdb;fill-opacity:1;stroke:none;stroke-width:1px;stroke-linecap:butt;stroke-linejoin:miter;stroke-opacity:1"/>
    <path id="tail-lie" d="M31.848 202.15c-3.57-.952-1.428-4.76-6.426-6.663-4.998-1.904-16.66.952-18.564 3.332s.408 10.855 4.216 13.472c3.808 2.618 12.444 5.33 24.106 5.567 11.661.238 34.985-.952 44.504-1.428 9.52-.476 30.94-1.19 34.986-.952 4.046.238 17.85.476 17.85.476s-.875-3.51-2.183-4.672c-1.307-1.162 1.453-.435 1.453-.435s-3.051-3.197-6.102-4.65c-3.051-1.453-23.247-3.923-26.298-3.777-3.051.145-51.143 2.179-51.143 2.179s-11.46-.414-16.4-2.449z" style="fill:#ffffff;fill-opacity:1;stroke:none;stroke-width:0.41577381px;stroke-linecap:butt;stroke-linejoin:miter;stroke-opacity:1"/>
  </g>
  <g id="walkingCat-1" transform="matrix(.87241 0 0 .87241 -593.442 .262)">
    <g id="lowPaw-1">
      <path style="fill:#e3dcdb;fill-opacity:1;stroke:none;stroke-width:0.28825104px;stroke-linecap:butt;stroke-linejoin:miter;stroke-opacity:1" d="M752.559 60.785c-.827.006-1.711.063-2.65.168-3.76.42-8.406 1.605-13.77 3.315 0 0-3.046 2.313-5.084 4.898-2.038 2.585-2.148 8.263-1.545 11.707 1.151 8.63 6.04 16.28 9.717 22.518 0 5.43-2.523 13.772-2.329 15.324 2.595 5.586 7.191 10.74 10.975 15.568 2.312 1.586 3.413 1.657 5.451 2.063 1.441-1.984 1.413-2.535 1.028-5.268-2.897-2.934-4.532-6.47-6.309-10.012.041-.013.084-.023.125-.037.34-.631 5.176-9.676 10.008-19.437 1.356-2.132 6.437-19.922 6.959-23.371 1.024-9.497-3.136-13.302-6.776-15.996-1.364-1.01-3.321-1.457-5.8-1.44z" transform="matrix(1.14625 0 0 1.14625 -706.727 -.3)" id="leftLowPaw2-1"/>
      <path style="fill:#e3dcdb;fill-opacity:1;stroke:none;stroke-width:0.262328px;stroke-linecap:butt;stroke-linejoin:miter;stroke-opacity:1" d="M799.996 60.043c-.586 2.656 4.142 11.956 4.123 14.848-1.436 8.613-1.766 16.002-3.29 20.262.645 7.157 1.147 8.458 1.75 16.67.707 5.146 1.09 9.532 1.614 12.88-2.842 1.323-8.415 3.448-8.316 3.764.3.959 1.091 2.811 3.228 4.062 3.616.545 6.569-1.052 8.909-3.15a56.008 56.008 0 002.16-2.074c1.089-9.355 1.507-20.225 2.855-29.834 1.886-3.704 7.014-13.654 7.899-17.172 1.05-4.18-.327-12.706-5.664-18.824-2.585-2.733-6.441-4.705-9.622-5.156-2.103.676-4.746 1.38-5.646 3.724z" transform="matrix(1.14625 0 0 1.14625 -706.727 -.3)" id="leftLowPaw1-1"/>
    </g>
    <g id="forXMLParser-1">
      <path id="body-1" transform="matrix(1.14625 0 0 1.14625 -706.727 -.3)" d="M842.527 48.475c-.278.01-.554.06-.832.084-1.328.11-2.646.325-3.927.67-3.33.686-6.084 1.773-7.487 2.646-8.353 3.84-11.091 4.351-16.15 4.293-1.149-.013-2.26-.038-3.879.008-.003.001-.012.01-.014.011-17.084-2.839-8.617.182-23.853 1.229-2.136.097-42.183-2.23-48.854 1.424-6.671 3.653-8.578 5.4-10.008 6.988-1.43 1.589-4.773 8.25-4.773 8.25s-1.806 8.674-.18 13.553c1.626 4.878 4.698 7.949 9.938 9.756 5.24 1.807 19.874 1.807 22.765 1.627 2.891-.181 30.357-2.712 40.114-.543 4.108.913 9.812-.305 15.287-3.262 14.36-8.04 15.282-13.791 30.924-24.193 4.713-1.255 10.682.345 14.351-2.153.835-.83 5.069-7.011 5.072-8.468.004-1.458-4.208-2.928-4.519-3.397-1.034-1.925.118-2.44-2.014-4.096-2.131-1.656-4.63-3.237-5.949-3.677-1.487-.497-3.715-.765-6.012-.75z" style="fill:#ffffff;fill-opacity:1;stroke:none;stroke-width:0.26380104px;stroke-linecap:butt;stroke-linejoin:miter;stroke-opacity:1"/>
      <path id="tail-1" d="M121.822 90.856s6.456-9.716 10.206-12.342c3.75-2.627 14.86-5.135 18.626-6.27 3.767-1.135 7.128-2.961 5.414-5.03-1.713-2.07-11.056-1.67-15.724-1.221-4.669.449-13.682 3.73-17.918 7.355-4.236 3.626-25.651 35.305-32.16 38.065-6.738 4.168-13.579 4.487-15.78 4.328-2.202-.16-7.104-1.328-7.104-1.328s-.903 1.232.03 2.75c.933 1.517 2.783 3.025 2.783 3.025l-2.026-.834s-.355 1.043 2.225 2.298c2.58 1.255 6.436 1.763 9.92 1.786 3.484.023 10.793-2.195 13.522-4.059 2.73-1.863 12.729-9.611 14.84-12.079 2.113-2.467 13.146-16.444 13.146-16.444z" style="fill:#ffffff;fill-opacity:1;stroke:none;stroke-width:0.30238095px;stroke-linecap:butt;stroke-linejoin:miter;stroke-opacity:1"/>
    </g>
    <g id="hightPaw-1">
      <path style="fill:#ffffff;fill-opacity:1;stroke:none;stroke-width:0.26380101px;stroke-linecap:butt;stroke-linejoin:miter;stroke-opacity:1" d="M800.943 54.52c-1.134.017-3.714.962-4.161 1.733-.854 2.615 2.412 15.989 2.099 18.895-.313 2.907-4.972 15.794-5.14 16.751-1.235 2.425-2.507 2.47-3.114 4.501.018 4.535.129 10.836.445 18.334.288 7.102 1.127 16.964 1.13 22.985.113.21.213.357.29.379.68.194 10.536.19 10.604-.291a7.118 7.118 0 00-1.168-5.057c-2.946-1.439-3.75.957-3.198-1.902.057-.299 5.692-29.9 6.168-30.7 3.63-7.23 10.314-9.325 13.069-15.392 1.471-4.1-1.755-19.503-6.444-26.188-.583-.785-1.127-3.023-4.67-3.789-.798-.172-5.23-.27-5.91-.26z" transform="matrix(1.14625 0 0 1.14625 -706.727 -.3)" id="rightHightPaw1-1"/>
      <path style="fill:#ffffff;fill-opacity:1;stroke:none;stroke-width:0.26380104px;stroke-linecap:butt;stroke-linejoin:miter;stroke-opacity:1" d="M752.629 59.508c-4.828.109-11.811 1.2-15.303 2.945-4.655 2.328-11.057 7.178-13.967 12.027-2.91 4.85-1.94 9.698-1.164 18.815.37 4.354-.064 7.666-.8 10.238a19.986 19.986 0 01-2.885 6.057c-1.357 2.408-5.056 3.58-5.244 6.3-2.006 7.099-3.986 15.226-4.377 21.288.97 1.358 11.638 0 11.638 0s-.39-4.074-2.523-4.85a7.962 7.962 0 00-1.693-.414c1.49-3.322 3.041-6.556 5.884-8.553 0 0 11.58-7.836 19.362-13.695 2.809-2.115 5.162-3.99 6.242-5.121 4.073-4.267 13.58-19.203 15.713-23.664 2.133-4.461 3.491-10.474 0-17.457 0 0-3.297-2.91-6.983-3.686-.921-.194-2.29-.267-3.9-.23z" transform="matrix(1.14625 0 0 1.14625 -706.727 -.3)" id="rightHightPaw2-1"/>
    </g>
    <g id="eye-1" transform="translate(124.36 42.213)">
      <path style="fill:#fa9e0c;fill-opacity:1;stroke:none;stroke-width:0.35168985px;stroke-linecap:butt;stroke-linejoin:miter;stroke-opacity:1" d="M148.07 23.82c.055-.294.49-1.053.218-1.895-.272-.843-1.032-1.517-1.032-1.517-1.466.379-3.095 1.18-3.366 1.432-.272.253 1.411 1.138 1.954 1.39.978.549 2.227.59 2.227.59z" id="iris-1"/>
      <path style="fill:#050f05;fill-opacity:1;stroke:none;stroke-width:0.35168985px;stroke-linecap:butt;stroke-linejoin:miter;stroke-opacity:1" d="M146.274 20.708c-.027.297-.063.568-.067.889-.006.526.02 1.008.084 1.188.064.18.237.553.41.839l.01.012c.174.042.31.114.455.137.067-.173.15-.371.211-.686a3.496 3.496 0 00-.007-1.432 2.438 2.438 0 00-.262-.703 2.208 2.208 0 00-.32-.428c-.178.051-.336.124-.513.184z" id="pupil-1"/>
      <path style="fill:#f1faf0;fill-opacity:1;stroke:none;stroke-width:0.71787226px;stroke-linecap:butt;stroke-linejoin:miter;stroke-opacity:1" d="M146.214 21.452c.623.131.796.462.511.762-.284.3-.923.26-.913-.06.01-.318.402-.702.402-.702z" id="flare-1"/>
      <path id="lash-1" d="M143.826 21.896s-.052-.182.104-.312c.155-.13 1.325-.78 1.818-.961.494-.182 1.3-.416 1.481-.442.182-.026.416.104.65.104h.233s-.363.156-.441.156c-.078 0-.234-.078-.234-.078l.338.26-.546-.182s-2.208.702-3.403 1.455z" style="fill:#cabebc;fill-opacity:1;stroke:none;stroke-width:0.30238095px;stroke-linecap:butt;stroke-linejoin:miter;stroke-opacity:1"/>
    </g>
    <g transform="translate(123.28 43.675) scale(.99435)" id="ears-1">
      <path style="fill:#e3dcdb;fill-opacity:1;stroke:none;stroke-width:0.25586179px;stroke-linecap:butt;stroke-linejoin:miter;stroke-opacity:1" d="M139.934 10.82c1.926-2.686 4.36-4.814 6.716-7.1.41-.443 1.152-1.088.96-.32-.192.767-2.815 6.268-3.07 7.74-.1.567.123.913-.325 1.681-3.555-.79-4.422-.893-4.422-.893z" id="leftEar-1"/>
      <path style="fill:#e3abb6;fill-opacity:1;stroke:none;stroke-width:0.25586179px;stroke-linecap:butt;stroke-linejoin:miter;stroke-opacity:1" d="M133.242 16.91s.178-1.307 1.07-2.258c.891-.951 1.307-1.308 1.604-1.783.298-.476.535-1.01.535-1.01s-.119 1.129-.297 1.723a63.014 63.014 0 00-.416 1.486s1.13-1.427 1.367-1.961c.238-.535.297-.773.297-.773s.12.832 0 1.13c-.119.296.476-.536.476-.536l-.06.595s-.206.673.713-.298c.92-.97 1.546.238 1.546.238l1.13-6.181.594-4.993L141.246.4l-4.082 5.276s-5.17 8.143-5.17 8.38c0 .238 1.247 2.854 1.247 2.854z" id="insideRightEar-1"/>
      <path style="fill:#e3dcdb;fill-opacity:1;stroke:none;stroke-width:0.25586179px;stroke-linecap:butt;stroke-linejoin:miter;stroke-opacity:1" d="M125.87 20.129s1.914-5.013 3.828-7.383S141.155-.613 141.247.207c1.577.048-.52 12.083-.702 12.903-.182.82-.82.73-.82.183 0-.547 3.344-15.04 1.002-11.759-1.28 1.795-6.654 10.847-6.745 12.214-.091 1.368.274 2.553.274 3.19 0 .639-4.011 5.287-6.016 6.199-2.006.911-2.37-3.008-2.37-3.008z" id="rightEar-1"/>
    </g>
    <path id="nose-1" d="M278.073 68.503s.816-.445 1.336-.371c.519.074.741 0 .741 0s.223.445.149 1.113a2.723 2.723 0 01-.371 1.112l-.371-.89s.657-.637.138-.563c-.52.074-.509.192-.509.192z" style="fill:#e3abb6;fill-opacity:1;stroke:none;stroke-width:0.25441638px;stroke-linecap:butt;stroke-linejoin:miter;stroke-opacity:1"/>
    <path style="fill:#e3dcdb;fill-opacity:1;stroke:none;stroke-width:0.25441638px;stroke-linecap:butt;stroke-linejoin:miter;stroke-opacity:1" d="M277.597 74.217c-.718.35-2.062.966-3.054 1.146-1.4.255-3.692-1.655-3.692-.891 0 .763.637 1.145 1.4 1.145.765 0 2.165 0 3.438-.254.684-.137 1.325-.528 1.777-.864.044-.094.089-.188.131-.282z" id="lineFall-1"/>
  </g>
  <g transform="matrix(.87241 0 0 .87241 -372.866 .262)" id="walkingCat-2">
    <g id="lowPaw-2">
      <path style="fill:#e3dcdb;fill-opacity:1;stroke:none;stroke-width:0.26380101px;stroke-linecap:butt;stroke-linejoin:miter;stroke-opacity:1" d="M973.508 60.893c-1.662-.077-3.635.273-5.89.98-3.61 1.132-7.943 3.183-12.882 5.887 0 0-2.547 2.854-4.052 5.781-1.506 2.927-.527 8.522.724 11.787 4.415 5.78 11.022 13.259 13.156 17.293.355 5.42-1.615 13.91-1.32 15.445 6.987 9.38 9.176 10.747 14.195 15.336 2.98 1.554 5.135 3.502 7.657 3.779 1.499-2.624 1.462-3.22.425-5.476-3.986-3.859-3.616-3.408-5.34-4.89l-5.45-7.381c3.045-7.371 6.147-11.993 8.669-18.474 1.452-9.69 2.842-20.653 2.467-25.054-.811-9.517-5.623-12.456-9.71-14.404-.767-.365-1.652-.564-2.65-.61z" transform="matrix(1.14625 0 0 1.14625 -959.561 -.3)" id="leftLowPaw2-2"/>
      <path style="fill:#e3dcdb;fill-opacity:1;stroke:none;stroke-width:0.262328px;stroke-linecap:butt;stroke-linejoin:miter;stroke-opacity:1" d="M1022.564 57.432a7.071 7.071 0 00-.61.047c-2.481.3-4.304 1.97-4.452 6.021.12 2.718 7.091 10.482 7.82 13.28.73 2.797-3.156 16.746-2.976 17.69 2.689 7.228 6.366 13.21 10.152 20.426 2.351 4.425 4.316 8.079 5.932 10.997-.471 2.677-1.326 9.313-.94 9.423a7.12 7.12 0 005.17-.459c1.496-1.907 2.556-5.393 3.105-9.54 0 0-4.897-20.064-6.513-27.018.857-6.846 3.612-13.727 3.705-20.639-.065-4.308-3.6-12.19-10.336-16.723-3.003-1.849-6.948-3.611-10.057-3.505z" transform="matrix(1.14625 0 0 1.14625 -959.561 -.3)" id="leftLowPaw1-2"/>
    </g>
    <g id="forXMLParser-2">
      <path id="body-2" transform="matrix(1.14625 0 0 1.14625 -959.561 -.3)" d="M1063.861 49.99c-.278.01-.554.061-.832.084.037.083.071.167.108.25-.963.064-1.922.167-2.864.36-3.364.482-6.18 1.399-7.632 2.185-6.878 3.489-10.356 3.849-21.827 3.318-17.084-2.839-8.618.182-23.854 1.229-2.136.097-42.184-2.23-48.855 1.424-6.671 3.653-8.576 5.4-10.006 6.988-1.43 1.589-4.773 8.25-4.773 8.25s-1.806 8.674-.18 13.553c1.626 4.878 4.698 7.949 9.938 9.756 5.24 1.807 19.874 1.807 22.765 1.627 2.891-.181 30.356-2.712 40.113-.543 4.109.913 9.813-.305 15.288-3.262 11.632-6.726 12.693-11.507 32.318-22.865-.042.05-.08.102-.121.154 3.428-.332 11.048-.013 13.84-2.12.835-.83 5.068-7.013 5.072-8.47 0-1.457-4.209-2.925-4.52-3.394-1.034-1.926.118-2.44-2.013-4.096-2.132-1.657-4.63-3.24-5.95-3.68-1.487-.497-3.715-.763-6.011-.748z" style="fill:#ffffff;fill-opacity:1;stroke:none;stroke-width:0.26380101px;stroke-linecap:butt;stroke-linejoin:miter;stroke-opacity:1"/>
      <path style="fill:#ffffff;fill-opacity:1;stroke:none;stroke-width:0.30238095px;stroke-linecap:butt;stroke-linejoin:miter;stroke-opacity:1" d="M121.935 90.561s6.766-9.503 10.598-12.008c3.833-2.504 15.017-4.654 18.818-5.667 3.8-1.013 7.219-2.73 5.573-4.854s-10.996-2.024-15.677-1.726c-4.68.299-13.795 3.288-18.145 6.776-4.351 3.488-26.773 34.461-33.368 37.01-6.868 3.95-13.716 4.049-15.911 3.819-2.196-.23-7.057-1.556-7.057-1.556s-.943 1.203-.059 2.75c.884 1.546 2.685 3.113 2.685 3.113l-1.998-.899s-.389 1.031 2.15 2.369c2.539 1.337 6.376 1.969 9.857 2.104 3.48.135 10.858-1.848 13.646-3.622 2.788-1.775 13.03-9.197 15.22-11.596 2.191-2.398 13.668-16.013 13.668-16.013z" id="tail-2"/>
    </g>
    <g id="hightPaw-2">
      <path style="fill:#ffffff;fill-opacity:1;stroke:none;stroke-width:0.26380101px;stroke-linecap:butt;stroke-linejoin:miter;stroke-opacity:1" d="M1021.283 55.629c-.834.03-1.513.29-1.931.867-1.113 2.515-.943 16.606-1.547 19.467-1.322 6.66-6.43 13.252-8.864 18.013-.692 1.037-1.647 2.178-1.392 2.376a487.067 487.067 0 00-1.01 18.564c-.417 11.499-.6 19.039-.223 20.871.149 1.01.155 1.35 1.096 1.742.68.195 10.536.19 10.604-.29a7.119 7.119 0 00-1.168-5.057c-1.917-.958-3.115-1.094-3.819-1.034 3.08-9.546 5.492-21.416 8.41-30.095 2.114-1.896 12.66-9.99 14.387-13.608 1.877-3.93.22-19.58-3.771-26.703-.502-.84-4.468-3.493-7.916-4.611-1.035-.336-2.022-.533-2.856-.502z" transform="matrix(1.14625 0 0 1.14625 -959.561 -.3)" id="rightHightPaw1-2"/>
      <path style="fill:#ffffff;fill-opacity:1;stroke:none;stroke-width:0.26380101px;stroke-linecap:butt;stroke-linejoin:miter;stroke-opacity:1" d="M970.176 60.033c-3.79.01-7.748.388-10.203 1.25-4.911 1.725-11.87 5.73-15.366 10.176-3.495 4.445-3.144 9.378-3.52 18.52-.99 6.542-1.889 12.883-5.599 18.285-1.173 1.695-3.68 3.68-5.011 4.962-2.781 6.66-6.686 14.052-8.483 20.151-.398 1.474-.324 2.502.084 3.8.97 1.359 11.639 0 11.639 0s-.39-4.073-2.524-4.849a7.942 7.942 0 00-1.742-.42l5.088-6.924c9.748-7.286 21.83-13.922 30.537-20.627 4.578-3.721 15.884-17.346 18.561-21.504 2.677-4.157 4.78-9.952 2.193-17.318 0 0-2.906-3.3-6.464-4.533-1.78-.616-5.4-.978-9.19-.969z" transform="matrix(1.14625 0 0 1.14625 -959.561 -.3)" id="rightHightPaw2-2"/>
    </g>
    <g transform="translate(125.228 43.95)" id="eye-2">
      <path id="iris-2" d="M148.07 23.82c.055-.294.49-1.053.218-1.895-.272-.843-1.032-1.517-1.032-1.517-1.466.379-3.095 1.18-3.366 1.432-.272.253 1.411 1.138 1.954 1.39.978.549 2.227.59 2.227.59z" style="fill:#fa9e0c;fill-opacity:1;stroke:none;stroke-width:0.35168985px;stroke-linecap:butt;stroke-linejoin:miter;stroke-opacity:1"/>
      <path id="pupil-2" d="M146.274 20.708c-.027.297-.063.568-.067.889-.006.526.02 1.008.084 1.188.064.18.237.553.41.839l.01.012c.174.042.31.114.455.137.067-.173.15-.371.211-.686a3.496 3.496 0 00-.007-1.432 2.438 2.438 0 00-.262-.703 2.208 2.208 0 00-.32-.428c-.178.051-.336.124-.513.184z" style="fill:#050f05;fill-opacity:1;stroke:none;stroke-width:0.35168985px;stroke-linecap:butt;stroke-linejoin:miter;stroke-opacity:1"/>
      <path id="flare-2" d="M146.214 21.452c.623.131.796.462.511.762-.284.3-.923.26-.913-.06.01-.318.402-.702.402-.702z" style="fill:#f1faf0;fill-opacity:1;stroke:none;stroke-width:0.71787226px;stroke-linecap:butt;stroke-linejoin:miter;stroke-opacity:1"/>
      <path style="fill:#cabebc;fill-opacity:1;stroke:none;stroke-width:0.30238095px;stroke-linecap:butt;stroke-linejoin:miter;stroke-opacity:1" d="M143.826 21.896s-.052-.182.104-.312c.155-.13 1.325-.78 1.818-.961.494-.182 1.3-.416 1.481-.442.182-.026.416.104.65.104h.233s-.363.156-.441.156c-.078 0-.234-.078-.234-.078l.338.26-.546-.182s-2.208.702-3.403 1.455z" id="lash-2"/>
    </g>
    <g id="ears-2" transform="translate(124.148 45.41) scale(.99435)">
      <path id="leftEar-2" d="M139.934 10.82c1.926-2.686 4.36-4.814 6.716-7.1.41-.443 1.152-1.088.96-.32-.192.767-2.815 6.268-3.07 7.74-.1.567.123.913-.325 1.681-3.555-.79-4.422-.893-4.422-.893z" style="fill:#e3dcdb;fill-opacity:1;stroke:none;stroke-width:0.25586179px;stroke-linecap:butt;stroke-linejoin:miter;stroke-opacity:1"/>
      <path id="insideRightEar-2" d="M133.242 16.91s.178-1.307 1.07-2.258c.891-.951 1.307-1.308 1.604-1.783.298-.476.535-1.01.535-1.01s-.119 1.129-.297 1.723a63.014 63.014 0 00-.416 1.486s1.13-1.427 1.367-1.961c.238-.535.297-.773.297-.773s.12.832 0 1.13c-.119.296.476-.536.476-.536l-.06.595s-.206.673.713-.298c.92-.97 1.546.238 1.546.238l1.13-6.181.594-4.993L141.246.4l-4.082 5.276s-5.17 8.143-5.17 8.38c0 .238 1.247 2.854 1.247 2.854z" style="fill:#e3abb6;fill-opacity:1;stroke:none;stroke-width:0.25586179px;stroke-linecap:butt;stroke-linejoin:miter;stroke-opacity:1"/>
      <path id="rightEar-2" d="M125.87 20.129s1.914-5.013 3.828-7.383S141.155-.613 141.247.207c1.577.048-.52 12.083-.702 12.903-.182.82-.82.73-.82.183 0-.547 3.344-15.04 1.002-11.759-1.28 1.795-6.654 10.847-6.745 12.214-.091 1.368.274 2.553.274 3.19 0 .639-4.011 5.287-6.016 6.199-2.006.911-2.37-3.008-2.37-3.008z" style="fill:#e3dcdb;fill-opacity:1;stroke:none;stroke-width:0.25586179px;stroke-linecap:butt;stroke-linejoin:miter;stroke-opacity:1"/>
    </g>
    <path style="fill:#e3abb6;fill-opacity:1;stroke:none;stroke-width:0.25441638px;stroke-linecap:butt;stroke-linejoin:miter;stroke-opacity:1" d="M278.941 70.239s.816-.445 1.336-.371c.519.074.741 0 .741 0s.223.445.149 1.113a2.723 2.723 0 01-.371 1.112l-.371-.89s.657-.637.138-.563c-.52.075-.509.192-.509.192z" id="nose-2"/>
    <path id="lineFall-2" d="M278.465 75.953c-.718.35-2.062.966-3.053 1.146-1.401.255-3.693-1.655-3.693-.891s.637 1.146 1.4 1.146c.765 0 2.165 0 3.438-.255.684-.137 1.325-.528 1.777-.863.044-.095.089-.188.131-.283z" style="fill:#e3dcdb;fill-opacity:1;stroke:none;stroke-width:0.25441638px;stroke-linecap:butt;stroke-linejoin:miter;stroke-opacity:1"/>
  </g>
  <g id="walkingCat-3" transform="matrix(.87241 0 0 .87241 -42.48 .262)">
    <g id="lowPaw-3" transform="translate(-125.714)">
      <path style="fill:#e3dcdb;fill-opacity:1;stroke:none;stroke-width:0.26380101px;stroke-linecap:butt;stroke-linejoin:miter;stroke-opacity:1" d="M1192.768 62.588c-1.866-.074-4.11.532-6.696 1.701-3.446 1.558-7.5 4.115-12.076 7.395 0 0-2.186 3.14-3.328 6.228-1.142 3.087.503 8.52 2.139 11.611 8.337 7.58 14.238 11.3 15.144 15.586 1.005 5.338.071 14.002.549 15.49 3.223 6.023 7.253 12.157 10.268 16.6.97 1.358 11.638 0 11.638 0s-.388-4.072-2.521-4.847c-.948-.434-3.012-.514-3.664-.563-2.713.297-3.944-6.844-4.978-9.46 1.45-5.614 4.536-13.834 7.242-21.925.275-9.794.299-20.059-.604-24.382-1.951-9.35-7.082-11.688-11.375-13.13a6.211 6.211 0 00-1.738-.304z" transform="matrix(1.14625 0 0 1.14625 -1212.552 -.3)" id="leftLowPaw2-3"/>
      <path style="fill:#e3dcdb;fill-opacity:1;stroke:none;stroke-width:0.29380468px;stroke-linecap:butt;stroke-linejoin:miter;stroke-opacity:1" d="M209.348 67.712c-1.044.05-2.023.205-2.892.496-2.703.904-4.333 3.115-3.502 7.48.804 2.877 10.518 9.536 12.023 12.355 1.505 2.819.592 18.643 1.025 19.61.2.447 2.14 3.078 4.769 6.52 2.111 4.064 4.29 9.392 7.295 14.791 7.239 11.717 9.155 12.672 11.996 18.72 1.808 2.787 4.162 7.25 4.48 7.024.924-.658 3.459-2.284 4.001-4.945-.293-1.671-.28-1.834-1.486-4.396-3.13-9.129-12.612-26.594-13.943-36.544-.082-1.047 2.956-19.397 1.824-23.982-1.133-4.59-7.03-12.182-15.687-15.442-3.054-1.017-6.77-1.833-9.902-1.687z" id="leftLowPaw1-3"/>
    </g>
    <g id="forXMLParser-3">
      <path id="body-3" transform="matrix(1.14625 0 0 1.14625 -1338.266 -.3)" d="M1285.295 51.975c-.279.01-.554.06-.832.084.045.103.087.206.133.31-.34.024-.682.031-1.02.072-3.392.208-6.273.893-7.785 1.559-8.842 3.321-11.67 4.107-24.25 2.176l-.016.011c-17.084-2.839-8.618.182-23.854 1.229-2.136.097-42.182-2.23-48.853 1.424-6.671 3.653-8.576 5.4-10.006 6.988-1.43 1.589-4.773 8.25-4.773 8.25s-1.806 8.674-.18 13.553c1.626 4.878 4.698 7.949 9.937 9.756 5.24 1.807 19.875 1.807 22.766 1.627 2.891-.181 30.356-2.712 40.113-.543 4.109.913 9.81-.305 15.285-3.262 12.798-7.16 13.661-11.628 32.948-20.729 3.441-.327 11.024-.016 13.808-2.117.835-.83 5.069-7.011 5.073-8.468 0-1.458-4.209-2.928-4.52-3.397-1.034-1.925.118-2.44-2.014-4.096-2.131-1.656-4.63-3.239-5.949-3.68-1.487-.496-3.715-.762-6.012-.747z" style="fill:#ffffff;fill-opacity:1;stroke:none;stroke-width:0.26380101px;stroke-linecap:butt;stroke-linejoin:miter;stroke-opacity:1"/>
      <path id="tail-3" d="M-3.644 89.556s7.17-9.203 11.107-11.54c3.937-2.336 15.204-4 19.045-4.849 3.84-.848 7.33-2.417 5.777-4.61-1.552-2.192-10.899-2.496-15.588-2.4-4.69.097-13.924 2.69-18.421 5.986-4.497 3.297-28.236 33.274-34.934 35.536-7.032 3.649-13.878 3.452-16.061 3.128-2.184-.325-6.984-1.86-6.984-1.86s-.993 1.161-.177 2.745c.817 1.584 2.548 3.226 2.548 3.226l-1.958-.983s-.432 1.013 2.046 2.458c2.479 1.446 6.285 2.243 9.757 2.528 3.472.285 10.928-1.377 13.79-3.03 2.862-1.652 13.416-8.625 15.707-10.927 2.292-2.302 14.346-15.408 14.346-15.408z" style="fill:#ffffff;fill-opacity:1;stroke:none;stroke-width:0.30238095px;stroke-linecap:butt;stroke-linejoin:miter;stroke-opacity:1"/>
    </g>
    <g id="hightPaw-3" transform="translate(-125.714)">
      <path style="fill:#ffffff;fill-opacity:1;stroke:none;stroke-width:0.26380101px;stroke-linecap:butt;stroke-linejoin:miter;stroke-opacity:1" d="M1241.512 55.654c-.834-.027-1.53.185-1.987.733-1.284 2.432-2.088 16.502-2.888 19.314-.8 2.812-7.94 13.348-8.268 14.263-.616 2.1-3.764 3.614-3.678 5.095a487.216 487.216 0 00-3.355 18.084c-1.896 11.348-3.051 18.802-2.912 20.668.114 2.146.163 2.128.44 3.34.113.209.215.356.292.378.68.195 10.536.19 10.604-.29a7.123 7.123 0 00-1.17-5.057c-2.65-.957-3.798.514-3.084-1.696 4.775-8.96 8.385-21.041 12.69-29.252 1.508-1.3 13.567-9.196 15.624-12.834 2.144-3.792 1.573-19.518-1.916-26.9-.442-.873-4.215-3.792-7.578-5.146-1.009-.407-1.98-.673-2.814-.7z" id="rightHightPaw1-3" transform="matrix(1.14625 0 0 1.14625 -1212.552 -.3)"/>
      <path style="fill:#ffffff;fill-opacity:1;stroke:none;stroke-width:0.26380101px;stroke-linecap:butt;stroke-linejoin:miter;stroke-opacity:1" d="M1194.645 58.63c-4.618-.142-13.41 1.238-17.428 3.382-4.592 2.45-10.863 7.467-13.643 12.392-2.78 4.925-1.681 9.747-.664 18.84.402 3.59.23 6.473-.217 8.832a21.094 21.094 0 01-2.185 2.246c-1.61 1.425-4.303 2.573-5.88 3.524-1.752 3.322-4.624 14.78-5.386 18.203-1.577 2.963-3.388 9.09-3.388 9.09s3.887 1.28 5.455-.362c1.08-1.493 1.322-1.957 2.856-5.489l5.8-10.536c7.797-2.627 15.853-5.863 22.908-8.865 2.187-1.953 2.71-2.637 5.934-6.076 3.958-4.375 13.063-19.558 15.078-24.075 2.014-4.516 3.213-10.563-.463-17.45 0 0-3.373-2.821-7.078-3.499a11.732 11.732 0 00-1.697-.156z" transform="matrix(1.14625 0 0 1.14625 -1212.552 -.3)" id="rightHightPaw2-3"/>
    </g>
    <g id="eye-3" transform="translate(.341 46.224)">
      <path style="fill:#fa9e0c;fill-opacity:1;stroke:none;stroke-width:0.35168985px;stroke-linecap:butt;stroke-linejoin:miter;stroke-opacity:1" d="M148.07 23.82c.055-.294.49-1.053.218-1.895-.272-.843-1.032-1.517-1.032-1.517-1.466.379-3.095 1.18-3.366 1.432-.272.253 1.411 1.138 1.954 1.39.978.549 2.227.59 2.227.59z" id="iris-3"/>
      <path style="fill:#050f05;fill-opacity:1;stroke:none;stroke-width:0.35168985px;stroke-linecap:butt;stroke-linejoin:miter;stroke-opacity:1" d="M146.274 20.708c-.027.297-.063.568-.067.889-.006.526.02 1.008.084 1.188.064.18.237.553.41.839l.01.012c.174.042.31.114.455.137.067-.173.15-.371.211-.686a3.496 3.496 0 00-.007-1.432 2.438 2.438 0 00-.262-.703 2.208 2.208 0 00-.32-.428c-.178.051-.336.124-.513.184z" id="pupil-3"/>
      <path style="fill:#f1faf0;fill-opacity:1;stroke:none;stroke-width:0.71787226px;stroke-linecap:butt;stroke-linejoin:miter;stroke-opacity:1" d="M146.214 21.452c.623.131.796.462.511.762-.284.3-.923.26-.913-.06.01-.318.402-.702.402-.702z" id="flare-3"/>
      <path id="lash-3" d="M143.826 21.896s-.052-.182.104-.312c.155-.13 1.325-.78 1.818-.961.494-.182 1.3-.416 1.481-.442.182-.026.416.104.65.104h.233s-.363.156-.441.156c-.078 0-.234-.078-.234-.078l.338.26-.546-.182s-2.208.702-3.403 1.455z" style="fill:#cabebc;fill-opacity:1;stroke:none;stroke-width:0.30238095px;stroke-linecap:butt;stroke-linejoin:miter;stroke-opacity:1"/>
    </g>
    <g transform="translate(-.74 47.686) scale(.99435)" id="ears-3">
      <path style="fill:#e3dcdb;fill-opacity:1;stroke:none;stroke-width:0.25586179px;stroke-linecap:butt;stroke-linejoin:miter;stroke-opacity:1" d="M139.934 10.82c1.926-2.686 4.36-4.814 6.716-7.1.41-.443 1.152-1.088.96-.32-.192.767-2.815 6.268-3.07 7.74-.1.567.123.913-.325 1.681-3.555-.79-4.422-.893-4.422-.893z" id="leftEar-3"/>
      <path style="fill:#e3abb6;fill-opacity:1;stroke:none;stroke-width:0.25586179px;stroke-linecap:butt;stroke-linejoin:miter;stroke-opacity:1" d="M133.242 16.91s.178-1.307 1.07-2.258c.891-.951 1.307-1.308 1.604-1.783.298-.476.535-1.01.535-1.01s-.119 1.129-.297 1.723a63.014 63.014 0 00-.416 1.486s1.13-1.427 1.367-1.961c.238-.535.297-.773.297-.773s.12.832 0 1.13c-.119.296.476-.536.476-.536l-.06.595s-.206.673.713-.298c.92-.97 1.546.238 1.546.238l1.13-6.181.594-4.993L141.246.4l-4.082 5.276s-5.17 8.143-5.17 8.38c0 .238 1.247 2.854 1.247 2.854z" id="insideRightEar-3"/>
      <path style="fill:#e3dcdb;fill-opacity:1;stroke:none;stroke-width:0.25586179px;stroke-linecap:butt;stroke-linejoin:miter;stroke-opacity:1" d="M125.87 20.129s1.914-5.013 3.828-7.383S141.155-.613 141.247.207c1.577.048-.52 12.083-.702 12.903-.182.82-.82.73-.82.183 0-.547 3.344-15.04 1.002-11.759-1.28 1.795-6.654 10.847-6.745 12.214-.091 1.368.274 2.553.274 3.19 0 .639-4.011 5.287-6.016 6.199-2.006.911-2.37-3.008-2.37-3.008z" id="rightEar-3"/>
    </g>
    <path id="nose-3" d="M154.054 72.514s.816-.445 1.336-.371c.519.074.741 0 .741 0s.223.445.149 1.113a2.723 2.723 0 01-.371 1.112l-.371-.89s.657-.637.138-.563c-.52.075-.509.192-.509.192z" style="fill:#e3abb6;fill-opacity:1;stroke:none;stroke-width:0.25441638px;stroke-linecap:butt;stroke-linejoin:miter;stroke-opacity:1"/>
    <path style="fill:#e3dcdb;fill-opacity:1;stroke:none;stroke-width:0.25441638px;stroke-linecap:butt;stroke-linejoin:miter;stroke-opacity:1" d="M153.578 78.228c-.718.35-2.062.966-3.053 1.146-1.401.255-3.693-1.655-3.693-.891s.637 1.146 1.4 1.146c.765 0 2.165 0 3.438-.255.684-.137 1.325-.528 1.777-.863.044-.095.089-.188.131-.283z" id="lineFall-3"/>
  </g>
  <g transform="matrix(.87241 0 0 .87241 178.614 .262)" id="walkingCat-4">
    <g transform="translate(-125.714)" id="lowPaw-4">
      <path style="fill:#e3dcdb;fill-opacity:1;stroke:none;stroke-width:0.26380101px;stroke-linecap:butt;stroke-linejoin:miter;stroke-opacity:1" d="M1417.105 62.408c-1.867.014-4.08.725-6.607 2.014-3.37 1.718-7.299 4.463-11.717 7.953 0 0-2.035 3.24-3.031 6.377-.996 3.137.901 8.489 2.68 11.5 1.236 2.093 7.38 8.5 12.424 13.861.465 3.925-1.047 8.569-1.729 14.573 1.045 5.226 4.734 14.643 6.514 18.513.97 1.358 11.64 0 11.64 0s-.39-4.072-2.523-4.847c-1.302-.604-3.193-.364-4.286-.57-1.696-5.584-2.037-8.806-1.98-11.486 4.8-8.168 9.325-12.814 14.09-20.755.786-11.285-.64-20.051-1.745-24.328-2.388-9.249-7.625-11.341-11.98-12.58a6.206 6.206 0 00-1.75-.225z" transform="matrix(1.14625 0 0 1.14625 -1465.98 -.3)" id="leftLowPaw2-4"/>
      <path style="fill:#e3dcdb;fill-opacity:1;stroke:none;stroke-width:0.262328px;stroke-linecap:butt;stroke-linejoin:miter;stroke-opacity:1" d="M1464.645 57.105a7.079 7.079 0 00-.612.036c-2.486.25-4.342 1.877-4.574 5.925.064 2.72 6.872 10.626 7.543 13.438.671 2.812-3.5 16.68-3.34 17.629.086.51 1.387 3.81 3.322 8.414 1.61 5.187 3.01 10.408 4.319 14.547 2.291 8.075 4.201 15.01 7.277 20.45.675.213 10.527.465 10.607-.015a7.119 7.119 0 00-1.035-5.086c-1.242-.927-3.501-1.15-4.609-1.09-.456-.035-.662-.677-.664-.689-1.501-21.117-3.38-29.743-3.06-32.608.155-.947 4.774-16.002 4.798-20.306.024-4.309-3.348-12.262-9.99-16.932-2.964-1.91-6.872-3.754-9.982-3.713z" transform="matrix(1.14625 0 0 1.14625 -1465.98 -.3)" id="leftLowPaw1-4"/>
    </g>
    <g id="forXMLParser-4">
      <path id="body-4" transform="matrix(1.14625 0 0 1.14625 -1591.694 -.3)" d="M1506.793 53.732c-.279.01-.552.061-.83.084l.15.35c-3.169.04-5.881.5-7.351 1.037-8.315 3.218-10.487 3.52-19.006 3.23-2.59-.52-5.633-.918-9.768-2.343-13.163-.723-8.961.708-21.223 1.326-2.136.097-42.182-2.23-48.853 1.424-6.671 3.653-8.578 5.4-10.008 6.988-1.43 1.589-4.771 8.25-4.771 8.25s-1.808 8.674-.182 13.553c1.626 4.878 4.698 7.949 9.937 9.756 5.24 1.807 19.877 1.807 22.768 1.627 2.89-.181 30.354-2.712 40.111-.543 4.109.913 9.813-.305 15.287-3.262 15.448-8.155 15.793-10.949 32.303-18.81 4.771-1.211 11.144.256 14.857-2.276.836-.83 5.069-7.013 5.073-8.47 0-1.458-4.207-2.926-4.518-3.395-1.034-1.926.118-2.44-2.013-4.096-2.132-1.656-4.631-3.239-5.95-3.68-1.487-.497-3.717-.765-6.013-.75z" style="fill:#ffffff;fill-opacity:1;stroke:none;stroke-width:0.26380101px;stroke-linecap:butt;stroke-linejoin:miter;stroke-opacity:1"/>
      <path style="fill:#ffffff;fill-opacity:1;stroke:none;stroke-width:0.30238095px;stroke-linecap:butt;stroke-linejoin:miter;stroke-opacity:1" d="M-4.237 88.568s7.47-8.96 11.483-11.165c4.012-2.205 15.328-3.496 19.195-4.217 3.867-.721 7.406-2.173 5.927-4.416-1.48-2.243-10.81-2.856-15.5-2.915-4.69-.059-14.006 2.227-18.61 5.374-4.603 3.146-29.32 32.321-36.09 34.36-7.149 3.415-13.984 2.993-16.156 2.596-2.171-.397-6.918-2.089-6.918-2.089s-1.03 1.127-.267 2.737 2.44 3.309 2.44 3.309l-1.925-1.048s-.466.998 1.964 2.525 6.207 2.45 9.668 2.849c3.46.4 10.967-1.015 13.882-2.572 2.915-1.557 13.694-8.178 16.06-10.402 2.367-2.225 14.847-14.926 14.847-14.926z" id="tail-4"/>
    </g>
    <g transform="translate(-125.714)" id="hightPaw-4">
      <path style="fill:#ffffff;fill-opacity:1;stroke:none;stroke-width:0.26380101px;stroke-linecap:butt;stroke-linejoin:miter;stroke-opacity:1" d="M1461.643 55.996c-1.135-.025-2.05.26-2.526 1.014-.95 2.58.12 16.632-.3 19.525-.421 2.893-9.444 14.385-9.647 15.336-.193 1.705-.23 2.974-.082 5.125 1.02 6.07 1.686 12.284 2.428 17.287.778 5.225 1.441 9.502 2.011 12.897-2.157 1.9-6.678 6.224-6.455 6.543a7.114 7.114 0 004.303 2.898c1.115-.296 3.273-1.552 3.746-1.777l5.711-5.346c.02-.247 1.662-20.106 2.48-27.92 4.051-5.209 11.485-8.836 14.225-14.734 1.622-4.043-1.03-19.555-5.467-26.408-.554-.807-4.68-3.202-8.193-4.098-.79-.202-1.55-.327-2.23-.342z" transform="matrix(1.14625 0 0 1.14625 -1465.98 -.3)" id="rightHightPaw1-4"/>
      <path style="fill:#ffffff;fill-opacity:1;stroke:none;stroke-width:0.26380101px;stroke-linecap:butt;stroke-linejoin:miter;stroke-opacity:1" d="M1414.844 57.518c-3.766.015-14.14 3.435-18.203 6.689-4.063 3.254-9.303 9.34-11.13 14.691-1.825 5.353.142 9.89 2.815 18.641a33.34 33.34 0 011.147 5.088 21.129 21.129 0 01-2.27 2.428c-1.805 1.644-4.631 3.228-6.087 3.705-.62.203-.431.978-.343 1.604 1.16 7.007 4.215 12.3 8.888 21.344.942 2.973 2.52 5.976 2.52 5.976s3.832-1.436 4.026-3.698c.194-2.262-.584-3.658-.584-3.658-1.028-2.423-1.133-2.655-1.494-4.135l-3.098-9.153c4.116-1.614 11.975-3.779 18.614-6.735l-.01-.002c.501-.298.742-.465 1.442-1.102 2.302-2.657 3.83-4.707 4.648-6.04 3.086-5.029 9.241-21.628 10.39-26.438 1.15-4.81 1.213-10.975-3.668-17.069 0 0-3.835-2.152-7.601-2.136z" transform="matrix(1.14625 0 0 1.14625 -1465.98 -.3)" id="rightHightPaw2-4"/>
    </g>
    <g transform="translate(.806 48.24)" id="eye-4">
      <path id="iris-4" d="M148.07 23.82c.055-.294.49-1.053.218-1.895-.272-.843-1.032-1.517-1.032-1.517-1.466.379-3.095 1.18-3.366 1.432-.272.253 1.411 1.138 1.954 1.39.978.549 2.227.59 2.227.59z" style="fill:#fa9e0c;fill-opacity:1;stroke:none;stroke-width:0.35168985px;stroke-linecap:butt;stroke-linejoin:miter;stroke-opacity:1"/>
      <path id="pupil-4" d="M146.274 20.708c-.027.297-.063.568-.067.889-.006.526.02 1.008.084 1.188.064.18.237.553.41.839l.01.012c.174.042.31.114.455.137.067-.173.15-.371.211-.686a3.496 3.496 0 00-.007-1.432 2.438 2.438 0 00-.262-.703 2.208 2.208 0 00-.32-.428c-.178.051-.336.124-.513.184z" style="fill:#050f05;fill-opacity:1;stroke:none;stroke-width:0.35168985px;stroke-linecap:butt;stroke-linejoin:miter;stroke-opacity:1"/>
      <path id="flare-4" d="M146.214 21.452c.623.131.796.462.511.762-.284.3-.923.26-.913-.06.01-.318.402-.702.402-.702z" style="fill:#f1faf0;fill-opacity:1;stroke:none;stroke-width:0.71787226px;stroke-linecap:butt;stroke-linejoin:miter;stroke-opacity:1"/>
      <path style="fill:#cabebc;fill-opacity:1;stroke:none;stroke-width:0.30238095px;stroke-linecap:butt;stroke-linejoin:miter;stroke-opacity:1" d="M143.826 21.896s-.052-.182.104-.312c.155-.13 1.325-.78 1.818-.961.494-.182 1.3-.416 1.481-.442.182-.026.416.104.65.104h.233s-.363.156-.441.156c-.078 0-.234-.078-.234-.078l.338.26-.546-.182s-2.208.702-3.403 1.455z" id="lash-4"/>
    </g>
    <g id="ears-4" transform="translate(-.274 49.702) scale(.99435)">
      <path id="leftEar-4" d="M139.934 10.82c1.926-2.686 4.36-4.814 6.716-7.1.41-.443 1.152-1.088.96-.32-.192.767-2.815 6.268-3.07 7.74-.1.567.123.913-.325 1.681-3.555-.79-4.422-.893-4.422-.893z" style="fill:#e3dcdb;fill-opacity:1;stroke:none;stroke-width:0.25586179px;stroke-linecap:butt;stroke-linejoin:miter;stroke-opacity:1"/>
      <path id="insideRightEar-4" d="M133.242 16.91s.178-1.307 1.07-2.258c.891-.951 1.307-1.308 1.604-1.783.298-.476.535-1.01.535-1.01s-.119 1.129-.297 1.723a63.014 63.014 0 00-.416 1.486s1.13-1.427 1.367-1.961c.238-.535.297-.773.297-.773s.12.832 0 1.13c-.119.296.476-.536.476-.536l-.06.595s-.206.673.713-.298c.92-.97 1.546.238 1.546.238l1.13-6.181.594-4.993L141.246.4l-4.082 5.276s-5.17 8.143-5.17 8.38c0 .238 1.247 2.854 1.247 2.854z" style="fill:#e3abb6;fill-opacity:1;stroke:none;stroke-width:0.25586179px;stroke-linecap:butt;stroke-linejoin:miter;stroke-opacity:1"/>
      <path id="rightEar-4" d="M125.87 20.129s1.914-5.013 3.828-7.383S141.155-.613 141.247.207c1.577.048-.52 12.083-.702 12.903-.182.82-.82.73-.82.183 0-.547 3.344-15.04 1.002-11.759-1.28 1.795-6.654 10.847-6.745 12.214-.091 1.368.274 2.553.274 3.19 0 .639-4.011 5.287-6.016 6.199-2.006.911-2.37-3.008-2.37-3.008z" style="fill:#e3dcdb;fill-opacity:1;stroke:none;stroke-width:0.25586179px;stroke-linecap:butt;stroke-linejoin:miter;stroke-opacity:1"/>
    </g>
    <path style="fill:#e3abb6;fill-opacity:1;stroke:none;stroke-width:0.25441638px;stroke-linecap:butt;stroke-linejoin:miter;stroke-opacity:1" d="M154.52 74.53s.815-.445 1.335-.371c.519.074.742 0 .742 0s.222.445.148 1.113a2.723 2.723 0 01-.371 1.112l-.37-.89s.656-.637.137-.563c-.52.074-.509.192-.509.192z" id="nose-4"/>
    <path id="lineFall-4" d="M154.043 80.244c-.718.35-2.062.966-3.053 1.146-1.4.255-3.693-1.655-3.693-.891s.637 1.145 1.401 1.145 2.164 0 3.438-.254c.683-.137 1.324-.528 1.777-.864.043-.094.088-.188.13-.282z" style="fill:#e3dcdb;fill-opacity:1;stroke:none;stroke-width:0.25441638px;stroke-linecap:butt;stroke-linejoin:miter;stroke-opacity:1"/>
  </g>
  <g id="walkingCat-5" transform="matrix(.87241 0 0 .87241 398.185 .262)">
    <g id="lowPaw-5" transform="translate(-125.714)">
      <path style="fill:#e3dcdb;fill-opacity:1;stroke:none;stroke-width:0.26380101px;stroke-linecap:butt;stroke-linejoin:miter;stroke-opacity:1" d="M1625.02 60.367c-1.226-.023-3.98-.009-6.399.488-3.224.664-6.966 4.935-8.725 7.958-6.965 16.25-2.37 27.175-2.646 49.312 2.43 9.082 6.572 16.25 7.22 19.016.97 1.357 11.64 0 11.64 0s-.388-4.074-2.522-4.85c-1.671-.615-2.149-.633-4.287-.57-1.767-4.873-3.293-9.296-2.706-11.331 2.34-1.506 9.054-6.43 16.13-14.843 3.25-8.159 12.636-25.979 11.248-32.402-.523-2.203-2.497-4.317-5.642-6.418-3.146-2.102-7.461-4.19-12.664-6.34 0 0-.238-.012-.647-.02z" transform="matrix(1.14625 0 0 1.14625 -1717.662 -.3)" id="leftLowPaw2-5"/>
      <path style="fill:#e3dcdb;fill-opacity:1;stroke:none;stroke-width:0.262328px;stroke-linecap:butt;stroke-linejoin:miter;stroke-opacity:1" d="M1686.8 56.746c-2.089-.125-3.991 1.028-5.292 4.328-.79 2.603 3.203 12.242 2.96 15.123-.242 2.881-8.544 14.747-8.689 15.698-.08.522.127 4.146.541 9.285.813 4.524 1.762 9.919 2.227 13.767 1.255 10.715 2.352 17.148 2.696 19.876.14 1.237.295 1.81.457 2.808 1.54.213 10.096.378 10.177-.102a7.122 7.122 0 00-1.037-5.086c-1.84-1.393-3.525.92-3.207-2.056.772-9.024 1.721-21.062 3.539-30.741 1.588-2.633 8.39-13.04 9.637-16.755 1.371-4.085.657-12.694-4.19-19.207-2.365-2.925-5.776-6.114-8.912-6.809a5.796 5.796 0 00-.906-.129z" transform="matrix(1.14625 0 0 1.14625 -1717.662 -.3)" id="leftLowPaw1-5"/>
    </g>
    <g id="forXMLParser-5">
      <path id="body-5" transform="matrix(1.14625 0 0 1.14625 -1843.376 -.3)" d="M1726.115 52.959c-.279.01-.552.061-.83.084.04.09.075.18.115.271-.066.006-.131.002-.197.008-3.397.112-6.296.715-7.826 1.338-10.72 2.887-14.623 4.607-26.041 1.199-13.8-.356-7.764.51-23 1.557-2.136.097-42.182-2.23-48.853 1.424-6.672 3.653-8.577 5.4-10.006 6.988-1.43 1.589-4.774 8.25-4.774 8.25s18.388-13.886 20.014-9.008c1.626 4.879-15.496 30.51-10.256 32.317 5.24 1.807 19.875 1.807 22.766 1.627 2.89-.181 30.356-2.712 40.113-.543 4.108.913 9.81-.305 15.285-3.262 16.66-9.692 17.69-13.164 32.659-19.764 4.738-1.353 10.528.246 14.253-2.095.835-.83 5.069-7.014 5.073-8.471 0-1.457-4.209-2.925-4.52-3.395-1.034-1.925.118-2.439-2.013-4.095-2.132-1.657-4.63-3.24-5.948-3.68-1.487-.497-3.717-.765-6.013-.75z" style="fill:#ffffff;fill-opacity:1;stroke:none;stroke-width:0.26380101px;stroke-linecap:butt;stroke-linejoin:miter;stroke-opacity:1"/>
      <path id="tail-5" d="M-4.034 89.011s7.337-9.07 11.316-11.335c3.98-2.264 15.275-3.723 19.13-4.5 3.856-.779 7.373-2.283 5.861-4.504-1.512-2.22-10.851-2.695-15.542-2.684-4.69.01-13.97 2.434-18.527 5.648-4.556 3.215-28.838 32.753-35.576 34.892-7.098 3.52-13.94 3.199-16.116 2.834-2.178-.364-6.949-1.986-6.949-1.986s-1.014 1.143-.227 2.74c.788 1.599 2.488 3.273 2.488 3.273l-1.939-1.02s-.45 1.006 2.001 2.497c2.452 1.49 6.243 2.356 9.71 2.705 3.465.348 10.95-1.177 13.842-2.777 2.892-1.6 13.57-8.38 15.904-10.64 2.334-2.259 14.624-15.143 14.624-15.143z" style="fill:#ffffff;fill-opacity:1;stroke:none;stroke-width:0.30238095px;stroke-linecap:butt;stroke-linejoin:miter;stroke-opacity:1"/>
    </g>
    <g id="hightPaw-5" transform="translate(-125.714)">
      <path style="fill:#ffffff;fill-opacity:1;stroke:none;stroke-width:0.26380101px;stroke-linecap:butt;stroke-linejoin:miter;stroke-opacity:1" d="M1681.193 56.113c-1.465-.017-2.637.334-3.111 1.293-.676 2.666 1.85 16.53 1.732 19.451-.117 2.922-5.412 12.506-5.779 16.183-.501 1.372-2.1 3.495-2.12 3.962.131.423.276.858.402 1.248a487.451 487.451 0 005.854 17.375c1.907 5.346 3.502 9.754 4.761 13.059-2.28 2.11-5.194 4.961-5.013 5.22a7.12 7.12 0 004.304 2.9c1.563-.54 3.1-1.125 4.022-2.484.985-1.397 2.717-3.78 4.01-5.572-.028-.242-2.181-19.332-2.932-27.44h.01c1.161-1.618 11.028-12.127 12.172-16.146 1.193-4.19-3.06-19.34-8.186-25.695-.635-.745-4.99-2.697-8.576-3.223a11.717 11.717 0 00-1.547-.13z" transform="matrix(1.14625 0 0 1.14625 -1717.662 -.3)" id="rightHightPaw1-5"/>
      <path style="fill:#ffffff;fill-opacity:1;stroke:none;stroke-width:0.26380101px;stroke-linecap:butt;stroke-linejoin:miter;stroke-opacity:1" d="M1631.115 57.65c-2.87.026-6.17.238-7.898.985-3.458 1.494-10.269 7.674-12.727 12.261-4.71 13.127 1.357 24.933 7.908 33.252a22.946 22.946 0 01-1.437 1.454c-1.966 1.79-5.627 3.186-6.738 4.265 1.21 6.51 4.012 13.65 7.797 19.746-.251 3.147-.24 6.614-.24 6.614s3.484.105 5.117-1.92c1.84-3.525 1.202-5.263.81-7.75l-3.172-9.145c7.839-2.675 15.258-3.78 21.678-7.408 1.024-.58 2.02-1.18 2.97-1.78v-.003c1.074-3.349 1.914-6.238 2.143-7.786.863-5.835 0-23.52-.83-28.394-.833-4.875-3.194-10.567-10.076-14.254 0 0-2.44-.162-5.309-.137z" transform="matrix(1.14625 0 0 1.14625 -1717.662 -.3)" id="rightHightPaw2-5"/>
    </g>
    <g id="eye-5" transform="translate(.52 47.354)">
      <path style="fill:#fa9e0c;fill-opacity:1;stroke:none;stroke-width:0.35168985px;stroke-linecap:butt;stroke-linejoin:miter;stroke-opacity:1" d="M148.07 23.82c.055-.294.49-1.053.218-1.895-.272-.843-1.032-1.517-1.032-1.517-1.466.379-3.095 1.18-3.366 1.432-.272.253 1.411 1.138 1.954 1.39.978.549 2.227.59 2.227.59z" id="iris-5"/>
      <path style="fill:#050f05;fill-opacity:1;stroke:none;stroke-width:0.35168985px;stroke-linecap:butt;stroke-linejoin:miter;stroke-opacity:1" d="M146.274 20.708c-.027.297-.063.568-.067.889-.006.526.02 1.008.084 1.188.064.18.237.553.41.839l.01.012c.174.042.31.114.455.137.067-.173.15-.371.211-.686a3.496 3.496 0 00-.007-1.432 2.438 2.438 0 00-.262-.703 2.208 2.208 0 00-.32-.428c-.178.051-.336.124-.513.184z" id="pupil-5"/>
      <path style="fill:#f1faf0;fill-opacity:1;stroke:none;stroke-width:0.71787226px;stroke-linecap:butt;stroke-linejoin:miter;stroke-opacity:1" d="M146.214 21.452c.623.131.796.462.511.762-.284.3-.923.26-.913-.06.01-.318.402-.702.402-.702z" id="flare-5"/>
      <path id="lash-5" d="M143.826 21.896s-.052-.182.104-.312c.155-.13 1.325-.78 1.818-.961.494-.182 1.3-.416 1.481-.442.182-.026.416.104.65.104h.233s-.363.156-.441.156c-.078 0-.234-.078-.234-.078l.338.26-.546-.182s-2.208.702-3.403 1.455z" style="fill:#cabebc;fill-opacity:1;stroke:none;stroke-width:0.30238095px;stroke-linecap:butt;stroke-linejoin:miter;stroke-opacity:1"/>
    </g>
    <g transform="translate(-.56 48.815) scale(.99435)" id="ears-5">
      <path style="fill:#e3dcdb;fill-opacity:1;stroke:none;stroke-width:0.25586179px;stroke-linecap:butt;stroke-linejoin:miter;stroke-opacity:1" d="M139.934 10.82c1.926-2.686 4.36-4.814 6.716-7.1.41-.443 1.152-1.088.96-.32-.192.767-2.815 6.268-3.07 7.74-.1.567.123.913-.325 1.681-3.555-.79-4.422-.893-4.422-.893z" id="leftEar-5"/>
      <path style="fill:#e3abb6;fill-opacity:1;stroke:none;stroke-width:0.25586179px;stroke-linecap:butt;stroke-linejoin:miter;stroke-opacity:1" d="M133.242 16.91s.178-1.307 1.07-2.258c.891-.951 1.307-1.308 1.604-1.783.298-.476.535-1.01.535-1.01s-.119 1.129-.297 1.723a63.014 63.014 0 00-.416 1.486s1.13-1.427 1.367-1.961c.238-.535.297-.773.297-.773s.12.832 0 1.13c-.119.296.476-.536.476-.536l-.06.595s-.206.673.713-.298c.92-.97 1.546.238 1.546.238l1.13-6.181.594-4.993L141.246.4l-4.082 5.276s-5.17 8.143-5.17 8.38c0 .238 1.247 2.854 1.247 2.854z" id="insideRightEar-5"/>
      <path style="fill:#e3dcdb;fill-opacity:1;stroke:none;stroke-width:0.25586179px;stroke-linecap:butt;stroke-linejoin:miter;stroke-opacity:1" d="M125.87 20.129s1.914-5.013 3.828-7.383S141.155-.613 141.247.207c1.577.048-.52 12.083-.702 12.903-.182.82-.82.73-.82.183 0-.547 3.344-15.04 1.002-11.759-1.28 1.795-6.654 10.847-6.745 12.214-.091 1.368.274 2.553.274 3.19 0 .639-4.011 5.287-6.016 6.199-2.006.911-2.37-3.008-2.37-3.008z" id="rightEar-5"/>
    </g>
    <path id="nose-5" d="M154.234 73.643s.816-.445 1.335-.37c.52.074.742 0 .742 0s.223.444.148 1.112a2.723 2.723 0 01-.37 1.113l-.371-.89s.657-.638.138-.563c-.52.074-.51.192-.51.192z" style="fill:#e3abb6;fill-opacity:1;stroke:none;stroke-width:0.25441638px;stroke-linecap:butt;stroke-linejoin:miter;stroke-opacity:1"/>
    <path style="fill:#e3dcdb;fill-opacity:1;stroke:none;stroke-width:0.25441638px;stroke-linecap:butt;stroke-linejoin:miter;stroke-opacity:1" d="M153.758 79.357c-.719.351-2.063.966-3.054 1.146-1.4.255-3.692-1.655-3.692-.89 0 .763.636 1.145 1.4 1.145.764 0 2.165 0 3.438-.255.684-.136 1.324-.528 1.777-.863.044-.094.088-.188.13-.283z" id="lineFall-5"/>
  </g>
  <g transform="matrix(.87241 0 0 .87241 617.52 .262)" id="walkingCat-6">
    <g transform="translate(-125.714)" id="lowPaw-6">
      <path style="fill:#e3dcdb;fill-opacity:1;stroke:none;stroke-width:0.26380101px;stroke-linecap:butt;stroke-linejoin:miter;stroke-opacity:1" d="M1844.355 60.367c-1.225-.023-3.98-.009-6.398.488-3.224.664-6.968 4.935-8.727 7.958-1.222 2.1-1.234 11.996-3.449 21.64-2.224 8.582-4.066 17.607-5.66 23.924-.164 1.027-.079 2.47.11 3.277.484 6.587.998 13.098 2.332 19.537.97 1.358 11.639 0 11.639 0s-.388-4.071-2.522-4.847c-1.06-.169-2.039-.008-3.086-.246.073-3.76.085-6.548.918-10.3 8.295-5.824 16.919-12.66 21.3-17.681 6.903-6.601 13.547-26.567 12.501-30.973-.523-2.203-2.497-4.316-5.643-6.418-3.145-2.1-7.46-4.189-12.664-6.34 0 0-.238-.011-.646-.02z" transform="matrix(1.14625 0 0 1.14625 -1969.075 -.3)" id="path7741"/>
      <path style="fill:#e3dcdb;fill-opacity:1;stroke:none;stroke-width:0.262328px;stroke-linecap:butt;stroke-linejoin:miter;stroke-opacity:1" d="M1905.672 56.793c-1.752.034-3.435 1.111-4.846 3.805-1.064 2.503 1.875 12.515 1.326 15.353-.549 2.839-6.67 13.837-8.285 16.048-1.854 2.505-2.646 3.25-2.82 4.648-.342 4.211-.71 12.14-1.012 17.914-.564 10.772-.454 17.948-.187 20.234.15 1 .243 1.572.449 2.363.108.213.207.363.283.387.675.212 10.527.464 10.608-.016a7.122 7.122 0 00-1.038-5.086c-1.86-.99-3.046-1.168-3.755-1.134-.103.005-.213.007-.295.02.01-.02 7.703-27.867 8.3-29.849 1.463-1.592 11.453-13.632 13.282-17.126 1.8-3.915 2.01-12.55-2.112-19.545-2.039-3.162-5.087-6.694-8.13-7.721v-.002a5.215 5.215 0 00-1.768-.293z" transform="matrix(1.14625 0 0 1.14625 -1969.075 -.3)" id="path7743"/>
    </g>
    <g id="forXMLParser-6">
      <path id="body-6" transform="matrix(1.14625 0 0 1.14625 -2094.79 -.3)" d="M1945.295 51.975c-.279.01-.554.06-.832.084.045.103.087.206.133.31-.34.024-.682.031-1.02.072-3.392.208-6.273.893-7.785 1.559-10.27 3.074-13.013 3.585-24.84 2.232-14.653-1.421-8.044.137-23.28 1.184-2.136.097-42.182-2.23-48.853 1.424-6.671 3.653-8.576 5.4-10.006 6.988-1.43 1.589-4.773 8.25-4.773 8.25s18.387-13.886 20.013-9.008c1.626 4.879 10.002 24.266 15.242 26.073 5.24 1.806-5.623 8.051-2.732 7.87 2.891-.18 30.356-2.71 40.113-.542 4.109.913 9.81-.305 15.285-3.262 15.639-9.43 16.398-13.52 32.319-20.656 4.781-.779 10.774.304 14.437-2.19.835-.83 5.069-7.011 5.073-8.468 0-1.458-4.209-2.928-4.52-3.397-1.034-1.925.118-2.44-2.014-4.096-2.131-1.656-4.63-3.239-5.949-3.68-1.487-.496-3.715-.762-6.012-.747z" style="fill:#ffffff;fill-opacity:1;stroke:none;stroke-width:0.26380101px;stroke-linecap:butt;stroke-linejoin:miter;stroke-opacity:1"/>
      <path style="fill:#ffffff;fill-opacity:1;stroke:none;stroke-width:0.30238095px;stroke-linecap:butt;stroke-linejoin:miter;stroke-opacity:1" d="M-3.644 89.556s7.17-9.203 11.107-11.54c3.937-2.336 15.204-4 19.045-4.849 3.84-.848 7.33-2.417 5.777-4.61-1.552-2.192-10.899-2.496-15.588-2.4-4.69.097-13.924 2.69-18.421 5.986-4.497 3.297-28.236 33.274-34.934 35.536-7.032 3.649-13.878 3.452-16.061 3.128-2.184-.325-6.984-1.86-6.984-1.86s-.993 1.161-.177 2.745c.817 1.584 2.548 3.226 2.548 3.226l-1.958-.983s-.432 1.013 2.046 2.458c2.479 1.446 6.285 2.243 9.757 2.528 3.472.285 10.928-1.377 13.79-3.03 2.862-1.652 13.416-8.625 15.707-10.927 2.292-2.302 14.346-15.408 14.346-15.408z" id="tail-6"/>
    </g>
    <g transform="translate(-125.714)" id="hightPaw-6">
      <path style="fill:#ffffff;fill-opacity:1;stroke:none;stroke-width:0.26380101px;stroke-linecap:butt;stroke-linejoin:miter;stroke-opacity:1" d="M1900.834 56.506c-1.816.035-3.281.485-3.713 1.656-.392 2.722 3.582 16.241 3.773 19.158.192 2.918-4.387 13.333-6.24 17.012-.125 4.558 1.889 7.463 9.584 21.72 2.23 4.193 4.07 7.605 5.65 10.473-.418 2.499-1.226 9.594-.825 9.702.97.26 3.1.446 5.302-.686 6.621-11.503-2.556-19.483-3.174-35.068 1.552-2.434 9.475-13.03 10.159-16.97.744-4.291-5.082-18.91-10.85-24.689-.71-.673-5.245-2.154-8.867-2.298-.272-.011-.54-.015-.799-.01z" transform="matrix(1.14625 0 0 1.14625 -1969.075 -.3)" id="rightHightPaw1-6"/>
      <path style="fill:#ffffff;fill-opacity:1;stroke:none;stroke-width:0.26380101px;stroke-linecap:butt;stroke-linejoin:miter;stroke-opacity:1" d="M1851.557 58.162s-13.622 2.153-16.323 4.777c-2.7 2.625-5.371 6.39-6.039 11.551 1.807 12.817 4.971 9.772 24.082 34.627 2.429 4.462-.622 7.677-1.92 11.988.071.355.16.498.394.71 5.703 5.517 13.201 9.253 18.052 15.513 0 0 3.263-2.468 2.803-4.691-.32-2.166-1.696-3.37-3.11-4.79l-7.886-6.343c9.435-12.9 15.913-15.484 15.291-27.352-1.267-5.762-8.353-21.985-10.863-26.246-2.51-4.26-6.742-8.743-14.485-9.744z" transform="matrix(1.14625 0 0 1.14625 -1969.075 -.3)" id="rightHightPaw2-6"/>
    </g>
    <g transform="translate(.341 46.224)" id="eye-6">
      <path id="iris-6" d="M148.07 23.82c.055-.294.49-1.053.218-1.895-.272-.843-1.032-1.517-1.032-1.517-1.466.379-3.095 1.18-3.366 1.432-.272.253 1.411 1.138 1.954 1.39.978.549 2.227.59 2.227.59z" style="fill:#fa9e0c;fill-opacity:1;stroke:none;stroke-width:0.35168985px;stroke-linecap:butt;stroke-linejoin:miter;stroke-opacity:1"/>
      <path id="pupil-6" d="M146.274 20.708c-.027.297-.063.568-.067.889-.006.526.02 1.008.084 1.188.064.18.237.553.41.839l.01.012c.174.042.31.114.455.137.067-.173.15-.371.211-.686a3.496 3.496 0 00-.007-1.432 2.438 2.438 0 00-.262-.703 2.208 2.208 0 00-.32-.428c-.178.051-.336.124-.513.184z" style="fill:#050f05;fill-opacity:1;stroke:none;stroke-width:0.35168985px;stroke-linecap:butt;stroke-linejoin:miter;stroke-opacity:1"/>
      <path id="flare-6" d="M146.214 21.452c.623.131.796.462.511.762-.284.3-.923.26-.913-.06.01-.318.402-.702.402-.702z" style="fill:#f1faf0;fill-opacity:1;stroke:none;stroke-width:0.71787226px;stroke-linecap:butt;stroke-linejoin:miter;stroke-opacity:1"/>
      <path style="fill:#cabebc;fill-opacity:1;stroke:none;stroke-width:0.30238095px;stroke-linecap:butt;stroke-linejoin:miter;stroke-opacity:1" d="M143.826 21.896s-.052-.182.104-.312c.155-.13 1.325-.78 1.818-.961.494-.182 1.3-.416 1.481-.442.182-.026.416.104.65.104h.233s-.363.156-.441.156c-.078 0-.234-.078-.234-.078l.338.26-.546-.182s-2.208.702-3.403 1.455z" id="lash-6"/>
    </g>
    <g id="ears-6" transform="translate(-.74 47.686) scale(.99435)">
      <path id="leftEar-6" d="M139.934 10.82c1.926-2.686 4.36-4.814 6.716-7.1.41-.443 1.152-1.088.96-.32-.192.767-2.815 6.268-3.07 7.74-.1.567.123.913-.325 1.681-3.555-.79-4.422-.893-4.422-.893z" style="fill:#e3dcdb;fill-opacity:1;stroke:none;stroke-width:0.25586179px;stroke-linecap:butt;stroke-linejoin:miter;stroke-opacity:1"/>
      <path id="insideRightEar-6" d="M133.242 16.91s.178-1.307 1.07-2.258c.891-.951 1.307-1.308 1.604-1.783.298-.476.535-1.01.535-1.01s-.119 1.129-.297 1.723a63.014 63.014 0 00-.416 1.486s1.13-1.427 1.367-1.961c.238-.535.297-.773.297-.773s.12.832 0 1.13c-.119.296.476-.536.476-.536l-.06.595s-.206.673.713-.298c.92-.97 1.546.238 1.546.238l1.13-6.181.594-4.993L141.246.4l-4.082 5.276s-5.17 8.143-5.17 8.38c0 .238 1.247 2.854 1.247 2.854z" style="fill:#e3abb6;fill-opacity:1;stroke:none;stroke-width:0.25586179px;stroke-linecap:butt;stroke-linejoin:miter;stroke-opacity:1"/>
      <path id="rightEar-6" d="M125.87 20.129s1.914-5.013 3.828-7.383S141.155-.613 141.247.207c1.577.048-.52 12.083-.702 12.903-.182.82-.82.73-.82.183 0-.547 3.344-15.04 1.002-11.759-1.28 1.795-6.654 10.847-6.745 12.214-.091 1.368.274 2.553.274 3.19 0 .639-4.011 5.287-6.016 6.199-2.006.911-2.37-3.008-2.37-3.008z" style="fill:#e3dcdb;fill-opacity:1;stroke:none;stroke-width:0.25586179px;stroke-linecap:butt;stroke-linejoin:miter;stroke-opacity:1"/>
    </g>
    <path style="fill:#e3abb6;fill-opacity:1;stroke:none;stroke-width:0.25441638px;stroke-linecap:butt;stroke-linejoin:miter;stroke-opacity:1" d="M154.054 72.514s.816-.445 1.336-.371c.519.074.741 0 .741 0s.223.445.149 1.113a2.723 2.723 0 01-.371 1.112l-.371-.89s.657-.637.138-.563c-.52.075-.509.192-.509.192z" id="nose-6"/>
    <path id="lineFall-6" d="M153.578 78.228c-.718.35-2.062.966-3.053 1.146-1.401.255-3.693-1.655-3.693-.891s.637 1.146 1.4 1.146c.765 0 2.165 0 3.438-.255.684-.137 1.325-.528 1.777-.863.044-.095.089-.188.131-.283z" style="fill:#e3dcdb;fill-opacity:1;stroke:none;stroke-width:0.25441638px;stroke-linecap:butt;stroke-linejoin:miter;stroke-opacity:1"/>
  </g>
  <g id="walkingCat-7" transform="matrix(.87241 0 0 .87241 836.193 .262)">
    <g id="lowPaw-7" transform="translate(-125.714)">
      <path style="fill:#e3dcdb;fill-opacity:1;stroke:none;stroke-width:0.26380101px;stroke-linecap:butt;stroke-linejoin:miter;stroke-opacity:1" d="M2063.027 60.367c-1.225-.023-3.98-.009-6.398.488-3.224.664-6.966 4.935-8.725 7.958-1.633 3.502-3.64 17.775-5.277 23.724-3.41 12.167-7.875 16.526-11.953 23.45.692 7.125 1.568 14.579 2.798 21.204.97 1.358 11.639 0 11.639 0s-.388-4.071-2.522-4.847c-1.208-.263-2.22.317-3.308-.27-.16-7.272-.106-9.329.1-11.154 13.69-4.842 20.546-8.86 26.607-13.277 7.797-8.817 7.675-14.848 10.868-17.9 6.904-6.602 6.175-12.193 5.129-16.598-.523-2.203-2.5-4.317-5.645-6.418-3.145-2.102-7.46-4.19-12.664-6.34 0 0-.238-.012-.646-.02z" transform="matrix(1.14625 0 0 1.14625 -2219.727 -.3)" id="leftLowPaw2-6"/>
      <path style="fill:#e3dcdb;fill-opacity:1;stroke:none;stroke-width:0.262328px;stroke-linecap:butt;stroke-linejoin:miter;stroke-opacity:1" d="M2124.727 55.94c-1.749-.113-3.516.82-5.147 3.386-1.27 2.406-1.15 10.184-1.659 14.372-.372 3.066-5.234 10.028-7.54 15.278-1.802 2.916-2.161 3.434-3.286 5.228-.848 4.14-2.3 12.005-3.296 17.7-1.86 10.626-3.026 17.762-3.037 20.063.241 2.797.227 3.221.686 5.137.109.212.34.417.417.44.676.213 10.53.465 10.61-.015a7.122 7.122 0 00-1.038-5.086c-1.306-1.147-3.793-1.05-4.42-.766 3.613-10.62 6.524-24.467 13.524-31.265 4.404-5.182 10.286-10.092 13.855-16.006 2.121-3.751 3.05-12.338-.474-19.652-1.768-3.32-4.512-7.098-7.46-8.375a5.21 5.21 0 00-1.735-.44z" transform="matrix(1.14625 0 0 1.14625 -2219.727 -.3)" id="leftLowPaw1-6"/>
    </g>
    <g id="forXMLParser-7">
      <path id="body-7" transform="matrix(1.14625 0 0 1.14625 -2345.442 -.3)" d="M2163.523 49.777c-.278.01-.554.061-.832.084.037.084.072.168.11.252-.964.064-1.923.167-2.865.36-3.365.482-6.18 1.397-7.633 2.183-8.488 4.61-9.677 5.195-22.717 3.685-16.071-1.218-8.004.028-23.24 1.075-2.136.097-42.182-2.23-48.854 1.424-6.671 3.653-8.578 5.4-10.008 6.988-1.43 1.589-4.773 8.25-4.773 8.25s18.39-13.886 20.016-9.008c1.626 4.879 10 24.266 15.24 26.073 5.24 1.806-5.624 8.051-2.733 7.87 2.891-.18 30.357-2.71 40.114-.542 4.108.913 9.812-.305 15.287-3.262 3.672-1.702 6.005-4.197 8.9-6.207 11.496-6.966 11.42-10.383 22.895-16.549 5.618-2.52 10.75.058 14.515-2.285.835-.83 5.069-7.013 5.073-8.47.01-1.458-4.209-2.926-4.52-3.395-1.034-1.926.118-2.44-2.014-4.096-2.131-1.656-4.63-3.24-5.949-3.68-1.487-.497-3.715-.765-6.012-.75z" style="fill:#ffffff;fill-opacity:1;stroke:none;stroke-width:0.26380101px;stroke-linecap:butt;stroke-linejoin:miter;stroke-opacity:1"/>
      <path id="tail-7" d="M-2.858 90.332s6.856-9.44 10.712-11.907c3.856-2.468 15.06-4.512 18.87-5.49 3.81-.976 7.245-2.662 5.62-4.8-1.626-2.14-10.978-2.128-15.661-1.874S2.858 69.418-1.526 72.864c-4.383 3.447-27.097 34.207-33.715 36.694-6.906 3.884-13.754 3.918-15.947 3.668-2.193-.251-7.042-1.623-7.042-1.623s-.954 1.194-.085 2.749c.87 1.555 2.655 3.138 2.655 3.138l-1.99-.917s-.398 1.027 2.128 2.389c2.526 1.361 6.357 2.029 9.837 2.197 3.48.168 10.875-1.745 13.68-3.493 2.804-1.748 13.117-9.073 15.33-11.451 2.212-2.378 13.817-15.883 13.817-15.883z" style="fill:#ffffff;fill-opacity:1;stroke:none;stroke-width:0.30238095px;stroke-linecap:butt;stroke-linejoin:miter;stroke-opacity:1"/>
    </g>
    <g id="hightPaw-7" transform="translate(-125.714)">
      <path style="fill:#ffffff;fill-opacity:1;stroke:none;stroke-width:0.26380101px;stroke-linecap:butt;stroke-linejoin:miter;stroke-opacity:1" d="M2120.144 56.271c-2.174.057-3.99.571-4.394 1.94-.212 2.742 4.643 15.97 5.025 18.87.383 2.898-2.528 12.92-5.109 17.384.5 2.004.74 3.168 1.313 4.953 3.321 5.9 6.407 11.636 9.158 16.414 5.292 7.827 8.916 15.603 11.042 20.67 1.948-.314 5.404-.967 5.245-3.439-.96-3.892-1.717-6.318-1.717-6.318-2.61-5.39-5.85-18.208-8.248-27.046 1.142-2.178 8.699-13.725 9.131-17.79.461-4.333-6.313-18.537-12.447-23.925-.753-.625-5.374-1.806-8.998-1.713z" transform="matrix(1.14625 0 0 1.14625 -2219.727 -.3)" id="rightHightPaw1-7"/>
      <path style="fill:#ffffff;fill-opacity:1;stroke:none;stroke-width:0.26380101px;stroke-linecap:butt;stroke-linejoin:miter;stroke-opacity:1" d="M2067.658 58.717s-13.177 4.07-15.476 7.053c-2.3 2.982-4.407 7.088-4.332 12.293 1.31 11.64 20.68 13.646 37.353 40.035.855 2.518.67 6.434 1.215 7.884 4.972 3.222 9.724 8.198 13.762 11.694.925 1.389 11.63.38 11.63.38s-.254-4.082-2.36-4.927c-2.108-.845-3.67-.508-3.67-.508-2.08-.287-1.825-1.019-3.147-2.426l-4.205-6.24c.319-6.804.589-17.048.564-24.023.092-4.462-.283-6.828-1.125-9.2-2.074-5.522-11.397-20.571-14.488-24.431-3.092-3.86-7.919-7.696-15.725-7.584z" transform="matrix(1.14625 0 0 1.14625 -2219.727 -.3)" id="rightHightPaw2-7"/>
    </g>
    <g transform="translate(-.168 43.707)" id="eye-7">
      <path id="iris-7" d="M148.07 23.82c.055-.294.49-1.053.218-1.895-.272-.843-1.032-1.517-1.032-1.517-1.466.379-3.095 1.18-3.366 1.432-.272.253 1.411 1.138 1.954 1.39.978.549 2.227.59 2.227.59z" style="fill:#fa9e0c;fill-opacity:1;stroke:none;stroke-width:0.35168985px;stroke-linecap:butt;stroke-linejoin:miter;stroke-opacity:1"/>
      <path id="pupil-7" d="M146.274 20.708c-.027.297-.063.568-.067.889-.006.526.02 1.008.084 1.188.064.18.237.553.41.839l.01.012c.174.042.31.114.455.137.067-.173.15-.371.211-.686a3.496 3.496 0 00-.007-1.432 2.438 2.438 0 00-.262-.703 2.208 2.208 0 00-.32-.428c-.178.051-.336.124-.513.184z" style="fill:#050f05;fill-opacity:1;stroke:none;stroke-width:0.35168985px;stroke-linecap:butt;stroke-linejoin:miter;stroke-opacity:1"/>
      <path id="flare-7" d="M146.214 21.452c.623.131.796.462.511.762-.284.3-.923.26-.913-.06.01-.318.402-.702.402-.702z" style="fill:#f1faf0;fill-opacity:1;stroke:none;stroke-width:0.71787226px;stroke-linecap:butt;stroke-linejoin:miter;stroke-opacity:1"/>
      <path style="fill:#cabebc;fill-opacity:1;stroke:none;stroke-width:0.30238095px;stroke-linecap:butt;stroke-linejoin:miter;stroke-opacity:1" d="M143.826 21.896s-.052-.182.104-.312c.155-.13 1.325-.78 1.818-.961.494-.182 1.3-.416 1.481-.442.182-.026.416.104.65.104h.233s-.363.156-.441.156c-.078 0-.234-.078-.234-.078l.338.26-.546-.182s-2.208.702-3.403 1.455z" id="lash-7"/>
    </g>
    <g id="ears-7" transform="translate(-1.248 45.169) scale(.99435)">
      <path id="leftEar-7" d="M139.934 10.82c1.926-2.686 4.36-4.814 6.716-7.1.41-.443 1.152-1.088.96-.32-.192.767-2.815 6.268-3.07 7.74-.1.567.123.913-.325 1.681-3.555-.79-4.422-.893-4.422-.893z" style="fill:#e3dcdb;fill-opacity:1;stroke:none;stroke-width:0.25586179px;stroke-linecap:butt;stroke-linejoin:miter;stroke-opacity:1"/>
      <path id="insideRightEar-7" d="M133.242 16.91s.178-1.307 1.07-2.258c.891-.951 1.307-1.308 1.604-1.783.298-.476.535-1.01.535-1.01s-.119 1.129-.297 1.723a63.014 63.014 0 00-.416 1.486s1.13-1.427 1.367-1.961c.238-.535.297-.773.297-.773s.12.832 0 1.13c-.119.296.476-.536.476-.536l-.06.595s-.206.673.713-.298c.92-.97 1.546.238 1.546.238l1.13-6.181.594-4.993L141.246.4l-4.082 5.276s-5.17 8.143-5.17 8.38c0 .238 1.247 2.854 1.247 2.854z" style="fill:#e3abb6;fill-opacity:1;stroke:none;stroke-width:0.25586179px;stroke-linecap:butt;stroke-linejoin:miter;stroke-opacity:1"/>
      <path id="rightEar-7" d="M125.87 20.129s1.914-5.013 3.828-7.383S141.155-.613 141.247.207c1.577.048-.52 12.083-.702 12.903-.182.82-.82.73-.82.183 0-.547 3.344-15.04 1.002-11.759-1.28 1.795-6.654 10.847-6.745 12.214-.091 1.368.274 2.553.274 3.19 0 .639-4.011 5.287-6.016 6.199-2.006.911-2.37-3.008-2.37-3.008z" style="fill:#e3dcdb;fill-opacity:1;stroke:none;stroke-width:0.25586179px;stroke-linecap:butt;stroke-linejoin:miter;stroke-opacity:1"/>
    </g>
    <path style="fill:#e3abb6;fill-opacity:1;stroke:none;stroke-width:0.25441638px;stroke-linecap:butt;stroke-linejoin:miter;stroke-opacity:1" d="M153.545 69.997s.816-.445 1.335-.371c.52.074.742 0 .742 0s.223.445.148 1.113c-.074.667-.37 1.112-.37 1.112l-.371-.89s.657-.637.138-.563c-.52.074-.51.192-.51.192z" id="nose-7"/>
    <path id="lineFall-7" d="M153.069 75.71c-.719.352-2.062.967-3.054 1.147-1.4.255-3.692-1.655-3.692-.891s.637 1.145 1.4 1.145c.764 0 2.165 0 3.438-.254.684-.137 1.324-.528 1.777-.864.044-.094.088-.188.13-.282z" style="fill:#e3dcdb;fill-opacity:1;stroke:none;stroke-width:0.25441638px;stroke-linecap:butt;stroke-linejoin:miter;stroke-opacity:1"/>
  </g>
  <g transform="matrix(.87241 0 0 .87241 1055.045 .262)" id="walkingCat-8">
    <g transform="translate(-125.714)" id="lowPaw-8">
      <path style="fill:#e3dcdb;fill-opacity:1;stroke:none;stroke-width:0.26380101px;stroke-linecap:butt;stroke-linejoin:miter;stroke-opacity:1" d="M2281.879 60.367c-1.226-.023-3.978-.009-6.397.488-3.224.664-6.967 4.935-8.726 7.958-4.55 8.86-3.46 14.075-4.227 26.019-.451 8.756-1.768 10.501-4.195 19.81-1.11 3.956 1.66 4.859 5.566 15.098 1.251 3.188 3.393 7.192 3.393 7.192s3.808-1.68 3.768-3.95c.11-1.883-.328-3.256-.891-5.693l-3.496-7.987c1.521-1.144 10.415-4.987 18.38-11.382 5.516-8.358 7.472-11.86 10.65-18.178 5.19-11.458 6.176-12.192 5.13-16.597-.523-2.203-2.5-4.317-5.645-6.418-3.145-2.102-7.459-4.19-12.662-6.34 0 0-.24-.012-.648-.02z" transform="matrix(1.14625 0 0 1.14625 -2470.586 -.3)" id="leftLowPaw2-8"/>
      <path style="fill:#e3dcdb;fill-opacity:1;stroke:none;stroke-width:0.262328px;stroke-linecap:butt;stroke-linejoin:miter;stroke-opacity:1" d="M2343.578 55.94c-1.748-.113-3.515.82-5.146 3.386-1.27 2.406.825 12.627.04 15.41-.783 2.783-9.04 12.648-9.362 13.554-2.751 4.955-4.1 7.129-5.153 25.689-.605 10.77-.928 17.992-.67 20.279.215 1.496.511 2.668 1.125 3.287.675.212 10.527.464 10.607-.016a7.122 7.122 0 00-1.037-5.086c-1.117-1.088-5.128-.526-4.027-1.666 0 0 8.613-28.992 9.168-29.734 2.943-4.655 8.372-7.38 14.125-16.637 2.12-3.751 3.05-12.338-.474-19.652-1.768-3.32-4.512-7.098-7.46-8.375a5.212 5.212 0 00-1.736-.44z" transform="matrix(1.14625 0 0 1.14625 -2470.586 -.3)" id="leftLowPaw1-8"/>
    </g>
    <g id="forXMLParser-8">
      <path id="body-8" transform="matrix(1.14625 0 0 1.14625 -2596.3 -.3)" d="M2381.584 49.156c-.279.01-.554.061-.832.084.054.123.104.246.158.37-1.011.082-2.018.207-3.004.431-3.353.553-6.148 1.53-7.584 2.348-8.782 3.656-10.635 4.033-23.057 3.441-12.39-1.183-6.832.539-22.067 1.586-2.136.097-42.183-2.23-48.854 1.424-6.671 3.653-8.578 5.4-10.008 6.988-1.43 1.589-4.771 8.25-4.771 8.25s7.184-.815 8.81 4.063c1.626 4.879 5.732 11.461 10.972 15.402 4.973 3.941 9.85 5.651 12.741 5.47 2.891-.18 30.354-2.71 40.111-.542 4.109.913 9.813-.305 15.288-3.262 3.673-1.7 6.004-4.2 8.902-6.207 10.445-7.641 11.103-11.339 22.48-17.037 4.821-2.107 10.491.075 14.137-2.418.835-.83 5.069-7.014 5.073-8.47 0-1.458-4.209-2.926-4.52-3.395-1.034-1.926.118-2.44-2.014-4.096-2.131-1.656-4.63-3.24-5.949-3.68-1.487-.497-3.715-.765-6.012-.75z" style="fill:#ffffff;fill-opacity:1;stroke:none;stroke-width:0.26380101px;stroke-linecap:butt;stroke-linejoin:miter;stroke-opacity:1"/>
      <path style="fill:#ffffff;fill-opacity:1;stroke:none;stroke-width:0.30238095px;stroke-linecap:butt;stroke-linejoin:miter;stroke-opacity:1" d="M-2.244 91.098s6.542-9.66 10.315-12.253c3.772-2.593 14.904-5.004 18.68-6.106 3.776-1.102 7.153-2.899 5.458-4.983-1.695-2.085-11.041-1.766-15.714-1.358-4.672.408-13.714 3.61-17.981 7.198-4.268 3.589-25.96 35.078-32.492 37.781-6.774 4.11-13.618 4.369-15.818 4.19-2.2-.178-7.092-1.39-7.092-1.39s-.914 1.224.006 2.75 2.757 3.05 2.757 3.05l-2.019-.852s-.364 1.04 2.205 2.318c2.57 1.277 6.42 1.819 9.904 1.872 3.483.054 10.812-2.1 13.557-3.94 2.746-1.84 12.812-9.5 14.946-11.949 2.133-2.449 13.288-16.328 13.288-16.328z" id="tail-8"/>
    </g>
    <g transform="translate(-125.714)" id="hightPaw-8">
      <path style="fill:#ffffff;fill-opacity:1;stroke:none;stroke-width:0.26380101px;stroke-linecap:butt;stroke-linejoin:miter;stroke-opacity:1" d="M2338.996 56.271c-2.174.057-3.989.571-4.393 1.94-.212 2.742 4.641 15.97 5.024 18.87.383 2.898-1.502 17.277-1.44 18.247 8.633 14.71 15.07 30.574 24.204 42.327.677.208 11.46.327 11.537-.153a7.118 7.118 0 00-1.068-5.078c-1.66-1.326-6.263-.48-6.504-2.18-1.492-4.157-6.88-23.756-9.432-30.23.93-4.487 3.094-14.092 3.522-18.106.46-4.331-6.315-18.536-12.45-23.924-.753-.625-5.374-1.806-8.998-1.712z" transform="matrix(1.14625 0 0 1.14625 -2470.586 -.3)" id="rightHightPaw1-8"/>
      <path style="fill:#ffffff;fill-opacity:1;stroke:none;stroke-width:0.25885406px;stroke-linecap:butt;stroke-linejoin:miter;stroke-opacity:1" d="M2290.535 58.924s-13.786.387-16.799 2.562c-3.013 2.176-8.895 5.443-10.214 10.291-1.32 4.848-.676 5.257 1.624 11.155 4.062 10.454 24.111 20.422 25.67 32.654-.179 2.761-1.574 4.386-2.373 7.574 1.554 2.093 12.83 12.376 16.13 14.637 2.718.015 8.475-.145 11.429-.354 0 0-.203-4.088-2.299-4.96-2.096-.873-3.662-.555-3.662-.555-2.809.119-3.082-.232-4.102-1.301l-4.342-6.443c1.03-2.125 5.76-11.916 9.192-19.97l.037-.034v-.006c2.382-16.15-2.652-23.596-7.17-34.168-1.948-4.377-5.573-9.177-13.125-11.082z" transform="matrix(1.14625 0 0 1.14625 -2470.586 -.3)" id="rightHightPaw2-8"/>
    </g>
    <g id="eye-8" transform="translate(-1.076 42.995)">
      <path style="fill:#fa9e0c;fill-opacity:1;stroke:none;stroke-width:0.35168985px;stroke-linecap:butt;stroke-linejoin:miter;stroke-opacity:1" d="M148.07 23.82c.055-.294.49-1.053.218-1.895-.272-.843-1.032-1.517-1.032-1.517-1.466.379-3.095 1.18-3.366 1.432-.272.253 1.411 1.138 1.954 1.39.978.549 2.227.59 2.227.59z" id="iris-8"/>
      <path style="fill:#050f05;fill-opacity:1;stroke:none;stroke-width:0.35168985px;stroke-linecap:butt;stroke-linejoin:miter;stroke-opacity:1" d="M146.274 20.708c-.027.297-.063.568-.067.889-.006.526.02 1.008.084 1.188.064.18.237.553.41.839l.01.012c.174.042.31.114.455.137.067-.173.15-.371.211-.686a3.496 3.496 0 00-.007-1.432 2.438 2.438 0 00-.262-.703 2.208 2.208 0 00-.32-.428c-.178.051-.336.124-.513.184z" id="pupil-8"/>
      <path style="fill:#f1faf0;fill-opacity:1;stroke:none;stroke-width:0.71787226px;stroke-linecap:butt;stroke-linejoin:miter;stroke-opacity:1" d="M146.214 21.452c.623.131.796.462.511.762-.284.3-.923.26-.913-.06.01-.318.402-.702.402-.702z" id="flare-8"/>
      <path id="lash-8" d="M143.826 21.896s-.052-.182.104-.312c.155-.13 1.325-.78 1.818-.961.494-.182 1.3-.416 1.481-.442.182-.026.416.104.65.104h.233s-.363.156-.441.156c-.078 0-.234-.078-.234-.078l.338.26-.546-.182s-2.208.702-3.403 1.455z" style="fill:#cabebc;fill-opacity:1;stroke:none;stroke-width:0.30238095px;stroke-linecap:butt;stroke-linejoin:miter;stroke-opacity:1"/>
    </g>
    <g transform="translate(-2.156 44.457) scale(.99435)" id="ears-8">
      <path style="fill:#e3dcdb;fill-opacity:1;stroke:none;stroke-width:0.25586179px;stroke-linecap:butt;stroke-linejoin:miter;stroke-opacity:1" d="M139.934 10.82c1.926-2.686 4.36-4.814 6.716-7.1.41-.443 1.152-1.088.96-.32-.192.767-2.815 6.268-3.07 7.74-.1.567.123.913-.325 1.681-3.555-.79-4.422-.893-4.422-.893z" id="leftEar-8"/>
      <path style="fill:#e3abb6;fill-opacity:1;stroke:none;stroke-width:0.25586179px;stroke-linecap:butt;stroke-linejoin:miter;stroke-opacity:1" d="M133.242 16.91s.178-1.307 1.07-2.258c.891-.951 1.307-1.308 1.604-1.783.298-.476.535-1.01.535-1.01s-.119 1.129-.297 1.723a63.014 63.014 0 00-.416 1.486s1.13-1.427 1.367-1.961c.238-.535.297-.773.297-.773s.12.832 0 1.13c-.119.296.476-.536.476-.536l-.06.595s-.206.673.713-.298c.92-.97 1.546.238 1.546.238l1.13-6.181.594-4.993L141.246.4l-4.082 5.276s-5.17 8.143-5.17 8.38c0 .238 1.247 2.854 1.247 2.854z" id="insideRightEar-8"/>
      <path style="fill:#e3dcdb;fill-opacity:1;stroke:none;stroke-width:0.25586179px;stroke-linecap:butt;stroke-linejoin:miter;stroke-opacity:1" d="M125.87 20.129s1.914-5.013 3.828-7.383S141.155-.613 141.247.207c1.577.048-.52 12.083-.702 12.903-.182.82-.82.73-.82.183 0-.547 3.344-15.04 1.002-11.759-1.28 1.795-6.654 10.847-6.745 12.214-.091 1.368.274 2.553.274 3.19 0 .639-4.011 5.287-6.016 6.199-2.006.911-2.37-3.008-2.37-3.008z" id="rightEar-8"/>
    </g>
    <path id="nose-8" d="M152.638 69.285s.816-.445 1.335-.371c.52.074.742 0 .742 0s.222.445.148 1.112c-.074.668-.37 1.113-.37 1.113l-.372-.89s.658-.637.138-.563c-.519.074-.509.192-.509.192z" style="fill:#e3abb6;fill-opacity:1;stroke:none;stroke-width:0.25441638px;stroke-linecap:butt;stroke-linejoin:miter;stroke-opacity:1"/>
    <path style="fill:#e3dcdb;fill-opacity:1;stroke:none;stroke-width:0.25441638px;stroke-linecap:butt;stroke-linejoin:miter;stroke-opacity:1" d="M152.161 74.999c-.718.35-2.062.966-3.053 1.146-1.4.255-3.693-1.655-3.693-.892 0 .764.637 1.146 1.401 1.146s2.165 0 3.438-.254c.684-.137 1.324-.528 1.777-.864.044-.094.088-.188.13-.282z" id="lineFall-8"/>
  </g>
  <g id="walkingCat-9" transform="matrix(.87241 0 0 .87241 1275.365 .262)">
    <g id="lowPaw-9" transform="translate(-125.714)">
      <path style="fill:#e3dcdb;fill-opacity:1;stroke:none;stroke-width:0.30238092px;stroke-linecap:butt;stroke-linejoin:miter;stroke-opacity:1" d="M154.148 65.631c-2.692.363-5.633.885-8.794 1.535 0 0-3.75 2.268-6.386 4.968s-3.448 9.159-3.177 13.158c4.44 16.038 6.64 19.654 8.562 36.326-.584 1.053-.845 1.508-1.204 1.984 1.566 8.061 8.265 16.07 4.3 24.587 0 0 4.228 2.03 6.252.395 2.412-1.884 2.847-3.83 2.688-6.667a697.588 697.588 0 01-1.463-11.877c11.878-8.316 14.871-10.466 22.46-18.884 4.856-10.128-1.738-19.632-.667-24.58 2.317-10.702-1.966-15.54-5.789-19.052-1.911-1.756-5.146-2.496-9.482-2.472-2.167.013-4.609.217-7.3.58z" id="leftLowPaw2-9"/>
      <path style="fill:#e3dcdb;fill-opacity:1;stroke:none;stroke-width:0.262328px;stroke-linecap:butt;stroke-linejoin:miter;stroke-opacity:1" d="M2563.295 56.701c-2.09-.11-3.986 1.057-5.262 4.367-.77 2.61 3.295 12.217 3.074 15.1-.22 2.883-8.43 14.812-8.568 15.764-.076.523.158 4.145.611 9.28 2.282 4.897 4.228 10.202 5.98 14.376 2.288 5.437 4.143 9.767 5.595 12.998-2.197 1.791-4.485 3.77-4.346 4.002a7.119 7.119 0 004.078 3.209c3.538-2.139 6.182-4.228 7.434-7.744 0 0-4.023-19.877-5.18-27.835.643-1.18 9.467-13.446 10.787-17.48 1.34-4.095.562-12.697-4.334-19.174-2.387-2.907-5.822-6.068-8.963-6.74v-.002a5.782 5.782 0 00-.906-.12z" transform="matrix(1.14625 0 0 1.14625 -2723.126 -.3)" id="leftLowPaw1-9"/>
    </g>
    <g id="forXMLParser-9">
      <path id="body-9" transform="matrix(1.14625 0 0 1.14625 -2848.84 -.3)" d="M2601.098 48.69c-.28.01-.555.06-.832.083.045.102.088.204.132.307-.96.102-1.916.241-2.851.47-3.343.613-6.122 1.64-7.543 2.481-6.591 3.957-9.203 4.67-20.823 4.25-14.247-1.825-8.43.088-23.665 1.135-2.136.097-42.182-2.23-48.854 1.424-6.67 3.653-8.576 5.4-10.005 6.988-1.43 1.589-4.774 8.25-4.774 8.25s18.388-13.886 20.014-9.008c1.626 4.879 10.002 24.266 15.242 26.073 5.24 1.806-5.623 8.051-2.732 7.87 2.89-.18 30.356-2.71 40.113-.542 4.108.913 9.812-.305 15.287-3.262a28.503 28.503 0 007.74-5.43c11.414-8.378 10.635-11.949 23.352-18.361 4.202-1.578 10.114.067 13.62-2.34.836-.83 5.07-7.013 5.073-8.47 0-1.458-4.208-2.926-4.52-3.395-1.034-1.926.119-2.44-2.013-4.096-2.132-1.656-4.63-3.239-5.95-3.68-1.486-.496-3.715-.763-6.01-.748z" style="fill:#ffffff;fill-opacity:1;stroke:none;stroke-width:0.26380101px;stroke-linecap:butt;stroke-linejoin:miter;stroke-opacity:1"/>
      <path id="tail-9" d="M-2.195 91.029s6.532-9.666 10.302-12.263c3.77-2.597 14.9-5.02 18.674-6.125 3.775-1.106 7.15-2.906 5.453-4.99-1.697-2.082-11.042-1.754-15.714-1.341-4.672.412-13.71 3.623-17.975 7.216-4.264 3.594-25.924 35.105-32.454 37.815-6.77 4.115-13.613 4.382-15.813 4.205-2.2-.176-7.093-1.383-7.093-1.383s-.913 1.225.009 2.75c.921 1.525 2.76 3.047 2.76 3.047l-2.02-.85s-.363 1.04 2.207 2.316c2.57 1.275 6.422 1.813 9.906 1.863 3.483.05 10.81-2.112 13.553-3.954 2.744-1.842 12.803-9.513 14.934-11.964 2.13-2.451 13.271-16.342 13.271-16.342z" style="fill:#ffffff;fill-opacity:1;stroke:none;stroke-width:0.30238095px;stroke-linecap:butt;stroke-linejoin:miter;stroke-opacity:1"/>
    </g>
    <g id="hightPaw-9" transform="translate(-125.714)">
      <path style="fill:#ffffff;fill-opacity:1;stroke:none;stroke-width:0.26380101px;stroke-linecap:butt;stroke-linejoin:miter;stroke-opacity:1" d="M2558.094 56.695c-1.465.042-2.624.438-3.059 1.416-.568 2.691 2.517 16.442 2.518 19.366 0 2.923-1.388 12.5-3.81 17.904 1.956 6.95 3.396 15.134 5.038 22.072 2.664 11.194 4.495 18.51 5.348 20.176 4.118.087 7.661.672 11.062-.127a7.114 7.114 0 00-1.066-5.078c-3.41-1.789-4.615-.906-4.615-.906.303-13.377-1.278-21.65.068-31.014 2.057-5.33 6.487-10.01 7.98-15.523 1.023-4.235-3.838-19.202-9.216-25.344-.665-.719-5.093-2.493-8.698-2.873a11.715 11.715 0 00-1.55-.069z" transform="matrix(1.14625 0 0 1.14625 -2723.126 -.3)" id="rightHightPaw1-9"/>
      <path style="fill:#ffffff;fill-opacity:1;stroke:none;stroke-width:0.25248984px;stroke-linecap:butt;stroke-linejoin:miter;stroke-opacity:1" d="M2505.098 57.996c-.7-.024-1.297.014-1.745.133-17.044 9.816-19.83 14.147-17.621 23.347 9.252 14.937 12.569 13.413 8.05 34.92.527 2.377 4.114 17.348 5.67 21.032 3.296.245 7.805.336 11.526.1 0 0-.17-4.089-2.26-4.977-1.412-.667-2.91-.725-4.242-.438l-.372-10.629c19.473-14.484 21.052-15.562 22.21-19.884 1.468-5.223 2.477-21.462 2.164-26.01-.312-4.548-2.052-10.027-8.478-14.215 0 0-10.003-3.212-14.903-3.379z" transform="matrix(1.14625 0 0 1.14625 -2723.126 -.3)" id="rightHightPaw2-9"/>
    </g>
    <g id="eye-9" transform="translate(-2 42.458)">
      <path style="fill:#fa9e0c;fill-opacity:1;stroke:none;stroke-width:0.35168985px;stroke-linecap:butt;stroke-linejoin:miter;stroke-opacity:1" d="M148.07 23.82c.055-.294.49-1.053.218-1.895-.272-.843-1.032-1.517-1.032-1.517-1.466.379-3.095 1.18-3.366 1.432-.272.253 1.411 1.138 1.954 1.39.978.549 2.227.59 2.227.59z" id="iris-9"/>
      <path style="fill:#050f05;fill-opacity:1;stroke:none;stroke-width:0.35168985px;stroke-linecap:butt;stroke-linejoin:miter;stroke-opacity:1" d="M146.274 20.708c-.027.297-.063.568-.067.889-.006.526.02 1.008.084 1.188.064.18.237.553.41.839l.01.012c.174.042.31.114.455.137.067-.173.15-.371.211-.686a3.496 3.496 0 00-.007-1.432 2.438 2.438 0 00-.262-.703 2.208 2.208 0 00-.32-.428c-.178.051-.336.124-.513.184z" id="pupil-9"/>
      <path style="fill:#f1faf0;fill-opacity:1;stroke:none;stroke-width:0.71787226px;stroke-linecap:butt;stroke-linejoin:miter;stroke-opacity:1" d="M146.214 21.452c.623.131.796.462.511.762-.284.3-.923.26-.913-.06.01-.318.402-.702.402-.702z" id="flare-9"/>
      <path id="lash-9" d="M143.826 21.896s-.052-.182.104-.312c.155-.13 1.325-.78 1.818-.961.494-.182 1.3-.416 1.481-.442.182-.026.416.104.65.104h.233s-.363.156-.441.156c-.078 0-.234-.078-.234-.078l.338.26-.546-.182s-2.208.702-3.403 1.455z" style="fill:#cabebc;fill-opacity:1;stroke:none;stroke-width:0.30238095px;stroke-linecap:butt;stroke-linejoin:miter;stroke-opacity:1"/>
    </g>
    <g transform="translate(-3.08 43.92) scale(.99435)" id="ears-9">
      <path style="fill:#e3dcdb;fill-opacity:1;stroke:none;stroke-width:0.25586179px;stroke-linecap:butt;stroke-linejoin:miter;stroke-opacity:1" d="M139.934 10.82c1.926-2.686 4.36-4.814 6.716-7.1.41-.443 1.152-1.088.96-.32-.192.767-2.815 6.268-3.07 7.74-.1.567.123.913-.325 1.681-3.555-.79-4.422-.893-4.422-.893z" id="leftEar-9"/>
      <path style="fill:#e3abb6;fill-opacity:1;stroke:none;stroke-width:0.25586179px;stroke-linecap:butt;stroke-linejoin:miter;stroke-opacity:1" d="M133.242 16.91s.178-1.307 1.07-2.258c.891-.951 1.307-1.308 1.604-1.783.298-.476.535-1.01.535-1.01s-.119 1.129-.297 1.723a63.014 63.014 0 00-.416 1.486s1.13-1.427 1.367-1.961c.238-.535.297-.773.297-.773s.12.832 0 1.13c-.119.296.476-.536.476-.536l-.06.595s-.206.673.713-.298c.92-.97 1.546.238 1.546.238l1.13-6.181.594-4.993L141.246.4l-4.082 5.276s-5.17 8.143-5.17 8.38c0 .238 1.247 2.854 1.247 2.854z" id="insideRightEar-9"/>
      <path style="fill:#e3dcdb;fill-opacity:1;stroke:none;stroke-width:0.25586179px;stroke-linecap:butt;stroke-linejoin:miter;stroke-opacity:1" d="M125.87 20.129s1.914-5.013 3.828-7.383S141.155-.613 141.247.207c1.577.048-.52 12.083-.702 12.903-.182.82-.82.73-.82.183 0-.547 3.344-15.04 1.002-11.759-1.28 1.795-6.654 10.847-6.745 12.214-.091 1.368.274 2.553.274 3.19 0 .639-4.011 5.287-6.016 6.199-2.006.911-2.37-3.008-2.37-3.008z" id="rightEar-9"/>
    </g>
    <path id="nose-9" d="M151.714 68.748s.816-.445 1.335-.37c.52.073.742 0 .742 0s.222.444.148 1.112c-.074.668-.37 1.113-.37 1.113l-.372-.89s.658-.638.138-.564c-.519.075-.509.193-.509.193z" style="fill:#e3abb6;fill-opacity:1;stroke:none;stroke-width:0.25441638px;stroke-linecap:butt;stroke-linejoin:miter;stroke-opacity:1"/>
    <path style="fill:#e3dcdb;fill-opacity:1;stroke:none;stroke-width:0.25441638px;stroke-linecap:butt;stroke-linejoin:miter;stroke-opacity:1" d="M151.237 74.462c-.718.35-2.062.966-3.053 1.146-1.4.255-3.693-1.655-3.693-.891s.637 1.146 1.401 1.146 2.165 0 3.438-.255c.684-.136 1.324-.528 1.777-.863.044-.095.088-.188.13-.283z" id="lineFall-9"/>
  </g>
</svg>