<svg width="265" height="120" xmlns="http://www.w3.org/2000/svg">
 <!-- Created with SVG Editor - http://github.com/mzalive/SVG Editor/ -->

 <g>
  <title>background</title>
  <rect fill="none" id="canvas_background" height="122" width="267" y="-1" x="-1"/>
 </g>
 <g>
  <title>Layer 1</title>
  <g id="svg_33">
   <path id="svg_32" d="m200.873732,29.750561c2.499954,1.249976 1.249977,16.249699 0.249996,19.99963c-0.999982,3.74993 -1.249977,22.749579 0.49999,27.749486c1.749968,4.999908 4.999908,24.999538 6.999871,25.249533c1.999963,0.249995 4.249921,-0.499991 6.249884,0.999982c1.999963,1.499972 3.24994,4.999907 2.999945,5.749893c-0.249996,0.749986 -15.249718,0 -16.499695,0c-1.249977,0 -6.749875,-13.49975 -7.999852,-17.499676c-1.249977,-3.999926 -10.24981,-26.49951 -11.499787,-30.999427c-1.249977,-4.499916 1.499972,-19.499639 5.499898,-23.499565c3.999926,-3.999926 10.999796,-8.999833 13.49975,-7.749856z" stroke-opacity="null" stroke-width="1.5" stroke="#482816" fill="#482816"/>
   <path id="svg_31" d="m109.375425,37.250422c6.49988,1.999963 15.249718,5.499898 18.499658,12.999759c3.24994,7.499862 5.249902,14.999723 2.249958,32.499399c-2.999945,17.499676 7.999852,19.499639 9.999815,20.249625c1.999963,0.749987 5.249903,-0.999981 6.749875,0.499991c1.499972,1.499972 1.999963,5.249903 1.999963,5.999889c0,0.749986 -14.749727,1.499972 -17.249681,0c-2.499953,-1.499972 -17.24968,-12.249773 -17.749671,-13.99974c-0.499991,-1.749968 0.249995,-3.499937 -0.749987,-6.499881c-0.999982,-2.999945 -19.499639,-26.9995 -19.499639,-30.999426c0,-3.999926 9.249829,-22.749579 15.749709,-20.749616z" stroke-opacity="null" stroke-width="1.5" stroke="#482816" fill="#482816"/>
   <path stroke="#482816" id="svg_3" d="m4.12594,80.74806c2.28718,-1.90597 11.05468,3.43076 14.10423,3.43076c3.04957,0 11.81741,-0.38157 19.05979,-6.48032c7.24238,-6.09875 22.4907,-24.77832 26.68369,-29.35206c4.193,-4.57375 13.34185,-12.19827 27.44608,-16.77262c14.10425,-4.57434 33.16402,-6.86152 40.02554,-6.86152c6.86152,0 48.03065,6.86152 49.93663,6.86152c1.90599,0 4.95554,-0.38119 7.62392,-1.14358c2.66837,-0.76239 6.09913,-3.04956 8.3863,-3.43076c2.28717,-0.3812 7.24271,-0.3812 9.52989,-0.76239c2.28717,-0.3812 10.67348,-7.24272 10.67348,-7.24272c0,0 10.29228,-14.48543 10.29228,-14.48543c0,0 3.04956,9.91108 4.19315,9.91108c1.14358,0 9.14869,3.43076 10.29228,3.43076c1.14359,0 3.81196,10.29228 3.81196,10.29228c0,0 3.81196,2.28718 3.81196,2.28718c0,0 -2.66837,8.00511 -4.19316,9.14869c-1.52478,1.14359 -15.62901,1.90598 -19.44098,2.28718c-3.81195,0.3812 -21.34694,12.96066 -22.49053,15.62902c-1.14359,2.66837 -26.3025,18.67858 -28.58967,18.67858c-2.28718,0 -38.11957,-9.14869 -42.69392,-9.14869c-4.57435,0 -42.31271,4.19315 -44.98108,4.19315c-2.66836,0 -11.43587,-7.24271 -12.57945,-14.10423c-1.14359,-6.86152 -0.7624,-7.62392 -0.7624,-7.62392c0,0 -9.53038,6.86187 -12.96065,11.05468c-3.43026,4.19281 -7.62269,11.43653 -20.96575,23.63412c-13.34306,12.19759 -34.68881,3.04957 -35.45119,1.90598c-0.7624,-1.14359 -3.04957,-3.43076 -0.7624,-5.33674z" stroke-width="1.5" fill="#845335"/>
   <path stroke="#482816" id="svg_10" d="m237.84635,26.47531c0,-1.28653 2.716,-3.57369 3.5737,-3.57369c0.8577,-0.00002 0.71473,4.43138 0,4.57433c-0.71473,0.14295 -3.5737,0.2859 -3.5737,-1.00064z" stroke-opacity="null" stroke-width="1.5" fill="#33666C"/>
   <path id="svg_27" d="m128.625069,55.250089c-3.749931,6.249885 -20.999611,21.999593 -25.249533,24.999538c-4.249921,2.999944 -11.749783,8.249848 -15.499713,9.999815c-3.74993,1.749967 -4.499917,3.999928 -8.249848,8.749838c-3.74993,4.749911 6.49988,5.249903 5.999889,8.499842c-0.49999,3.24994 -14.249736,1.249978 -15.999703,1.249978c-1.749968,0 2.749949,-21.999593 2.249958,-26.49951c-0.499991,-4.499917 5.749894,-6.999871 5.499898,-10.249811c-0.249995,-3.249939 -5.249903,-18.999648 -3.999926,-22.999574c1.249977,-3.999926 3.499936,-9.999815 15.499713,-11.749783c11.999778,-1.749967 31.749413,-1.749967 36.749321,4.749912c4.999907,6.49988 6.749875,6.999871 2.999944,13.249755z" fill-opacity="null" stroke-opacity="null" stroke-width="1.5" stroke="#482816" fill="#845335"/>
   <path id="svg_28" d="m204.623662,31.250533c0.249997,4.249921 -7.749856,30.24944 -11.499787,32.499399c-3.74993,2.249958 -27.749486,37.749301 -23.999556,37.749301c3.749931,0 5.999889,3.499936 6.749875,6.49988c0.749986,2.999945 -11.749782,1.749968 -14.499731,1.749968c-2.74995,0 -3.24994,-6.249885 -2.249959,-9.499824c0.999982,-3.24994 14.249737,-38.249293 16.999686,-41.499233c2.749949,-3.24994 7.999852,-8.749838 10.749801,-14.749727c2.749949,-5.999889 3.999926,-13.249755 8.999833,-13.999741c4.999908,-0.749986 8.499842,-2.999944 8.749838,1.249977z" fill-opacity="null" stroke-opacity="null" stroke-width="1.5" stroke="#482816" fill="#845335"/>
  </g>
 </g>
</svg>