<svg width="110" height="140" xmlns="http://www.w3.org/2000/svg">
 <!-- Created with SVG Editor - http://github.com/mzalive/SVG Editor/ -->

 <g>
  <title>background</title>
  <rect fill="none" id="canvas_background" height="142" width="112" y="-1" x="-1"/>
 </g>
 <g>
  <title>Layer 1</title>
  <g id="svg_25" stroke="null">
   <path fill="#482816" stroke-width="1.5" stroke-opacity="null" d="m60.689005,103.161273c-0.422107,5.205993 0,12.100408 -2.954751,14.773749c-2.954743,2.673349 -10.130568,7.597932 -10.271265,7.457227c0.140697,0.140705 -8.02004,-9.567764 -8.160736,-9.70846c0.140697,0.140697 14.210936,-16.462178 14.070239,-16.602883c0.140697,0.140705 7.738621,-1.125617 7.316513,4.080368l0,-0.000001z" id="svg_24" stroke="#482816"/>
   <path fill="#482816" stroke-width="1.5" stroke-opacity="null" d="m74.89995,72.910266c-1.969831,4.924583 -7.316522,13.507427 -7.03512,22.371672c0.281402,8.864254 1.125617,23.919405 2.391939,23.919405c1.266322,0 1.407027,-0.984912 2.110537,-0.562804c0.703509,0.422107 3.095465,2.532644 2.814055,3.236153c-0.281411,0.703509 -9.145665,6.613012 -10.974791,6.753709c-1.829135,0.140705 -16.462178,-1.125617 -17.869205,-2.110537c-1.407019,-0.984912 0.140705,-4.080368 1.407027,-4.36177c1.266322,-0.281402 14.492347,-1.969831 15.336553,-2.532644c0.844215,-0.562804 -5.34669,-28.562577 -5.06528,-35.034893c0.281402,-6.472307 12.100399,-16.462178 13.929534,-16.602875c1.829126,-0.140705 4.924583,0 2.954751,4.924583l0,0.000001z" id="svg_23" stroke="#482816"/>
   <path fill="#482816" stroke-width="1.5" d="m90.799315,4.52891c2.110537,-0.703509 8.864254,-4.361779 8.160736,-3.236153c-0.703509,1.125617 -6.190905,9.145648 -7.457227,9.427058c-1.266322,0.281402 -3.939663,0.281402 -3.517556,-1.547724c0.422107,-1.829135 0.703509,-3.939671 2.814046,-4.643181l0.000001,0z" id="svg_18" stroke="#482816"/>
   <path fill="#845335" stroke-width="1.5" d="m53.370913,35.623372c-0.703501,1.829126 0.000025,3.095423 -6.472231,4.502433c-6.472256,1.40701 -19.416761,4.502442 -23.6378,7.316463c-4.221031,2.814021 -11.256092,16.321338 -11.818896,39.114932c-0.562804,22.793594 0,40.521942 1.688412,44.180169c1.688412,3.658236 13.788719,7.879267 17.165544,8.442071c3.376833,0.562804 26.733223,0.844206 38.552128,-4.221031c11.818896,-5.065246 14.914327,-9.567679 14.914327,-10.974698c0,-1.40701 0.281402,-3.376825 -1.688412,-4.502433c-1.969823,-1.125608 -5.62805,4.221031 -7.316463,5.065237c-1.688421,0.844215 -18.009759,7.879267 -31.235665,6.472256c-13.225915,-1.40701 -17.446946,-3.095423 -19.979573,-4.221031c-2.532619,-1.125608 57.687486,-57.687486 59.657309,-65.566753c1.969815,-7.879267 0.844206,-13.788719 0.844206,-15.477131c0,-1.688412 0.562804,-9.567679 1.40701,-10.693288c0.844206,-1.125608 4.502433,0.281402 6.190854,-0.281402c1.688412,-0.562804 1.688412,-0.562804 1.688404,-0.562804c0.000008,0 5.346656,-5.065246 5.909461,-5.909452c0.562804,-0.844206 -1.688421,-5.346648 -1.688421,-6.753658c0,-1.40701 0.281402,-3.939629 0.281402,-4.783844c0,-0.844206 -6.75365,-9.567679 -8.723473,-9.849081c-1.969815,-0.281402 -9.004875,-0.562804 -13.78871,1.969823c-4.783844,2.532619 -14.914327,22.793586 -16.321338,23.637792c-1.40701,0.844206 -3.095431,0.844206 -3.095431,0.844206c0,0 -1.829135,0.422107 -2.532644,2.251225l0,-0.000001z" id="svg_5" stroke="#482816"/>
   <path fill="#33666C" stroke-width="1.5" stroke-opacity="null" d="m91.203868,22.740767c0,-1.086108 2.292887,-3.016962 3.01697,-3.016962c0.724083,-0.000017 0.603386,3.741036 0,3.861717c-0.603386,0.12068 -3.01697,0.241361 -3.01697,-0.844755z" id="svg_10" stroke="#482816"/>
   <path fill="#845335" stroke-width="1.5" stroke-opacity="null" fill-opacity="null" d="m78.417507,16.770015c2.95475,-1.125619 8.86425,-2.39194 9.004952,-3.376857c0.140702,-0.984917 3.095452,-8.30144 3.095452,-9.567762c0,-1.266321 -2.110536,0 -4.080369,1.125619c-1.969833,1.125619 -5.205988,3.798964 -6.331607,5.628095c-1.125619,1.829131 -4.643178,7.316524 -1.688429,6.190905l0.000001,0z" id="svg_17"/>
   <path fill="#845335" stroke-width="1.5" stroke-opacity="null" fill-opacity="null" d="m74.477842,18.177042c-0.422107,-0.844215 -0.562813,-2.391947 0.562804,-4.924583c1.125625,-2.532644 14.210944,-12.241113 15.899374,-12.38181c1.688429,-0.140705 -2.814038,11.818997 -3.37685,13.085319c-0.562821,1.266322 3.939654,-11.115488 1.829126,-9.989871c-2.110537,1.125617 -6.050208,2.673349 -7.03512,5.065288c-0.98492,2.391939 -1.407027,7.597924 -2.110537,8.582844c-0.703518,0.98492 -5.34669,1.407027 -5.768798,0.562813l0.000001,0z" id="svg_15" stroke="#482816"/>
   <path fill="#845335" stroke-width="1.5" stroke-opacity="null" fill-opacity="null" d="m50.417732,83.462941c1.407027,4.502476 5.205993,12.522515 5.487395,15.899365c0.281402,3.376859 -0.98492,10.69338 -2.532644,13.929542c-1.547724,3.236153 -6.612995,10.834086 -6.190896,11.537595c0.422099,0.703509 7.457219,0.422107 8.442138,-0.140705c0.984912,-0.562813 2.391939,-1.125617 3.658261,-0.281402c1.266322,0.844215 4.643189,3.236145 3.376859,3.939663c-1.26633,0.703518 -11.115496,2.814046 -15.055159,2.532644c-3.939663,-0.281402 -18.994822,-1.125617 -23.356592,-4.361779c-4.361779,-3.236153 -4.361779,-3.658261 -4.361779,-7.738629" id="svg_21" stroke="#482816"/>
   <path fill="#845335" stroke-width="1.5" stroke-opacity="null" fill-opacity="null" d="m73.91503,43.081358c1.547724,2.814046 4.783886,10.69338 4.361779,13.36673c-0.422107,2.673341 -12.803917,27.718363 -12.803917,32.783651c0,5.065288 3.236153,31.235927 3.658261,31.798739c0.422107,0.562804 1.829126,-0.140705 3.095448,0.844215c1.266322,0.984912 2.954768,2.110537 1.547733,2.673341c-1.407027,0.562813 -6.753718,2.814046 -7.879334,2.673349c-1.125625,-0.140705 -16.180776,-40.522288 -16.321481,-41.78861c-0.140697,-1.266322 3.095313,-8.582413 3.236018,-10.270843c0.140697,-1.688429 -0.281267,-35.598127 1.688564,-37.708664c1.96984,-2.110537 4.924583,-3.236153 7.738637,-2.532644c2.814046,0.703509 10.130568,5.34669 11.678292,8.160736z" id="svg_22" stroke="#482816"/>
  </g>
 </g>
</svg>