<svg width="400" height="200" xmlns="http://www.w3.org/2000/svg">

 <g>
  <title>background</title>
  <rect fill="#668239" id="canvas_background" height="202" width="402" y="-1" x="-1"/>
 </g>
 <g>
  <title>Layer 1</title>
  <path stroke="null" id="svg_4" d="m252.80244,42.075348c9.150376,-6.682606 23.846433,-3.948813 21.62816,-0.60751c-2.218272,3.341303 -30.778535,7.290116 -21.62816,0.60751z" stroke-opacity="null" stroke-width="1.5" fill="#917f6d"/>
  <path id="svg_5" d="m38.750221,111.726547c16.499977,-10.999985 42.999941,-6.499991 38.999946,-0.999999c-3.999994,5.499993 -55.499924,11.999984 -38.999946,0.999999z" stroke-opacity="null" stroke-width="1.5" fill="#917f6d"/>
  <path stroke="null" id="svg_6" d="m232.883447,35.514838c7.022863,-4.955655 18.302007,-2.928342 16.599494,-0.450514c-1.702512,2.477827 -23.622358,5.406169 -16.599494,0.450514z" stroke-opacity="null" stroke-width="1.5" fill="#917f6d"/>
  <path id="svg_7" d="m43.250216,78.726592c-2.499996,-9.999986 -13.499981,-25.999964 -7.999989,-19.499973c5.499993,6.499991 8.499989,11.499984 10.999985,14.99998c2.499997,3.499995 16.999977,-35.499952 15.999978,-25.499965c-0.999998,9.999986 -6.99999,35.99995 -4.999993,30.499958c1.999997,-5.499993 8.499988,-15.499979 9.999986,-9.999986c1.499998,5.499992 25.499965,14.49998 28.99996,8.999987c3.499996,-5.499992 28.999961,-18.999974 32.499956,-16.499977c3.499995,2.499996 -6.999991,1.999997 -9.499987,4.999993c-2.499997,2.999996 16.499977,18.999974 18.499974,14.999979c1.999998,-3.999994 5.499993,-13.499981 6.499992,-7.999989c0.999998,5.499993 -2.499997,8.999988 0.999998,9.999987c3.499995,0.999998 28.99996,0 29.49996,1.999997c0.499999,1.999997 -144.999801,0 -146.999798,-0.499999c-1.999998,-0.5 17.999975,3.499995 15.499978,-6.499992z" stroke-width="1.5" fill="#5b7531"/>
  <path id="svg_8" d="m65.250186,114.726543c-2.499997,-9.999986 -13.499982,-25.999964 -7.999989,-19.499973c5.499992,6.499991 8.499988,11.499984 10.999985,14.999979c2.499996,3.499996 16.999976,-35.499951 15.999978,-25.499965c-0.999999,9.999987 -6.999991,35.999951 -4.999993,30.499959c1.999997,-5.499993 8.499988,-15.499979 9.999986,-9.999987c1.499998,5.499993 25.499965,14.49998 28.99996,8.999988c3.499995,-5.499993 28.99996,-18.999974 32.499956,-16.499977c3.499995,2.499996 -6.999991,1.999997 -9.499987,4.999993c-2.499997,2.999996 16.499977,18.999974 18.499974,14.999979c1.999997,-3.999994 5.499993,-13.499981 6.499991,-7.999989c0.999999,5.499993 -2.499996,8.999988 0.999999,9.999986c3.499995,0.999999 28.99996,0 29.499959,1.999998c0.5,1.999997 -144.999801,0 -146.999798,-0.5c-1.999997,-0.499999 17.999976,3.499995 15.499979,-6.499991z" stroke-width="1.5" fill="#5b7531"/>
  <path id="svg_9" d="m257.749925,62.226615c-2.499997,-9.999986 -13.499982,-25.999964 -7.999989,-19.499973c5.499992,6.499991 8.499988,11.499984 10.999984,14.999979c2.499997,3.499995 16.999977,-35.499951 15.999979,-25.499965c-0.999999,9.999986 -6.999991,35.999951 -4.999994,30.499958c1.999998,-5.499992 8.499989,-15.499979 9.999987,-9.999986c1.499998,5.499992 25.499965,14.49998 28.99996,8.999988c3.499995,-5.499993 28.99996,-18.999974 32.499955,-16.499978c3.499995,2.499997 -6.99999,1.999997 -9.499987,4.999993c-2.499996,2.999996 16.499978,18.999974 18.499975,14.99998c1.999997,-3.999995 5.499992,-13.499982 6.499991,-7.999989c0.999999,5.499992 -2.499997,8.999987 0.999999,9.999986c3.499995,0.999999 28.99996,0 29.499959,1.999997c0.499999,1.999997 -144.999801,0 -146.999798,-0.499999c-1.999997,-0.499999 17.999975,3.499995 15.499979,-6.499991z" stroke-width="1.5" fill="#5b7531"/>
  <g id="svg_15">
   <path id="svg_13" d="m12.675393,13.004577c-0.833325,-0.499996 -5.499949,-3.666633 -2.999972,-0.999991c2.499977,2.666642 3.833298,2.833307 2.333312,3.666633c-1.499986,0.833325 -0.999991,6.333274 0.499995,3.333302c1.499986,-2.999972 2.333312,-2.166647 3.166638,-1.499986c0.833325,0.66666 5.166619,3.333302 3.833298,0.499995c-1.333321,-2.833307 -2.999973,-1.999981 -2.833308,-2.833307c0.166666,-0.833325 4.166629,-2.333311 2.166647,-3.166637c-1.999981,-0.833326 -3.166637,1.833316 -3.333302,0.999991c-0.166666,-0.833326 -0.166666,-4.499959 -1.166656,-2.833307c-0.999991,1.666651 -0.833326,3.333302 -1.666652,2.833307z" stroke-width="1.5" fill="#ced6c0"/>
   <ellipse stroke="null" ry="0.999926" rx="0.999926" id="svg_14" cy="14.664327" cx="14.994579" stroke-opacity="null" stroke-width="1.5" fill="#c69531"/>
  </g>
  <g id="svg_18">
   <path id="svg_16" d="m291.992442,128.997281c-0.833325,-0.499996 -5.499949,-3.666633 -2.999972,-0.999991c2.499977,2.666642 3.833298,2.833307 2.333312,3.666633c-1.499986,0.833325 -0.999991,6.333274 0.499995,3.333302c1.499986,-2.999972 2.333312,-2.166647 3.166638,-1.499986c0.833325,0.66666 5.166619,3.333302 3.833298,0.499995c-1.333321,-2.833307 -2.999973,-1.999981 -2.833308,-2.833307c0.166666,-0.833325 4.166629,-2.333311 2.166647,-3.166637c-1.999981,-0.833326 -3.166637,1.833316 -3.333302,0.999991c-0.166666,-0.833326 -0.166666,-4.499959 -1.166656,-2.833307c-0.999991,1.666651 -0.833326,3.333302 -1.666652,2.833307z" stroke-width="1.5" fill="#ced6c0"/>
   <ellipse stroke="null" ry="0.999926" rx="0.999926" id="svg_17" cy="130.657031" cx="294.311628" stroke-opacity="null" stroke-width="1.5" fill="#c69531"/>
  </g>
  <g id="svg_21">
   <path id="svg_19" d="m297.325382,136.330073c-0.833325,-0.499996 -5.499949,-3.666633 -2.999972,-0.999991c2.499977,2.666642 3.833298,2.833307 2.333312,3.666633c-1.499986,0.833325 -0.999991,6.333274 0.499995,3.333302c1.499986,-2.999972 2.333312,-2.166647 3.166638,-1.499986c0.833325,0.66666 5.166619,3.333302 3.833298,0.499995c-1.333321,-2.833307 -2.999973,-1.999981 -2.833308,-2.833307c0.166666,-0.833325 4.166629,-2.333311 2.166647,-3.166637c-1.999981,-0.833326 -3.166637,1.833316 -3.333302,0.999991c-0.166666,-0.833326 -0.166666,-4.499959 -1.166656,-2.833307c-0.999991,1.666651 -0.833326,3.333302 -1.666652,2.833307z" stroke-width="1.5" fill="#ced6c0"/>
   <ellipse stroke="null" ry="0.999926" rx="0.999926" id="svg_20" cy="137.989823" cx="299.644568" stroke-opacity="null" stroke-width="1.5" fill="#c69531"/>
  </g>
  <g id="svg_24">
   <path id="svg_22" d="m191.666507,166.994479c-0.833325,-0.499996 -5.499949,-3.666633 -2.999972,-0.999991c2.499977,2.666642 3.833298,2.833307 2.333312,3.666633c-1.499986,0.833325 -0.999991,6.333274 0.499995,3.333302c1.499986,-2.999972 2.333312,-2.166647 3.166638,-1.499986c0.833325,0.66666 5.166619,3.333302 3.833298,0.499995c-1.333321,-2.833307 -2.999973,-1.999981 -2.833308,-2.833307c0.166666,-0.833325 4.166629,-2.333311 2.166647,-3.166637c-1.999981,-0.833326 -3.166637,1.833316 -3.333302,0.999991c-0.166666,-0.833326 -0.166666,-4.499959 -1.166656,-2.833307c-0.999991,1.666651 -0.833326,3.333302 -1.666652,2.833307z" stroke-width="1.5" fill="#ced6c0"/>
   <ellipse stroke="null" ry="0.999926" rx="0.999926" id="svg_23" cy="168.654229" cx="193.985693" stroke-opacity="null" stroke-width="1.5" fill="#c69531"/>
  </g>
 </g>
</svg>