<svg width="400" height="200" xmlns="http://www.w3.org/2000/svg">
    <path d="M-1-1h402v202H-1z" style="fill:#668239"/>
    <path d="M252.802 42.075c9.15-6.682 23.847-3.948 21.629-.607-2.219 3.341-30.779 7.29-21.629.607z" style="fill:#917f6d;stroke:null;stroke-opacity:null;stroke-width:1.5"/>
    <path d="M38.75 111.727c16.5-11 43-6.5 39-1s-55.5 12-39 1z" style="fill:#917f6d"/>
    <path d="M232.883 35.515c7.023-4.956 18.302-2.929 16.6-.45-1.703 2.477-23.622 5.405-16.6.45z" style="fill:#917f6d;stroke:null;stroke-opacity:null;stroke-width:1.5"/>
    <path d="M43.25 78.727c-2.5-10-13.5-26-8-19.5s8.5 11.5 11 15 17-35.5 16-25.5-7 36-5 30.5 8.5-15.5 10-10 25.5 14.5 29 9 29-19 32.5-16.5-7 2-9.5 5 16.5 19 18.5 15 5.5-13.5 6.5-8-2.5 9 1 10 29 0 29.5 2-145 0-147-.5 18 3.5 15.5-6.5z" style="fill:#5b7531"/>
    <path d="M65.25 114.727c-2.5-10-13.5-26-8-19.5s8.5 11.5 11 15 17-35.5 16-25.5-7 36-5 30.5 8.5-15.5 10-10 25.5 14.5 29 9 29-19 32.5-16.5-7 2-9.5 5 16.5 19 18.5 15 5.5-13.5 6.5-8-2.5 9 1 10 29 0 29.5 2-145 0-147-.5 18 3.5 15.5-6.5zm192.5-52.5c-2.5-10-13.5-26-8-19.5s8.5 11.5 11 15 17-35.5 16-25.5-7 36-5 30.5 8.5-15.5 10-10 25.5 14.5 29 9 29-19 32.5-16.5-7 2-9.5 5 16.5 19 18.5 15 5.5-13.5 6.5-8-2.5 9 1 10 29 0 29.5 2-145 0-147-.5 18 3.5 15.5-6.5z" style="fill:#5b7531"/>
    <path d="M12.675 13.005c-.833-.5-5.5-3.667-3-1 2.5 2.666 3.834 2.833 2.334 3.666-1.5.834-1 6.333.5 3.334 1.5-3 2.333-2.167 3.166-1.5.834.666 5.167 3.333 3.834.5-1.334-2.834-3-2-2.834-2.834.167-.833 4.167-2.333 2.167-3.166-2-.834-3.167 1.833-3.333 1-.167-.834-.167-4.5-1.167-2.834-1 1.667-.833 3.334-1.667 2.834z" style="fill:#ced6c0"/>
    <circle cy="14.664" cx="14.995" r="1" style="fill:#c69531;stroke:null;stroke-opacity:null;stroke-width:1.5"/>
    <path d="M291.992 128.997c-.833-.5-5.5-3.666-3-1 2.5 2.667 3.834 2.834 2.334 3.667-1.5.833-1 6.333.5 3.333s2.333-2.166 3.166-1.5c.834.667 5.167 3.334 3.834.5-1.334-2.833-3-2-2.834-2.833.167-.833 4.167-2.333 2.167-3.167-2-.833-3.167 1.834-3.333 1-.167-.833-.167-4.5-1.167-2.833-1 1.667-.833 3.333-1.667 2.833z" style="fill:#ced6c0"/>
    <circle cy="130.657" cx="294.312" r="1" style="fill:#c69531;stroke:null;stroke-opacity:null;stroke-width:1.5"/>
    <path d="M297.325 136.33c-.833-.5-5.5-3.667-3-1s3.834 2.833 2.334 3.667c-1.5.833-1 6.333.5 3.333s2.333-2.167 3.166-1.5c.834.667 5.167 3.333 3.834.5-1.334-2.833-3-2-2.834-2.833.167-.834 4.167-2.334 2.167-3.167-2-.833-3.167 1.833-3.333 1-.167-.833-.167-4.5-1.167-2.833-1 1.666-.833 3.333-1.667 2.833z" style="fill:#ced6c0"/>
    <circle cy="137.99" cx="299.645" r="1" style="fill:#c69531;stroke:null;stroke-opacity:null;stroke-width:1.5"/>
    <path d="M191.667 166.994c-.834-.5-5.5-3.666-3-1 2.5 2.667 3.833 2.834 2.333 3.667-1.5.833-1 6.333.5 3.333s2.333-2.166 3.166-1.5c.834.667 5.167 3.334 3.834.5-1.334-2.833-3-2-2.834-2.833.167-.833 4.167-2.333 2.167-3.167-2-.833-3.167 1.834-3.333 1-.167-.833-.167-4.5-1.167-2.833-1 1.667-.833 3.333-1.666 2.833z" style="fill:#ced6c0"/>
    <circle cy="168.654" cx="193.986" r="1" style="fill:#c69531;stroke:null;stroke-opacity:null;stroke-width:1.5"/>
</svg>
