<svg width="400" height="200" xmlns="http://www.w3.org/2000/svg">
    <path d="M-1-1h402v202H-1z" style="fill:#876f4b"/>
    <path d="M354.802 129.575c9.15-6.682 23.847-3.948 21.629-.607-2.219 3.341-30.779 7.29-21.629.607zM7.45 190.84c12.439-7.114 32.415-4.204 29.4-.646-3.015 3.557-41.838 7.76-29.4.646zm329.053-63.15c5.088-2.798 13.261-1.654 12.028-.255-1.234 1.398-17.117 3.051-12.028.254zm-189.12-83.675c7.023-4.956 18.302-2.929 16.6-.45-1.703 2.477-23.622 5.405-16.6.45z" style="fill:#917f6d;stroke:null;stroke-opacity:null;stroke-width:1.5"/>
</svg>
