<svg width="635" height="237" xmlns="http://www.w3.org/2000/svg">
    <g fill="#162402">
        <path d="M-1-1h848.667v318H-1z"/>
    </g>
    <g stroke="null">
        <path fill="#31240d" d="M65.488 143.002c-9.545-.954 2.863 15.271-9.545-.954-12.407-16.225-20.043-28.633-26.724-31.496-6.681-2.864-12.408-8.59-7.635-7.636 4.772.954 13.362 2.863 13.362 2.863L12.039 93.372h9.545S7.267 78.1 11.084 72.374c3.818-5.727 87.809-16.225 78.265-16.225-9.545 0-50.586-5.727-51.54-12.408-.954-6.681-1.909-14.317-1.909-14.317l5.727 8.59 2.863-8.59s21.952 5.727 27.679 5.727c5.726 0 244.336-14.317 238.61-10.499-5.727 3.818-17.18 19.089-17.18 19.089l17.18-8.59-7.636 11.453 33.405 49.631s-17.18 27.679-22.906 29.588c-5.727 1.908-132.667 20.997-132.667 20.997l-115.487-3.818h0z"/>
        <path fill="#405006" d="M67.397 114.37C59.76 111.505 53.08 96.234 53.08 96.234l9.544 4.772-.954-9.544 9.544 6.68 7.636-10.498-.955 5.727s22.907-6.681 35.315-6.681c12.407 0 141.257 2.863 141.257 2.863l7.635-10.499-6.681 19.089 9.544-9.545s-2.863 4.773-2.863 10.5c0 5.726 25.77 12.407 30.542 12.407 4.772 0 23.861-11.453 20.998-20.043-2.864-8.59-41.996-20.043-40.087-24.816 1.91-4.772 3.818-6.68 4.773-12.407.954-5.727.954-10.5.954-10.5l4.772 13.363 9.545-13.362-2.864 9.544s36.269-22.906 62.039-27.678c25.77-4.773 136.484 0 152.71 4.772 16.225 4.772 20.043-12.408 20.043-12.408s2.863 11.453 0 16.225c-2.863 4.773 10.499-3.817 10.499-3.817l-5.727 14.316s-20.043 52.494-30.542 62.039c-10.499 9.544-131.712 48.676-142.211 48.676-10.499 0-292.058 21.952-299.694 20.043-7.635-1.908-23.86-26.724-19.089-22.906L53.08 164l-10.499-25.77 13.362 15.271v-11.453l9.545.954 1.909-28.633h0z"/>
        <path fill="#2e4206" d="M587.566 228.902c-11.454 0-85.9.954-88.763-6.681-2.863-7.636 3.818-6.681 3.818-13.362v-6.681l7.635 10.498-.954-11.453 8.59 7.636s21.952-5.727 5.726-14.317c-16.225-8.59-120.259 8.59-129.803.955-9.545-7.636-13.363-22.907-13.363-22.907l10.5 8.59-2.864-11.453s11.453 1.909 14.317-6.681c2.863-8.59-71.583-2.864-70.629-10.5.955-7.635 9.544-7.635 11.453-12.407 1.91-4.772 3.818-10.499 3.818-10.499l3.818 10.5 8.59-11.454s-2.864 4.772-2.864 8.59c0 3.818 9.545-.955 16.226-3.818 6.681-2.863 8.59-7.635 8.59-7.635l-3.818 10.498s165.118-17.18 183.252-14.316c18.135 2.863 27.68-9.545 27.68-9.545l-4.773 13.363 7.635-5.727s-9.544 9.544-4.772 17.18c4.772 7.635 30.542 19.089 35.314 19.089 4.773 0 5.727-5.727 5.727-5.727s-5.727 59.175-15.271 66.81c-9.544 7.636-24.815 11.454-24.815 11.454h0z"/>
        <path fill="#31240d" d="M461.58 100.053c11.453.954 73.491-3.818 81.127-5.727 7.636-1.909 5.727-7.635 2.863-10.499-2.863-2.863 40.087-5.726 41.996-10.499 1.908-4.772-117.473 2.774-107.852 4.773 30.509 6.337-4.887 22.898-18.134 21.952h0zM149.478 168.772c18.135-2.863 29.588-6.68 46.768-6.68s65.856 0 41.04 5.726c-24.815 5.727-41.04 20.043-17.18 20.043 23.862 0 64.903-2.863 64.903-2.863s-61.085 7.635-49.631 13.362c11.453 5.727-167.027 9.544-162.255 7.635 4.772-1.908 116.442-24.815 99.262-25.77-17.18-.954-66.81-4.772-61.084-2.863 5.726 1.91 62.038-23.86 54.403-19.089-7.636 4.773-16.226 10.5-16.226 10.5h0z"/>
        <path fill="#31240d" d="M245.877 177.362c13.362 0 58.22 4.772 41.995-1.909-16.226-6.68-41.995 1.91-41.995 1.91z"/>
        <path fill="#405006" d="M172.385 62.83c0-5.727-2.864-12.408-2.864-12.408s9.545 4.772 9.545 7.635c0 2.864 6.681-5.726 6.681-5.726l.954 9.544 17.18-6.68-4.772 7.635h-26.724 0zM92.69 34.226C90 32.21 83.952 23.474 83.952 23.474l10.752 4.704s2.688 0 3.36-2.688c.672-2.688 4.032-5.376 4.032-5.376l-.672 8.064s7.392-3.36 10.752-6.048l3.36-2.688-2.688 8.736s36.288 2.688 38.304 0a48.93 48.93 0 014.032-4.704l5.376 7.392-67.872 3.36z"/>
        <path fill="#2e4206" d="M207.602 204.914l-5.376-4.704 10.752 1.344 4.704-4.704 1.344 4.032s3.36 1.344 6.048 0 3.36-2.016 3.36-2.016l3.36 5.376-24.192.672h0z"/>
    </g>
</svg>
