<svg width="635" height="237" xmlns="http://www.w3.org/2000/svg">
 <metadata id="metadata5">image/svg+xmlimage/svg+xml</metadata>

 <g fill="#162402" id="g1163">
  <title>background</title>
  <rect x="-1" y="-1" width="848.666949" height="318.000105" id="canvas_background" fill="#162402"/>
 </g>
 <g id="g1168">
  <title>тенистый лес</title>
  <path fill="#002416" stroke="#000" stroke-width="1.5" fill-opacity="0" opacity="0.5" d="m54.52904,143.00371" id="svg_2"/>
 </g>
 <g>
  <title>тенистый лес</title>
  <g id="svg_1" stroke="null">
   <path fill="#31240d" stroke-width="1px" id="path1741" d="m65.487685,143.002468c-9.544384,-0.954442 2.863318,15.271014 -9.544384,-0.954442c-12.407702,-16.225456 -20.043209,-28.633158 -26.724281,-31.496477c-6.681072,-2.863312 -12.407702,-8.589942 -7.635507,-7.635507c4.772189,0.954442 13.362137,2.863318 13.362137,2.863318l-22.906528,-12.407702l9.54439,0c0,0 -14.316586,-15.271021 -10.498826,-20.997651c3.817754,-5.72663 87.808351,-16.225456 78.263968,-16.225456c-9.54439,0 -50.585251,-5.72663 -51.539686,-12.407702c-0.954442,-6.681072 -1.908877,-14.316579 -1.908877,-14.316579l5.72663,8.589949l2.863312,-8.589949c0,0 21.952093,5.72663 27.678723,5.72663c5.72663,0 244.336287,-14.316579 238.609656,-10.498826c-5.72663,3.817754 -17.179898,19.088774 -17.179898,19.088774l17.179898,-8.589949l-7.635507,11.453267l33.405353,49.630803c0,0 -17.179898,27.678723 -22.906528,29.5876c-5.726637,1.908877 -132.666972,20.997651 -132.666972,20.997651l-115.487075,-3.817754l0.000002,0.000002z" stroke="null"/>
   <path fill="#405006" stroke-width="1px" id="path1721" d="m67.396562,114.36931c-7.635507,-2.863318 -14.316579,-18.134339 -14.316579,-18.134339l9.54439,4.772195l-0.954442,-9.544384l9.544384,6.681065l7.635514,-10.498819l-0.954442,5.72663c0,0 22.906528,-6.681072 35.31423,-6.681072c12.407702,0 141.256914,2.863318 141.256914,2.863318l7.635514,-10.498826l-6.681072,19.088768l9.544384,-9.544384c0,0 -2.863312,4.772195 -2.863312,10.498826c0,5.72663 25.76984,12.407702 30.542035,12.407702c4.772195,0 23.860963,-11.453261 20.997651,-20.043209c-2.863318,-8.589949 -41.995302,-20.043216 -40.086425,-24.815405c1.908877,-4.772195 3.817754,-6.681072 4.772195,-12.407702c0.954435,-5.72663 0.954435,-10.498826 0.954435,-10.498826l4.772195,13.362137l9.544384,-13.362137l-2.863312,9.544384c0,0 36.268665,-22.906528 62.038512,-27.678717c25.76984,-4.772195 136.484719,0 152.710175,4.772189c16.225462,4.772195 20.043216,-12.407702 20.043216,-12.407702c0,0 2.863312,11.453267 0,16.225462c-2.863318,4.772189 10.498826,-3.81776 10.498826,-3.81776l-5.726637,14.316579c0,0 -20.043209,52.494128 -30.542035,62.038512c-10.498826,9.54439 -131.712531,48.676374 -142.211356,48.676374c-10.498826,0 -292.058219,21.952086 -299.693726,20.043209c-7.635507,-1.908877 -23.860963,-26.724281 -19.088774,-22.906528c4.772195,3.817754 14.316579,11.453261 14.316579,11.453261l-10.498826,-25.76984l13.362144,15.271021l0,-11.453267l9.544384,0.954442l1.908877,-28.633158l0,0.000001z" stroke="null"/>
   <path fill="#2e4206" stroke-width="1px" id="path1725" d="m587.565619,228.901943c-11.453267,0 -85.899481,0.954435 -88.762793,-6.681072c-2.863318,-7.635507 3.817754,-6.681072 3.817754,-13.362137c0,-6.681072 0,-6.681072 0,-6.681072l7.635507,10.498826l-0.954435,-11.453267l8.589942,7.635514c0,0 21.952093,-5.726637 5.726637,-14.316579c-16.225462,-8.589949 -120.25927,8.589942 -129.803654,0.954435c-9.54439,-7.635507 -13.362144,-22.906528 -13.362144,-22.906528l10.498826,8.589949l-2.863318,-11.453261c0,0 11.453267,1.908877 14.316586,-6.681072c2.863312,-8.589949 -71.582902,-2.863318 -70.628461,-10.498826c0.954435,-7.635507 9.544384,-7.635507 11.453261,-12.407702c1.908877,-4.772195 3.817754,-10.498826 3.817754,-10.498826l3.81776,10.498826l8.589942,-11.453261c0,0 -2.863312,4.772189 -2.863312,8.589942c0,3.81776 9.544384,-0.954435 16.225456,-3.817754c6.681072,-2.863312 8.589949,-7.635507 8.589949,-7.635507l-3.817754,10.498826c0,0 165.117877,-17.179898 183.252217,-14.316579c18.134333,2.863318 27.678717,-9.544384 27.678717,-9.544384l-4.772195,13.362137l7.635514,-5.72663c0,0 -9.54439,9.544384 -4.772195,17.179891c4.772195,7.635514 30.542035,19.088774 35.31423,19.088774c4.772195,0 5.72663,-5.72663 5.72663,-5.72663c0,0 -5.72663,59.175193 -15.271021,66.810707c-9.544384,7.635507 -24.815398,11.453261 -24.815398,11.453261l-0.000002,-0.000001z" stroke="null"/>
   <path fill="#31240d" stroke-width="1px" id="path1727" d="m461.579712,100.05273c11.453267,0.954442 73.491779,-3.81776 81.127286,-5.726637c7.635514,-1.908877 5.726637,-7.635507 2.863318,-10.498826c-2.863318,-2.863312 40.086419,-5.72663 41.995302,-10.498819c1.908877,-4.772195 -117.472707,2.773523 -107.851568,4.772189c30.508922,6.337836 -4.887101,22.898322 -18.134339,21.952093l0.000001,0z" stroke="null"/>
   <path fill="#31240d" stroke-width="1px" id="path1737" d="m149.478283,168.772308c18.134339,-2.863312 29.5876,-6.681072 46.767498,-6.681072c17.179891,0 65.856265,0 41.040861,5.726637c-24.815405,5.72663 -41.040861,20.043209 -17.179898,20.043209c23.860963,0 64.90183,-2.863318 64.90183,-2.863318c0,0 -61.084077,7.635514 -49.630809,13.362144c11.453261,5.72663 -167.026761,9.544384 -162.254566,7.635507c4.772189,-1.908877 116.44151,-24.815405 99.261612,-25.76984c-17.179891,-0.954442 -66.8107,-4.772195 -61.08407,-2.863318c5.72663,1.908877 62.038512,-23.860963 54.403005,-19.088774c-7.635514,4.772195 -16.225462,10.498826 -16.225462,10.498826l-0.000001,-0.000001z" stroke="null"/>
   <path fill="#31240d" stroke-width="1px" id="path1739" d="m245.87659,177.362256c13.362137,0 58.220752,4.772195 41.995296,-1.908877c-16.225456,-6.681072 -41.995296,1.908877 -41.995296,1.908877z" stroke="null"/>
   <path fill="#405006" stroke-width="1px" id="path1743" d="m172.384811,62.829623c0,-5.726637 -2.863312,-12.407702 -2.863312,-12.407702c0,0 9.544384,4.772189 9.544384,7.635507c0,2.863318 6.681072,-5.72663 6.681072,-5.72663l0.954435,9.544384l17.179898,-6.681072l-4.772195,7.635514l-26.724281,0l-0.000001,-0.000001z" stroke="null"/>
   <path fill="#405006" stroke-width="1px" id="path1745" d="m92.689188,34.225679c-2.688009,-2.016005 -8.736038,-10.752043 -8.736038,-10.752043l10.752043,4.704021c0,0 2.688016,0 3.36002,-2.688016c0.671997,-2.688009 4.03201,-5.376018 4.03201,-5.376018l-0.671997,8.064034c0,0 7.39203,-3.360013 10.752043,-6.048029c3.360013,-2.688009 3.360013,-2.688009 3.360013,-2.688009l-2.688016,8.736038c0,0 36.288152,2.688009 38.304157,0c2.016005,-2.688016 4.032017,-4.704021 4.032017,-4.704021l5.376018,7.39203l-67.87227,3.360013z" stroke="null"/>
   <path fill="#2e4206" stroke-width="1px" id="path1747" d="m207.601647,204.914371l-5.376018,-4.704021l10.752043,1.344008l4.704021,-4.704021l1.344001,4.032017c0,0 3.360013,1.344008 6.048029,0c2.688009,-1.344008 3.360013,-2.016005 3.360013,-2.016005l3.360013,5.376018l-24.192101,0.672004l-0.000001,0z" stroke="null"/>
  </g>
 </g>
</svg>