<svg xmlns="http://www.w3.org/2000/svg" width="310" height="160" viewBox="0 0 210 297">
    <g style="transform:matrix(5.4484089,0,0,5.5711573,-221.19161,-445.98876)">
        <g style="transform:matrix(0.26458333,0,0,0.26458333,7.3258856,80.182208);fill:#374837">
            <path style="fill:#374837" d="M-1-1h402v202H-1z"/>
        </g>
        <path d="M81.689 103.483c-13.304-1.005-35.367 2.628-20.84 5.668 14.3 2.993 14.43 1.555 13.575 5.266-1.424 6.177 4.969 6.87 8.704 7.098 16.567 1.006 27.528-9.126 19.896-9.922-7.477-.78 3.418-3.023-3.61-5.475-6.553-2.285-15.032-2.467-17.725-2.635z" style="opacity:1;fill:#455a4a;fill-opacity:1;stroke:none;stroke-width:0.233474px;stroke-linecap:butt;stroke-linejoin:miter;stroke-opacity:1"/>
        <path d="M89.913 81.432c-.967 2.053-1.554 3.334-2.106 4.159.284-.981.61-2.315.723-3.843-.602 2.637-1.296 4.112-2.035 5.046-1.038.47-2.574.42-5.78.891.237.038 20.826.185 29.145.22-8.225-.582-9.21-.75-14.9-1.362-1.34-.406-2.522-1.196-4.026-2.054-2.627 3.478-1.293.985-1.021-3.057z" style="opacity:1;fill:#293629;fill-opacity:1;stroke-width:0.26458299"/>
        <path d="M245.97 420.682a237.52 237.52 0 00-10.991.369c-9.506 2.256-24.686-4.105-31.306 1.255-23.749 29.63-65.816-4.903-34.448 40.774 28.399 18.636 65.231 9.345 82.388-4.41 36.553-29.304 27.385-38.263-5.642-37.988z" style="transform:scale(0.26458333);fill:#455a4a;fill-opacity:1;stroke:none;stroke-width:0.80478197px;stroke-linecap:butt;stroke-linejoin:miter;stroke-opacity:1"/>
        <path style="fill:#455a4a;fill-opacity:1;stroke:none;stroke-width:0.21293201px;stroke-linecap:butt;stroke-linejoin:miter;stroke-opacity:1" d="M49.642 111.206c-4.695-.14-7.538 1.745-6.874 2.784.746 1.168 5.468 1.425 8.192-.426 3.232-2.02 1.981-2.385-1.318-2.358z"/>
        <path d="M76.908 314.082c-28.233.122-51.568 4.532-27.887 21.135.111.077 1.568 1.528 1.811 3.232.078.55.104 1.302.086 2.059-.367.373-.67.77-.879 1.195-2.482 5.049 8.151 14.206 25.711 13.526 6.919.072 11.427-.453 11.922-2.659 2.436-.814 6.16-2.131 6.334-2.06 5.776 2.341 17.2 3.21 23.517 1.34 26.865-12.112 46.018-27.138 6.397-35.065-11.368-1.307-30.072-2.776-47.012-2.703z" style="transform:scale(0.26458333);fill:#455a4a;fill-opacity:1;stroke:none;stroke-width:0.80478197px;stroke-linecap:butt;stroke-linejoin:miter;stroke-opacity:1"/>
        <path d="M70.475 315.102c-4.921-.008-10.296.43-16.2 2.013-18.678 11.531 8.604 14.045 23.358 21.67 5.336 5.233 23.251 6.872 29.517 7.6 19.867.231 49.138-15.162 26.758-24.239-1.777-.424-15.351-3.87-16.824-4.04-10.83-1.26-19.447-2.269-29.709-2.254-4.995.007-10.573-.74-16.9-.75zm-7.819 23.12c-4.985.164-9.254 1.747-10.334 3.944-1.922 3.91 6.313 11.002 19.912 10.475 11.703-.42 12.137-1.12 5.053-9.846-3.945-3.48-9.646-4.736-14.63-4.572zm227.244 55.73c-40.38.187-101.66 8.298-40.49 15.655 38.97 4.688 38.847 3.982 36.543 13.479-3.834 15.808 13.488 16.56 23.43 18.162 51.172 8.244 84.944-14.577 53.56-25.393-11.419-3.935 6.552-8.741-9.72-14.01-14.58-4.72-40.464-7.032-47.715-7.464-4.498-.322-9.84-.457-15.608-.43zM185.55 420.96c-12.58-.008-23.265 5.02-21.543 8.035 1.936 3.388 15.563 4.018 23.654-.682 7.625-4.244 12.7-7.071-2.111-7.353zm28.935.783c-5.278.092-10.196 1.306-12.875 5.346-15.198 19.838-58.686.864-22.078 27.324 35.024 18.865 49.222 10.87 66.17 1.514 40.834-29.832 9.802-32.936-13.058-32.594-3.988.03-11.372-1.707-18.159-1.59z" style="transform:scale(0.26458333);fill:#3e5144;fill-opacity:1;stroke:none;stroke-width:0.52964801px;stroke-linecap:butt;stroke-linejoin:miter;stroke-opacity:1"/>
        <path style="stroke:null;stroke-opacity:null;opacity:1;fill:#292d24;fill-opacity:1;stroke-width:0.39687499" d="M21.513 98.785c-2.421-1.768-6.31-1.044-5.723-.16.587.884 8.144 1.928 5.723.16z"/>
        <path style="stroke-opacity:null;opacity:1;fill:#292d24;fill-opacity:1;stroke-width:0.48816499" d="M52 124.43c-4.768-4.533-9.63-1.032-8.117 1.446 1.513 2.477 12.885 3.089 8.117-1.445z"/>
        <path style="stroke:null;stroke-opacity:null;opacity:1;fill:#292d24;fill-opacity:1;stroke-width:0.39687499" d="M16.2 100.357c-1.858-1.311-4.843-.775-4.392-.12.45.656 6.25 1.431 4.392.12z"/>
        <path style="fill:#ced6c0;stroke-width:0.252785" d="M43.104 88.322c-.707-.01-.12.42-.12.42-.27.61.153.169.51.212.402.065.721.142.331-.29.246-.43.228-.41-.21-.342-.224-.584-.37-.175-.511 0z"/>
        <path style="fill:#ced6c0;stroke-width:0.38293099" d="M44.95 88.3c.981.329.44-.55.44-.55.77-.757-.106-.311-.576-.532-.521-.271-.917-.524-.651.27-.62.509-.583.489.074.585-.064.938.405.417.714.226z"/>
        <path style="fill:#ced6c0;stroke-width:0.45148301" d="M57.638 127.504c1.311.019.223-.722.223-.722.501-1.048-.284-.29-.946-.365-.747-.11-1.339-.243-.616.5-.454.738-.422.705.39.587.416 1.004.689.302.949 0z"/>
        <path style="fill:#ced6c0;stroke-width:0.68392801" d="M54.212 127.543c-1.82-.566-.814.946-.814.946-1.43 1.301.195.534 1.068.914.966.466 1.701.9 1.208-.466 1.148-.874 1.08-.84-.138-1.004.119-1.614-.75-.717-1.324-.39z"/>
        <path style="fill:#ced6c0;stroke-width:0.27364999" d="M10.876 100.81c-.642-.403.253-.385.253-.385.282-.615.282-.038.64.137.415.185.767.313.047.411-.149.465-.148.44-.482.134-.701.309-.483-.084-.458-.297z"/>
        <path style="fill:#ced6c0;stroke-width:0.38293099" d="M102.372 84.784c.981.33.44-.55.44-.55.77-.756-.106-.31-.577-.531-.52-.271-.917-.524-.65.27-.62.509-.583.489.073.585-.063.938.405.416.714.226z"/>
        <path style="fill:#ced6c0;stroke-width:0.683927" d="M99.091 83.049c-1.819-.567-.814.946-.814.946-1.43 1.3.195.534 1.068.913.966.467 1.702.9 1.208-.466 1.149-.873 1.081-.839-.137-1.004.118-1.614-.751-.716-1.325-.39z"/>
        <path d="M42.7 109.685c0-1.382-3.571-4.334-2.116-3.25 1.455 1.083 2.25 1.917 2.91 2.5.6.53 2.736-.983 4.304-4.42-.272 4.042-1.606 6.535 1.021 3.057.636.77 6.913 2.996 8.07 1.583 1.152.208 2.444.625 5.92-1.47.041.781 4.068 2.703 4.895 2.5.85-.208 1.085-.893 1.57-1.582-.303 1.62.523 1.833 1.835 2.014 1.415.196 3.421.122 6.384.235-2.085.179-38.364 0-38.893-.083-.53-.084 4.762.583 4.1-1.084z" style="opacity:1;fill:#293629;fill-opacity:1;stroke-width:0.31502599"/>
        <path d="M22.853 90.14c.589 1.245.536 3.6-.22 3.744 9.607.035 20.773.131 21.84.04-2.963-.113-4.969-.04-6.384-.235-1.312-.18-2.138-.395-1.835-2.014-.485.689-.719 1.374-1.57 1.582-.827.203-4.853-1.719-4.895-2.5-1.46.86-3.43 1.5-5.61 1.685z" style="opacity:1;fill:#293629;fill-opacity:1;stroke-width:0.26458299"/>
    </g>
</svg>
