<svg xmlns="http://www.w3.org/2000/svg" width="400" height="200">
    <path style="fill:#876f4b" d="M-1-1h402v202H-1z"/>
    <path style="fill:#a77f43;stroke:none;stroke-width:1px;stroke-linecap:butt;stroke-linejoin:miter;stroke-opacity:1;fill-opacity:1" d="M5.277 100.264S72.823 87.07 104.485 84.96c31.663-2.11 79.156-9.498 69.657 1.584-9.498 11.081-28.496 22.163-20.052 23.746 8.443 1.583 54.881-9.498 86.016-10.026 31.134-.528 78.1 7.388 80.738 15.303 2.639 7.916-91.82 61.742-120.316 68.074-28.496 6.333-113.984 7.388-128.232 7.916-14.249.527 23.219-16.36 16.886-17.415-6.332-1.055-60.158 18.998-69.13 13.72-8.97-5.276 7.389-12.664 7.916-18.997.528-6.332-24.802-13.72-25.857-20.58-1.056-6.86 7.915-15.831 9.498-22.691 1.584-6.86-7.915-17.415-7.915-20.58 0-3.167 1.583-4.75 1.583-4.75zM270.712 16.359s37.467-7.916 44.855-6.333c7.388 1.583-23.746 19.525-41.16 22.164-17.415 2.638-44.856.528-37.995-3.166 6.86-3.694 12.665-10.554 1.583-10.554-11.082 0-41.689-3.694-36.412-7.388 5.277-3.694 99.209-14.248 90.765-8.971-8.443 5.277-31.662 9.498-28.496 12.137 3.166 2.639 6.86 2.11 6.86 2.11zM274.406 39.05s11.61-3.694 15.304-3.166c3.694.528 5.277 4.75.527 5.277-4.749.528-15.83-2.11-15.83-2.11z"/>
    <path style="fill:#a77f43;stroke:none;stroke-width:1px;stroke-linecap:butt;stroke-linejoin:miter;stroke-opacity:1;fill-opacity:1" d="M233.245 22.164s-11.61-1.584-16.886 0c-5.277 1.583 6.86 4.221 11.082 4.221 4.221 0 12.137-1.583 10.026-2.638-2.11-1.056-4.222-1.583-4.222-1.583zM206.332 16.887s2.111-2.111 6.333-2.111c4.222 0 1.583 3.694-1.583 3.694s-4.75-1.583-4.75-1.583zM172.56 107.124s31.134-2.639 27.968-4.75c-3.167-2.11-19.525-.527-23.22.528-3.693 1.056-4.749 4.222-4.749 4.222zM211.61 97.098s12.664 1.055 10.554-1.056c-2.111-2.11-10.554 1.056-10.554 1.056zM24.274 175.726s-20.58 7.915-18.47 4.221c2.112-3.694 18.47-4.221 18.47-4.221zM6.332 168.865s5.805-1.583 8.444-1.055c2.638.528 2.638 2.639-1.583 3.694-4.222 1.055-6.86-2.639-6.86-2.639z"/>
    <path style="fill:#a77f43;stroke:none;stroke-width:1px;stroke-linecap:butt;stroke-linejoin:miter;stroke-opacity:1;fill-opacity:1" d="M29.551 173.087s-1.583 11.61-5.277 2.639 6.333-6.86 6.333-6.86zM38.522 74.934s16.887 1.583 25.858 0c8.97-1.583 26.913-5.277 14.776-5.805-12.138-.527-47.494-4.221-43.8-.527 3.694 3.694 14.776 1.583 3.166 6.332zM45.383 86.544s14.248-4.222 16.886-1.584C64.908 87.6 50.66 97.625 45.91 96.042c-4.749-1.583-32.19-4.221-24.274-6.332 7.915-2.111 23.747-3.166 23.747-3.166zM68.074 88.127s22.691-4.222 16.886-4.222c-5.804 0-10.026-1.583-13.192-1.055-3.166.527-3.694 5.277-3.694 5.277zM35.884 83.377s2.638 3.694 6.332 2.111c3.694-1.583 12.138-4.75 7.916-4.75-4.222 0-14.248 2.64-14.248 2.64zM3.694 78.1s3.694 2.111 7.915 1.056C15.831 78.1 3.694 78.1 3.694 78.1zM253.826 157.784s15.831-4.222 24.802-1.583c8.97 2.638-1.583 7.387-8.443 7.387-6.86 0-16.36-5.804-16.36-5.804zM300.264 129.288s11.61-3.694 15.831-2.111c4.222 1.583-10.554 9.498-16.887 10.026-6.332.528 1.056-7.915 1.056-7.915zM309.235 145.119s5.277-1.583 6.86 0c1.583 1.583-6.86 10.026-9.499 6.332-2.638-3.694 2.639-6.332 2.639-6.332zM112.929 77.045s11.082 5.805 20.58 4.75c9.499-1.056 29.024-1.584 22.164-5.806-6.86-4.221-42.744 1.056-42.744 1.056z"/>
    <path style="fill:#5c732d;stroke:none;stroke-width:1px;stroke-linecap:butt;stroke-linejoin:miter;stroke-opacity:1;fill-opacity:1" d="M107.652 84.96s0-1.055-3.167-3.694c-3.166-2.638-8.443-8.97-8.443-8.97l12.137 7.915 2.639-6.332 2.11 6.86 6.333-2.639s3.694 4.222 9.499 4.222c5.805 0 10.554 1.583 10.554 1.583z"/>
    <path style="fill:#5a722c;stroke:none;stroke-width:1px;stroke-linecap:butt;stroke-linejoin:miter;stroke-opacity:1;fill-opacity:1" d="M214.776 52.243l-6.333-3.694s7.916 0 11.082 1.055c3.166 1.056 4.222 1.583 4.222 1.583l4.749-3.694.528 4.222s-.528-1.055 5.805-1.583c6.332-.528 11.609-.528 11.609-.528l-4.222 3.166zM385.224 199.472s-1.055-3.166-3.166-5.277c-2.11-2.11-2.11-2.638-2.11-2.638l8.97 5.277 2.639-4.75 1.583 6.333 2.11-3.166 2.64 4.221z"/>
    <path style="fill:#917f6d;stroke:none;stroke-width:1px;stroke-linecap:butt;stroke-linejoin:miter;stroke-opacity:1;fill-opacity:1" d="M55.409 25.33s0-1.583 4.222-3.166c4.221-1.584 12.137-2.111 12.137-2.111l9.498 7.388s-17.941 1.583-22.69 1.583c-4.75 0-3.167-3.694-3.167-3.694z"/>
    <path style="fill:#bd893f;stroke:none;stroke-width:1px;stroke-linecap:butt;stroke-linejoin:miter;stroke-opacity:1;fill-opacity:1" d="M127.177 62.797s47.493-3.166 60.158-1.056c12.665 2.111-16.886 3.694-7.388 8.444 9.499 4.749 46.438 5.804 33.773 9.498-12.665 3.694-102.902 13.72-99.736 11.082 3.166-2.638 44.855-7.915 48.021-11.082 3.167-3.166-16.359-4.221-28.496-7.915-12.137-3.694 9.499-7.388.528-7.388s-6.86-1.583-6.86-1.583z"/>
</svg>
