<svg xmlns="http://www.w3.org/2000/svg" width="150" height="150" viewBox="0 0 150 150">
    <path style="fill:#0f0905;stroke:none;stroke-width:1px;stroke-linecap:butt;stroke-linejoin:miter;stroke-opacity:1;fill-opacity:1" d="M2.828 87.067S9.192 72.925 14.85 67.976c5.657-4.95 12.021-16.97 15.557-22.628C33.94 39.691 52.326 10.7 52.326 10.7s2.121 15.556 2.121 23.334c0 7.779-.707 19.092-.707 19.092l7.071.707 15.557-28.99-.708 36.769s4.95 4.95 7.779 9.192c2.828 4.243 4.242 12.02 4.242 12.02v4.95l10.607 10.607s0 7.071-1.414 9.9c-1.415 2.828-13.435 16.97-19.092 20.506-5.657 3.535-26.163 3.535-30.406 5.657-4.242 2.121-14.142 16.97-14.142 16.97H-4.243l-2.121-56.568z"/>
</svg>
