<svg xmlns="http://www.w3.org/2000/svg" width="150" height="150" viewBox="0 0 150 150">
    <path style="fill:#0f0905;fill-opacity:1;stroke:none;stroke-width:0.79054052px;stroke-linecap:butt;stroke-linejoin:miter;stroke-opacity:1" d="M.903 100.546s5.031-11.18 9.503-15.093c4.472-3.913 9.503-13.416 12.298-17.888 2.795-4.472 17.329-27.391 17.329-27.391S41.71 52.472 41.71 58.62c0 6.149-.56 15.093-.56 15.093l5.59.559 12.299-22.92-.56 29.069s3.914 3.913 6.15 7.267c2.236 3.354 3.354 9.503 3.354 9.503v3.913l8.385 8.384s0 5.59-1.118 7.826c-1.118 2.236-10.621 13.416-15.093 16.211-4.472 2.795-20.683 2.795-24.037 4.472-3.354 1.677-11.18 13.416-11.18 13.416H-4.687l-1.677-44.72zM149.004 74.383s-5.031-11.18-9.503-15.093c-4.472-3.913-9.503-13.416-12.298-17.888-2.795-4.472-17.33-27.391-17.33-27.391s-1.676 12.298-1.676 18.447c0 6.149.559 15.093.559 15.093l-5.59.559-12.298-22.92.559 29.069s-3.913 3.913-6.149 7.267c-2.236 3.354-3.354 9.503-3.354 9.503v3.913l-8.385 8.385s0 5.59 1.118 7.825c1.118 2.236 10.621 13.416 15.093 16.211 4.472 2.795 20.683 2.795 24.037 4.472 3.354 1.677 30.979 55.843 30.979 55.843l19.727-21.214-8.222-65.932z"/>
</svg>
