<svg width="200" height="100" xmlns="http://www.w3.org/2000/svg" xmlns:xlink="http://www.w3.org/1999/xlink">
 <!-- Created with SVG Editor - http://github.com/mzalive/SVG Editor/ && Inscape-->
 <metadata id="metadata4663">image/svg+xml</metadata>
 <defs>
  <linearGradient id="linearGradient5846">
   <stop offset="0" id="stop5842" stop-color="#b13601"/>
   <stop offset="1" id="stop5844" stop-color="#f8a606"/>
  </linearGradient>
  <linearGradient id="linearGradient5836">
   <stop offset="0" id="stop5832" stop-color="#ad9388"/>
   <stop offset="1" id="stop5834" stop-opacity="0" stop-color="#ad9388"/>
  </linearGradient>
  <linearGradient id="linearGradient5782">
   <stop offset="0" id="stop5778" stop-color="#0f0c0c"/>
   <stop offset="1" id="stop5780" stop-opacity="0" stop-color="#1c1010"/>
  </linearGradient>
  <linearGradient id="linearGradient5733">
   <stop offset="0" id="stop5729" stop-color="#ad9388"/>
   <stop offset="1" id="stop5731" stop-opacity="0" stop-color="#402828"/>
  </linearGradient>
  <linearGradient id="linearGradient5703">
   <stop offset="0" id="stop5699" stop-color="#190a04"/>
   <stop offset="1" id="stop5701" stop-opacity="0" stop-color="#402828"/>
  </linearGradient>
  <linearGradient id="linearGradient5677">
   <stop offset="0" id="stop5673" stop-color="#9c877a"/>
   <stop offset="1" id="stop5675" stop-opacity="0" stop-color="#9c877a"/>
  </linearGradient>
  <linearGradient xlink:href="#linearGradient5677" id="linearGradient5679" x1="0.074399" y1="0.710354" x2="0.892825" y2="0.152369"/>
  <linearGradient xlink:href="#linearGradient5703" id="linearGradient5705" x1="0.075673" y1="1.100171" x2="1.917687" y2="-1.055252"/>
  <linearGradient xlink:href="#linearGradient5733" id="linearGradient5735" x1="0.311724" y1="0.439083" x2="1.224137" y2="-0.032007"/>
  <linearGradient xlink:href="#linearGradient5782" id="linearGradient5784" x1="0.53143" y1="0.228954" x2="0.072741" y2="0.932023"/>
  <linearGradient xlink:href="#linearGradient5782" id="linearGradient5804" x1="0.604338" y1="0.155238" x2="0.295669" y2="0.540952"/>
  <linearGradient xlink:href="#linearGradient5836" id="linearGradient5838" x1="0.024774" y1="0.500001" x2="0.969054" y2="0.451629"/>
  <linearGradient xlink:href="#linearGradient5846" id="linearGradient5862" x1="0.769866" y1="0.368093" x2="0.15959" y2="0.888116" spreadMethod="pad"/>
 </defs>
 <g>
  <title>background</title>
  <rect fill="none" id="canvas_background" height="102" width="202" y="-1" x="-1"/>
 </g>
 <g>
  <title>Layer 1</title>
  <g id="g6219">
   <rect transform="matrix(0.99980971,-0.01950743,0.94262959,0.33384046,0,0) " y="245.630793" x="-202.947581" height="17.269735" width="46.299858" id="rect5368" stroke-width="1.302088" fill="#f7f5e9"/>
   <rect id="rect5495" width="46.299858" height="17.269735" x="-188.095491" y="233.281973" transform="matrix(0.99980971,-0.01950743,0.94262959,0.33384046,0,0) " stroke-width="1.302088" fill="#dce2f2"/>
   <path id="path5328" d="m49.265159,84.38845c0,1.381709 0.138171,2.210734 0.138171,2.210734c0,0 17.962216,0.690855 20.172948,1.243537c2.210738,0.552687 2.625249,0.552687 2.625249,0.552687c0,0 1.024155,-2.036706 3.868786,-2.625249c4.006956,-0.829025 9.810131,0.967197 9.948304,1.243536c0.138172,0.276344 1.93439,-0.690854 1.93439,-0.690854c0,0 0.690858,-1.934391 2.072567,-2.487077c1.381708,-0.552682 6.49403,0.138172 6.49403,0.138172l0,-1.381708l-7.184884,-1.934391l-24.318079,2.625245l-15.751482,1.105368z" stroke-width="1.130238px" fill="#42ba80"/>
   <path id="path5326" d="m71.086863,86.866229c1.51988,-1.381709 5.250498,-3.592442 9.395622,-2.763416c4.145128,0.829025 5.80318,1.381707 5.80318,1.381707c0,0 2.901588,-3.868784 6.494029,-3.177931c3.592443,0.690854 5.803177,1.519881 5.803177,1.519881c0,0 -0.690855,-1.243537 -4.97415,-2.763417c-4.283301,-1.51988 -18.791244,-2.763416 -19.896609,-2.625249c-1.105369,0.138172 -1.934395,0 -2.625249,0.967198c-0.690854,0.967197 -1.381708,-0.414511 -4.974151,0c-3.592442,0.414515 -19.067583,5.388665 -19.067583,5.388665c0,0 13.624151,1.070231 16.165994,1.243536c6.079521,0.414516 7.87574,0.829026 7.87574,0.829026z" stroke-width="1.130238px" fill="#debda2"/>
   <path id="path5280" d="m96.940146,28.097734c-3.097032,5.032682 -3.677729,12.77527 -2.709906,18.969337c0.967823,6.194072 3.290602,6.194072 2.322779,8.51685c-0.967823,2.322775 -9.097541,8.129719 -10.452497,10.065365c-1.35495,1.935646 -3.871292,7.742586 -3.871292,9.097537c0,1.354955 4.451989,4.06486 5.613375,3.097037c1.161393,-0.967823 1.161393,-5.613375 1.548519,-6.968331c0.387128,-1.354951 16.840127,-8.516845 17.614386,-10.258928c0.774261,-1.742082 6.387632,-14.323783 5.032692,-20.130727c-1.354964,-5.806941 -15.098056,-12.38814 -15.098056,-12.38814z" stroke-width="1.200101px" fill="#201414"/>
   <path id="path4692" d="m99.456489,23.065052c2.90347,-0.967824 4.645553,0.193565 6.194067,0.193565c1.548518,0 28.841146,1.548518 35.228776,6.194069c6.38763,4.645553 11.41104,9.330644 11.51247,14.246774c0.10141,4.91613 -8.80257,10.142378 -12.48029,10.916634c-3.67773,0.774259 -41.422847,0.000005 -45.29414,-1.548514c-3.04124,-1.216498 -9.725411,-15.240673 -14.305826,-20.637066c-1.25015,-1.472855 -3.555071,-1.394385 -4.126703,-1.332201c-2.666022,0.29002 -7.311574,-5.129791 -7.505143,-6.097615c-0.193563,-0.967823 2.912435,-3.948256 3.004736,-7.103592c0.09231,-3.155335 1.834385,-7.413758 3.576468,-8.962276c1.742083,-1.548517 9.484668,-1.548517 10.646055,-1.935647c1.161387,-0.38713 5.226248,-3.871293 6.387635,-5.806941c1.161387,-1.935647 2.322778,7.936153 2.322778,7.936153c0,0 0.294988,1.974538 0.556299,4.074733c0.282121,2.267459 4.282818,9.861924 4.282818,9.861924z" stroke-width="1.200101px" fill="#402828"/>
   <path id="path5282" d="m72.954958,20.708612c0.252471,-2.524758 -0.168318,-3.029708 0.673266,-3.029708c0.841587,0 2.524758,1.514854 2.524758,2.272281c0,0.757427 -1.514857,0.925744 -2.019807,1.009902c-0.504951,0.08416 -1.178217,-0.252475 -1.178217,-0.252475z" stroke-width="1.200101px" fill="url(#linearGradient5862)"/>
   <path id="path4731" d="m94.617372,27.710605c-1.935646,2.12921 -8.129718,9.678235 -8.710413,14.710916c-0.580695,5.032683 12.001011,33.680257 12.001011,37.55155c0,3.871293 0.193563,6.581197 -0.967824,7.355458c-1.161386,0.774259 -1.35495,-0.967824 -3.290601,0c-1.935647,0.967822 -1.354951,4.451987 -1.354951,4.451987c0,0 9.678232,0.774261 10.452492,0c0.774259,-0.774258 3.484165,-17.807949 0.193563,-34.260948c-0.570679,-2.853408 1.354956,-3.290601 1.354956,-4.258425c0,-0.967823 3.097034,-17.807951 1.161387,-20.324292c-1.935647,-2.516341 -10.83962,-5.226246 -10.83962,-5.226246z" stroke-width="1.200101px" fill="#402828"/>
   <path id="path5278" d="m135.290232,98.004416c-0.0242,-12.030838 1.7178,-34.097213 4.42771,-37.194251c2.70991,-3.097033 14.32379,6.387635 15.87231,9.678237c1.54852,3.290597 5.61336,12.77527 5.61336,15.291608c0,2.516341 -1.16137,0.967824 -1.35495,2.129214c-0.19355,1.161388 -0.19355,3.677729 -0.19355,3.677729c0,0 7.16189,1.354951 7.74257,0.387129c0.5807,-0.967824 0.00002,-16.840127 -2.51632,-19.162906c-2.12922,-1.161387 -3.8713,-10.258929 -5.22625,-12.77527c-1.35495,-2.516338 -2.32277,-15.678735 -8.32328,-20.130726c-6.00051,-4.451988 -24.19558,-2.129212 -27.09907,2.129211c-2.90347,4.258427 -4.83912,7.936155 -4.25842,11.807447c0.5807,3.871294 6.96832,21.679243 7.74259,28.647575c0.77426,6.968325 2.39494,11.176355 0.5807,12.00101c-2.1292,0.967824 -1.93564,3.67773 -1.93564,3.67773c0,0 2.32763,1.036365 5.62794,0.436317l3.3003,-0.600054z" stroke-width="1.200101px" fill="#402828"/>
   <path id="path5278-3" d="m149.768062,38.944349c-1.48929,3.581494 -2.98329,8.659864 -4.29157,8.961772c-2.12062,0.489375 -3.42539,6.198619 -4.40414,8.156115c-0.66388,1.327762 -1.25832,3.331256 -1.92483,5.297239c0.14169,-0.27641 0.28599,-0.511438 0.43353,-0.680061c2.7099,-3.097033 14.32368,6.387516 15.87219,9.678118c0.36113,0.767381 0.86552,1.890776 1.41687,3.164947c0.76087,-1.118827 1.45381,-2.275054 1.81972,-3.268214c0.58543,-1.589058 1.21019,-4.933308 1.66155,-8.213793c-0.29069,-0.872797 -0.57179,-1.648914 -0.83358,-2.135084c-1.35495,-2.516337 -2.32213,-15.679202 -8.32263,-20.131193c-0.41785,-0.310017 -0.90028,-0.583898 -1.42711,-0.829846zm-11.41317,24.575331c-0.0728,0.178989 -0.14315,0.363341 -0.21862,0.535865l0.0754,0c0.0476,-0.18359 0.0948,-0.363922 0.14326,-0.535865l-0.00004,0z" stroke-width="1.200101px" fill="#201414"/>
   <path id="path5278-7" d="m136.186422,78.662289c-2.17358,0.309249 -5.60673,0.729262 -8.95805,0.854035c0.21413,1.027592 0.38145,1.967832 0.46888,2.754674c0.17292,1.556341 0.38852,2.952428 0.59819,4.226446c1.84346,0.44762 4.50179,0.99979 5.71682,0.797285c0.74168,-0.123615 1.24748,-0.317609 1.59177,-0.510748c0.14858,-2.685695 0.34215,-5.442661 0.58239,-8.121692z" stroke-width="1.200101px" fill="#201414"/>
   <path id="path5276" d="m151.331832,39.90518c3.48415,10.25893 2.86635,20.847532 1.5485,28.260444c-1.5485,8.710413 -8.51684,13.162402 -16.84011,14.710916c-8.32329,1.548519 -20.3243,-2.12921 -23.42133,-4.25842c-3.097039,-2.129215 -4.839121,-5.806944 -2.129218,-6.387635c2.709908,-0.580696 6.774768,4.25842 15.098038,4.25842c8.32329,0 14.13023,-0.774259 16.64657,-4.839116c2.51635,-4.064857 3.8713,-16.453 2.90348,-19.550033c-0.96783,-3.097037 -2.12922,-12.409988 0.77425,-13.571376c2.90347,-1.161389 5.41982,1.3768 5.41982,1.3768z" stroke-width="1.200101px" fill="#402828"/>
   <path id="path4692-6" d="m92.620499,0.941116c-0.107925,-0.008227 -0.216732,0.069719 -0.325614,0.251186c-1.161388,1.935647 -5.226187,5.419926 -6.387574,5.807056c-1.161387,0.38713 -5.653625,0.245207 -7.961079,1.440367c-1.562829,0.852617 0.783367,4.273094 1.960515,4.623458c1.801222,-0.200135 3.064885,-1.291996 4.71573,0.164473c5.759196,5.081094 6.080091,11.339341 6.080091,11.339341c0,0 -0.638941,9.304985 -1.314001,11.209015c-0.67506,1.90403 -1.476185,3.305293 -1.876453,6.707606c-0.02748,0.233425 -0.0053,0.592843 0.05303,1.042889c1.654377,9.812482 10.844652,35.940741 12.456118,36.585326c0.581914,0.232765 -1.306328,-17.173763 -1.526723,-26.403903c0.07927,-1.925724 0.258916,-3.40793 0.626104,-4.01991c1.200817,-2.001366 13.408929,-4.202386 16.210829,-2.401162c2.80189,1.801227 5.80333,4.403084 5.80333,6.204307c0,0.197984 5.5982,21.685873 5.73815,22.323356c8.28348,-2.036833 8.28517,-15.807832 10.97597,-21.019972c3.23315,-3.848725 7.04405,-8.884653 7.30302,-8.107741c0.12874,0.386237 1.25723,11.028152 1.93592,17.375077c0.18376,1.718522 -0.45323,7.267601 -3.33427,13.313378c-0.5252,1.102122 3.93994,-2.589896 5.35752,-4.197737c4.30512,-6.613065 4.46473,-22.302208 3.71648,-29.552775c-1.17464,-5.860351 -5.56097,-9.526569 -11.94862,-14.172123c-6.38762,-4.645552 -33.679893,-6.19407 -35.228412,-6.19407c-1.548514,0 -3.2906,-1.16133 -6.19407,-0.193506c0,0 -4.001073,-7.594862 -4.283193,-9.862321c-0.261312,-2.100195 -0.556333,-4.074801 -0.556333,-4.074801c0,0 -0.95321,-8.107328 -1.996465,-8.186814z" stroke-width="1.200101px" fill="url(#linearGradient5784)"/>
   <path id="path5282-7" d="m74.137318,17.768415c-0.249556,0.694697 -0.421056,0.810372 -0.09844,1.455591c0.372334,0.744663 0.664558,1.386592 0.745376,1.563412c0.06181,-0.01258 0.124092,-0.0318 0.187519,-0.04688c0.140802,-0.337699 0.556142,-1.376594 0.412535,-2.022827c-0.0037,-0.01717 -0.01662,-0.03648 -0.0211,-0.05391c-0.380307,-0.378918 -0.817724,-0.715368 -1.225886,-0.895388l-0.000004,0.000002z" stroke-width="1.200101px" fill="#4d1701"/>
   <path id="path5351" d="m55.207865,86.632401c6.294715,-2.463147 10.810488,-4.10525 13.547319,-4.378931c2.736833,-0.273686 3.694723,0.547368 3.694723,0.547368" stroke-width="1.200101px" fill="none"/>
   <path id="path5370" d="m36.381058,86.265231c2.600951,0.696028 2.894016,0.769296 2.894016,0.769296l-1.465325,0.07326l-0.366331,-0.14653l0.219799,-0.109908l-1.465325,-0.366331l-0.402965,0l-0.659395,-0.146529l1.245526,-0.073258z" stroke-width="1.200101px" fill="#d1d1d1"/>
   <path id="path5395" d="m58.6919,87.341933c1.803675,-0.819458 11.477923,-4.461502 16.561002,-3.915196c5.083075,0.546305 7.54263,0.910512 7.54263,0.910512" stroke-width="1.231645px" fill="none"/>
   <path id="path5421" d="m58.6919,87.341933c5.004324,-3.363513 10.370108,-4.551217 13.758007,-4.541095c3.387901,0.01014 2.470998,2.25645 2.470998,2.25645" stroke-width="0.476324px" fill="none"/>
   <path id="path5439" d="m54.824559,87.327276c3.788538,-1.589087 6.955281,-2.903722 9.669631,-3.604861c2.714352,-0.701139 7.970497,-0.907102 7.970497,-0.907102" stroke-width="0.537623px" fill="none"/>
   <g transform="matrix(0.39871219,0.08497922,0.03493255,-0.16389928,4.2375034,112.71723) " id="g5493">
    <rect id="rect5476" width="3.858608" height="0.539665" x="62.29592" y="191.810516" fill="#e38405"/>
    <rect y="171.910676" x="114.686884" height="0.539665" width="3.858608" id="rect5480" transform="rotate(17.11688995361328 28.683137893676754,8.167025566101078) " fill="#e38405"/>
    <rect transform="rotate(31.522960662841797 28.683137893676754,8.16702556610107) " id="rect5482" width="3.858608" height="0.539665" x="152.588768" y="143.760836" fill="#e38405"/>
    <rect y="84.647679" x="176.612918" height="0.547022" width="3.853574" id="rect5484" transform="matrix(0.69807003,0.71602949,-0.69534596,0.71867517,0,0) " stroke-width="1.006136" fill="#e38405"/>
    <rect transform="matrix(0.55526992,0.83167019,-0.81510606,0.57931176,0,0) " id="rect5486" width="3.853574" height="0.547022" x="190.020794" y="48.99856" stroke-width="1.006136" fill="#e38405"/>
   </g>
   <path id="path5501" d="m35.990948,82.184799l4.023954,1.356913l5.100126,-0.09358l-4.538645,-1.403708l-4.585435,0.140375z" stroke-width="0.476324px" fill="#6bc7f5"/>
   <path id="path5505" d="m40.576383,82.139629c-0.537898,0.327534 -0.37653,0.467903 -1.129587,0.327534c-0.753057,-0.140372 -0.322739,1.029388 0.753057,0.748644c1.075799,-0.280746 2.904653,-0.09358 2.366755,-0.327535c-0.537899,-0.233952 -0.645477,-0.140373 -1.990225,-0.748643z" stroke-width="0.510711px" fill="#000000"/>
   <path id="path5276-9" d="m110.963517,72.1491c-0.180666,-0.0033 -0.355335,0.01209 -0.524703,0.04837c-2.709906,0.580691 -0.967533,4.258363 2.129508,6.387579c3.09702,2.129209 15.09845,5.80659 23.42173,4.258072c2.8039,-0.521657 5.45231,-1.374294 7.79329,-2.606753c-0.10277,-1.552492 -0.47335,-3.111171 -0.80287,-4.193884c-0.41215,-1.354197 -1.31199,-2.154716 -2.49977,-2.514656c-3.01795,2.409355 -8.13979,2.927719 -14.94373,2.927719c-7.80307,-0.000004 -11.86351,-4.25329 -14.573455,-4.306451l0,0.000004z" stroke-width="1.200101px" fill="url(#linearGradient5838)"/>
   <path id="path5509" d="m106.996623,27.972316c-2.51327,1.304998 -7.665484,10.929347 -5.277873,8.482478c2.387611,-2.446868 6.660174,-4.893737 4.021236,-2.446868c-2.638935,2.446868 -6.157518,15.496832 -4.900882,12.886841c1.256638,-2.609994 4.775222,-8.319352 3.644249,-5.219986c-1.130979,3.099363 -2.01062,10.113722 -1.63363,8.971849c0.376992,-1.141872 2.513276,-9.787472 4.021236,-12.723714c1.507965,-2.936244 -2.890266,2.609992 -2.261948,1.141871c0.628319,-1.46812 7.414161,-8.156229 6.03186,-8.156229c-1.382305,0 -2.136284,-0.163125 -2.136284,-0.163125l3.015923,-3.262491l-3.895568,-1.141872l-0.628319,1.631246z" stroke-width="0.418068px" fill="#100808"/>
   <path id="path5511" d="m123.917982,28.135441c-1.95749,1.957495 -4.40436,7.50373 -5.21999,10.929346c-0.81562,3.425617 -0.97875,9.624353 -0.6525,8.645603c0.32625,-0.978745 3.2625,-12.886841 3.2625,-9.461225c0,3.425616 0.16312,10.113727 0.48937,13.049967c0.32625,2.936241 2.61,9.62435 2.61,7.340606c0,-2.283743 -1.305,-6.851231 0,-3.91499c1.30498,2.936241 2.60998,5.219984 4.0781,6.524983c1.46812,1.304999 3.26249,2.93624 3.26249,2.93624c0,0 -5.70936,-9.298096 -6.19873,-11.744966c-0.48937,-2.446871 -0.97874,-6.524984 -0.97874,-6.524984l-1.46812,2.609993c0,0 5.21998,-14.028715 3.75185,-13.865591c-1.46812,0.163126 -3.09935,1.631246 -3.09935,1.631246c0,0 0.48937,-3.751865 3.09935,-4.078114c2.61,-0.326249 7.82999,-0.815623 7.82999,-0.815623l-5.87249,-4.730613l-4.89373,1.468122z" stroke-width="0.476324px" fill="#100808"/>
   <path id="path5519" d="m121.797362,27.809192c-3.91499,2.446868 -5.54624,5.219986 -6.36186,7.340606c-0.81562,2.120619 -0.97875,5.219986 -0.97875,5.219986c0,0 -0.48937,-3.099367 0,-4.893738c0.48938,-1.794369 0.48938,-1.794369 0.48938,-1.794369c0,0 -2.61,5.219987 -2.77312,7.829979c-0.16312,2.609993 1.14187,5.709359 1.14187,5.709359l-2.120622,-2.609993c0,0 -0.6525,2.609993 0.652502,4.404366c1.305,1.794369 2.12062,3.099367 2.12062,3.099367c0,0 -3.91499,-2.773119 -4.241243,-3.588741c-0.326249,-0.815624 -0.489371,-5.709361 -0.489371,-7.014358c0,-1.304997 1.141872,-3.262491 1.141872,-3.262491l0.48937,3.425616c0,0 0.32625,-5.219987 0.6525,-6.03561c0.326252,-0.815622 2.936242,-4.404363 2.936242,-4.404363l-0.32625,1.79437c0,0 1.46812,-2.936242 2.12062,-4.078114c0.6525,-1.141872 3.2625,-1.957496 3.2625,-1.957496l2.28374,0.815624z" stroke-width="0.476324px" fill="#100808"/>
   <path id="path5591" d="m81.043393,8.123566c3.436133,0 4.238215,-0.267359 5.236014,0c0.997798,0.26736 6.38139,4.58151 6.872265,5.890513c0.490875,1.309004 0.490875,1.309004 0.490875,1.309004c0,0 3.272507,7.854018 4.090636,8.508519c0.818124,0.654502 2.151988,0.256399 3.10888,0c0.956896,-0.2564 4.255623,1.140291 4.255623,1.140291l-7.037254,6.713727c0,0 -4.745133,-5.563262 -5.726889,-8.344894c-0.98175,-2.781631 -2.945253,-9.653897 -4.09063,-10.308399c-1.145378,-0.6545 -5.236013,-3.436132 -5.236013,-3.436132l-1.963507,-1.472629z" stroke-width="0.476324px" fill="#100808"/>
   <path id="path5597" d="m94.787925,25.467857c-0.170553,2.242748 -1.79988,7.690392 -1.79988,7.690392l-0.490874,-4.090635c0,0 -1.472627,3.927009 -1.472627,4.908762c0,0.981753 0,3.763383 0,3.763383c0,0 -1.309005,-4.417885 -1.309005,-5.399638c0,-0.981751 4.090636,-9.16302 4.090636,-9.16302l0.98175,2.290756z" stroke-width="0.476324px" fill="#100808"/>
   <path id="path5603" d="m93.400995,14.786712c1.215097,1.001141 3.625505,4.471543 3.625505,4.471543l-2.573349,-1.140528c0,0 1.604844,2.756497 2.169988,3.130925c0.565143,0.374431 2.166382,1.435316 2.166382,1.435316c0,0 -3.126026,-0.566014 -3.691171,-0.940442c-0.565148,-0.374428 -3.453185,-6.991294 -3.453185,-6.991294l1.75583,0.03448z" stroke-width="0.387519px" fill="#100808"/>
   <path id="path5607" d="m91.351793,57.211182c0.654502,2.454376 3.59976,7.69039 3.436132,6.217763c-0.163626,-1.472631 -1.145378,-4.417883 -0.163626,-3.108883c0.981756,1.309004 4.090634,2.618008 4.090634,2.618008c0,0 -4.745132,-4.090635 -5.89051,-5.726888c-1.145378,-1.636253 -2.290755,-3.763386 -2.290755,-3.763386l0.818125,3.763386z" stroke-width="0.476324px" fill="#100808"/>
   <path id="path5611" d="m93.806175,64.24707l2.454382,2.781631l-0.654502,-2.290756c0,0 2.127128,1.636253 2.454377,2.618009c0.327253,0.981751 0.818128,4.908759 0.818128,4.908759l-3.599759,-4.581511l-1.79988,-2.127128l0.981756,0.327249l-0.654502,-1.636253z" stroke-width="0.476324px" fill="#100808"/>
   <path id="path5613" d="m97.078681,72.919215c0.981751,0.981751 1.799879,0.981751 1.799879,0.981751l0.818125,3.108885l-1.636253,-1.472632l-0.981751,-2.618004z" stroke-width="0.476324px" fill="#100808"/>
   <path id="path5617" d="m89.38829,35.776255c0,0 0.981751,5.563263 1.309,6.38139c0.327254,0.818126 0,6.872266 0.490875,7.526769c0.49088,0.654498 1.79988,4.09063 1.79988,4.09063c0,0 -3.599755,-4.90876 -4.254256,-6.217764c-0.654503,-1.309 -0.81813,-5.399635 -0.81813,-6.708638c0,-1.309004 1.472631,-5.072387 1.472631,-5.072387z" stroke-width="0.476324px" fill="#100808"/>
   <path id="path5619" d="m136.021532,32.994623c-3.59977,0.981753 -5.23602,6.708641 -5.39964,8.017644c-0.16364,1.309003 -1.63626,8.017644 -0.16364,4.417884c1.47263,-3.599758 3.10889,-5.236011 3.10889,-5.236011c0,0 -1.96351,6.217763 -1.96351,8.18127c0,1.963502 4.25426,9.817522 4.25426,9.817522c0,0 -0.98175,-7.85402 -0.81813,-10.635652c0.16363,-2.78163 1.79989,-7.03589 3.27252,-7.690391c1.47262,-0.654502 3.76338,-1.472628 6.54501,-1.472628c2.78163,0 6.47454,1.510919 6.47454,1.510919c0,0 -2.05666,-3.310798 -4.51103,-4.783427c-2.45439,-1.472628 -7.85402,-3.108882 -7.85402,-3.108882l-2.94525,0.981752z" stroke-width="0.476324px" fill="#100808"/>
   <path id="path5621" d="m133.512602,27.443348l6.29231,1.814496l4.42613,3.220746l-3.85408,-0.0096l-6.86436,-5.025642z" stroke-width="0.480002px" fill="#100808"/>
   <path d="m124.894992,63.101696c0.6545,2.454378 3.59976,7.690391 3.43614,6.217764c-0.16364,-1.472631 -1.14538,-4.417883 -0.16364,-3.108883c0.98177,1.309004 4.09065,2.618008 4.09065,2.618008c0,0 -4.74514,-4.090634 -5.89051,-5.726889c-1.14538,-1.636252 -2.29076,-3.763386 -2.29076,-3.763386l0.81812,3.763386z" id="path5623" stroke-width="0.476324px" fill="#100808"/>
   <path d="m131.112752,76.191726l-2.45438,-2.781631l0.6545,2.290756c0,0 -2.12712,-1.636253 -2.45437,-2.618008c-0.32726,-0.981752 -0.81812,-4.908761 -0.81812,-4.908761l3.59974,4.581511l1.79989,2.127129l-0.98176,-0.327249l0.6545,1.636253z" id="path5625" stroke-width="0.476324px" fill="#100808"/>
   <path id="path4692-9" d="m73.188819,16.317332c-0.03877,0.000476 -0.08878,0.04915 -0.150714,0.154433c-0.660641,1.123094 -0.660527,2.113686 -0.660527,2.113686l-0.573079,-1.986233c-0.06573,0.445562 -0.10784,0.881842 -0.12001,1.297797c-0.09131,3.121272 -3.126666,6.068422 -3.004931,7.06857l1.45223,0.0279c0.594581,-0.198193 0.439108,-1.161969 0.439108,-1.161969c0,0 1.758049,-1.686971 2.070894,-2.404877c0.283518,-0.650601 0.921648,-5.114111 0.547029,-5.109315l0,0.000008z" stroke-width="1.200101px" fill="url(#linearGradient5705)"/>
   <path id="path5315" d="m73.96486,18.941281c-0.336636,0.252477 -0.168319,1.009904 0.08416,0.67327c0.252477,-0.336634 -0.08416,-0.67327 -0.08416,-0.67327z" stroke-width="1.200101px" fill="#fff1e4"/>
   <path id="path4692-0" d="m78.823321,16.919224c0,0 0.22069,1.934289 -0.07967,2.234652c-0.300366,0.300361 -2.69131,1.091264 -2.69131,1.091264c0,0 -1.46933,0.886596 -1.569449,0.886596c-0.100125,0 -1.301516,-0.10048 -1.301516,-0.10048l-2.610479,2.800263c0,0 -0.0932,0.378593 -0.143268,0.628895c-0.05006,0.250302 -0.100073,0.326143 -0.250256,0.476323c-0.150185,0.150183 -0.274977,0.575292 -0.425157,0.675414c-0.06501,0.04334 -0.335884,0.0961 -0.647501,0.171179c1.059797,1.549712 3.896634,4.560352 6.093591,5.201418c0.405028,-0.05931 0.834467,-0.151712 0.935905,-0.291191c0.200261,-0.275332 5.683485,1.809606 5.458237,1.459185c-0.225272,-0.350423 -1.984522,-2.220942 -1.984522,-2.220942c0,0 0.75706,-3.64357 1.182555,-4.244294c0.425495,-0.600723 1.101008,-4.880764 1.226162,-5.756818c0.125149,-0.876056 -3.193321,-3.011469 -3.193321,-3.011469l-0.000001,0.000005z" stroke-width="1.200101px" fill="url(#linearGradient5679)"/>
   <path id="path5627" d="m72.954958,20.708612l-2.38359,3.12299c1.327699,-1.198102 3.39545,-1.3599 2.38359,-3.12299z" stroke-width="0.476324px" fill="#100808"/>
   <path id="path5629" d="m72.954958,20.708612c0,0 0.462273,0.214569 1.124896,0.229979c0.446891,-0.03082 1.386908,-0.24656 1.525599,-0.33902c0.138687,-0.09247 0.3082,-0.13869 0.446887,-0.354431c0.01543,-0.06164 0.07706,-0.16951 0.07706,-0.16951c0,0 0,0.354431 -0.123278,0.523941c-0.123282,0.16951 -0.940011,0.63181 -1.217393,0.693451c-0.277383,0.06164 -1.171161,0.21574 -1.371492,0.21574c-0.200329,0 -0.462269,-0.80015 -0.462269,-0.80015l-0.00001,0z" stroke-width="0.476324px" fill="#9c877a"/>
   <path id="path5631" d="m76.12939,19.75202c-0.01539,-0.508531 -0.200328,-1.525592 -0.446887,-1.849202c-0.246564,-0.323611 -1.155752,-0.862962 -1.155752,-0.862962c0,0 0.354428,-0.785911 0.354428,-1.063291c0,-0.277381 -0.369843,-1.217392 -0.369843,-1.217392c0,0 0.01543,1.248211 -0.07704,1.448542c-0.09247,0.200331 -0.770498,0.75509 -0.770498,0.75509c0,0 -0.3082,-0.53935 -0.261972,-0.90919c0.04626,-0.369841 -0.03082,-0.847551 -0.03082,-0.847551c0,0 -0.369841,1.001651 -0.323609,1.371491c0.0462,0.369841 0.07706,1.340673 0.07706,1.340673c0,0 0.354427,-0.261971 0.523936,-0.246561c0.169513,0.01541 0.940012,0.369841 1.232803,0.616401c0.292791,0.24656 0.693451,0.647221 0.832142,0.847552c0.138691,0.200329 0.416069,0.6164 0.416069,0.6164l-0.000017,0z" stroke-width="0.476324px" fill="#9c877a"/>
   <path id="path5633" d="m73.663791,16.962805c0.308195,0 0.816728,-0.57017 0.847545,-0.72427c0.03082,-0.154101 0,-1.232802 0,-1.479362c0,-0.24656 -0.215735,-1.171161 -0.169509,-1.463952c0.04626,-0.29279 0.940011,-2.219043 1.325261,-2.681344c0.385252,-0.462301 1.140345,-1.109522 1.140345,-1.109522l-0.07705,-0.49312c0,0 -0.832142,0.63181 -1.171161,0.893781c-0.339019,0.261971 -0.446892,0.29279 -0.446892,0.29279c0,0 0.292791,-0.52394 0.431483,-0.631811c0.138691,-0.10787 0.739678,-0.7705 0.739678,-0.7705c0,0 -0.600987,0.16951 -0.801319,0.38525c-0.200333,0.21574 -0.78591,0.847552 -0.862961,1.047882c-0.07705,0.20033 0.200327,0.847551 0.07706,0.9246c-0.123281,0.07706 -1.26362,3.636767 -1.325262,4.052837c-0.06164,0.41607 -0.261973,1.109522 -0.07704,1.371491c0.184918,0.26197 0.36984,0.38525 0.369842,0.38525l-0.00002,0z" stroke-width="0.476324px" fill="#100808"/>
   <path id="path4692-7" d="m82.094445,7.623065c-2.65944,0.231932 -5.898122,0.598827 -6.95135,1.535028c-1.666418,1.481263 -3.328632,5.440057 -3.551027,8.543127c0.636936,-0.15221 1.373307,-0.566285 1.953671,-0.514467c0.86296,0.07706 5.625839,-1.936528 6.049869,-1.088473c0.424022,0.848054 2.89791,2.614927 2.827243,4.169693c-0.07067,1.554766 -1.48443,4.09889 -0.707046,3.886876c0.777381,-0.212014 1.837777,-1.766214 2.685833,-0.776817c0.848052,0.989396 2.755708,4.8049 2.967721,6.359667c0.212017,1.554765 1.484791,4.452511 1.484791,4.452511c0,0 3.038694,-7.279253 3.604061,-8.19798c0.565373,-0.918725 1.342452,-3.674197 1.342452,-4.45158c0,-0.777383 -5.087919,-9.258544 -5.087919,-9.258544l-6.618299,-4.659041z" stroke-width="1.200101px" fill="url(#linearGradient5804)"/>
   <path id="path5639" d="m74.132326,21.95788c0.300361,0.350422 2.002409,1.426718 2.603133,1.376658c0.600726,-0.05006 2.528046,-0.375452 2.828406,-0.12515c0.300366,0.250301 1.101327,0.675813 1.151389,0.976175c0.05006,0.300362 0.12515,0.625754 0.100115,0.876055c-0.02501,0.250302 -0.02505,0.625754 -0.02505,0.625754c0,0 -0.525619,-1.476778 -0.825979,-1.651989c-0.300361,-0.175212 -1.77714,-0.150182 -2.202656,-0.0751c-0.425509,0.0751 -2.25271,0.175211 -2.578103,0.02503c-0.325394,-0.15018 -1.877262,-2.002411 -1.877262,-2.002411l0.425515,0c0.225266,0 0.400493,-0.02503 0.400493,-0.02503l-0.000001,0.000008z" stroke-width="0.476324px" fill="#100808"/>
   <path id="path5641" d="m74.275066,21.95788c0.225272,0 0.876055,-0.350422 0.876055,-0.350422l0.876054,-0.725875c0,0 -0.32539,0.600724 -0.500601,0.750905c-0.175211,0.150181 -0.200243,0.525633 -0.07509,0.675814c0.125151,0.150181 0.350423,0.250301 0.350423,0.250301c0,0 -0.700844,-0.175211 -0.976177,-0.250301c-0.27533,-0.07509 -0.550665,-0.350422 -0.550664,-0.350422z" stroke-width="0.476324px" fill="#100808"/>
   <path id="path4692-05" d="m83.37024,24.775798c-1.337803,0.04645 -3.154564,1.075002 -3.74914,1.372292c-0.792774,0.396386 -3.831062,1.453194 -4.095317,0.858615c-0.26426,-0.594579 -1.321818,-1.652166 -2.246719,-2.114617c-0.88349,-0.441745 -3.836692,0.715384 -4.174349,0.891247c1.250954,1.809047 4.835996,5.521118 7.056479,5.279565c0.571632,-0.06219 2.876747,-0.140638 4.126898,1.332218c1.728921,2.036921 3.757017,5.302817 5.776354,8.645462c0.212873,-0.638621 0.339644,-1.018916 0.494001,-1.481999c0.33032,-0.990965 0.792631,-6.936465 0.792631,-6.936465c0,0 -0.594333,0.000058 -1.387103,-0.330264c-0.792773,-0.330322 -2.114688,-1.453206 -1.718305,-1.188948c0.396387,0.264257 2.775149,0.396315 2.775149,0.396315c0,0 -0.594372,-0.595277 -1.188952,-1.321983c-0.594576,-0.726708 -0.661319,-4.624516 -1.454088,-5.219095c-0.198194,-0.148646 -0.561604,-0.197828 -1.007539,-0.182343z" stroke-width="1.200101px" fill="url(#linearGradient5735)"/>
   <path id="path5635" d="m75.834374,20.731402c0.125149,-0.07509 0.295016,-0.332161 0.295016,-0.655772c0,-0.32361 -0.04473,-0.695856 -0.04473,-0.695856c0,0 1.777141,0.825996 1.977383,1.126357c0.200242,0.300362 2.553071,1.201447 3.078709,1.5769c0.525633,0.375452 0.700844,0.901086 0.675813,1.401688c-0.02501,0.500603 -1.02624,2.202653 -1.02624,2.202653c0,0 0.700848,-1.977382 0.525638,-2.327804c-0.175211,-0.350422 -0.926116,-0.926115 -1.276537,-1.101326c-0.350423,-0.175211 -1.952352,-0.600724 -2.202655,-0.675815c-0.250303,-0.07509 -0.750906,-0.475572 -0.951148,-0.525633c-0.200241,-0.05006 -1.051266,-0.325392 -1.051266,-0.325392l0.000017,0z" stroke-width="0.476324px" fill="#100808"/>
   <path d="m93.315299,19.209645c-0.247574,1.562364 -2.612731,5.357352 -2.612731,5.357352l-0.712561,-2.849656c0,0 -2.13768,2.735669 -2.13768,3.419588c0,0.683917 0,2.621683 0,2.621683c0,0 -1.90017,-3.077629 -1.90017,-3.761546c0,-0.683917 5.938019,-6.383228 5.938019,-6.383228l1.425123,1.595807z" id="path5601" stroke-width="0.478992px" fill="#100808"/>
   <path id="path5643" d="m71.27889,28.315537c0.861775,0.200242 2.891128,0.725875 3.47491,0.675815c0.583787,-0.05006 0.639389,-0.05006 0.639389,-0.05006l0.528181,0.300362c0,0 -0.889573,0.175211 -1.056367,0.175211c-0.166795,0 -2.279547,-0.100125 -2.279547,-0.100125l-1.306566,-1.001203z" stroke-width="0.501981px" fill="#402828"/>
   <path id="path5645" d="m69.026174,25.862584c0.250303,-0.02503 0.650781,-0.02503 0.525633,-0.275332c-0.125151,-0.250302 -0.500603,-0.250302 -0.200242,-0.325392c0.30036,-0.07509 0.500601,0.12515 0.625756,0.12515c0.125149,0 0.550664,-0.675814 0.400479,-0.700844c-0.150181,-0.02503 -0.876056,-0.12515 -1.176416,-0.07509c-0.30036,0.05006 -0.775935,0.350422 -0.775935,0.350422l0.600725,0.901086z" stroke-width="0.476324px" fill="#100808"/>
   <path id="path4692-2" d="m92.512308,0.947384c-0.07231,0.034023 -0.145398,0.108729 -0.217986,0.229706c-1.137599,1.895996 -5.044115,5.259847 -6.295847,5.761424c5.120019,2.329921 8.4732,5.994261 9.368761,7.038874c-0.08256,-0.287854 -0.168653,-0.581808 -0.194546,-0.78991c-0.261311,-2.100197 -0.555518,-4.073781 -0.555518,-4.073781c0,0 -1.020313,-8.676689 -2.104864,-8.166313z" stroke-width="1.200101px" fill="#080404"/>
   <path id="path4716" d="m84.552008,12.418994c-1.16139,-1.161389 -10.646059,-11.613881 -10.839623,-9.678235c-0.193564,1.935647 3.484165,7.549023 3.677729,8.903977c0.193564,1.354952 1.161388,3.677729 2.322773,4.258423c1.161393,0.580694 4.839121,-3.484165 4.839121,-3.484165z" stroke-width="1.200101px" fill="#100808"/>
   <path id="path5806" d="m150.523772,57.022419c-0.42815,2.890056 -4.17451,8.242006 -4.17451,8.242006l0.74927,-6.529379l-2.14078,6.101227c0,0 1.17743,-5.887147 1.17743,-7.492736c0,-1.605587 0.42816,-4.17452 0.42816,-4.17452l1.60557,4.923793l2.24784,-7.171617l0.10702,6.101226z" stroke-width="0.476324px" fill="#100808"/>
   <path id="path5808" d="m149.132272,67.619284c-2.03374,1.605589 -4.81676,3.746368 -4.81676,3.746368l1.28447,-4.17452c0,0 -2.46189,4.709717 -3.10413,5.35195c-0.64223,0.642237 -2.89005,2.675976 -2.89005,2.675976l5.88715,-2.568937l-2.78303,4.495639l4.60269,-2.461898l1.81966,-7.064578z" stroke-width="0.476324px" fill="#100808"/>
   <path id="path5810" d="m136.073502,80.035816l-7.06457,-0.214079l3.63932,-1.926701l-7.06456,-0.535196c0,0 8.88423,-0.428153 10.06167,-0.963352c1.17742,-0.535197 -3.31822,2.568938 -3.31822,2.568938l8.88424,-1.391508l-5.13788,2.461898z" stroke-width="0.476324px" fill="#342020"/>
   <path id="path5812" d="m134.574962,81.855478l1.0704,0.321118l-0.53521,0.535198l4.28157,-0.96335l-0.5352,-1.284469l-4.28156,1.391503z" stroke-width="0.476324px" fill="#342020"/>
   <path id="path5840" d="m118.519112,75.968335c1.71261,0.214075 5.03083,1.17743 5.03083,1.17743c0,0 -2.35486,0.107034 -1.9267,0.96335c0.42815,0.856311 2.89006,0.963351 2.35487,1.605584c-0.53521,0.642236 -3.63934,-0.107036 -3.63934,-0.107036l4.49563,2.24782c0,0 -3.74636,-0.642237 -5.03083,-0.856316c-1.28446,-0.214074 -5.99417,-2.997091 -5.99417,-2.997091l5.45898,0l-1.49854,-1.605588l0.74927,-0.428153z" stroke-width="0.476324px" fill="#543838"/>
   <path id="path5507" d="m94.392429,57.008492c0,-0.929365 0.3238,-4.904754 1.532661,-9.000947c1.050357,-3.559101 2.968755,-7.169432 3.422078,-9.452409c0.209501,-1.055072 -2.529808,4.134879 -2.336596,3.187869c0.5122,-2.510518 0.998264,-4.586911 1.623097,-5.940708c1.957494,-4.24124 6.851235,-7.340607 8.645604,-7.340607c1.794373,0 19.411819,-0.163124 24.142439,2.12062c13.06873,7.916272 18.7118,15.76446 18.10683,31.646167c-0.16313,2.609992 -1.30501,10.766221 -4.89374,13.049965c-3.58874,2.283744 -10.11373,4.730614 -14.19184,5.383112c-4.07812,0.652502 -9.46122,0.652502 -9.46122,0.652502c0,0 8.80872,2.120616 11.74496,1.304993c2.93625,-0.815624 7.17749,-1.794374 12.39747,-3.914991c3.42561,-2.120622 7.3897,-3.987821 8.48248,-11.418718c0.81562,-5.546234 2.28374,-15.65996 -1.63125,-22.674313c-3.91499,-7.01436 -5.29625,-8.654398 -10.43997,-12.560596c-6.23289,-4.733327 -13.53934,-6.702209 -19.57494,-7.340606c-6.05668,-0.640627 -14.943531,-1.402374 -17.780586,-0.326249c-1.724521,0.654128 -4.078371,3.903531 -4.955463,5.273197c-2.002123,3.1265 3.489547,-5.997045 0.647638,-3.846045c-1.249516,0.945741 -4.222533,6.86297 -4.664029,8.849696c-1.304997,5.872484 -2.283743,12.397469 -1.957495,15.496836c0.326254,3.099368 1.141872,6.851232 1.141872,6.851232z" stroke-width="0.476324px" fill="#100808"/>
   <text transform="matrix(1.149677,-0.35459603,2.0581454,0.23501369,0,0) " id="text6144" y="116.873168" x="-161.215759" xml:space="preserve" stroke-width="0.10927" fill="#42ba80" font-family="sans-serif" font-size="2.331086px" font-weight="normal" font-style="normal">
    <tspan y="116.873168" x="-161.215759" id="tspan6142" stroke-width="0.10927" font-family="sans-serif" font-weight="bold" font-style="normal">O`REILLY</tspan>
   </text>
   <text transform="translate(11.721611976623535,1.0989011526107788) scale(0.7226581573486328,1.3837801218032837) " id="text6148" y="35.295956" x="6.868918" xml:space="preserve" stroke-width="0.444776" fill="#100808" font-family="sans-serif" font-size="9.488549px" font-weight="normal" font-style="normal">
    <tspan y="35.295956" x="6.868918" id="tspan6146" stroke-width="0.444776" fill="#100808" font-family="sans-serif" font-weight="bold" font-style="italic">В разработке...</tspan>
   </text>
  </g>
 </g>
</svg>